<?xml version="1.0" standalone="no"?>
<!DOCTYPE svg PUBLIC "-//W3C//DTD SVG 1.1//EN" "http://www.w3.org/Graphics/SVG/1.1/DTD/svg11.dtd" >
<svg xmlns="http://www.w3.org/2000/svg" xmlns:xlink="http://www.w3.org/1999/xlink" version="1.1">
<metadata>
Created by FontForge 20170731 at Sat Jan  1 04:00:56 2022
 By Aleksey,,,
(C)2012 Kai Bernau and Susana Carvalho with Christian Schwartz under exclusive license to Schwartzco Inc./Commercial Type. All rights reserved.
</metadata>
<defs>
<font id="AtlasTypewriterWeb-BoldItalic" horiz-adv-x="1310" >
  <font-face 
    font-family="Atlas Typewriter Web Bold It"
    font-weight="400"
    font-style="italic"
    font-stretch="normal"
    units-per-em="2048"
    panose-1="0 0 5 0 0 0 0 0 0 0"
    ascent="1663"
    descent="-385"
    x-height="1098"
    cap-height="1567"
    bbox="-129 -440 3535 2445"
    underline-thickness="102"
    underline-position="-255"
    slope="-10"
    unicode-range="U+000D-FB02"
  />
<missing-glyph horiz-adv-x="1024" 
 />
    <glyph glyph-name=".notdef" horiz-adv-x="1024" 
 />
    <glyph glyph-name=".null" horiz-adv-x="0" 
 />
    <glyph glyph-name="nonmarkingreturn" horiz-adv-x="682" 
 />
    <glyph glyph-name="NULL" horiz-adv-x="0" 
 />
    <glyph glyph-name="NULL" horiz-adv-x="0" 
 />
    <glyph glyph-name="CR" unicode="&#xd;" horiz-adv-x="1024" 
 />
    <glyph glyph-name="space" unicode=" " 
 />
    <glyph glyph-name="exclam" unicode="!" 
d="M793 539l247 1075h-376l-136 -1075h265zM817 369h-368l-66 -369h369z" />
    <glyph glyph-name="quotedbl" unicode="&#x22;" 
d="M578 944l180 623h-348l-50 -623h218zM1036 944l181 623h-349l-49 -623h217z" />
    <glyph glyph-name="numbersign" unicode="#" 
d="M733 584l-123 -381h181l122 381h250l33 182h-223l94 287h242l30 182h-215l107 330h-180l-107 -330h-237l106 330h-180l-107 -330h-245l-31 -182h219l-94 -287h-238l-33 -182h211l-122 -381h180l123 381h237zM555 766l94 287h238l-94 -287h-238z" />
    <glyph glyph-name="dollar" unicode="$" 
d="M600 -238l37 205q253 3 410 129q163 131 163 369q0 155 -80 250q-85 101 -280 170l-45 16l67 377q124 -44 121 -188h301q3 162 -94 274q-108 125 -282 160l30 172h-135l-29 -158q-253 0 -401 -129q-145 -126 -145 -334q0 -159 83.5 -257.5t247.5 -158.5l54 -20l-76 -418
q-173 33 -176 211h-303q-10 -172 94 -293q121 -141 342 -166l-39 -211h135zM739 1290l-61 -344q-74 30 -104.5 68t-30.5 104q0 163 196 172zM682 215l68 377q83 -31 114 -73t31 -113q0 -76 -51 -128.5t-162 -62.5z" />
    <glyph glyph-name="percent" unicode="%" 
d="M131 0l1342 1585h-205l-1340 -1585h203zM406 856q204 0 299 162q65 110 65 276q0 129 -76.5 208t-201.5 79q-211 0 -304 -164q-65 -117 -65 -274q0 -129 78 -208t205 -79zM424 1022q-94 0 -94 119q0 91 26 168q37 106 113 106q90 0 90 -119q0 -90 -24 -166
q-33 -108 -111 -108zM901 -14q204 0 299 161q66 112 66 277q0 129 -77 208t-202 79q-210 0 -303 -164q-66 -119 -66 -275q0 -129 77.5 -207.5t205.5 -78.5zM920 152q-95 0 -95 118q0 88 27 168q38 107 113 107q90 0 90 -119q0 -87 -25 -166q-33 -108 -110 -108z" />
    <glyph glyph-name="ampersand" unicode="&#x26;" 
d="M1194 0l45 256q-88 0 -111 6q-32 8 -53 35q109 183 201 522h-281q-46 -175 -80 -264l-149 240q197 96 281 190q102 111 102 287q0 154 -115 246q-121 94 -315 94q-191 0 -316 -107q-137 -114 -137 -303q0 -100 26.5 -172.5t80.5 -155.5q-187 -90 -267 -215
q-71 -111 -71 -253q0 -201 121 -316q128 -125 356 -125q223 0 371 109q42 -45 96 -59.5t158 -14.5h57zM563 1223q0 80 45.5 127t116.5 47q67 0 102 -39t35 -103q0 -86 -43 -139q-48 -63 -170 -131q-47 75 -65 119q-21 52 -21 119zM502 668l241 -385q-84 -66 -178 -66
q-103 0 -161 54t-58 163q0 167 156 234z" />
    <glyph glyph-name="quotesingle" unicode="'" 
d="M807 944l180 623h-348l-49 -623h217z" />
    <glyph glyph-name="parenleft" unicode="(" 
d="M662 -266h284q-137 203 -196 385q-60 186 -60 409q0 365 182 650q143 224 422 436h-315q-284 -191 -437 -471t-153 -641q0 -224 86 -445q71 -182 187 -323z" />
    <glyph glyph-name="parenright" unicode=")" 
d="M670 1614h-285q140 -207 197 -383q59 -183 59 -412q0 -367 -180 -649q-141 -221 -424 -436h315q284 191 437 471t153 641q0 223 -86 444q-73 187 -186 324z" />
    <glyph glyph-name="asterisk" unicode="*" 
d="M860 537l234 120l-211 326l2 8l375 27l-37 256l-367 -103l-2 5l104 368l-260 47l-30 -379l-6 -2l-306 215l-120 -229l339 -152v-8l-311 -231l178 -195l260 281l7 -2z" />
    <glyph glyph-name="plus" unicode="+" 
d="M1186 614l45 238h-375l78 397h-264l-78 -397h-375l-45 -238h373l-78 -401h264l78 401h377z" />
    <glyph glyph-name="comma" unicode="," 
d="M862 369h-383l-190 -609h239z" />
    <glyph glyph-name="hyphen" unicode="-" 
d="M985 489l55 299h-686l-53 -299h684z" />
    <glyph glyph-name="period" unicode="." 
d="M758 0l65 369h-368l-66 -369h369z" />
    <glyph glyph-name="slash" unicode="/" 
d="M137 -266l1262 1880h-250l-1264 -1880h252z" />
    <glyph glyph-name="zero" unicode="0" 
d="M608 -31q201 0 334 109q160 126 250 430q72 253 72 487q0 541 -500 541q-193 0 -330 -106q-162 -129 -252 -431q-73 -246 -73 -489q0 -541 499 -541zM608 223q-81 0 -120 50t-39 169q0 173 45 394q56 276 139 376q31 37 61.5 53.5t75.5 16.5q78 0 116 -50.5t38 -168.5
q0 -154 -45 -387q-52 -267 -121 -369q-31 -46 -66 -65t-84 -19z" />
    <glyph glyph-name="one" unicode="1" 
d="M1194 254h-369l224 1270h-299q-22 -134 -99 -201q-79 -68 -243 -68h-119l-37 -215h377l-140 -786h-389l-45 -254h1094z" />
    <glyph glyph-name="two" unicode="2" 
d="M188 993h330q10 131 66 205q64 84 172 84q90 0 141 -48.5t51 -131.5q0 -94 -47 -164q-54 -83 -205 -205l-635 -510l-43 -223h1094l51 270h-616v4q30 18 94 62q11 7 43.5 30t52 37t48.5 36t53 42l137 115q159 132 223 233q76 124 76 277q0 90 -33 170t-96 137
q-140 127 -377 127q-283 0 -440 -174q-69 -76 -104.5 -174t-35.5 -199z" />
    <glyph glyph-name="three" unicode="3" 
d="M557 639h90q100 0 155.5 -49t55.5 -141q0 -104 -59 -162t-183 -58q-217 0 -217 213h-327q-22 -193 112 -327q143 -146 412 -146q250 0 412 125q174 135 174 359q0 120 -57.5 196.5t-159.5 108.5v10q143 39 223 136.5t80 242.5q0 165 -140 280q-141 113 -364 113
q-269 0 -426 -160q-67 -69 -103 -153t-36 -166h327q4 103 65.5 160t162.5 57q83 0 134.5 -47.5t51.5 -126.5q0 -94 -60.5 -151.5t-168.5 -57.5h-105z" />
    <glyph glyph-name="four" unicode="4" 
d="M1264 594h-207l164 924h-453l-700 -955l-41 -233h684l-60 -330h301l58 330h207zM401 590l349 493q68 100 88 136l28 51h15l-119 -680h-361z" />
    <glyph glyph-name="five" unicode="5" 
d="M401 442h-315q-11 -90 14.5 -174t87.5 -149q140 -150 416 -150q272 0 438 166q164 164 164 436q0 197 -108 314q-115 121 -320 121q-162 0 -268 -109h-8l76 352h665l47 269h-942l-178 -865h295q46 59 98.5 84t122.5 25q89 0 140 -55.5t51 -159.5q0 -169 -78 -250
q-68 -74 -178 -74q-109 0 -167 58t-53 161z" />
    <glyph glyph-name="six" unicode="6" 
d="M981 1133h319q0 159 -108 270q-132 135 -381 135q-274 0 -444 -219q-134 -173 -197 -447q-45 -195 -45 -360q0 -250 119 -389q129 -154 379 -154q300 0 460 211q62 84 91.5 185.5t29.5 197.5q0 194 -104 307q-108 117 -295 117q-185 0 -295 -137h-16q65 236 133 336
q37 54 80.5 78t103.5 24q81 0 125.5 -41t44.5 -114zM463 408q0 124 45 217q63 129 190 129q78 0 124 -50t46 -135q0 -125 -45 -223q-62 -131 -184 -131q-85 0 -130.5 52.5t-45.5 140.5z" />
    <glyph glyph-name="seven" unicode="7" 
d="M471 0l819 1278l43 240h-1081l-49 -273h708l-802 -1245h362z" />
    <glyph glyph-name="eight" unicode="8" 
d="M621 -37q293 0 448 152q131 128 131 321q0 116 -61 197t-156 119v10q136 39 215.5 136t79.5 249q0 179 -148 291q-138 104 -352 104q-226 0 -375 -117q-153 -120 -153 -309q0 -224 182 -313v-8q-152 -27 -246 -127q-108 -115 -108 -299q0 -182 151 -295
q148 -111 392 -111zM743 879q-81 0 -130.5 46t-49.5 134q0 108 47 178q55 78 168 78q85 0 136 -47t51 -138q0 -107 -47 -174q-57 -77 -175 -77zM616 186q-92 0 -146 52.5t-54 140.5q0 110 49 180q63 90 192 90q94 0 151.5 -51.5t57.5 -140.5q0 -106 -53 -178
q-68 -93 -197 -93z" />
    <glyph glyph-name="nine" unicode="9" 
d="M555 -35q282 0 457 197q137 152 200 416q43 192 43 383q0 280 -141 434q-139 145 -381 145q-271 0 -424 -180q-67 -77 -101 -179t-34 -210q0 -200 121 -318q115 -112 309 -112q176 0 266 108h17q-47 -222 -115 -321q-75 -109 -207 -109q-79 0 -123.5 39t-44.5 113h-317
q-6 -69 21.5 -141.5t84.5 -129.5q135 -135 369 -135zM909 1106q0 -129 -35 -213q-57 -135 -186 -135q-81 0 -129.5 47.5t-48.5 140.5q0 123 35 209q58 141 190 141q79 0 126.5 -51.5t47.5 -138.5z" />
    <glyph glyph-name="colon" unicode=":" 
d="M938 1098h-369l-65 -369h368zM809 369h-369l-65 -369h368z" />
    <glyph glyph-name="semicolon" unicode=";" 
d="M956 1098h-368l-66 -369h369zM836 369h-383l-191 -609h240z" />
    <glyph glyph-name="less" unicode="&#x3c;" 
d="M1094 354l-572 318l697 305l53 289l-1096 -504l-31 -152l902 -508z" />
    <glyph glyph-name="equal" unicode="=" 
d="M1190 819l47 236h-965l-47 -236h965zM1155 635h-965l-45 -236h965z" />
    <glyph glyph-name="greater" unicode="&#x3e;" 
d="M262 1016l574 -316l-695 -311l-53 -287l1092 506l30 154l-899 504z" />
    <glyph glyph-name="question" unicode="?" 
d="M975 1194q0 -69 -27.5 -115.5t-97.5 -89.5l-172 -108q-84 -52 -125 -119q-36 -54 -49 -139l-17 -95h299l5 23q10 49 31.5 77t70.5 60l178 115q111 72 170 170.5t59 240.5q0 178 -133 293q-146 123 -381 123q-304 0 -462 -186q-65 -77 -96 -172t-31 -189h313
q0 143 73.5 217t190.5 74q97 0 149 -48.5t52 -131.5zM797 369h-369l-66 -369h369z" />
    <glyph glyph-name="at" unicode="@" 
d="M621 -254q105 0 208 33l31 174q-125 -33 -221 -33q-230 0 -315 150.5t-35 449.5l30 176q47 276 153.5 402.5t289.5 126.5q172 0 252 -111q74 -103 49 -262h-8q-21 63 -85.5 104t-160.5 41q-196 0 -303 -176q-90 -149 -90 -368q0 -160 92 -242q84 -78 213 -78q88 0 143 30
t99 93h10l-17 -98h189l110 628q22 132 0 243t-84 194q-65 82 -167 127t-234 45q-294 0 -459 -203q-131 -161 -186 -455l-33 -184q-69 -384 74 -598q137 -209 455 -209zM805 322q-59 0 -91 38.5t-32 102.5q0 111 33 199q46 133 155 133q75 0 104 -57t15 -148l-14 -88
q-17 -85 -63 -132.5t-107 -47.5z" />
    <glyph glyph-name="A" unicode="A" 
d="M1149 0l-74 1567h-477l-627 -1567h326l137 346h371l12 -346h332zM801 1315l-6 -103q-7 -80 -4 -280l6 -338h-271l123 340q34 91 49 141q36 104 64 205q8 27 8 35h31z" />
    <glyph glyph-name="B" unicode="B" 
d="M45 0h590q266 0 422 121q170 128 170 371q0 131 -70.5 210t-193.5 105v10q148 31 227.5 125t79.5 240q0 176 -117 276q-128 109 -393 109h-438zM616 1331h129q109 0 160 -45.5t51 -138.5q0 -119 -73 -176q-63 -49 -168 -49h-172zM502 692h182q109 0 164 -46.5t55 -153.5
q0 -139 -88 -201q-71 -53 -207 -53h-186z" />
    <glyph glyph-name="C" unicode="C" 
d="M1223 532h-344q-27 -147 -74 -215q-60 -86 -176 -86q-93 0 -136.5 57t-43.5 171q0 89 22 243q27 187 57 299q43 163 82 224q64 102 181 102q112 0 155 -78q38 -71 25 -213h334q23 233 -82 381q-126 172 -406 172q-151 0 -253 -40t-181 -119q-139 -144 -213 -445
q-64 -259 -64 -487q0 -282 140 -410q130 -121 383 -121q269 0 426 170q139 150 168 395z" />
    <glyph glyph-name="D" unicode="D" 
d="M14 0h478q419 0 622 307q170 257 170 686q0 282 -170 432q-161 142 -450 142h-373zM582 1311h80q125 0 196 -74q76 -82 76 -246q0 -155 -29 -289q-41 -193 -121 -301q-102 -141 -266 -141h-123z" />
    <glyph glyph-name="E" unicode="E" 
d="M1075 0l47 262h-659l67 389h586l45 260h-583l67 394h637l47 262h-973l-276 -1567h995z" />
    <glyph glyph-name="F" unicode="F" 
d="M1135 608l47 262h-594l76 435h630l47 262h-966l-277 -1567h336l107 608h594z" />
    <glyph glyph-name="G" unicode="G" 
d="M788 1329q97 0 145 -66t36 -178h327q11 105 -17.5 197.5t-92.5 161.5q-139 145 -383 145q-159 0 -266 -49q-94 -43 -162 -117q-138 -143 -219 -440q-68 -252 -68 -489q0 -247 114.5 -387t317.5 -140q123 0 209 46t131 120h12l-24 -133h272l148 836h-570l-45 -252h252
l-6 -39q-25 -171 -98 -250q-64 -72 -166 -72q-203 0 -203 232q0 82 27 247q22 153 61 297q40 149 82 215q40 65 82.5 90t103.5 25z" />
    <glyph glyph-name="H" unicode="H" 
d="M872 651l-114 -651h336l276 1567h-336l-114 -654h-406l115 654h-336l-277 -1567h336l115 651h405z" />
    <glyph glyph-name="I" unicode="I" 
d="M1266 1313l45 254h-963l-45 -254h313l-186 -1059h-313l-45 -254h962l45 254h-313l186 1059h314z" />
    <glyph glyph-name="J" unicode="J" 
d="M434 -20q548 0 637 501l193 1086h-809l-45 -254h477l-142 -805q-22 -138 -112 -201q-75 -53 -199 -53q-182 0 -301 22l-45 -256q178 -40 346 -40z" />
    <glyph glyph-name="K" unicode="K" 
d="M590 629l264 -629h360l-378 850l602 717h-357l-581 -695l123 695h-330l-277 -1567h330l76 432z" />
    <glyph glyph-name="L" unicode="L" 
d="M1110 0l47 272h-676l230 1295h-336l-277 -1567h1012z" />
    <glyph glyph-name="M" unicode="M" 
d="M291 0l188 1073h21l-6 -117q-6 -188 -5 -208l9 -363h243l131 363q4 12 16 46t19 56q6 23 18.5 61t14.5 45l37 117h20l-188 -1073h285l276 1567h-364l-201 -492q-30 -73 -51 -141q-56 -179 -70 -240h-20l6 140q4 165 2 237l-21 496h-358l-277 -1567h275z" />
    <glyph glyph-name="N" unicode="N" 
d="M301 0l191 1079h26q0 -53 14 -176q3 -48 19 -115l170 -788h371l276 1567h-287l-190 -1080h-19q-5 61 -8 88q-10 88 -33 211l-169 781h-371l-277 -1567h287z" />
    <glyph glyph-name="O" unicode="O" 
d="M96 502q0 -258 131 -396.5t373 -138.5q136 0 234 40.5t176 121.5q140 143 213 434q63 249 63 492q0 257 -129.5 395.5t-370.5 138.5q-137 0 -235.5 -40t-175.5 -119q-135 -140 -213 -435q-66 -252 -66 -493zM608 229q-86 0 -128 55t-42 171q0 162 51 403q55 274 113 367
q66 102 172 102q86 0 128 -54.5t42 -170.5q0 -84 -22 -238q-29 -179 -62 -307q-42 -166 -78 -223q-34 -53 -74.5 -79t-99.5 -26z" />
    <glyph glyph-name="P" unicode="P" 
d="M473 524h238q260 0 417 142q175 158 175 436q0 217 -140 344q-136 121 -354 121h-487l-277 -1567h336zM610 1305h148q104 0 161.5 -56t57.5 -159q0 -297 -297 -297h-160z" />
    <glyph glyph-name="Q" unicode="Q" 
d="M958 102v7q168 136 256 438q72 246 72 508q0 257 -129.5 395.5t-370.5 138.5q-137 0 -235.5 -40t-175.5 -119q-135 -140 -213 -435q-66 -252 -66 -493q0 -258 131 -396.5t373 -138.5q35 0 49 2t43 2q82 0 156 -73t135 -197l264 149q-60 117 -124.5 173t-164.5 79z
M608 229q-86 0 -128 55t-42 171q0 162 51 403q55 274 113 367q66 102 172 102q86 0 128 -54.5t42 -170.5q0 -84 -22 -238q-29 -179 -62 -307q-42 -166 -78 -223q-34 -53 -74.5 -79t-99.5 -26z" />
    <glyph glyph-name="R" unicode="R" 
d="M1194 0l-244 666v4q348 101 348 467q0 206 -132 318t-382 112h-485l-276 -1567h335l105 590h178l209 -590h344zM590 1309h166q99 0 155 -53t56 -146q0 -124 -72 -188t-193 -64h-192z" />
    <glyph glyph-name="S" unicode="S" 
d="M350 449h-319q-13 -205 123 -338q144 -144 436 -144q270 0 436 129q178 138 178 387q0 153 -74 252q-71 95 -262 170l-157 62q-91 34 -132.5 76t-41.5 114q0 78 55 127t156 49q119 0 180 -71q49 -60 45 -142h319q3 211 -137 342q-147 131 -393 131q-273 0 -420 -147
q-133 -133 -133 -332q0 -164 88 -266q73 -91 244 -160l184 -74q78 -32 110.5 -75.5t32.5 -110.5q0 -89 -69.5 -145t-186.5 -56q-138 0 -204 66q-58 55 -58 156z" />
    <glyph glyph-name="T" unicode="T" 
d="M260 1567l-47 -262h401l-229 -1305h336l229 1305h402l47 262h-1139z" />
    <glyph glyph-name="U" unicode="U" 
d="M291 1567l-174 -979q-58 -332 84 -486q124 -135 391 -135q263 0 403 131q134 125 181 391l190 1078h-319l-197 -1104q-19 -106 -72.5 -163.5t-161.5 -57.5q-115 0 -159.5 66.5t-18.5 215.5l185 1043h-332z" />
    <glyph glyph-name="V" unicode="V" 
d="M1108 1567l-391 -963q-30 -79 -41 -115q-40 -120 -66 -225h-20q0 76 2 115q0 71 2 110q0 41 -4 115l-49 963h-328l106 -1567h449l674 1567h-334z" />
    <glyph glyph-name="W" unicode="W" 
d="M563 449l43 118q45 129 64 205h14q-1 -17 -2 -51t-2 -51q-4 -134 -2 -224l14 -446h371l373 1567h-277l-258 -1133h-14l6 101q4 120 2 174l-18 489h-224l-190 -489q-10 -23 -29 -82q-36 -112 -57 -193h-17l142 1133h-283l-180 -1567h350z" />
    <glyph glyph-name="X" unicode="X" 
d="M643 543l184 -543h355l-312 795l551 772h-338l-331 -500h-2l-168 500h-353l293 -748l-590 -819h340l367 543h4z" />
    <glyph glyph-name="Y" unicode="Y" 
d="M719 0l117 664l624 903h-344l-381 -586h-10l-172 586h-346l295 -889l-119 -678h336z" />
    <glyph glyph-name="Z" unicode="Z" 
d="M938 1305l-891 -1074l-41 -231h1108l47 264h-715l891 1071l41 232h-1093l-47 -262h700z" />
    <glyph glyph-name="bracketleft" unicode="[" 
d="M932 -266l39 217h-396l254 1446h396l39 217h-684l-332 -1880h684z" />
    <glyph glyph-name="backslash" unicode="\" 
d="M1137 -266l-598 1880h-222l598 -1880h222z" />
    <glyph glyph-name="bracketright" unicode="]" 
d="M416 1614l-39 -217h395l-254 -1446h-395l-39 -217h684l332 1880h-684z" />
    <glyph glyph-name="asciicircum" unicode="^" 
d="M637 1614l-381 -742h244l237 476h2l238 -476h254l-379 742h-215z" />
    <glyph glyph-name="underscore" unicode="_" 
d="M999 -385l37 203h-901l-37 -203h901z" />
    <glyph glyph-name="grave" unicode="`" 
d="M862 1614h-370l210 -367h236z" />
    <glyph glyph-name="a" unicode="a" 
d="M797 135v-4q0 -60 45.5 -95.5t120.5 -35.5h170l43 242h-56q-61 0 -49 65l55 314q45 253 -79 380q-118 121 -363 121q-207 0 -340 -94q-136 -97 -151 -264h315q4 63 49 99t119 36q87 0 127.5 -50.5t23.5 -137.5l-6 -33q-239 -11 -270 -14q-28 -3 -168 -25
q-133 -27 -213 -115t-80 -221q0 -163 107 -246q97 -75 254 -75q232 0 340 153h6zM793 479l-2 -12q-24 -134 -82.5 -202t-161.5 -68q-63 0 -100 32t-37 86q0 56 29.5 92t84.5 48q64 15 269 24z" />
    <glyph glyph-name="b" unicode="b" 
d="M348 0l23 137h10q84 -164 301 -164q280 0 432 228q129 193 129 487q0 198 -104.5 314t-284.5 116q-202 0 -313 -151h-9l115 647h-325l-285 -1614h311zM616 193q-103 0 -148.5 82.5t-21.5 213.5l21 119q25 137 93 214t165 77q86 0 134 -58.5t48 -162.5q0 -189 -57 -316
q-74 -169 -234 -169z" />
    <glyph glyph-name="c" unicode="c" 
d="M870 705h338q6 79 -23.5 154.5t-90.5 133.5q-139 129 -377 129q-324 0 -490 -231q-66 -93 -97.5 -206t-31.5 -216q0 -242 135 -370t394 -128q205 0 352 111q155 117 192 326h-340q-25 -101 -76.5 -154t-144.5 -53q-89 0 -133.5 59t-44.5 160q0 162 51 293q72 182 217 182
q91 0 134.5 -51.5t35.5 -138.5z" />
    <glyph glyph-name="d" unicode="d" 
d="M788 0h310l284 1614h-325l-115 -647h-8q-35 74 -113 113.5t-182 39.5q-281 0 -428 -225q-127 -191 -127 -489q0 -197 111 -314q110 -119 282 -119q128 0 205 47q71 45 121 119h10zM881 600l-23 -129q-24 -130 -89.5 -203t-166.5 -73q-87 0 -134.5 57.5t-47.5 157.5
q0 191 57 321q71 170 232 170q111 0 154 -79.5t18 -221.5z" />
    <glyph glyph-name="e" unicode="e" 
d="M1155 319h-332q-20 -53 -74 -86.5t-131 -33.5q-97 0 -148.5 56.5t-51.5 156.5v45h770l18 90q24 119 1 224.5t-89 182.5q-68 79 -171.5 122.5t-235.5 43.5q-303 0 -471 -207q-148 -185 -148 -456q0 -227 135 -353q139 -133 379 -133q219 0 363 93t186 255zM899 670h-448
q32 104 86 161q67 70 168 70q96 0 147.5 -65t46.5 -166z" />
    <glyph glyph-name="f" unicode="f" 
d="M1198 848l45 250h-369l15 80q19 106 68 148t153 42q62 0 172 -31l43 242q-133 45 -268 45q-198 0 -322 -96t-160 -299l-22 -131h-346l-45 -250h346l-150 -848h324l149 848h367z" />
    <glyph glyph-name="g" unicode="g" 
d="M498 -410q251 0 399 113q156 120 201 367l182 1028h-309l-27 -146h-4q-35 75 -113.5 121.5t-199.5 46.5q-269 0 -418 -215q-65 -92 -98 -210t-33 -240q0 -212 112 -324q104 -104 287 -104q115 0 197 45q61 34 114 100h9l-17 -86q-27 -143 -86 -211t-180 -68
q-169 0 -178 130h-307q-9 -155 106 -248q123 -99 363 -99zM877 616l-19 -102q-21 -116 -88.5 -190t-167.5 -74q-89 0 -134.5 51t-45.5 145q0 191 67 316q76 141 216 141q104 0 149.5 -76t22.5 -211z" />
    <glyph glyph-name="h" unicode="h" 
d="M1067 0l119 672q77 442 -299 442q-223 0 -342 -182h-6l120 682h-325l-285 -1614h326l92 528q31 179 102 269t166 90q79 0 112 -55t13 -164l-119 -668h326z" />
    <glyph glyph-name="i" unicode="i" 
d="M948 1235l60 332h-344l-60 -332h344zM1155 250h-383l150 848h-656l-45 -248h332l-104 -600h-371l-45 -250h1077z" />
    <glyph glyph-name="j" unicode="j" 
d="M1169 1567h-344l-59 -332h344zM406 -406q232 0 346 111q99 97 139 305l192 1088h-708l-45 -248h383l-148 -842q-16 -89 -61.5 -126.5t-118.5 -37.5q-105 0 -227 27l-41 -231q109 -46 289 -46z" />
    <glyph glyph-name="k" unicode="k" 
d="M578 436l229 -436h358l-354 625l504 473h-381l-447 -434l168 950h-319l-285 -1614h320l49 279z" />
    <glyph glyph-name="l" unicode="l" 
d="M1151 250h-379l240 1364h-656l-43 -248h332l-196 -1116h-371l-45 -250h1073z" />
    <glyph glyph-name="m" unicode="m" 
d="M262 0l117 664q21 121 55 161q35 41 70 41q36 0 48.5 -26t2.5 -88l-133 -752h274l117 664q22 124 53 161q35 41 72 41q34 0 47.5 -25.5t3.5 -88.5l-133 -752h274l142 801q28 158 -20.5 236.5t-155.5 78.5q-175 0 -242 -174h-8q-4 68 -43 115q-49 59 -141 59
q-177 0 -244 -174h-12l28 156h-252l-194 -1098h274z" />
    <glyph glyph-name="n" unicode="n" 
d="M1067 0l119 672q77 442 -299 442q-240 0 -361 -211h-4l33 195h-311l-195 -1098h326l92 528q31 179 102 269t166 90q79 0 112 -55t13 -164l-119 -668h326z" />
    <glyph glyph-name="o" unicode="o" 
d="M616 -29q289 0 451 193q152 181 152 463q0 226 -142 362q-140 131 -383 131q-288 0 -448 -190q-75 -89 -114.5 -209.5t-39.5 -257.5q0 -228 144 -359q142 -133 380 -133zM616 197q-93 0 -141.5 58t-48.5 165q0 68 8 123q15 127 66 217q71 135 194 135q93 0 142 -58
t49 -165q0 -66 -8 -121q-18 -125 -66 -219q-32 -59 -77 -97t-118 -38z" />
    <glyph glyph-name="p" unicode="p" 
d="M381 117h8q34 -60 109 -102t178 -42q294 0 444 228q123 191 123 495q0 191 -104 308q-105 114 -285 114q-108 0 -186.5 -40.5t-139.5 -135.5h-8l27 156h-316l-262 -1483h326zM446 489l21 119q25 137 93 214t165 77q86 0 134 -56.5t48 -154.5q0 -196 -57 -326
q-74 -169 -234 -169q-103 0 -148.5 82.5t-21.5 213.5z" />
    <glyph glyph-name="q" unicode="q" 
d="M981 1098l-25 -142h-10q-38 80 -117.5 122t-187.5 42q-281 0 -428 -225q-129 -193 -129 -489q0 -195 113 -314q110 -119 284 -119q114 0 184 37t117 105h11l-88 -500h325l262 1483h-311zM881 598l-23 -129q-24 -129 -88 -201.5t-160 -72.5q-92 0 -141 55.5t-49 159.5
q0 191 57 321q71 170 232 170q111 0 154 -79t18 -224z" />
    <glyph glyph-name="r" unicode="r" 
d="M991 844q115 0 213 -31l47 268q-64 39 -188 39q-145 0 -253 -63t-192 -207h-4l45 248h-313l-194 -1098h325l68 391q80 453 446 453z" />
    <glyph glyph-name="s" unicode="s" 
d="M885 774h301q10 134 -107 236q-131 114 -360 114q-247 0 -375 -112q-119 -102 -119 -260q0 -130 82 -209q72 -75 197 -101l207 -45q67 -14 91.5 -33.5t24.5 -60.5q0 -110 -192 -110q-113 0 -165 38t-50 107h-305q-10 -157 116 -256q136 -113 383 -113q257 0 398 115
q125 102 125 264q0 133 -72 205.5t-229 105.5l-170 35q-79 17 -108.5 39.5t-29.5 65.5q0 50 46 75t126 25q92 0 137.5 -37.5t47.5 -87.5z" />
    <glyph glyph-name="t" unicode="t" 
d="M481 848l-69 -406q-39 -221 57 -341.5t326 -120.5q152 0 256 30l45 248q-104 -22 -199 -22q-104 0 -147 44.5t-21 155.5l74 412h391l45 250h-395l59 342h-293l-35 -201q-17 -91 -53.5 -122.5t-122.5 -31.5h-217l-41 -237h340z" />
    <glyph glyph-name="u" unicode="u" 
d="M229 1098l-112 -635q-84 -483 327 -483q114 0 189.5 49t130.5 137h10l-29 -166h308l194 1098h-325l-97 -547q-29 -165 -99 -250.5t-171 -85.5q-158 0 -121 193l121 690h-326z" />
    <glyph glyph-name="v" unicode="v" 
d="M735 0l590 1098h-330l-276 -537q-37 -76 -47 -102q-7 -16 -18.5 -44t-16.5 -40q-24 -66 -27 -76h-18q0 49 -2 76q-4 83 -23 186l-94 537h-328l215 -1098h375z" />
    <glyph glyph-name="w" unicode="w" 
d="M461 0l182 649q17 57 33 123q5 16 14 55h15q-1 -9 -2.5 -27.5t-2.5 -27.5q-1 -8 -2 -27t-2 -28l-6 -68l-47 -649h365l333 1098h-264l-176 -670q-12 -46 -16 -66l-15 -57q-9 -26 -12 -53h-14q1 13 4 49t4 59l6 66l49 672h-325l-187 -668q-17 -57 -33 -123q-5 -16 -14 -55
h-14l6 53q3 27 6 57l6 66l64 670h-264l-56 -1098h365z" />
    <glyph glyph-name="x" unicode="x" 
d="M324 0l284 342h4l170 -342h365l-309 573l444 525h-334l-243 -295h-5l-139 295h-358l274 -518l-485 -580h332z" />
    <glyph glyph-name="y" unicode="y" 
d="M371 0l-11 -20q-36 -73 -82.5 -104.5t-113.5 -31.5q-64 0 -162 15l-43 -242q113 -23 236 -23q171 0 299 89q95 68 176 213l657 1202h-342l-270 -531q-41 -83 -47 -100q-44 -99 -56 -156h-18q0 20 -4 78q0 5 -3.5 35t-4.5 49q-1 20 -15 105l-92 520h-332z" />
    <glyph glyph-name="z" unicode="z" 
d="M766 852l-647 -627l-39 -225h971l43 246h-572l652 624l40 228h-942l-45 -246h539z" />
    <glyph glyph-name="braceleft" unicode="{" 
d="M258 549h143q110 0 88 -131l-49 -275q-39 -219 74 -322.5t381 -86.5l39 219q-82 -3 -125 8q-88 21 -88 119q0 50 12 117l39 223q19 106 -18 174.5t-133 85.5v8q108 12 163 64q56 53 76 168l41 231q13 81 29 128t43 73q54 52 215 43l39 221q-235 40 -381 -33
q-161 -81 -205 -313l-63 -348q-10 -59 -40.5 -84t-88.5 -25h-144z" />
    <glyph glyph-name="bar" unicode="|" 
d="M651 -266l332 1880h-225l-332 -1880h225z" />
    <glyph glyph-name="braceright" unicode="}" 
d="M1087 809h-143q-109 0 -88 123l49 274q39 219 -74 323t-380 87l-39 -219q79 3 125 -6q88 -24 88 -121q0 -44 -13 -117l-39 -223q-40 -218 152 -252v-8q-109 -10 -162.5 -65t-77.5 -175l-41 -231q-13 -81 -28.5 -127t-42.5 -72q-56 -53 -215 -45l-39 -221q237 -40 383 33
q159 79 203 313l63 348q21 117 129 117h143z" />
    <glyph glyph-name="asciitilde" unicode="~" 
d="M211 526h195q24 103 114 103q30 0 74 -15q70 -26 90 -32q126 -50 205 -50q137 0 207 103q53 82 67 242h-188q-11 -57 -38 -80t-69 -23q-29 0 -75 17q-76 26 -91 32q-135 47 -210 47q-135 0 -203 -96q-62 -87 -78 -248z" />
    <glyph glyph-name="DEL" horiz-adv-x="1024" 
 />
    <glyph glyph-name="uni00A0" unicode="&#xa0;" 
 />
    <glyph glyph-name="exclamdown" unicode="&#xa1;" 
d="M532 877h369l66 368h-369zM557 707l-248 -1076h377l135 1076h-264z" />
    <glyph glyph-name="cent" unicode="&#xa2;" 
d="M1171 408h-335q-20 -89 -60 -142t-114 -69l120 686q104 -49 92 -178h334q9 148 -88 262q-108 121 -297 147l33 186h-139l-31 -178q-309 -11 -467 -241q-63 -92 -92 -200.5t-29 -211.5q0 -207 97.5 -330t289.5 -155l-39 -222h140l37 209q209 0 356 111q155 117 192 326z
M645 889l-121 -678q-100 49 -100 207q0 144 43 266q59 169 178 205z" />
    <glyph glyph-name="sterling" unicode="&#xa3;" 
d="M434 258l2 4l41 23q110 62 157 139t46 194h326l34 199h-383l-20 119q-30 182 19.5 271t160.5 89q100 0 144 -63q35 -55 22 -150h307q28 202 -88 324q-127 133 -368 133q-143 0 -255.5 -50t-183.5 -140q-70 -89 -93 -209t7 -258l15 -66h-148l-35 -199h224
q14 -137 -46 -221q-49 -69 -198 -166l-66 -43l-32 -188h1087l45 258h-721z" />
    <glyph glyph-name="currency" unicode="&#xa4;" 
d="M1085 252l-127 180q44 44 66 111l205 -35l31 164l-207 35q0 68 -25 129l191 135l-93 131l-188 -133q-46 43 -113 71l41 224l-166 30l-38 -225q-55 0 -132 -25l-124 179l-136 -97l123 -174q-45 -58 -65 -118l-197 32l-31 -159l199 -35q0 -69 25 -133l-181 -127l90 -131
l187 131q57 -50 112 -70l-38 -227l161 -27l41 225q64 3 125 25l129 -182zM479 690q5 93 61.5 154t143.5 61q89 0 141 -61q52 -62 49 -154q-5 -94 -61 -153.5t-145 -59.5q-87 0 -140.5 60t-48.5 153z" />
    <glyph glyph-name="yen" unicode="&#xa5;" 
d="M717 0l53 303h389l27 156h-389l30 166h385l27 155h-367l568 738h-344l-359 -500h-6l-192 500h-330l305 -738h-369l-26 -155h389l-31 -166h-385l-26 -156h385l-54 -303h320z" />
    <glyph glyph-name="brokenbar" unicode="&#xa6;" 
d="M758 1614l-146 -828h226l145 828h-225zM803 588h-225l-152 -854h225z" />
    <glyph glyph-name="section" unicode="&#xa7;" 
d="M133 678q0 -74 29 -131.5t75 -96t123 -79.5l269 -144q47 -24 68.5 -52t21.5 -71q0 -67 -55 -100q-54 -31 -121 -31q-87 0 -130.5 40.5t-37.5 113.5h-281q-12 -163 105 -260q115 -100 329 -100q220 0 351 96q145 101 145 299q0 103 -59 174v4q260 88 260 328
q0 106 -49.5 172t-169.5 129l-246 129q-67 35 -95 63.5t-28 73.5q0 64 44 97.5t116 33.5q77 0 115 -38t32 -105h289q8 68 -17.5 131t-80.5 112q-120 107 -330 107q-216 0 -344 -103q-131 -103 -131 -280q0 -100 61 -182v-4q-258 -84 -258 -326zM571 872l43 -24l191 -100
q70 -35 95.5 -67t25.5 -75q0 -59 -39 -95t-99 -42l-20 12q-3 2 -15.5 9t-17.5 10l-205 108q-54 29 -77 59t-23 72q0 53 47 97q38 33 94 36z" />
    <glyph glyph-name="dieresis" unicode="&#xa8;" 
d="M672 1235l59 332h-344l-59 -332h344zM1155 1235l59 332h-344l-59 -332h344z" />
    <glyph glyph-name="copyright" unicode="&#xa9;" 
d="M170 958l-31 -163q-26 -146 -26 -258q5 -279 132 -423.5t371 -144.5q252 0 406 174q145 164 199 459l30 164q25 128 25 246q0 274 -127.5 424.5t-376.5 150.5q-248 0 -403 -172q-144 -161 -199 -457zM279 760l34 184q47 241 142 367q116 155 323 155q181 0 273 -123
q84 -112 84 -309q0 -108 -23 -233l-33 -185q-43 -240 -141 -368q-119 -158 -326 -158q-180 0 -272 123q-84 112 -84 309q0 93 23 238zM819 895h187q25 140 -39 235q-68 101 -205 101q-149 0 -227 -106t-121 -341q-42 -228 15.5 -338t221.5 -110q131 0 214 88.5t106 259.5
h-183q-16 -85 -42.5 -128.5t-81.5 -43.5q-63 0 -72 74q-7 57 20 200q18 110 52 199q27 70 86 70q92 0 69 -160z" />
    <glyph glyph-name="ordfeminine" unicode="&#xaa;" 
d="M805 762h6q11 -63 51.5 -86t118.5 -23h135l37 203h-37q-50 0 -41 51l39 221q37 204 -63 312q-100 100 -295 100q-169 0 -281 -76q-118 -80 -121 -209h264q7 49 41 74t86 25q67 0 98.5 -38.5t20.5 -96.5l-6 -37q-199 0 -280 -8q-77 -10 -138 -35q-168 -64 -168 -248
q0 -123 84 -191q73 -59 199 -59q77 0 148 35t102 86zM647 825q-47 0 -71.5 24.5t-24.5 68.5q0 48 39 77q36 23 88.5 31t152.5 8l-6 -35q-30 -174 -178 -174z" />
    <glyph glyph-name="guillemotleft" unicode="&#xab;" 
d="M150 530l215 -413h256l-203 413l321 420h-266zM606 530l215 -413h258l-202 413l321 420h-268z" />
    <glyph glyph-name="logicalnot" unicode="&#xac;" 
d="M1184 852h-1016l-47 -238h760l-78 -401h256z" />
    <glyph glyph-name="registered" unicode="&#xae;" 
d="M248 1067q0 -212 135 -350q138 -144 348 -144q109 0 205 39t168 109q72 69 111.5 164.5t39.5 206.5q0 213 -133 352q-139 145 -354 145t-367 -149q-72 -71 -112.5 -167t-40.5 -206zM735 668q-171 0 -274 116q-105 115 -105 277q0 190 119 315q115 121 289 121
q170 0 280 -117q107 -120 107 -286q0 -185 -121 -306q-120 -120 -295 -120zM647 825l35 197h66l61 -197h135l-74 222q51 11 84 47q43 43 43 110q0 72 -46 109t-126 37h-223l-92 -525h137zM723 1251h72q37 0 51 -14t14 -45q0 -70 -86 -70h-74z" />
    <glyph glyph-name="macron" unicode="&#xaf;" 
d="M1139 1303l39 223h-701l-39 -223h701z" />
    <glyph glyph-name="degree" unicode="&#xb0;" 
d="M332 1118q0 -180 117 -297q116 -116 299 -116q184 0 307 126t123 308q0 180 -117 297q-116 116 -301 116q-184 0 -305 -127q-123 -129 -123 -307zM748 911q-91 0 -145 58t-54 153q0 92 61 160q60 66 150 66q91 0 144.5 -59t53.5 -154t-59.5 -159.5t-150.5 -64.5z" />
    <glyph glyph-name="plusminus" unicode="&#xb1;" 
d="M1206 756l47 237h-381l68 344h-256l-68 -344h-376l-47 -237h378l-67 -348h256l67 348h379zM1061 0l45 236h-1014l-45 -236h1014z" />
    <glyph glyph-name="twosuperior" unicode="&#xb2;" 
d="M365 1378h262q8 101 50.5 154t135.5 53q66 0 102.5 -37t36.5 -94q0 -23 -0.5 -33.5t-5.5 -29t-16 -33.5q-38 -57 -144 -133l-512 -367l-32 -178h878l37 209h-481v6q17 8 49 25q48 25 115 69l125 82q137 88 198 191q54 91 54 217q0 127 -97 215q-109 94 -295 94
q-240 0 -366 -143q-51 -58 -73.5 -128.5t-20.5 -138.5z" />
    <glyph glyph-name="threesuperior" unicode="&#xb3;" 
d="M676 1137h76q84 0 125 -34.5t41 -96.5q0 -66 -45.5 -106t-139.5 -40q-170 0 -174 146h-256q-13 -144 86 -240q112 -109 328 -109q195 0 319 84q138 96 138 260q0 87 -48 146.5t-139 79.5v10q112 19 179 87t67 175q0 131 -105.5 211t-296.5 80q-209 0 -331 -115
q-51 -49 -77 -111t-26 -122h252q15 147 180 147q71 0 108.5 -32t37.5 -87q0 -139 -174 -139h-90z" />
    <glyph glyph-name="acute" unicode="&#xb4;" 
d="M797 1247l315 367h-395l-174 -367h254z" />
    <glyph glyph-name="paragraph" unicode="&#xb6;" 
d="M657 0l277 1567h-240q-219 0 -342 -111q-127 -112 -127 -295t107 -282q93 -86 262 -109l-137 -770h200zM823 0h203l277 1567h-203z" />
    <glyph glyph-name="periodcentered" unicode="&#xb7;" 
d="M821 463l66 368h-369l-65 -368h368z" />
    <glyph glyph-name="cedilla" unicode="&#xb8;" 
d="M610 -436q129 0 193.5 55t64.5 141q0 79 -52.5 120.5t-141.5 41.5h-39l94 152h-135l-180 -289h164q21 27 61 27q59 0 59 -60q0 -30 -19.5 -48.5t-53.5 -18.5q-27 0 -41.5 12.5t-16.5 28.5h-176q-4 -58 39 -101q58 -61 180 -61z" />
    <glyph glyph-name="onesuperior" unicode="&#xb9;" 
d="M1135 885h-265l156 889h-235q-18 -86 -66 -134q-66 -63 -197 -63h-67l-31 -176h262l-90 -516h-283l-36 -205h815z" />
    <glyph glyph-name="ordmasculine" unicode="&#xba;" 
d="M711 633q232 0 364 151q119 140 119 365q0 183 -113 286t-311 103q-230 0 -362 -152q-121 -136 -121 -364q0 -180 113 -284.5t311 -104.5zM907 1180q0 -136 -47 -236q-55 -110 -145 -110q-142 0 -142 159q0 138 48 234q52 110 147 110q139 0 139 -157z" />
    <glyph glyph-name="guillemotright" unicode="&#xbb;" 
d="M702 537l-215 413h-258l203 -413l-321 -420h268zM1159 537l-215 413h-256l203 -413l-322 -420h267z" />
    <glyph glyph-name="onequarter" unicode="&#xbc;" horiz-adv-x="3932" 
d="M1104 731h-264l155 889h-235q-18 -85 -66 -133q-67 -64 -196 -64h-68l-31 -176h263l-91 -516h-282l-37 -205h815zM1450 -82l1413 1679h-227l-1413 -1679h227zM3428 354h-163l116 654h-364l-555 -674l-29 -187h549l-41 -229h246l41 229h168zM2724 346l231 279q42 50 62 77
q64 89 80 119h12l-86 -475h-299z" />
    <glyph glyph-name="onehalf" unicode="&#xbd;" horiz-adv-x="3932" 
d="M1104 731h-264l155 889h-235q-18 -85 -66 -133q-67 -64 -196 -64h-68l-31 -176h263l-91 -516h-282l-37 -205h815zM1421 -82l1413 1679h-227l-1413 -1679h227zM2666 616h263q8 101 50.5 154t135.5 53q66 0 102.5 -37t36.5 -94q0 -23 -0.5 -33.5t-5.5 -29t-16 -33.5
q-38 -57 -144 -133l-512 -367l-32 -178h878l37 209h-481v6q18 8 49 25q48 25 115 69l125 82q137 88 198 191q53 90 53 217q0 128 -96 215q-109 94 -295 94q-240 0 -366 -143q-51 -58 -74 -128.5t-21 -138.5z" />
    <glyph glyph-name="threequarters" unicode="&#xbe;" horiz-adv-x="3932" 
d="M645 983h76q84 0 125 -34.5t41 -96.5q0 -66 -45.5 -105.5t-139.5 -39.5q-170 0 -174 145h-256q-13 -144 86 -240q111 -108 328 -108q196 0 320 84q137 95 137 260q0 87 -48 146t-139 79v10q112 19 179 87.5t67 175.5q0 131 -105 210.5t-296 79.5q-211 0 -332 -114
q-50 -49 -76 -111.5t-26 -122.5h251q15 148 181 148q71 0 108 -32t37 -87q0 -139 -174 -139h-90zM1450 -82l1413 1679h-227l-1413 -1679h227zM3449 354h-164l117 654h-365l-555 -674l-28 -187h548l-41 -229h246l41 229h168zM2744 346l232 279q36 42 61 77q64 89 80 119h12
l-86 -475h-299z" />
    <glyph glyph-name="questiondown" unicode="&#xbf;" 
d="M555 877h369l65 368h-368zM377 51q0 69 27.5 115.5t97.5 89.5l172 109q83 52 127 118q34 55 47 140l16 94h-299l-4 -23q-10 -49 -31.5 -77t-70.5 -60l-178 -115q-111 -72 -170.5 -170.5t-59.5 -240.5q0 -179 133 -291q145 -125 381 -125q306 0 465 188q64 75 94.5 170
t30.5 189h-313q0 -143 -73.5 -217t-190.5 -74q-97 0 -149 48.5t-52 131.5z" />
    <glyph glyph-name="Agrave" unicode="&#xc0;" 
d="M496 1966l215 -272h256l-84 272h-387zM1149 0l-74 1567h-477l-627 -1567h326l137 346h371l12 -346h332zM801 1315l-6 -103q-7 -80 -4 -280l6 -338h-271l123 340q34 91 49 141q36 104 64 205q8 27 8 35h31z" />
    <glyph glyph-name="Aacute" unicode="&#xc1;" 
d="M981 1694l262 272h-395l-135 -272h268zM1149 0l-74 1567h-477l-627 -1567h326l137 346h371l12 -346h332zM801 1315l-6 -103q-7 -80 -4 -280l6 -338h-271l123 340q34 91 49 141q36 104 64 205q8 27 8 35h31z" />
    <glyph glyph-name="Acircumflex" unicode="&#xc2;" 
d="M737 1966l-256 -272h238l145 102h2l111 -102h233l-166 272h-307zM1149 0l-74 1567h-477l-627 -1567h326l137 346h371l12 -346h332zM801 1315l-6 -103q-7 -80 -4 -280l6 -338h-271l123 340q34 91 49 141q36 104 64 205q8 27 8 35h31z" />
    <glyph glyph-name="Atilde" unicode="&#xc3;" 
d="M440 1673h187q5 38 29 63t61 25q39 0 131 -39q96 -41 158 -41q127 0 200 93q67 82 80 225h-186q-5 -40 -29 -65t-61 -25q-9 0 -17.5 1t-18.5 4t-17.5 5t-19.5 7t-18 7t-20.5 8.5t-19.5 8.5q-96 39 -158 39q-126 0 -199 -93q-70 -88 -82 -223zM1149 0l-74 1567h-477
l-627 -1567h326l137 346h371l12 -346h332zM801 1315l-6 -103q-7 -80 -4 -280l6 -338h-271l123 340q34 91 49 141q36 104 64 205q8 27 8 35h31z" />
    <glyph glyph-name="Adieresis" unicode="&#xc4;" 
d="M762 1675l59 332h-344l-59 -332h344zM1253 1675l60 332h-344l-60 -332h344zM1149 0l-74 1567h-477l-627 -1567h326l137 346h371l12 -346h332zM801 1315l-6 -103q-7 -80 -4 -280l6 -338h-271l123 340q34 91 49 141q36 104 64 205q8 27 8 35h31z" />
    <glyph glyph-name="Aring" unicode="&#xc5;" 
d="M610 1864q0 -104 72 -170q71 -68 174 -68q123 0 205 82q80 80 80 197q0 104 -70 174q-69 69 -178 69q-122 0 -203 -84q-80 -80 -80 -200zM762 1880q0 55 34 92t87 37q50 0 78 -33t28 -84q0 -55 -34 -91t-89 -36q-49 0 -76.5 31.5t-27.5 83.5zM1149 0l-74 1567h-477
l-627 -1567h326l137 346h371l12 -346h332zM801 1315l-6 -103q-7 -80 -4 -280l6 -338h-271l123 340q34 91 49 141q36 104 64 205q8 27 8 35h31z" />
    <glyph glyph-name="AE" unicode="&#xc6;" 
d="M588 375l-66 -375h684l45 254h-381l72 403h307l43 250h-307l72 404h358l45 256h-958l-592 -1567h319l136 375h223zM453 621l245 690h56l-123 -690h-178z" />
    <glyph glyph-name="Ccedilla" unicode="&#xc7;" 
d="M553 -440q129 0 193.5 55t64.5 141q0 79 -53 120.5t-142 41.5h-38l30 49h21q269 0 426 170q139 150 168 395h-344q-27 -147 -74 -215q-60 -86 -176 -86q-93 0 -136.5 57t-43.5 171q0 89 22 243q27 187 57 299q43 163 82 224q64 102 181 102q112 0 155 -78q38 -71 25 -213
h334q23 233 -82 381q-126 172 -406 172q-151 0 -253 -40t-181 -119q-139 -144 -213 -445q-64 -259 -64 -487q0 -145 37 -246q68 -196 267 -256q49 -13 69 -16l-123 -199h164q20 26 62 26q59 0 59 -59q0 -30 -19.5 -48.5t-54.5 -18.5q-27 0 -41 12t-16 28h-176
q-4 -57 39 -100q58 -61 180 -61z" />
    <glyph glyph-name="Egrave" unicode="&#xc8;" 
d="M539 1966l215 -272h256l-84 272h-387zM1075 0l47 262h-659l67 389h586l45 260h-583l67 394h637l47 262h-973l-276 -1567h995z" />
    <glyph glyph-name="Eacute" unicode="&#xc9;" 
d="M981 1694l262 272h-395l-135 -272h268zM1075 0l47 262h-659l67 389h586l45 260h-583l67 394h637l47 262h-973l-276 -1567h995z" />
    <glyph glyph-name="Ecircumflex" unicode="&#xca;" 
d="M745 1966l-256 -272h238l145 102h2l111 -102h234l-166 272h-308zM1075 0l47 262h-659l67 389h586l45 260h-583l67 394h637l47 262h-973l-276 -1567h995z" />
    <glyph glyph-name="Edieresis" unicode="&#xcb;" 
d="M797 1675l59 332h-344l-59 -332h344zM1288 1675l60 332h-344l-60 -332h344zM1075 0l47 262h-659l67 389h586l45 260h-583l67 394h637l47 262h-973l-276 -1567h995z" />
    <glyph glyph-name="Igrave" unicode="&#xcc;" 
d="M500 1966l215 -272h256l-84 272h-387zM1266 1313l45 254h-963l-45 -254h313l-186 -1059h-313l-45 -254h962l45 254h-313l186 1059h314z" />
    <glyph glyph-name="Iacute" unicode="&#xcd;" 
d="M979 1694l262 272h-395l-135 -272h268zM1266 1313l45 254h-963l-45 -254h313l-186 -1059h-313l-45 -254h962l45 254h-313l186 1059h314z" />
    <glyph glyph-name="Icircumflex" unicode="&#xce;" 
d="M735 1966l-256 -272h238l145 102h2l111 -102h233l-166 272h-307zM1266 1313l45 254h-963l-45 -254h313l-186 -1059h-313l-45 -254h962l45 254h-313l186 1059h314z" />
    <glyph glyph-name="Idieresis" unicode="&#xcf;" 
d="M774 1675l60 332h-345l-59 -332h344zM1266 1675l59 332h-344l-59 -332h344zM1266 1313l45 254h-963l-45 -254h313l-186 -1059h-313l-45 -254h962l45 254h-313l186 1059h314z" />
    <glyph glyph-name="Eth" unicode="&#xd0;" 
d="M35 0h457q419 0 622 307q170 257 170 686q0 282 -170 432q-161 142 -450 142h-353l-116 -666h-132l-40 -229h131zM489 672h230l41 229h-230l72 410h60q125 0 196 -74q76 -82 76 -246q0 -155 -29 -289q-41 -193 -121 -301q-102 -141 -266 -141h-102z" />
    <glyph glyph-name="Ntilde" unicode="&#xd1;" 
d="M471 1673h186q5 38 29.5 63t61.5 25q39 0 131 -39q96 -41 157 -41q128 0 201 93q67 82 80 225h-187q-5 -40 -29 -65t-61 -25q-9 0 -17.5 1t-18.5 4t-17.5 5t-19.5 7t-18 7t-20.5 8.5t-19.5 8.5q-96 39 -157 39q-126 0 -199 -93q-70 -88 -82 -223zM301 0l191 1079h26
q0 -53 14 -176q3 -48 19 -115l170 -788h371l276 1567h-287l-190 -1080h-19q-5 61 -8 88q-10 88 -33 211l-169 781h-371l-277 -1567h287z" />
    <glyph glyph-name="Ograve" unicode="&#xd2;" 
d="M502 1966l215 -272h256l-84 272h-387zM96 502q0 -258 131 -396.5t373 -138.5q136 0 234 40.5t176 121.5q140 143 213 434q63 249 63 492q0 257 -129.5 395.5t-370.5 138.5q-137 0 -235.5 -40t-175.5 -119q-135 -140 -213 -435q-66 -252 -66 -493zM608 229q-86 0 -128 55
t-42 171q0 162 51 403q55 274 113 367q66 102 172 102q86 0 128 -54.5t42 -170.5q0 -84 -22 -238q-29 -179 -62 -307q-42 -166 -78 -223q-34 -53 -74.5 -79t-99.5 -26z" />
    <glyph glyph-name="Oacute" unicode="&#xd3;" 
d="M938 1694l262 272h-395l-135 -272h268zM96 502q0 -258 131 -396.5t373 -138.5q136 0 234 40.5t176 121.5q140 143 213 434q63 249 63 492q0 257 -129.5 395.5t-370.5 138.5q-137 0 -235.5 -40t-175.5 -119q-135 -140 -213 -435q-66 -252 -66 -493zM608 229q-86 0 -128 55
t-42 171q0 162 51 403q55 274 113 367q66 102 172 102q86 0 128 -54.5t42 -170.5q0 -84 -22 -238q-29 -179 -62 -307q-42 -166 -78 -223q-34 -53 -74.5 -79t-99.5 -26z" />
    <glyph glyph-name="Ocircumflex" unicode="&#xd4;" 
d="M709 1966l-256 -272h237l146 102h2l110 -102h234l-166 272h-307zM96 502q0 -258 131 -396.5t373 -138.5q136 0 234 40.5t176 121.5q140 143 213 434q63 249 63 492q0 257 -129.5 395.5t-370.5 138.5q-137 0 -235.5 -40t-175.5 -119q-135 -140 -213 -435
q-66 -252 -66 -493zM608 229q-86 0 -128 55t-42 171q0 162 51 403q55 274 113 367q66 102 172 102q86 0 128 -54.5t42 -170.5q0 -84 -22 -238q-29 -179 -62 -307q-42 -166 -78 -223q-34 -53 -74.5 -79t-99.5 -26z" />
    <glyph glyph-name="Otilde" unicode="&#xd5;" 
d="M432 1673h186q5 38 29.5 63t61.5 25q39 0 131 -39q96 -41 157 -41q128 0 201 93q67 82 80 225h-186q-5 -39 -29.5 -64.5t-61.5 -25.5q-9 0 -17.5 1t-18.5 4t-17.5 5t-19.5 7t-18 7t-20.5 8.5t-19.5 8.5q-96 39 -157 39q-126 0 -199 -93q-70 -88 -82 -223zM96 502
q0 -258 131 -396.5t373 -138.5q136 0 234 40.5t176 121.5q140 143 213 434q63 249 63 492q0 257 -129.5 395.5t-370.5 138.5q-137 0 -235.5 -40t-175.5 -119q-135 -140 -213 -435q-66 -252 -66 -493zM608 229q-86 0 -128 55t-42 171q0 162 51 403q55 274 113 367
q66 102 172 102q86 0 128 -54.5t42 -170.5q0 -84 -22 -238q-29 -179 -62 -307q-42 -166 -78 -223q-34 -53 -74.5 -79t-99.5 -26z" />
    <glyph glyph-name="Odieresis" unicode="&#xd6;" 
d="M739 1675l60 332h-344l-60 -332h344zM1231 1675l59 332h-344l-59 -332h344zM96 502q0 -258 131 -396.5t373 -138.5q136 0 234 40.5t176 121.5q140 143 213 434q63 249 63 492q0 257 -129.5 395.5t-370.5 138.5q-137 0 -235.5 -40t-175.5 -119q-135 -140 -213 -435
q-66 -252 -66 -493zM608 229q-86 0 -128 55t-42 171q0 162 51 403q55 274 113 367q66 102 172 102q86 0 128 -54.5t42 -170.5q0 -84 -22 -238q-29 -179 -62 -307q-42 -166 -78 -223q-34 -53 -74.5 -79t-99.5 -26z" />
    <glyph glyph-name="multiply" unicode="&#xd7;" 
d="M657 530l265 -348l211 178l-273 345l383 325l-160 201l-376 -332l-269 344l-209 -176l273 -344l-381 -326l153 -198z" />
    <glyph glyph-name="Oslash" unicode="&#xd8;" 
d="M1010 129q140 143 213 434q63 249 63 492q0 165 -63 288l217 281h-197l-119 -154q-128 119 -338 119q-137 0 -235.5 -40t-175.5 -119q-135 -140 -213 -435q-66 -252 -66 -493q0 -158 60 -281l-211 -272h196l111 143q138 -125 348 -125q136 0 234 40.5t176 121.5z
M774 1331q128 0 164 -100l-502 -647q25 205 68 370q51 197 98 275q66 102 172 102zM608 225q-131 0 -166 111l504 649q-26 -211 -67 -373q-55 -216 -97 -282q-34 -53 -74.5 -79t-99.5 -26z" />
    <glyph glyph-name="Ugrave" unicode="&#xd9;" 
d="M514 1966l215 -272h256l-84 272h-387zM291 1567l-174 -979q-58 -332 84 -486q124 -135 391 -135q263 0 403 131q134 125 181 391l190 1078h-319l-197 -1104q-19 -106 -72.5 -163.5t-161.5 -57.5q-115 0 -159.5 66.5t-18.5 215.5l185 1043h-332z" />
    <glyph glyph-name="Uacute" unicode="&#xda;" 
d="M958 1694l263 272h-396l-135 -272h268zM291 1567l-174 -979q-58 -332 84 -486q124 -135 391 -135q263 0 403 131q134 125 181 391l190 1078h-319l-197 -1104q-19 -106 -72.5 -163.5t-161.5 -57.5q-115 0 -159.5 66.5t-18.5 215.5l185 1043h-332z" />
    <glyph glyph-name="Ucircumflex" unicode="&#xdb;" 
d="M731 1966l-256 -272h238l145 102h2l111 -102h233l-166 272h-307zM291 1567l-174 -979q-58 -332 84 -486q124 -135 391 -135q263 0 403 131q134 125 181 391l190 1078h-319l-197 -1104q-19 -106 -72.5 -163.5t-161.5 -57.5q-115 0 -159.5 66.5t-18.5 215.5l185 1043h-332z
" />
    <glyph glyph-name="Udieresis" unicode="&#xdc;" 
d="M776 1675l60 332h-344l-60 -332h344zM1268 1675l59 332h-344l-59 -332h344zM291 1567l-174 -979q-58 -332 84 -486q124 -135 391 -135q263 0 403 131q134 125 181 391l190 1078h-319l-197 -1104q-19 -106 -72.5 -163.5t-161.5 -57.5q-115 0 -159.5 66.5t-18.5 215.5
l185 1043h-332z" />
    <glyph glyph-name="Yacute" unicode="&#xdd;" 
d="M961 1694l262 272h-396l-135 -272h269zM719 0l117 664l624 903h-344l-381 -586h-10l-172 586h-346l295 -889l-119 -678h336z" />
    <glyph glyph-name="Thorn" unicode="&#xde;" 
d="M430 330h305q227 0 369 127q156 140 156 389q0 196 -125 309q-121 109 -318 109h-221l53 303h-336l-276 -1567h336zM551 1010h188q88 0 138.5 -47t50.5 -129q0 -248 -250 -248h-203z" />
    <glyph glyph-name="germandbls" unicode="&#xdf;" 
d="M385 0l205 1161q15 89 61 146q57 71 156 71q74 0 115 -45t41 -127q0 -88 -39 -147q-53 -84 -166 -84h-56l-43 -246h37q105 0 159 -58t54 -153q0 -125 -65 -197.5t-199 -72.5h-72l-43 -248h154q303 0 440 182q101 135 101 330q0 128 -64.5 215.5t-177.5 116.5v8
q159 45 229 164q54 92 54 225q0 170 -127 275q-124 98 -326 98q-268 0 -410 -156q-110 -121 -143 -330l-199 -1128h324z" />
    <glyph glyph-name="agrave" unicode="&#xe0;" 
d="M770 1614h-371l211 -367h236zM797 135v-4q0 -60 45.5 -95.5t120.5 -35.5h170l43 242h-56q-61 0 -49 65l55 314q45 253 -79 380q-118 121 -363 121q-207 0 -340 -94q-136 -97 -151 -264h315q4 63 49 99t119 36q87 0 127.5 -50.5t23.5 -137.5l-6 -33q-239 -11 -270 -14
q-28 -3 -168 -25q-133 -27 -213 -115t-80 -221q0 -163 107 -246q97 -75 254 -75q232 0 340 153h6zM793 479l-2 -12q-24 -134 -82.5 -202t-161.5 -68q-63 0 -100 32t-37 86q0 56 29.5 92t84.5 48q64 15 269 24z" />
    <glyph glyph-name="aacute" unicode="&#xe1;" 
d="M836 1247l315 367h-395l-174 -367h254zM797 135v-4q0 -60 45.5 -95.5t120.5 -35.5h170l43 242h-56q-61 0 -49 65l55 314q45 253 -79 380q-118 121 -363 121q-207 0 -340 -94q-136 -97 -151 -264h315q4 63 49 99t119 36q87 0 127.5 -50.5t23.5 -137.5l-6 -33
q-239 -11 -270 -14q-28 -3 -168 -25q-133 -27 -213 -115t-80 -221q0 -163 107 -246q97 -75 254 -75q232 0 340 153h6zM793 479l-2 -12q-24 -134 -82.5 -202t-161.5 -68q-63 0 -100 32t-37 86q0 56 29.5 92t84.5 48q64 15 269 24z" />
    <glyph glyph-name="acircumflex" unicode="&#xe2;" 
d="M647 1614l-289 -367h240l150 166h6l96 -166h237l-159 367h-281zM797 135v-4q0 -60 45.5 -95.5t120.5 -35.5h170l43 242h-56q-61 0 -49 65l55 314q45 253 -79 380q-118 121 -363 121q-207 0 -340 -94q-136 -97 -151 -264h315q4 63 49 99t119 36q87 0 127.5 -50.5
t23.5 -137.5l-6 -33q-239 -11 -270 -14q-28 -3 -168 -25q-133 -27 -213 -115t-80 -221q0 -163 107 -246q97 -75 254 -75q232 0 340 153h6zM793 479l-2 -12q-24 -134 -82.5 -202t-161.5 -68q-63 0 -100 32t-37 86q0 56 29.5 92t84.5 48q64 15 269 24z" />
    <glyph glyph-name="atilde" unicode="&#xe3;" 
d="M322 1247h196q5 48 27 75.5t57 27.5t139 -47q102 -50 166 -50q128 0 199 101q61 90 70 241h-199q-8 -102 -84 -102q-6 0 -12 1t-11.5 1.5t-13 3t-12.5 4t-13.5 5t-13 5t-14.5 6.5t-14 6.5t-16 7t-15 7.5q-100 47 -168 47q-131 0 -197 -98q-61 -86 -71 -242zM797 135v-4
q0 -60 45.5 -95.5t120.5 -35.5h170l43 242h-56q-61 0 -49 65l55 314q45 253 -79 380q-118 121 -363 121q-207 0 -340 -94q-136 -97 -151 -264h315q4 63 49 99t119 36q87 0 127.5 -50.5t23.5 -137.5l-6 -33q-239 -11 -270 -14q-28 -3 -168 -25q-133 -27 -213 -115t-80 -221
q0 -163 107 -246q97 -75 254 -75q232 0 340 153h6zM793 479l-2 -12q-24 -134 -82.5 -202t-161.5 -68q-63 0 -100 32t-37 86q0 56 29.5 92t84.5 48q64 15 269 24z" />
    <glyph glyph-name="adieresis" unicode="&#xe4;" 
d="M664 1235l59 332h-344l-60 -332h345zM1147 1235l59 332h-344l-59 -332h344zM797 135v-4q0 -60 45.5 -95.5t120.5 -35.5h170l43 242h-56q-61 0 -49 65l55 314q45 253 -79 380q-118 121 -363 121q-207 0 -340 -94q-136 -97 -151 -264h315q4 63 49 99t119 36
q87 0 127.5 -50.5t23.5 -137.5l-6 -33q-239 -11 -270 -14q-28 -3 -168 -25q-133 -27 -213 -115t-80 -221q0 -163 107 -246q97 -75 254 -75q232 0 340 153h6zM793 479l-2 -12q-24 -134 -82.5 -202t-161.5 -68q-63 0 -100 32t-37 86q0 56 29.5 92t84.5 48q64 15 269 24z" />
    <glyph glyph-name="aring" unicode="&#xe5;" 
d="M475 1430q0 -104 72 -170q71 -68 174 -68q123 0 205 82q80 80 80 196q0 105 -70 175q-69 69 -178 69q-122 0 -203 -84q-80 -80 -80 -200zM731 1331q-49 0 -76.5 31.5t-27.5 83.5q0 55 34 92t87 37q50 0 78 -33t28 -84q0 -55 -34 -91t-89 -36zM797 135v-4
q0 -60 45.5 -95.5t120.5 -35.5h170l43 242h-56q-61 0 -49 65l55 314q45 253 -79 380q-118 121 -363 121q-207 0 -340 -94q-136 -97 -151 -264h315q4 63 49 99t119 36q87 0 127.5 -50.5t23.5 -137.5l-6 -33q-239 -11 -270 -14q-28 -3 -168 -25q-133 -27 -213 -115t-80 -221
q0 -163 107 -246q97 -75 254 -75q232 0 340 153h6zM793 479l-2 -12q-24 -134 -82.5 -202t-161.5 -68q-63 0 -100 32t-37 86q0 56 29.5 92t84.5 48q64 15 269 24z" />
    <glyph glyph-name="ae" unicode="&#xe6;" 
d="M1194 319h-258q-17 -68 -42.5 -98.5t-66.5 -30.5q-61 0 -77 58q-19 65 6 233h471l33 187q35 189 -29 317q-70 133 -244 133q-171 0 -252 -127h-6q-62 131 -244 131q-179 0 -284 -110q-47 -49 -72 -112.5t-25 -127.5h244q10 79 37 110t82 31t75.5 -40.5t8.5 -110.5
l-19 -105q-146 0 -215 -10q-78 -14 -153 -55q-78 -45 -120 -117t-42 -190q0 -140 77.5 -222.5t203.5 -82.5q103 0 166 41t108 120h8q14 -79 76.5 -121.5t169.5 -42.5q157 0 253.5 89t129.5 253zM1006 657h-220q27 138 58 203q31 60 94 60q61 0 76 -60q14 -57 -8 -203z
M352 205q-43 0 -68.5 23.5t-25.5 72.5q0 95 57 139q38 28 74 34.5t113 6.5l-21 -123q-11 -69 -43 -111t-86 -42z" />
    <glyph glyph-name="ccedilla" unicode="&#xe7;" 
d="M543 -436q129 0 193.5 55t64.5 141q0 79 -53 120.5t-142 41.5h-39l31 49h29q205 0 352 111q155 117 192 326h-340q-25 -101 -76.5 -154t-144.5 -53q-89 0 -133.5 59t-44.5 160q0 162 51 293q72 182 217 182q91 0 134.5 -51.5t35.5 -138.5h338q6 79 -23.5 154.5
t-90.5 133.5q-139 129 -377 129q-324 0 -490 -231q-66 -93 -97.5 -206t-31.5 -216q0 -116 30 -205.5t83.5 -144.5t117.5 -87t142 -46l-125 -201h164q21 27 61 27q60 0 60 -60q0 -30 -19.5 -48.5t-54.5 -18.5q-27 0 -41 12.5t-16 28.5h-176q-4 -59 38 -101q58 -61 181 -61z
" />
    <glyph glyph-name="egrave" unicode="&#xe8;" 
d="M815 1614h-371l211 -367h236zM1155 319h-332q-20 -53 -74 -86.5t-131 -33.5q-97 0 -148.5 56.5t-51.5 156.5v45h770l18 90q24 119 1 224.5t-89 182.5q-68 79 -171.5 122.5t-235.5 43.5q-303 0 -471 -207q-148 -185 -148 -456q0 -227 135 -353q139 -133 379 -133
q219 0 363 93t186 255zM899 670h-448q32 104 86 161q67 70 168 70q96 0 147.5 -65t46.5 -166z" />
    <glyph glyph-name="eacute" unicode="&#xe9;" 
d="M836 1247l315 367h-395l-174 -367h254zM1155 319h-332q-20 -53 -74 -86.5t-131 -33.5q-97 0 -148.5 56.5t-51.5 156.5v45h770l18 90q24 119 1 224.5t-89 182.5q-68 79 -171.5 122.5t-235.5 43.5q-303 0 -471 -207q-148 -185 -148 -456q0 -227 135 -353q139 -133 379 -133
q219 0 363 93t186 255zM899 670h-448q32 104 86 161q67 70 168 70q96 0 147.5 -65t46.5 -166z" />
    <glyph glyph-name="ecircumflex" unicode="&#xea;" 
d="M670 1614l-289 -367h240l149 166h6l96 -166h238l-160 367h-280zM1155 319h-332q-20 -53 -74 -86.5t-131 -33.5q-97 0 -148.5 56.5t-51.5 156.5v45h770l18 90q24 119 1 224.5t-89 182.5q-68 79 -171.5 122.5t-235.5 43.5q-303 0 -471 -207q-148 -185 -148 -456
q0 -227 135 -353q139 -133 379 -133q219 0 363 93t186 255zM899 670h-448q32 104 86 161q67 70 168 70q96 0 147.5 -65t46.5 -166z" />
    <glyph glyph-name="edieresis" unicode="&#xeb;" 
d="M664 1235l59 332h-344l-60 -332h345zM1147 1235l59 332h-344l-59 -332h344zM1155 319h-332q-20 -53 -74 -86.5t-131 -33.5q-97 0 -148.5 56.5t-51.5 156.5v45h770l18 90q24 119 1 224.5t-89 182.5q-68 79 -171.5 122.5t-235.5 43.5q-303 0 -471 -207q-148 -185 -148 -456
q0 -227 135 -353q139 -133 379 -133q219 0 363 93t186 255zM899 670h-448q32 104 86 161q67 70 168 70q96 0 147.5 -65t46.5 -166z" />
    <glyph glyph-name="igrave" unicode="&#xec;" 
d="M809 1614h-371l211 -367h236zM1155 250h-383l150 848h-656l-45 -248h332l-104 -600h-371l-45 -250h1077z" />
    <glyph glyph-name="iacute" unicode="&#xed;" 
d="M907 1247l316 367h-396l-174 -367h254zM1155 250h-383l150 848h-656l-45 -248h332l-104 -600h-371l-45 -250h1077z" />
    <glyph glyph-name="icircumflex" unicode="&#xee;" 
d="M670 1614l-289 -367h240l149 166h6l96 -166h238l-160 367h-280zM1155 250h-383l150 848h-656l-45 -248h332l-104 -600h-371l-45 -250h1077z" />
    <glyph glyph-name="idieresis" unicode="&#xef;" 
d="M670 1235l59 332h-344l-59 -332h344zM1153 1235l59 332h-344l-59 -332h344zM1155 250h-383l150 848h-656l-45 -248h332l-104 -600h-371l-45 -250h1077z" />
    <glyph glyph-name="eth" unicode="&#xf0;" 
d="M616 -29q298 0 455 203q152 196 152 526q0 361 -230 646l209 69l-47 144l-278 -95q-96 89 -224 164l-254 -76q101 -69 211 -176l-262 -88l49 -143l328 110q102 -120 137 -221l-10 -8q-45 42 -96 64q-47 20 -125 20q-252 0 -398 -186q-141 -179 -141 -459q0 -226 144 -361
q139 -133 380 -133zM885 672q0 -66 -8 -121q-18 -125 -66 -219q-32 -59 -77 -97t-118 -38q-93 0 -141.5 58t-48.5 165q0 53 10 121q20 136 66 221q30 59 74 96t120 37q93 0 141 -58t48 -165z" />
    <glyph glyph-name="ntilde" unicode="&#xf1;" 
d="M344 1247h197q5 48 27 75.5t57 27.5t139 -47q102 -50 166 -50q127 0 198 101q61 90 70 241h-199q-8 -102 -84 -102q-6 0 -12 1t-11.5 1.5t-13 3t-12.5 4t-13.5 5t-13 5t-14.5 6.5t-14 6.5t-16 7t-15 7.5q-100 47 -168 47q-130 0 -196 -98q-62 -88 -72 -242zM1067 0
l119 672q77 442 -299 442q-240 0 -361 -211h-4l33 195h-311l-195 -1098h326l92 528q31 179 102 269t166 90q79 0 112 -55t13 -164l-119 -668h326z" />
    <glyph glyph-name="ograve" unicode="&#xf2;" 
d="M825 1614h-370l211 -367h235zM616 -29q289 0 451 193q152 181 152 463q0 226 -142 362q-140 131 -383 131q-288 0 -448 -190q-75 -89 -114.5 -209.5t-39.5 -257.5q0 -228 144 -359q142 -133 380 -133zM616 197q-93 0 -141.5 58t-48.5 165q0 68 8 123q15 127 66 217
q71 135 194 135q93 0 142 -58t49 -165q0 -66 -8 -121q-18 -125 -66 -219q-32 -59 -77 -97t-118 -38z" />
    <glyph glyph-name="oacute" unicode="&#xf3;" 
d="M862 1247l316 367h-396l-174 -367h254zM616 -29q289 0 451 193q152 181 152 463q0 226 -142 362q-140 131 -383 131q-288 0 -448 -190q-75 -89 -114.5 -209.5t-39.5 -257.5q0 -228 144 -359q142 -133 380 -133zM616 197q-93 0 -141.5 58t-48.5 165q0 68 8 123
q15 127 66 217q71 135 194 135q93 0 142 -58t49 -165q0 -66 -8 -121q-18 -125 -66 -219q-32 -59 -77 -97t-118 -38z" />
    <glyph glyph-name="ocircumflex" unicode="&#xf4;" 
d="M664 1614l-289 -367h239l150 166h6l96 -166h238l-160 367h-280zM616 -29q289 0 451 193q152 181 152 463q0 226 -142 362q-140 131 -383 131q-288 0 -448 -190q-75 -89 -114.5 -209.5t-39.5 -257.5q0 -228 144 -359q142 -133 380 -133zM616 197q-93 0 -141.5 58
t-48.5 165q0 68 8 123q15 127 66 217q71 135 194 135q93 0 142 -58t49 -165q0 -66 -8 -121q-18 -125 -66 -219q-32 -59 -77 -97t-118 -38z" />
    <glyph glyph-name="otilde" unicode="&#xf5;" 
d="M338 1247h197q5 48 26.5 75.5t56.5 27.5q36 0 140 -47q102 -50 166 -50q127 0 198 101q61 90 70 241h-199q-8 -102 -84 -102q-6 0 -12 1t-11.5 1.5t-13 3t-12.5 4t-13.5 5t-13 5t-14.5 6.5t-14 6.5t-16 7t-15 7.5q-100 47 -168 47q-130 0 -196 -98q-62 -88 -72 -242z
M616 -29q289 0 451 193q152 181 152 463q0 226 -142 362q-140 131 -383 131q-288 0 -448 -190q-75 -89 -114.5 -209.5t-39.5 -257.5q0 -228 144 -359q142 -133 380 -133zM616 197q-93 0 -141.5 58t-48.5 165q0 68 8 123q15 127 66 217q71 135 194 135q93 0 142 -58t49 -165
q0 -66 -8 -121q-18 -125 -66 -219q-32 -59 -77 -97t-118 -38z" />
    <glyph glyph-name="odieresis" unicode="&#xf6;" 
d="M684 1235l59 332h-344l-59 -332h344zM1167 1235l60 332h-344l-60 -332h344zM616 -29q289 0 451 193q152 181 152 463q0 226 -142 362q-140 131 -383 131q-288 0 -448 -190q-75 -89 -114.5 -209.5t-39.5 -257.5q0 -228 144 -359q142 -133 380 -133zM616 197
q-93 0 -141.5 58t-48.5 165q0 68 8 123q15 127 66 217q71 135 194 135q93 0 142 -58t49 -165q0 -66 -8 -121q-18 -125 -66 -219q-32 -59 -77 -97t-118 -38z" />
    <glyph glyph-name="divide" unicode="&#xf7;" 
d="M926 979l65 364h-368l-66 -364h369zM1159 614l41 238h-964l-41 -238h964zM840 487h-369l-65 -364h368z" />
    <glyph glyph-name="oslash" unicode="&#xf8;" 
d="M1219 627q0 191 -111 317l199 227h-207l-111 -127q-128 76 -295 76q-290 0 -450 -190q-152 -181 -152 -465q0 -191 113 -320l-195 -223h205l109 125q128 -76 292 -76q289 0 451 193q152 181 152 463zM545 840q59 59 155 59q74 0 127 -41l-413 -473q-2 6 -2 16v19
q0 123 39 242q38 122 94 178zM612 193q-73 0 -125 40l410 472q2 -6 2 -31q0 -121 -37 -240q-41 -125 -96 -180q-61 -61 -154 -61z" />
    <glyph glyph-name="ugrave" unicode="&#xf9;" 
d="M819 1614h-370l210 -367h236zM229 1098l-112 -635q-84 -483 327 -483q114 0 189.5 49t130.5 137h10l-29 -166h308l194 1098h-325l-97 -547q-29 -165 -99 -250.5t-171 -85.5q-158 0 -121 193l121 690h-326z" />
    <glyph glyph-name="uacute" unicode="&#xfa;" 
d="M877 1247l315 367h-395l-174 -367h254zM229 1098l-112 -635q-84 -483 327 -483q114 0 189.5 49t130.5 137h10l-29 -166h308l194 1098h-325l-97 -547q-29 -165 -99 -250.5t-171 -85.5q-158 0 -121 193l121 690h-326z" />
    <glyph glyph-name="ucircumflex" unicode="&#xfb;" 
d="M686 1614l-289 -367h240l149 166h7l96 -166h237l-159 367h-281zM229 1098l-112 -635q-84 -483 327 -483q114 0 189.5 49t130.5 137h10l-29 -166h308l194 1098h-325l-97 -547q-29 -165 -99 -250.5t-171 -85.5q-158 0 -121 193l121 690h-326z" />
    <glyph glyph-name="udieresis" unicode="&#xfc;" 
d="M705 1235l59 332h-344l-60 -332h345zM1188 1235l59 332h-344l-59 -332h344zM229 1098l-112 -635q-84 -483 327 -483q114 0 189.5 49t130.5 137h10l-29 -166h308l194 1098h-325l-97 -547q-29 -165 -99 -250.5t-171 -85.5q-158 0 -121 193l121 690h-326z" />
    <glyph glyph-name="yacute" unicode="&#xfd;" 
d="M846 1247l315 367h-395l-174 -367h254zM371 0l-11 -20q-36 -73 -82.5 -104.5t-113.5 -31.5q-64 0 -162 15l-43 -242q113 -23 236 -23q171 0 299 89q95 68 176 213l657 1202h-342l-270 -531q-41 -83 -47 -100q-44 -99 -56 -156h-18q0 20 -4 78q0 5 -3.5 35t-4.5 49
q-1 20 -15 105l-92 520h-332z" />
    <glyph glyph-name="thorn" unicode="&#xfe;" 
d="M297 -385l86 500h10q90 -142 293 -142q280 0 432 228q125 192 125 487q0 198 -104.5 314t-284.5 116q-202 0 -313 -151h-9l115 647h-325l-353 -1999h328zM446 489l21 119q25 137 93 214t165 77q86 0 134 -58.5t48 -162.5q0 -187 -55 -316q-74 -169 -227 -169
q-101 0 -152 88q-49 79 -27 208z" />
    <glyph glyph-name="ydieresis" unicode="&#xff;" 
d="M676 1235l59 332h-344l-59 -332h344zM1159 1235l60 332h-345l-59 -332h344zM371 0l-11 -20q-36 -73 -82.5 -104.5t-113.5 -31.5q-64 0 -162 15l-43 -242q113 -23 236 -23q171 0 299 89q95 68 176 213l657 1202h-342l-270 -531q-41 -83 -47 -100q-44 -99 -56 -156h-18
q0 20 -4 78q0 5 -3.5 35t-4.5 49q-1 20 -15 105l-92 520h-332z" />
    <glyph glyph-name="Amacron" unicode="&#x100;" 
d="M1198 1712l41 223h-700l-41 -223h700zM1149 0l-74 1567h-477l-627 -1567h326l137 346h371l12 -346h332zM801 1315l-6 -103q-7 -80 -4 -280l6 -338h-271l123 340q34 91 49 141q36 104 64 205q8 27 8 35h31z" />
    <glyph glyph-name="amacron" unicode="&#x101;" 
d="M1083 1303l39 223h-700l-39 -223h700zM797 135v-4q0 -60 45.5 -95.5t120.5 -35.5h170l43 242h-56q-61 0 -49 65l55 314q45 253 -79 380q-118 121 -363 121q-207 0 -340 -94q-136 -97 -151 -264h315q4 63 49 99t119 36q87 0 127.5 -50.5t23.5 -137.5l-6 -33
q-239 -11 -270 -14q-28 -3 -168 -25q-133 -27 -213 -115t-80 -221q0 -163 107 -246q97 -75 254 -75q232 0 340 153h6zM793 479l-2 -12q-24 -134 -82.5 -202t-161.5 -68q-63 0 -100 32t-37 86q0 56 29.5 92t84.5 48q64 15 269 24z" />
    <glyph glyph-name="Abreve" unicode="&#x102;" 
d="M752 1991h-222q-23 -148 72 -240q85 -82 234 -82q150 0 251 82q112 90 123 240h-215q-17 -59 -53.5 -84t-95.5 -25q-46 0 -72 25.5t-22 83.5zM1149 0l-74 1567h-477l-627 -1567h326l137 346h371l12 -346h332zM801 1315l-6 -103q-7 -80 -4 -280l6 -338h-271l123 340
q34 91 49 141q36 104 64 205q8 27 8 35h31z" />
    <glyph glyph-name="abreve" unicode="&#x103;" 
d="M641 1614h-215q-32 -171 68 -271q87 -90 229 -90q157 0 258 82q113 92 127 279h-207q-26 -148 -151 -148q-60 0 -88 38t-21 110zM797 135v-4q0 -60 45.5 -95.5t120.5 -35.5h170l43 242h-56q-61 0 -49 65l55 314q45 253 -79 380q-118 121 -363 121q-207 0 -340 -94
q-136 -97 -151 -264h315q4 63 49 99t119 36q87 0 127.5 -50.5t23.5 -137.5l-6 -33q-239 -11 -270 -14q-28 -3 -168 -25q-133 -27 -213 -115t-80 -221q0 -163 107 -246q97 -75 254 -75q232 0 340 153h6zM793 479l-2 -12q-24 -134 -82.5 -202t-161.5 -68q-63 0 -100 32t-37 86
q0 56 29.5 92t84.5 48q64 15 269 24z" />
    <glyph glyph-name="Aogonek" unicode="&#x104;" 
d="M1022 -131q0 -72 94 -72l-33 -182h-59q-133 0 -198.5 46.5t-65.5 123.5q0 89 74 149q55 42 135 66h-152l-12 346h-371l-137 -346h-326l627 1567h477l74 -1567q-77 -38 -102 -66q-25 -31 -25 -65zM797 594l-6 338q-3 200 4 280l6 103h-31q0 -8 -8 -35q-28 -101 -64 -205
q-15 -50 -49 -141l-123 -340h271z" />
    <glyph glyph-name="aogonek" unicode="&#x105;" 
d="M1067 -385l33 182q-53 0 -73.5 15t-20.5 51q0 37 27.5 65t99.5 72l43 242h-56q-61 0 -49 65l55 314q45 253 -79 380q-118 121 -363 121q-207 0 -340 -94q-136 -97 -151 -264h315q4 63 49 99t119 36q87 0 127.5 -50.5t23.5 -137.5l-6 -33q-239 -11 -270 -14
q-28 -3 -168 -25q-133 -27 -213 -115t-80 -221q0 -163 107 -246q97 -75 254 -75q232 0 340 153h6v-4q0 -127 155 -127v-10q-103 -32 -156 -81.5t-53 -125.5q0 -87 61.5 -129.5t203.5 -42.5h59zM793 479l-2 -12q-24 -134 -82.5 -202t-161.5 -68q-63 0 -100 32t-37 86
q0 56 29.5 92t84.5 48q64 15 269 24z" />
    <glyph glyph-name="Cacute" unicode="&#x106;" 
d="M958 1694l263 272h-396l-135 -272h268zM1223 532h-344q-27 -147 -74 -215q-60 -86 -176 -86q-93 0 -136.5 57t-43.5 171q0 89 22 243q27 187 57 299q43 163 82 224q64 102 181 102q112 0 155 -78q38 -71 25 -213h334q23 233 -82 381q-126 172 -406 172q-151 0 -253 -40
t-181 -119q-139 -144 -213 -445q-64 -259 -64 -487q0 -282 140 -410q130 -121 383 -121q269 0 426 170q139 150 168 395z" />
    <glyph glyph-name="cacute" unicode="&#x107;" 
d="M856 1247l315 367h-395l-174 -367h254zM870 705h338q6 79 -23.5 154.5t-90.5 133.5q-139 129 -377 129q-324 0 -490 -231q-66 -93 -97.5 -206t-31.5 -216q0 -242 135 -370t394 -128q205 0 352 111q155 117 192 326h-340q-25 -101 -76.5 -154t-144.5 -53q-89 0 -133.5 59
t-44.5 160q0 162 51 293q72 182 217 182q91 0 134.5 -51.5t35.5 -138.5z" />
    <glyph glyph-name="Ccircumflex" unicode="&#x108;" 
d="M743 1966l-256 -272h238l145 102h2l111 -102h234l-166 272h-308zM1223 532h-344q-27 -147 -74 -215q-60 -86 -176 -86q-93 0 -136.5 57t-43.5 171q0 89 22 243q27 187 57 299q43 163 82 224q64 102 181 102q112 0 155 -78q38 -71 25 -213h334q23 233 -82 381
q-126 172 -406 172q-151 0 -253 -40t-181 -119q-139 -144 -213 -445q-64 -259 -64 -487q0 -282 140 -410q130 -121 383 -121q269 0 426 170q139 150 168 395z" />
    <glyph glyph-name="ccircumflex" unicode="&#x109;" 
d="M659 1614l-288 -367h239l150 166h6l96 -166h238l-160 367h-281zM870 705h338q6 79 -23.5 154.5t-90.5 133.5q-139 129 -377 129q-324 0 -490 -231q-66 -93 -97.5 -206t-31.5 -216q0 -242 135 -370t394 -128q205 0 352 111q155 117 192 326h-340q-25 -101 -76.5 -154
t-144.5 -53q-89 0 -133.5 59t-44.5 160q0 162 51 293q72 182 217 182q91 0 134.5 -51.5t35.5 -138.5z" />
    <glyph glyph-name="Cdotaccent" unicode="&#x10a;" 
d="M983 1679l57 328h-344l-57 -328h344zM1223 532h-344q-27 -147 -74 -215q-60 -86 -176 -86q-93 0 -136.5 57t-43.5 171q0 89 22 243q27 187 57 299q43 163 82 224q64 102 181 102q112 0 155 -78q38 -71 25 -213h334q23 233 -82 381q-126 172 -406 172q-151 0 -253 -40
t-181 -119q-139 -144 -213 -445q-64 -259 -64 -487q0 -282 140 -410q130 -121 383 -121q269 0 426 170q139 150 168 395z" />
    <glyph glyph-name="cdotaccent" unicode="&#x10b;" 
d="M911 1235l60 332h-344l-60 -332h344zM870 705h338q6 79 -23.5 154.5t-90.5 133.5q-139 129 -377 129q-324 0 -490 -231q-66 -93 -97.5 -206t-31.5 -216q0 -242 135 -370t394 -128q205 0 352 111q155 117 192 326h-340q-25 -101 -76.5 -154t-144.5 -53q-89 0 -133.5 59
t-44.5 160q0 162 51 293q72 182 217 182q91 0 134.5 -51.5t35.5 -138.5z" />
    <glyph glyph-name="Ccaron" unicode="&#x10c;" 
d="M991 1694l256 272h-237l-146 -102h-2l-110 102h-234l166 -272h307zM1223 532h-344q-27 -147 -74 -215q-60 -86 -176 -86q-93 0 -136.5 57t-43.5 171q0 89 22 243q27 187 57 299q43 163 82 224q64 102 181 102q112 0 155 -78q38 -71 25 -213h334q23 233 -82 381
q-126 172 -406 172q-151 0 -253 -40t-181 -119q-139 -144 -213 -445q-64 -259 -64 -487q0 -282 140 -410q130 -121 383 -121q269 0 426 170q139 150 168 395z" />
    <glyph glyph-name="ccaron" unicode="&#x10d;" 
d="M889 1247l289 367h-240l-150 -166h-6l-96 166h-237l159 -367h281zM870 705h338q6 79 -23.5 154.5t-90.5 133.5q-139 129 -377 129q-324 0 -490 -231q-66 -93 -97.5 -206t-31.5 -216q0 -242 135 -370t394 -128q205 0 352 111q155 117 192 326h-340q-25 -101 -76.5 -154
t-144.5 -53q-89 0 -133.5 59t-44.5 160q0 162 51 293q72 182 217 182q91 0 134.5 -51.5t35.5 -138.5z" />
    <glyph glyph-name="Dcaron" unicode="&#x10e;" 
d="M911 1694l256 272h-237l-146 -102h-2l-110 102h-234l166 -272h307zM14 0h478q419 0 622 307q170 257 170 686q0 282 -170 432q-161 142 -450 142h-373zM582 1311h80q125 0 196 -74q76 -82 76 -246q0 -155 -29 -289q-41 -193 -121 -301q-102 -141 -266 -141h-123z" />
    <glyph glyph-name="dcaron" unicode="&#x10f;" 
d="M881 1614l-109 -625h-10q-75 121 -250 121q-250 0 -385 -227q-115 -189 -115 -486q0 -214 99 -321q89 -99 247 -99q102 0 164 35q49 29 99 92h10l-19 -104h310l284 1614h-325zM1366 1198l231 416h-288l-113 -416h170zM705 600l-23 -131q-26 -139 -67 -206.5t-123 -67.5
q-69 0 -100.5 46.5t-31.5 145.5q0 50 15 164q19 143 63 225q58 115 150 115q87 0 114.5 -71t2.5 -220z" />
    <glyph glyph-name="Dcroat" unicode="&#x110;" 
d="M35 0h457q419 0 622 307q170 257 170 686q0 282 -170 432q-161 142 -450 142h-353l-116 -666h-132l-40 -229h131zM489 672h230l41 229h-230l72 410h60q125 0 196 -74q76 -82 76 -246q0 -155 -29 -289q-41 -193 -121 -301q-102 -141 -266 -141h-102z" />
    <glyph glyph-name="dcroat" unicode="&#x111;" 
d="M788 0h310l219 1241h139l31 176h-139l34 197h-325l-35 -197h-317l-31 -176h315l-47 -274h-8q-35 74 -113 113.5t-182 39.5q-281 0 -428 -225q-127 -191 -127 -489q0 -197 111 -314q110 -119 282 -119q128 0 205 47q71 45 121 119h10zM881 600l-23 -129
q-24 -130 -89.5 -203t-166.5 -73q-87 0 -134.5 57.5t-47.5 157.5q0 191 57 321q71 170 232 170q111 0 154 -79.5t18 -221.5z" />
    <glyph glyph-name="Emacron" unicode="&#x112;" 
d="M1214 1712l41 223h-700l-41 -223h700zM1075 0l47 262h-659l67 389h586l45 260h-583l67 394h637l47 262h-973l-276 -1567h995z" />
    <glyph glyph-name="emacron" unicode="&#x113;" 
d="M1110 1288l39 223h-700l-39 -223h700zM1155 319h-332q-20 -53 -74 -86.5t-131 -33.5q-97 0 -148.5 56.5t-51.5 156.5v45h770l18 90q24 119 1 224.5t-89 182.5q-68 79 -171.5 122.5t-235.5 43.5q-303 0 -471 -207q-148 -185 -148 -456q0 -227 135 -353q139 -133 379 -133
q219 0 363 93t186 255zM899 670h-448q32 104 86 161q67 70 168 70q96 0 147.5 -65t46.5 -166z" />
    <glyph glyph-name="Ebreve" unicode="&#x114;" 
d="M791 1991h-222q-23 -148 72 -240q85 -82 233 -82q151 0 252 82q112 90 123 240h-215q-17 -59 -53.5 -84t-95.5 -25q-46 0 -72 25.5t-22 83.5zM1075 0l47 262h-659l67 389h586l45 260h-583l67 394h637l47 262h-973l-276 -1567h995z" />
    <glyph glyph-name="ebreve" unicode="&#x115;" 
d="M649 1614h-215q-32 -171 68 -271q87 -90 229 -90q157 0 258 82q113 92 127 279h-207q-26 -148 -151 -148q-60 0 -88 38t-21 110zM1155 319h-332q-20 -53 -74 -86.5t-131 -33.5q-97 0 -148.5 56.5t-51.5 156.5v45h770l18 90q24 119 1 224.5t-89 182.5q-68 79 -171.5 122.5
t-235.5 43.5q-303 0 -471 -207q-148 -185 -148 -456q0 -227 135 -353q139 -133 379 -133q219 0 363 93t186 255zM899 670h-448q32 104 86 161q67 70 168 70q96 0 147.5 -65t46.5 -166z" />
    <glyph glyph-name="Edotaccent" unicode="&#x116;" 
d="M1036 1679l58 328h-344l-58 -328h344zM1075 0l47 262h-659l67 389h586l45 260h-583l67 394h637l47 262h-973l-276 -1567h995z" />
    <glyph glyph-name="edotaccent" unicode="&#x117;" 
d="M918 1235l59 332h-344l-60 -332h345zM1155 319h-332q-20 -53 -74 -86.5t-131 -33.5q-97 0 -148.5 56.5t-51.5 156.5v45h770l18 90q24 119 1 224.5t-89 182.5q-68 79 -171.5 122.5t-235.5 43.5q-303 0 -471 -207q-148 -185 -148 -456q0 -227 135 -353q139 -133 379 -133
q219 0 363 93t186 255zM899 670h-448q32 104 86 161q67 70 168 70q96 0 147.5 -65t46.5 -166z" />
    <glyph glyph-name="Eogonek" unicode="&#x118;" 
d="M645 1305l-67 -394h583l-45 -260h-586l-67 -389h659l-47 -262h-65q-79 -39 -103 -66q-24 -30 -24 -65q0 -72 94 -72l-33 -182h-59q-133 0 -198.5 46.5t-65.5 123.5q0 90 73 149q55 42 135 66h-749l276 1567h973l-47 -262h-637z" />
    <glyph glyph-name="eogonek" unicode="&#x119;" 
d="M842 -385l32 182q-54 0 -76 17.5t-22 58.5q0 33 31 66q43 47 137 108q88 55 138 119t73 153h-332q-20 -53 -74 -86.5t-131 -33.5q-97 0 -148.5 56.5t-51.5 156.5v45h770l18 90q24 119 1 224.5t-89 182.5q-68 79 -171.5 122.5t-235.5 43.5q-308 0 -473 -211
q-72 -91 -109 -206t-37 -232q0 -236 134.5 -368t379.5 -132h31q21 0 31 2v-10q-67 -24 -108.5 -74t-41.5 -102q0 -88 61 -130t203 -42h60zM899 670h-448q32 104 86 161q67 70 168 70q96 0 147.5 -65t46.5 -166z" />
    <glyph glyph-name="Ecaron" unicode="&#x11a;" 
d="M987 1694l256 272h-237l-146 -102h-2l-110 102h-234l166 -272h307zM1075 0l47 262h-659l67 389h586l45 260h-583l67 394h637l47 262h-973l-276 -1567h995z" />
    <glyph glyph-name="ecaron" unicode="&#x11b;" 
d="M856 1247l289 367h-240l-149 -166h-6l-97 166h-237l159 -367h281zM1155 319h-332q-20 -53 -74 -86.5t-131 -33.5q-97 0 -148.5 56.5t-51.5 156.5v45h770l18 90q24 119 1 224.5t-89 182.5q-68 79 -171.5 122.5t-235.5 43.5q-303 0 -471 -207q-148 -185 -148 -456
q0 -227 135 -353q139 -133 379 -133q219 0 363 93t186 255zM899 670h-448q32 104 86 161q67 70 168 70q96 0 147.5 -65t46.5 -166z" />
    <glyph glyph-name="Gcircumflex" unicode="&#x11c;" horiz-adv-x="1308" 
d="M717 1966l-256 -272h237l146 102h2l110 -102h234l-166 272h-307zM788 1329q97 0 145 -66t36 -178h327q11 105 -17.5 197.5t-92.5 161.5q-139 145 -383 145q-159 0 -266 -49q-94 -43 -162 -117q-138 -143 -219 -440q-68 -252 -68 -489q0 -247 114.5 -387t317.5 -140
q123 0 209 46t131 120h12l-24 -133h272l148 836h-570l-45 -252h252l-6 -39q-25 -171 -98 -250q-64 -72 -166 -72q-203 0 -203 232q0 82 27 247q22 153 61 297q40 149 82 215q40 65 82.5 90t103.5 25z" />
    <glyph glyph-name="gcircumflex" unicode="&#x11d;" 
d="M666 1614l-289 -367h239l150 166h6l96 -166h238l-160 367h-280zM498 -410q251 0 399 113q156 120 201 367l182 1028h-309l-27 -146h-4q-35 75 -113.5 121.5t-199.5 46.5q-269 0 -418 -215q-65 -92 -98 -210t-33 -240q0 -212 112 -324q104 -104 287 -104q115 0 197 45
q61 34 114 100h9l-17 -86q-27 -143 -86 -211t-180 -68q-169 0 -178 130h-307q-9 -155 106 -248q123 -99 363 -99zM877 616l-19 -102q-21 -116 -88.5 -190t-167.5 -74q-89 0 -134.5 51t-45.5 145q0 191 67 316q76 141 216 141q104 0 149.5 -76t22.5 -211z" />
    <glyph glyph-name="Gbreve" unicode="&#x11e;" horiz-adv-x="1308" 
d="M725 1991h-221q-23 -149 71 -240q85 -82 234 -82q151 0 252 82q112 90 123 240h-215q-17 -59 -54 -84t-96 -25q-46 0 -72 25.5t-22 83.5zM788 1329q97 0 145 -66t36 -178h327q11 105 -17.5 197.5t-92.5 161.5q-139 145 -383 145q-159 0 -266 -49q-94 -43 -162 -117
q-138 -143 -219 -440q-68 -252 -68 -489q0 -247 114.5 -387t317.5 -140q123 0 209 46t131 120h12l-24 -133h272l148 836h-570l-45 -252h252l-6 -39q-25 -171 -98 -250q-64 -72 -166 -72q-203 0 -203 232q0 82 27 247q22 153 61 297q40 149 82 215q40 65 82.5 90t103.5 25z
" />
    <glyph glyph-name="gbreve" unicode="&#x11f;" 
d="M676 1614h-215q-33 -171 67 -271q87 -90 230 -90q157 0 258 82q113 92 127 279h-207q-26 -148 -152 -148q-60 0 -87.5 38t-20.5 110zM498 -410q251 0 399 113q156 120 201 367l182 1028h-309l-27 -146h-4q-35 75 -113.5 121.5t-199.5 46.5q-269 0 -418 -215
q-65 -92 -98 -210t-33 -240q0 -212 112 -324q104 -104 287 -104q115 0 197 45q61 34 114 100h9l-17 -86q-27 -143 -86 -211t-180 -68q-169 0 -178 130h-307q-9 -155 106 -248q123 -99 363 -99zM877 616l-19 -102q-21 -116 -88.5 -190t-167.5 -74q-89 0 -134.5 51t-45.5 145
q0 191 67 316q76 141 216 141q104 0 149.5 -76t22.5 -211z" />
    <glyph glyph-name="Gdotaccent" unicode="&#x120;" horiz-adv-x="1308" 
d="M991 1679l58 328h-344l-58 -328h344zM788 1329q97 0 145 -66t36 -178h327q11 105 -17.5 197.5t-92.5 161.5q-139 145 -383 145q-159 0 -266 -49q-94 -43 -162 -117q-138 -143 -219 -440q-68 -252 -68 -489q0 -247 114.5 -387t317.5 -140q123 0 209 46t131 120h12
l-24 -133h272l148 836h-570l-45 -252h252l-6 -39q-25 -171 -98 -250q-64 -72 -166 -72q-203 0 -203 232q0 82 27 247q22 153 61 297q40 149 82 215q40 65 82.5 90t103.5 25z" />
    <glyph glyph-name="gdotaccent" unicode="&#x121;" 
d="M913 1235l60 332h-344l-60 -332h344zM498 -410q251 0 399 113q156 120 201 367l182 1028h-309l-27 -146h-4q-35 75 -113.5 121.5t-199.5 46.5q-269 0 -418 -215q-65 -92 -98 -210t-33 -240q0 -212 112 -324q104 -104 287 -104q115 0 197 45q61 34 114 100h9l-17 -86
q-27 -143 -86 -211t-180 -68q-169 0 -178 130h-307q-9 -155 106 -248q123 -99 363 -99zM877 616l-19 -102q-21 -116 -88.5 -190t-167.5 -74q-89 0 -134.5 51t-45.5 145q0 191 67 316q76 141 216 141q104 0 149.5 -76t22.5 -211z" />
    <glyph glyph-name="Gcommaaccent" unicode="&#x122;" horiz-adv-x="1308" 
d="M788 1329q97 0 145 -66t36 -178h327q11 105 -17.5 197.5t-92.5 161.5q-139 145 -383 145q-159 0 -266 -49q-94 -43 -162 -117q-138 -143 -219 -440q-68 -252 -68 -489q0 -247 114.5 -387t317.5 -140q123 0 209 46t131 120h12l-24 -133h272l148 836h-570l-45 -252h252
l-6 -39q-25 -171 -98 -250q-64 -72 -166 -72q-203 0 -203 232q0 82 27 247q22 153 61 297q40 149 82 215q40 65 82.5 90t103.5 25zM494 -424l243 320h-354l-104 -320h215z" />
    <glyph glyph-name="gcommaaccent" unicode="&#x123;" 
d="M813 1587l-264 -340h362l117 340h-215zM498 -410q251 0 399 113q156 120 201 367l182 1028h-309l-27 -146h-4q-35 75 -113.5 121.5t-199.5 46.5q-269 0 -418 -215q-65 -92 -98 -210t-33 -240q0 -212 112 -324q104 -104 287 -104q115 0 197 45q61 34 114 100h9l-17 -86
q-27 -143 -86 -211t-180 -68q-169 0 -178 130h-307q-9 -155 106 -248q123 -99 363 -99zM877 616l-19 -102q-21 -116 -88.5 -190t-167.5 -74q-89 0 -134.5 51t-45.5 145q0 191 67 316q76 141 216 141q104 0 149.5 -76t22.5 -211z" />
    <glyph glyph-name="Hcircumflex" unicode="&#x124;" 
d="M737 1966l-256 -272h238l145 102h2l111 -102h233l-166 272h-307zM872 651l-114 -651h336l276 1567h-336l-114 -654h-406l115 654h-336l-277 -1567h336l115 651h405z" />
    <glyph glyph-name="hcircumflex" unicode="&#x125;" 
d="M745 1966l-256 -272h238l145 102h2l111 -102h234l-166 272h-308zM1067 0l119 672q77 442 -299 442q-223 0 -342 -182h-6l120 682h-325l-285 -1614h326l92 528q31 179 102 269t166 90q79 0 112 -55t13 -164l-119 -668h326z" />
    <glyph glyph-name="Hbar" unicode="&#x126;" 
d="M872 651l-114 -651h336l200 1143h115l35 192h-115l41 232h-336l-41 -232h-405l41 232h-336l-41 -232h-119l-35 -192h119l-201 -1143h336l115 651h405zM553 1143h405l-38 -230h-406z" />
    <glyph glyph-name="hbar" unicode="&#x127;" 
d="M1067 0l119 672q77 442 -299 442q-223 0 -342 -182h-6l55 309h313l31 176h-313l34 197h-325l-35 -197h-152l-30 -176h151l-219 -1241h326l92 528q31 179 102 269t166 90q79 0 112 -55t13 -164l-119 -668h326z" />
    <glyph glyph-name="Itilde" unicode="&#x128;" 
d="M451 1673h186q5 38 29 63t61 25q39 0 131 -39q96 -41 158 -41q128 0 201 93q66 81 79 225h-186q-5 -40 -29 -65t-61 -25q-9 0 -17.5 1t-18.5 4t-17.5 5t-19.5 7t-18 7t-20.5 8.5t-19.5 8.5q-96 39 -158 39q-126 0 -199 -93q-69 -87 -81 -223zM1266 1313l45 254h-963
l-45 -254h313l-186 -1059h-313l-45 -254h962l45 254h-313l186 1059h314z" />
    <glyph glyph-name="itilde" unicode="&#x129;" 
d="M356 1247h197q5 48 27 75.5t57 27.5t139 -47q102 -50 166 -50q128 0 199 101q59 88 69 241h-198q-8 -102 -84 -102q-6 0 -12 1t-11.5 1.5t-13 3t-12.5 4t-13.5 5t-13 5t-14.5 6.5t-14 6.5t-16 7t-15 7.5q-100 47 -168 47q-131 0 -197 -98q-62 -88 -72 -242zM1155 250
h-383l150 848h-656l-45 -248h332l-104 -600h-371l-45 -250h1077z" />
    <glyph glyph-name="Imacron" unicode="&#x12a;" 
d="M1206 1712l41 223h-700l-41 -223h700zM1266 1313l45 254h-963l-45 -254h313l-186 -1059h-313l-45 -254h962l45 254h-313l186 1059h314z" />
    <glyph glyph-name="imacron" unicode="&#x12b;" 
d="M1114 1303l39 223h-700l-39 -223h700zM1155 250h-383l150 848h-656l-45 -248h332l-104 -600h-371l-45 -250h1077z" />
    <glyph glyph-name="Ibreve" unicode="&#x12c;" 
d="M768 1991h-221q-23 -149 71 -240q85 -82 234 -82q151 0 252 82q112 90 123 240h-215q-17 -59 -54 -84t-96 -25q-46 0 -72 25.5t-22 83.5zM1266 1313l45 254h-963l-45 -254h313l-186 -1059h-313l-45 -254h962l45 254h-313l186 1059h314z" />
    <glyph glyph-name="ibreve" unicode="&#x12d;" 
d="M678 1614h-215q-33 -171 67 -271q87 -90 230 -90q157 0 258 82q113 92 127 279h-207q-26 -148 -152 -148q-60 0 -87.5 38t-20.5 110zM1155 250h-383l150 848h-656l-45 -248h332l-104 -600h-371l-45 -250h1077z" />
    <glyph glyph-name="Iogonek" unicode="&#x12e;" 
d="M952 1313l-186 -1059h313l-45 -254h-88q-77 -38 -102 -66q-25 -31 -25 -65q0 -72 94 -72l-32 -182h-60q-133 0 -198.5 46.5t-65.5 123.5q0 89 74 149q55 42 135 66h-694l45 254h313l186 1059h-313l45 254h963l-45 -254h-314z" />
    <glyph glyph-name="iogonek" unicode="&#x12f;" 
d="M948 1235h-344l60 332h344zM1155 250l-45 -250h-82q-77 -38 -102 -66q-25 -31 -25 -65q0 -72 94 -72l-32 -182h-60q-133 0 -198.5 46.5t-65.5 123.5q0 89 74 149q55 42 135 66h-815l45 250h371l104 600h-332l45 248h656l-150 -848h383z" />
    <glyph glyph-name="Idotaccent" unicode="&#x130;" 
d="M1022 1679l57 328h-344l-57 -328h344zM1266 1313l45 254h-963l-45 -254h313l-186 -1059h-313l-45 -254h962l45 254h-313l186 1059h314z" />
    <glyph glyph-name="dotlessi" unicode="&#x131;" 
d="M1155 250h-383l150 848h-656l-45 -248h332l-104 -600h-371l-45 -250h1077z" />
    <glyph glyph-name="IJ" unicode="&#x132;" horiz-adv-x="2621" 
d="M1266 1313l45 254h-963l-45 -254h313l-186 -1059h-313l-45 -254h962l45 254h-313l186 1059h314zM1745 -20q549 0 637 501l192 1086h-809l-45 -254h478l-142 -805q-22 -138 -112 -201q-75 -53 -199 -53q-182 0 -301 22l-45 -256q178 -40 346 -40z" />
    <glyph glyph-name="ij" unicode="&#x133;" horiz-adv-x="2621" 
d="M948 1235l60 332h-344l-60 -332h344zM2480 1567h-344l-59 -332h344zM1155 250h-383l150 848h-656l-45 -248h332l-104 -600h-371l-45 -250h1077zM1716 -406q232 0 346 111q100 98 140 305l192 1088h-708l-46 -248h383l-147 -842q-16 -89 -61.5 -126.5t-118.5 -37.5
q-106 0 -228 27l-41 -231q109 -46 289 -46z" />
    <glyph glyph-name="Jcircumflex" unicode="&#x134;" 
d="M776 1966l-256 -272h238l145 102h2l111 -102h233l-166 272h-307zM434 -20q548 0 637 501l193 1086h-809l-45 -254h477l-142 -805q-22 -138 -112 -201q-75 -53 -199 -53q-182 0 -301 22l-45 -256q178 -40 346 -40z" />
    <glyph glyph-name="jcircumflex" unicode="&#x135;" 
d="M793 1614l-289 -367h239l150 166h6l96 -166h238l-160 367h-280zM158 -129l-41 -231q109 -46 289 -46q232 0 346 111q99 97 139 305l192 1088h-708l-45 -248h383l-148 -842q-16 -89 -61.5 -126.5t-118.5 -37.5q-105 0 -227 27z" />
    <glyph glyph-name="Kcommaaccent" unicode="&#x136;" 
d="M590 629l264 -629h360l-378 850l602 717h-357l-581 -695l123 695h-330l-277 -1567h330l76 432zM516 -424l244 320h-354l-105 -320h215z" />
    <glyph glyph-name="kcommaaccent" unicode="&#x137;" 
d="M578 436l229 -436h358l-354 625l504 473h-381l-447 -434l168 950h-319l-285 -1614h320l49 279zM502 -424l243 320h-354l-104 -320h215z" />
    <glyph glyph-name="kgreenlandic" unicode="&#x138;" 
d="M578 436l229 -436h358l-354 625l504 473h-381l-447 -434l76 434h-319l-193 -1098h320l49 279z" />
    <glyph glyph-name="Lacute" unicode="&#x139;" 
d="M698 1694l263 272h-396l-135 -272h268zM1110 0l47 272h-676l230 1295h-336l-277 -1567h1012z" />
    <glyph glyph-name="lacute" unicode="&#x13a;" 
d="M991 1694l262 272h-395l-135 -272h268zM1151 250h-379l240 1364h-656l-43 -248h332l-196 -1116h-371l-45 -250h1073z" />
    <glyph glyph-name="Lcommaaccent" unicode="&#x13b;" 
d="M1110 0l47 272h-676l230 1295h-336l-277 -1567h1012zM549 -424l244 320h-355l-104 -320h215z" />
    <glyph glyph-name="lcommaaccent" unicode="&#x13c;" 
d="M1151 250h-379l240 1364h-656l-43 -248h332l-196 -1116h-371l-45 -250h1073zM492 -424l243 320h-354l-105 -320h216z" />
    <glyph glyph-name="Lcaron" unicode="&#x13d;" 
d="M1014 1198l231 416h-289l-112 -416h170zM1110 0l47 272h-676l230 1295h-336l-277 -1567h1012z" />
    <glyph glyph-name="lcaron" unicode="&#x13e;" 
d="M1151 250h-379l240 1364h-656l-43 -248h332l-196 -1116h-371l-45 -250h1073zM1268 1198l231 416h-289l-112 -416h170z" />
    <glyph glyph-name="Ldot" unicode="&#x13f;" 
d="M1110 0l47 272h-676l230 1295h-336l-277 -1567h1012zM1208 614l66 363h-363l-65 -363h362z" />
    <glyph glyph-name="ldot" unicode="&#x140;" 
d="M1151 250h-379l240 1364h-656l-43 -248h332l-196 -1116h-371l-45 -250h1073zM1499 586l62 348h-347l-61 -348h346z" />
    <glyph glyph-name="Lslash" unicode="&#x141;" 
d="M195 553l-97 -553h1012l47 272h-676l72 410l475 174l41 231l-475 -174l117 654h-336l-139 -783l-185 -67l-41 -232z" />
    <glyph glyph-name="lslash" unicode="&#x142;" 
d="M1151 250h-379l90 512l312 121l40 241l-309 -120l107 610h-656l-43 -248h332l-88 -496l-319 -122l-41 -240l317 121l-65 -379h-371l-45 -250h1073z" />
    <glyph glyph-name="Nacute" unicode="&#x143;" 
d="M997 1694l263 272h-396l-135 -272h268zM301 0l191 1079h26q0 -53 14 -176q3 -48 19 -115l170 -788h371l276 1567h-287l-190 -1080h-19q-5 61 -8 88q-10 88 -33 211l-169 781h-371l-277 -1567h287z" />
    <glyph glyph-name="nacute" unicode="&#x144;" 
d="M887 1247l315 367h-395l-174 -367h254zM1067 0l119 672q77 442 -299 442q-240 0 -361 -211h-4l33 195h-311l-195 -1098h326l92 528q31 179 102 269t166 90q79 0 112 -55t13 -164l-119 -668h326z" />
    <glyph glyph-name="Ncommaaccent" unicode="&#x145;" 
d="M301 0l191 1079h26q0 -53 14 -176q3 -48 19 -115l170 -788h371l276 1567h-287l-190 -1080h-19q-5 61 -8 88q-10 88 -33 211l-169 781h-371l-277 -1567h287zM502 -424l243 320h-354l-104 -320h215z" />
    <glyph glyph-name="ncommaaccent" unicode="&#x146;" 
d="M1067 0l119 672q77 442 -299 442q-240 0 -361 -211h-4l33 195h-311l-195 -1098h326l92 528q31 179 102 269t166 90q79 0 112 -55t13 -164l-119 -668h326zM475 -424l244 320h-354l-105 -320h215z" />
    <glyph glyph-name="Ncaron" unicode="&#x147;" 
d="M987 1694l256 272h-237l-146 -102h-2l-110 102h-234l166 -272h307zM301 0l191 1079h26q0 -53 14 -176q3 -48 19 -115l170 -788h371l276 1567h-287l-190 -1080h-19q-5 61 -8 88q-10 88 -33 211l-169 781h-371l-277 -1567h287z" />
    <glyph glyph-name="ncaron" unicode="&#x148;" 
d="M887 1247l289 367h-240l-150 -166h-6l-96 166h-238l160 -367h281zM1067 0l119 672q77 442 -299 442q-240 0 -361 -211h-4l33 195h-311l-195 -1098h326l92 528q31 179 102 269t166 90q79 0 112 -55t13 -164l-119 -668h326z" />
    <glyph glyph-name="napostrophe" unicode="&#x149;" 
d="M506 1614h-285l-155 -473h182zM1108 0l119 672q77 442 -299 442q-240 0 -361 -211h-4l33 195h-311l-195 -1098h326l92 528q31 179 102 269t166 90q79 0 112 -55t13 -164l-119 -668h326z" />
    <glyph glyph-name="Eng" unicode="&#x14a;" 
d="M422 -385h129q280 0 403 117q60 57 95.5 146.5t60.5 225.5l258 1463h-287l-190 -1080h-19q-2 26 -10 99q-11 103 -31 198l-169 783h-371l-277 -1567h287l191 1079h26q0 -55 14 -178q3 -50 19 -113l170 -788h88q-22 -73 -72 -100q-57 -31 -166 -31h-104z" />
    <glyph glyph-name="eng" unicode="&#x14b;" 
d="M606 -410q182 0 293 82q122 90 166 322l121 678q80 442 -299 442q-240 0 -361 -211h-4l33 195h-311l-195 -1098h326l92 528q31 179 102 269t166 90q79 0 112 -55t13 -164l-125 -703q-13 -75 -51 -105t-100 -30q-54 0 -72 6l-45 -229q87 -17 139 -17z" />
    <glyph glyph-name="Omacron" unicode="&#x14c;" 
d="M1176 1712l41 223h-701l-41 -223h701zM96 502q0 -258 131 -396.5t373 -138.5q136 0 234 40.5t176 121.5q140 143 213 434q63 249 63 492q0 257 -129.5 395.5t-370.5 138.5q-137 0 -235.5 -40t-175.5 -119q-135 -140 -213 -435q-66 -252 -66 -493zM608 229q-86 0 -128 55
t-42 171q0 162 51 403q55 274 113 367q66 102 172 102q86 0 128 -54.5t42 -170.5q0 -84 -22 -238q-29 -179 -62 -307q-42 -166 -78 -223q-34 -53 -74.5 -79t-99.5 -26z" />
    <glyph glyph-name="omacron" unicode="&#x14d;" 
d="M1112 1303l39 223h-700l-39 -223h700zM616 -29q289 0 451 193q152 181 152 463q0 226 -142 362q-140 131 -383 131q-288 0 -448 -190q-75 -89 -114.5 -209.5t-39.5 -257.5q0 -228 144 -359q142 -133 380 -133zM616 197q-93 0 -141.5 58t-48.5 165q0 68 8 123
q15 127 66 217q71 135 194 135q93 0 142 -58t49 -165q0 -66 -8 -121q-18 -125 -66 -219q-32 -59 -77 -97t-118 -38z" />
    <glyph glyph-name="Obreve" unicode="&#x14e;" 
d="M756 1991h-221q-23 -149 71 -240q85 -82 234 -82q151 0 252 82q111 89 122 240h-215q-17 -59 -53.5 -84t-95.5 -25q-46 0 -72 25.5t-22 83.5zM96 502q0 -258 131 -396.5t373 -138.5q136 0 234 40.5t176 121.5q140 143 213 434q63 249 63 492q0 257 -129.5 395.5
t-370.5 138.5q-137 0 -235.5 -40t-175.5 -119q-135 -140 -213 -435q-66 -252 -66 -493zM608 229q-86 0 -128 55t-42 171q0 162 51 403q55 274 113 367q66 102 172 102q86 0 128 -54.5t42 -170.5q0 -84 -22 -238q-29 -179 -62 -307q-42 -166 -78 -223q-34 -53 -74.5 -79
t-99.5 -26z" />
    <glyph glyph-name="obreve" unicode="&#x14f;" 
d="M674 1614h-215q-33 -171 67 -271q87 -90 230 -90q157 0 258 82q113 92 127 279h-207q-26 -148 -152 -148q-60 0 -87.5 38t-20.5 110zM616 -29q289 0 451 193q152 181 152 463q0 226 -142 362q-140 131 -383 131q-288 0 -448 -190q-75 -89 -114.5 -209.5t-39.5 -257.5
q0 -228 144 -359q142 -133 380 -133zM616 197q-93 0 -141.5 58t-48.5 165q0 68 8 123q15 127 66 217q71 135 194 135q93 0 142 -58t49 -165q0 -66 -8 -121q-18 -125 -66 -219q-32 -59 -77 -97t-118 -38z" />
    <glyph glyph-name="Ohungarumlaut" unicode="&#x150;" 
d="M731 1694l168 293h-291l-100 -293h223zM1090 1694l194 293h-293l-127 -293h226zM96 502q0 -258 131 -396.5t373 -138.5q136 0 234 40.5t176 121.5q140 143 213 434q63 249 63 492q0 257 -129.5 395.5t-370.5 138.5q-137 0 -235.5 -40t-175.5 -119q-135 -140 -213 -435
q-66 -252 -66 -493zM608 229q-86 0 -128 55t-42 171q0 162 51 403q55 274 113 367q66 102 172 102q86 0 128 -54.5t42 -170.5q0 -84 -22 -238q-29 -179 -62 -307q-42 -166 -78 -223q-34 -53 -74.5 -79t-99.5 -26z" />
    <glyph glyph-name="ohungarumlaut" unicode="&#x151;" 
d="M682 1247l236 367h-300l-165 -367h229zM1042 1247l263 367h-297l-193 -367h227zM616 -29q289 0 451 193q152 181 152 463q0 226 -142 362q-140 131 -383 131q-288 0 -448 -190q-75 -89 -114.5 -209.5t-39.5 -257.5q0 -228 144 -359q142 -133 380 -133zM616 197
q-93 0 -141.5 58t-48.5 165q0 68 8 123q15 127 66 217q71 135 194 135q93 0 142 -58t49 -165q0 -66 -8 -121q-18 -125 -66 -219q-32 -59 -77 -97t-118 -38z" />
    <glyph glyph-name="OE" unicode="&#x152;" 
d="M1239 254h-373l72 403h317l43 250h-317l72 404h354l45 256h-684q-298 0 -479 -228q-135 -169 -193 -454q-35 -172 -35 -342q0 -276 134 -416q121 -127 335 -127h664zM766 1335l-195 -1106q-186 0 -186 236q0 93 25 272q29 233 100 396q88 202 231 202h25z" />
    <glyph glyph-name="oe" unicode="&#x153;" 
d="M578 125h6q51 -148 250 -148q157 0 253.5 89t129.5 253h-259q-30 -129 -108 -129q-61 0 -80 56q-20 59 6 227h471l33 180q38 197 -27 330q-69 135 -243 135q-175 0 -262 -145h-7q-32 78 -93 114.5t-159 36.5q-189 0 -305 -174q-91 -136 -127 -360q-26 -160 -26 -293
q0 -164 76 -243t206 -79q90 0 153 37.5t112 112.5zM1028 659h-221q24 131 59 197q34 64 95 64q60 0 75 -64q14 -60 -8 -197zM365 188q-42 0 -58 27t-16 94q0 74 20 203q25 158 68 266q52 131 121 131q42 0 57.5 -28t15.5 -93q0 -72 -20 -198q-31 -172 -68 -266
q-58 -136 -120 -136z" />
    <glyph glyph-name="Racute" unicode="&#x154;" 
d="M934 1694l262 272h-395l-135 -272h268zM1194 0l-244 666v4q348 101 348 467q0 206 -132 318t-382 112h-485l-276 -1567h335l105 590h178l209 -590h344zM590 1309h166q99 0 155 -53t56 -146q0 -124 -72 -188t-193 -64h-192z" />
    <glyph glyph-name="racute" unicode="&#x155;" 
d="M932 1247l315 367h-395l-174 -367h254zM991 844q115 0 213 -31l47 268q-64 39 -188 39q-145 0 -253 -63t-192 -207h-4l45 248h-313l-194 -1098h325l68 391q80 453 446 453z" />
    <glyph glyph-name="Rcommaaccent" unicode="&#x156;" 
d="M1194 0l-244 666v4q348 101 348 467q0 206 -132 318t-382 112h-485l-276 -1567h335l105 590h178l209 -590h344zM590 1309h166q99 0 155 -53t56 -146q0 -124 -72 -188t-193 -64h-192zM524 -424l244 320h-354l-105 -320h215z" />
    <glyph glyph-name="rcommaaccent" unicode="&#x157;" 
d="M991 844q115 0 213 -31l47 268q-64 39 -188 39q-145 0 -253 -63t-192 -207h-4l45 248h-313l-194 -1098h325l68 391q80 453 446 453zM225 -424l244 320h-354l-105 -320h215z" />
    <glyph glyph-name="Rcaron" unicode="&#x158;" 
d="M915 1694l256 272h-237l-146 -102h-2l-110 102h-234l166 -272h307zM1194 0l-244 666v4q348 101 348 467q0 206 -132 318t-382 112h-485l-276 -1567h335l105 590h178l209 -590h344zM590 1309h166q99 0 155 -53t56 -146q0 -124 -72 -188t-193 -64h-192z" />
    <glyph glyph-name="rcaron" unicode="&#x159;" 
d="M956 1247l289 367h-239l-150 -166h-6l-96 166h-238l160 -367h280zM991 844q115 0 213 -31l47 268q-64 39 -188 39q-145 0 -253 -63t-192 -207h-4l45 248h-313l-194 -1098h325l68 391q80 453 446 453z" />
    <glyph glyph-name="Sacute" unicode="&#x15a;" 
d="M922 1694l262 272h-396l-135 -272h269zM350 449h-319q-13 -205 123 -338q144 -144 436 -144q270 0 436 129q178 138 178 387q0 153 -74 252q-71 95 -262 170l-157 62q-91 34 -132.5 76t-41.5 114q0 78 55 127t156 49q119 0 180 -71q49 -60 45 -142h319q3 211 -137 342
q-147 131 -393 131q-273 0 -420 -147q-133 -133 -133 -332q0 -164 88 -266q73 -91 244 -160l184 -74q78 -32 110.5 -75.5t32.5 -110.5q0 -89 -69.5 -145t-186.5 -56q-138 0 -204 66q-58 55 -58 156z" />
    <glyph glyph-name="sacute" unicode="&#x15b;" 
d="M844 1247l315 367h-395l-174 -367h254zM885 774h301q10 134 -107 236q-131 114 -360 114q-247 0 -375 -112q-119 -102 -119 -260q0 -130 82 -209q72 -75 197 -101l207 -45q67 -14 91.5 -33.5t24.5 -60.5q0 -110 -192 -110q-113 0 -165 38t-50 107h-305q-10 -157 116 -256
q136 -113 383 -113q257 0 398 115q125 102 125 264q0 133 -72 205.5t-229 105.5l-170 35q-79 17 -108.5 39.5t-29.5 65.5q0 50 46 75t126 25q92 0 137.5 -37.5t47.5 -87.5z" />
    <glyph glyph-name="Scircumflex" unicode="&#x15c;" 
d="M690 1966l-256 -272h238l145 102h2l111 -102h233l-166 272h-307zM350 449h-319q-13 -205 123 -338q144 -144 436 -144q270 0 436 129q178 138 178 387q0 153 -74 252q-71 95 -262 170l-157 62q-91 34 -132.5 76t-41.5 114q0 78 55 127t156 49q119 0 180 -71
q49 -60 45 -142h319q3 211 -137 342q-147 131 -393 131q-273 0 -420 -147q-133 -133 -133 -332q0 -164 88 -266q73 -91 244 -160l184 -74q78 -32 110.5 -75.5t32.5 -110.5q0 -89 -69.5 -145t-186.5 -56q-138 0 -204 66q-58 55 -58 156z" />
    <glyph glyph-name="scircumflex" unicode="&#x15d;" 
d="M702 1614l-288 -367h239l150 166h6l96 -166h238l-160 367h-281zM885 774h301q10 134 -107 236q-131 114 -360 114q-247 0 -375 -112q-119 -102 -119 -260q0 -130 82 -209q72 -75 197 -101l207 -45q67 -14 91.5 -33.5t24.5 -60.5q0 -110 -192 -110q-113 0 -165 38t-50 107
h-305q-10 -157 116 -256q136 -113 383 -113q257 0 398 115q125 102 125 264q0 133 -72 205.5t-229 105.5l-170 35q-79 17 -108.5 39.5t-29.5 65.5q0 50 46 75t126 25q92 0 137.5 -37.5t47.5 -87.5z" />
    <glyph glyph-name="Scedilla" unicode="&#x15e;" 
d="M1292 1120h-319q4 82 -45 142q-61 71 -180 71q-101 0 -156 -49t-55 -127q0 -72 41.5 -114t132.5 -76l157 -62q191 -75 262 -170q74 -99 74 -252q0 -249 -178 -387q-166 -129 -436 -129h-21l-28 -45h39q89 0 141.5 -41.5t52.5 -120.5q0 -86 -64.5 -141t-193.5 -55
q-122 0 -180 61q-43 43 -39 101h176q2 -16 16 -28.5t41 -12.5q35 0 54.5 18.5t19.5 48.5q0 60 -59 60q-41 0 -62 -27h-164l121 192q-181 29 -286 134q-136 133 -123 338h319q0 -101 58 -156q66 -66 204 -66q117 0 186.5 56t69.5 145q0 67 -32.5 110.5t-110.5 75.5l-184 74
q-171 69 -244 160q-88 102 -88 266q0 199 133 332q147 147 420 147q246 0 393 -131q140 -131 137 -342z" />
    <glyph glyph-name="scedilla" unicode="&#x15f;" 
d="M700 899q-80 0 -126 -25t-46 -75q0 -43 29.5 -65.5t108.5 -39.5l170 -35q157 -33 229 -105.5t72 -205.5q0 -162 -125 -264q-141 -115 -398 -115h-14l-29 -47h39q89 0 142 -41.5t53 -120.5q0 -86 -64.5 -141t-193.5 -55q-122 0 -180 61q-43 43 -39 101h176q2 -16 16 -28.5
t41 -12.5q35 0 54.5 18.5t19.5 48.5q0 60 -60 60q-40 0 -61 -27h-164l123 197q-149 23 -242 100q-126 99 -116 256h305q-2 -69 50 -107t165 -38q192 0 192 110q0 41 -24.5 60.5t-91.5 33.5l-207 45q-125 26 -197 101q-82 79 -82 209q0 158 119 260q128 112 375 112
q229 0 360 -114q117 -102 107 -236h-301q-2 50 -47.5 87.5t-137.5 37.5z" />
    <glyph glyph-name="Scaron" unicode="&#x160;" 
d="M920 1694l256 272h-238l-145 -102h-2l-111 102h-234l166 -272h308zM350 449h-319q-13 -205 123 -338q144 -144 436 -144q270 0 436 129q178 138 178 387q0 153 -74 252q-71 95 -262 170l-157 62q-91 34 -132.5 76t-41.5 114q0 78 55 127t156 49q119 0 180 -71
q49 -60 45 -142h319q3 211 -137 342q-147 131 -393 131q-273 0 -420 -147q-133 -133 -133 -332q0 -164 88 -266q73 -91 244 -160l184 -74q78 -32 110.5 -75.5t32.5 -110.5q0 -89 -69.5 -145t-186.5 -56q-138 0 -204 66q-58 55 -58 156z" />
    <glyph glyph-name="scaron" unicode="&#x161;" 
d="M881 1247l288 367h-239l-150 -166h-6l-96 166h-238l160 -367h281zM885 774h301q10 134 -107 236q-131 114 -360 114q-247 0 -375 -112q-119 -102 -119 -260q0 -130 82 -209q72 -75 197 -101l207 -45q67 -14 91.5 -33.5t24.5 -60.5q0 -110 -192 -110q-113 0 -165 38
t-50 107h-305q-10 -157 116 -256q136 -113 383 -113q257 0 398 115q125 102 125 264q0 133 -72 205.5t-229 105.5l-170 35q-79 17 -108.5 39.5t-29.5 65.5q0 50 46 75t126 25q92 0 137.5 -37.5t47.5 -87.5z" />
    <glyph glyph-name="Tcaron" unicode="&#x164;" 
d="M987 1694l256 272h-237l-146 -102h-2l-110 102h-234l166 -272h307zM260 1567l-47 -262h401l-229 -1305h336l229 1305h402l47 262h-1139z" />
    <glyph glyph-name="tcaron" unicode="&#x165;" 
d="M1161 1198l232 416h-289l-113 -416h170zM481 848l-69 -406q-39 -221 57 -341.5t326 -120.5q152 0 256 30l45 248q-104 -22 -199 -22q-104 0 -147 44.5t-21 155.5l74 412h391l45 250h-395l59 342h-293l-35 -201q-17 -91 -53.5 -122.5t-122.5 -31.5h-217l-41 -237h340z" />
    <glyph glyph-name="Tbar" unicode="&#x166;" 
d="M524 795l-139 -795h336l139 795h277l39 221h-277l51 289h402l47 262h-1139l-47 -262h401l-51 -289h-276l-39 -221h276z" />
    <glyph glyph-name="tbar" unicode="&#x167;" 
d="M414 455l-2 -13q-39 -221 57 -341.5t326 -120.5q152 0 256 30l45 248q-104 -22 -199 -22q-104 0 -147 44.5t-21 155.5l2 19h395l41 229h-395l31 164h391l45 250h-395l59 342h-293l-35 -201q-17 -91 -53.5 -122.5t-122.5 -31.5h-217l-41 -237h340l-28 -164h-338l-41 -229
h340z" />
    <glyph glyph-name="Utilde" unicode="&#x168;" 
d="M463 1673h186q5 38 29 63t61 25q39 0 131 -39q96 -41 158 -41q128 0 201 93q67 82 80 225h-187q-5 -40 -29 -65t-61 -25q-9 0 -17.5 1t-18.5 4t-17.5 5t-19.5 7t-18 7t-20.5 8.5t-19.5 8.5q-96 39 -158 39q-125 0 -198 -93q-70 -88 -82 -223zM291 1567l-174 -979
q-58 -332 84 -486q124 -135 391 -135q263 0 403 131q134 125 181 391l190 1078h-319l-197 -1104q-19 -106 -72.5 -163.5t-161.5 -57.5q-115 0 -159.5 66.5t-18.5 215.5l185 1043h-332z" />
    <glyph glyph-name="utilde" unicode="&#x169;" 
d="M375 1247h196q5 48 27 75.5t57 27.5q36 0 140 -47q102 -50 166 -50q127 0 198 101q61 90 70 241h-199q-8 -102 -84 -102q-6 0 -12 1t-11.5 1.5t-13 3t-12.5 4t-13.5 5t-13 5t-14.5 6.5t-14 6.5t-16 7t-15 7.5q-100 47 -168 47q-131 0 -197 -98q-61 -86 -71 -242z
M229 1098l-112 -635q-84 -483 327 -483q114 0 189.5 49t130.5 137h10l-29 -166h308l194 1098h-325l-97 -547q-29 -165 -99 -250.5t-171 -85.5q-158 0 -121 193l121 690h-326z" />
    <glyph glyph-name="Umacron" unicode="&#x16a;" 
d="M1198 1712l41 223h-700l-41 -223h700zM291 1567l-174 -979q-58 -332 84 -486q124 -135 391 -135q263 0 403 131q134 125 181 391l190 1078h-319l-197 -1104q-19 -106 -72.5 -163.5t-161.5 -57.5q-115 0 -159.5 66.5t-18.5 215.5l185 1043h-332z" />
    <glyph glyph-name="umacron" unicode="&#x16b;" 
d="M1124 1303l39 223h-700l-39 -223h700zM229 1098l-112 -635q-84 -483 327 -483q114 0 189.5 49t130.5 137h10l-29 -166h308l194 1098h-325l-97 -547q-29 -165 -99 -250.5t-171 -85.5q-158 0 -121 193l121 690h-326z" />
    <glyph glyph-name="Ubreve" unicode="&#x16c;" 
d="M780 1991h-221q-23 -148 72 -240q85 -82 233 -82q151 0 252 82q112 90 123 240h-215q-17 -59 -54 -84t-96 -25q-46 0 -72 25.5t-22 83.5zM291 1567l-174 -979q-58 -332 84 -486q124 -135 391 -135q263 0 403 131q134 125 181 391l190 1078h-319l-197 -1104
q-19 -106 -72.5 -163.5t-161.5 -57.5q-115 0 -159.5 66.5t-18.5 215.5l185 1043h-332z" />
    <glyph glyph-name="ubreve" unicode="&#x16d;" 
d="M688 1614h-215q-32 -171 68 -271q87 -90 229 -90q157 0 258 82q113 92 127 279h-207q-26 -148 -151 -148q-60 0 -88 38t-21 110zM229 1098l-112 -635q-84 -483 327 -483q114 0 189.5 49t130.5 137h10l-29 -166h308l194 1098h-325l-97 -547q-29 -165 -99 -250.5
t-171 -85.5q-158 0 -121 193l121 690h-326z" />
    <glyph glyph-name="Uring" unicode="&#x16e;" 
d="M600 1843q0 -104 72 -170q70 -67 174 -67q123 0 205 82q79 79 79 196q0 105 -69 174q-70 70 -178 70q-122 0 -203 -84q-80 -80 -80 -201zM752 1860q0 55 33.5 92t86.5 37q50 0 78.5 -33t28.5 -84q0 -55 -34 -91t-89 -36q-49 0 -76.5 31.5t-27.5 83.5zM291 1567l-174 -979
q-58 -332 84 -486q124 -135 391 -135q263 0 403 131q134 125 181 391l190 1078h-319l-197 -1104q-19 -106 -72.5 -163.5t-161.5 -57.5q-115 0 -159.5 66.5t-18.5 215.5l185 1043h-332z" />
    <glyph glyph-name="uring" unicode="&#x16f;" 
d="M524 1430q0 -104 72 -170q71 -68 174 -68q123 0 205 82q80 80 80 196q0 105 -70 175q-69 69 -178 69q-122 0 -203 -84q-80 -80 -80 -200zM780 1331q-49 0 -76.5 31.5t-27.5 83.5q0 55 34 92t87 37q50 0 78 -33t28 -84q0 -55 -34 -91t-89 -36zM229 1098l-112 -635
q-84 -483 327 -483q114 0 189.5 49t130.5 137h10l-29 -166h308l194 1098h-325l-97 -547q-29 -165 -99 -250.5t-171 -85.5q-158 0 -121 193l121 690h-326z" />
    <glyph glyph-name="Uhungarumlaut" unicode="&#x170;" 
d="M774 1694l168 293h-291l-100 -293h223zM1133 1694l194 293h-293l-127 -293h226zM291 1567l-174 -979q-58 -332 84 -486q124 -135 391 -135q263 0 403 131q134 125 181 391l190 1078h-319l-197 -1104q-19 -106 -72.5 -163.5t-161.5 -57.5q-115 0 -159.5 66.5t-18.5 215.5
l185 1043h-332z" />
    <glyph glyph-name="uhungarumlaut" unicode="&#x171;" 
d="M684 1247l236 367h-299l-166 -367h229zM1044 1247l263 367h-297l-193 -367h227zM229 1098l-112 -635q-84 -483 327 -483q114 0 189.5 49t130.5 137h10l-29 -166h308l194 1098h-325l-97 -547q-29 -165 -99 -250.5t-171 -85.5q-158 0 -121 193l121 690h-326z" />
    <glyph glyph-name="Uogonek" unicode="&#x172;" 
d="M629 -135q0 30 24 63q28 36 107 56q170 40 273 159.5t143 345.5l190 1078h-319l-197 -1104q-19 -106 -72.5 -163.5t-161.5 -57.5q-115 0 -159.5 66.5t-18.5 215.5l185 1043h-332l-174 -979q-55 -302 59 -455q101 -137 322 -160v-8q-73 -29 -102 -73t-29 -105
q0 -88 61 -130t203 -42h59l33 182q-53 0 -73.5 16t-20.5 52z" />
    <glyph glyph-name="uogonek" unicode="&#x173;" 
d="M229 1098l-112 -635q-84 -483 327 -483q114 0 189.5 49t130.5 137h10l-29 -166h125q-10 -2 -30 -10q-55 -20 -103 -56q-73 -59 -73 -149q0 -77 65.5 -123.5t198.5 -46.5h59l33 182q-94 0 -94 72q0 35 24 65q24 27 103 66l194 1098h-325l-97 -547q-29 -165 -99 -250.5
t-171 -85.5q-158 0 -121 193l121 690h-326z" />
    <glyph glyph-name="Wcircumflex" unicode="&#x174;" 
d="M725 1966l-256 -272h238l145 102h2l111 -102h233l-166 272h-307zM563 449l43 118q45 129 64 205h14q-1 -17 -2 -51t-2 -51q-4 -134 -2 -224l14 -446h371l373 1567h-277l-258 -1133h-14l6 101q4 120 2 174l-18 489h-224l-190 -489q-10 -23 -29 -82q-36 -112 -57 -193h-17
l142 1133h-283l-180 -1567h350z" />
    <glyph glyph-name="wcircumflex" unicode="&#x175;" 
d="M678 1614l-289 -367h240l149 166h6l97 -166h237l-160 367h-280zM461 0l182 649q17 57 33 123q5 16 14 55h15q-1 -9 -2.5 -27.5t-2.5 -27.5q-1 -8 -2 -27t-2 -28l-6 -68l-47 -649h365l333 1098h-264l-176 -670q-12 -46 -16 -66l-15 -57q-9 -26 -12 -53h-14q1 13 4 49t4 59
l6 66l49 672h-325l-187 -668q-17 -57 -33 -123q-5 -16 -14 -55h-14l6 53q3 27 6 57l6 66l64 670h-264l-56 -1098h365z" />
    <glyph glyph-name="Ycircumflex" unicode="&#x176;" 
d="M725 1966l-256 -272h238l145 102h2l111 -102h233l-166 272h-307zM719 0l117 664l624 903h-344l-381 -586h-10l-172 586h-346l295 -889l-119 -678h336z" />
    <glyph glyph-name="ycircumflex" unicode="&#x177;" 
d="M659 1614l-288 -367h239l150 166h6l96 -166h238l-160 367h-281zM371 0l-11 -20q-36 -73 -82.5 -104.5t-113.5 -31.5q-64 0 -162 15l-43 -242q113 -23 236 -23q171 0 299 89q95 68 176 213l657 1202h-342l-270 -531q-41 -83 -47 -100q-44 -99 -56 -156h-18q0 20 -4 78
q0 5 -3.5 35t-4.5 49q-1 20 -15 105l-92 520h-332z" />
    <glyph glyph-name="Ydieresis" unicode="&#x178;" 
d="M762 1675l59 332h-344l-59 -332h344zM1253 1675l60 332h-344l-60 -332h344zM719 0l117 664l624 903h-344l-381 -586h-10l-172 586h-346l295 -889l-119 -678h336z" />
    <glyph glyph-name="Zacute" unicode="&#x179;" 
d="M932 1694l262 272h-395l-135 -272h268zM938 1305l-891 -1074l-41 -231h1108l47 264h-715l891 1071l41 232h-1093l-47 -262h700z" />
    <glyph glyph-name="zacute" unicode="&#x17a;" 
d="M844 1247l315 367h-395l-174 -367h254zM766 852l-647 -627l-39 -225h971l43 246h-572l652 624l40 228h-942l-45 -246h539z" />
    <glyph glyph-name="Zdotaccent" unicode="&#x17b;" 
d="M993 1679l58 328h-344l-58 -328h344zM938 1305l-891 -1074l-41 -231h1108l47 264h-715l891 1071l41 232h-1093l-47 -262h700z" />
    <glyph glyph-name="zdotaccent" unicode="&#x17c;" 
d="M928 1235l59 332h-344l-59 -332h344zM766 852l-647 -627l-39 -225h971l43 246h-572l652 624l40 228h-942l-45 -246h539z" />
    <glyph glyph-name="Zcaron" unicode="&#x17d;" 
d="M983 1694l256 272h-238l-145 -102h-2l-111 102h-233l166 -272h307zM938 1305l-891 -1074l-41 -231h1108l47 264h-715l891 1071l41 232h-1093l-47 -262h700z" />
    <glyph glyph-name="zcaron" unicode="&#x17e;" 
d="M877 1247l288 367h-239l-150 -166h-6l-96 166h-238l160 -367h281zM766 852l-647 -627l-39 -225h971l43 246h-572l652 624l40 228h-942l-45 -246h539z" />
    <glyph glyph-name="florin" unicode="&#x192;" 
d="M1227 696l43 248h-387l67 219q35 110 88 157.5t140 47.5q96 0 163 -20l45 249q-132 27 -245 27q-179 0 -289 -82q-137 -99 -205 -325l-82 -273h-393l-43 -248h360l-329 -1083h313l334 1083h420z" />
    <glyph glyph-name="Aringacute" unicode="&#x1fa;" 
d="M1018 2173l262 272h-395l-135 -272h268zM602 1843q0 -104 72 -170q70 -67 174 -67q123 0 205 82q80 80 80 196q0 104 -70 174t-178 70q-122 0 -203 -84q-80 -80 -80 -201zM754 1860q0 55 33.5 92t86.5 37q50 0 78.5 -33t28.5 -84q0 -55 -34 -91t-89 -36q-49 0 -76.5 31.5
t-27.5 83.5zM1149 0l-74 1567h-477l-627 -1567h326l137 346h371l12 -346h332zM801 1315l-6 -103q-7 -80 -4 -280l6 -338h-271l123 340q34 91 49 141q36 104 64 205q8 27 8 35h31z" />
    <glyph glyph-name="aringacute" unicode="&#x1fb;" 
d="M905 1755l262 273h-395l-135 -273h268zM481 1411q0 -104 72 -170q70 -67 174 -67q124 0 205 81q80 80 80 197q0 104 -70 174t-178 70q-122 0 -203 -84q-80 -80 -80 -201zM737 1313q-49 0 -76.5 31t-27.5 83q0 55 34 92t87 37q50 0 78 -32.5t28 -83.5q0 -55 -34 -91
t-89 -36zM797 135v-4q0 -60 45.5 -95.5t120.5 -35.5h170l43 242h-56q-61 0 -49 65l55 314q45 253 -79 380q-118 121 -363 121q-207 0 -340 -94q-136 -97 -151 -264h315q4 63 49 99t119 36q87 0 127.5 -50.5t23.5 -137.5l-6 -33q-239 -11 -270 -14q-28 -3 -168 -25
q-133 -27 -213 -115t-80 -221q0 -163 107 -246q97 -75 254 -75q232 0 340 153h6zM793 479l-2 -12q-24 -134 -82.5 -202t-161.5 -68q-63 0 -100 32t-37 86q0 56 29.5 92t84.5 48q64 15 269 24z" />
    <glyph glyph-name="AEacute" unicode="&#x1fc;" 
d="M1075 1694l262 272h-395l-135 -272h268zM588 375l-66 -375h684l45 254h-381l72 403h307l43 250h-307l72 404h358l45 256h-958l-592 -1567h319l136 375h223zM453 621l245 690h56l-123 -690h-178z" />
    <glyph glyph-name="aeacute" unicode="&#x1fd;" 
d="M874 1247l316 367h-395l-174 -367h253zM1194 319h-258q-17 -68 -42.5 -98.5t-66.5 -30.5q-61 0 -77 58q-19 65 6 233h471l33 187q35 189 -29 317q-70 133 -244 133q-171 0 -252 -127h-6q-62 131 -244 131q-179 0 -284 -110q-47 -49 -72 -112.5t-25 -127.5h244
q10 79 37 110t82 31t75.5 -40.5t8.5 -110.5l-19 -105q-146 0 -215 -10q-78 -14 -153 -55q-78 -45 -120 -117t-42 -190q0 -140 77.5 -222.5t203.5 -82.5q103 0 166 41t108 120h8q14 -79 76.5 -121.5t169.5 -42.5q157 0 253.5 89t129.5 253zM1006 657h-220q27 138 58 203
q31 60 94 60q61 0 76 -60q14 -57 -8 -203zM352 205q-43 0 -68.5 23.5t-25.5 72.5q0 95 57 139q38 28 74 34.5t113 6.5l-21 -123q-11 -69 -43 -111t-86 -42z" />
    <glyph glyph-name="Oslashacute" unicode="&#x1fe;" 
d="M961 1694l262 272h-396l-135 -272h269zM1010 129q140 143 213 434q63 249 63 492q0 165 -63 288l217 281h-197l-119 -154q-128 119 -338 119q-137 0 -235.5 -40t-175.5 -119q-135 -140 -213 -435q-66 -252 -66 -493q0 -158 60 -281l-211 -272h196l111 143
q138 -125 348 -125q136 0 234 40.5t176 121.5zM774 1331q128 0 164 -100l-502 -647q25 205 68 370q51 197 98 275q66 102 172 102zM608 225q-131 0 -166 111l504 649q-26 -211 -67 -373q-55 -216 -97 -282q-34 -53 -74.5 -79t-99.5 -26z" />
    <glyph glyph-name="oslashacute" unicode="&#x1ff;" 
d="M862 1247l316 367h-396l-174 -367h254zM1219 627q0 191 -111 317l199 227h-207l-111 -127q-128 76 -295 76q-290 0 -450 -190q-152 -181 -152 -465q0 -191 113 -320l-195 -223h205l109 125q128 -76 292 -76q289 0 451 193q152 181 152 463zM545 840q59 59 155 59
q74 0 127 -41l-413 -473q-2 6 -2 16v19q0 123 39 242q38 122 94 178zM612 193q-73 0 -125 40l410 472q2 -6 2 -31q0 -121 -37 -240q-41 -125 -96 -180q-61 -61 -154 -61z" />
    <glyph glyph-name="Scommaaccent" unicode="&#x218;" 
d="M350 449h-319q-13 -205 123 -338q144 -144 436 -144q270 0 436 129q178 138 178 387q0 153 -74 252q-71 95 -262 170l-157 62q-91 34 -132.5 76t-41.5 114q0 78 55 127t156 49q119 0 180 -71q49 -60 45 -142h319q3 211 -137 342q-147 131 -393 131q-273 0 -420 -147
q-133 -133 -133 -332q0 -164 88 -266q73 -91 244 -160l184 -74q78 -32 110.5 -75.5t32.5 -110.5q0 -89 -69.5 -145t-186.5 -56q-138 0 -204 66q-58 55 -58 156zM498 -426l243 320h-354l-104 -320h215z" />
    <glyph glyph-name="scommaaccent" unicode="&#x219;" 
d="M885 774h301q10 134 -107 236q-131 114 -360 114q-247 0 -375 -112q-119 -102 -119 -260q0 -130 82 -209q72 -75 197 -101l207 -45q67 -14 91.5 -33.5t24.5 -60.5q0 -110 -192 -110q-113 0 -165 38t-50 107h-305q-10 -157 116 -256q136 -113 383 -113q257 0 398 115
q125 102 125 264q0 133 -72 205.5t-229 105.5l-170 35q-79 17 -108.5 39.5t-29.5 65.5q0 50 46 75t126 25q92 0 137.5 -37.5t47.5 -87.5zM518 -424l244 320h-354l-105 -320h215z" />
    <glyph glyph-name="uni021A" unicode="&#x21a;" 
d="M260 1567l-47 -262h401l-229 -1305h336l229 1305h402l47 262h-1139zM467 -424l244 320h-355l-104 -320h215z" />
    <glyph glyph-name="uni021B" unicode="&#x21b;" 
d="M481 848l-69 -406q-39 -221 57 -341.5t326 -120.5q152 0 256 30l45 248q-104 -22 -199 -22q-104 0 -147 44.5t-21 155.5l74 412h391l45 250h-395l59 342h-293l-35 -201q-17 -91 -53.5 -122.5t-122.5 -31.5h-217l-41 -237h340zM659 -424l244 320h-354l-105 -320h215z" />
    <glyph glyph-name="dotlessj" unicode="&#x237;" 
d="M158 -129l-41 -231q109 -46 289 -46q232 0 346 111q99 97 139 305l192 1088h-708l-45 -248h383l-148 -842q-16 -89 -61.5 -126.5t-118.5 -37.5q-105 0 -227 27z" />
    <glyph glyph-name="circumflex" unicode="&#x2c6;" 
d="M653 1614l-288 -367h239l150 166h6l96 -166h238l-160 367h-281z" />
    <glyph glyph-name="caron" unicode="&#x2c7;" 
d="M805 1247l289 367h-240l-149 -166h-7l-96 166h-237l159 -367h281z" />
    <glyph glyph-name="breve" unicode="&#x2d8;" 
d="M709 1614h-215q-33 -171 67 -271q87 -90 230 -90q157 0 258 82q113 92 127 279h-207q-26 -148 -152 -148q-60 0 -87.5 38t-20.5 110z" />
    <glyph glyph-name="dotaccent" unicode="&#x2d9;" 
d="M897 1235l59 332h-344l-59 -332h344z" />
    <glyph glyph-name="ring" unicode="&#x2da;" 
d="M483 1430q0 -104 72 -170q71 -68 174 -68q123 0 205 82q80 80 80 196q0 105 -70 175q-69 69 -178 69q-122 0 -203 -84q-80 -80 -80 -200zM739 1331q-49 0 -76.5 31.5t-27.5 83.5q0 55 34 92t87 37q50 0 78 -33t28 -84q0 -55 -34 -91t-89 -36z" />
    <glyph glyph-name="ogonek" unicode="&#x2db;" 
d="M516 0l-51 31q-180 -32 -264 -97q-74 -60 -74 -149q0 -77 65.5 -123.5t198.5 -46.5h60l32 182q-94 0 -94 72q0 34 25 65q25 28 102 66z" />
    <glyph glyph-name="tilde" unicode="&#x2dc;" 
d="M328 1247h196q5 48 27 75.5t57 27.5q36 0 140 -47q102 -50 165 -50q128 0 199 101q61 90 70 241h-199q-8 -102 -84 -102q-6 0 -12 1t-11.5 1.5t-13 3t-12.5 4t-13.5 5t-13 5t-14.5 6.5t-14 6.5t-16 7t-15 7.5q-100 47 -168 47q-131 0 -197 -98q-61 -86 -71 -242z" />
    <glyph glyph-name="hungarumlaut" unicode="&#x2dd;" 
d="M596 1247l235 367h-299l-165 -367h229zM956 1247l263 367h-297l-193 -367h227z" />
    <glyph glyph-name="Wgrave" unicode="&#x1e80;" 
d="M510 1966l215 -272h256l-84 272h-387zM563 449l43 118q45 129 64 205h14q-1 -17 -2 -51t-2 -51q-4 -134 -2 -224l14 -446h371l373 1567h-277l-258 -1133h-14l6 101q4 120 2 174l-18 489h-224l-190 -489q-10 -23 -29 -82q-36 -112 -57 -193h-17l142 1133h-283l-180 -1567
h350z" />
    <glyph glyph-name="wgrave" unicode="&#x1e81;" 
d="M807 1614h-371l211 -367h236zM461 0l182 649q17 57 33 123q5 16 14 55h15q-1 -9 -2.5 -27.5t-2.5 -27.5q-1 -8 -2 -27t-2 -28l-6 -68l-47 -649h365l333 1098h-264l-176 -670q-12 -46 -16 -66l-15 -57q-9 -26 -12 -53h-14q1 13 4 49t4 59l6 66l49 672h-325l-187 -668
q-17 -57 -33 -123q-5 -16 -14 -55h-14l6 53q3 27 6 57l6 66l64 670h-264l-56 -1098h365z" />
    <glyph glyph-name="Wacute" unicode="&#x1e82;" 
d="M965 1694l262 272h-396l-135 -272h269zM563 449l43 118q45 129 64 205h14q-1 -17 -2 -51t-2 -51q-4 -134 -2 -224l14 -446h371l373 1567h-277l-258 -1133h-14l6 101q4 120 2 174l-18 489h-224l-190 -489q-10 -23 -29 -82q-36 -112 -57 -193h-17l142 1133h-283l-180 -1567
h350z" />
    <glyph glyph-name="wacute" unicode="&#x1e83;" 
d="M862 1247l316 367h-396l-174 -367h254zM461 0l182 649q17 57 33 123q5 16 14 55h15q-1 -9 -2.5 -27.5t-2.5 -27.5q-1 -8 -2 -27t-2 -28l-6 -68l-47 -649h365l333 1098h-264l-176 -670q-12 -46 -16 -66l-15 -57q-9 -26 -12 -53h-14q1 13 4 49t4 59l6 66l49 672h-325
l-187 -668q-17 -57 -33 -123q-5 -16 -14 -55h-14l6 53q3 27 6 57l6 66l64 670h-264l-56 -1098h365z" />
    <glyph glyph-name="Wdieresis" unicode="&#x1e84;" 
d="M762 1675l59 332h-344l-59 -332h344zM1253 1675l60 332h-344l-60 -332h344zM563 449l43 118q45 129 64 205h14q-1 -17 -2 -51t-2 -51q-4 -134 -2 -224l14 -446h371l373 1567h-277l-258 -1133h-14l6 101q4 120 2 174l-18 489h-224l-190 -489q-10 -23 -29 -82
q-36 -112 -57 -193h-17l142 1133h-283l-180 -1567h350z" />
    <glyph glyph-name="wdieresis" unicode="&#x1e85;" 
d="M688 1235l60 332h-345l-59 -332h344zM1171 1235l60 332h-344l-60 -332h344zM461 0l182 649q17 57 33 123q5 16 14 55h15q-1 -9 -2.5 -27.5t-2.5 -27.5q-1 -8 -2 -27t-2 -28l-6 -68l-47 -649h365l333 1098h-264l-176 -670q-12 -46 -16 -66l-15 -57q-9 -26 -12 -53h-14
q1 13 4 49t4 59l6 66l49 672h-325l-187 -668q-17 -57 -33 -123q-5 -16 -14 -55h-14l6 53q3 27 6 57l6 66l64 670h-264l-56 -1098h365z" />
    <glyph glyph-name="Ygrave" unicode="&#x1ef2;" 
d="M498 1966l215 -272h256l-84 272h-387zM719 0l117 664l624 903h-344l-381 -586h-10l-172 586h-346l295 -889l-119 -678h336z" />
    <glyph glyph-name="ygrave" unicode="&#x1ef3;" 
d="M780 1614h-370l211 -367h235zM371 0l-11 -20q-36 -73 -82.5 -104.5t-113.5 -31.5q-64 0 -162 15l-43 -242q113 -23 236 -23q171 0 299 89q95 68 176 213l657 1202h-342l-270 -531q-41 -83 -47 -100q-44 -99 -56 -156h-18q0 20 -4 78q0 5 -3.5 35t-4.5 49q-1 20 -15 105
l-92 520h-332z" />
    <glyph glyph-name="uni2009" unicode="&#x2009;" horiz-adv-x="0" 
 />
    <glyph glyph-name="endash" unicode="&#x2013;" 
d="M1077 524l41 230h-856l-39 -230h854z" />
    <glyph glyph-name="emdash" unicode="&#x2014;" 
d="M1305 524l41 230h-1311l-41 -230h1311z" />
    <glyph glyph-name="quoteleft" unicode="&#x2018;" 
d="M479 958h367l201 609h-236z" />
    <glyph glyph-name="quoteright" unicode="&#x2019;" 
d="M1073 1567h-366l-201 -609h235z" />
    <glyph glyph-name="quotesinglbase" unicode="&#x201a;" 
d="M874 369h-366l-203 -609h236z" />
    <glyph glyph-name="quotedblleft" unicode="&#x201c;" 
d="M266 958h367l201 609h-236zM725 958h367l200 609h-235z" />
    <glyph glyph-name="quotedblright" unicode="&#x201d;" 
d="M827 1567h-366l-201 -609h236zM1286 1567h-366l-201 -609h235z" />
    <glyph glyph-name="quotedblbase" unicode="&#x201e;" 
d="M666 369h-367l-203 -609h236zM1124 369h-366l-203 -609h236z" />
    <glyph glyph-name="dagger" unicode="&#x2020;" 
d="M1194 874l39 216h-379l84 477h-225l-84 -477h-377l-39 -216h377l-182 -1038h225l182 1038h379z" />
    <glyph glyph-name="daggerdbl" unicode="&#x2021;" 
d="M1098 334l32 190h-376l67 383h377l35 191h-377l82 469h-225l-82 -469h-377l-35 -191h377l-68 -383h-376l-33 -190h377l-88 -498h225l88 498h377z" />
    <glyph glyph-name="bullet" unicode="&#x2022;" 
d="M662 328q125 0 212 84q89 86 89 219q0 136 -82.5 220.5t-216.5 84.5q-125 0 -211 -86q-88 -88 -88 -219q0 -136 83 -219.5t214 -83.5z" />
    <glyph glyph-name="ellipsis" unicode="&#x2026;" 
d="M285 0l65 369h-332l-65 -369h332zM723 0l65 369h-333l-66 -369h334zM1157 0l66 369h-332l-66 -369h332z" />
    <glyph glyph-name="perthousand" unicode="&#x2030;" 
d="M154 1141q0 -113 61 -168t166 -55q157 0 233 159q60 126 60 281q0 116 -61.5 170.5t-166.5 54.5q-151 0 -231 -160q-61 -122 -61 -282zM383 1063q-53 0 -53 72q0 85 24 176q13 55 36.5 91t53.5 36q54 0 54 -72q0 -79 -23 -174q-34 -129 -92 -129zM1092 1061l28 162
l-1059 -553l-28 -160zM391 -20q158 0 234 159q59 123 59 281q0 116 -61 170.5t-166 54.5q-152 0 -232 -160q-61 -122 -61 -282q0 -113 61 -168t166 -55zM956 -20q158 0 234 159q59 123 59 281q0 116 -61 170.5t-166 54.5q-151 0 -231 -160q-62 -124 -62 -282q0 -113 61 -168
t166 -55zM393 125q-53 0 -53 72q0 82 25 176q13 55 36.5 91t53.5 36q53 0 53 -72q0 -79 -23 -174q-34 -129 -92 -129zM958 125q-53 0 -53 72q0 82 25 176q13 55 36.5 91t53.5 36q53 0 53 -72q0 -83 -22 -174q-15 -56 -39 -92.5t-54 -36.5z" />
    <glyph glyph-name="minute" unicode="&#x2032;" 
d="M750 958l352 609h-397l-201 -609h246z" />
    <glyph glyph-name="second" unicode="&#x2033;" 
d="M446 958l414 609h-397l-262 -609h245zM979 958l414 609h-398l-262 -609h246z" />
    <glyph glyph-name="guilsinglleft" unicode="&#x2039;" 
d="M725 950l-410 -411l303 -422h320l-295 413l401 420h-319z" />
    <glyph glyph-name="guilsinglright" unicode="&#x203a;" 
d="M625 117l409 411l-303 422h-319l295 -413l-402 -420h320z" />
    <glyph glyph-name="fraction" unicode="&#x2044;" 
d="M98 -82l1413 1679h-227l-1413 -1679h227z" />
    <glyph glyph-name="Euro" unicode="&#x20ac;" 
d="M1221 440h-306q-26 -111 -71.5 -164t-141.5 -53q-99 0 -144.5 70.5t-41.5 218.5h348l29 158h-365q1 7 4.5 21.5t4.5 21.5l6 43q1 7 4 21.5t4 21.5l6 37h361l28 157h-348q46 156 108.5 223.5t149.5 67.5q92 0 131 -61q36 -59 27 -164h309q28 203 -98 338
q-133 143 -375 143q-208 0 -344 -119q-156 -137 -240 -428h-162l-28 -157h149q-3 -16 -9 -46t-7 -38q-10 -50 -12 -82h-146l-28 -158h161q-4 -269 128 -407t388 -138q223 0 352.5 122.5t168.5 350.5z" />
    <glyph glyph-name="trademark" unicode="&#x2122;" 
d="M618 1425l25 142h-481l-25 -142h160l-94 -526h164l94 526h157zM733 899l84 477h12q-2 -20 -2 -59v-51q0 -21 4 -49l33 -318h140l147 318q16 36 23 57q20 52 34 102h13l-84 -477h153l119 668h-240l-139 -312q-19 -42 -33 -86l-14 -43h-10v43q0 24 -4 86l-27 312h-242
l-118 -668h151z" />
    <glyph glyph-name="uni2153" unicode="&#x2153;" horiz-adv-x="3932" 
d="M1104 731h-264l155 889h-235q-18 -85 -66 -133q-67 -64 -196 -64h-68l-31 -176h263l-91 -516h-282l-37 -205h815zM1423 -82l1413 1679h-227l-1413 -1679h227zM2978 375h76q165 0 165 -131q0 -66 -45.5 -106t-138.5 -40q-170 0 -174 146h-256q-13 -144 86 -240
q111 -108 328 -108q195 0 319 84q137 95 137 260q0 88 -47.5 146.5t-138.5 78.5v10q112 19 179 87t67 175q0 131 -105.5 211t-296.5 80q-209 0 -331 -115q-51 -49 -77 -111t-26 -122h252q15 147 180 147q71 0 108.5 -31.5t37.5 -86.5q0 -66 -42.5 -103t-131.5 -37h-90z" />
    <glyph glyph-name="uni2154" unicode="&#x2154;" horiz-adv-x="3932" 
d="M334 1225h262q8 101 50.5 154t135.5 53q66 0 103 -37.5t37 -94.5q0 -63 -23 -96q-38 -59 -143 -133l-512 -366l-33 -179h879l36 209h-481v6q18 7 49 25q41 21 115 70l125 82q140 90 199 190q53 90 53 217q0 128 -96 215q-109 94 -295 94q-241 0 -367 -143
q-98 -111 -94 -266zM1458 -82l1413 1679h-227l-1413 -1679h227zM2978 375h76q165 0 165 -131q0 -66 -45.5 -106t-138.5 -40q-170 0 -174 146h-256q-13 -144 86 -240q111 -108 328 -108q195 0 319 84q137 95 137 260q0 88 -47.5 146.5t-138.5 78.5v10q112 19 179 87t67 175
q0 131 -105.5 211t-296.5 80q-209 0 -331 -115q-51 -49 -77 -111t-26 -122h252q15 147 180 147q71 0 108.5 -31.5t37.5 -86.5q0 -66 -42.5 -103t-131.5 -37h-90z" />
    <glyph glyph-name="oneeighth" unicode="&#x215b;" horiz-adv-x="3932" 
d="M1104 731h-264l155 889h-235q-18 -85 -66 -133q-67 -64 -196 -64h-68l-31 -176h263l-91 -516h-282l-37 -205h815zM1409 -82l1413 1679h-227l-1413 -1679h227zM3131 1026q-193 0 -305 -80q-121 -84 -121 -229q0 -163 140 -228v-8q-131 -26 -200 -102t-69 -184
q0 -143 109 -224.5t309 -81.5q238 0 367 109q112 90 112 229q0 90 -48 152t-128 86v8q96 23 158 88q68 71 68 180q0 126 -109 205q-114 80 -283 80zM3103 555q-66 0 -105 34.5t-39 94.5q0 63 33 107q40 57 129 57q67 0 107.5 -36t40.5 -97q0 -59 -33 -103q-43 -57 -133 -57z
M3006 68q-78 0 -118.5 37.5t-40.5 97.5q0 67 37 112q53 60 159 60q75 0 115.5 -38t40.5 -95q0 -71 -35 -113q-51 -61 -158 -61z" />
    <glyph glyph-name="threeeighths" unicode="&#x215c;" horiz-adv-x="3932" 
d="M645 983h76q84 0 125 -34.5t41 -96.5q0 -66 -45.5 -105.5t-139.5 -39.5q-170 0 -174 145h-256q-13 -144 86 -240q111 -108 328 -108q196 0 320 84q137 95 137 260q0 87 -48 146t-139 79v10q112 19 179 87.5t67 175.5q0 131 -105 210.5t-296 79.5q-211 0 -332 -114
q-50 -49 -76 -111.5t-26 -122.5h251q15 148 181 148q71 0 108 -32t37 -87q0 -139 -174 -139h-90zM1409 -82l1413 1679h-227l-1413 -1679h227zM3131 1026q-193 0 -305 -80q-121 -84 -121 -229q0 -163 140 -228v-8q-131 -26 -200 -102t-69 -184q0 -143 109 -224.5t309 -81.5
q238 0 367 109q112 90 112 229q0 90 -48 152t-128 86v8q96 23 158 88q68 71 68 180q0 126 -109 205q-114 80 -283 80zM3103 555q-66 0 -105 34.5t-39 94.5q0 63 33 107q40 57 129 57q67 0 107.5 -36t40.5 -97q0 -59 -33 -103q-43 -57 -133 -57zM3006 68q-78 0 -118.5 37.5
t-40.5 97.5q0 67 37 112q53 60 159 60q75 0 115.5 -38t40.5 -95q0 -71 -35 -113q-51 -61 -158 -61z" />
    <glyph glyph-name="fiveeighths" unicode="&#x215d;" horiz-adv-x="3932" 
d="M530 844h-268q-5 -46 16 -104t68 -109q116 -127 330 -127q221 0 344 109t123 302q0 147 -88 238q-88 88 -230 88q-141 0 -217 -76h-6l49 234h516l35 219h-729l-143 -633h243q52 74 156 74q66 0 111 -41.5t45 -126.5q0 -91 -51 -141t-140 -50q-77 0 -121.5 44t-42.5 100z
M1409 -82l1413 1679h-227l-1413 -1679h227zM3131 1026q-193 0 -305 -80q-121 -84 -121 -229q0 -163 140 -228v-8q-131 -26 -200 -102t-69 -184q0 -143 109 -224.5t309 -81.5q238 0 367 109q112 90 112 229q0 90 -48 152t-128 86v8q96 23 158 88q68 71 68 180q0 126 -109 205
q-114 80 -283 80zM3103 555q-66 0 -105 34.5t-39 94.5q0 63 33 107q40 57 129 57q67 0 107.5 -36t40.5 -97q0 -59 -33 -103q-43 -57 -133 -57zM3006 68q-78 0 -118.5 37.5t-40.5 97.5q0 67 37 112q53 60 159 60q75 0 115.5 -38t40.5 -95q0 -71 -35 -113q-51 -61 -158 -61z
" />
    <glyph glyph-name="seveneighths" unicode="&#x215e;" horiz-adv-x="3932" 
d="M567 526l647 893l33 199h-874l-39 -221h569l-635 -871h299zM1266 -82l1413 1679h-228l-1413 -1679h228zM3111 1026q-193 0 -305 -80q-121 -84 -121 -229q0 -163 139 -228v-8q-131 -26 -199.5 -102t-68.5 -184q0 -143 109 -224.5t309 -81.5q237 0 366 109q113 91 113 229
q0 90 -48 152t-128 86v8q94 22 157 88q68 71 68 180q0 126 -108 205q-114 80 -283 80zM3082 555q-66 0 -104.5 34.5t-38.5 94.5q0 63 33 107q40 57 129 57q66 0 106.5 -36t40.5 -97q0 -59 -33 -103q-43 -57 -133 -57zM2986 68q-78 0 -119 37.5t-41 97.5q0 67 37 112
q53 60 160 60q75 0 115 -38t40 -95q0 -72 -34 -113q-51 -61 -158 -61z" />
    <glyph glyph-name="minus" unicode="&#x2212;" 
d="M1163 614l45 238h-964l-45 -238h964z" />
    <glyph glyph-name="approxequal" unicode="&#x2248;" 
d="M227 778h203q26 103 111 103q52 0 170 -47q121 -48 200 -48q139 0 219.5 87t104.5 251h-201q-17 -102 -110 -102q-53 0 -164 47t-193 47q-147 0 -233 -91.5t-107 -246.5zM461 473q46 0 170 -47q118 -47 198 -47q139 0 221 88t103 250h-199q-18 -103 -110 -103
q-53 0 -166 48q-111 47 -193 47q-147 0 -232.5 -91.5t-105.5 -246.5h203q25 102 111 102z" />
    <glyph glyph-name="notequal" unicode="&#x2260;" 
d="M1118 399l45 236h-444l119 184h362l47 236h-258l146 227h-189l-145 -227h-518l-47 -236h413l-119 -184h-331l-45 -236h225l-139 -215h188l139 215h551z" />
    <glyph glyph-name="lessequal" unicode="&#x2264;" 
d="M1165 567l-571 316l696 307l53 287l-1095 -504l-31 -150l901 -508zM1104 236h-993l-48 -236h994z" />
    <glyph glyph-name="greaterequal" unicode="&#x2265;" 
d="M297 1223l573 -316l-696 -309l-53 -287l1093 504l31 154l-901 501zM1104 236h-993l-45 -236h991z" />
    <glyph glyph-name="uni24C5" unicode="&#x24c5;" 
d="M170 958l-31 -163q-26 -146 -26 -258q5 -279 132 -423.5t371 -144.5q252 0 406 174q145 164 199 459l30 164q25 128 25 246q0 274 -127.5 424.5t-376.5 150.5q-248 0 -403 -172q-144 -161 -199 -457zM279 760l34 184q47 241 142 367q116 155 323 155q181 0 273 -123
q84 -112 84 -309q0 -108 -23 -233l-33 -185q-43 -240 -141 -368q-119 -158 -326 -158q-180 0 -272 123q-84 112 -84 309q0 93 23 238zM616 616h80q139 0 232 80q108 93 108 291q0 110 -70 173t-192 63h-242l-155 -885h190zM696 1065h35q57 0 82 -23t25 -79q0 -97 -43 -150
q-37 -43 -95 -43h-57z" />
    <glyph glyph-name="uniE401" unicode="&#xe401;" 
d="M610 -31q199 0 332 109q160 126 250 430q72 253 72 487q0 275 -125 408t-377 133q-191 0 -328 -106q-162 -129 -252 -431q-73 -246 -73 -489q0 -541 501 -541zM772 1288q81 0 129.5 -52t48.5 -167v-22q0 -21 -2 -31l-495 -271q30 168 63 271q42 140 94 203q57 69 162 69z
M606 217q-184 0 -184 219v23q0 18 2 28l494 271q-28 -156 -58 -264q-41 -133 -80 -193q-57 -84 -174 -84z" />
    <glyph glyph-name="uniF8FF" unicode="&#xf8ff;" 
d="M1327 1024q0 119 -45.5 226t-126.5 188q-81 80 -188 124t-226 44t-225 -44t-186 -124q-81 -81 -126.5 -188t-45.5 -226t45.5 -224.5t126.5 -185.5q80 -81 186 -126.5t225 -45.5t226 45.5t188 126.5q81 80 126.5 185.5t45.5 224.5zM492 1325h-203q67 99 167 163t220 81
q-111 -80 -184 -244zM1196 1325h-205q-65 154 -184 244q117 -13 219.5 -78t169.5 -166zM721 1325h-186q67 157 186 238v-238zM762 1325v238q63 -44 107.5 -99.5t78.5 -138.5h-186zM438 1042h-239q6 136 67 246h213q-38 -116 -41 -246zM721 1042h-242q3 131 43 246h199v-246z
M762 1288h199q40 -112 43 -246h-242v246zM1286 1042h-242q-3 143 -40 246h215q58 -110 67 -246zM479 760h-213q-61 110 -67 246h239q3 -137 41 -246zM721 760h-199q-40 115 -43 246h242v-246zM762 1006h242q-3 -139 -43 -246h-199v246zM1219 760h-215q37 106 40 246h242
q-9 -135 -67 -246zM680 479q-120 13 -221.5 78t-169.5 166h205q59 -144 186 -244zM721 723v-236q-119 83 -184 236h184zM762 723h184q-66 -156 -184 -236v236zM803 479q120 90 186 244h207q-67 -99 -173 -165.5t-220 -78.5z" />
    <glyph glyph-name="f_i" unicode="&#xfb01;" horiz-adv-x="2621" 
d="M1198 848l45 250h-369l15 80q19 106 68 148t153 42q62 0 172 -31l43 242q-133 45 -268 45q-198 0 -322 -96t-160 -299l-22 -131h-346l-45 -250h346l-150 -848h324l149 848h367zM2259 1235l59 332h-344l-59 -332h344zM2466 250h-383l149 848h-655l-45 -248h332l-105 -600
h-370l-46 -250h1078z" />
    <glyph glyph-name="f_l" unicode="&#xfb02;" horiz-adv-x="2621" 
d="M1198 848l45 250h-369l15 80q19 106 68 148t153 42q62 0 172 -31l43 242q-133 45 -268 45q-198 0 -322 -96t-160 -299l-22 -131h-346l-45 -250h346l-150 -848h324l149 848h367zM2462 250h-379l239 1364h-655l-43 -248h332l-197 -1116h-370l-46 -250h1074z" />
    <glyph glyph-name="IJ.alt01" horiz-adv-x="2621" 
d="M1266 1313l45 254h-963l-45 -254h313l-186 -1059h-313l-45 -254h962l45 254h-313l186 1059h314zM2232 1567l-186 -1057q-23 -139 -113 -203q-75 -53 -198 -53q-182 0 -301 22l-45 -256q178 -40 346 -40q549 0 637 501l192 1086h-332z" />
    <glyph glyph-name="J.alt01" 
d="M922 1567l-187 -1057q-23 -140 -112 -203q-75 -53 -199 -53q-182 0 -301 22l-45 -256q178 -40 346 -40q548 0 637 501l192 1086h-331z" />
    <glyph glyph-name="Jcircumflex.alt01" 
d="M977 1966l-256 -272h237l146 102h2l111 -102h233l-166 272h-307zM922 1567l-187 -1057q-23 -140 -112 -203q-75 -53 -199 -53q-182 0 -301 22l-45 -256q178 -40 346 -40q548 0 637 501l192 1086h-331z" />
    <glyph glyph-name="Q.old" 
d="M1036 -90l-88 172q30 21 58 49q139 142 215 426q65 243 65 498q0 257 -129.5 395.5t-370.5 138.5q-137 0 -235.5 -40t-175.5 -119q-135 -140 -213 -435q-66 -252 -66 -493q0 -257 132.5 -394t375.5 -137q58 0 121 13l94 -189zM532 375l78 -156q-172 0 -172 227
q0 163 49 410q56 279 115 369q66 102 172 102q86 0 128 -55t42 -172q0 -71 -20 -234q-17 -142 -56 -303q-38 -164 -71 -225l-72 141z" />
    <glyph glyph-name="i.loclTRK" 
d="M948 1235l60 332h-344l-60 -332h344zM1155 250h-383l150 848h-656l-45 -248h332l-104 -600h-371l-45 -250h1077z" />
    <glyph glyph-name="f.alt01" 
d="M1198 850l45 248h-369l21 112q13 89 51 123.5t113 34.5h22q6 -2 21 -2q6 -2 22 -2l45 246q-86 14 -149 14q-178 0 -294 -95.5t-151 -297.5l-22 -133h-346l-45 -248h346l-150 -850h324l149 850h367z" />
    <glyph glyph-name="ij.alt01" horiz-adv-x="2621" 
d="M948 1235l60 332h-344l-60 -332h344zM2486 1567h-344l-59 -332h344zM1155 250h-383l150 848h-656l-45 -248h332l-104 -600h-371l-45 -250h1077zM1714 -410q206 0 327.5 97.5t158.5 308.5l194 1102h-708l-46 -248h383l-145 -832q-17 -94 -56.5 -133t-117.5 -39
q-45 0 -162 17l-45 -244q131 -29 217 -29z" />
    <glyph glyph-name="j.alt01" 
d="M1176 1567h-345l-59 -332h344zM403 -410q206 0 327.5 97.5t158.5 308.5l194 1102h-708l-45 -248h383l-146 -832q-17 -94 -56.5 -133t-117.5 -39q-45 0 -162 17l-45 -244q130 -29 217 -29z" />
    <glyph glyph-name="dotlessj.alt01" 
d="M231 -137l-45 -244q130 -29 217 -29q206 0 327.5 97.5t158.5 308.5l194 1102h-708l-45 -248h383l-146 -832q-17 -94 -56.5 -133t-117.5 -39q-45 0 -162 17z" />
    <glyph glyph-name="jcircumflex.alt01" 
d="M795 1614l-289 -367h239l150 166h6l96 -166h238l-160 367h-280zM231 -137l-45 -244q130 -29 217 -29q206 0 327.5 97.5t158.5 308.5l194 1102h-708l-45 -248h383l-146 -832q-17 -94 -56.5 -133t-117.5 -39q-45 0 -162 17z" />
    <glyph glyph-name="t.alt01" 
d="M758 -20q77 0 157 22l43 240q-42 -6 -86 -6q-89 0 -117.5 47t-9.5 153l74 412h385l45 250h-389l60 342h-293l-35 -201q-16 -86 -51 -119q-38 -35 -125 -35h-223l-41 -237h346l-70 -406q-40 -229 53 -348q85 -114 277 -114z" />
    <glyph glyph-name="tbar.alt01" 
d="M758 -20q77 0 157 22l43 240q-42 -6 -86 -6q-89 0 -117.5 47t-9.5 153l5 23h391l39 229h-389l28 160h385l45 250h-389l60 342h-293l-35 -201q-16 -86 -51 -119q-38 -35 -125 -35h-223l-41 -237h346l-29 -160h-340l-39 -229h340l-2 -17q-40 -229 53 -348q85 -114 277 -114
z" />
    <glyph glyph-name="tcaron.alt01" 
d="M1178 1198l231 416h-289l-112 -416h170zM758 -20q77 0 157 22l43 240q-42 -6 -86 -6q-89 0 -117.5 47t-9.5 153l74 412h385l45 250h-389l60 342h-293l-35 -201q-16 -86 -51 -119q-38 -35 -125 -35h-223l-41 -237h346l-70 -406q-40 -229 53 -348q85 -114 277 -114z" />
    <glyph glyph-name="uni021B.alt01" 
d="M758 -20q77 0 157 22l43 240q-42 -6 -86 -6q-89 0 -117.5 47t-9.5 153l74 412h385l45 250h-389l60 342h-293l-35 -201q-16 -86 -51 -119q-38 -35 -125 -35h-223l-41 -237h346l-70 -406q-40 -229 53 -348q85 -114 277 -114zM590 -424l244 320h-355l-104 -320h215z" />
    <glyph glyph-name="y.alt01" 
d="M371 0l-13 -27q-31 -64 -71.5 -94.5t-108.5 -30.5q-50 0 -88 9l-49 -250q77 -15 156 -15q179 0 295 84q95 71 186 236l649 1186h-342l-270 -531q-41 -83 -47 -100q-44 -99 -56 -156h-18q0 51 -2 78q-4 83 -23 189l-92 520h-334z" />
    <glyph glyph-name="yacute.alt01" 
d="M846 1247l315 367h-395l-174 -367h254zM371 0l-13 -27q-31 -64 -71.5 -94.5t-108.5 -30.5q-50 0 -88 9l-49 -250q77 -15 156 -15q179 0 295 84q95 71 186 236l649 1186h-342l-270 -531q-41 -83 -47 -100q-44 -99 -56 -156h-18q0 51 -2 78q-4 83 -23 189l-92 520h-334z
" />
    <glyph glyph-name="ycircumflex.alt01" 
d="M659 1614l-288 -367h239l150 166h6l96 -166h238l-160 367h-281zM371 0l-13 -27q-31 -64 -71.5 -94.5t-108.5 -30.5q-50 0 -88 9l-49 -250q77 -15 156 -15q179 0 295 84q95 71 186 236l649 1186h-342l-270 -531q-41 -83 -47 -100q-44 -99 -56 -156h-18q0 51 -2 78
q-4 83 -23 189l-92 520h-334z" />
    <glyph glyph-name="ydieresis.alt01" 
d="M676 1235l59 332h-344l-59 -332h344zM1159 1235l60 332h-345l-59 -332h344zM371 0l-13 -27q-31 -64 -71.5 -94.5t-108.5 -30.5q-50 0 -88 9l-49 -250q77 -15 156 -15q179 0 295 84q95 71 186 236l649 1186h-342l-270 -531q-41 -83 -47 -100q-44 -99 -56 -156h-18
q0 51 -2 78q-4 83 -23 189l-92 520h-334z" />
    <glyph glyph-name="ygrave.alt01" 
d="M780 1614h-370l211 -367h235zM371 0l-13 -27q-31 -64 -71.5 -94.5t-108.5 -30.5q-50 0 -88 9l-49 -250q77 -15 156 -15q179 0 295 84q95 71 186 236l649 1186h-342l-270 -531q-41 -83 -47 -100q-44 -99 -56 -156h-18q0 51 -2 78q-4 83 -23 189l-92 520h-334z" />
    <glyph glyph-name="f_i.alt01" horiz-adv-x="2621" 
d="M1198 850l45 248h-369l21 112q13 89 51 123.5t113 34.5h22q6 -2 21 -2q6 -2 22 -2l45 246q-86 14 -149 14q-178 0 -294 -95.5t-151 -297.5l-22 -133h-346l-45 -248h346l-150 -850h324l149 850h367zM2259 1235l59 332h-344l-59 -332h344zM2466 250h-383l149 848h-655
l-45 -248h332l-105 -600h-370l-46 -250h1078z" />
    <glyph glyph-name="f_l.alt01" horiz-adv-x="2621" 
d="M1198 850l45 248h-369l21 112q13 89 51 123.5t113 34.5h22q6 -2 21 -2q6 -2 22 -2l45 246q-86 14 -149 14q-178 0 -294 -95.5t-151 -297.5l-22 -133h-346l-45 -248h346l-150 -850h324l149 850h367zM2462 250h-379l239 1364h-655l-43 -248h332l-197 -1116h-370l-46 -250
h1074z" />
    <glyph glyph-name="zero.den" 
d="M588 -104q192 0 317 122q99 94 158 277q43 141 43 297q0 205 -107.5 316.5t-310.5 111.5q-192 0 -319 -127q-103 -103 -156 -281q-41 -138 -41 -288q0 -205 106.5 -316.5t309.5 -111.5zM586 94q-129 0 -129 172q0 64 18 187q22 150 68 245q56 123 145 123
q64 0 97.5 -39.5t33.5 -128.5q0 -95 -18 -200q-25 -151 -72 -242q-60 -117 -143 -117z" />
    <glyph glyph-name="one.den" 
d="M1020 123h-264l155 889h-235q-18 -85 -66 -133q-67 -64 -196 -64h-68l-31 -176h263l-91 -516h-282l-37 -205h815z" />
    <glyph glyph-name="two.den" 
d="M250 616h262q8 101 50.5 154t135.5 53q66 0 103 -37t37 -94q0 -63 -23 -96q-38 -59 -143 -133l-512 -367l-33 -178h879l36 209h-481v6q17 7 49 25q48 25 115 69l125 82q139 89 199 191q53 90 53 217q0 128 -96 215q-109 94 -295 94q-241 0 -367 -143
q-51 -58 -73.5 -128.5t-20.5 -138.5z" />
    <glyph glyph-name="three.den" 
d="M561 375h76q84 0 125 -34.5t41 -96.5q0 -66 -45.5 -106t-139.5 -40q-170 0 -174 146h-256q-13 -144 86 -240q111 -108 328 -108q196 0 320 84q137 95 137 260q0 87 -48 146t-139 79v10q112 19 179 87t67 175q0 131 -105.5 211t-295.5 80q-210 0 -332 -115
q-50 -49 -76 -111t-26 -122h252q15 147 180 147q71 0 108 -31.5t37 -86.5q0 -66 -42.5 -103t-131.5 -37h-90z" />
    <glyph glyph-name="four.den" 
d="M1114 354h-164l117 654h-365l-555 -674l-28 -187h549l-41 -229h245l41 229h168zM410 346l231 279q36 42 61 77q64 89 80 119h13l-86 -475h-299z" />
    <glyph glyph-name="five.den" 
d="M446 236h-268q-5 -46 16 -104t68 -109q116 -127 330 -127q221 0 344 109t123 302q0 147 -88 238q-88 88 -230 88q-141 0 -217 -76h-6l49 234h516l35 219h-729l-143 -633h243q52 74 156 74q66 0 111 -41.5t45 -126.5q0 -91 -51 -141t-140 -50q-77 0 -121.5 44t-42.5 100z
" />
    <glyph glyph-name="six.den" 
d="M852 721h254q2 48 -19 101.5t-63 95.5q-104 104 -293 104q-218 0 -356 -152q-108 -119 -154 -309q-33 -130 -33 -248q0 -201 108 -309t302 -108q238 0 358 137q99 113 99 284q0 146 -86 231t-228 85q-163 0 -258 -123h-10q33 152 92 233.5t154 81.5q57 0 95 -29t38 -75z
M475 233q0 83 35 144q47 82 139 82q70 0 104.5 -40t34.5 -100q0 -88 -34 -145q-49 -82 -146 -82q-66 0 -99.5 42.5t-33.5 98.5z" />
    <glyph glyph-name="seven.den" 
d="M483 -82l647 893l33 199h-874l-39 -222h569l-635 -870h299z" />
    <glyph glyph-name="eight.den" 
d="M715 1026q-193 0 -305 -80q-121 -84 -121 -229q0 -163 139 -228v-8q-131 -26 -199.5 -102t-68.5 -184q0 -143 109 -224.5t309 -81.5q237 0 366 109q113 91 113 229q0 90 -48 152t-128 86v8q94 22 157 88q68 71 68 180q0 126 -109 205q-114 80 -282 80zM686 555
q-66 0 -104.5 34.5t-38.5 94.5q0 65 32 107q40 57 130 57q66 0 106.5 -36t40.5 -97q0 -59 -33 -103q-43 -57 -133 -57zM590 68q-78 0 -119 37.5t-41 97.5q0 67 37 112q53 60 160 60q75 0 115 -38t40 -95q0 -72 -34 -113q-51 -61 -158 -61z" />
    <glyph glyph-name="nine.den" 
d="M543 -102q228 0 366 151q108 116 154 307q31 129 31 246q0 197 -107.5 309.5t-296.5 112.5q-222 0 -342 -123q-106 -106 -106 -276q0 -148 98 -236q90 -84 231 -84q77 0 129.5 21.5t92.5 74.5h10q-30 -158 -87 -232.5t-155 -74.5q-58 0 -99.5 28t-45.5 77h-242
q-2 -46 19 -97.5t63 -95.5q101 -108 287 -108zM813 702q0 -80 -33 -139q-48 -80 -137 -80q-69 0 -103 38t-34 97q0 86 35 144q47 78 143 78q67 0 100 -45q29 -39 29 -93z" />
    <glyph glyph-name="zero.num" 
d="M672 504q191 0 317 123q99 94 158 276q43 141 43 297q0 205 -107.5 316.5t-310.5 111.5q-192 0 -319 -127q-103 -103 -156 -280q-41 -138 -41 -289q0 -205 106.5 -316.5t309.5 -111.5zM670 702q-129 0 -129 172q0 64 18 187q22 152 68 246q56 123 145 123
q64 0 97.5 -39.5t33.5 -128.5q0 -96 -18 -201q-25 -151 -72 -242q-60 -117 -143 -117z" />
    <glyph glyph-name="one.num" 
d="M1104 731h-264l155 889h-235q-18 -85 -66 -133q-67 -64 -196 -64h-68l-31 -176h263l-91 -516h-282l-37 -205h815z" />
    <glyph glyph-name="two.num" 
d="M334 1225h262q8 101 50.5 154t135.5 53q66 0 103 -37.5t37 -94.5q0 -63 -23 -96q-38 -59 -143 -133l-512 -366l-33 -179h879l36 209h-481v6q18 7 49 25q41 21 115 70l125 82q140 90 199 190q53 90 53 217q0 128 -96 215q-109 94 -295 94q-241 0 -367 -143
q-98 -111 -94 -266z" />
    <glyph glyph-name="three.num" 
d="M645 983h76q84 0 125 -34.5t41 -96.5q0 -66 -45.5 -105.5t-139.5 -39.5q-170 0 -174 145h-256q-13 -144 86 -240q111 -108 328 -108q196 0 320 84q137 95 137 260q0 87 -48 146t-139 79v10q112 19 179 87.5t67 175.5q0 131 -105 210.5t-296 79.5q-211 0 -332 -114
q-50 -49 -76 -111.5t-26 -122.5h251q15 148 181 148q71 0 108 -32t37 -87q0 -139 -174 -139h-90z" />
    <glyph glyph-name="four.num" 
d="M1198 963h-164l117 653h-365l-555 -674l-28 -186h549l-41 -230h245l41 230h168zM494 954l231 279q31 37 61 78q64 89 80 119h13l-86 -476h-299z" />
    <glyph glyph-name="five.num" 
d="M530 844h-268q-5 -46 16 -104t68 -109q116 -127 330 -127q221 0 344 109t123 302q0 147 -88 238q-88 88 -230 88q-141 0 -217 -76h-6l49 234h516l35 219h-729l-143 -633h243q52 74 156 74q66 0 111 -41.5t45 -126.5q0 -91 -51 -141t-140 -50q-77 0 -121.5 44t-42.5 100z
" />
    <glyph glyph-name="six.num" 
d="M936 1329h254q2 48 -19 101.5t-63 95.5q-104 104 -293 104q-219 0 -356 -151q-108 -118 -154 -310q-33 -130 -33 -247q0 -201 108 -309.5t302 -108.5q238 0 358 137q99 113 99 285q0 146 -85.5 230.5t-228.5 84.5q-163 0 -258 -123h-10q68 316 246 316q57 0 95 -29.5
t38 -75.5zM559 842q0 82 35 143q47 82 139 82q70 0 104.5 -40t34.5 -99q0 -89 -34 -146q-49 -82 -146 -82q-66 0 -99.5 42.5t-33.5 99.5z" />
    <glyph glyph-name="seven.num" 
d="M567 526l647 893l33 199h-874l-39 -221h569l-635 -871h299z" />
    <glyph glyph-name="eight.num" 
d="M799 1634q-193 0 -305 -80q-121 -84 -121 -229q0 -162 139 -227v-8q-131 -26 -199.5 -102.5t-68.5 -184.5q0 -143 109 -224t309 -81q238 0 366 108q113 91 113 230q0 90 -48 151.5t-128 85.5v8q94 22 157 88q68 71 68 181q0 125 -109 204q-114 80 -282 80zM770 1163
q-66 0 -104.5 34.5t-38.5 94.5q0 65 32 107q40 57 129 57q67 0 107.5 -36t40.5 -97q0 -58 -33 -102q-44 -58 -133 -58zM674 676q-78 0 -119 37.5t-41 97.5q0 68 37 113q52 59 160 59q75 0 115 -38t40 -95q0 -71 -35 -113q-51 -61 -157 -61z" />
    <glyph glyph-name="nine.num" 
d="M627 506q228 0 366 151q108 116 154 308q31 129 31 245q0 197 -107.5 309.5t-296.5 112.5q-222 0 -342 -123q-106 -106 -106 -276q0 -148 98 -236q90 -84 231 -84q77 0 129.5 22t92.5 75h10q-30 -158 -87 -233t-155 -75q-58 0 -99.5 28t-45.5 77h-242q-2 -46 19 -97.5
t63 -95.5q101 -108 287 -108zM897 1311q0 -81 -33 -140q-47 -79 -137 -79q-69 0 -103 38t-34 97q0 85 35 143q47 78 143 78q67 0 100 -45q29 -39 29 -92z" />
    <glyph glyph-name="zero.sub" 
d="M551 -186q191 0 317 123q99 94 158 276q43 141 43 297q0 205 -107.5 316.5t-310.5 111.5q-192 0 -319 -127q-103 -103 -156 -281q-41 -138 -41 -288q0 -205 106.5 -316.5t309.5 -111.5zM549 12q-129 0 -129 172q0 64 18 187q22 150 68 245q56 123 145 123
q64 0 97.5 -39.5t33.5 -128.5q0 -95 -18 -200q-25 -151 -72 -242q-60 -117 -143 -117z" />
    <glyph glyph-name="one.sub" 
d="M983 41h-264l155 889h-235q-18 -85 -66 -133q-67 -64 -196 -64h-68l-30 -176h262l-90 -516h-283l-37 -205h815z" />
    <glyph glyph-name="two.sub" 
d="M213 535h262q8 100 51 153t136 53q66 0 102.5 -37t36.5 -94q0 -63 -23 -96q-38 -59 -143 -133l-512 -367l-33 -178h879l37 209h-482v6q18 7 49 25q48 25 115 69l125 82q139 89 199 191q53 90 53 217q0 128 -96 215q-109 94 -295 94q-241 0 -367 -143q-98 -111 -94 -266z
" />
    <glyph glyph-name="three.sub" 
d="M524 293h76q84 0 125 -34.5t41 -96.5q0 -66 -45.5 -106t-138.5 -40q-170 0 -174 146h-256q-13 -144 86 -240q111 -108 327 -108q196 0 320 84q137 95 137 260q0 88 -47.5 146.5t-138.5 78.5v10q112 19 178.5 87t66.5 175q0 131 -105.5 211t-295.5 80q-210 0 -332 -115
q-50 -49 -76 -111t-26 -122h252q15 147 180 147q71 0 108 -31.5t37 -86.5q0 -66 -42.5 -103t-131.5 -37h-90z" />
    <glyph glyph-name="four.sub" 
d="M1077 272h-164l117 654h-364l-555 -674l-29 -186h549l-41 -230h246l41 230h167zM373 264l231 279q38 44 62 78q62 87 79 118h13l-86 -475h-299z" />
    <glyph glyph-name="five.sub" 
d="M410 154h-269q-5 -46 16 -104t68 -109q116 -127 330 -127q221 0 344 109t123 302q0 147 -88 238q-88 88 -229 88q-142 0 -218 -76h-6l49 234h517l34 219h-729l-143 -633h244q52 74 155 74q66 0 111 -41.5t45 -126.5q0 -91 -51 -141t-140 -50q-77 0 -121 44t-42 100z" />
    <glyph glyph-name="six.sub" 
d="M815 639h254q2 48 -19 101.5t-63 95.5q-104 104 -293 104q-218 0 -356 -152q-108 -119 -154 -309q-32 -126 -32 -248q0 -201 107.5 -309t301.5 -108q239 0 359 137q98 112 98 285q0 146 -85.5 230.5t-227.5 84.5q-164 0 -259 -123h-10q33 152 92 233.5t154 81.5
q57 0 95 -29t38 -75zM438 152q0 82 35 143q47 82 139 82q70 0 105 -40t35 -99q0 -88 -35 -146q-49 -82 -146 -82q-66 0 -99.5 42.5t-33.5 99.5z" />
    <glyph glyph-name="seven.sub" 
d="M446 -164l648 893l32 199h-874l-39 -221h569l-635 -871h299z" />
    <glyph glyph-name="eight.sub" 
d="M678 944q-193 0 -305 -80q-121 -84 -121 -229q0 -162 139 -227v-9q-131 -26 -199.5 -102t-68.5 -184q0 -143 109 -224.5t309 -81.5q237 0 366 109q113 91 113 229q0 90 -48 152t-128 86v8q94 22 157 88q68 71 68 180q0 126 -108 205q-114 80 -283 80zM649 473
q-66 0 -104.5 34.5t-38.5 94.5q0 63 33 107q40 57 129 57q66 0 106.5 -36t40.5 -97q0 -59 -33 -103q-43 -57 -133 -57zM553 -14q-78 0 -119 37.5t-41 97.5q0 67 37 112q53 60 160 60q75 0 115 -38t40 -95q0 -72 -34 -113q-51 -61 -158 -61z" />
    <glyph glyph-name="nine.sub" 
d="M506 -184q228 0 366 151q108 116 154 307q31 129 31 246q0 197 -107.5 309.5t-296.5 112.5q-222 0 -342 -123q-106 -106 -106 -276q0 -148 98 -236q90 -84 232 -84q77 0 129 21.5t92 74.5h10q-30 -158 -87 -232.5t-155 -74.5q-58 0 -99.5 28t-45.5 77h-242
q-2 -46 19 -97.5t63 -95.5q101 -108 287 -108zM776 621q0 -81 -33 -140q-48 -80 -137 -80q-69 0 -103 38.5t-34 97.5q0 85 35 143q47 78 143 78q68 0 101 -45q28 -38 28 -92z" />
    <glyph glyph-name="zero.sup" 
d="M702 657q192 0 318 123q99 94 158 277q43 141 43 297q0 205 -107.5 316.5t-310.5 111.5q-193 0 -320 -127q-101 -101 -155 -281q-41 -138 -41 -289q0 -206 106.5 -317t308.5 -111zM700 856q-129 0 -129 172q0 56 19 186q23 155 67 246q56 123 146 123q64 0 97.5 -39.5
t33.5 -128.5q0 -90 -19 -201q-25 -152 -71 -241q-60 -117 -144 -117z" />
    <glyph glyph-name="one.sup" 
d="M1135 885h-265l156 889h-235q-18 -86 -66 -134q-66 -63 -197 -63h-67l-31 -176h262l-90 -516h-283l-36 -205h815z" />
    <glyph glyph-name="two.sup" 
d="M365 1378h262q8 101 50.5 154t135.5 53q66 0 102.5 -37t36.5 -94q0 -23 -0.5 -33.5t-5.5 -29t-16 -33.5q-38 -57 -144 -133l-512 -367l-32 -178h878l37 209h-481v6q17 8 49 25q48 25 115 69l125 82q137 88 198 191q54 91 54 217q0 127 -97 215q-109 94 -295 94
q-240 0 -366 -143q-51 -58 -73.5 -128.5t-20.5 -138.5z" />
    <glyph glyph-name="three.sup" 
d="M676 1137h76q84 0 125 -34.5t41 -96.5q0 -66 -45.5 -106t-139.5 -40q-170 0 -174 146h-256q-13 -144 86 -240q112 -109 328 -109q195 0 319 84q138 96 138 260q0 87 -48 146.5t-139 79.5v10q112 19 179 87t67 175q0 131 -105.5 211t-296.5 80q-209 0 -331 -115
q-51 -49 -77 -111t-26 -122h252q15 147 180 147q71 0 108.5 -32t37.5 -87q0 -139 -174 -139h-90z" />
    <glyph glyph-name="four.sup" 
d="M1229 1116h-164l117 653h-365l-555 -673l-29 -187h549l-41 -229h246l41 229h168zM524 1108l232 278q31 37 61 78q64 89 80 119h12l-86 -475h-299z" />
    <glyph glyph-name="five.sup" 
d="M561 997h-268q-5 -46 16 -104t68 -109q116 -127 330 -127q220 0 343.5 109.5t123.5 302.5q0 146 -89 238q-88 88 -229 88t-217 -76h-6l49 233h516l35 220h-729l-144 -633h244q52 73 156 73q66 0 110.5 -41.5t44.5 -126.5q0 -91 -50.5 -140.5t-139.5 -49.5
q-77 0 -121.5 43.5t-42.5 99.5z" />
    <glyph glyph-name="six.sup" 
d="M967 1483h254q2 47 -19 100.5t-63 95.5q-105 105 -293 105q-219 0 -357 -152q-107 -117 -153 -309q-33 -130 -33 -248q0 -201 108 -309.5t302 -108.5q237 0 358 138q98 112 98 284q0 146 -85.5 231t-227.5 85q-163 0 -258 -123h-10q33 152 92 233.5t154 81.5q57 0 95 -29
t38 -75zM590 995q0 83 35 144q47 82 139 82q70 0 104.5 -40t34.5 -100q0 -87 -35 -145q-49 -82 -145 -82q-66 0 -99.5 42.5t-33.5 98.5z" />
    <glyph glyph-name="seven.sup" 
d="M598 680l647 893l33 199h-875l-38 -222h569l-635 -870h299z" />
    <glyph glyph-name="eight.sup" 
d="M829 1788q-193 0 -305 -80q-121 -84 -121 -229q0 -163 140 -228v-8q-131 -26 -200 -102.5t-69 -184.5q0 -143 109 -224t309 -81q238 0 367 109q112 90 112 229q0 90 -48 152t-128 86v8q96 23 158 88q68 71 68 180q0 126 -109 205q-114 80 -283 80zM801 1317
q-66 0 -105 34.5t-39 94.5q0 62 33 106q40 58 129 58q67 0 107.5 -36t40.5 -97q0 -59 -33 -103q-43 -57 -133 -57zM705 829q-78 0 -119 38t-41 98q0 67 37 112q53 60 159 60q75 0 115.5 -38t40.5 -95q0 -71 -35 -113q-51 -62 -157 -62z" />
    <glyph glyph-name="nine.sup" 
d="M657 659q229 0 367 152q108 116 154 307q30 125 30 246q0 197 -107 309.5t-296 112.5q-222 0 -342 -123q-107 -107 -107 -277q0 -146 99 -235q90 -84 231 -84q77 0 129 21.5t92 74.5h11q-30 -158 -87 -232.5t-155 -74.5q-58 0 -100 28t-46 77h-241q-2 -46 19 -97.5
t63 -95.5q102 -109 286 -109zM928 1464q0 -80 -33 -139q-48 -80 -137 -80q-69 0 -103 38t-34 97q0 87 34 144q47 78 144 78q66 0 100 -46q29 -39 29 -92z" />
    <glyph glyph-name="backslash.uc" 
d="M1094 -164l-598 1880h-222l598 -1880h222z" />
    <glyph glyph-name="exclamdown.uc" 
d="M584 1198h368l66 369h-369zM608 1028l-248 -1075h377l135 1075h-264z" />
    <glyph glyph-name="questiondown.uc" 
d="M604 1198h369l65 369h-368zM426 373q0 69 27.5 115.5t97.5 89.5l172 108q82 51 127 119q34 56 47 139l16 94h-299l-4 -22q-10 -49 -31.5 -77t-70.5 -60l-178 -115q-111 -72 -170.5 -171t-59.5 -241q0 -179 133 -291q144 -124 381 -124q306 0 465 188q64 75 94.5 170
t30.5 188h-313q0 -143 -73.5 -216.5t-190.5 -73.5q-97 0 -149 48.5t-52 131.5z" />
    <glyph glyph-name="slash.uc" 
d="M193 -164l1261 1880h-250l-1263 -1880h252z" />
    <glyph glyph-name="braceleft.uc" 
d="M279 641h143q110 0 88 -131l-49 -274q-39 -219 74 -323t380 -87l39 219q-82 -3 -125 8q-88 21 -88 119q0 44 13 117l39 223q19 106 -18.5 174.5t-133.5 85.5v8q109 12 164 64q56 53 76 168l41 231q13 82 28.5 128.5t42.5 72.5q54 52 215 43l39 221q-235 40 -381 -33
q-160 -80 -204 -313l-64 -348q-10 -59 -40.5 -84t-88.5 -25h-143z" />
    <glyph glyph-name="braceright.uc" 
d="M1079 901h-143q-109 0 -88 123l49 274q39 219 -74 323t-381 87l-39 -219q79 3 125 -6q88 -24 88 -121q0 -50 -12 -117l-39 -223q-40 -218 152 -252v-8q-109 -10 -162.5 -65t-77.5 -175l-41 -231q-13 -81 -28.5 -127t-42.5 -72q-56 -53 -215 -45l-39 -221q237 -40 383 33
q158 79 202 313l64 348q21 117 129 117h143z" />
    <glyph glyph-name="bracketleft.uc" 
d="M946 -174l39 217h-395l254 1446h395l39 217h-684l-332 -1880h684z" />
    <glyph glyph-name="bracketright.uc" 
d="M428 1706l-39 -217h395l-254 -1446h-395l-39 -217h684l332 1880h-684z" />
    <glyph glyph-name="parenleft.uc" 
d="M676 -174h285q-139 205 -197 385q-59 183 -59 410q0 364 182 649q143 224 422 436h-316q-284 -191 -437 -471t-153 -641q0 -223 86 -444q72 -184 187 -324z" />
    <glyph glyph-name="parenright.uc" 
d="M684 1706h-285q140 -207 197 -383q59 -183 59 -412q0 -367 -180 -649q-141 -221 -424 -436h316q284 191 436.5 471t152.5 641q0 223 -86 444q-73 187 -186 324z" />
    <glyph glyph-name="emdash.uc" 
d="M1325 616l41 230h-1311l-41 -230h1311z" />
    <glyph glyph-name="endash.uc" 
d="M1094 616l41 230h-856l-39 -230h854z" />
    <glyph glyph-name="hyphen.uc" 
d="M1001 582l56 299h-686l-54 -299h684z" />
    <glyph glyph-name="guillemotleft.uc" 
d="M176 653l215 -413h256l-203 413l322 420h-266zM633 653l215 -413h258l-203 413l322 420h-269z" />
    <glyph glyph-name="guillemotright.uc" 
d="M717 659l-215 414h-258l202 -414l-321 -419h268zM1174 659l-216 414h-256l203 -414l-321 -419h266z" />
    <glyph glyph-name="guilsinglleft.uc" 
d="M731 1073l-409 -411l303 -422h319l-295 413l402 420h-320z" />
    <glyph glyph-name="guilsinglright.uc" 
d="M631 238l409 411l-303 422h-319l295 -414l-402 -419h320z" />
    <glyph glyph-name="space_uni0326" 
d="M526 -424l244 320h-354l-105 -320h215z" />
    <glyph glyph-name="florin.tabold" horiz-adv-x="1024" 
 />
    <glyph glyph-name="minus.den" 
d="M1028 350l33 189h-780l-33 -189h780z" />
    <glyph glyph-name="plus.den" 
d="M1047 350l32 189h-301l56 286h-216l-55 -286h-305l-33 -189h301l-57 -289h215l57 289h306z" />
    <glyph glyph-name="minus.num" 
d="M1112 958l33 189h-780l-33 -189h780z" />
    <glyph glyph-name="plus.num" 
d="M1130 958l33 189h-301l56 287h-216l-55 -287h-305l-33 -189h301l-57 -288h215l57 288h305z" />
    <glyph glyph-name="minus.sub" 
d="M991 268l33 189h-780l-33 -189h780z" />
    <glyph glyph-name="plus.sub" 
d="M1010 268l32 189h-301l56 286h-215l-56 -286h-305l-33 -189h301l-57 -288h215l58 288h305z" />
    <glyph glyph-name="minus.sup" 
d="M1143 1112l33 188h-781l-33 -188h781z" />
    <glyph glyph-name="plus.sup" 
d="M1161 1112l33 188h-301l55 287h-215l-55 -287h-305l-33 -188h301l-57 -289h215l57 289h305z" />
    <glyph glyph-name="dagger.alt01" 
d="M1061 1081l39 215h-234l47 271h-225l-47 -271h-233l-39 -215h233l-92 -528h225l92 528h234z" />
    <glyph glyph-name="daggerdbl.alt01" 
d="M1024 766l33 190h-232l35 207h234l34 191h-233l37 213h-225l-37 -213h-234l-35 -191h234l-35 -207h-235l-33 -190h233l-37 -213h226l37 213h233z" />
    <glyph glyph-name="bar.uc" 
d="M662 -164l331 1880h-225l-332 -1880h226z" />
    <glyph glyph-name="at.uc" 
d="M655 -37q106 0 209 33l31 174q-125 -33 -221 -33q-230 0 -315 150.5t-35 449.5l30 176q47 276 153.5 402.5t289.5 126.5q172 0 252 -111q74 -103 49 -262h-8q-21 63 -85.5 104t-160.5 41q-196 0 -303 -176q-90 -149 -90 -368q0 -160 92 -242q84 -78 213 -78
q88 0 142.5 30t98.5 93h11l-17 -98h189l110 629q22 132 0 242.5t-84 193.5q-65 82 -167 127t-234 45q-294 0 -459 -203q-131 -161 -186 -455l-33 -184q-69 -384 74 -598q137 -209 454 -209zM840 539q-59 0 -91 38.5t-32 102.5q0 111 33 199q46 133 155 133q75 0 104 -57
t15 -148l-14 -88q-17 -85 -63 -132.5t-107 -47.5z" />
    <glyph glyph-name="caron.alt" 
d="M618 1198l232 416h-289l-112 -416h169z" />
    <glyph glyph-name="acute.uc" 
d="M881 1694l262 272h-395l-136 -272h269z" />
    <glyph glyph-name="breve.uc" 
d="M784 1991h-221q-23 -148 72 -240q85 -82 233 -82q151 0 252 82q112 90 123 240h-215q-17 -59 -53.5 -84t-95.5 -25q-46 0 -72.5 26t-22.5 83z" />
    <glyph glyph-name="caron.uc" 
d="M954 1694l256 272h-237l-146 -102h-2l-110 102h-234l166 -272h307z" />
    <glyph glyph-name="circumflex.uc" 
d="M737 1966l-256 -272h238l145 102h2l111 -102h233l-166 272h-307z" />
    <glyph glyph-name="dieresis.uc" 
d="M762 1675l59 332h-344l-59 -332h344zM1253 1675l60 332h-344l-60 -332h344z" />
    <glyph glyph-name="dotaccent.uc" 
d="M1004 1679l57 328h-344l-58 -328h345z" />
    <glyph glyph-name="grave.uc" 
d="M567 1966l215 -272h256l-84 272h-387z" />
    <glyph glyph-name="hungarumlaut.uc" 
d="M700 1694l168 293h-290l-101 -293h223zM1059 1694l194 293h-292l-127 -293h225z" />
    <glyph glyph-name="macron.uc" 
d="M1204 1712l41 223h-700l-41 -223h700z" />
    <glyph glyph-name="ring.uc" 
d="M610 1864q0 -104 72 -170q71 -68 174 -68q123 0 205 82q80 80 80 197q0 104 -70 174q-69 69 -178 69q-122 0 -203 -84q-80 -80 -80 -200zM762 1880q0 55 34 92t87 37q50 0 78 -33t28 -84q0 -55 -34 -91t-89 -36q-49 0 -76.5 31.5t-27.5 83.5z" />
    <glyph glyph-name="tilde.uc" 
d="M471 1673h186q5 38 29.5 63t61.5 25q39 0 131 -39q96 -41 157 -41q128 0 201 93q67 82 80 225h-187q-5 -40 -29 -65t-61 -25q-9 0 -17.5 1t-18.5 4t-17.5 5t-19.5 7t-18 7t-20.5 8.5t-19.5 8.5q-96 39 -157 39q-126 0 -199 -93q-70 -88 -82 -223z" />
    <glyph glyph-name="uni0326.alt" horiz-adv-x="0" 
d="M920 1587l-265 -340h363l117 340h-215z" />
    <glyph glyph-name="DC1" horiz-adv-x="1024" 
 />
    <glyph glyph-name="DC2" horiz-adv-x="1024" 
 />
    <glyph glyph-name="DC3" horiz-adv-x="1024" 
 />
    <glyph glyph-name="DC4" horiz-adv-x="1024" 
 />
    <glyph glyph-name="DLE" horiz-adv-x="1024" 
 />
    <glyph glyph-name="HT" horiz-adv-x="1024" 
 />
    <glyph glyph-name="LF" horiz-adv-x="1024" 
 />
    <glyph glyph-name="RS" horiz-adv-x="1024" 
 />
    <glyph glyph-name="US" horiz-adv-x="1024" 
 />
  </font>
</defs>
</svg>
