<?xml version="1.0" standalone="no"?>
<!DOCTYPE svg PUBLIC "-//W3C//DTD SVG 1.1//EN" "http://www.w3.org/Graphics/SVG/1.1/DTD/svg11.dtd" >
<svg xmlns="http://www.w3.org/2000/svg" xmlns:xlink="http://www.w3.org/1999/xlink" version="1.1">
<metadata>
Created by FontForge 20170731 at Sat Jan  1 04:00:55 2022
 By Aleksey,,,
(C)2012 Kai Bernau and Susana Carvalho with Christian Schwartz under exclusive license to Schwartzco Inc./Commercial Type. All rights reserved.
</metadata>
<defs>
<font id="AtlasTypewriterWeb-Bold" horiz-adv-x="1310" >
  <font-face 
    font-family="Atlas Typewriter Web Bold"
    font-weight="400"
    font-stretch="normal"
    units-per-em="2048"
    panose-1="0 0 5 0 0 0 0 0 0 0"
    ascent="1679"
    descent="-369"
    x-height="1098"
    cap-height="1567"
    bbox="-76 -440 3545 2445"
    underline-thickness="102"
    underline-position="-255"
    unicode-range="U+000D-FB02"
  />
<missing-glyph horiz-adv-x="1024" 
 />
    <glyph glyph-name=".notdef" horiz-adv-x="1024" 
 />
    <glyph glyph-name=".null" horiz-adv-x="0" 
 />
    <glyph glyph-name="nonmarkingreturn" horiz-adv-x="682" 
 />
    <glyph glyph-name="NULL" horiz-adv-x="0" 
 />
    <glyph glyph-name="NULL" horiz-adv-x="0" 
 />
    <glyph glyph-name="CR" unicode="&#xd;" horiz-adv-x="1024" 
 />
    <glyph glyph-name="space" unicode=" " 
 />
    <glyph glyph-name="exclam" unicode="!" 
d="M786 539l58 1075h-377l55 -1075h264zM840 369h-369v-369h369v369z" />
    <glyph glyph-name="quotedbl" unicode="&#x22;" 
d="M535 944l65 623h-348l65 -623h218zM993 944l66 623h-348l65 -623h217z" />
    <glyph glyph-name="numbersign" unicode="#" 
d="M723 584l-55 -381h180l55 381h250v182h-223l43 287h241v182h-215l48 330h-181l-47 -330h-237l47 330h-180l-48 -330h-245v-182h219l-43 -287h-238v-182h211l-55 -381h180l55 381h238zM512 766l43 287h238l-43 -287h-238z" />
    <glyph glyph-name="dollar" unicode="$" 
d="M715 -238v215q249 17 384.5 141.5t135.5 340.5q0 181 -102 286q-97 97 -295 140l-123 26v379q66 -19 101.5 -69.5t41.5 -118.5h330q-17 198 -136.5 306.5t-336.5 121.5v166h-135v-166q-226 -22 -347 -137q-131 -122 -131 -308q0 -351 367 -430l111 -22v-408
q-92 13 -136 66t-55 145h-330q20 -218 147.5 -332t373.5 -127v-215h135zM580 1292v-352q-87 23 -121.5 62t-34.5 114q0 70 39.5 116.5t116.5 59.5zM715 223v381q104 -26 146 -70.5t42 -125.5q0 -74 -44 -123t-138 -62h-6z" />
    <glyph glyph-name="percent" unicode="%" 
d="M203 0l1104 1585h-189l-1102 -1585h187zM14 1221q0 -173 97 -273q86 -92 227 -92q138 0 227 92q97 100 97 273t-97 270q-90 90 -227 90t-227 -90q-97 -97 -97 -270zM336 1415q49 0 78.5 -50t29.5 -144q0 -95 -29.5 -144t-78.5 -49q-107 0 -107 193q0 194 107 194z
M975 -14q138 0 227 92q96 99 96 270q0 177 -96 273q-90 90 -227 90t-227 -90q-97 -97 -97 -273q0 -170 97 -270q86 -92 227 -92zM973 156q-107 0 -107 192q0 195 107 195q51 0 79.5 -49.5t28.5 -145.5q0 -95 -28.5 -143.5t-79.5 -48.5z" />
    <glyph glyph-name="ampersand" unicode="&#x26;" 
d="M1272 0v256q-68 0 -101 9.5t-63 39.5q63 112 98 275q23 108 35 266h-287q-9 -171 -43 -301l-225 278q179 115 240 191q80 100 80 239q0 154 -109 254q-118 105 -313 105q-208 0 -334 -113q-119 -107 -119 -278q0 -104 39 -183q27 -59 127 -188q-134 -82 -200 -180
t-66 -240q0 -217 133 -341t377 -124q228 0 387 123q49 -47 112 -68q51 -20 154 -20h78zM424 1229q0 76 44 123t118 47q63 0 103 -41.5t40 -110.5q0 -74 -46 -130t-144 -126q-63 75 -89 124.5t-26 113.5zM438 672l324 -398q-77 -59 -176 -59q-242 0 -242 246q0 131 86 205z
" />
    <glyph glyph-name="quotesingle" unicode="'" 
d="M764 944l65 623h-348l66 -623h217z" />
    <glyph glyph-name="parenleft" unicode="(" 
d="M784 -266h314q-182 161 -287 383q-119 251 -119 557q0 303 119 551q93 198 287 389h-314q-188 -184 -282 -381q-113 -235 -113 -559q0 -322 113 -561q98 -206 282 -379z" />
    <glyph glyph-name="parenright" unicode=")" 
d="M526 1614h-313q189 -180 285 -383q120 -253 120 -557q0 -303 -116 -551q-102 -211 -289 -389h313q184 174 283 381q113 235 113 559t-113 563q-95 201 -283 377z" />
    <glyph glyph-name="asterisk" unicode="*" 
d="M864 557l209 160l-264 284l2 9l365 90l-82 246l-342 -164l-4 4l38 381h-264l35 -377l-4 -4l-338 160l-80 -248l361 -90l2 -9l-267 -282l209 -160l207 322h8z" />
    <glyph glyph-name="plus" unicode="+" 
d="M1174 614v238h-392v397h-256v-397h-389v-238h389v-401h256v401h392z" />
    <glyph glyph-name="comma" unicode="," 
d="M889 369h-367l-94 -609h236z" />
    <glyph glyph-name="hyphen" unicode="-" 
d="M987 489v299h-663v-299h663z" />
    <glyph glyph-name="period" unicode="." 
d="M840 0v369h-369v-369h369z" />
    <glyph glyph-name="slash" unicode="/" 
d="M291 -266l930 1880h-250l-932 -1880h252z" />
    <glyph glyph-name="zero" unicode="0" 
d="M104 750q0 -395 135.5 -589t415.5 -194q285 0 418 195t133 588q0 399 -132.5 592.5t-418.5 193.5q-551 0 -551 -786zM655 223q-57 0 -94.5 28t-60.5 91q-43 107 -43 408q0 293 43 405q23 65 60.5 95t94.5 30q113 0 156 -125t43 -405q0 -293 -41 -404q-23 -64 -61 -93.5
t-97 -29.5z" />
    <glyph glyph-name="one" unicode="1" 
d="M1229 254h-357v1270h-299q0 -139 -69 -199q-75 -70 -225 -70h-89v-215h347v-786h-377v-254h1069v254z" />
    <glyph glyph-name="two" unicode="2" 
d="M111 989l325 -2q0 155 68 230q56 61 155 61t152 -50t53 -151t-53 -180q-45 -67 -166 -178l-534 -504v-215h1089v264h-622v10q10 4 47 33q47 35 133 115l168 153q142 130 202 244q62 118 62 281q0 185 -125 307q-136 133 -399 133q-264 0 -414 -156q-144 -150 -141 -395z
" />
    <glyph glyph-name="three" unicode="3" 
d="M504 645h158q111 0 170 -51.5t59 -153.5q0 -96 -66 -154.5t-166 -58.5q-95 0 -158 55t-73 158h-319q13 -203 133 -325q143 -146 415 -146q257 0 408 135q137 125 137 318q0 288 -282 369v4q121 51 182 136t61 216q0 163 -125 276q-136 117 -368 117q-272 0 -414 -149
q-63 -65 -95 -150t-34 -174h311q6 102 62 159.5t159 57.5q92 0 144.5 -54t52.5 -143q0 -93 -65 -145q-61 -49 -156 -49h-131v-248z" />
    <glyph glyph-name="four" unicode="4" 
d="M1237 594h-207v924h-444l-512 -955v-233h659v-330h297v330h207v264zM381 590l262 493q37 71 39 76q38 89 45 111h14v-680h-360z" />
    <glyph glyph-name="five" unicode="5" 
d="M424 440h-320q10 -202 129 -323q145 -148 422 -148q268 0 418 160q139 148 139 383q0 237 -122 365q-123 129 -332 129q-196 0 -305 -115h-15l15 358h665v269h-934l-32 -865h294q71 109 213 109q107 0 166.5 -66t59.5 -198q0 -140 -65 -207.5t-175 -67.5
q-92 0 -151.5 54.5t-69.5 162.5z" />
    <glyph glyph-name="six" unicode="6" 
d="M889 1133h305q-12 182 -131 292q-131 115 -363 115q-276 0 -426 -201q-161 -219 -161 -655q0 -365 149 -543q141 -172 404 -172q269 0 421 162q136 145 136 363q0 245 -146 374q-126 111 -301 111q-212 0 -311 -129h-16q10 206 71 317q64 121 193 121q73 0 119 -41
t57 -114zM684 223q-104 0 -159.5 70.5t-55.5 198.5t56.5 197t160.5 69q103 0 158 -70t55 -196q0 -128 -55.5 -198.5t-159.5 -70.5z" />
    <glyph glyph-name="seven" unicode="7" 
d="M594 0l594 1278v240h-1082v-273h728l-586 -1245h346z" />
    <glyph glyph-name="eight" unicode="8" 
d="M129 1120q0 -126 66 -216t170 -124v-6q-126 -36 -201 -117q-86 -96 -86 -243q0 -199 153 -324q156 -127 424 -127q270 0 424 129q154 126 154 324q0 144 -84 241q-71 79 -203 117v6q106 37 171 124.5t65 215.5q0 180 -135 297q-146 123 -392 123q-247 0 -389 -123
q-137 -116 -137 -297zM655 1303q93 0 151 -54t58 -159t-57.5 -160.5t-151.5 -55.5q-92 0 -151.5 56t-59.5 160q0 106 58 159.5t153 53.5zM655 199q-108 0 -175.5 58t-67.5 169q0 112 66.5 168.5t176.5 56.5t178 -56.5t68 -168.5q0 -108 -72 -170q-66 -57 -174 -57z" />
    <glyph glyph-name="nine" unicode="9" 
d="M428 381h-311q20 -203 151.5 -307.5t358.5 -104.5q283 0 432 197q158 209 158 647q0 371 -160 555q-150 172 -426 172q-245 0 -393 -151q-69 -69 -105.5 -162.5t-36.5 -198.5q0 -227 144 -358q131 -119 333 -119q97 0 175.5 40t121.5 105h13q1 -243 -66 -361t-190 -118
q-81 0 -133.5 40.5t-65.5 123.5zM641 1288q92 0 156 -61q67 -67 67 -193t-62.5 -191t-166.5 -65q-93 0 -155 66.5t-62 189.5q0 127 69 193q61 61 154 61z" />
    <glyph glyph-name="colon" unicode=":" 
d="M840 1098h-369v-369h369v369zM840 369h-369v-369h369v369z" />
    <glyph glyph-name="semicolon" unicode=";" 
d="M850 1098h-369v-369h369v369zM848 369h-367l-94 -609h236z" />
    <glyph glyph-name="less" unicode="&#x3c;" 
d="M1143 367l-647 321l647 320v266l-1016 -518v-148l1016 -516v275z" />
    <glyph glyph-name="equal" unicode="=" 
d="M1174 819v236h-1037v-236h1037zM1174 635h-1037v-236h1037v236z" />
    <glyph glyph-name="greater" unicode="&#x3e;" 
d="M166 1001l647 -323l-647 -320v-266l1016 518v148l-1016 516v-273z" />
    <glyph glyph-name="question" unicode="?" 
d="M872 1188q0 -71 -30 -117t-97 -104l-112 -93q-86 -71 -105 -112q-18 -39 -18 -139v-84h287v28q0 47 11.5 70.5t45.5 54.5l168 142q81 66 121 135q55 92 55 221q0 199 -123 313q-137 127 -405 127q-267 0 -420 -153q-144 -144 -141 -394h323q0 153 72 228q58 61 166 61
q97 0 149.5 -49t52.5 -135zM840 369h-369v-369h369v369z" />
    <glyph glyph-name="at" unicode="@" 
d="M711 -254q137 0 258 41v176q-154 -39 -234 -39q-246 0 -348 154q-90 132 -90 442v133q0 252 76 389q94 183 321 183q159 0 242 -107q78 -101 78 -260h-8q-28 58 -80 94q-74 45 -164 45q-155 0 -243.5 -113.5t-88.5 -320.5q0 -216 90 -327q84 -103 238 -103q97 0 158.5 40
t99.5 114h12v-129h189v676q0 259 -138 409q-140 152 -391 152q-184 0 -313 -76q-148 -85 -215 -260q-66 -176 -66 -389v-195q0 -374 149.5 -551.5t467.5 -177.5zM836 319q-81 0 -110.5 59.5t-29.5 180.5q0 120 32 179t108 59q69 0 110 -57t41 -154v-72q0 -86 -41.5 -140.5
t-109.5 -54.5z" />
    <glyph glyph-name="A" unicode="A" 
d="M1243 0l-350 1567h-475l-350 -1567h319l76 346h368l76 -346h336zM633 1315h31q4 -73 10 -113q18 -162 41 -266l65 -342h-268l63 340q18 88 25 141q4 25 29 205z" />
    <glyph glyph-name="B" unicode="B" 
d="M131 0h512q275 0 426 115q158 120 158 342q0 145 -97 254q-92 98 -243 123v8q115 27 188 106q84 94 84 219q0 400 -530 400h-498v-1567zM467 1333h129q112 0 171.5 -49.5t59.5 -142.5q0 -221 -239 -221h-121v413zM467 698h145q271 0 271 -219q0 -129 -66 -184t-199 -55
h-151v458z" />
    <glyph glyph-name="C" unicode="C" 
d="M893 1036h332q-9 253 -144 400q-147 153 -405 153q-318 0 -459 -219q-129 -201 -129 -608q0 -395 127 -584q139 -211 465 -211q254 0 397 152q141 150 150 413h-334q-12 -161 -58.5 -231t-148.5 -70q-153 0 -207 138q-45 116 -45 405q0 298 45 416q53 135 197 135
q107 0 156 -68.5t61 -220.5z" />
    <glyph glyph-name="D" unicode="D" 
d="M117 0h397q711 0 711 778q0 418 -176 606q-171 183 -533 183h-399v-1567zM453 1311h67q175 0 258 -115q90 -129 90 -418q0 -278 -92 -403q-83 -115 -264 -115h-59v1051z" />
    <glyph glyph-name="E" unicode="E" 
d="M1171 0v262h-653v389h598v260h-598v394h635v262h-971v-1567h989z" />
    <glyph glyph-name="F" unicode="F" 
d="M1130 608v262h-593v435h630v262h-966v-1567h336v608h593z" />
    <glyph glyph-name="G" unicode="G" 
d="M678 1333q104 0 155 -64.5t56 -176.5h319q-10 223 -133 352q-139 145 -391 145q-313 0 -461 -223q-137 -210 -137 -639q0 -361 125 -551q135 -209 414 -209q114 0 195 49t124 134h17v-150h256v836h-562v-252h252v-39q0 -318 -231 -318q-77 0 -125 33t-78 102
q-49 113 -49 414q0 298 51 418q59 139 203 139z" />
    <glyph glyph-name="H" unicode="H" 
d="M858 651v-651h336v1567h-336v-654h-405v654h-336v-1567h336v651h405z" />
    <glyph glyph-name="I" unicode="I" 
d="M1137 1313v254h-963v-254h313v-1059h-313v-254h963v254h-314v1059h314z" />
    <glyph glyph-name="J" unicode="J" 
d="M504 -20q245 0 401 112q174 125 174 359v1116h-809v-254h478v-842q0 -114 -74 -168q-63 -49 -176 -49q-102 0 -322 22v-262q180 -34 328 -34z" />
    <glyph glyph-name="K" unicode="K" 
d="M528 651l377 -651h385l-532 899l504 668h-361l-463 -629v629h-329v-1567h329v530z" />
    <glyph glyph-name="L" unicode="L" 
d="M1200 0v272h-676v1295h-336v-1567h1012z" />
    <glyph glyph-name="M" unicode="M" 
d="M391 0v1096h19q8 -78 14 -113l12 -96q6 -46 15 -82l81 -397h236l80 397l14 82q4 33 14 101t15 108h18v-1096h285v1567h-346l-119 -494q-15 -67 -22 -115q-21 -111 -37 -258h-17l-18 136q-17 129 -41 237l-119 494h-358v-1567h274z" />
    <glyph glyph-name="N" unicode="N" 
d="M403 0v1059h19l18 -70q19 -70 58 -172l311 -817h385v1567h-287v-1059h-18q-2 9 -10 33t-11 39q-37 125 -55 172l-311 815h-385v-1567h286z" />
    <glyph glyph-name="O" unicode="O" 
d="M86 778q0 -420 125 -608q132 -203 444 -203q304 0 441 205q129 193 129 606q0 420 -127 611q-133 200 -443 200q-298 0 -433.5 -200t-135.5 -611zM655 225q-68 0 -108.5 28.5t-63.5 92.5q-41 107 -41 432q0 327 43 439q23 64 63 91t107 27q61 0 101.5 -27.5t66.5 -90.5
q47 -122 47 -439q0 -320 -43 -432q-46 -121 -172 -121z" />
    <glyph glyph-name="P" unicode="P" 
d="M489 524h125q299 0 449 119q166 128 166 412q0 271 -154 397q-144 115 -432 115h-489v-1567h335v524zM489 1305h148q129 0 191.5 -58t62.5 -196q0 -258 -258 -258h-144v512z" />
    <glyph glyph-name="Q" unicode="Q" 
d="M1014 104v7q92 66 147 204q64 171 64 463q0 418 -129 611q-133 200 -439 200q-307 0 -440 -200q-131 -192 -131 -611q0 -413 129 -604q136 -201 442 -201q32 0 50 2h43q94 0 153.5 -68.5t104.5 -201.5l278 107q-38 126 -102 193.5t-170 98.5zM655 1335q61 0 101.5 -27.5
t66.5 -90.5q47 -122 47 -437q0 -322 -43 -434q-46 -121 -172 -121q-68 0 -108.5 28.5t-63.5 92.5q-41 107 -41 434q0 325 43 437q23 64 63 91t107 27z" />
    <glyph glyph-name="R" unicode="R" 
d="M1237 0l-332 651v8q116 48 193 148q92 120 92 299q0 289 -232 399q-132 62 -340 62h-493v-1567h336v590h121l288 -590h367zM461 1309h149q120 0 181 -50.5t61 -173.5q0 -119 -63 -173t-185 -54h-143v451z" />
    <glyph glyph-name="S" unicode="S" 
d="M879 1141h323q-28 452 -536 452q-253 0 -398 -135q-143 -131 -143 -334q0 -186 111 -307q90 -98 268 -141l190 -43q118 -26 166.5 -73.5t48.5 -135.5q0 -92 -66 -147.5t-181 -55.5q-240 0 -263 228h-325q17 -235 167.5 -358.5t420.5 -123.5q272 0 424.5 132t152.5 372
q0 185 -101 290.5t-309 156.5l-188 45q-105 25 -145.5 67.5t-40.5 128.5q0 84 59 134t148 50q105 0 161 -59q46 -52 56 -143z" />
    <glyph glyph-name="T" unicode="T" 
d="M86 1567v-262h401v-1305h336v1305h402v262h-1139z" />
    <glyph glyph-name="U" unicode="U" 
d="M117 1567v-1082q0 -264 147 -395q138 -123 387 -123q250 0 391 123q150 131 150 395v1082h-320v-1043q0 -154 -48.5 -218t-164.5 -64q-115 0 -162.5 64t-47.5 218v1043h-332z" />
    <glyph glyph-name="V" unicode="V" 
d="M942 1567l-229 -1014q-23 -113 -29 -164q-4 -28 -8 -80h-25q-4 52 -8 78q-13 100 -29 166l-229 1014h-348l391 -1567h455l391 1567h-332z" />
    <glyph glyph-name="W" unicode="W" 
d="M494 0l96 449q15 75 22 118q20 112 29 205h14q2 -40 13 -102q10 -79 39 -224l90 -446h370l97 1567h-271l-57 -1133h-14l-15 101q-12 86 -30 174l-105 489h-223l-105 -489q-7 -26 -14 -82q-22 -141 -27 -193h-16l-59 1133h-281l96 -1567h351z" />
    <glyph glyph-name="X" unicode="X" 
d="M360 0l277 541h2l279 -541h362l-449 823l410 744h-334l-250 -492h-2l-252 492h-358l422 -770l-440 -797h333z" />
    <glyph glyph-name="Y" unicode="Y" 
d="M823 0v672l461 895h-342l-272 -568h-11l-278 568h-354l460 -901v-666h336z" />
    <glyph glyph-name="Z" unicode="Z" 
d="M823 1305l-725 -1074v-231h1108v264h-735l723 1071v232h-1061v-262h690z" />
    <glyph glyph-name="bracketleft" unicode="[" 
d="M1085 -266v217h-395v1446h395v217h-684v-1880h684z" />
    <glyph glyph-name="backslash" unicode="\" 
d="M1272 -266l-930 1880h-250l930 -1880h250z" />
    <glyph glyph-name="bracketright" unicode="]" 
d="M238 1614v-217h395v-1446h-395v-217h684v1880h-684z" />
    <glyph glyph-name="asciicircum" unicode="^" 
d="M549 1614l-381 -742h242l237 476h2l238 -476h256l-379 742h-215z" />
    <glyph glyph-name="underscore" unicode="_" 
d="M1106 -385v199h-901v-199h901z" />
    <glyph glyph-name="grave" unicode="`" 
d="M760 1614h-375l238 -367h247z" />
    <glyph glyph-name="a" unicode="a" 
d="M831 129h7q22 -80 73 -104.5t150 -24.5h166v242h-53q-32 0 -45 13t-13 44v410q0 220 -123 321q-114 92 -352 92q-210 0 -338 -98q-124 -100 -133 -260h311q5 64 47 101.5t119 37.5q164 0 164 -178v-47q-249 -11 -317 -21q-119 -18 -197 -63q-168 -85 -168 -281
q0 -180 115 -264q102 -74 262 -74q111 0 194.5 43.5t130.5 110.5zM453 324q0 36 14 61q29 70 149 80q13 1 197 14v-8q0 -121 -68 -199q-63 -75 -159 -75q-61 0 -97 33.5t-36 93.5z" />
    <glyph glyph-name="b" unicode="b" 
d="M446 0v111h15q48 -67 118.5 -102.5t180.5 -35.5q209 0 338 150q131 157 131 430q0 295 -121 438q-114 131 -315 131q-119 0 -207 -55q-74 -46 -121 -121h-4v668h-326v-1614h311zM674 190q-108 0 -161.5 81.5t-53.5 217.5v119q0 134 59.5 212.5t153.5 78.5
q116 0 169.5 -85t53.5 -265q0 -177 -57 -268t-164 -91z" />
    <glyph glyph-name="c" unicode="c" 
d="M864 705h330q-9 198 -152 313q-135 106 -366 106q-259 0 -406 -147q-149 -152 -149 -428q0 -275 139 -426.5t414 -151.5q227 0 368 111q147 113 156 326h-324q-3 -89 -47 -144q-53 -63 -153 -63q-125 0 -176 112q-41 82 -41 240q0 155 47 244q54 104 172 104
q171 0 188 -196z" />
    <glyph glyph-name="d" unicode="d" 
d="M846 1614v-633h-4q-91 139 -293 139q-211 0 -334 -147q-135 -157 -135 -438q0 -276 119.5 -420t341.5 -144q111 0 186.5 43t130.5 123h4v-137h309v1614h-325zM848 598v-131q0 -124 -56 -200.5t-161 -76.5q-217 0 -217 355q0 176 59 265t166 89q99 0 154 -78t55 -223z" />
    <glyph glyph-name="e" unicode="e" 
d="M1192 319h-328q-25 -60 -67.5 -89t-124.5 -29q-106 0 -163.5 60.5t-70.5 193.5h764v104q0 249 -129 399q-146 166 -407 166q-266 0 -416 -159q-146 -155 -146 -414q0 -271 142 -422q149 -158 420 -158q227 0 360 91.5t166 256.5zM864 670h-426q14 121 66.5 179t154.5 58
q93 0 146.5 -65t58.5 -162v-10z" />
    <glyph glyph-name="f" unicode="f" 
d="M1167 848v250h-366v106q0 164 168 164q104 0 198 -20v249q-148 27 -243 27q-203 0 -312 -88q-135 -109 -135 -342v-96h-346v-250h346v-848h324v848h366z" />
    <glyph glyph-name="g" unicode="g" 
d="M639 -410q268 0 402.5 127t134.5 375v1006h-310v-137h-4q-32 62 -104 106q-87 53 -205 53q-213 0 -334 -139q-135 -151 -135 -418q0 -264 124 -398t345 -134q107 0 181.5 43.5t113.5 115.5h8v-145q0 -122 -52.5 -178.5t-158.5 -56.5q-170 0 -194 124h-326
q24 -164 151.5 -254t362.5 -90zM852 618v-118q0 -113 -56.5 -185.5t-152.5 -72.5q-110 0 -167.5 84t-57.5 243q0 160 62 245t163 85q99 0 154 -73.5t55 -207.5z" />
    <glyph glyph-name="h" unicode="h" 
d="M1169 0v713q0 208 -84 307.5t-276 99.5q-128 0 -217 -59q-82 -54 -111 -129h-4v682h-325v-1614h325v635q0 252 205 252q85 0 131 -64q31 -47 31 -182v-641h325z" />
    <glyph glyph-name="i" unicode="i" 
d="M848 1235v332h-344v-332h344zM1204 250h-366v848h-656v-248h332v-600h-371v-250h1061v250z" />
    <glyph glyph-name="j" unicode="j" 
d="M981 1567h-344v-332h344v332zM508 -403q196 0 319 90q144 105 144 309v1102h-709v-248h383v-842q0 -87 -42 -122.5t-116 -35.5q-81 0 -225 21v-242q110 -32 246 -32z" />
    <glyph glyph-name="k" unicode="k" 
d="M627 444l280 -444h361l-424 645l399 453h-352l-410 -480v996h-319v-1614h319v274z" />
    <glyph glyph-name="l" unicode="l" 
d="M1200 250h-379v1364h-655v-248h332v-1116h-371v-250h1073v250z" />
    <glyph glyph-name="m" unicode="m" 
d="M362 0v750q0 116 84 116q39 0 57.5 -26t18.5 -88v-752h277v750q0 116 84 116q37 0 56 -25.5t19 -88.5v-752h275v852q0 270 -219 270q-182 0 -223 -180h-11q-30 180 -202 180q-98 0 -151 -47t-79 -133h-8v156h-252v-1098h274z" />
    <glyph glyph-name="n" unicode="n" 
d="M1169 0v713q0 208 -84 307.5t-276 99.5q-131 0 -219 -59q-79 -53 -123 -143h-4v180h-311v-1098h325v635q0 252 205 252q85 0 131 -64q31 -47 31 -182v-641h325z" />
    <glyph glyph-name="o" unicode="o" 
d="M653 -33q255 0 408 156q151 157 151 424q0 272 -151 426q-151 151 -406 151q-259 0 -407 -151q-150 -153 -150 -426q0 -270 148 -424q150 -156 407 -156zM655 899q112 0 166 -98q49 -88 49 -254q0 -162 -47 -252q-57 -102 -168 -102q-112 0 -166 98q-49 88 -49 256
q0 160 49 252q52 100 166 100z" />
    <glyph glyph-name="p" unicode="p" 
d="M461 -385v491h8q94 -133 295 -133q212 0 338 154q127 152 127 426q0 293 -123 438q-114 131 -311 131q-124 0 -215 -61q-76 -49 -121 -141h-6v178h-318v-1483h326zM459 489v119q0 131 62 211t157 80q111 0 164 -87.5t53 -262.5q0 -359 -217 -359q-107 0 -163 80.5
t-56 218.5z" />
    <glyph glyph-name="q" unicode="q" 
d="M860 1098v-150h-4q-42 79 -123 125.5t-184 46.5q-211 0 -334 -147q-135 -157 -135 -438q0 -283 118 -423.5t337 -140.5q115 0 202 56q67 45 105 110h4v-522h325v1483h-311zM631 190q-217 0 -217 355q0 176 59 265t166 89q99 0 154 -78t55 -223v-131q0 -124 -56 -200.5
t-161 -76.5z" />
    <glyph glyph-name="r" unicode="r" 
d="M942 846q129 0 217 -37v272q-73 39 -194 39q-145 0 -242.5 -63t-155.5 -207h-4v248h-313v-1098h325v465q0 181 94.5 281t272.5 100z" />
    <glyph glyph-name="s" unicode="s" 
d="M836 784h303q-13 154 -123 240q-128 100 -357 100q-224 0 -354 -100q-129 -101 -129 -260q0 -150 94 -234q84 -75 240 -98l201 -31q83 -12 115 -33t32 -65q0 -59 -48.5 -84.5t-150.5 -25.5q-104 0 -157 32q-44 26 -56 99h-303q12 -173 135.5 -264t378.5 -91q231 0 363 97
q143 100 143 290q0 127 -79 204.5t-257 105.5l-202 30q-82 12 -115 35t-33 70t47.5 72.5t134.5 25.5q164 0 177 -115z" />
    <glyph glyph-name="t" unicode="t" 
d="M444 848v-508q0 -179 113 -274q106 -89 287 -89q154 0 315 41v248q-110 -30 -213 -30t-141.5 37t-38.5 130v445h391v250h-395v342h-293v-201q0 -91 -30.5 -122.5t-116.5 -31.5h-218v-237h340z" />
    <glyph glyph-name="u" unicode="u" 
d="M141 1098v-731q0 -198 87.5 -292.5t279.5 -94.5q234 0 334 198h4v-178h313v1098h-325v-600q0 -285 -205 -285q-92 0 -129 63q-33 50 -33 181v641h-326z" />
    <glyph glyph-name="v" unicode="v" 
d="M821 0l412 1098h-313l-177 -527q-18 -55 -30 -102q-37 -134 -41 -160h-13q-5 25 -19.5 78t-21.5 82l-32 102l-178 527h-332l409 -1098h336z" />
    <glyph glyph-name="w" unicode="w" 
d="M563 0l68 649l8 70q4 47 8 125h15q1 -10 2 -31.5t2 -32.5q3 -62 12 -131l67 -649h361l143 1098h-260l-55 -670l-6 -68q-1 -11 -2 -32.5t-2 -30.5q-2 -23 -2 -64h-15q-1 9 -2 30t-2 32q-3 62 -12 131l-72 672h-325l-70 -668l-6 -70q-9 -105 -10 -127h-15q-1 10 -2 31.5
t-2 32.5q-2 18 -2 63l-6 68l-53 670h-269l144 -1098h360z" />
    <glyph glyph-name="x" unicode="x" 
d="M420 0l221 360h4l234 -360h356l-393 575l358 523h-346l-190 -320h-5l-202 320h-353l359 -527l-387 -571h344z" />
    <glyph glyph-name="y" unicode="y" 
d="M502 -6l-8 -27q-24 -72 -76 -96q-45 -23 -146 -23q-72 0 -114 11v-252q4 -2 51 -8q54 -7 125 -7q206 0 319 93q97 80 170 280l420 1133h-315l-191 -574q-24 -73 -26 -84q-21 -76 -33 -135h-6q-9 45 -33 135q-5 21 -25 84l-192 574h-334z" />
    <glyph glyph-name="z" unicode="z" 
d="M739 850l-571 -625v-225h965v248h-586l569 622v228h-934v-248h557z" />
    <glyph glyph-name="braceleft" unicode="{" 
d="M283 539h143q109 0 109 -121v-303q0 -201 110 -291t356 -90h60v219q-87 0 -136 12t-73 41q-23 27 -29 69t-6 122v223q0 112 -45.5 169.5t-150.5 80.5v8q104 20 150 78t46 164v231q0 74 8 117.5t31 72.5q25 29 72.5 41.5t132.5 12.5v219h-60q-246 0 -354 -86
q-112 -87 -112 -301v-305q0 -119 -109 -119h-143v-264z" />
    <glyph glyph-name="bar" unicode="|" 
d="M768 -266v1880h-225v-1880h225z" />
    <glyph glyph-name="braceright" unicode="}" 
d="M1028 809h-143q-109 0 -109 121v303q0 201 -110.5 291t-356.5 90h-59v-219q87 0 135.5 -12.5t73.5 -41.5q23 -27 29 -69t6 -121v-223q0 -112 45.5 -169.5t150.5 -80.5v-8q-104 -20 -150 -78t-46 -164v-231q0 -74 -8 -118t-31 -71q-24 -30 -71.5 -42.5t-133.5 -12.5v-219
h59q246 0 357 86q110 88 110 301v305q0 119 109 119h143v264z" />
    <glyph glyph-name="asciitilde" unicode="~" 
d="M209 526h194q6 103 97 103q30 0 71 -15q76 -28 88 -32q126 -50 203 -50q127 0 187 103q51 87 51 242h-189q-4 -57 -26.5 -80t-63.5 -23q-27 0 -73 17q-10 4 -40.5 14.5t-48.5 17.5q-129 47 -206 47q-122 0 -185 -102q-59 -91 -59 -242z" />
    <glyph glyph-name="DEL" horiz-adv-x="1024" 
 />
    <glyph glyph-name="uni00A0" unicode="&#xa0;" 
 />
    <glyph glyph-name="exclamdown" unicode="&#xa1;" 
d="M471 877h369v368h-369v-368zM524 707l-57 -1076h377l-56 1076h-264z" />
    <glyph glyph-name="cent" unicode="&#xa2;" 
d="M1198 408h-319q-11 -176 -144 -207v704q121 -31 135 -200h324q-7 192 -130 299t-329 118v178h-139v-180q-225 -25 -350 -171t-125 -400q0 -264 122.5 -406t352.5 -166v-215h139v213q204 12 328 121q126 111 135 312zM596 899v-692q-89 24 -129 133q-29 79 -29 213
q0 136 33 217q39 96 125 129z" />
    <glyph glyph-name="sterling" unicode="&#xa3;" 
d="M471 258v4l14 14q172 136 150 342h344v199h-391l-35 119q-29 101 -29 164q0 64 25 112q46 84 158 84q97 0 141 -63q37 -53 37 -150h307q0 206 -127 330q-130 127 -365 127q-144 0 -252.5 -49.5t-171.5 -138.5q-64 -89 -75 -208.5t35 -260.5l20 -66h-141v-199h204
q35 -138 -8 -229q-35 -76 -149 -158l-58 -43v-188h1088v258h-721z" />
    <glyph glyph-name="currency" unicode="&#xa4;" 
d="M1130 328l-155 155q32 46 45 121h213v166h-213q-12 65 -47 125l164 164l-113 112l-162 -161q-54 34 -125 51v227h-166v-227q-69 -16 -125 -49l-153 153l-117 -116l152 -152q-32 -54 -45 -127h-205v-166h207q12 -65 47 -125l-158 -157l113 -113l159 160q63 -36 125 -47
v-230h166v230q70 18 119 47l158 -158zM455 690q0 93 54.5 154t141.5 61q89 0 144 -60.5t55 -154.5q0 -93 -54.5 -153t-144.5 -60q-87 0 -141.5 60t-54.5 153z" />
    <glyph glyph-name="yen" unicode="&#xa5;" 
d="M817 0v303h389v156h-389v166h385v155h-366l436 738h-330l-270 -496h-4l-271 496h-356l436 -738h-368v-155h389v-166h-385v-156h385v-303h319z" />
    <glyph glyph-name="brokenbar" unicode="&#xa6;" 
d="M543 1614v-828h225v828h-225zM768 588h-225v-854h225v854z" />
    <glyph glyph-name="section" unicode="&#xa7;" 
d="M104 696q0 -135 78 -213q59 -61 207 -127l293 -127q69 -30 96 -58.5t27 -76.5q0 -56 -41.5 -86.5t-118.5 -30.5q-173 0 -186 150h-289q11 -173 127.5 -268t347.5 -95q206 0 330 95q127 100 127 278q0 137 -96 217v4q200 75 200 275q0 124 -61 201q-63 77 -221 147
l-269 117q-83 36 -114 64.5t-31 86.5q0 51 38 83t109 32q76 0 116.5 -38t45.5 -103h291q-10 163 -117 254q-117 100 -336 100q-193 0 -319 -96q-60 -46 -92.5 -113.5t-32.5 -146.5q0 -158 98 -240v-2q-100 -38 -153.5 -111t-53.5 -172zM389 748q0 44 28 77.5t83 44.5l26 -12
q6 -3 20.5 -10.5t22.5 -11.5l199 -88q85 -38 118.5 -73t33.5 -83t-27.5 -82.5t-77.5 -44.5q-3 1 -12.5 6t-16.5 8q-35 15 -51 23l-194 90q-77 34 -114.5 67.5t-37.5 88.5z" />
    <glyph glyph-name="dieresis" unicode="&#xa8;" 
d="M578 1235v332h-345v-332h345zM1061 1567h-344v-332h344v332z" />
    <glyph glyph-name="copyright" unicode="&#xa9;" 
d="M86 856v-151q0 -336 131 -527q145 -211 438 -211q295 0 439 213q131 191 131 525v151q0 329 -129 520q-151 215 -441 215q-293 0 -438 -215q-131 -189 -131 -520zM244 711v139q0 259 75 410q97 202 336 202q238 0 338 -202q74 -154 74 -410v-139q0 -264 -74 -416
q-100 -199 -338 -199q-239 0 -336 199q-75 149 -75 416zM944 684h-186q-4 -77 -19 -109q-23 -47 -75 -47q-69 0 -84 66q-17 73 -17 192q0 127 19 195q18 63 84 63q46 0 63.5 -37t22.5 -112h190q-9 336 -272 336q-301 0 -301 -447q0 -235 67.5 -341.5t231.5 -106.5
q267 0 276 348z" />
    <glyph glyph-name="ordfeminine" unicode="&#xaa;" 
d="M772 756h6q22 -62 73.5 -82.5t152.5 -20.5h106v203h-27q-29 0 -39 10.5t-10 40.5v283q0 181 -84 262q-94 88 -309 88q-167 0 -273.5 -76.5t-113.5 -206.5l270 -2q4 48 38 73.5t87 25.5q57 0 88 -32t31 -97v-43q-177 -7 -264.5 -18.5t-149.5 -45.5q-135 -72 -135 -215
q0 -121 76 -191.5t215 -70.5q169 0 262 115zM604 829q-45 0 -71.5 24.5t-26.5 70.5q0 25 7.5 40.5t27.5 32.5q7 5 15 9t18.5 7.5t19 5.5t23 4t24 3t28.5 2.5t29.5 2t34 1.5t35.5 2v-35q0 -74 -47 -122t-117 -48z" />
    <glyph glyph-name="guillemotleft" unicode="&#xab;" 
d="M168 532l242 -415h260l-226 411l224 422h-260zM637 532l242 -415h260l-226 411l224 422h-260z" />
    <glyph glyph-name="logicalnot" unicode="&#xac;" 
d="M1174 852h-1037v-238h781v-401h256v639z" />
    <glyph glyph-name="registered" unicode="&#xae;" 
d="M152 1079q0 -105 37.5 -197.5t105.5 -160.5q142 -148 358 -148q107 0 200.5 39t162.5 109q68 68 105.5 160.5t37.5 197.5t-37.5 199t-105.5 164q-144 147 -363 147q-217 0 -358 -147q-68 -70 -105.5 -164t-37.5 -199zM653 674q-170 0 -274 117q-109 115 -109 288
q0 174 109 293q104 117 274 117q171 0 279 -117q108 -118 108 -293q0 -174 -108 -288q-108 -117 -279 -117zM641 1022l96 -197h154l-113 222q42 14 72.5 50t30.5 93q0 82 -60 123q-55 37 -131 37h-233v-525h139v197h45zM596 1251h70q73 0 73 -59q0 -70 -75 -70h-68v129z" />
    <glyph glyph-name="macron" unicode="&#xaf;" 
d="M1006 1288v223h-701v-223h701z" />
    <glyph glyph-name="degree" unicode="&#xb0;" 
d="M231 1128q0 -182 121 -303q117 -120 301 -120q185 0 305 120q119 122 119 303q0 182 -119 304q-123 120 -305 120q-181 0 -301 -120q-121 -121 -121 -304zM653 911q-91 0 -147.5 61t-56.5 156t56.5 157.5t147.5 62.5t148 -62.5t57 -157.5t-57 -156t-148 -61z" />
    <glyph glyph-name="plusminus" unicode="&#xb1;" 
d="M1174 756v237h-392v344h-256v-344h-389v-237h389v-348h256v348h392zM1174 0v236h-1037v-236h1037z" />
    <glyph glyph-name="twosuperior" unicode="&#xb2;" 
d="M231 1378h263q0 115 49 164q43 43 119 43q68 0 105.5 -33.5t37.5 -99.5q0 -64 -31.5 -112.5t-109.5 -114.5l-439 -377v-168h848v209h-463v10l37 25l41 30q15 9 53 39l109 92q118 97 168 179q49 80 49 202q0 140 -96 226q-111 96 -312 96q-204 0 -317 -113
q-111 -111 -111 -297z" />
    <glyph glyph-name="threesuperior" unicode="&#xb3;" 
d="M541 1137h121q78 0 119.5 -35.5t41.5 -102.5q0 -65 -45 -102t-121 -37q-69 0 -115.5 38t-52.5 108h-258q0 -148 101 -242q110 -107 325 -107q199 0 320 99q106 87 106 227q0 113 -56.5 176.5t-166.5 87.5v4q197 62 197 250q0 124 -96 205q-105 84 -295 84
q-207 0 -318 -111q-95 -95 -98 -237h252q5 66 45.5 106.5t118.5 40.5q61 0 97 -32.5t36 -94.5q0 -63 -44 -96t-114 -33h-100v-196z" />
    <glyph glyph-name="acute" unicode="&#xb4;" 
d="M711 1247l237 367h-375l-110 -367h248z" />
    <glyph glyph-name="paragraph" unicode="&#xb6;" 
d="M760 0v1567h-182q-210 0 -324 -94q-131 -105 -131 -304q0 -195 123 -299q116 -101 313 -104v-766h201zM926 0h202v1567h-202v-1567z" />
    <glyph glyph-name="periodcentered" unicode="&#xb7;" 
d="M840 463v368h-369v-368h369z" />
    <glyph glyph-name="cedilla" unicode="&#xb8;" 
d="M657 -436q132 0 194 55t62 148q0 74 -51 114.5t-147 40.5h-58l76 152h-135l-152 -289h168q22 25 56 25q65 0 65 -62q0 -63 -65 -63q-51 0 -64 41h-180q3 -67 55 -113q55 -49 176 -49z" />
    <glyph glyph-name="onesuperior" unicode="&#xb9;" 
d="M1114 885h-264v889h-236q-3 -106 -59 -150q-58 -47 -168 -47h-68v-176h261v-516h-281v-205h815v205z" />
    <glyph glyph-name="ordmasculine" unicode="&#xba;" 
d="M655 633q200 0 324 121q127 124 127 331q0 217 -127 338q-127 115 -324 115q-211 0 -330.5 -117.5t-119.5 -335.5q0 -215 120.5 -333.5t329.5 -118.5zM655 834q-82 0 -123 73q-34 61 -34 178t32 177q37 75 125 75q86 0 125 -71q33 -59 33 -181q0 -117 -29 -176
q-40 -75 -129 -75z" />
    <glyph glyph-name="guillemotright" unicode="&#xbb;" 
d="M674 535l-242 415h-260l225 -411l-223 -422h260zM1143 535l-242 415h-260l225 -411l-223 -422h260z" />
    <glyph glyph-name="onequarter" unicode="&#xbc;" horiz-adv-x="3932" 
d="M1114 731h-264v889h-236q-3 -106 -59 -150q-58 -47 -168 -47h-68v-176h261v-516h-281v-205h815v205zM1577 -82l1116 1679h-215l-1116 -1679h215zM3545 354h-166v656h-350l-424 -672v-191h522v-229h252v229h166v207zM2851 350l201 324q17 25 30 55q5 11 13.5 27.5
t9.5 17.5q14 31 18 39h12v-463h-284z" />
    <glyph glyph-name="onehalf" unicode="&#xbd;" horiz-adv-x="3932" 
d="M1114 731h-264v889h-236q-3 -106 -59 -150q-58 -47 -168 -47h-68v-176h261v-516h-281v-205h815v205zM1516 -82l1116 1679h-215l-1117 -1679h216zM2648 616h262q0 115 49 164q43 43 119 43q68 0 106 -33.5t38 -99.5q0 -64 -32 -112.5t-110 -114.5l-438 -377v-168h848v209
h-463v10l37 25l41 31q21 13 53 38l109 93q117 96 167 178q50 81 50 203q0 138 -97 225q-111 96 -311 96q-204 0 -317 -113q-111 -111 -111 -297z" />
    <glyph glyph-name="threequarters" unicode="&#xbe;" horiz-adv-x="3932" 
d="M541 983h121q78 0 119.5 -35t41.5 -102q0 -65 -45 -102t-121 -37q-69 0 -115.5 37.5t-52.5 107.5h-258q0 -148 101 -242q109 -106 325 -106q200 0 320 98q106 87 106 227q0 113 -56.5 177t-166.5 88v4q197 62 197 250q0 123 -96 204q-105 84 -295 84q-208 0 -318 -110
q-95 -95 -98 -238h252q5 66 45.5 107t118.5 41q61 0 97 -32.5t36 -94.5q0 -63 -44 -96t-114 -33h-100v-197zM1556 -82l1117 1679h-215l-1117 -1679h215zM3545 354h-166v656h-350l-424 -672v-191h522v-229h252v229h166v207zM2851 350l201 324q17 25 30 55q5 11 13.5 27.5
t9.5 17.5q14 31 18 39h12v-463h-284z" />
    <glyph glyph-name="questiondown" unicode="&#xbf;" 
d="M471 877h369v368h-369v-368zM438 57q0 71 30 117.5t97 104.5l113 92q85 70 104 112t19 140v84h-287v-29q0 -47 -11.5 -70.5t-45.5 -54.5l-168 -141q-81 -66 -121 -133q-55 -95 -55 -224q0 -197 125 -313q137 -127 403 -127t420 154q144 144 141 393h-323q0 -150 -72 -225
q-61 -64 -166 -64q-97 0 -150 49t-53 135z" />
    <glyph glyph-name="Agrave" unicode="&#xc0;" 
d="M309 1966l223 -272h256l-100 272h-379zM1243 0l-350 1567h-475l-350 -1567h319l76 346h368l76 -346h336zM633 1315h31q4 -73 10 -113q18 -162 41 -266l65 -342h-268l63 340q18 88 25 141q4 25 29 205z" />
    <glyph glyph-name="Aacute" unicode="&#xc1;" 
d="M784 1696l224 272h-379l-101 -272h256zM1243 0l-350 1567h-475l-350 -1567h319l76 346h368l76 -346h336zM633 1315h31q4 -73 10 -113q18 -162 41 -266l65 -342h-268l63 340q18 88 25 141q4 25 29 205z" />
    <glyph glyph-name="Acircumflex" unicode="&#xc2;" 
d="M502 1966l-209 -272h225l127 102h2l129 -102h246l-213 272h-307zM1243 0l-350 1567h-475l-350 -1567h319l76 346h368l76 -346h336zM633 1315h31q4 -73 10 -113q18 -162 41 -266l65 -342h-268l63 340q18 88 25 141q4 25 29 205z" />
    <glyph glyph-name="Atilde" unicode="&#xc3;" 
d="M274 1673h187q0 38 20.5 63t57.5 25q41 0 137 -39q100 -41 164 -41q121 0 188 93q55 78 55 225h-186q0 -40 -20.5 -65t-57.5 -25t-137 41q-99 39 -164 39q-124 0 -188 -93q-56 -82 -56 -223zM1243 0l-350 1567h-475l-350 -1567h319l76 346h368l76 -346h336zM633 1315h31
q4 -73 10 -113q18 -162 41 -266l65 -342h-268l63 340q18 88 25 141q4 25 29 205z" />
    <glyph glyph-name="Adieresis" unicode="&#xc4;" 
d="M582 1675v332h-344v-332h344zM1073 1675v332h-344v-332h344zM1243 0l-350 1567h-475l-350 -1567h319l76 346h368l76 -346h336zM633 1315h31q4 -73 10 -113q18 -162 41 -266l65 -342h-268l63 340q18 88 25 141q4 25 29 205z" />
    <glyph glyph-name="Aring" unicode="&#xc5;" 
d="M647 1626q112 0 189 74q73 70 73 184q0 111 -73 187q-73 73 -189 73q-113 0 -186 -73q-74 -77 -74 -187q0 -113 74 -184q77 -74 186 -74zM647 2009q50 0 82.5 -36.5t32.5 -88.5q0 -54 -32 -88.5t-83 -34.5q-49 0 -80.5 34.5t-31.5 88.5q0 52 31.5 88.5t80.5 36.5zM1243 0
l-350 1567h-475l-350 -1567h319l76 346h368l76 -346h336zM633 1315h31q4 -73 10 -113q18 -162 41 -266l65 -342h-268l63 340q18 88 25 141q4 25 29 205z" />
    <glyph glyph-name="AE" unicode="&#xc6;" 
d="M618 375v-375h678v254h-368v403h313v250h-313v404h350v256h-956l-357 -1567h311l78 375h264zM406 621l143 690h69v-690h-212z" />
    <glyph glyph-name="Ccedilla" unicode="&#xc7;" 
d="M651 -440q132 0 194 55t62 147q0 74 -51 115t-147 41h-58l25 49h4q254 0 397 152q141 150 150 413h-334q-12 -161 -58.5 -231t-148.5 -70q-153 0 -207 138q-45 116 -45 405q0 298 45 416q53 135 197 135q107 0 156 -68.5t61 -220.5h332q-9 253 -144 400
q-147 153 -405 153q-318 0 -459 -219q-129 -201 -129 -608q0 -353 98 -539q109 -207 357 -246l-103 -196h168q21 24 56 24q65 0 65 -61q0 -63 -65 -63q-51 0 -64 40h-180q3 -66 55 -112q55 -49 176 -49z" />
    <glyph glyph-name="Egrave" unicode="&#xc8;" 
d="M346 1966l223 -272h256l-100 272h-379zM1171 0v262h-653v389h598v260h-598v394h635v262h-971v-1567h989z" />
    <glyph glyph-name="Eacute" unicode="&#xc9;" 
d="M813 1694l223 272h-379l-100 -272h256zM1171 0v262h-653v389h598v260h-598v394h635v262h-971v-1567h989z" />
    <glyph glyph-name="Ecircumflex" unicode="&#xca;" 
d="M530 1966l-208 -272h225l127 102h2l129 -102h246l-213 272h-308zM1171 0v262h-653v389h598v260h-598v394h635v262h-971v-1567h989z" />
    <glyph glyph-name="Edieresis" unicode="&#xcb;" 
d="M610 1675v332h-344v-332h344zM1102 1675v332h-344v-332h344zM1171 0v262h-653v389h598v260h-598v394h635v262h-971v-1567h989z" />
    <glyph glyph-name="Igrave" unicode="&#xcc;" 
d="M303 1966l223 -272h256l-100 272h-379zM1137 1313v254h-963v-254h313v-1059h-313v-254h963v254h-314v1059h314z" />
    <glyph glyph-name="Iacute" unicode="&#xcd;" 
d="M799 1694l223 272h-379l-100 -272h256zM1137 1313v254h-963v-254h313v-1059h-313v-254h963v254h-314v1059h314z" />
    <glyph glyph-name="Icircumflex" unicode="&#xce;" 
d="M500 1966l-209 -272h225l127 102h2l129 -102h246l-213 272h-307zM1137 1313v254h-963v-254h313v-1059h-313v-254h963v254h-314v1059h314z" />
    <glyph glyph-name="Idieresis" unicode="&#xcf;" 
d="M582 1675v332h-344v-332h344zM1073 1675v332h-344v-332h344zM1137 1313v254h-963v-254h313v-1059h-313v-254h963v254h-314v1059h314z" />
    <glyph glyph-name="Eth" unicode="&#xd0;" 
d="M137 0h377q711 0 711 778q0 418 -176 606q-171 183 -533 183h-379v-666h-131v-229h131v-672zM473 672h229v229h-229v410h47q175 0 258 -115q90 -129 90 -418q0 -278 -92 -403q-83 -115 -264 -115h-39v412z" />
    <glyph glyph-name="Ntilde" unicode="&#xd1;" 
d="M303 1673h186q0 38 20.5 63t57.5 25q42 0 138 -39q100 -41 163 -41q122 0 189 93q55 78 55 225h-186q0 -40 -20.5 -65t-57.5 -25t-137 41q-99 39 -164 39q-125 0 -189 -93q-55 -80 -55 -223zM403 0v1059h19l18 -70q19 -70 58 -172l311 -817h385v1567h-287v-1059h-18
q-2 9 -10 33t-11 39q-37 125 -55 172l-311 815h-385v-1567h286z" />
    <glyph glyph-name="Ograve" unicode="&#xd2;" 
d="M307 1966l223 -272h256l-100 272h-379zM86 778q0 -420 125 -608q132 -203 444 -203q304 0 441 205q129 193 129 606q0 420 -127 611q-133 200 -443 200q-298 0 -433.5 -200t-135.5 -611zM655 225q-68 0 -108.5 28.5t-63.5 92.5q-41 107 -41 432q0 327 43 439q23 64 63 91
t107 27q61 0 101.5 -27.5t66.5 -90.5q47 -122 47 -439q0 -320 -43 -432q-46 -121 -172 -121z" />
    <glyph glyph-name="Oacute" unicode="&#xd3;" 
d="M780 1694l224 272h-379l-101 -272h256zM86 778q0 -420 125 -608q132 -203 444 -203q304 0 441 205q129 193 129 606q0 420 -127 611q-133 200 -443 200q-298 0 -433.5 -200t-135.5 -611zM655 225q-68 0 -108.5 28.5t-63.5 92.5q-41 107 -41 432q0 327 43 439q23 64 63 91
t107 27q61 0 101.5 -27.5t66.5 -90.5q47 -122 47 -439q0 -320 -43 -432q-46 -121 -172 -121z" />
    <glyph glyph-name="Ocircumflex" unicode="&#xd4;" 
d="M512 1966l-209 -272h225l127 102h2l129 -102h246l-213 272h-307zM86 778q0 -420 125 -608q132 -203 444 -203q304 0 441 205q129 193 129 606q0 420 -127 611q-133 200 -443 200q-298 0 -433.5 -200t-135.5 -611zM655 225q-68 0 -108.5 28.5t-63.5 92.5q-41 107 -41 432
q0 327 43 439q23 64 63 91t107 27q61 0 101.5 -27.5t66.5 -90.5q47 -122 47 -439q0 -320 -43 -432q-46 -121 -172 -121z" />
    <glyph glyph-name="Otilde" unicode="&#xd5;" 
d="M291 1673h186q0 38 20.5 63t57.5 25q41 0 137 -39q100 -41 164 -41q121 0 188 93q56 79 56 225h-187q0 -40 -20 -65t-57 -25q-38 0 -138 41q-99 39 -163 39q-125 0 -189 -93q-55 -80 -55 -223zM86 778q0 -420 125 -608q132 -203 444 -203q304 0 441 205q129 193 129 606
q0 420 -127 611q-133 200 -443 200q-298 0 -433.5 -200t-135.5 -611zM655 225q-68 0 -108.5 28.5t-63.5 92.5q-41 107 -41 432q0 327 43 439q23 64 63 91t107 27q61 0 101.5 -27.5t66.5 -90.5q47 -122 47 -439q0 -320 -43 -432q-46 -121 -172 -121z" />
    <glyph glyph-name="Odieresis" unicode="&#xd6;" 
d="M582 1675v332h-344v-332h344zM1073 1675v332h-344v-332h344zM86 778q0 -420 125 -608q132 -203 444 -203q304 0 441 205q129 193 129 606q0 420 -127 611q-133 200 -443 200q-298 0 -433.5 -200t-135.5 -611zM655 225q-68 0 -108.5 28.5t-63.5 92.5q-41 107 -41 432
q0 327 43 439q23 64 63 91t107 27q61 0 101.5 -27.5t66.5 -90.5q47 -122 47 -439q0 -320 -43 -432q-46 -121 -172 -121z" />
    <glyph glyph-name="multiply" unicode="&#xd7;" 
d="M653 541l342 -346l176 178l-344 340l344 342l-176 174l-340 -344l-340 344l-176 -178l344 -340l-346 -340l176 -176z" />
    <glyph glyph-name="Oslash" unicode="&#xd8;" 
d="M1225 778q0 389 -117 584l164 262h-185l-86 -137q-132 102 -346 102q-298 0 -433.5 -200t-135.5 -611q0 -377 111 -577l-158 -252h184l80 127q133 -109 352 -109q304 0 441 205q129 193 129 606zM655 1341q127 0 176 -127l-391 -626q-4 54 -4 82v90q0 342 43 459
q24 66 66 94t110 28zM655 219q-73 0 -116 30t-66 99l397 635q7 -96 7 -190q0 -328 -46 -451q-24 -66 -66 -94.5t-110 -28.5z" />
    <glyph glyph-name="Ugrave" unicode="&#xd9;" 
d="M309 1966l223 -272h256l-100 272h-379zM117 1567v-1082q0 -264 147 -395q138 -123 387 -123q250 0 391 123q150 131 150 395v1082h-320v-1043q0 -154 -48.5 -218t-164.5 -64q-115 0 -162.5 64t-47.5 218v1043h-332z" />
    <glyph glyph-name="Uacute" unicode="&#xda;" 
d="M778 1694l223 272h-378l-101 -272h256zM117 1567v-1082q0 -264 147 -395q138 -123 387 -123q250 0 391 123q150 131 150 395v1082h-320v-1043q0 -154 -48.5 -218t-164.5 -64q-115 0 -162.5 64t-47.5 218v1043h-332z" />
    <glyph glyph-name="Ucircumflex" unicode="&#xdb;" 
d="M508 1966l-209 -272h225l127 102h2l129 -102h246l-213 272h-307zM117 1567v-1082q0 -264 147 -395q138 -123 387 -123q250 0 391 123q150 131 150 395v1082h-320v-1043q0 -154 -48.5 -218t-164.5 -64q-115 0 -162.5 64t-47.5 218v1043h-332z" />
    <glyph glyph-name="Udieresis" unicode="&#xdc;" 
d="M582 1675v332h-344v-332h344zM1073 1675v332h-344v-332h344zM117 1567v-1082q0 -264 147 -395q138 -123 387 -123q250 0 391 123q150 131 150 395v1082h-320v-1043q0 -154 -48.5 -218t-164.5 -64q-115 0 -162.5 64t-47.5 218v1043h-332z" />
    <glyph glyph-name="Yacute" unicode="&#xdd;" 
d="M786 1694l224 272h-379l-101 -272h256zM823 0v672l461 895h-342l-272 -568h-11l-278 568h-354l460 -901v-666h336z" />
    <glyph glyph-name="Thorn" unicode="&#xde;" 
d="M465 330h149q277 0 424 100q172 120 172 375q0 242 -161 358q-140 101 -406 101h-178v303h-336v-1567h336v330zM465 586v424h170q119 0 181.5 -48t62.5 -159q0 -109 -60.5 -160.5t-177.5 -56.5h-176z" />
    <glyph glyph-name="germandbls" unicode="&#xdf;" 
d="M475 0v1161q0 110 50 163.5t128 53.5q79 0 133 -51.5t54 -146.5q0 -205 -191 -205h-28v-240h32q118 0 185 -64.5t67 -185.5q0 -110 -66 -173.5t-167 -63.5h-51v-248h67q258 0 397.5 118.5t139.5 344.5q0 165 -82 264.5t-228 132.5v6q89 29 154 109q72 89 72 227
q0 182 -127 297q-131 115 -348 115q-257 0 -385.5 -127.5t-128.5 -358.5v-1128h323z" />
    <glyph glyph-name="agrave" unicode="&#xe0;" 
d="M680 1614h-375l238 -367h248zM831 129h7q22 -80 73 -104.5t150 -24.5h166v242h-53q-32 0 -45 13t-13 44v410q0 220 -123 321q-114 92 -352 92q-210 0 -338 -98q-124 -100 -133 -260h311q5 64 47 101.5t119 37.5q164 0 164 -178v-47q-249 -11 -317 -21q-119 -18 -197 -63
q-168 -85 -168 -281q0 -180 115 -264q102 -74 262 -74q111 0 194.5 43.5t130.5 110.5zM453 324q0 36 14 61q29 70 149 80q13 1 197 14v-8q0 -121 -68 -199q-63 -75 -159 -75q-61 0 -97 33.5t-36 93.5z" />
    <glyph glyph-name="aacute" unicode="&#xe1;" 
d="M758 1247l237 367h-374l-111 -367h248zM831 129h7q22 -80 73 -104.5t150 -24.5h166v242h-53q-32 0 -45 13t-13 44v410q0 220 -123 321q-114 92 -352 92q-210 0 -338 -98q-124 -100 -133 -260h311q5 64 47 101.5t119 37.5q164 0 164 -178v-47q-249 -11 -317 -21
q-119 -18 -197 -63q-168 -85 -168 -281q0 -180 115 -264q102 -74 262 -74q111 0 194.5 43.5t130.5 110.5zM453 324q0 36 14 61q29 70 149 80q13 1 197 14v-8q0 -121 -68 -199q-63 -75 -159 -75q-61 0 -97 33.5t-36 93.5z" />
    <glyph glyph-name="acircumflex" unicode="&#xe2;" 
d="M530 1614l-223 -367h228l124 148h3l131 -148h243l-225 367h-281zM831 129h7q22 -80 73 -104.5t150 -24.5h166v242h-53q-32 0 -45 13t-13 44v410q0 220 -123 321q-114 92 -352 92q-210 0 -338 -98q-124 -100 -133 -260h311q5 64 47 101.5t119 37.5q164 0 164 -178v-47
q-249 -11 -317 -21q-119 -18 -197 -63q-168 -85 -168 -281q0 -180 115 -264q102 -74 262 -74q111 0 194.5 43.5t130.5 110.5zM453 324q0 36 14 61q29 70 149 80q13 1 197 14v-8q0 -121 -68 -199q-63 -75 -159 -75q-61 0 -97 33.5t-36 93.5z" />
    <glyph glyph-name="atilde" unicode="&#xe3;" 
d="M268 1247h197q0 47 20.5 75t55.5 28q11 0 23 -2t29.5 -8.5t26 -9.5t33.5 -13.5t31 -13.5q110 -50 170 -50q125 0 190 101q54 84 54 241h-199q0 -102 -76 -102q-39 0 -139 47t-172 47q-125 0 -188 -98q-56 -83 -56 -242zM831 129h7q22 -80 73 -104.5t150 -24.5h166v242
h-53q-32 0 -45 13t-13 44v410q0 220 -123 321q-114 92 -352 92q-210 0 -338 -98q-124 -100 -133 -260h311q5 64 47 101.5t119 37.5q164 0 164 -178v-47q-249 -11 -317 -21q-119 -18 -197 -63q-168 -85 -168 -281q0 -180 115 -264q102 -74 262 -74q111 0 194.5 43.5
t130.5 110.5zM453 324q0 36 14 61q29 70 149 80q13 1 197 14v-8q0 -121 -68 -199q-63 -75 -159 -75q-61 0 -97 33.5t-36 93.5z" />
    <glyph glyph-name="adieresis" unicode="&#xe4;" 
d="M592 1235v332h-344v-332h344zM1075 1567h-344v-332h344v332zM831 129h7q22 -80 73 -104.5t150 -24.5h166v242h-53q-32 0 -45 13t-13 44v410q0 220 -123 321q-114 92 -352 92q-210 0 -338 -98q-124 -100 -133 -260h311q5 64 47 101.5t119 37.5q164 0 164 -178v-47
q-249 -11 -317 -21q-119 -18 -197 -63q-168 -85 -168 -281q0 -180 115 -264q102 -74 262 -74q111 0 194.5 43.5t130.5 110.5zM453 324q0 36 14 61q29 70 149 80q13 1 197 14v-8q0 -121 -68 -199q-63 -75 -159 -75q-61 0 -97 33.5t-36 93.5z" />
    <glyph glyph-name="aring" unicode="&#xe5;" 
d="M395 1452q0 -113 74 -184q77 -74 186 -74q112 0 189 74q74 71 74 184q0 109 -74 186q-74 74 -189 74q-112 0 -186 -74q-74 -77 -74 -186zM655 1329q-49 0 -80.5 34.5t-31.5 88.5q0 52 31.5 88.5t80.5 36.5q50 0 82.5 -36.5t32.5 -88.5q0 -54 -32 -88.5t-83 -34.5z
M831 129h7q22 -80 73 -104.5t150 -24.5h166v242h-53q-32 0 -45 13t-13 44v410q0 220 -123 321q-114 92 -352 92q-210 0 -338 -98q-124 -100 -133 -260h311q5 64 47 101.5t119 37.5q164 0 164 -178v-47q-249 -11 -317 -21q-119 -18 -197 -63q-168 -85 -168 -281
q0 -180 115 -264q102 -74 262 -74q111 0 194.5 43.5t130.5 110.5zM453 324q0 36 14 61q29 70 149 80q13 1 197 14v-8q0 -121 -68 -199q-63 -75 -159 -75q-61 0 -97 33.5t-36 93.5z" />
    <glyph glyph-name="ae" unicode="&#xe6;" 
d="M1239 319h-258q-12 -129 -94 -129q-62 0 -84 58q-29 66 -29 231l471 2v78q0 277 -74 414q-82 151 -270 151q-87 0 -142 -29.5t-93 -84.5h-7q-77 112 -233 112q-150 0 -240 -92.5t-96 -257.5h254q4 141 90 141q48 0 66 -45t18 -139v-72q-119 0 -198 -20.5t-138 -69.5
q-114 -97 -114 -264q0 -155 74 -239t214 -84q93 0 157 38.5t108 122.5h8q27 -75 94 -119.5t164 -44.5q316 0 352 342zM991 657h-217q3 129 29 199q21 66 80 66q105 0 108 -248v-17zM408 203q-93 0 -93 127q0 59 37 106q36 45 168 45v-86q0 -192 -112 -192z" />
    <glyph glyph-name="ccedilla" unicode="&#xe7;" 
d="M672 -436q132 0 194 55t62 148q0 74 -51.5 114.5t-147.5 40.5h-57l24 49q214 3 353 117q140 112 149 320h-324q-3 -89 -47 -144q-53 -63 -153 -63q-125 0 -176 112q-41 82 -41 240q0 155 47 244q54 104 172 104q171 0 188 -196h330q-9 198 -152 313q-135 106 -366 106
q-259 0 -406 -147q-149 -152 -149 -428q0 -247 110 -393.5t332 -175.5l-102 -195h168q22 25 55 25q66 0 66 -62q0 -63 -66 -63q-50 0 -63 41h-181q3 -66 56 -113q55 -49 176 -49z" />
    <glyph glyph-name="egrave" unicode="&#xe8;" 
d="M692 1614h-375l238 -367h248zM1192 319h-328q-25 -60 -67.5 -89t-124.5 -29q-106 0 -163.5 60.5t-70.5 193.5h764v104q0 249 -129 399q-146 166 -407 166q-266 0 -416 -159q-146 -155 -146 -414q0 -271 142 -422q149 -158 420 -158q227 0 360 91.5t166 256.5zM864 670
h-426q14 121 66.5 179t154.5 58q93 0 146.5 -65t58.5 -162v-10z" />
    <glyph glyph-name="eacute" unicode="&#xe9;" 
d="M788 1247l238 367h-375l-110 -367h247zM1192 319h-328q-25 -60 -67.5 -89t-124.5 -29q-106 0 -163.5 60.5t-70.5 193.5h764v104q0 249 -129 399q-146 166 -407 166q-266 0 -416 -159q-146 -155 -146 -414q0 -271 142 -422q149 -158 420 -158q227 0 360 91.5t166 256.5z
M864 670h-426q14 121 66.5 179t154.5 58q93 0 146.5 -65t58.5 -162v-10z" />
    <glyph glyph-name="ecircumflex" unicode="&#xea;" 
d="M541 1614l-224 -367h228l125 148h2l131 -148h244l-226 367h-280zM1192 319h-328q-25 -60 -67.5 -89t-124.5 -29q-106 0 -163.5 60.5t-70.5 193.5h764v104q0 249 -129 399q-146 166 -407 166q-266 0 -416 -159q-146 -155 -146 -414q0 -271 142 -422q149 -158 420 -158
q227 0 360 91.5t166 256.5zM864 670h-426q14 121 66.5 179t154.5 58q93 0 146.5 -65t58.5 -162v-10z" />
    <glyph glyph-name="edieresis" unicode="&#xeb;" 
d="M600 1235v332h-344v-332h344zM1083 1567h-344v-332h344v332zM1192 319h-328q-25 -60 -67.5 -89t-124.5 -29q-106 0 -163.5 60.5t-70.5 193.5h764v104q0 249 -129 399q-146 166 -407 166q-266 0 -416 -159q-146 -155 -146 -414q0 -271 142 -422q149 -158 420 -158
q227 0 360 91.5t166 256.5zM864 670h-426q14 121 66.5 179t154.5 58q93 0 146.5 -65t58.5 -162v-10z" />
    <glyph glyph-name="igrave" unicode="&#xec;" 
d="M676 1614h-375l238 -367h247zM1221 250h-383v848h-656v-248h332v-600h-371v-250h1078v250z" />
    <glyph glyph-name="iacute" unicode="&#xed;" 
d="M797 1247l237 367h-375l-110 -367h248zM1221 250h-383v848h-656v-248h332v-600h-371v-250h1078v250z" />
    <glyph glyph-name="icircumflex" unicode="&#xee;" 
d="M537 1614l-224 -367h228l125 148h2l131 -148h243l-225 367h-280zM1221 250h-383v848h-656v-248h332v-600h-371v-250h1078v250z" />
    <glyph glyph-name="idieresis" unicode="&#xef;" 
d="M588 1235v332h-344v-332h344zM1071 1567h-344v-332h344v332zM1221 250h-383v848h-656v-248h332v-600h-371v-250h1078v250z" />
    <glyph glyph-name="eth" unicode="&#xf0;" 
d="M649 -29q256 0 408 158q155 164 155 467q0 477 -321 774l158 51l-48 146l-251 -84q-125 85 -279 145l-240 -112q127 -77 215 -134l-251 -84l47 -145l358 119q141 -114 193 -223l-11 -9q-84 70 -213 70q-192 0 -331 -158q-140 -160 -140 -403q0 -263 148 -420
q149 -158 403 -158zM657 905q222 0 222 -356q0 -167 -52 -256q-58 -103 -176 -103q-114 0 -170 101q-49 88 -49 256q0 162 55 256q60 102 170 102z" />
    <glyph glyph-name="ntilde" unicode="&#xf1;" 
d="M270 1247h197q0 47 20.5 75t55.5 28q11 0 23 -2t29.5 -8.5t26 -9.5t33.5 -13.5t31 -13.5q110 -50 170 -50q126 0 191 101q53 83 53 241h-199q0 -102 -76 -102q-39 0 -139 47t-172 47q-125 0 -188 -98q-56 -83 -56 -242zM1169 0v713q0 208 -84 307.5t-276 99.5
q-131 0 -219 -59q-79 -53 -123 -143h-4v180h-311v-1098h325v635q0 252 205 252q85 0 131 -64q31 -47 31 -182v-641h325z" />
    <glyph glyph-name="ograve" unicode="&#xf2;" 
d="M670 1614h-375l237 -367h248zM653 -33q255 0 408 156q151 157 151 424q0 272 -151 426q-151 151 -406 151q-259 0 -407 -151q-150 -153 -150 -426q0 -270 148 -424q150 -156 407 -156zM655 899q112 0 166 -98q49 -88 49 -254q0 -162 -47 -252q-57 -102 -168 -102
q-112 0 -166 98q-49 88 -49 256q0 160 49 252q52 100 166 100z" />
    <glyph glyph-name="oacute" unicode="&#xf3;" 
d="M776 1247l238 367h-375l-111 -367h248zM653 -33q255 0 408 156q151 157 151 424q0 272 -151 426q-151 151 -406 151q-259 0 -407 -151q-150 -153 -150 -426q0 -270 148 -424q150 -156 407 -156zM655 899q112 0 166 -98q49 -88 49 -254q0 -162 -47 -252
q-57 -102 -168 -102q-112 0 -166 98q-49 88 -49 256q0 160 49 252q52 100 166 100z" />
    <glyph glyph-name="ocircumflex" unicode="&#xf4;" 
d="M522 1614l-223 -367h227l125 148h2l131 -148h244l-225 367h-281zM653 -33q255 0 408 156q151 157 151 424q0 272 -151 426q-151 151 -406 151q-259 0 -407 -151q-150 -153 -150 -426q0 -270 148 -424q150 -156 407 -156zM655 899q112 0 166 -98q49 -88 49 -254
q0 -162 -47 -252q-57 -102 -168 -102q-112 0 -166 98q-49 88 -49 256q0 160 49 252q52 100 166 100z" />
    <glyph glyph-name="otilde" unicode="&#xf5;" 
d="M262 1247h197q0 47 20.5 75t55.5 28q11 0 23 -2t29.5 -8.5t26 -9.5t33.5 -13.5t31 -13.5q110 -50 170 -50q125 0 190 101q54 84 54 241h-199q0 -102 -76 -102q-39 0 -139 47t-172 47q-126 0 -189 -98q-55 -82 -55 -242zM653 -33q255 0 408 156q151 157 151 424
q0 272 -151 426q-151 151 -406 151q-259 0 -407 -151q-150 -153 -150 -426q0 -270 148 -424q150 -156 407 -156zM655 899q112 0 166 -98q49 -88 49 -254q0 -162 -47 -252q-57 -102 -168 -102q-112 0 -166 98q-49 88 -49 256q0 160 49 252q52 100 166 100z" />
    <glyph glyph-name="odieresis" unicode="&#xf6;" 
d="M582 1235v332h-344v-332h344zM1065 1567h-344v-332h344v332zM653 -33q255 0 408 156q151 157 151 424q0 272 -151 426q-151 151 -406 151q-259 0 -407 -151q-150 -153 -150 -426q0 -270 148 -424q150 -156 407 -156zM655 899q112 0 166 -98q49 -88 49 -254
q0 -162 -47 -252q-57 -102 -168 -102q-112 0 -166 98q-49 88 -49 256q0 160 49 252q52 100 166 100z" />
    <glyph glyph-name="divide" unicode="&#xf7;" 
d="M840 979v364h-369v-364h369zM1174 614v238h-1037v-238h1037zM840 487h-369v-364h369v364z" />
    <glyph glyph-name="oslash" unicode="&#xf8;" 
d="M1210 549q0 251 -131 401l178 221h-194l-100 -122q-126 75 -308 75q-259 0 -407 -151q-150 -156 -150 -424q0 -253 131 -406l-178 -221h193l102 125q128 -76 307 -76q249 0 402 156q155 155 155 422zM655 911q99 0 150 -57l-369 -457q-12 67 -12 152q0 162 51 258
q55 104 180 104zM655 186q-99 0 -151 58l370 454q11 -86 11 -149q0 -166 -49 -258q-56 -105 -181 -105z" />
    <glyph glyph-name="ugrave" unicode="&#xf9;" 
d="M674 1614h-375l238 -367h247zM141 1098v-731q0 -198 87.5 -292.5t279.5 -94.5q234 0 334 198h4v-178h313v1098h-325v-600q0 -285 -205 -285q-92 0 -129 63q-33 50 -33 181v641h-326z" />
    <glyph glyph-name="uacute" unicode="&#xfa;" 
d="M768 1247l238 367h-375l-111 -367h248zM141 1098v-731q0 -198 87.5 -292.5t279.5 -94.5q234 0 334 198h4v-178h313v1098h-325v-600q0 -285 -205 -285q-92 0 -129 63q-33 50 -33 181v641h-326z" />
    <glyph glyph-name="ucircumflex" unicode="&#xfb;" 
d="M528 1614l-223 -367h227l125 148h2l132 -148h243l-225 367h-281zM141 1098v-731q0 -198 87.5 -292.5t279.5 -94.5q234 0 334 198h4v-178h313v1098h-325v-600q0 -285 -205 -285q-92 0 -129 63q-33 50 -33 181v641h-326z" />
    <glyph glyph-name="udieresis" unicode="&#xfc;" 
d="M586 1235v332h-344v-332h344zM1069 1567h-344v-332h344v332zM141 1098v-731q0 -198 87.5 -292.5t279.5 -94.5q234 0 334 198h4v-178h313v1098h-325v-600q0 -285 -205 -285q-92 0 -129 63q-33 50 -33 181v641h-326z" />
    <glyph glyph-name="yacute" unicode="&#xfd;" 
d="M780 1247l238 367h-375l-111 -367h248zM502 -6l-8 -27q-24 -72 -76 -96q-45 -23 -146 -23q-72 0 -114 11v-252q4 -2 51 -8q54 -7 125 -7q206 0 319 93q97 80 170 280l420 1133h-315l-191 -574q-24 -73 -26 -84q-21 -76 -33 -135h-6q-9 45 -33 135q-5 21 -25 84l-192 574
h-334z" />
    <glyph glyph-name="thorn" unicode="&#xfe;" 
d="M461 -385v485h8q94 -127 297 -127q206 0 332 150q131 157 131 430q0 289 -123 438q-111 131 -309 131q-119 0 -211 -55q-78 -47 -121 -121h-4v668h-326v-1999h326zM459 485v119q0 139 59.5 217t157.5 78q114 0 166.5 -87t52.5 -263q0 -359 -217 -359q-111 0 -165 79.5
t-54 215.5z" />
    <glyph glyph-name="ydieresis" unicode="&#xff;" 
d="M604 1235v332h-344v-332h344zM1087 1567h-344v-332h344v332zM502 -6l-8 -27q-24 -72 -76 -96q-45 -23 -146 -23q-72 0 -114 11v-252q4 -2 51 -8q54 -7 125 -7q206 0 319 93q97 80 170 280l420 1133h-315l-191 -574q-24 -73 -26 -84q-21 -76 -33 -135h-6q-9 45 -33 135
q-5 21 -25 84l-192 574h-334z" />
    <glyph glyph-name="Amacron" unicode="&#x100;" 
d="M1008 1712v223h-701v-223h701zM1243 0l-350 1567h-475l-350 -1567h319l76 346h368l76 -346h336zM633 1315h31q4 -73 10 -113q18 -162 41 -266l65 -342h-268l63 340q18 88 25 141q4 25 29 205z" />
    <glyph glyph-name="amacron" unicode="&#x101;" 
d="M997 1288v223h-700v-223h700zM831 129h7q22 -80 73 -104.5t150 -24.5h166v242h-53q-32 0 -45 13t-13 44v410q0 220 -123 321q-114 92 -352 92q-210 0 -338 -98q-124 -100 -133 -260h311q5 64 47 101.5t119 37.5q164 0 164 -178v-47q-249 -11 -317 -21q-119 -18 -197 -63
q-168 -85 -168 -281q0 -180 115 -264q102 -74 262 -74q111 0 194.5 43.5t130.5 110.5zM453 324q0 36 14 61q29 70 149 80q13 1 197 14v-8q0 -121 -68 -199q-63 -75 -159 -75q-61 0 -97 33.5t-36 93.5z" />
    <glyph glyph-name="Abreve" unicode="&#x102;" 
d="M541 1991h-228q3 -164 105 -246q91 -76 235 -76q149 0 240 76q99 80 102 246h-215q-11 -115 -121 -115t-118 115zM1243 0l-350 1567h-475l-350 -1567h319l76 346h368l76 -346h336zM633 1315h31q4 -73 10 -113q18 -162 41 -266l65 -342h-268l63 340q18 88 25 141
q4 25 29 205z" />
    <glyph glyph-name="abreve" unicode="&#x103;" 
d="M553 1614h-219q0 -182 100 -275q89 -86 240 -86q155 0 244 86q98 92 98 275h-207q0 -72 -35 -110t-94 -38t-93 38t-34 110zM831 129h7q22 -80 73 -104.5t150 -24.5h166v242h-53q-32 0 -45 13t-13 44v410q0 220 -123 321q-114 92 -352 92q-210 0 -338 -98
q-124 -100 -133 -260h311q5 64 47 101.5t119 37.5q164 0 164 -178v-47q-249 -11 -317 -21q-119 -18 -197 -63q-168 -85 -168 -281q0 -180 115 -264q102 -74 262 -74q111 0 194.5 43.5t130.5 110.5zM453 324q0 36 14 61q29 70 149 80q13 1 197 14v-8q0 -121 -68 -199
q-63 -75 -159 -75q-61 0 -97 33.5t-36 93.5z" />
    <glyph glyph-name="Aogonek" unicode="&#x104;" 
d="M1245 -385v182q-55 1 -79.5 18.5t-24.5 53.5q0 63 102 131l-350 1567h-475l-350 -1567h319l76 346h368l76 -346h150q-82 -34 -123 -86.5t-41 -114.5q0 -184 293 -184h59zM633 1315h31q4 -73 10 -113q18 -162 41 -266l65 -342h-268l63 340q18 88 25 141q4 25 29 205z" />
    <glyph glyph-name="aogonek" unicode="&#x105;" 
d="M1231 -385v182q-105 0 -105 72q0 64 101 131v242h-53q-32 0 -45 13t-13 44v410q0 220 -123 321q-114 92 -352 92q-210 0 -338 -98q-124 -100 -133 -260h311q5 64 47 101.5t119 37.5q164 0 164 -178v-47q-249 -11 -317 -21q-119 -18 -197 -63q-168 -85 -168 -281
q0 -180 115 -264q102 -74 262 -74q111 0 194.5 43.5t130.5 110.5h7q22 -75 68 -101t138 -28v-8q-86 -27 -125.5 -78.5t-39.5 -114.5q0 -184 292 -184h60zM453 324q0 36 14 61q29 70 149 80q13 1 197 14v-8q0 -121 -68 -199q-63 -75 -159 -75q-61 0 -97 33.5t-36 93.5z" />
    <glyph glyph-name="Cacute" unicode="&#x106;" 
d="M795 1694l223 272h-379l-100 -272h256zM893 1036h332q-9 253 -144 400q-147 153 -405 153q-318 0 -459 -219q-129 -201 -129 -608q0 -395 127 -584q139 -211 465 -211q254 0 397 152q141 150 150 413h-334q-12 -161 -58.5 -231t-148.5 -70q-153 0 -207 138
q-45 116 -45 405q0 298 45 416q53 135 197 135q107 0 156 -68.5t61 -220.5z" />
    <glyph glyph-name="cacute" unicode="&#x107;" 
d="M797 1247l237 367h-375l-110 -367h248zM864 705h330q-9 198 -152 313q-135 106 -366 106q-259 0 -406 -147q-149 -152 -149 -428q0 -275 139 -426.5t414 -151.5q227 0 368 111q147 113 156 326h-324q-3 -89 -47 -144q-53 -63 -153 -63q-125 0 -176 112q-41 82 -41 240
q0 155 47 244q54 104 172 104q171 0 188 -196z" />
    <glyph glyph-name="Ccircumflex" unicode="&#x108;" 
d="M537 1966l-209 -272h225l127 102h2l129 -102h246l-213 272h-307zM893 1036h332q-9 253 -144 400q-147 153 -405 153q-318 0 -459 -219q-129 -201 -129 -608q0 -395 127 -584q139 -211 465 -211q254 0 397 152q141 150 150 413h-334q-12 -161 -58.5 -231t-148.5 -70
q-153 0 -207 138q-45 116 -45 405q0 298 45 416q53 135 197 135q107 0 156 -68.5t61 -220.5z" />
    <glyph glyph-name="ccircumflex" unicode="&#x109;" 
d="M553 1614l-223 -367h227l125 148h2l131 -148h244l-225 367h-281zM864 705h330q-9 198 -152 313q-135 106 -366 106q-259 0 -406 -147q-149 -152 -149 -428q0 -275 139 -426.5t414 -151.5q227 0 368 111q147 113 156 326h-324q-3 -89 -47 -144q-53 -63 -153 -63
q-125 0 -176 112q-41 82 -41 240q0 155 47 244q54 104 172 104q171 0 188 -196z" />
    <glyph glyph-name="Cdotaccent" unicode="&#x10a;" 
d="M856 1679v328h-344v-328h344zM893 1036h332q-9 253 -144 400q-147 153 -405 153q-318 0 -459 -219q-129 -201 -129 -608q0 -395 127 -584q139 -211 465 -211q254 0 397 152q141 150 150 413h-334q-12 -161 -58.5 -231t-148.5 -70q-153 0 -207 138q-45 116 -45 405
q0 298 45 416q53 135 197 135q107 0 156 -68.5t61 -220.5z" />
    <glyph glyph-name="cdotaccent" unicode="&#x10b;" 
d="M850 1235v332h-344v-332h344zM864 705h330q-9 198 -152 313q-135 106 -366 106q-259 0 -406 -147q-149 -152 -149 -428q0 -275 139 -426.5t414 -151.5q227 0 368 111q147 113 156 326h-324q-3 -89 -47 -144q-53 -63 -153 -63q-125 0 -176 112q-41 82 -41 240
q0 155 47 244q54 104 172 104q171 0 188 -196z" />
    <glyph glyph-name="Ccaron" unicode="&#x10c;" 
d="M850 1694l209 272h-225l-127 -102h-2l-130 102h-245l213 -272h307zM893 1036h332q-9 253 -144 400q-147 153 -405 153q-318 0 -459 -219q-129 -201 -129 -608q0 -395 127 -584q139 -211 465 -211q254 0 397 152q141 150 150 413h-334q-12 -161 -58.5 -231t-148.5 -70
q-153 0 -207 138q-45 116 -45 405q0 298 45 416q53 135 197 135q107 0 156 -68.5t61 -220.5z" />
    <glyph glyph-name="ccaron" unicode="&#x10d;" 
d="M827 1247l224 367h-228l-125 -148h-2l-131 148h-243l225 -367h280zM864 705h330q-9 198 -152 313q-135 106 -366 106q-259 0 -406 -147q-149 -152 -149 -428q0 -275 139 -426.5t414 -151.5q227 0 368 111q147 113 156 326h-324q-3 -89 -47 -144q-53 -63 -153 -63
q-125 0 -176 112q-41 82 -41 240q0 155 47 244q54 104 172 104q171 0 188 -196z" />
    <glyph glyph-name="Dcaron" unicode="&#x10e;" 
d="M770 1694l209 272h-225l-127 -102h-2l-129 102h-246l213 -272h307zM117 0h397q711 0 711 778q0 418 -176 606q-171 183 -533 183h-399v-1567zM453 1311h67q175 0 258 -115q90 -129 90 -418q0 -278 -92 -403q-83 -115 -264 -115h-59v1051z" />
    <glyph glyph-name="dcaron" unicode="&#x10f;" 
d="M707 1614v-621h-2q-77 121 -238 121q-193 0 -301 -137q-121 -150 -121 -440q0 -315 127 -455q100 -111 274 -111q191 0 273 158h4v-129h309v1614h-325zM1266 1198l157 416h-288l-39 -416h170zM707 594v-131q0 -124 -42.5 -199.5t-125.5 -75.5q-92 0 -127 86
q-37 81 -37 267t41 270q41 80 129 80q76 0 119 -76.5t43 -220.5z" />
    <glyph glyph-name="Dcroat" unicode="&#x110;" 
d="M137 0h377q711 0 711 778q0 418 -176 606q-171 183 -533 183h-379v-666h-131v-229h131v-672zM473 672h229v229h-229v410h47q175 0 258 -115q90 -129 90 -418q0 -278 -92 -403q-83 -115 -264 -115h-39v412z" />
    <glyph glyph-name="dcroat" unicode="&#x111;" 
d="M862 0h309v1241h140v176h-140v197h-325v-197h-318v-176h318v-260h-4q-91 139 -293 139q-211 0 -334 -147q-135 -157 -135 -438q0 -276 119.5 -420t341.5 -144q111 0 186.5 43t130.5 123h4v-137zM848 598v-131q0 -124 -56 -200.5t-161 -76.5q-217 0 -217 355q0 176 59 265
t166 89q99 0 154 -78t55 -223z" />
    <glyph glyph-name="Emacron" unicode="&#x112;" 
d="M1051 1712v223h-701v-223h701zM1171 0v262h-653v389h598v260h-598v394h635v262h-971v-1567h989z" />
    <glyph glyph-name="emacron" unicode="&#x113;" 
d="M1012 1288v223h-701v-223h701zM1192 319h-328q-25 -60 -67.5 -89t-124.5 -29q-106 0 -163.5 60.5t-70.5 193.5h764v104q0 249 -129 399q-146 166 -407 166q-266 0 -416 -159q-146 -155 -146 -414q0 -271 142 -422q149 -158 420 -158q227 0 360 91.5t166 256.5zM864 670
h-426q14 121 66.5 179t154.5 58q93 0 146.5 -65t58.5 -162v-10z" />
    <glyph glyph-name="Ebreve" unicode="&#x114;" 
d="M571 1991h-227q3 -164 105 -246q91 -76 235 -76q149 0 240 76q99 80 102 246h-215q-11 -115 -121 -115q-111 0 -119 115zM1171 0v262h-653v389h598v260h-598v394h635v262h-971v-1567h989z" />
    <glyph glyph-name="ebreve" unicode="&#x115;" 
d="M551 1614h-219q0 -182 100 -275q89 -86 240 -86q154 0 243 86q99 93 99 275h-207q0 -72 -35 -110t-94 -38t-93 38t-34 110zM1192 319h-328q-25 -60 -67.5 -89t-124.5 -29q-106 0 -163.5 60.5t-70.5 193.5h764v104q0 249 -129 399q-146 166 -407 166q-266 0 -416 -159
q-146 -155 -146 -414q0 -271 142 -422q149 -158 420 -158q227 0 360 91.5t166 256.5zM864 670h-426q14 121 66.5 179t154.5 58q93 0 146.5 -65t58.5 -162v-10z" />
    <glyph glyph-name="Edotaccent" unicode="&#x116;" 
d="M868 1679v328h-344v-328h344zM1171 0v262h-653v389h598v260h-598v394h635v262h-971v-1567h989z" />
    <glyph glyph-name="edotaccent" unicode="&#x117;" 
d="M848 1235v332h-344v-332h344zM1192 319h-328q-25 -60 -67.5 -89t-124.5 -29q-106 0 -163.5 60.5t-70.5 193.5h764v104q0 249 -129 399q-146 166 -407 166q-266 0 -416 -159q-146 -155 -146 -414q0 -271 142 -422q149 -158 420 -158q227 0 360 91.5t166 256.5zM864 670
h-426q14 121 66.5 179t154.5 58q93 0 146.5 -65t58.5 -162v-10z" />
    <glyph glyph-name="Eogonek" unicode="&#x118;" 
d="M1124 -385v182q-55 1 -79.5 18.5t-24.5 53.5q0 63 102 131h49v262h-653v389h598v260h-598v394h635v262h-971v-1567h754q-82 -34 -123 -86.5t-41 -114.5q0 -184 293 -184h59z" />
    <glyph glyph-name="eogonek" unicode="&#x119;" 
d="M991 -385v182q-106 3 -106 90q0 36 26 74q28 41 113 100q131 90 168 258h-328q-25 -60 -67.5 -89t-124.5 -29q-106 0 -163.5 60.5t-70.5 193.5h764v104q0 249 -129 399q-146 166 -407 166q-266 0 -416 -159q-146 -155 -146 -414q0 -271 142 -422q149 -158 420 -158
q56 0 114 9v-11q-141 -55 -141 -170q0 -184 293 -184h59zM864 670h-426q14 121 66.5 179t154.5 58q93 0 146.5 -65t58.5 -162v-10z" />
    <glyph glyph-name="Ecaron" unicode="&#x11a;" 
d="M858 1694l209 272h-225l-127 -102h-2l-129 102h-246l213 -272h307zM1171 0v262h-653v389h598v260h-598v394h635v262h-971v-1567h989z" />
    <glyph glyph-name="ecaron" unicode="&#x11b;" 
d="M815 1247l223 367h-227l-125 -148h-2l-131 148h-244l226 -367h280zM1192 319h-328q-25 -60 -67.5 -89t-124.5 -29q-106 0 -163.5 60.5t-70.5 193.5h764v104q0 249 -129 399q-146 166 -407 166q-266 0 -416 -159q-146 -155 -146 -414q0 -271 142 -422q149 -158 420 -158
q227 0 360 91.5t166 256.5zM864 670h-426q14 121 66.5 179t154.5 58q93 0 146.5 -65t58.5 -162v-10z" />
    <glyph glyph-name="Gcircumflex" unicode="&#x11c;" 
d="M532 1966l-208 -272h225l127 102h2l129 -102h246l-213 272h-308zM678 1333q104 0 155 -64.5t56 -176.5h319q-10 223 -133 352q-139 145 -391 145q-313 0 -461 -223q-137 -210 -137 -639q0 -361 125 -551q135 -209 414 -209q114 0 195 49t124 134h17v-150h256v836h-562
v-252h252v-39q0 -318 -231 -318q-77 0 -125 33t-78 102q-49 113 -49 414q0 298 51 418q59 139 203 139z" />
    <glyph glyph-name="gcircumflex" unicode="&#x11d;" 
d="M539 1614l-224 -367h228l125 148h2l131 -148h243l-225 367h-280zM639 -410q268 0 402.5 127t134.5 375v1006h-310v-137h-4q-32 62 -104 106q-87 53 -205 53q-213 0 -334 -139q-135 -151 -135 -418q0 -264 124 -398t345 -134q107 0 181.5 43.5t113.5 115.5h8v-145
q0 -122 -52.5 -178.5t-158.5 -56.5q-170 0 -194 124h-326q24 -164 151.5 -254t362.5 -90zM852 618v-118q0 -113 -56.5 -185.5t-152.5 -72.5q-110 0 -167.5 84t-57.5 243q0 160 62 245t163 85q99 0 154 -73.5t55 -207.5z" />
    <glyph glyph-name="Gbreve" unicode="&#x11e;" 
d="M567 1991h-227q3 -165 104 -246q91 -76 236 -76q149 0 240 76q99 80 102 246h-215q-11 -115 -121 -115q-111 0 -119 115zM678 1333q104 0 155 -64.5t56 -176.5h319q-10 223 -133 352q-139 145 -391 145q-313 0 -461 -223q-137 -210 -137 -639q0 -361 125 -551
q135 -209 414 -209q114 0 195 49t124 134h17v-150h256v836h-562v-252h252v-39q0 -318 -231 -318q-77 0 -125 33t-78 102q-49 113 -49 414q0 298 51 418q59 139 203 139z" />
    <glyph glyph-name="gbreve" unicode="&#x11f;" 
d="M541 1614h-219q0 -182 100 -275q89 -86 240 -86q154 0 243 86q99 93 99 275h-207q0 -72 -35 -110t-94 -38t-93 38t-34 110zM639 -410q268 0 402.5 127t134.5 375v1006h-310v-137h-4q-32 62 -104 106q-87 53 -205 53q-213 0 -334 -139q-135 -151 -135 -418
q0 -264 124 -398t345 -134q107 0 181.5 43.5t113.5 115.5h8v-145q0 -122 -52.5 -178.5t-158.5 -56.5q-170 0 -194 124h-326q24 -164 151.5 -254t362.5 -90zM852 618v-118q0 -113 -56.5 -185.5t-152.5 -72.5q-110 0 -167.5 84t-57.5 243q0 160 62 245t163 85q99 0 154 -73.5
t55 -207.5z" />
    <glyph glyph-name="Gdotaccent" unicode="&#x120;" 
d="M850 1679v328h-344v-328h344zM678 1333q104 0 155 -64.5t56 -176.5h319q-10 223 -133 352q-139 145 -391 145q-313 0 -461 -223q-137 -210 -137 -639q0 -361 125 -551q135 -209 414 -209q114 0 195 49t124 134h17v-150h256v836h-562v-252h252v-39q0 -318 -231 -318
q-77 0 -125 33t-78 102q-49 113 -49 414q0 298 51 418q59 139 203 139z" />
    <glyph glyph-name="gdotaccent" unicode="&#x121;" 
d="M842 1235v332h-344v-332h344zM639 -410q268 0 402.5 127t134.5 375v1006h-310v-137h-4q-32 62 -104 106q-87 53 -205 53q-213 0 -334 -139q-135 -151 -135 -418q0 -264 124 -398t345 -134q107 0 181.5 43.5t113.5 115.5h8v-145q0 -122 -52.5 -178.5t-158.5 -56.5
q-170 0 -194 124h-326q24 -164 151.5 -254t362.5 -90zM852 618v-118q0 -113 -56.5 -185.5t-152.5 -72.5q-110 0 -167.5 84t-57.5 243q0 160 62 245t163 85q99 0 154 -73.5t55 -207.5z" />
    <glyph glyph-name="Gcommaaccent" unicode="&#x122;" 
d="M678 1333q104 0 155 -64.5t56 -176.5h319q-10 223 -133 352q-139 145 -391 145q-313 0 -461 -223q-137 -210 -137 -639q0 -361 125 -551q135 -209 414 -209q114 0 195 49t124 134h17v-150h256v836h-562v-252h252v-39q0 -318 -231 -318q-77 0 -125 33t-78 102
q-49 113 -49 414q0 298 51 418q59 139 203 139zM637 -424l188 320h-354l-49 -320h215z" />
    <glyph glyph-name="gcommaaccent" unicode="&#x123;" 
d="M707 1587l-203 -340h362l56 340h-215zM639 -410q268 0 402.5 127t134.5 375v1006h-310v-137h-4q-32 62 -104 106q-87 53 -205 53q-213 0 -334 -139q-135 -151 -135 -418q0 -264 124 -398t345 -134q107 0 181.5 43.5t113.5 115.5h8v-145q0 -122 -52.5 -178.5t-158.5 -56.5
q-170 0 -194 124h-326q24 -164 151.5 -254t362.5 -90zM852 618v-118q0 -113 -56.5 -185.5t-152.5 -72.5q-110 0 -167.5 84t-57.5 243q0 160 62 245t163 85q99 0 154 -73.5t55 -207.5z" />
    <glyph glyph-name="Hcircumflex" unicode="&#x124;" 
d="M500 1966l-209 -272h225l127 102h2l129 -102h246l-213 272h-307zM858 651v-651h336v1567h-336v-654h-405v654h-336v-1567h336v651h405z" />
    <glyph glyph-name="hcircumflex" unicode="&#x125;" 
d="M545 1966l-209 -272h225l127 102h2l129 -102h246l-213 272h-307zM1169 0v713q0 208 -84 307.5t-276 99.5q-128 0 -217 -59q-82 -54 -111 -129h-4v682h-325v-1614h325v635q0 252 205 252q85 0 131 -64q31 -47 31 -182v-641h325z" />
    <glyph glyph-name="Hbar" unicode="&#x126;" 
d="M858 651v-651h336v1143h117v192h-117v232h-336v-232h-405v232h-336v-232h-117v-192h117v-1143h336v651h405zM453 1143h405v-230h-405v230z" />
    <glyph glyph-name="hbar" unicode="&#x127;" 
d="M477 0v635q0 252 205 252q85 0 131 -64q31 -47 31 -182v-641h325v713q0 208 -84 307.5t-276 99.5q-128 0 -217 -59q-82 -54 -111 -129h-4v309h314v176h-314v197h-325v-197h-152v-176h152v-1241h325z" />
    <glyph glyph-name="Itilde" unicode="&#x128;" 
d="M291 1673h186q0 38 20.5 63t57.5 25q41 0 137 -39q100 -41 164 -41q121 0 188 93q56 79 56 225h-187q0 -40 -20 -65t-57 -25q-38 0 -138 41q-99 39 -163 39q-125 0 -189 -93q-55 -80 -55 -223zM1137 1313v254h-963v-254h313v-1059h-313v-254h963v254h-314v1059h314z" />
    <glyph glyph-name="itilde" unicode="&#x129;" 
d="M268 1247h197q0 47 20.5 75t55.5 28q11 0 23 -2t29.5 -8.5t26 -9.5t33.5 -13.5t31 -13.5q110 -50 170 -50q125 0 190 101q54 84 54 241h-199q0 -102 -76 -102q-39 0 -139 47t-172 47q-125 0 -188 -98q-56 -83 -56 -242zM1221 250h-383v848h-656v-248h332v-600h-371v-250
h1078v250z" />
    <glyph glyph-name="Imacron" unicode="&#x12a;" 
d="M1008 1712v223h-701v-223h701zM1137 1313v254h-963v-254h313v-1059h-313v-254h963v254h-314v1059h314z" />
    <glyph glyph-name="imacron" unicode="&#x12b;" 
d="M1014 1288v223h-701v-223h701zM1221 250h-383v848h-656v-248h332v-600h-371v-250h1078v250z" />
    <glyph glyph-name="Ibreve" unicode="&#x12c;" 
d="M545 1991h-228q3 -164 105 -246q91 -76 235 -76q149 0 240 76q99 80 102 246h-215q-11 -115 -120 -115q-111 0 -119 115zM1137 1313v254h-963v-254h313v-1059h-313v-254h963v254h-314v1059h314z" />
    <glyph glyph-name="ibreve" unicode="&#x12d;" 
d="M549 1614h-219q0 -182 100 -275q89 -86 240 -86q154 0 243 86q99 93 99 275h-207q0 -72 -35 -110t-94 -38t-93 38t-34 110zM1221 250h-383v848h-656v-248h332v-600h-371v-250h1078v250z" />
    <glyph glyph-name="Iogonek" unicode="&#x12e;" 
d="M1067 -385v182q-55 1 -79.5 18.5t-24.5 53.5q0 63 102 131h72v254h-314v1059h314v254h-963v-254h313v-1059h-313v-254h705q-82 -34 -123 -86.5t-41 -114.5q0 -184 293 -184h59z" />
    <glyph glyph-name="iogonek" unicode="&#x12f;" 
d="M848 1235v332h-344v-332h344zM1126 -385v182q-55 1 -79.5 18.5t-24.5 53.5q0 63 102 131h80v250h-366v848h-656v-248h332v-600h-371v-250h795q-82 -34 -123 -86.5t-41 -114.5q0 -184 293 -184h59z" />
    <glyph glyph-name="Idotaccent" unicode="&#x130;" 
d="M825 1679v328h-344v-328h344zM1137 1313v254h-963v-254h313v-1059h-313v-254h963v254h-314v1059h314z" />
    <glyph glyph-name="dotlessi" unicode="&#x131;" 
d="M1221 250h-383v848h-656v-248h332v-600h-371v-250h1078v250z" />
    <glyph glyph-name="IJ" unicode="&#x132;" horiz-adv-x="2621" 
d="M1137 1313v254h-963v-254h313v-1059h-313v-254h963v254h-314v1059h314zM1815 -23q243 0 401 113q174 125 174 359v1116h-809v-254h477v-842q0 -114 -73 -168q-63 -49 -177 -49q-101 0 -321 22v-262q185 -35 328 -35z" />
    <glyph glyph-name="ij" unicode="&#x133;" horiz-adv-x="2621" 
d="M848 1235v332h-344v-332h344zM2292 1567h-344v-332h344v332zM1204 250h-366v848h-656v-248h332v-600h-371v-250h1061v250zM1819 -403q196 0 319 90q143 105 143 309v1102h-708v-248h383v-842q0 -87 -42 -122.5t-116 -35.5q-81 0 -225 21v-242q110 -32 246 -32z" />
    <glyph glyph-name="Jcircumflex" unicode="&#x134;" 
d="M532 1966l-208 -272h225l127 102h2l129 -102h246l-213 272h-308zM504 -20q245 0 401 112q174 125 174 359v1116h-809v-254h478v-842q0 -114 -74 -168q-63 -49 -176 -49q-102 0 -322 22v-262q180 -34 328 -34z" />
    <glyph glyph-name="jcircumflex" unicode="&#x135;" 
d="M627 1614l-224 -367h228l125 148h2l131 -148h244l-226 367h-280zM498 -403q196 0 319 90q144 105 144 309v1102h-709v-248h383v-832q0 -87 -42 -122t-116 -35q-87 0 -225 20v-252q114 -32 246 -32z" />
    <glyph glyph-name="Kcommaaccent" unicode="&#x136;" 
d="M528 651l377 -651h385l-532 899l504 668h-361l-463 -629v629h-329v-1567h329v530zM653 -424l189 320h-355l-49 -320h215z" />
    <glyph glyph-name="kcommaaccent" unicode="&#x137;" 
d="M627 444l280 -444h361l-424 645l399 453h-352l-410 -480v996h-319v-1614h319v274zM674 -424l188 320h-354l-49 -320h215z" />
    <glyph glyph-name="kgreenlandic" unicode="&#x138;" 
d="M633 457l274 -457h361l-416 668l381 430h-352l-400 -467v467h-319v-1098h319v281z" />
    <glyph glyph-name="Lacute" unicode="&#x139;" 
d="M481 1694l224 272h-379l-101 -272h256zM1200 0v272h-676v1295h-336v-1567h1012z" />
    <glyph glyph-name="lacute" unicode="&#x13a;" 
d="M821 1755l223 273h-378l-101 -273h256zM1200 250h-379v1364h-655v-248h332v-1116h-371v-250h1073v250z" />
    <glyph glyph-name="Lcommaaccent" unicode="&#x13b;" 
d="M1200 0v272h-676v1295h-336v-1567h1012zM707 -424l188 320h-354l-49 -320h215z" />
    <glyph glyph-name="lcommaaccent" unicode="&#x13c;" 
d="M1200 250h-379v1364h-655v-248h332v-1116h-371v-250h1073v250zM653 -424l189 320h-355l-49 -320h215z" />
    <glyph glyph-name="Lcaron" unicode="&#x13d;" 
d="M913 1198l158 416h-289l-39 -416h170zM1200 0v272h-676v1295h-336v-1567h1012z" />
    <glyph glyph-name="lcaron" unicode="&#x13e;" 
d="M1200 250h-379v1364h-655v-248h332v-1116h-371v-250h1073v250zM1159 1198l158 416h-289l-39 -416h170z" />
    <glyph glyph-name="Ldot" unicode="&#x13f;" 
d="M1180 0v272h-676v1295h-336v-1567h1012zM1186 614v363h-363v-363h363z" />
    <glyph glyph-name="ldot" unicode="&#x140;" 
d="M1200 250h-379v1364h-655v-248h332v-1116h-371v-250h1073v250zM1487 596v348h-346v-348h346z" />
    <glyph glyph-name="Lslash" unicode="&#x141;" 
d="M1180 272h-676v400l475 184v231l-475 -184v664h-336v-795l-141 -55v-232l141 56v-541h1012v272z" />
    <glyph glyph-name="lslash" unicode="&#x142;" 
d="M1200 250h-379v520l289 119v235l-289 -118v608h-655v-248h332v-496l-297 -122v-234l297 123v-387h-371v-250h1073v250z" />
    <glyph glyph-name="Nacute" unicode="&#x143;" 
d="M811 1694l223 272h-379l-100 -272h256zM403 0v1059h19l18 -70q19 -70 58 -172l311 -817h385v1567h-287v-1059h-18q-2 9 -10 33t-11 39q-37 125 -55 172l-311 815h-385v-1567h286z" />
    <glyph glyph-name="nacute" unicode="&#x144;" 
d="M805 1247l237 367h-374l-111 -367h248zM1169 0v713q0 208 -84 307.5t-276 99.5q-131 0 -219 -59q-79 -53 -123 -143h-4v180h-311v-1098h325v635q0 252 205 252q85 0 131 -64q31 -47 31 -182v-641h325z" />
    <glyph glyph-name="Ncommaaccent" unicode="&#x145;" 
d="M403 0v1059h19l18 -70q19 -70 58 -172l311 -817h385v1567h-287v-1059h-18q-2 9 -10 33t-11 39q-37 125 -55 172l-311 815h-385v-1567h286zM649 -424l189 320h-355l-49 -320h215z" />
    <glyph glyph-name="ncommaaccent" unicode="&#x146;" 
d="M1169 0v713q0 208 -84 307.5t-276 99.5q-131 0 -219 -59q-79 -53 -123 -143h-4v180h-311v-1098h325v635q0 252 205 252q85 0 131 -64q31 -47 31 -182v-641h325zM651 -424l189 320h-355l-49 -320h215z" />
    <glyph glyph-name="Ncaron" unicode="&#x147;" 
d="M827 1694l209 272h-225l-127 -102h-2l-129 102h-246l213 -272h307zM403 0v1059h19l18 -70q19 -70 58 -172l311 -817h385v1567h-287v-1059h-18q-2 9 -10 33t-11 39q-37 125 -55 172l-311 815h-385v-1567h286z" />
    <glyph glyph-name="ncaron" unicode="&#x148;" 
d="M829 1247l224 367h-228l-125 -148h-2l-131 148h-243l225 -367h280zM1169 0v713q0 208 -84 307.5t-276 99.5q-131 0 -219 -59q-79 -53 -123 -143h-4v180h-311v-1098h325v635q0 252 205 252q85 0 131 -64q31 -47 31 -182v-641h325z" />
    <glyph glyph-name="napostrophe" unicode="&#x149;" 
d="M-4 1567l-72 -473h182l177 473h-287zM1169 0v713q0 208 -84 307.5t-276 99.5q-131 0 -219 -59q-79 -53 -123 -143h-4v180h-311v-1098h325v635q0 252 205 252q85 0 131 -64q31 -47 31 -182v-641h325z" />
    <glyph glyph-name="Eng" unicode="&#x14a;" 
d="M571 -385h80q276 0 404 106q139 115 139 385v1461h-287v-1059h-18q-2 9 -10 33t-11 39q-37 125 -55 172l-311 815h-385v-1567h286v1059h19l18 -70q19 -70 58 -172l311 -817h88q-11 -73 -59 -102t-162 -29h-105v-254z" />
    <glyph glyph-name="eng" unicode="&#x14b;" 
d="M793 -422q180 0 272 82q104 93 104 307v746q0 209 -83 308t-277 99q-131 0 -219 -59q-68 -46 -123 -143h-4v180h-311v-1098h325v635q0 125 49 188.5t156 63.5q88 0 131 -64q31 -47 31 -182v-672q0 -86 -27 -120.5t-98 -34.5q-27 0 -51 4q-20 3 -25 6v-227q4 -2 45 -11
q33 -8 105 -8z" />
    <glyph glyph-name="Omacron" unicode="&#x14c;" 
d="M1008 1712v223h-701v-223h701zM86 778q0 -420 125 -608q132 -203 444 -203q304 0 441 205q129 193 129 606q0 420 -127 611q-133 200 -443 200q-298 0 -433.5 -200t-135.5 -611zM655 225q-68 0 -108.5 28.5t-63.5 92.5q-41 107 -41 432q0 327 43 439q23 64 63 91t107 27
q61 0 101.5 -27.5t66.5 -90.5q47 -122 47 -439q0 -320 -43 -432q-46 -121 -172 -121z" />
    <glyph glyph-name="omacron" unicode="&#x14d;" 
d="M1008 1288v223h-701v-223h701zM653 -33q255 0 408 156q151 157 151 424q0 272 -151 426q-151 151 -406 151q-259 0 -407 -151q-150 -153 -150 -426q0 -270 148 -424q150 -156 407 -156zM655 899q112 0 166 -98q49 -88 49 -254q0 -162 -47 -252q-57 -102 -168 -102
q-112 0 -166 98q-49 88 -49 256q0 160 49 252q52 100 166 100z" />
    <glyph glyph-name="Obreve" unicode="&#x14e;" 
d="M541 1991h-228q3 -164 105 -246q91 -76 235 -76q149 0 240 76q99 80 102 246h-215q-11 -115 -121 -115t-118 115zM86 778q0 -420 125 -608q132 -203 444 -203q304 0 441 205q129 193 129 606q0 420 -127 611q-133 200 -443 200q-298 0 -433.5 -200t-135.5 -611zM655 225
q-68 0 -108.5 28.5t-63.5 92.5q-41 107 -41 432q0 327 43 439q23 64 63 91t107 27q61 0 101.5 -27.5t66.5 -90.5q47 -122 47 -439q0 -320 -43 -432q-46 -121 -172 -121z" />
    <glyph glyph-name="obreve" unicode="&#x14f;" 
d="M539 1614h-220q0 -181 101 -275q89 -86 239 -86q155 0 244 86q98 92 98 275h-206q0 -72 -35 -110t-94 -38t-93 38t-34 110zM653 -33q255 0 408 156q151 157 151 424q0 272 -151 426q-151 151 -406 151q-259 0 -407 -151q-150 -153 -150 -426q0 -270 148 -424
q150 -156 407 -156zM655 899q112 0 166 -98q49 -88 49 -254q0 -162 -47 -252q-57 -102 -168 -102q-112 0 -166 98q-49 88 -49 256q0 160 49 252q52 100 166 100z" />
    <glyph glyph-name="Ohungarumlaut" unicode="&#x150;" 
d="M596 1694l127 293h-285l-57 -293h215zM948 1694l154 293h-287l-84 -293h217zM86 778q0 -420 125 -608q132 -203 444 -203q304 0 441 205q129 193 129 606q0 420 -127 611q-133 200 -443 200q-298 0 -433.5 -200t-135.5 -611zM655 225q-68 0 -108.5 28.5t-63.5 92.5
q-41 107 -41 432q0 327 43 439q23 64 63 91t107 27q61 0 101.5 -27.5t66.5 -90.5q47 -122 47 -439q0 -320 -43 -432q-46 -121 -172 -121z" />
    <glyph glyph-name="ohungarumlaut" unicode="&#x151;" 
d="M594 1247l170 367h-293l-100 -367h223zM948 1247l197 367h-291l-127 -367h221zM653 -33q255 0 408 156q151 157 151 424q0 272 -151 426q-151 151 -406 151q-259 0 -407 -151q-150 -153 -150 -426q0 -270 148 -424q150 -156 407 -156zM655 899q112 0 166 -98
q49 -88 49 -254q0 -162 -47 -252q-57 -102 -168 -102q-112 0 -166 98q-49 88 -49 256q0 160 49 252q52 100 166 100z" />
    <glyph glyph-name="OE" unicode="&#x152;" 
d="M1296 254h-366v403h311v250h-311v404h348v256h-627q-304 0 -450 -190.5t-146 -594.5q0 -403 145 -592.5t433 -189.5h663v254zM633 1321v-1077q-68 0 -113 29t-74 92q-53 114 -53 417q0 299 56 420q29 62 73 90.5t111 28.5z" />
    <glyph glyph-name="oe" unicode="&#x153;" 
d="M637 125h6q71 -152 256 -152q146 0 234.5 90t105.5 256h-258q-12 -129 -94 -129q-62 0 -86 58q-27 62 -27 225h471v127q0 241 -69 373q-82 151 -258 151q-182 0 -256 -151h-7q-71 151 -264 151q-165 0 -252 -129q-98 -148 -98 -446q0 -315 96 -453q85 -125 254 -125
q164 0 246 154zM991 659h-215q6 128 33 195q24 68 78 68q61 0 82 -66q19 -58 22 -180v-17zM416 190q-65 0 -86 84q-23 90 -23 275q0 176 23 270q21 86 86 86q69 0 90 -88q22 -93 22 -268q0 -174 -20 -264q-21 -95 -92 -95z" />
    <glyph glyph-name="Racute" unicode="&#x154;" 
d="M752 1694l223 272h-379l-100 -272h256zM1237 0l-332 651v8q116 48 193 148q92 120 92 299q0 289 -232 399q-132 62 -340 62h-493v-1567h336v590h121l288 -590h367zM461 1309h149q120 0 181 -50.5t61 -173.5q0 -119 -63 -173t-185 -54h-143v451z" />
    <glyph glyph-name="racute" unicode="&#x155;" 
d="M831 1247l238 367h-375l-110 -367h247zM942 846q129 0 217 -37v272q-73 39 -194 39q-145 0 -242.5 -63t-155.5 -207h-4v248h-313v-1098h325v465q0 181 94.5 281t272.5 100z" />
    <glyph glyph-name="Rcommaaccent" unicode="&#x156;" 
d="M1237 0l-332 651v8q116 48 193 148q92 120 92 299q0 289 -232 399q-132 62 -340 62h-493v-1567h336v590h121l288 -590h367zM461 1309h149q120 0 181 -50.5t61 -173.5q0 -119 -63 -173t-185 -54h-143v451zM649 -424l189 320h-355l-49 -320h215z" />
    <glyph glyph-name="rcommaaccent" unicode="&#x157;" 
d="M942 846q129 0 217 -37v272q-73 39 -194 39q-145 0 -242.5 -63t-155.5 -207h-4v248h-313v-1098h325v465q0 181 94.5 281t272.5 100zM397 -424l189 320h-355l-49 -320h215z" />
    <glyph glyph-name="Rcaron" unicode="&#x158;" 
d="M801 1694l209 272h-226l-127 -102h-2l-129 102h-245l213 -272h307zM1237 0l-332 651v8q116 48 193 148q92 120 92 299q0 289 -232 399q-132 62 -340 62h-493v-1567h336v590h121l288 -590h367zM461 1309h149q120 0 181 -50.5t61 -173.5q0 -119 -63 -173t-185 -54h-143v451
z" />
    <glyph glyph-name="rcaron" unicode="&#x159;" 
d="M858 1247l223 367h-227l-125 -148h-2l-131 148h-244l226 -367h280zM942 846q129 0 217 -37v272q-73 39 -194 39q-145 0 -242.5 -63t-155.5 -207h-4v248h-313v-1098h325v465q0 181 94.5 281t272.5 100z" />
    <glyph glyph-name="Sacute" unicode="&#x15a;" 
d="M780 1694l224 272h-379l-101 -272h256zM879 1141h323q-28 452 -536 452q-253 0 -398 -135q-143 -131 -143 -334q0 -186 111 -307q90 -98 268 -141l190 -43q118 -26 166.5 -73.5t48.5 -135.5q0 -92 -66 -147.5t-181 -55.5q-240 0 -263 228h-325q17 -235 167.5 -358.5
t420.5 -123.5q272 0 424.5 132t152.5 372q0 185 -101 290.5t-309 156.5l-188 45q-105 25 -145.5 67.5t-40.5 128.5q0 84 59 134t148 50q105 0 161 -59q46 -52 56 -143z" />
    <glyph glyph-name="sacute" unicode="&#x15b;" 
d="M782 1247l238 367h-375l-110 -367h247zM836 784h303q-13 154 -123 240q-128 100 -357 100q-224 0 -354 -100q-129 -101 -129 -260q0 -150 94 -234q84 -75 240 -98l201 -31q83 -12 115 -33t32 -65q0 -59 -48.5 -84.5t-150.5 -25.5q-104 0 -157 32q-44 26 -56 99h-303
q12 -173 135.5 -264t378.5 -91q231 0 363 97q143 100 143 290q0 127 -79 204.5t-257 105.5l-202 30q-82 12 -115 35t-33 70t47.5 72.5t134.5 25.5q164 0 177 -115z" />
    <glyph glyph-name="Scircumflex" unicode="&#x15c;" 
d="M520 1966l-209 -272h226l127 102h2l129 -102h245l-213 272h-307zM879 1141h323q-28 452 -536 452q-253 0 -398 -135q-143 -131 -143 -334q0 -186 111 -307q90 -98 268 -141l190 -43q118 -26 166.5 -73.5t48.5 -135.5q0 -92 -66 -147.5t-181 -55.5q-240 0 -263 228h-325
q17 -235 167.5 -358.5t420.5 -123.5q272 0 424.5 132t152.5 372q0 185 -101 290.5t-309 156.5l-188 45q-105 25 -145.5 67.5t-40.5 128.5q0 84 59 134t148 50q105 0 161 -59q46 -52 56 -143z" />
    <glyph glyph-name="scircumflex" unicode="&#x15d;" 
d="M530 1614l-223 -367h228l124 148h3l131 -148h243l-225 367h-281zM836 784h303q-13 154 -123 240q-128 100 -357 100q-224 0 -354 -100q-129 -101 -129 -260q0 -150 94 -234q84 -75 240 -98l201 -31q83 -12 115 -33t32 -65q0 -59 -48.5 -84.5t-150.5 -25.5q-104 0 -157 32
q-44 26 -56 99h-303q12 -173 135.5 -264t378.5 -91q231 0 363 97q143 100 143 290q0 127 -79 204.5t-257 105.5l-202 30q-82 12 -115 35t-33 70t47.5 72.5t134.5 25.5q164 0 177 -115z" />
    <glyph glyph-name="Scedilla" unicode="&#x15e;" 
d="M643 -436q132 0 194 55t62 148q0 74 -51.5 114.5t-147.5 40.5h-57l23 45q267 0 419 133q154 135 154 371q0 185 -101 290.5t-309 156.5l-188 45q-105 25 -145.5 67.5t-40.5 128.5q0 84 59 134t148 50q105 0 161 -59q46 -52 56 -143h323q-28 452 -536 452
q-253 0 -398 -135q-143 -131 -143 -334q0 -186 111 -307q90 -98 268 -141l190 -43q118 -26 166.5 -73.5t48.5 -135.5q0 -92 -66 -147.5t-181 -55.5q-240 0 -263 228h-325q35 -415 458 -474l-100 -190h168q22 25 55 25q66 0 66 -62q0 -63 -66 -63q-50 0 -63 41h-180
q3 -67 55 -113q55 -49 176 -49z" />
    <glyph glyph-name="scedilla" unicode="&#x15f;" 
d="M635 -436q132 0 194 55t62 148q0 74 -51.5 114.5t-147.5 40.5h-57l24 47q229 0 361 97q143 100 143 290q0 127 -79 204.5t-257 105.5l-202 30q-82 12 -115 35t-33 70t47.5 72.5t134.5 25.5q164 0 177 -115h303q-13 154 -123 240q-128 100 -357 100q-224 0 -354 -100
q-129 -101 -129 -260q0 -150 94 -234q84 -75 240 -98l201 -31q83 -12 115 -33t32 -65q0 -59 -48.5 -84.5t-150.5 -25.5q-104 0 -157 32q-44 26 -56 99h-303q11 -150 102.5 -237t278.5 -110l-100 -192h168q22 25 55 25q66 0 66 -62q0 -63 -66 -63q-50 0 -63 41h-181
q3 -66 56 -113q55 -49 176 -49z" />
    <glyph glyph-name="Scaron" unicode="&#x160;" 
d="M827 1694l209 272h-225l-127 -102h-2l-129 102h-246l213 -272h307zM879 1141h323q-28 452 -536 452q-253 0 -398 -135q-143 -131 -143 -334q0 -186 111 -307q90 -98 268 -141l190 -43q118 -26 166.5 -73.5t48.5 -135.5q0 -92 -66 -147.5t-181 -55.5q-240 0 -263 228h-325
q17 -235 167.5 -358.5t420.5 -123.5q272 0 424.5 132t152.5 372q0 185 -101 290.5t-309 156.5l-188 45q-105 25 -145.5 67.5t-40.5 128.5q0 84 59 134t148 50q105 0 161 -59q46 -52 56 -143z" />
    <glyph glyph-name="scaron" unicode="&#x161;" 
d="M817 1247l223 367h-227l-125 -148h-2l-131 148h-244l226 -367h280zM836 784h303q-13 154 -123 240q-128 100 -357 100q-224 0 -354 -100q-129 -101 -129 -260q0 -150 94 -234q84 -75 240 -98l201 -31q83 -12 115 -33t32 -65q0 -59 -48.5 -84.5t-150.5 -25.5
q-104 0 -157 32q-44 26 -56 99h-303q12 -173 135.5 -264t378.5 -91q231 0 363 97q143 100 143 290q0 127 -79 204.5t-257 105.5l-202 30q-82 12 -115 35t-33 70t47.5 72.5t134.5 25.5q164 0 177 -115z" />
    <glyph glyph-name="Tcaron" unicode="&#x164;" 
d="M813 1694l209 272h-225l-127 -102h-2l-129 102h-246l213 -272h307zM86 1567v-262h401v-1305h336v1305h402v262h-1139z" />
    <glyph glyph-name="tcaron" unicode="&#x165;" 
d="M1077 1198l158 416h-289l-39 -416h170zM444 848v-508q0 -179 113 -274q106 -89 287 -89q154 0 315 41v248q-110 -30 -213 -30t-141.5 37t-38.5 130v445h391v250h-395v342h-293v-201q0 -91 -30.5 -122.5t-116.5 -31.5h-218v-237h340z" />
    <glyph glyph-name="Tbar" unicode="&#x166;" 
d="M1100 795v221h-277v289h402v262h-1139v-262h401v-289h-276v-221h276v-795h336v795h277z" />
    <glyph glyph-name="tbar" unicode="&#x167;" 
d="M1159 18v248q-110 -30 -213 -30t-141.5 37t-38.5 130v52h391v229h-391v164h391v250h-395v342h-293v-201q0 -91 -30.5 -122.5t-116.5 -31.5h-218v-237h340v-164h-340v-229h340v-115q0 -179 113 -274q106 -89 287 -89q154 0 315 41z" />
    <glyph glyph-name="Utilde" unicode="&#x168;" 
d="M297 1673h186q0 38 20.5 63t57.5 25q41 0 137 -39q100 -41 164 -41q122 0 189 93q55 78 55 225h-186q0 -40 -20.5 -65t-57.5 -25t-137 41q-99 39 -164 39q-125 0 -189 -93q-55 -80 -55 -223zM117 1567v-1082q0 -264 147 -395q138 -123 387 -123q250 0 391 123
q150 131 150 395v1082h-320v-1043q0 -154 -48.5 -218t-164.5 -64q-115 0 -162.5 64t-47.5 218v1043h-332z" />
    <glyph glyph-name="utilde" unicode="&#x169;" 
d="M266 1247h197q0 47 20.5 75t55.5 28q11 0 23 -2t29.5 -8.5t26 -9.5t33.5 -13.5t31 -13.5q110 -50 170 -50q125 0 190 101q54 84 54 241h-199q0 -102 -76 -102q-39 0 -139 47t-172 47q-125 0 -188 -98q-56 -83 -56 -242zM141 1098v-731q0 -198 87.5 -292.5t279.5 -94.5
q234 0 334 198h4v-178h313v1098h-325v-600q0 -285 -205 -285q-92 0 -129 63q-33 50 -33 181v641h-326z" />
    <glyph glyph-name="Umacron" unicode="&#x16a;" 
d="M1014 1712v223h-701v-223h701zM117 1567v-1082q0 -264 147 -395q138 -123 387 -123q250 0 391 123q150 131 150 395v1082h-320v-1043q0 -154 -48.5 -218t-164.5 -64q-115 0 -162.5 64t-47.5 218v1043h-332z" />
    <glyph glyph-name="umacron" unicode="&#x16b;" 
d="M1012 1288v223h-701v-223h701zM141 1098v-731q0 -198 87.5 -292.5t279.5 -94.5q234 0 334 198h4v-178h313v1098h-325v-600q0 -285 -205 -285q-92 0 -129 63q-33 50 -33 181v641h-326z" />
    <glyph glyph-name="Ubreve" unicode="&#x16c;" 
d="M547 1991h-228q3 -164 105 -246q91 -76 235 -76q149 0 240 76q99 80 102 246h-215q-11 -115 -120 -115q-111 0 -119 115zM117 1567v-1082q0 -264 147 -395q138 -123 387 -123q250 0 391 123q150 131 150 395v1082h-320v-1043q0 -154 -48.5 -218t-164.5 -64
q-115 0 -162.5 64t-47.5 218v1043h-332z" />
    <glyph glyph-name="ubreve" unicode="&#x16d;" 
d="M539 1614h-220q0 -181 101 -275q89 -86 239 -86q155 0 244 86q98 92 98 275h-206q0 -72 -35 -110t-94 -38t-93 38t-34 110zM141 1098v-731q0 -198 87.5 -292.5t279.5 -94.5q234 0 334 198h4v-178h313v1098h-325v-600q0 -285 -205 -285q-92 0 -129 63q-33 50 -33 181v641
h-326z" />
    <glyph glyph-name="Uring" unicode="&#x16e;" 
d="M653 1606q113 0 189 73q73 70 73 185q0 110 -73 186q-74 74 -189 74q-112 0 -186 -74q-74 -77 -74 -186q0 -114 74 -185q76 -73 186 -73zM653 1989q50 0 82.5 -36.5t32.5 -88.5q0 -54 -32 -88.5t-83 -34.5q-49 0 -80.5 34.5t-31.5 88.5q0 52 31.5 88.5t80.5 36.5z
M117 1567v-1082q0 -264 147 -395q138 -123 387 -123q250 0 391 123q150 131 150 395v1082h-320v-1043q0 -154 -48.5 -218t-164.5 -64q-115 0 -162.5 64t-47.5 218v1043h-332z" />
    <glyph glyph-name="uring" unicode="&#x16f;" 
d="M399 1452q0 -113 74 -184q77 -74 186 -74q112 0 189 74q74 71 74 184q0 109 -74 186q-74 74 -189 74q-112 0 -186 -74q-74 -77 -74 -186zM659 1329q-49 0 -80.5 34.5t-31.5 88.5q0 52 31.5 88.5t80.5 36.5q50 0 82.5 -36.5t32.5 -88.5q0 -54 -32 -88.5t-83 -34.5z
M141 1098v-731q0 -198 87.5 -292.5t279.5 -94.5q234 0 334 198h4v-178h313v1098h-325v-600q0 -285 -205 -285q-92 0 -129 63q-33 50 -33 181v641h-326z" />
    <glyph glyph-name="Uhungarumlaut" unicode="&#x170;" 
d="M602 1694l127 293h-285l-57 -293h215zM954 1694l154 293h-287l-84 -293h217zM117 1567v-1082q0 -264 147 -395q138 -123 387 -123q250 0 391 123q150 131 150 395v1082h-320v-1043q0 -154 -48.5 -218t-164.5 -64q-115 0 -162.5 64t-47.5 218v1043h-332z" />
    <glyph glyph-name="uhungarumlaut" unicode="&#x171;" 
d="M598 1247l170 367h-293l-100 -367h223zM952 1247l197 367h-291l-127 -367h221zM141 1098v-731q0 -198 87.5 -292.5t279.5 -94.5q234 0 334 198h4v-178h313v1098h-325v-600q0 -285 -205 -285q-92 0 -129 63q-33 50 -33 181v641h-326z" />
    <glyph glyph-name="Uogonek" unicode="&#x172;" 
d="M821 -385v182q-108 3 -108 78q0 47 30.5 70.5t122.5 50.5q150 43 230 151q96 135 96 338v1082h-320v-1043q0 -154 -48.5 -218t-164.5 -64q-115 0 -162.5 64t-47.5 218v1043h-332v-1082q0 -248 133 -381q126 -126 354 -135v-8q-135 -44 -135 -162q0 -184 293 -184h59z" />
    <glyph glyph-name="uogonek" unicode="&#x173;" 
d="M1161 -385v182q-55 1 -79.5 18.5t-24.5 53.5q0 63 102 131v1098h-325v-600q0 -285 -205 -285q-92 0 -129 63q-33 50 -33 181v641h-326v-731q0 -198 87.5 -292.5t279.5 -94.5q234 0 334 198h4v-178h127q-82 -34 -123 -86.5t-41 -114.5q0 -184 293 -184h59z" />
    <glyph glyph-name="Wcircumflex" unicode="&#x174;" 
d="M508 1966l-209 -272h225l127 102h2l129 -102h246l-213 272h-307zM494 0l96 449q15 75 22 118q20 112 29 205h14q2 -40 13 -102q10 -79 39 -224l90 -446h370l97 1567h-271l-57 -1133h-14l-15 101q-12 86 -30 174l-105 489h-223l-105 -489q-7 -26 -14 -82
q-22 -141 -27 -193h-16l-59 1133h-281l96 -1567h351z" />
    <glyph glyph-name="wcircumflex" unicode="&#x175;" 
d="M526 1614l-223 -367h227l125 148h2l131 -148h244l-225 367h-281zM563 0l68 649l8 70q4 47 8 125h15q1 -10 2 -31.5t2 -32.5q3 -62 12 -131l67 -649h361l143 1098h-260l-55 -670l-6 -68q-1 -11 -2 -32.5t-2 -30.5q-2 -23 -2 -64h-15q-1 9 -2 30t-2 32q-3 62 -12 131
l-72 672h-325l-70 -668l-6 -70q-9 -105 -10 -127h-15q-1 10 -2 31.5t-2 32.5q-2 18 -2 63l-6 68l-53 670h-269l144 -1098h360z" />
    <glyph glyph-name="Ycircumflex" unicode="&#x176;" 
d="M510 1966l-209 -272h225l127 102h2l129 -102h246l-213 272h-307zM823 0v672l461 895h-342l-272 -568h-11l-278 568h-354l460 -901v-666h336z" />
    <glyph glyph-name="ycircumflex" unicode="&#x177;" 
d="M539 1614l-224 -367h228l125 148h2l131 -148h243l-225 367h-280zM502 -6l-8 -27q-24 -72 -76 -96q-45 -23 -146 -23q-72 0 -114 11v-252q4 -2 51 -8q54 -7 125 -7q206 0 319 93q97 80 170 280l420 1133h-315l-191 -574q-24 -73 -26 -84q-21 -76 -33 -135h-6
q-9 45 -33 135q-5 21 -25 84l-192 574h-334z" />
    <glyph glyph-name="Ydieresis" unicode="&#x178;" 
d="M592 1675v332h-344v-332h344zM1083 1675v332h-344v-332h344zM823 0v672l461 895h-342l-272 -568h-11l-278 568h-354l460 -901v-666h336z" />
    <glyph glyph-name="Zacute" unicode="&#x179;" 
d="M770 1694l223 272h-379l-100 -272h256zM823 1305l-725 -1074v-231h1108v264h-735l723 1071v232h-1061v-262h690z" />
    <glyph glyph-name="zacute" unicode="&#x17a;" 
d="M768 1247l238 367h-375l-111 -367h248zM739 850l-571 -625v-225h965v248h-586l569 622v228h-934v-248h557z" />
    <glyph glyph-name="Zdotaccent" unicode="&#x17b;" 
d="M836 1679v328h-344v-328h344zM823 1305l-725 -1074v-231h1108v264h-735l723 1071v232h-1061v-262h690z" />
    <glyph glyph-name="zdotaccent" unicode="&#x17c;" 
d="M834 1235v332h-345v-332h345zM739 850l-571 -625v-225h965v248h-586l569 622v228h-934v-248h557z" />
    <glyph glyph-name="Zcaron" unicode="&#x17d;" 
d="M825 1694l209 272h-225l-127 -102h-2l-129 102h-246l213 -272h307zM823 1305l-725 -1074v-231h1108v264h-735l723 1071v232h-1061v-262h690z" />
    <glyph glyph-name="zcaron" unicode="&#x17e;" 
d="M809 1247l223 367h-227l-125 -148h-2l-131 148h-244l225 -367h281zM739 850l-571 -625v-225h965v248h-586l569 622v228h-934v-248h557z" />
    <glyph glyph-name="florin" unicode="&#x192;" 
d="M1190 696v248h-387l31 240q16 103 63.5 143.5t120.5 40.5q54 0 112 -10q37 -8 60 -10v249q-135 27 -236 27q-197 0 -304 -106t-136 -336l-31 -238h-391v-248h361l-140 -1083h314l143 1083h420z" />
    <glyph glyph-name="Aringacute" unicode="&#x1fa;" 
d="M795 2173l223 272h-379l-100 -272h256zM655 1606q113 0 189 73q74 71 74 185q0 109 -74 186q-74 74 -189 74q-112 0 -186 -74q-74 -77 -74 -186q0 -114 74 -185q76 -73 186 -73zM655 1989q50 0 82.5 -36.5t32.5 -88.5q0 -54 -32 -88.5t-83 -34.5q-49 0 -80.5 34.5
t-31.5 88.5q0 52 31.5 88.5t80.5 36.5zM1243 0l-350 1567h-475l-350 -1567h319l76 346h368l76 -346h336zM633 1315h31q4 -73 10 -113q18 -162 41 -266l65 -342h-268l63 340q18 88 25 141q4 25 29 205z" />
    <glyph glyph-name="aringacute" unicode="&#x1fb;" 
d="M795 1755l223 273h-379l-100 -273h256zM406 1432q0 -115 73 -185q76 -73 187 -73q112 0 188 73q74 71 74 185q0 109 -74 186q-74 74 -188 74q-113 0 -187 -74q-73 -76 -73 -186zM666 1309q-50 0 -81.5 34.5t-31.5 88.5q0 52 32 88t81 36q50 0 82 -36t32 -88
q0 -54 -31.5 -88.5t-82.5 -34.5zM831 129h7q22 -80 73 -104.5t150 -24.5h166v242h-53q-32 0 -45 13t-13 44v410q0 220 -123 321q-114 92 -352 92q-210 0 -338 -98q-124 -100 -133 -260h311q5 64 47 101.5t119 37.5q164 0 164 -178v-47q-249 -11 -317 -21q-119 -18 -197 -63
q-168 -85 -168 -281q0 -180 115 -264q102 -74 262 -74q111 0 194.5 43.5t130.5 110.5zM453 324q0 36 14 61q29 70 149 80q13 1 197 14v-8q0 -121 -68 -199q-63 -75 -159 -75q-61 0 -97 33.5t-36 93.5z" />
    <glyph glyph-name="AEacute" unicode="&#x1fc;" 
d="M903 1694l223 272h-378l-101 -272h256zM618 375v-375h678v254h-368v403h313v250h-313v404h350v256h-956l-357 -1567h311l78 375h264zM406 621l143 690h69v-690h-212z" />
    <glyph glyph-name="aeacute" unicode="&#x1fd;" 
d="M788 1247l238 367h-375l-110 -367h247zM1239 319h-258q-12 -129 -94 -129q-62 0 -84 58q-29 66 -29 231l471 2v78q0 277 -74 414q-82 151 -270 151q-87 0 -142 -29.5t-93 -84.5h-7q-77 112 -233 112q-150 0 -240 -92.5t-96 -257.5h254q4 141 90 141q48 0 66 -45t18 -139
v-72q-119 0 -198 -20.5t-138 -69.5q-114 -97 -114 -264q0 -155 74 -239t214 -84q93 0 157 38.5t108 122.5h8q27 -75 94 -119.5t164 -44.5q316 0 352 342zM991 657h-217q3 129 29 199q21 66 80 66q105 0 108 -248v-17zM408 203q-93 0 -93 127q0 59 37 106q36 45 168 45v-86
q0 -192 -112 -192z" />
    <glyph glyph-name="Oslashacute" unicode="&#x1fe;" 
d="M780 1694l224 272h-379l-101 -272h256zM1225 778q0 389 -117 584l164 262h-185l-86 -137q-132 102 -346 102q-298 0 -433.5 -200t-135.5 -611q0 -377 111 -577l-158 -252h184l80 127q133 -109 352 -109q304 0 441 205q129 193 129 606zM655 1341q127 0 176 -127
l-391 -626q-4 54 -4 82v90q0 342 43 459q24 66 66 94t110 28zM655 219q-73 0 -116 30t-66 99l397 635q7 -96 7 -190q0 -328 -46 -451q-24 -66 -66 -94.5t-110 -28.5z" />
    <glyph glyph-name="oslashacute" unicode="&#x1ff;" 
d="M776 1247l238 367h-375l-111 -367h248zM1210 549q0 251 -131 401l178 221h-194l-100 -122q-126 75 -308 75q-259 0 -407 -151q-150 -156 -150 -424q0 -253 131 -406l-178 -221h193l102 125q128 -76 307 -76q249 0 402 156q155 155 155 422zM655 911q99 0 150 -57
l-369 -457q-12 67 -12 152q0 162 51 258q55 104 180 104zM655 186q-99 0 -151 58l370 454q11 -86 11 -149q0 -166 -49 -258q-56 -105 -181 -105z" />
    <glyph glyph-name="Scommaaccent" unicode="&#x218;" 
d="M879 1141h323q-28 452 -536 452q-253 0 -398 -135q-143 -131 -143 -334q0 -186 111 -307q90 -98 268 -141l190 -43q118 -26 166.5 -73.5t48.5 -135.5q0 -92 -66 -147.5t-181 -55.5q-240 0 -263 228h-325q17 -235 167.5 -358.5t420.5 -123.5q272 0 424.5 132t152.5 372
q0 185 -101 290.5t-309 156.5l-188 45q-105 25 -145.5 67.5t-40.5 128.5q0 84 59 134t148 50q105 0 161 -59q46 -52 56 -143zM657 -426l189 320h-354l-50 -320h215z" />
    <glyph glyph-name="scommaaccent" unicode="&#x219;" 
d="M836 784h303q-13 154 -123 240q-128 100 -357 100q-224 0 -354 -100q-129 -101 -129 -260q0 -150 94 -234q84 -75 240 -98l201 -31q83 -12 115 -33t32 -65q0 -59 -48.5 -84.5t-150.5 -25.5q-104 0 -157 32q-44 26 -56 99h-303q12 -173 135.5 -264t378.5 -91q231 0 363 97
q143 100 143 290q0 127 -79 204.5t-257 105.5l-202 30q-82 12 -115 35t-33 70t47.5 72.5t134.5 25.5q164 0 177 -115zM645 -424l189 320h-355l-49 -320h215z" />
    <glyph glyph-name="uni021A" unicode="&#x21a;" 
d="M86 1567v-262h401v-1305h336v1305h402v262h-1139zM635 -424l188 320h-354l-49 -320h215z" />
    <glyph glyph-name="uni021B" unicode="&#x21b;" 
d="M444 848v-508q0 -179 113 -274q106 -89 287 -89q154 0 315 41v248q-110 -30 -213 -30t-141.5 37t-38.5 130v445h391v250h-395v342h-293v-201q0 -91 -30.5 -122.5t-116.5 -31.5h-218v-237h340zM797 -424l188 320h-354l-49 -320h215z" />
    <glyph glyph-name="dotlessj" unicode="&#x237;" 
d="M498 -403q196 0 319 90q144 105 144 309v1102h-709v-248h383v-832q0 -87 -42 -122t-116 -35q-87 0 -225 20v-252q114 -32 246 -32z" />
    <glyph glyph-name="circumflex" unicode="&#x2c6;" 
d="M516 1614l-223 -367h227l125 148h2l131 -148h244l-225 367h-281z" />
    <glyph glyph-name="caron" unicode="&#x2c7;" 
d="M799 1247l223 367h-227l-125 -148h-2l-131 148h-244l225 -367h281z" />
    <glyph glyph-name="breve" unicode="&#x2d8;" 
d="M532 1614h-219q0 -181 101 -275q89 -86 239 -86q155 0 244 86q98 92 98 275h-207q0 -72 -35 -110t-94 -38t-93 38t-34 110z" />
    <glyph glyph-name="dotaccent" unicode="&#x2d9;" 
d="M827 1235v332h-344v-332h344z" />
    <glyph glyph-name="ring" unicode="&#x2da;" 
d="M387 1452q0 -113 74 -184q77 -74 186 -74q112 0 189 74q73 70 73 184q0 110 -73 186q-74 74 -189 74q-112 0 -186 -74q-74 -77 -74 -186zM647 1329q-49 0 -80.5 34.5t-31.5 88.5q0 52 31.5 88.5t80.5 36.5q50 0 82.5 -36.5t32.5 -88.5q0 -54 -32 -88.5t-83 -34.5z" />
    <glyph glyph-name="ogonek" unicode="&#x2db;" 
d="M385 18q-108 -30 -163.5 -89t-55.5 -130q0 -184 293 -184h59v182q-55 1 -79.5 18.5t-24.5 53.5q0 63 102 131q-14 1 -36 4t-27 4l-43 6q-24 4 -25 4z" />
    <glyph glyph-name="tilde" unicode="&#x2dc;" 
d="M264 1247h197q0 47 20.5 75t55.5 28q11 0 23 -2t29.5 -8.5t26 -9.5t33.5 -13.5t31 -13.5q110 -50 170 -50q125 0 190 101q54 84 54 241h-199q0 -102 -76 -102q-39 0 -139 47t-172 47q-126 0 -189 -98q-55 -82 -55 -242z" />
    <glyph glyph-name="hungarumlaut" unicode="&#x2dd;" 
d="M498 1247l170 367h-293l-101 -367h224zM852 1247l197 367h-291l-127 -367h221z" />
    <glyph glyph-name="Wgrave" unicode="&#x1e80;" 
d="M293 1966l223 -272h256l-100 272h-379zM494 0l96 449q15 75 22 118q20 112 29 205h14q2 -40 13 -102q10 -79 39 -224l90 -446h370l97 1567h-271l-57 -1133h-14l-15 101q-12 86 -30 174l-105 489h-223l-105 -489q-7 -26 -14 -82q-22 -141 -27 -193h-16l-59 1133h-281
l96 -1567h351z" />
    <glyph glyph-name="wgrave" unicode="&#x1e81;" 
d="M672 1614h-375l238 -367h247zM563 0l68 649l8 70q4 47 8 125h15q1 -10 2 -31.5t2 -32.5q3 -62 12 -131l67 -649h361l143 1098h-260l-55 -670l-6 -68q-1 -11 -2 -32.5t-2 -30.5q-2 -23 -2 -64h-15q-1 9 -2 30t-2 32q-3 62 -12 131l-72 672h-325l-70 -668l-6 -70
q-9 -105 -10 -127h-15q-1 10 -2 31.5t-2 32.5q-2 18 -2 63l-6 68l-53 670h-269l144 -1098h360z" />
    <glyph glyph-name="Wacute" unicode="&#x1e82;" 
d="M788 1694l224 272h-379l-101 -272h256zM494 0l96 449q15 75 22 118q20 112 29 205h14q2 -40 13 -102q10 -79 39 -224l90 -446h370l97 1567h-271l-57 -1133h-14l-15 101q-12 86 -30 174l-105 489h-223l-105 -489q-7 -26 -14 -82q-22 -141 -27 -193h-16l-59 1133h-281
l96 -1567h351z" />
    <glyph glyph-name="wacute" unicode="&#x1e83;" 
d="M793 1247l237 367h-375l-110 -367h248zM563 0l68 649l8 70q4 47 8 125h15q1 -10 2 -31.5t2 -32.5q3 -62 12 -131l67 -649h361l143 1098h-260l-55 -670l-6 -68q-1 -11 -2 -32.5t-2 -30.5q-2 -23 -2 -64h-15q-1 9 -2 30t-2 32q-3 62 -12 131l-72 672h-325l-70 -668l-6 -70
q-9 -105 -10 -127h-15q-1 10 -2 31.5t-2 32.5q-2 18 -2 63l-6 68l-53 670h-269l144 -1098h360z" />
    <glyph glyph-name="Wdieresis" unicode="&#x1e84;" 
d="M582 1675v332h-344v-332h344zM1073 1675v332h-344v-332h344zM494 0l96 449q15 75 22 118q20 112 29 205h14q2 -40 13 -102q10 -79 39 -224l90 -446h370l97 1567h-271l-57 -1133h-14l-15 101q-12 86 -30 174l-105 489h-223l-105 -489q-7 -26 -14 -82q-22 -141 -27 -193
h-16l-59 1133h-281l96 -1567h351z" />
    <glyph glyph-name="wdieresis" unicode="&#x1e85;" 
d="M584 1235v332h-344v-332h344zM1067 1567h-344v-332h344v332zM563 0l68 649l8 70q4 47 8 125h15q1 -10 2 -31.5t2 -32.5q3 -62 12 -131l67 -649h361l143 1098h-260l-55 -670l-6 -68q-1 -11 -2 -32.5t-2 -30.5q-2 -23 -2 -64h-15q-1 9 -2 30t-2 32q-3 62 -12 131l-72 672
h-325l-70 -668l-6 -70q-9 -105 -10 -127h-15q-1 10 -2 31.5t-2 32.5q-2 18 -2 63l-6 68l-53 670h-269l144 -1098h360z" />
    <glyph glyph-name="Ygrave" unicode="&#x1ef2;" 
d="M311 1966l224 -272h256l-101 272h-379zM823 0v672l461 895h-342l-272 -568h-11l-278 568h-354l460 -901v-666h336z" />
    <glyph glyph-name="ygrave" unicode="&#x1ef3;" 
d="M696 1614h-374l237 -367h248zM502 -6l-8 -27q-24 -72 -76 -96q-45 -23 -146 -23q-72 0 -114 11v-252q4 -2 51 -8q54 -7 125 -7q206 0 319 93q97 80 170 280l420 1133h-315l-191 -574q-24 -73 -26 -84q-21 -76 -33 -135h-6q-9 45 -33 135q-5 21 -25 84l-192 574h-334z" />
    <glyph glyph-name="uni2009" unicode="&#x2009;" horiz-adv-x="0" 
 />
    <glyph glyph-name="endash" unicode="&#x2013;" 
d="M1083 524v230h-856v-230h856z" />
    <glyph glyph-name="emdash" unicode="&#x2014;" 
d="M1311 524v230h-1311v-230h1311z" />
    <glyph glyph-name="quoteleft" unicode="&#x2018;" 
d="M780 958l94 609h-235l-225 -609h366z" />
    <glyph glyph-name="quoteright" unicode="&#x2019;" 
d="M530 1567l-94 -609h236l225 609h-367z" />
    <glyph glyph-name="quotesinglbase" unicode="&#x201a;" 
d="M897 369h-367l-94 -609h236z" />
    <glyph glyph-name="quotedblleft" unicode="&#x201c;" 
d="M543 958l94 609h-236l-225 -609h367zM1001 958l95 609h-236l-225 -609h366z" />
    <glyph glyph-name="quotedblright" unicode="&#x201d;" 
d="M309 1567l-94 -609h236l225 609h-367zM768 1567l-94 -609h235l226 609h-367z" />
    <glyph glyph-name="quotedblbase" unicode="&#x201e;" 
d="M688 369h-366l-95 -609h236zM1147 369h-367l-94 -609h236z" />
    <glyph glyph-name="dagger" unicode="&#x2020;" 
d="M1147 874v216h-379v477h-225v-477h-377v-216h377v-1038h225v1038h379z" />
    <glyph glyph-name="daggerdbl" unicode="&#x2021;" 
d="M1145 334v190h-377v383h377v191h-377v469h-225v-469h-377v-191h377v-383h-377v-190h377v-498h225v498h377z" />
    <glyph glyph-name="bullet" unicode="&#x2022;" 
d="M653 328q126 0 213 84q88 85 88 219q0 136 -82.5 220.5t-216.5 84.5q-125 0 -211 -86q-88 -88 -88 -219q0 -136 83 -219.5t214 -83.5z" />
    <glyph glyph-name="ellipsis" unicode="&#x2026;" 
d="M385 0v369h-332v-369h332zM823 0v369h-334v-369h334zM1257 0v369h-331v-369h331z" />
    <glyph glyph-name="perthousand" unicode="&#x2030;" 
d="M35 1253q0 -162 69 -246.5t189 -84.5q116 0 186 85t70 246t-69.5 244.5t-186.5 83.5t-187.5 -84t-70.5 -244zM291 1079q-38 0 -53 43q-15 40 -15 131q0 89 15 133t53 44q67 0 67 -177q0 -174 -67 -174zM1004 1061v162l-963 -553v-160zM467 -14q116 0 186 85t70 246
t-69.5 244.5t-186.5 83.5t-187.5 -84t-70.5 -244q0 -162 69 -246.5t189 -84.5zM1032 -14q116 0 186 85t70 246t-69.5 244.5t-186.5 83.5t-187.5 -84t-70.5 -244q0 -162 69 -246.5t189 -84.5zM465 141q-38 0 -53 43t-15 133q0 91 15 134t53 43q67 0 67 -177q0 -176 -67 -176z
M1030 141q-38 0 -53 43q-14 41 -14 133q0 93 14 134q15 43 53 43q68 0 68 -177q0 -176 -68 -176z" />
    <glyph glyph-name="minute" unicode="&#x2032;" 
d="M682 958l307 609h-397l-156 -609h246z" />
    <glyph glyph-name="second" unicode="&#x2033;" 
d="M436 958l307 609h-397l-156 -609h246zM969 958l307 609h-397l-156 -609h246z" />
    <glyph glyph-name="guilsinglleft" unicode="&#x2039;" 
d="M647 950l-332 -418l324 -415h326l-328 411l326 422h-316z" />
    <glyph glyph-name="guilsinglright" unicode="&#x203a;" 
d="M664 117l331 418l-323 415h-326l328 -411l-326 -422h316z" />
    <glyph glyph-name="fraction" unicode="&#x2044;" 
d="M205 -82l1116 1679h-215l-1116 -1679h215z" />
    <glyph glyph-name="Euro" unicode="&#x20ac;" 
d="M1249 440h-305q-23 -217 -192 -217q-90 0 -144.5 68.5t-77.5 220.5h351v158h-363q-2 14 -2 43v43v43q0 25 2 37h359v157h-347q23 157 76.5 224t147.5 67q86 0 135 -65q41 -54 51 -160h315q-13 218 -139 344q-137 137 -366 137q-225 0 -366 -137.5t-183 -409.5h-166v-157
h149q-2 -14 -2 -41v-43v-41q0 -27 2 -41h-145v-158h158q39 -272 172.5 -408.5t369.5 -136.5q238 0 371 133q124 127 139 340z" />
    <glyph glyph-name="trademark" unicode="&#x2122;" 
d="M8 1567v-142h160v-526h164v526h157v142h-481zM698 899v477h13q0 -28 14 -96q2 -16 14 -63l90 -318h140l90 318q19 74 24 114l7 45h12v-477h153v668h-237l-92 -342q-3 -10 -8 -41q-9 -56 -9 -58h-10q0 17 -2 27q-4 34 -14 72l-92 342h-244v-668h151z" />
    <glyph glyph-name="uni2153" unicode="&#x2153;" horiz-adv-x="3932" 
d="M1114 731h-264v889h-236q-3 -106 -59 -150q-58 -47 -168 -47h-68v-176h261v-516h-281v-205h815v205zM1516 -82l1116 1679h-215l-1117 -1679h216zM2957 375h121q78 0 120 -35t42 -102q0 -65 -45 -102.5t-121 -37.5q-69 0 -115.5 38t-52.5 108h-258q0 -149 100 -242
q109 -106 326 -106q200 0 320 98q106 87 106 227q0 113 -56.5 176.5t-166.5 87.5v4q196 61 196 250q0 124 -96 205q-105 84 -295 84q-207 0 -317 -110q-96 -96 -99 -238h252q5 66 45.5 106.5t118.5 40.5q61 0 97 -32.5t36 -94.5q0 -63 -43.5 -96t-113.5 -33h-101v-196z" />
    <glyph glyph-name="uni2154" unicode="&#x2154;" horiz-adv-x="3932" 
d="M231 1225h263q0 115 49 164q43 43 119 43q68 0 105.5 -34t37.5 -100q0 -64 -31.5 -112.5t-109.5 -114.5l-439 -377v-168h848v209h-463v10l37 25l41 31q15 9 53 39l109 92q119 98 168 178t49 203q0 139 -96 225q-111 96 -312 96q-205 0 -317 -112q-111 -111 -111 -297z
M1516 -82l1116 1679h-215l-1117 -1679h216zM2957 375h121q78 0 120 -35t42 -102q0 -65 -45 -102.5t-121 -37.5q-69 0 -115.5 38t-52.5 108h-258q0 -149 100 -242q109 -106 326 -106q200 0 320 98q106 87 106 227q0 113 -56.5 176.5t-166.5 87.5v4q196 61 196 250
q0 124 -96 205q-105 84 -295 84q-207 0 -317 -110q-96 -96 -99 -238h252q5 66 45.5 106.5t118.5 40.5q61 0 97 -32.5t36 -94.5q0 -63 -43.5 -96t-113.5 -33h-101v-196z" />
    <glyph glyph-name="oneeighth" unicode="&#x215b;" horiz-adv-x="3932" 
d="M1114 731h-264v889h-236q-3 -106 -59 -150q-58 -47 -168 -47h-68v-176h261v-516h-281v-205h815v205zM1516 -82l1116 1679h-215l-1117 -1679h216zM2664 725q0 -94 47.5 -155.5t124.5 -86.5v-8q-94 -25 -152 -91t-58 -171q0 -148 116.5 -233.5t329.5 -85.5
q211 0 328.5 87.5t117.5 233.5q0 107 -56.5 171t-153.5 89v8q77 27 124.5 88t47.5 154q0 131 -107 215q-109 86 -301 86q-190 0 -299 -86t-109 -215zM3072 848q69 0 111.5 -37t42.5 -109q0 -71 -42.5 -109t-111.5 -38t-111.5 38t-42.5 109q0 72 42.5 109t111.5 37zM3072 74
q-79 0 -129.5 40.5t-50.5 116.5q0 79 49 119.5t131 40.5t131 -40.5t49 -119.5q0 -77 -49.5 -117t-130.5 -40z" />
    <glyph glyph-name="threeeighths" unicode="&#x215c;" horiz-adv-x="3932" 
d="M541 983h121q78 0 119.5 -35t41.5 -102q0 -65 -45 -102t-121 -37q-69 0 -115.5 37.5t-52.5 107.5h-258q0 -148 101 -242q109 -106 325 -106q200 0 320 98q106 87 106 227q0 113 -56.5 177t-166.5 88v4q197 62 197 250q0 123 -96 204q-105 84 -295 84q-208 0 -318 -110
q-95 -95 -98 -238h252q5 66 45.5 107t118.5 41q61 0 97 -32.5t36 -94.5q0 -63 -44 -96t-114 -33h-100v-197zM1516 -82l1116 1679h-215l-1117 -1679h216zM2664 725q0 -94 47.5 -155.5t124.5 -86.5v-8q-94 -25 -152 -91t-58 -171q0 -148 116.5 -233.5t329.5 -85.5
q211 0 328.5 87.5t117.5 233.5q0 107 -56.5 171t-153.5 89v8q77 27 124.5 88t47.5 154q0 131 -107 215q-109 86 -301 86q-190 0 -299 -86t-109 -215zM3072 848q69 0 111.5 -37t42.5 -109q0 -71 -42.5 -109t-111.5 -38t-111.5 38t-42.5 109q0 72 42.5 109t111.5 37zM3072 74
q-79 0 -129.5 40.5t-50.5 116.5q0 79 49 119.5t131 40.5t131 -40.5t49 -119.5q0 -77 -49.5 -117t-130.5 -40z" />
    <glyph glyph-name="fiveeighths" unicode="&#x215d;" horiz-adv-x="3932" 
d="M827 881q0 -89 -47.5 -135t-124.5 -46q-68 0 -112 37t-51 107h-263q11 -150 99 -234q111 -106 321 -106q216 0 330 114q106 106 106 277q0 167 -90.5 257.5t-246.5 90.5q-162 0 -248 -86h-8l14 242h514v219h-725l-33 -633h240q56 74 160 74q76 0 120.5 -46.5t44.5 -131.5
zM1516 -82l1116 1679h-215l-1117 -1679h216zM2664 725q0 -94 47.5 -155.5t124.5 -86.5v-8q-94 -25 -152 -91t-58 -171q0 -148 116.5 -233.5t329.5 -85.5q211 0 328.5 87.5t117.5 233.5q0 107 -56.5 171t-153.5 89v8q77 27 124.5 88t47.5 154q0 131 -107 215q-109 86 -301 86
q-190 0 -299 -86t-109 -215zM3072 848q69 0 111.5 -37t42.5 -109q0 -71 -42.5 -109t-111.5 -38t-111.5 38t-42.5 109q0 72 42.5 109t111.5 37zM3072 74q-79 0 -129.5 40.5t-50.5 116.5q0 79 49 119.5t131 40.5t131 -40.5t49 -119.5q0 -77 -49.5 -117t-130.5 -40z" />
    <glyph glyph-name="seveneighths" unicode="&#x215e;" horiz-adv-x="3932" 
d="M612 526l453 928v164h-832v-221h527l-426 -871h278zM1475 -82l1116 1679h-215l-1116 -1679h215zM2664 725q0 -94 47.5 -155.5t124.5 -86.5v-8q-94 -25 -152 -91t-58 -171q0 -148 116.5 -233.5t329.5 -85.5q211 0 328.5 87.5t117.5 233.5q0 107 -56.5 171t-153.5 89v8
q77 27 124.5 88t47.5 154q0 131 -107 215q-109 86 -301 86q-190 0 -299 -86t-109 -215zM3072 848q69 0 111.5 -37t42.5 -109q0 -71 -42.5 -109t-111.5 -38t-111.5 38t-42.5 109q0 72 42.5 109t111.5 37zM3072 74q-79 0 -129.5 40.5t-50.5 116.5q0 79 49 119.5t131 40.5
t131 -40.5t49 -119.5q0 -77 -49.5 -117t-130.5 -40z" />
    <glyph glyph-name="minus" unicode="&#x2212;" 
d="M1174 614v238h-1037v-238h1037z" />
    <glyph glyph-name="approxequal" unicode="&#x2248;" 
d="M176 778h203q9 103 92 103q49 0 184 -47q138 -48 217 -48q128 0 199 101q62 92 62 237h-187q-7 -57 -30.5 -79.5t-63.5 -22.5q-49 0 -184 47t-213 47q-134 0 -211 -100q-68 -88 -68 -238zM471 473q49 0 184 -47t217 -47q129 0 199 100q62 92 62 238h-187
q-7 -57 -30.5 -80t-63.5 -23q-46 0 -184 48q-135 47 -213 47q-135 0 -211 -99q-68 -88 -68 -239h203q9 102 92 102z" />
    <glyph glyph-name="notequal" unicode="&#x2260;" 
d="M1171 399v236h-458l84 184h374v236h-266l105 227h-193l-104 -227h-576v-236h467l-84 -184h-383v-236h275l-99 -215h193l98 215h567z" />
    <glyph glyph-name="lessequal" unicode="&#x2264;" 
d="M1153 608l-647 283l647 276v258l-1016 -456v-170l1016 -457v266zM1153 236h-1016v-236h1016v236z" />
    <glyph glyph-name="greaterequal" unicode="&#x2265;" 
d="M156 1159l647 -280l-647 -279v-258l1015 457v170l-1015 456v-266zM1171 236h-1015v-236h1015v236z" />
    <glyph glyph-name="uni24C5" unicode="&#x24c5;" 
d="M86 856v-151q0 -336 131 -527q145 -211 438 -211q295 0 439 213q131 191 131 525v151q0 329 -129 520q-151 215 -441 215q-293 0 -438 -215q-131 -189 -131 -520zM655 96q-239 0 -336 199q-75 149 -75 416v139q0 259 75 410q97 202 336 202q238 0 338 -202
q74 -154 74 -410v-139q0 -264 -74 -416q-100 -199 -338 -199zM604 616h27q167 0 250.5 74.5t83.5 231.5q0 160 -81.5 230.5t-246.5 70.5h-223v-885h190v278zM604 1065h35q69 0 99 -31t30 -114q0 -150 -131 -150h-33v295z" />
    <glyph glyph-name="uniE401" unicode="&#xe401;" 
d="M104 750q0 -395 135.5 -589t415.5 -194q285 0 418 195t133 588q0 399 -132.5 592.5t-418.5 193.5q-551 0 -551 -786zM655 1284q99 0 152 -64t72 -200l-461 -281v11q0 287 47 405q51 129 190 129zM655 219q-104 0 -155 59.5t-70 200.5l463 281v-10q0 -287 -45 -404
q-52 -127 -193 -127z" />
    <glyph glyph-name="uniF8FF" unicode="&#xf8ff;" 
d="M1241 1024q0 119 -45.5 226t-126.5 188q-81 80 -188 124t-226 44t-225 -44t-186 -124q-81 -81 -126.5 -188t-45.5 -226t45.5 -224.5t126.5 -185.5q80 -81 186 -126.5t225 -45.5t226 45.5t188 126.5q81 80 126.5 185.5t45.5 224.5zM406 1325h-203q67 99 167 163t220 81
q-111 -80 -184 -244zM1110 1325h-205q-65 154 -184 244q117 -13 219.5 -78t169.5 -166zM635 1325h-186q67 157 186 238v-238zM676 1325v238q63 -44 107.5 -99.5t78.5 -138.5h-186zM352 1042h-239q6 136 67 246h213q-38 -116 -41 -246zM635 1042h-242q3 131 43 246h199v-246z
M676 1288h198q41 -115 44 -246h-242v246zM1200 1042h-242q-3 143 -40 246h215q58 -110 67 -246zM393 760h-213q-61 110 -67 246h239q3 -137 41 -246zM635 760h-199q-40 115 -43 246h242v-246zM676 1006h242q-3 -136 -44 -246h-198v246zM1133 760h-215q37 106 40 246h242
q-9 -135 -67 -246zM594 479q-120 13 -221.5 78t-169.5 166h205q59 -144 186 -244zM635 723v-236q-119 83 -184 236h184zM676 723h184q-66 -156 -184 -236v236zM717 479q120 90 186 244h207q-67 -99 -173 -165.5t-220 -78.5z" />
    <glyph glyph-name="f_i" unicode="&#xfb01;" horiz-adv-x="2621" 
d="M1167 848v250h-366v106q0 164 168 164q104 0 198 -20v249q-148 27 -243 27q-203 0 -312 -88q-135 -109 -135 -342v-96h-346v-250h346v-848h324v848h366zM2161 1235v332h-344v-332h344zM2517 250h-367v848h-655v-248h332v-600h-371v-250h1061v250z" />
    <glyph glyph-name="f_l" unicode="&#xfb02;" horiz-adv-x="2621" 
d="M1167 848v250h-366v106q0 164 168 164q104 0 198 -20v249q-148 27 -243 27q-203 0 -312 -88q-135 -109 -135 -342v-96h-346v-250h346v-848h324v848h366zM2511 250h-379v1364h-655v-248h331v-1116h-370v-250h1073v250z" />
    <glyph glyph-name="IJ.alt01" horiz-adv-x="2621" 
d="M1137 1313v254h-963v-254h313v-1059h-313v-254h963v254h-314v1059h314zM2038 1565v-1094q0 -112 -74 -170q-63 -49 -176 -49q-102 0 -322 22v-262q185 -35 336 -35q253 0 404 121q164 131 164 351v1116h-332z" />
    <glyph glyph-name="J.alt01" 
d="M727 1567v-1094q0 -112 -74 -170q-63 -49 -176 -49q-101 0 -321 22v-262q180 -34 336 -34q253 0 403 120q164 131 164 351v1116h-332z" />
    <glyph glyph-name="Jcircumflex.alt01" 
d="M741 1966l-209 -272h226l127 102h2l129 -102h246l-213 272h-308zM727 1567v-1094q0 -112 -74 -170q-63 -49 -176 -49q-101 0 -321 22v-262q180 -34 336 -34q253 0 403 120q164 131 164 351v1116h-332z" />
    <glyph glyph-name="Q.old" 
d="M1124 -82l-118 176q219 195 219 684q0 420 -127 611q-133 200 -443 200q-298 0 -433.5 -200t-135.5 -611q0 -421 125 -606q132 -199 444 -199q100 0 152 17l131 -195zM428 778q0 324 47 439q26 63 69 90.5t111 27.5q63 0 106 -27.5t70 -90.5q54 -126 54 -439
q0 -330 -45 -446l-109 164l-182 -121l108 -162h-2q-68 0 -112 30t-68 97q-47 118 -47 438z" />
    <glyph glyph-name="i.loclTRK" 
d="M848 1235v332h-344v-332h344zM1204 250h-366v848h-656v-248h332v-600h-371v-250h1061v250z" />
    <glyph glyph-name="f.alt01" 
d="M1180 850v248h-367v108q0 90 37 126t113 36q31 0 63 -4q10 -2 27 -2v248l-19 4q-5 1 -19 2t-20 2q-93 6 -102 6q-187 0 -291 -82q-113 -93 -113 -301v-143h-346v-248h346v-850h324v850h367z" />
    <glyph glyph-name="ij.alt01" horiz-adv-x="2621" 
d="M848 1235v332h-344v-332h344zM2281 1567h-344v-332h344v332zM1204 250h-366v848h-656v-248h332v-600h-371v-250h1061v250zM1827 -403q192 0 309 90q135 104 135 309v1102h-708v-248h383v-832q0 -87 -42 -122t-116 -35q-76 0 -186 16v-252q126 -28 225 -28z" />
    <glyph glyph-name="j.alt01" 
d="M971 1567h-344v-332h344v332zM516 -403q192 0 309 90q136 104 136 309v1102h-709v-248h383v-832q0 -87 -42 -122t-116 -35q-76 0 -186 16v-252q126 -28 225 -28z" />
    <glyph glyph-name="dotlessj.alt01" 
d="M291 -123v-252q126 -28 225 -28q192 0 309 90q136 104 136 309v1102h-709v-248h383v-832q0 -87 -42 -122t-116 -35q-76 0 -186 16z" />
    <glyph glyph-name="jcircumflex.alt01" 
d="M633 1614l-223 -367h227l125 148h2l131 -148h244l-226 367h-280zM291 -123v-252q126 -28 225 -28q192 0 309 90q136 104 136 309v1102h-709v-248h383v-832q0 -87 -42 -122t-116 -35q-76 0 -186 16z" />
    <glyph glyph-name="t.alt01" 
d="M834 -20q108 0 188 22v242q-41 -8 -98 -8q-75 0 -111.5 36t-36.5 125v451h375v250h-379v342h-293v-201q0 -88 -29.5 -121t-117.5 -33h-217v-237h340v-512q0 -356 379 -356z" />
    <glyph glyph-name="tbar.alt01" 
d="M1022 2v242q-41 -8 -98 -8q-75 0 -111.5 36t-36.5 125v62h375v229h-375v160h375v250h-379v342h-293v-201q0 -88 -29.5 -121t-117.5 -33h-217v-237h340v-160h-340v-229h340v-123q0 -356 379 -356q108 0 188 22z" />
    <glyph glyph-name="tcaron.alt01" 
d="M1090 1198l157 416h-289l-38 -416h170zM834 -20q108 0 188 22v242q-41 -8 -98 -8q-75 0 -111.5 36t-36.5 125v451h375v250h-379v342h-293v-201q0 -88 -29.5 -121t-117.5 -33h-217v-237h340v-512q0 -356 379 -356z" />
    <glyph glyph-name="uni021B.alt01" 
d="M834 -20q108 0 188 22v242q-41 -8 -98 -8q-75 0 -111.5 36t-36.5 125v451h375v250h-379v342h-293v-201q0 -88 -29.5 -121t-117.5 -33h-217v-237h340v-512q0 -356 379 -356zM739 -424l189 320h-355l-49 -320h215z" />
    <glyph glyph-name="y.alt01" 
d="M502 -6l-8 -27q-24 -69 -64.5 -91.5t-110.5 -22.5q-31 0 -45 2q-42 0 -63 8v-256q3 -2 49 -8q47 -7 121 -7q179 0 283 93q86 79 159 280l420 1133h-315l-191 -574q-24 -73 -26 -84q-21 -76 -33 -135h-6q-9 45 -33 135q-5 21 -25 84l-192 574h-334z" />
    <glyph glyph-name="yacute.alt01" 
d="M780 1247l238 367h-375l-111 -367h248zM502 -6l-8 -27q-24 -69 -64.5 -91.5t-110.5 -22.5q-31 0 -45 2q-42 0 -63 8v-256q3 -2 49 -8q47 -7 121 -7q179 0 283 93q86 79 159 280l420 1133h-315l-191 -574q-24 -73 -26 -84q-21 -76 -33 -135h-6q-9 45 -33 135q-5 21 -25 84
l-192 574h-334z" />
    <glyph glyph-name="ycircumflex.alt01" 
d="M537 1614l-224 -367h228l125 148h2l131 -148h243l-225 367h-280zM502 -6l-8 -27q-24 -69 -64.5 -91.5t-110.5 -22.5q-31 0 -45 2q-42 0 -63 8v-256q3 -2 49 -8q47 -7 121 -7q179 0 283 93q86 79 159 280l420 1133h-315l-191 -574q-24 -73 -26 -84q-21 -76 -33 -135h-6
q-9 45 -33 135q-5 21 -25 84l-192 574h-334z" />
    <glyph glyph-name="ydieresis.alt01" 
d="M604 1235v332h-344v-332h344zM1087 1567h-344v-332h344v332zM502 -6l-8 -27q-24 -69 -64.5 -91.5t-110.5 -22.5q-31 0 -45 2q-42 0 -63 8v-256q3 -2 49 -8q47 -7 121 -7q179 0 283 93q86 79 159 280l420 1133h-315l-191 -574q-24 -73 -26 -84q-21 -76 -33 -135h-6
q-9 45 -33 135q-5 21 -25 84l-192 574h-334z" />
    <glyph glyph-name="ygrave.alt01" 
d="M692 1614h-375l238 -367h248zM502 -6l-8 -27q-24 -69 -64.5 -91.5t-110.5 -22.5q-31 0 -45 2q-42 0 -63 8v-256q3 -2 49 -8q47 -7 121 -7q179 0 283 93q86 79 159 280l420 1133h-315l-191 -574q-24 -73 -26 -84q-21 -76 -33 -135h-6q-9 45 -33 135q-5 21 -25 84l-192 574
h-334z" />
    <glyph glyph-name="f_i.alt01" horiz-adv-x="2621" 
d="M1180 850v248h-367v108q0 90 37 126t113 36q31 0 63 -4q10 -2 27 -2v248l-19 4q-5 1 -19 2t-20 2q-93 6 -102 6q-187 0 -291 -82q-113 -93 -113 -301v-143h-346v-248h346v-850h324v850h367zM2161 1235v332h-344v-332h344zM2517 250h-367v848h-655v-248h332v-600h-371
v-250h1061v250z" />
    <glyph glyph-name="f_l.alt01" horiz-adv-x="2621" 
d="M1180 850v248h-367v108q0 90 37 126t113 36q31 0 63 -4q10 -2 27 -2v248l-19 4q-5 1 -19 2t-20 2q-93 6 -102 6q-187 0 -291 -82q-113 -93 -113 -301v-143h-346v-248h346v-850h324v850h367zM2511 250h-379v1364h-655v-248h331v-1116h-370v-250h1073v250z" />
    <glyph glyph-name="zero.den" 
d="M205 459q0 -284 114 -424.5t334 -140.5t335.5 141t115.5 424q0 285 -115.5 426t-335.5 141q-217 0 -332.5 -142t-115.5 -425zM653 96q-83 0 -123 78q-43 82 -43 285q0 200 43 282q40 82 123 82q82 0 125 -82t43 -282q0 -197 -41 -281q-43 -82 -127 -82z" />
    <glyph glyph-name="one.den" 
d="M1114 123h-264v889h-236q-3 -106 -59 -150q-58 -47 -168 -47h-68v-176h261v-516h-281v-205h815v205z" />
    <glyph glyph-name="two.den" 
d="M231 616h263q0 115 49 164q43 43 119 43q68 0 105.5 -33.5t37.5 -99.5q0 -64 -31.5 -112.5t-109.5 -114.5l-439 -377v-168h848v209h-463v10l37 25l41 31q21 13 53 38l109 93q119 98 168 178t49 203q0 139 -96 225q-111 96 -312 96q-204 0 -317 -113q-111 -111 -111 -297z
" />
    <glyph glyph-name="three.den" 
d="M541 375h121q78 0 119.5 -35t41.5 -102q0 -65 -45 -102.5t-121 -37.5q-69 0 -115.5 38t-52.5 108h-258q0 -148 101 -242q109 -106 325 -106q200 0 320 98q106 87 106 227q0 113 -56.5 176.5t-166.5 87.5v4q197 62 197 250q0 124 -96 205q-105 84 -295 84
q-208 0 -318 -110q-95 -95 -98 -238h252q5 66 45.5 106.5t118.5 40.5q61 0 97 -32.5t36 -94.5q0 -63 -44 -96t-114 -33h-100v-196z" />
    <glyph glyph-name="four.den" 
d="M1128 354h-165v656h-351l-424 -672v-191h523v-229h252v229h165v207zM434 350l201 324q20 30 31 55q4 9 22 45q11 26 19 39h12v-463h-285z" />
    <glyph glyph-name="five.den" 
d="M827 272q0 -89 -47.5 -134.5t-124.5 -45.5q-68 0 -112 37t-51 107h-263q11 -150 99 -234q111 -106 321 -106q216 0 330 114q106 106 106 277q0 167 -90.5 257.5t-246.5 90.5q-162 0 -248 -86h-8l14 242h514v219h-725l-33 -633h240q56 74 160 74q76 0 120.5 -47t44.5 -132
z" />
    <glyph glyph-name="six.den" 
d="M817 733h262q-13 137 -100 207q-104 84 -287 84q-219 0 -340 -145q-129 -157 -129 -457q0 -266 123 -402q112 -124 320 -124q207 0 325 118q107 107 107 271q0 175 -103 268q-93 84 -237 84q-168 0 -258 -111h-11q22 308 197 308q113 0 131 -101zM674 86q-73 0 -119.5 48
t-46.5 140q0 93 44.5 142t123.5 49q76 0 120 -50t44 -141q0 -93 -45.5 -140.5t-120.5 -47.5z" />
    <glyph glyph-name="seven.den" 
d="M612 -82l453 928v164h-832v-222h527l-426 -870h278z" />
    <glyph glyph-name="eight.den" 
d="M248 725q0 -94 47.5 -155.5t124.5 -86.5v-8q-94 -25 -152.5 -91t-58.5 -171q0 -148 116.5 -233.5t329.5 -85.5q211 0 329 88t118 233q0 107 -57 171t-154 89v8q77 27 124.5 88t47.5 154q0 131 -107 215q-109 86 -301 86q-190 0 -299 -86q-108 -85 -108 -215zM655 848
q69 0 111.5 -37t42.5 -109q0 -71 -42.5 -109t-111.5 -38t-111 38t-42 109q0 72 42 109t111 37zM655 74q-79 0 -129.5 40.5t-50.5 116.5q0 79 49 119.5t131 40.5t131.5 -40.5t49.5 -119.5q0 -77 -50 -117t-131 -40z" />
    <glyph glyph-name="nine.den" 
d="M475 197h-252q11 -139 113.5 -220t286.5 -81q227 0 349 149t122 451q0 263 -117.5 395.5t-331.5 132.5q-193 0 -313 -113q-113 -104 -113 -260q0 -171 111 -264q97 -84 252 -84q81 0 142 31.5t95 79.5h10q-5 -163 -54 -244.5t-152 -81.5q-125 0 -148 109zM643 831
q68 0 118 -45.5t50 -130.5q0 -90 -47 -136t-123 -46q-73 0 -120.5 47t-47.5 135q0 89 53 136q46 40 117 40z" />
    <glyph glyph-name="zero.num" 
d="M205 1067q0 -284 114 -424.5t334 -140.5t335.5 141t115.5 424q0 285 -115.5 426t-335.5 141q-217 0 -332.5 -142t-115.5 -425zM653 705q-84 0 -123 77q-43 82 -43 285q0 201 43 283q40 82 123 82q82 0 125 -82t43 -283q0 -197 -41 -281q-43 -81 -127 -81z" />
    <glyph glyph-name="one.num" 
d="M1114 731h-264v889h-236q-3 -106 -59 -150q-58 -47 -168 -47h-68v-176h261v-516h-281v-205h815v205z" />
    <glyph glyph-name="two.num" 
d="M231 1225h263q0 115 49 164q43 43 119 43q68 0 105.5 -34t37.5 -100q0 -64 -31.5 -112.5t-109.5 -114.5l-439 -377v-168h848v209h-463v10l37 25l41 31q15 9 53 39l109 92q119 98 168 178t49 203q0 139 -96 225q-111 96 -312 96q-205 0 -317 -112q-111 -111 -111 -297z
" />
    <glyph glyph-name="three.num" 
d="M541 983h121q78 0 119.5 -35t41.5 -102q0 -65 -45 -102t-121 -37q-69 0 -115.5 37.5t-52.5 107.5h-258q0 -148 101 -242q109 -106 325 -106q200 0 320 98q106 87 106 227q0 113 -56.5 177t-166.5 88v4q197 62 197 250q0 123 -96 204q-105 84 -295 84q-208 0 -318 -110
q-95 -95 -98 -238h252q5 66 45.5 107t118.5 41q61 0 97 -32.5t36 -94.5q0 -63 -44 -96t-114 -33h-100v-197z" />
    <glyph glyph-name="four.num" 
d="M1128 963h-165v655h-351l-424 -672v-190h523v-230h252v230h165v207zM434 958l201 324q20 30 31 55q4 9 22 45q11 26 19 39h12v-463h-285z" />
    <glyph glyph-name="five.num" 
d="M827 881q0 -89 -47.5 -135t-124.5 -46q-68 0 -112 37t-51 107h-263q11 -150 99 -234q111 -106 321 -106q216 0 330 114q106 106 106 277q0 167 -90.5 257.5t-246.5 90.5q-162 0 -248 -86h-8l14 242h514v219h-725l-33 -633h240q56 74 160 74q76 0 120.5 -46.5t44.5 -131.5
z" />
    <glyph glyph-name="six.num" 
d="M817 1341h262q-13 137 -100 207q-104 84 -287 84q-219 0 -340 -145q-129 -157 -129 -457q0 -265 123 -401q113 -125 320 -125q206 0 325 119q107 107 107 270q0 175 -103 268q-93 84 -237 84q-169 0 -258 -110h-11q22 307 197 307q113 0 131 -101zM674 694
q-73 0 -119.5 48t-46.5 141q0 92 44.5 141t123.5 49q76 0 120 -49.5t44 -140.5q0 -93 -45.5 -141t-120.5 -48z" />
    <glyph glyph-name="seven.num" 
d="M612 526l453 928v164h-832v-221h527l-426 -871h278z" />
    <glyph glyph-name="eight.num" 
d="M248 1333q0 -93 47.5 -154.5t124.5 -86.5v-9q-94 -25 -152.5 -91t-58.5 -171q0 -148 116.5 -233.5t329.5 -85.5q211 0 329 88t118 233q0 107 -57 171t-154 89v9q77 27 124.5 87.5t47.5 153.5q0 131 -107 215q-109 86 -301 86q-190 0 -299 -86q-108 -85 -108 -215z
M655 1456q69 0 111.5 -36.5t42.5 -108.5q0 -71 -42.5 -109.5t-111.5 -38.5q-68 0 -110.5 38.5t-42.5 109.5q0 72 42 108.5t111 36.5zM655 682q-79 0 -129.5 41t-50.5 117q0 79 49 119t131 40t131.5 -40t49.5 -119q0 -77 -50 -117.5t-131 -40.5z" />
    <glyph glyph-name="nine.num" 
d="M475 805h-252q11 -139 113.5 -220t286.5 -81q227 0 349 149t122 451q0 263 -117.5 395.5t-331.5 132.5q-194 0 -313 -112q-113 -104 -113 -260q0 -172 111 -265q97 -84 252 -84q81 0 142 31.5t95 79.5h10q-5 -163 -54 -244.5t-152 -81.5q-125 0 -148 109zM643 1440
q68 0 118 -45.5t50 -130.5q0 -90 -47 -136.5t-123 -46.5q-73 0 -120.5 47.5t-47.5 135.5t53 135q47 41 117 41z" />
    <glyph glyph-name="zero.sub" 
d="M205 377q0 -284 114 -424.5t334 -140.5t335.5 141t115.5 424q0 285 -115.5 426t-335.5 141q-217 0 -332.5 -142t-115.5 -425zM653 14q-83 0 -123 78q-43 82 -43 285q0 200 43 282q40 82 123 82q82 0 125 -82t43 -282q0 -197 -41 -281q-43 -82 -127 -82z" />
    <glyph glyph-name="one.sub" 
d="M1114 41h-264v889h-236q-3 -106 -59 -150q-58 -47 -168 -47h-68v-176h261v-516h-281v-205h815v205z" />
    <glyph glyph-name="two.sub" 
d="M231 535h263q0 114 49 163q43 43 119 43q68 0 105.5 -33.5t37.5 -99.5q0 -64 -31.5 -112.5t-109.5 -114.5l-439 -377v-168h848v209h-463v10l37 25l41 31q15 9 53 39l109 92q119 98 168 178t49 203q0 139 -96 225q-111 96 -312 96q-204 0 -317 -113q-111 -111 -111 -296z
" />
    <glyph glyph-name="three.sub" 
d="M541 293h121q78 0 119.5 -35t41.5 -102q0 -65 -45 -102.5t-121 -37.5q-69 0 -115.5 38t-52.5 108h-258q0 -148 101 -242q109 -106 325 -106q200 0 320 98q106 87 106 227q0 113 -56.5 176.5t-166.5 87.5v5q197 62 197 249q0 124 -96 205q-105 84 -295 84
q-208 0 -318 -110q-95 -95 -98 -238h252q5 66 45.5 106.5t118.5 40.5q61 0 97 -32.5t36 -94.5q0 -63 -44 -96t-114 -33h-100v-196z" />
    <glyph glyph-name="four.sub" 
d="M1128 272h-165v656h-351l-424 -672v-190h523v-230h252v230h165v206zM434 268l201 324q20 29 31 55q4 9 22 45q11 26 19 39h12v-463h-285z" />
    <glyph glyph-name="five.sub" 
d="M827 190q0 -89 -47.5 -134.5t-124.5 -45.5q-68 0 -112 37t-51 107h-263q11 -150 99 -234q111 -106 321 -106q216 0 330 114q106 106 106 277q0 167 -90.5 257.5t-246.5 90.5q-162 0 -248 -86h-8l14 242h514v219h-725l-33 -633h240q56 74 160 74q76 0 120.5 -47t44.5 -132
z" />
    <glyph glyph-name="six.sub" 
d="M817 651h262q-13 137 -100 207q-104 84 -287 84q-219 0 -340 -145q-129 -157 -129 -457q0 -265 123 -401q113 -125 320 -125t325 118q107 107 107 271q0 175 -103 268q-93 84 -237 84q-168 0 -258 -111h-11q22 308 197 308q113 0 131 -101zM674 4q-73 0 -119.5 48
t-46.5 141q0 92 44.5 141t123.5 49q76 0 120 -49.5t44 -140.5q0 -93 -45.5 -141t-120.5 -48z" />
    <glyph glyph-name="seven.sub" 
d="M612 -164l453 928v164h-832v-221h527l-426 -871h278z" />
    <glyph glyph-name="eight.sub" 
d="M248 643q0 -94 47.5 -155.5t124.5 -86.5v-8q-94 -25 -152.5 -91t-58.5 -171q0 -148 116.5 -233.5t329.5 -85.5q211 0 329 88t118 233q0 107 -57 171t-154 89v8q77 27 124.5 88t47.5 154q0 131 -107 215q-109 86 -301 86q-190 0 -299 -86q-108 -85 -108 -215zM655 766
q69 0 111.5 -36.5t42.5 -108.5q0 -71 -42.5 -109.5t-111.5 -38.5q-68 0 -110.5 38.5t-42.5 109.5q0 72 42 108.5t111 36.5zM655 -8q-79 0 -129.5 41t-50.5 117q0 79 49 119t131 40t131.5 -40t49.5 -119q0 -77 -50 -117.5t-131 -40.5z" />
    <glyph glyph-name="nine.sub" 
d="M475 115h-252q11 -139 113.5 -220t286.5 -81q227 0 349 149t122 451q0 263 -117.5 395.5t-331.5 132.5q-193 0 -313 -113q-113 -104 -113 -260q0 -171 111 -264q97 -84 252 -84q81 0 142 31.5t95 79.5h10q-5 -163 -54 -244.5t-152 -81.5q-125 0 -148 109zM643 750
q68 0 118 -46t50 -131q0 -90 -47 -136t-123 -46q-73 0 -120.5 47t-47.5 135q0 89 53 136q47 41 117 41z" />
    <glyph glyph-name="zero.sup" 
d="M205 1221q0 -284 114.5 -425t333.5 -141q220 0 335.5 141t115.5 425q0 285 -115.5 426t-335.5 141q-217 0 -332.5 -142t-115.5 -425zM653 858q-83 0 -123 78q-43 82 -43 285q0 200 43 282q40 82 123 82q82 0 125 -82t43 -282q0 -197 -41 -281q-43 -82 -127 -82z" />
    <glyph glyph-name="one.sup" 
d="M1114 885h-264v889h-236q-3 -106 -59 -150q-58 -47 -168 -47h-68v-176h261v-516h-281v-205h815v205z" />
    <glyph glyph-name="two.sup" 
d="M231 1378h263q0 115 49 164q43 43 119 43q68 0 105.5 -33.5t37.5 -99.5q0 -64 -31.5 -112.5t-109.5 -114.5l-439 -377v-168h848v209h-463v10l37 25l41 30q15 9 53 39l109 92q118 97 168 179q49 80 49 202q0 140 -96 226q-111 96 -312 96q-204 0 -317 -113
q-111 -111 -111 -297z" />
    <glyph glyph-name="three.sup" 
d="M541 1137h121q78 0 119.5 -35.5t41.5 -102.5q0 -65 -45 -102t-121 -37q-69 0 -115.5 38t-52.5 108h-258q0 -148 101 -242q110 -107 325 -107q199 0 320 99q106 87 106 227q0 113 -56.5 176.5t-166.5 87.5v4q197 62 197 250q0 124 -96 205q-105 84 -295 84
q-207 0 -318 -111q-95 -95 -98 -237h252q5 66 45.5 106.5t118.5 40.5q61 0 97 -32.5t36 -94.5q0 -63 -44 -96t-114 -33h-100v-196z" />
    <glyph glyph-name="four.sup" 
d="M1128 1116h-165v656h-351l-424 -672v-191h523v-229h252v229h165v207zM434 1112l201 324q20 30 31 55q4 9 22 45q11 26 19 39h12v-463h-285z" />
    <glyph glyph-name="five.sup" 
d="M827 1034q0 -89 -47.5 -134.5t-124.5 -45.5q-68 0 -112 36.5t-51 106.5h-263q11 -149 99 -233q112 -107 321 -107q215 0 330 115q106 106 106 277q0 167 -90.5 257.5t-246.5 90.5q-162 0 -248 -86h-8l14 241h514v220h-725l-33 -633h240q55 73 160 73q76 0 120.5 -46.5
t44.5 -131.5z" />
    <glyph glyph-name="six.sup" 
d="M817 1495h262q-13 137 -100 207q-104 84 -287 84q-218 0 -340 -146q-129 -157 -129 -456q0 -266 123 -402q113 -125 320 -125q206 0 325 119q107 107 107 271q0 175 -103 268q-93 84 -237 84q-168 0 -258 -111h-11q22 307 197 307q113 0 131 -100zM674 848
q-73 0 -119.5 48t-46.5 140q0 93 44.5 142t123.5 49q76 0 120 -50t44 -141q0 -93 -45.5 -140.5t-120.5 -47.5z" />
    <glyph glyph-name="seven.sup" 
d="M612 680l453 928v164h-832v-222h527l-426 -870h278z" />
    <glyph glyph-name="eight.sup" 
d="M248 1487q0 -94 47.5 -155.5t124.5 -86.5v-8q-94 -25 -152.5 -91t-58.5 -171q0 -148 116.5 -234t329.5 -86q211 0 329 88t118 234q0 107 -57 171t-154 89v8q77 27 124.5 88t47.5 154q0 131 -107 215q-109 86 -301 86q-190 0 -299 -86q-108 -85 -108 -215zM655 1610
q69 0 111.5 -37t42.5 -109q0 -71 -42.5 -109t-111.5 -38t-111 38t-42 109q0 72 42 109t111 37zM655 836q-79 0 -129.5 40.5t-50.5 116.5q0 79 49 119.5t131 40.5t131.5 -40.5t49.5 -119.5q0 -77 -50 -117t-131 -40z" />
    <glyph glyph-name="nine.sup" 
d="M475 958h-252q11 -139 113.5 -220t286.5 -81q227 0 349 149t122 451q0 263 -117.5 396t-331.5 133q-193 0 -313 -113q-113 -104 -113 -260q0 -171 111 -264q97 -84 252 -84q81 0 142 31.5t95 79.5h10q-5 -163 -54 -244.5t-152 -81.5q-125 0 -148 108zM643 1593
q68 0 118 -45.5t50 -130.5q0 -90 -47 -136t-123 -46q-73 0 -120.5 47t-47.5 135t53 135q47 41 117 41z" />
    <glyph glyph-name="backslash.uc" 
d="M1239 -174l-930 1880h-250l930 -1880h250z" />
    <glyph glyph-name="exclamdown.uc" 
d="M492 1198h368v369h-368v-369zM545 1028l-58 -1075h377l-55 1075h-264z" />
    <glyph glyph-name="questiondown.uc" 
d="M459 1198h368v369h-368v-369zM426 379q0 71 30 117t97 104l113 92q84 69 104 113q18 39 18 139v84h-286v-29q0 -47 -11.5 -70.5t-46.5 -54.5l-168 -141q-79 -64 -120 -133q-56 -97 -56 -223q0 -198 125 -314q135 -126 404 -126q267 0 420 153q144 144 141 393h-324
q0 -151 -71 -225q-60 -63 -166 -63q-97 0 -150 49t-53 135z" />
    <glyph glyph-name="slash.uc" 
d="M317 -174l930 1880h-250l-931 -1880h251z" />
    <glyph glyph-name="braceleft.uc" 
d="M283 631h143q109 0 109 -121v-303q0 -201 110 -291t356 -90h60v219q-87 0 -136 12t-73 41q-23 27 -29 69t-6 122v223q0 112 -45.5 169.5t-150.5 80.5v8q104 20 150 78t46 164v231q0 74 8 118t31 73q24 29 71.5 41t133.5 12v219h-60q-246 0 -354 -86q-112 -87 -112 -301
v-305q0 -119 -109 -119h-143v-264z" />
    <glyph glyph-name="braceright.uc" 
d="M1028 901h-143q-109 0 -109 121v303q0 201 -110.5 291t-356.5 90h-59v-219q87 0 136 -12t73 -41q23 -27 29 -69t6 -122v-223q0 -112 45.5 -169.5t150.5 -80.5v-8q-104 -20 -150 -78t-46 -164v-231q0 -74 -8 -118t-31 -71q-24 -30 -71.5 -42.5t-133.5 -12.5v-219h59
q246 0 357 86q110 88 110 301v305q0 119 109 119h143v264z" />
    <glyph glyph-name="bracketleft.uc" 
d="M1085 -174v217h-395v1446h395v217h-684v-1880h684z" />
    <glyph glyph-name="bracketright.uc" 
d="M238 1706v-217h395v-1446h-395v-217h684v1880h-684z" />
    <glyph glyph-name="parenleft.uc" 
d="M784 -174h314q-182 161 -287 383q-119 251 -119 557q0 303 119 551q93 198 287 389h-314q-188 -184 -282 -381q-113 -235 -113 -559q0 -322 113 -561q98 -206 282 -379z" />
    <glyph glyph-name="parenright.uc" 
d="M526 1706h-313q189 -180 285 -383q120 -253 120 -557q0 -303 -116 -551q-102 -211 -289 -389h313q184 174 283 381q113 235 113 559t-113 563q-95 201 -283 377z" />
    <glyph glyph-name="emdash.uc" 
d="M1311 616v230h-1311v-230h1311z" />
    <glyph glyph-name="endash.uc" 
d="M1083 616v230h-856v-230h856z" />
    <glyph glyph-name="hyphen.uc" 
d="M987 582v299h-663v-299h663z" />
    <glyph glyph-name="guillemotleft.uc" 
d="M168 655l242 -415h260l-226 411l224 422h-260zM637 655l242 -415h260l-226 411l224 422h-260z" />
    <glyph glyph-name="guillemotright.uc" 
d="M674 657l-242 416h-260l225 -411l-223 -422h260zM1143 657l-242 416h-260l225 -411l-223 -422h260z" />
    <glyph glyph-name="guilsinglleft.uc" 
d="M647 1073l-332 -418l324 -415h326l-328 411l326 422h-316z" />
    <glyph glyph-name="guilsinglright.uc" 
d="M664 240l331 417l-323 416h-326l328 -411l-326 -422h316z" />
    <glyph glyph-name="space_uni0326" 
d="M664 -424l188 320h-354l-49 -320h215z" />
    <glyph glyph-name="space.copy_one" 
 />
    <glyph glyph-name="minus.den" 
d="M1051 350v191h-791v-191h791z" />
    <glyph glyph-name="plus.den" 
d="M1051 350v191h-291v288h-211v-288h-289v-191h289v-291h211v291h291z" />
    <glyph glyph-name="minus.num" 
d="M1051 958v191h-791v-191h791z" />
    <glyph glyph-name="plus.num" 
d="M1051 958v191h-291v289h-211v-289h-289v-191h289v-290h211v290h291z" />
    <glyph glyph-name="minus.sub" 
d="M1051 268v191h-791v-191h791z" />
    <glyph glyph-name="plus.sub" 
d="M1051 268v191h-291v289h-211v-289h-289v-191h289v-291h211v291h291z" />
    <glyph glyph-name="minus.sup" 
d="M1051 1112v191h-791v-191h791z" />
    <glyph glyph-name="plus.sup" 
d="M1051 1112v191h-291v288h-211v-288h-289v-191h289v-291h211v291h291z" />
    <glyph glyph-name="dagger.alt01" 
d="M1001 1081v215h-233v271h-225v-271h-234v-215h234v-528h225v528h233z" />
    <glyph glyph-name="daggerdbl.alt01" 
d="M1001 766v190h-233v207h233v191h-233v213h-225v-213h-234v-191h234v-207h-234v-190h234v-213h225v213h233z" />
    <glyph glyph-name="bar.uc" 
d="M768 -174v1880h-225v-1880h225z" />
    <glyph glyph-name="at.uc" 
d="M711 -37q137 0 258 41v176q-154 -39 -234 -39q-246 0 -348 154q-90 132 -90 442v133q0 253 76 390q93 182 321 182q159 0 242 -107q78 -101 78 -260h-8q-28 58 -80 94q-74 45 -164 45q-155 0 -243.5 -113.5t-88.5 -320.5q0 -216 90 -327q84 -103 238 -103q97 0 158.5 40
t99.5 114h12v-129h189v676q0 259 -138 409q-140 152 -391 152q-184 0 -313 -76q-148 -85 -215 -260q-66 -176 -66 -389v-195q0 -374 149.5 -551.5t467.5 -177.5zM836 537q-81 0 -110.5 59t-29.5 180q0 120 32 179t108 59q69 0 110 -57t41 -154v-72q0 -86 -41.5 -140
t-109.5 -54z" />
    <glyph glyph-name="caron.alt" 
d="M674 1198l157 416h-288l-39 -416h170z" />
    <glyph glyph-name="acute.uc" 
d="M676 1694l223 272h-379l-100 -272h256z" />
    <glyph glyph-name="breve.uc" 
d="M541 1991h-228q3 -164 105 -246q91 -76 235 -76q149 0 240 76q99 80 102 246h-215q-11 -115 -121 -115t-118 115z" />
    <glyph glyph-name="caron.uc" 
d="M813 1694l209 272h-225l-127 -102h-2l-129 102h-246l213 -272h307z" />
    <glyph glyph-name="circumflex.uc" 
d="M502 1966l-209 -272h225l127 102h2l129 -102h246l-213 272h-307z" />
    <glyph glyph-name="dieresis.uc" 
d="M582 1675v332h-344v-332h344zM1073 1675v332h-344v-332h344z" />
    <glyph glyph-name="dotaccent.uc" 
d="M825 1679v328h-344v-328h344z" />
    <glyph glyph-name="grave.uc" 
d="M362 1966l224 -272h256l-101 272h-379z" />
    <glyph glyph-name="hungarumlaut.uc" 
d="M578 1694l127 293h-285l-58 -293h216zM930 1694l153 293h-286l-84 -293h217z" />
    <glyph glyph-name="macron.uc" 
d="M1006 1712v223h-701v-223h701z" />
    <glyph glyph-name="ring.uc" 
d="M647 1626q112 0 189 74q73 70 73 184q0 111 -73 187q-73 73 -189 73q-113 0 -186 -73q-74 -77 -74 -187q0 -113 74 -184q77 -74 186 -74zM647 2009q50 0 82.5 -36.5t32.5 -88.5q0 -54 -32 -88.5t-83 -34.5q-49 0 -80.5 34.5t-31.5 88.5q0 52 31.5 88.5t80.5 36.5z" />
    <glyph glyph-name="tilde.uc" 
d="M274 1673h187q0 38 20.5 63t57.5 25q41 0 137 -39q100 -41 164 -41q121 0 188 93q55 78 55 225h-186q0 -40 -20.5 -65t-57.5 -25t-137 41q-99 39 -164 39q-124 0 -188 -93q-56 -82 -56 -223z" />
    <glyph glyph-name="uni0326.alt" horiz-adv-x="0" 
d="M639 1587l-203 -340h363l55 340h-215z" />
    <glyph glyph-name="DC1" horiz-adv-x="1024" 
 />
    <glyph glyph-name="DC2" horiz-adv-x="1024" 
 />
    <glyph glyph-name="DC3" horiz-adv-x="1024" 
 />
    <glyph glyph-name="DC4" horiz-adv-x="1024" 
 />
    <glyph glyph-name="DLE" horiz-adv-x="1024" 
 />
    <glyph glyph-name="HT" horiz-adv-x="1024" 
 />
    <glyph glyph-name="LF" horiz-adv-x="1024" 
 />
    <glyph glyph-name="RS" horiz-adv-x="1024" 
 />
    <glyph glyph-name="US" horiz-adv-x="1024" 
 />
  </font>
</defs>
</svg>
