<?xml version="1.0" standalone="no"?>
<!DOCTYPE svg PUBLIC "-//W3C//DTD SVG 1.1//EN" "http://www.w3.org/Graphics/SVG/1.1/DTD/svg11.dtd" >
<svg xmlns="http://www.w3.org/2000/svg" xmlns:xlink="http://www.w3.org/1999/xlink" version="1.1">
<metadata>
Created by FontForge 20170731 at Sat Jan  1 04:00:56 2022
 By Aleksey,,,
(C)2012 Kai Bernau and Susana Carvalho with Christian Schwartz under exclusive license to Schwartzco Inc./Commercial Type. All rights reserved.
</metadata>
<defs>
<font id="AtlasTypewriterWeb-RegularItalic" horiz-adv-x="1310" >
  <font-face 
    font-family="Atlas Typewriter Web Italic"
    font-weight="400"
    font-style="italic"
    font-stretch="normal"
    units-per-em="2048"
    panose-1="0 0 5 0 0 0 0 0 0 0"
    ascent="1663"
    descent="-385"
    x-height="1079"
    cap-height="1567"
    bbox="-111 -436 3473 2451"
    underline-thickness="102"
    underline-position="-255"
    slope="-10"
    unicode-range="U+000D-FB02"
  />
<missing-glyph horiz-adv-x="1024" 
 />
    <glyph glyph-name=".notdef" horiz-adv-x="1024" 
 />
    <glyph glyph-name=".null" horiz-adv-x="0" 
 />
    <glyph glyph-name="nonmarkingreturn" horiz-adv-x="682" 
 />
    <glyph glyph-name="NULL" horiz-adv-x="0" 
 />
    <glyph glyph-name="NULL" horiz-adv-x="0" 
 />
    <glyph glyph-name="CR" unicode="&#xd;" horiz-adv-x="1024" 
 />
    <glyph glyph-name="space" unicode=" " 
 />
    <glyph glyph-name="exclam" unicode="!" 
d="M719 485l227 1129h-205l-172 -1129h150zM745 274h-274l-49 -274h274z" />
    <glyph glyph-name="quotedbl" unicode="&#x22;" 
d="M580 1012l170 555h-283l-35 -555h148zM989 1012l170 555h-282l-35 -555h147z" />
    <glyph glyph-name="numbersign" unicode="#" 
d="M782 610l-131 -407h150l131 407h248l26 146h-227l98 307h244l27 145h-222l113 357h-149l-113 -357h-275l113 357h-149l-113 -357h-244l-26 -145h221l-98 -307h-238l-27 -146h217l-131 -407h150l131 407h274zM555 756l98 307h275l-99 -307h-274z" />
    <glyph glyph-name="dollar" unicode="$" 
d="M600 -238l41 224q222 15 360 135q146 127 146 319q0 150 -70 244q-72 93 -250 156l-30 10l94 532q108 -23 159.5 -100t43.5 -190h172q11 188 -88 305q-95 108 -260 133l30 166h-133l-29 -160q-214 -12 -340 -123q-133 -117 -133 -299q0 -277 277 -366l51 -19l-109 -592
q-131 14 -194 90.5t-59 227.5h-170q-9 -220 104 -336q110 -116 293 -131l-41 -226h135zM760 1389l-90 -494q-104 35 -142.5 87t-38.5 148q0 113 80 183q76 64 191 76zM668 137l98 547q115 -47 162 -106q41 -54 41 -156q0 -122 -90 -199q-85 -70 -207 -86h-4z" />
    <glyph glyph-name="percent" unicode="%" 
d="M195 0l1171 1585h-166l-1171 -1585h166zM381 879q187 0 276 157q70 121 70 277q0 115 -61 188q-70 80 -205 80q-179 0 -266 -156q-72 -124 -72 -278q0 -117 63 -189q66 -79 195 -79zM389 993q-72 0 -102 49q-27 44 -27 107q0 117 45 207q54 110 156 110q69 0 99 -43.5
t30 -109.5q0 -116 -39 -199q-55 -121 -162 -121zM913 -14q188 0 277 157q70 121 70 277q0 114 -62 188q-70 80 -205 80q-179 0 -266 -156q-72 -124 -72 -278q0 -115 64 -188q67 -80 194 -80zM922 100q-72 0 -103 50q-26 42 -26 106q0 117 45 207q54 110 155 110
q69 0 99 -43.5t30 -109.5q0 -116 -39 -199q-55 -121 -161 -121z" />
    <glyph glyph-name="ampersand" unicode="&#x26;" 
d="M1163 0l31 160q-96 0 -131 12q-36 12 -74 78q116 171 234 536h-179q-72 -244 -141 -385l-227 410q213 112 313 215q117 123 117 268q0 152 -100 236q-97 82 -252 82q-172 0 -289 -111q-119 -113 -119 -289q0 -101 24.5 -177t73.5 -165q-202 -95 -297 -204
q-108 -127 -108 -293q0 -188 125 -297q117 -105 299 -105q238 0 401 138q44 -66 94 -86q59 -23 181 -23h24zM524 1227q0 113 63.5 178t162.5 65q87 0 135.5 -47.5t48.5 -128.5q0 -116 -96 -209q-17 -16 -36 -30.5t-48 -32t-42 -25.5t-54 -30.5t-48 -26.5q-43 84 -64.5 149.5
t-21.5 137.5zM512 737l276 -497q-122 -119 -296 -119q-126 0 -194.5 71t-68.5 191q0 112 56 190q61 85 227 164z" />
    <glyph glyph-name="quotesingle" unicode="'" 
d="M784 1012l170 555h-282l-35 -555h147z" />
    <glyph glyph-name="parenleft" unicode="(" 
d="M719 -266h166q-140 207 -197 381q-59 180 -59 387q0 380 182 672q142 227 422 440h-191q-286 -193 -434 -463q-162 -295 -162 -647q0 -224 86 -445q70 -184 187 -325z" />
    <glyph glyph-name="parenright" unicode=")" 
d="M614 1614h-165q139 -206 196 -373q60 -180 60 -395q0 -380 -181 -670q-139 -226 -424 -442h191q289 196 436 463q160 292 160 647q0 222 -86 446q-72 184 -187 324z" />
    <glyph glyph-name="asterisk" unicode="*" 
d="M879 545l184 88l-223 368l2 7l422 36l-35 205l-410 -116l-6 2l119 419l-205 35l-33 -432l-6 -2l-346 250l-100 -180l383 -178v-7l-336 -272l143 -145l287 321h4z" />
    <glyph glyph-name="plus" unicode="+" 
d="M1165 653l29 158h-373l76 391h-176l-76 -391h-375l-28 -158h372l-77 -393h176l78 393h374z" />
    <glyph glyph-name="comma" unicode="," 
d="M807 274h-295l-205 -534h162z" />
    <glyph glyph-name="hyphen" unicode="-" 
d="M942 573l35 189h-571l-31 -189h567z" />
    <glyph glyph-name="period" unicode="." 
d="M696 0l49 274h-274l-49 -274h274z" />
    <glyph glyph-name="slash" unicode="/" 
d="M115 -266l1255 1880h-178l-1255 -1880h178z" />
    <glyph glyph-name="zero" unicode="0" 
d="M575 -33q243 0 408 197q132 157 203 432q53 212 53 434q0 250 -111 380t-311 130q-244 0 -409 -197q-133 -159 -201 -430q-55 -212 -55 -436q0 -240 106 -375t317 -135zM1047 1042q0 -180 -39 -364q-49 -233 -142 -379q-113 -176 -270 -176q-143 0 -205 110
q-47 84 -47 232q0 170 41 364q51 241 141 381q110 174 269 174q142 0 202 -102q50 -89 50 -240z" />
    <glyph glyph-name="one" unicode="1" 
d="M1118 154h-379l242 1370h-154q-12 -71 -36 -117.5t-68 -85.5q-71 -59 -207 -59h-137l-27 -144h375l-170 -964h-375l-26 -154h936z" />
    <glyph glyph-name="two" unicode="2" 
d="M270 1024h176q11 188 113 287q78 73 215 73q127 0 193.5 -63.5t66.5 -181.5q0 -145 -104 -271q-31 -38 -77.5 -83t-78.5 -73t-100 -85l-574 -486l-26 -141h1016l30 162h-760v4q5 3 15 10t19.5 14t17.5 13q92 69 145 116l303 250q185 150 266 273q95 143 95 315
q0 181 -125 287q-119 96 -310 96q-219 0 -360 -129q-153 -140 -156 -387z" />
    <glyph glyph-name="three" unicode="3" 
d="M565 690h121q130 0 192 -68t62 -184q0 -134 -90 -221q-90 -90 -246 -90q-304 0 -307 299h-182q-12 -207 116 -332t363 -125q222 0 373 129q155 132 155 338q0 261 -227 328v8q138 25 231 129q99 107 99 260q0 174 -119 277q-117 102 -313 102q-214 0 -355 -125
q-148 -134 -162 -332h181q22 154 109.5 227.5t219.5 73.5q114 0 184 -61t70 -174q0 -139 -89.5 -217t-239.5 -78h-113z" />
    <glyph glyph-name="four" unicode="4" 
d="M1202 528h-190l174 990h-219l-838 -1002l-23 -147h701l-66 -369h177l65 369h193zM332 526l508 609q6 8 17 21.5t19.5 24t14.5 19.5q46 65 70 109h12l-139 -783h-502z" />
    <glyph glyph-name="five" unicode="5" 
d="M332 395h-180q-12 -206 112 -317q121 -109 342 -109q132 0 242 45.5t188 128.5q160 166 160 428q0 189 -111 306q-115 118 -311 118q-97 0 -182 -33.5t-123 -82.5h-6l84 477h688l29 162h-861l-141 -807h168q51 67 118 101t171 34q140 0 211 -78.5t71 -208.5
q0 -172 -90 -293q-102 -141 -284 -141q-146 0 -222.5 67t-72.5 203z" />
    <glyph glyph-name="six" unicode="6" 
d="M1071 1176h176q-3 161 -108 260q-110 104 -289 104q-274 0 -451 -219q-135 -167 -204 -457q-50 -214 -50 -385q0 -226 109 -358q126 -152 360 -152q122 0 225.5 44t178.5 124q74 78 113.5 183t39.5 223q0 192 -114 309q-117 117 -303 117q-251 0 -377 -193h-15
q53 277 162 436q121 177 318 177q103 0 163.5 -57t65.5 -156zM338 430q0 165 96 272q100 111 264 111q132 0 208.5 -73.5t76.5 -211.5q0 -160 -88 -274q-100 -129 -270 -129q-133 0 -210 82t-77 223z" />
    <glyph glyph-name="seven" unicode="7" 
d="M428 0l881 1384l24 134h-1022l-30 -170h802l-864 -1348h209z" />
    <glyph glyph-name="eight" unicode="8" 
d="M600 -37q231 0 383 125q164 137 164 350q0 122 -68 207q-64 79 -149 107v4q132 36 215 145q88 115 88 254q0 175 -127 283q-125 106 -311 106q-98 0 -190 -33.5t-161 -93.5q-71 -61 -111 -146.5t-40 -183.5q0 -106 50 -186.5t126 -112.5v-6q-156 -39 -252 -149
q-100 -114 -100 -271q0 -184 133 -292q132 -107 350 -107zM737 838q-114 0 -186 62.5t-72 174.5q0 140 82 228q86 92 227 92q107 0 183 -64q76 -66 76 -176q0 -141 -86 -227q-87 -90 -224 -90zM606 113q-131 0 -213 61q-88 66 -88 193q0 144 92 233q95 92 258 92
q126 0 211 -61q92 -69 92 -193q0 -146 -92 -235q-93 -90 -260 -90z" />
    <glyph glyph-name="nine" unicode="9" 
d="M524 -31q258 0 432 199q140 160 211 438q54 222 54 445q0 204 -105 335q-127 154 -356 154q-118 0 -218 -43t-171 -119q-69 -74 -107.5 -173t-38.5 -204q0 -192 117 -309q114 -114 301 -114q112 0 207 43t154 131h12q-63 -303 -164 -455q-121 -176 -313 -176
q-120 0 -184 60t-64 161h-174q-9 -155 98 -262q111 -111 309 -111zM1038 1096q0 -163 -90 -260q-98 -109 -272 -109q-127 0 -195.5 77.5t-68.5 205.5q0 142 82 252q94 127 258 127q126 0 206 -80t80 -213z" />
    <glyph glyph-name="colon" unicode=":" 
d="M887 1079h-275l-49 -274h275zM745 274h-274l-49 -274h274z" />
    <glyph glyph-name="semicolon" unicode=";" 
d="M905 1079h-274l-47 -274h274zM766 274h-295l-205 -534h162z" />
    <glyph glyph-name="less" unicode="&#x3c;" 
d="M1075 322l-651 352l790 342l31 184l-1028 -455l-24 -118l849 -469z" />
    <glyph glyph-name="equal" unicode="=" 
d="M1200 840l31 155h-930l-31 -155h930zM1159 625h-930l-30 -156h929z" />
    <glyph glyph-name="greater" unicode="&#x3e;" 
d="M291 1038l651 -352l-790 -342l-31 -186l1028 454l25 119l-850 469z" />
    <glyph glyph-name="question" unicode="?" 
d="M1057 1235q0 -102 -43 -170t-129 -127l-103 -72q-113 -76 -151 -121q-23 -26 -35.5 -59.5t-24.5 -89.5l-24 -131h170l20 100q10 42 17 58q11 37 57 67q5 4 25 17.5t34 23.5l91 64q116 75 188 170q92 120 92 286t-108 271q-116 110 -320 110q-232 0 -367 -135
q-145 -142 -157 -393h178q19 190 100 282.5t238 92.5q117 0 184.5 -66.5t67.5 -177.5zM741 274h-274l-49 -274h274z" />
    <glyph glyph-name="at" unicode="@" 
d="M643 -250q140 0 240 33l22 123q-138 -29 -223 -29q-514 0 -418 619l21 131q48 303 127 442q116 201 346 201q196 0 276 -123q74 -113 45 -320h-6q-71 146 -244 146q-207 0 -303 -182q-69 -133 -69 -349q0 -138 74 -212t206 -74q159 0 250 133h6l-20 -111h137l111 629
q49 270 -76 430t-383 160q-307 0 -459 -234q-111 -168 -162 -497l-24 -156q-57 -364 88 -565q141 -195 438 -195zM774 279q-149 0 -149 184q0 128 34 225q26 74 74.5 120t122.5 46q96 0 146.5 -70.5t27.5 -185.5l-12 -78q-17 -111 -82.5 -176t-161.5 -65z" />
    <glyph glyph-name="A" unicode="A" 
d="M1145 0l-184 1567h-248l-729 -1567h194l211 467h506l49 -467h201zM809 1397l6 -101q1 -14 4 -44t4 -46l6 -84l52 -501h-422l225 501q19 43 33 80l63 160q9 31 13 35h16z" />
    <glyph glyph-name="B" unicode="B" 
d="M88 0h492q285 0 448 123q174 129 174 379q0 126 -69.5 210t-194.5 115v13q138 30 213 114q86 92 86 256q0 163 -104 254q-121 103 -351 103h-417zM528 1415h265q254 0 254 -219q0 -153 -103 -227q-92 -66 -242 -66h-266zM412 750h274q160 0 242 -58.5t82 -189.5
q0 -186 -123 -275q-104 -75 -291 -75h-291z" />
    <glyph glyph-name="C" unicode="C" 
d="M1116 1100h193q12 231 -111 360q-126 129 -342 129q-174 0 -295 -71q-226 -134 -325 -422q-82 -242 -93 -457q-6 -89 -6 -113q0 -283 137 -426q124 -133 357 -133q241 0 403 162q135 138 174 360h-188q-36 -168 -138 -266t-251 -98q-132 0 -213 90q-88 98 -88 287
q0 152 30 319q42 250 144 410q126 203 338 203q151 0 223 -105q54 -88 51 -229z" />
    <glyph glyph-name="D" unicode="D" 
d="M57 0h426q404 0 613 293q182 255 182 670q0 301 -170 458q-158 146 -424 146h-350zM496 1403h176q411 0 411 -430q0 -154 -30 -299q-48 -216 -160 -344q-142 -166 -381 -166h-236z" />
    <glyph glyph-name="E" unicode="E" 
d="M1069 0l29 166h-760l96 545h643l29 161h-643l94 529h750l28 166h-940l-276 -1567h950z" />
    <glyph glyph-name="F" unicode="F" 
d="M1122 668l29 161h-655l102 572h739l29 166h-930l-276 -1567h190l119 668h653z" />
    <glyph glyph-name="G" unicode="G" 
d="M838 1436q141 0 213 -82q58 -72 55 -203h182q9 209 -114 326q-121 112 -336 112q-263 0 -439 -194q-152 -168 -223 -432q-61 -227 -61 -447q0 -286 129 -424q115 -123 338 -123q234 0 368 209h8l-30 -178h166l139 791h-547l-29 -156h373l-22 -129q-28 -152 -107 -250
q-116 -137 -303 -137q-143 0 -217 90t-74 283q0 162 39 352q54 257 154 401q135 191 338 191z" />
    <glyph glyph-name="H" unicode="H" 
d="M993 709l-125 -709h191l276 1567h-190l-123 -697h-623l123 697h-190l-277 -1567h191l125 709h622z" />
    <glyph glyph-name="I" unicode="I" 
d="M1260 1413l26 154h-901l-27 -154h357l-223 -1259h-357l-26 -154h901l26 154h-356l223 1259h357z" />
    <glyph glyph-name="J" unicode="J" 
d="M444 -20q496 0 576 454l201 1133h-723l-29 -162h532l-170 -959q-26 -147 -110 -221.5t-248 -74.5q-161 0 -313 38l-31 -172q160 -36 315 -36z" />
    <glyph glyph-name="K" unicode="K" 
d="M594 772l369 -772h200l-430 903l653 664h-227l-727 -740l131 740h-188l-277 -1567h189l98 559z" />
    <glyph glyph-name="L" unicode="L" 
d="M1128 0l29 166h-778l248 1401h-191l-276 -1567h968z" />
    <glyph glyph-name="M" unicode="M" 
d="M229 0l238 1354h20q-8 -76 -8 -174q0 -35 4 -97l45 -708h179l292 704q21 49 39 99q43 108 62 176h20l-237 -1354h178l276 1567h-276l-322 -768q-28 -66 -37 -94q-39 -128 -45 -156h-16q1 12 2 37.5t2 38.5q5 119 0 174l-49 768h-262l-277 -1567h172z" />
    <glyph glyph-name="N" unicode="N" 
d="M227 0l238 1356h12q2 -18 10 -64q11 -73 29 -143l295 -1149h252l276 1567h-172l-237 -1356h-12q0 4 -11 65q-12 76 -30 148l-293 1143h-252l-277 -1567h172z" />
    <glyph glyph-name="O" unicode="O" 
d="M113 516q0 -300 141 -434q118 -115 336 -115q260 0 432 211q132 159 203 447q51 207 51 413q0 302 -141 437q-119 114 -336 114q-260 0 -430 -209q-138 -173 -205 -446q-51 -209 -51 -418zM594 127q-141 0 -215 89t-74 286q0 160 37 350q48 245 147 393q120 185 306 185
q141 0 214.5 -89t73.5 -286q0 -165 -36 -348q-47 -241 -146 -394q-124 -186 -307 -186z" />
    <glyph glyph-name="P" unicode="P" 
d="M391 598h344q251 0 402 139q163 150 163 408q0 206 -129 319q-121 103 -321 103h-477l-277 -1567h191zM537 1411h286q138 0 212.5 -68.5t74.5 -205.5q0 -192 -102 -287.5t-287 -95.5h-301z" />
    <glyph glyph-name="Q" unicode="Q" 
d="M922 98v11q163 94 264 391q90 272 90 538q0 302 -141 437q-122 114 -336 114q-260 0 -430 -209q-138 -173 -205 -446q-51 -209 -51 -418q0 -300 141 -434q118 -115 336 -115q58 0 96 6q50 4 84 4q109 0 168 -45q59 -47 121 -163l166 90q-61 112 -130 167t-173 72z
M594 127q-141 0 -215 89t-74 286q0 160 37 350q48 245 147 393q120 185 306 185q141 0 214.5 -89t73.5 -286q0 -165 -36 -348q-47 -241 -146 -394q-124 -186 -307 -186z" />
    <glyph glyph-name="R" unicode="R" 
d="M1128 0l-247 692v6q168 29 272 125q133 123 133 340q0 191 -117.5 297.5t-322.5 106.5h-479l-277 -1567h191l116 664h305l228 -664h198zM528 1411h310q118 0 185 -64.5t67 -185.5q0 -165 -96 -252.5t-265 -87.5h-303z" />
    <glyph glyph-name="S" unicode="S" 
d="M244 438l-178 2q-11 -233 139 -358q139 -115 383 -115q261 0 418 129q163 134 163 357q0 157 -75 243t-263 152l-186 67q-112 41 -153 84q-60 63 -60 166q0 128 98 203q86 68 230 68q162 0 241.5 -77.5t77.5 -213.5h181q9 215 -127 332q-128 110 -367 110
q-235 0 -377 -123q-143 -124 -143 -321q0 -160 86 -252q76 -81 229 -137l195 -72q122 -46 172.5 -100.5t50.5 -151.5q0 -152 -119 -233q-109 -74 -256 -74q-363 0 -360 315z" />
    <glyph glyph-name="T" unicode="T" 
d="M238 1567l-29 -162h502l-248 -1405h190l248 1405h502l29 162h-1194z" />
    <glyph glyph-name="U" unicode="U" 
d="M328 1567l-181 -1006q-58 -313 80 -461q120 -131 371 -131q246 0 381 121.5t180 376.5l195 1100h-187l-196 -1104q-26 -159 -107 -242q-93 -96 -256 -96q-176 0 -242.5 103t-25.5 331l178 1008h-190z" />
    <glyph glyph-name="V" unicode="V" 
d="M1214 1567l-505 -1137l-35 -78q-6 -15 -18 -42.5t-17 -41.5q-26 -57 -37 -92h-18l-6 90q-1 11 -3.5 39t-3.5 45l-6 80l-110 1137h-195l170 -1567h264l715 1567h-195z" />
    <glyph glyph-name="W" unicode="W" 
d="M354 0l295 766q23 54 53 156l25 75h10q-1 -13 -2 -37t-2 -36q-3 -68 0 -158l33 -766h260l379 1567h-176l-322 -1364h-16q0 55 2 88q0 59 2 96q0 76 -2 117l-25 735h-184l-307 -786q-35 -80 -64 -179q-3 -11 -11 -34.5t-11 -36.5h-12l161 1364h-174l-174 -1567h262z" />
    <glyph glyph-name="X" unicode="X" 
d="M674 653l264 -653h209l-342 813l581 754h-212l-445 -592h-2l-240 592h-206l317 -740l-633 -827h213l494 653h2z" />
    <glyph glyph-name="Y" unicode="Y" 
d="M657 0l117 668l641 899h-207l-497 -721h-4l-252 721h-199l330 -905l-117 -662h188z" />
    <glyph glyph-name="Z" unicode="Z" 
d="M1100 1403l-1041 -1258l-26 -145h1073l29 164h-838l1042 1257l27 146h-1026l-29 -164h789z" />
    <glyph glyph-name="bracketleft" unicode="[" 
d="M913 -266l25 143h-395l282 1593h396l24 144h-569l-332 -1880h569z" />
    <glyph glyph-name="backslash" unicode="\" 
d="M1096 -266l-598 1880h-156l600 -1880h154z" />
    <glyph glyph-name="bracketright" unicode="]" 
d="M438 1614l-24 -144h395l-283 -1593h-395l-25 -143h570l332 1880h-570z" />
    <glyph glyph-name="asciicircum" unicode="^" 
d="M672 1567l-387 -695h176l274 494h10l261 -492h192l-379 693h-147z" />
    <glyph glyph-name="underscore" unicode="_" 
d="M999 -385l27 152h-901l-27 -152h901z" />
    <glyph glyph-name="grave" unicode="`" 
d="M817 1614h-270l211 -367h157z" />
    <glyph glyph-name="a" unicode="a" 
d="M844 176v-8q0 -168 186 -168h68l24 150h-51q-79 0 -61 83l80 447q35 192 -60 307q-101 119 -315 119q-189 0 -312 -92q-115 -86 -124 -236h178q10 93 76 140t167 47q264 0 215 -271l-8 -43q-175 0 -241 -6q-76 -7 -189 -24q-147 -27 -233 -113t-86 -223q0 -146 90 -223.5
t246 -77.5q228 0 344 192h6zM887 520l-13 -65q-27 -143 -118 -234q-95 -92 -224 -92q-94 0 -140 40.5t-46 131.5q0 132 143 178q122 41 398 41z" />
    <glyph glyph-name="b" unicode="b" 
d="M276 0l31 166h8q96 -193 336 -193q256 0 404 215q135 193 135 482q0 197 -96 313q-105 121 -287 121q-123 0 -221 -60q-77 -48 -135 -133h-5l125 703h-184l-285 -1614h174zM633 115q-164 0 -230 110q-62 99 -36 260l26 148q17 114 107 215q100 110 250 110
q127 0 188 -77.5t61 -208.5q0 -214 -75 -365q-99 -192 -291 -192z" />
    <glyph glyph-name="c" unicode="c" 
d="M983 754h178q3 161 -98 252q-111 100 -313 100q-288 0 -439 -217q-131 -188 -131 -461q0 -206 111 -326q116 -129 338 -129q205 0 340 115q123 105 145 264h-188q-18 -103 -93.5 -166t-193.5 -63q-138 0 -204 82.5t-66 234.5q0 193 77 336q101 185 299 185q126 0 189 -66
q49 -54 49 -141z" />
    <glyph glyph-name="d" unicode="d" 
d="M850 0h176l285 1614h-187l-123 -701h-4q-45 91 -106 134q-85 59 -223 59q-125 0 -226.5 -57t-171.5 -158q-68 -97 -104.5 -221.5t-36.5 -255.5q0 -202 102.5 -320.5t290.5 -118.5q118 0 198.5 44t145.5 128h8zM950 582l-20 -115q-28 -153 -105 -238q-93 -108 -250 -108
q-128 0 -192 79t-64 210q0 209 89 368q105 187 294 187q152 0 220 -119q55 -104 28 -264z" />
    <glyph glyph-name="e" unicode="e" 
d="M1077 283h-190q-24 -72 -91 -115t-167 -43q-283 0 -283 301v33q0 20 2 30h776l11 46q27 107 16.5 212t-59.5 183q-110 176 -355 176q-285 0 -440 -217q-67 -95 -101 -217.5t-34 -249.5q0 -205 106 -320q119 -129 348 -129q181 0 300 83t161 227zM967 635h-600
q30 145 114 229q96 99 250 99q135 0 198.5 -87.5t37.5 -240.5z" />
    <glyph glyph-name="f" unicode="f" 
d="M1206 926l27 153h-422l33 185q19 105 75.5 152.5t161.5 47.5q110 0 215 -30l25 145q-104 39 -238 39q-171 0 -274 -70q-111 -77 -145 -254l-39 -215h-387l-27 -153h387l-164 -926h187l163 926h422z" />
    <glyph glyph-name="g" unicode="g" 
d="M504 -408q219 0 360 109q153 118 197 367l178 1011h-176l-31 -170h-6q-34 83 -116.5 138t-204.5 55q-273 0 -426 -215q-138 -197 -138 -479q0 -198 119 -304q105 -96 270 -96q133 0 219.5 51t147.5 148h6l-20 -119q-36 -196 -127 -278q-82 -74 -238 -74q-123 0 -182 44.5
t-64 117.5h-174q-3 -151 117 -230q110 -76 289 -76zM973 598l-21 -109q-25 -145 -121 -235q-105 -98 -241 -98q-141 0 -205 80q-51 64 -51 200q0 78 21 168.5t63 167.5q46 86 119 138.5t170 52.5q156 0 227 -115q65 -105 39 -250z" />
    <glyph glyph-name="h" unicode="h" 
d="M997 0l121 686q34 199 -46 309.5t-243 110.5q-136 0 -239 -78q-79 -60 -115 -145h-6l131 731h-186l-285 -1614h186l103 584q27 158 119 264t221 106q123 0 160.5 -70.5t11.5 -217.5l-117 -666h184z" />
    <glyph glyph-name="i" unicode="i" 
d="M915 1282l50 274h-275l-49 -274h274zM1096 154h-404l164 925h-514l-27 -147h334l-137 -778h-393l-27 -154h977z" />
    <glyph glyph-name="j" unicode="j" 
d="M1077 1556h-274l-49 -274h274zM346 -408q192 0 292 94t136 294l195 1099h-602l-27 -147h422l-164 -924q-25 -148 -74 -203q-51 -57 -170 -57q-104 0 -202 41l-43 -149q121 -48 237 -48z" />
    <glyph glyph-name="k" unicode="k" 
d="M606 516l314 -516h208l-391 627l494 452h-232l-563 -526l187 1061h-177l-284 -1614h176l55 317z" />
    <glyph glyph-name="l" unicode="l" 
d="M1096 154h-402l258 1460h-536l-27 -148h354l-231 -1312h-393l-27 -154h977z" />
    <glyph glyph-name="m" unicode="m" 
d="M199 0l102 582q38 206 98 290q63 84 133 84q114 0 84 -168l-139 -788h174l103 582q38 206 98 290q63 84 133 84q114 0 84 -168l-139 -788h174l143 817q51 289 -203 289q-167 0 -239 -191h-6q-3 87 -45 134q-54 57 -150 57q-179 0 -252 -195h-8l29 168h-158l-190 -1079
h174z" />
    <glyph glyph-name="n" unicode="n" 
d="M997 0l119 672q36 209 -40 320.5t-249 111.5q-139 0 -241 -78q-74 -57 -129 -160h-4l39 213h-175l-190 -1079h186l103 584q27 158 119 264q95 106 223 106q123 0 160.5 -69.5t11.5 -216.5l-119 -668h186z" />
    <glyph glyph-name="o" unicode="o" 
d="M598 -27q280 0 432 217q135 196 135 484q0 199 -112 311q-119 119 -342 119q-276 0 -430 -219q-67 -96 -101.5 -222t-34.5 -260q0 -198 113 -311q116 -119 340 -119zM604 117q-138 0 -207 82q-61 70 -61 202q0 206 78 361q100 199 291 199q136 0 203 -77.5t67 -207.5
q0 -202 -80 -361q-100 -198 -291 -198z" />
    <glyph glyph-name="p" unicode="p" 
d="M313 154h4q45 -82 115 -127q83 -54 215 -54q127 0 230 57t174 158q68 95 103.5 219t35.5 255q0 205 -103 323.5t-282 118.5q-133 0 -221 -57q-76 -49 -138 -140h-4l29 172h-178l-258 -1464h184zM369 487l22 127q24 140 105 234q95 110 249 110q126 0 190 -78.5t64 -213.5
q0 -201 -81 -359q-47 -89 -119.5 -140.5t-167.5 -51.5q-163 0 -232 118q-57 98 -30 254z" />
    <glyph glyph-name="q" unicode="q" 
d="M1038 1079l-30 -170h-4q-41 88 -109 135q-86 60 -221 60q-129 0 -232.5 -57t-173.5 -158q-68 -95 -103.5 -218.5t-35.5 -256.5q0 -201 105 -320t292 -119q120 0 205 50q72 42 127 116h4l-90 -526h186l259 1464h-179zM950 582l-20 -115q-26 -150 -109 -242
q-90 -104 -246 -104q-125 0 -190.5 79.5t-65.5 209.5q0 207 87 368q101 187 292 187q153 0 220 -117q59 -103 32 -266z" />
    <glyph glyph-name="r" unicode="r" 
d="M969 930q131 0 243 -35l33 166q-97 39 -217 39q-163 0 -279 -70t-206 -233h-4l49 282h-174l-191 -1079h189l75 444q13 91 55 178t105 156q138 152 322 152z" />
    <glyph glyph-name="s" unicode="s" 
d="M934 778h172q3 163 -115 250q-106 76 -282 76q-196 0 -308 -94q-100 -87 -100 -222q0 -126 76 -196q69 -66 184 -94l146 -39q88 -24 130 -60.5t42 -95.5q0 -95 -72.5 -140.5t-200.5 -45.5q-146 0 -213 57q-57 46 -57 137h-170q-10 -160 106.5 -249t331.5 -89
q226 0 344 105q107 91 107 241q0 122 -70.5 186t-230.5 107l-113 31q-88 25 -126 59t-38 91q0 82 58 126t170 44q107 0 166 -47t63 -138z" />
    <glyph glyph-name="t" unicode="t" 
d="M555 926l-98 -564q-35 -205 47 -296t293 -91q103 0 221 41l26 152q-110 -35 -223 -35q-114 0 -155 41q-53 47 -31 180l102 572h443l26 153h-442l59 332h-170l-39 -219q-10 -63 -40 -88t-93 -25h-270l-27 -153h371z" />
    <glyph glyph-name="u" unicode="u" 
d="M315 1079l-120 -688q-36 -210 47 -317q79 -101 250 -101q130 0 231 80q69 55 123 148h8l-37 -201h174l191 1079h-185l-92 -528q-35 -201 -128.5 -313.5t-223.5 -112.5q-121 0 -159 65t-13 209l119 680h-185z" />
    <glyph glyph-name="v" unicode="v" 
d="M659 0l598 1079h-186l-389 -714q-38 -71 -59 -121l-25 -54h-12q-1 17 -19 109l-12 66l-143 714h-176l225 -1079h198z" />
    <glyph glyph-name="w" unicode="w" 
d="M387 0l238 614q26 61 55 164l25 84h12q-1 -14 -2 -42t-2 -42q-4 -103 -2 -164l20 -614h211l383 1079h-168l-242 -721q-4 -10 -16 -55q-16 -60 -16 -61l-9 -39t-8 -33h-12q1 12 2 36t2 36q4 78 4 116l-20 721h-183l-278 -721q-12 -28 -19 -55q-26 -91 -34 -133h-13l7 70
q8 52 8 120l6 719h-164l6 -1079h209z" />
    <glyph glyph-name="x" unicode="x" 
d="M264 0l367 416h6l242 -416h194l-319 545l483 534h-209l-352 -397h-6l-230 397h-194l307 -522l-500 -557h211z" />
    <glyph glyph-name="y" unicode="y" 
d="M459 0l-64 -100q-51 -82 -105.5 -117t-133.5 -35q-96 0 -197 37l-43 -145q110 -46 225 -46q138 0 234.5 58.5t179.5 200.5l694 1226h-196l-377 -692q-29 -52 -37 -70q-21 -40 -51 -112h-8l-7 53q-4 34 -22 125l-150 696h-184z" />
    <glyph glyph-name="z" unicode="z" 
d="M934 928l-817 -776l-27 -152h930l27 150h-707l817 772l29 157h-887l-27 -151h662z" />
    <glyph glyph-name="braceleft" unicode="{" 
d="M279 602h102q85 0 114.5 -35t12.5 -121l-59 -329q-41 -221 59 -305q101 -85 379 -70l26 133q-197 -9 -260 37q-60 44 -39 172l66 348q18 105 -2 162q-29 73 -127 84l2 8q115 14 162 70q21 27 33 66.5t24 109.5l53 332q13 79 34 125.5t61 70.5q76 45 282 25l25 133
q-279 29 -400 -37q-139 -75 -178 -324l-53 -335q-14 -86 -54 -121t-132 -35h-103z" />
    <glyph glyph-name="bar" unicode="|" 
d="M614 -266l332 1880h-153l-332 -1880h153z" />
    <glyph glyph-name="braceright" unicode="}" 
d="M1073 756h-102q-86 0 -115 35t-12 120l59 330q41 224 -57 307q-101 85 -381 70l-27 -133q197 9 260 -37q33 -25 41.5 -68.5t-2.5 -105.5l-65 -348q-18 -104 4 -160q27 -75 125 -86l-2 -8q-116 -14 -160 -70q-23 -27 -35 -66.5t-24 -109.5l-54 -332q-13 -79 -34 -124.5
t-60 -67.5q-40 -22 -110 -27.5t-172 0.5l-25 -133q126 -10 230.5 -2t168.5 41q137 70 176 309l56 346q14 87 53 121.5t133 34.5h102z" />
    <glyph glyph-name="asciitilde" unicode="~" 
d="M207 598h149q4 62 32 91.5t65 29.5q9 0 18.5 -1.5t22.5 -5t22.5 -6.5t26.5 -9.5t26 -10t30.5 -12.5t29.5 -12q149 -60 215 -60q112 0 184 74.5t72 202.5h-150q-4 -63 -30.5 -93t-65.5 -30q-35 0 -172 59t-217 59q-111 0 -182 -71q-76 -79 -76 -205z" />
    <glyph glyph-name="DEL" horiz-adv-x="1024" 
 />
    <glyph glyph-name="uni00A0" unicode="&#xa0;" 
 />
    <glyph glyph-name="exclamdown" unicode="&#xa1;" 
d="M586 954h274l49 275h-274zM612 743l-227 -1128h205l172 1128h-150z" />
    <glyph glyph-name="cent" unicode="&#xa2;" 
d="M1104 352h-186q-18 -97 -84.5 -159.5t-169.5 -69.5l145 833q91 -18 135.5 -75t42.5 -127h176q5 141 -75.5 233.5t-251.5 114.5l34 198h-127l-34 -194q-261 -14 -412 -238q-64 -95 -95.5 -215.5t-31.5 -244.5q0 -177 86 -287t256 -139l-39 -220h127l37 211q191 0 326 115
q119 104 141 264zM684 958l-145 -825q-91 26 -137 100.5t-46 186.5q0 173 72 323q85 183 256 215z" />
    <glyph glyph-name="sterling" unicode="&#xa3;" 
d="M340 164v4l43 31q131 94 178 194q47 99 35 254h395l29 146h-445l-28 180q-27 173 45 287q78 129 260 129q143 0 199 -80t32 -226h181q41 202 -68 330q-111 127 -334 127q-274 0 -413 -186q-65 -87 -86.5 -204.5t2.5 -252.5l18 -104h-184l-29 -146h240q13 -72 10.5 -131
t-25.5 -106q-24 -49 -73 -96.5t-138 -112.5l-84 -60l-26 -141h989l31 164h-754z" />
    <glyph glyph-name="currency" unicode="&#xa4;" 
d="M1083 270l-135 191q43 50 66 108l217 -39l29 162l-218 37q-3 67 -24 123l199 137l-93 131l-194 -139q-49 46 -111 70l39 217l-162 28l-37 -215q-62 -3 -127 -26l-129 186l-135 -94l131 -189q-43 -53 -61 -104l-215 37l-29 -162l213 -35q3 -65 27 -129l-195 -135l92 -129
l193 135q53 -44 108 -65l-38 -219l161 -29l39 221q63 3 121 25l133 -193zM446 711q2 107 66 177t166 70q103 0 165 -70t60 -177t-66 -176.5t-167 -69.5q-102 0 -164 69.5t-60 176.5z" />
    <glyph glyph-name="yen" unicode="&#xa5;" 
d="M645 0l57 328h392l24 141h-389l33 190h387l25 142h-359l547 717h-193l-442 -594h-4l-244 594h-192l307 -717h-377l-24 -142h397l-33 -190h-395l-25 -141h393l-57 -328h172z" />
    <glyph glyph-name="brokenbar" unicode="&#xa6;" 
d="M793 1614l-146 -821h154l145 821h-153zM772 631h-154l-157 -897h153z" />
    <glyph glyph-name="section" unicode="&#xa7;" 
d="M217 711q0 -111 57 -183q48 -60 172 -137l220 -135q52 -33 74 -69t22 -95q0 -89 -72 -139q-67 -49 -166 -49q-122 0 -175.5 60t-45.5 165h-176q-11 -184 98 -276q99 -86 281 -86q191 0 313 98q121 97 121 250q0 98 -51 166v2q266 61 266 307q0 102 -53.5 173.5
t-173.5 143.5l-219 135q-56 36 -79.5 72.5t-23.5 91.5q0 97 68 152q57 45 145 45q110 0 158.5 -53t42.5 -144h178q12 160 -96 250q-101 84 -262 84q-177 0 -293 -92q-117 -93 -117 -252q0 -107 53 -178v-2q-266 -61 -266 -305zM588 911q11 -7 30.5 -20.5t28.5 -18.5
l221 -137q63 -39 87 -78.5t24 -91.5q0 -85 -53 -127.5t-140 -50.5l-59 39l-223 139q-65 41 -88 76t-23 90q0 85 54 128.5t141 51.5z" />
    <glyph glyph-name="dieresis" unicode="&#xa8;" 
d="M690 1282l47 264h-266l-47 -264h266zM1130 1282l48 264h-265l-47 -264h264z" />
    <glyph glyph-name="copyright" unicode="&#xa9;" 
d="M170 958l-31 -163q-26 -146 -26 -258q5 -279 132 -423.5t371 -144.5q252 0 406 174q145 164 199 459l30 164q25 128 25 246q0 274 -127.5 424.5t-376.5 150.5q-248 0 -403 -172q-144 -161 -199 -457zM264 780l29 150q47 251 147 383q126 162 338 162q189 0 283 -127
q88 -122 88 -324q0 -101 -25 -244l-26 -149q-47 -255 -148 -385q-128 -164 -340 -164q-189 0 -282 129q-88 119 -88 321q0 116 24 248zM846 944h141q23 144 -45 215q-60 60 -168 60q-135 0 -213 -99q-81 -104 -121 -344q-44 -231 17 -342q52 -96 192 -96q237 0 277 295h-140
q-12 -76 -34 -113q-35 -57 -93 -57q-78 0 -90 74q-14 65 17 245q26 172 69 244q41 70 111 70q101 0 80 -152z" />
    <glyph glyph-name="ordfeminine" unicode="&#xaa;" 
d="M856 768h8q-4 -82 33 -108.5t129 -26.5h57l27 135h-37q-37 0 -50 16t-3 58l63 325q35 176 -51 273.5t-272 97.5q-155 0 -258 -70q-101 -69 -113 -198h160q23 143 201 143q99 0 149.5 -53t32.5 -158l-6 -35q-203 0 -293 -10q-104 -12 -176 -47q-166 -70 -166 -246
q0 -116 70.5 -182t197.5 -66q184 0 297 152zM612 741q-149 0 -149 140q0 79 61 118q47 32 129 41q110 12 250 9l-4 -23q-22 -134 -117 -215q-82 -70 -170 -70z" />
    <glyph glyph-name="guillemotleft" unicode="&#xab;" 
d="M201 547l174 -430h184l-162 413l322 420h-195zM631 547l174 -430h186l-162 413l322 420h-197z" />
    <glyph glyph-name="logicalnot" unicode="&#xac;" 
d="M1206 813h-942l-28 -162h776l-70 -391h166z" />
    <glyph glyph-name="registered" unicode="&#xae;" 
d="M254 1079q-4 -104 30.5 -196.5t100.5 -161.5q138 -148 352 -148q109 0 204 39t165 109q70 68 111 160.5t45 197.5q4 104 -30 198.5t-99 164.5t-157.5 108.5t-201.5 38.5q-217 0 -364 -147q-70 -70 -111 -164t-45 -199zM741 664q-172 0 -280 118q-112 122 -103 297
q3 178 123 301q116 119 289 119q177 0 287 -119q107 -116 104 -301q-9 -181 -125 -297q-121 -118 -295 -118zM633 838l37 209h80l77 -209h113l-92 231q55 9 95 48t40 108q0 66 -42 100.5t-116 34.5h-209l-90 -522h107zM711 1280h98q65 0 65 -63q0 -87 -98 -87h-92z" />
    <glyph glyph-name="macron" unicode="&#xaf;" 
d="M1114 1303l31 170h-651l-31 -170h651z" />
    <glyph glyph-name="degree" unicode="&#xb0;" 
d="M315 1104q0 -177 115 -289q113 -110 291 -110q194 0 317 129q123 126 123 315q0 177 -114 291q-115 112 -287 112q-194 0 -320 -129q-59 -61 -92 -143.5t-33 -175.5zM721 846q-108 0 -176 74q-70 77 -70 184q0 136 76 221q78 88 205 88q106 0 176 -76q67 -73 67 -184
q0 -136 -73 -221q-77 -86 -205 -86z" />
    <glyph glyph-name="plusminus" unicode="&#xb1;" 
d="M1165 715l31 157h-375l76 392h-176l-76 -392h-373l-30 -157h372l-75 -393h176l76 393h374zM1028 0l29 158h-924l-29 -158h924z" />
    <glyph glyph-name="twosuperior" unicode="&#xb2;" 
d="M457 1425h153q9 131 78 197q60 57 156 57q86 0 136 -47t50 -127q0 -88 -47.5 -153.5t-155.5 -147.5l-493 -373l-23 -126h781l24 139h-547v6q39 22 56 33l57 37q36 22 68 47l186 141q137 102 197.5 192t60.5 213q0 133 -91.5 215t-248.5 82q-175 0 -283 -102
q-114 -111 -114 -283z" />
    <glyph glyph-name="threesuperior" unicode="&#xb3;" 
d="M688 1192h109q180 0 180 -168q0 -92 -66.5 -151.5t-177.5 -59.5q-213 0 -213 201h-158q-9 -155 91 -242q99 -90 272 -90q174 0 293 92q119 95 119 248q0 179 -170 229v11q105 22 171 90.5t66 179.5q0 132 -91.5 205t-244.5 73q-166 0 -276 -92q-107 -93 -119 -237h158
q25 200 233 200q81 0 130.5 -42t49.5 -121q0 -88 -61.5 -139.5t-167.5 -51.5h-100z" />
    <glyph glyph-name="acute" unicode="&#xb4;" 
d="M743 1247l308 367h-277l-188 -367h157z" />
    <glyph glyph-name="paragraph" unicode="&#xb6;" 
d="M643 0l277 1567h-162q-197 0 -326 -113q-131 -115 -131 -299q0 -148 92 -240q91 -91 236 -94l-146 -821h160zM805 0h160l276 1567h-160z" />
    <glyph glyph-name="periodcentered" unicode="&#xb7;" 
d="M768 506l49 274h-274l-49 -274h274z" />
    <glyph glyph-name="cedilla" unicode="&#xb8;" 
d="M594 -436q111 0 175.5 54t64.5 142q0 74 -47.5 115t-139.5 41h-45l115 178h-107l-194 -307h141q27 27 68 27q65 0 65 -64q0 -76 -82 -76q-30 0 -51 13.5t-22 36.5h-150q-10 -73 47.5 -116.5t161.5 -43.5z" />
    <glyph glyph-name="onesuperior" unicode="&#xb9;" 
d="M1090 840h-265l185 958h-136q-19 -98 -79 -149q-59 -47 -166 -47h-92l-23 -117h274l-124 -645h-269l-26 -135h694z" />
    <glyph glyph-name="ordmasculine" unicode="&#xba;" 
d="M666 616q230 0 358 179q111 159 111 393q0 160 -91 254q-93 96 -280 96q-232 0 -356 -178q-113 -158 -113 -393q0 -164 93 -257.5t278 -93.5zM967 1184q0 -162 -62 -283q-79 -158 -233 -158q-209 0 -209 226q0 163 63 284q83 158 232 158q209 0 209 -227z" />
    <glyph glyph-name="guillemotright" unicode="&#xbb;" 
d="M659 520l-194 430h-186l182 -413l-301 -420h196zM1090 520l-195 430h-184l182 -413l-301 -420h194z" />
    <glyph glyph-name="onequarter" unicode="&#xbc;" horiz-adv-x="3932" 
d="M1051 662h-265l185 958h-135q-19 -98 -80 -150q-59 -47 -166 -47h-92l-23 -116h275l-125 -645h-269l-26 -136h694zM1417 -84l1415 1679h-172l-1415 -1679h172zM3377 309h-168l123 701h-192l-625 -711l-21 -123h535l-47 -258h158l45 258h170zM2689 309l313 359
q40 44 60 69q52 68 76 109h12l-96 -537h-365z" />
    <glyph glyph-name="onehalf" unicode="&#xbd;" horiz-adv-x="3932" 
d="M1051 662h-265l185 958h-135q-19 -98 -80 -150q-59 -47 -166 -47h-92l-23 -116h275l-125 -645h-269l-26 -136h694zM1378 -82l1415 1679h-172l-1415 -1679h172zM2732 639h154q9 132 77 197q60 57 156 57q86 0 136 -47t50 -127q0 -88 -47.5 -153.5t-154.5 -147.5l-494 -373
l-22 -127h780l24 139h-546v6q33 18 55 33l57 37q36 22 68 47l186 142q137 102 197.5 192t60.5 213q0 133 -91.5 215t-248.5 82q-174 0 -282 -102q-115 -112 -115 -283z" />
    <glyph glyph-name="threequarters" unicode="&#xbe;" horiz-adv-x="3932" 
d="M637 1014h108q91 0 136 -44t45 -124q0 -92 -66.5 -151.5t-177.5 -59.5q-213 0 -213 201h-158q-9 -156 90 -242q99 -90 273 -90t293 92q118 94 118 248q0 179 -170 229v10q105 22 171.5 91t66.5 180q0 132 -91.5 205t-244.5 73q-166 0 -276 -92q-107 -93 -119 -237h158
q25 200 233 200q81 0 130.5 -42.5t49.5 -121.5q0 -88 -61.5 -139t-167.5 -51h-100zM1419 -82l1415 1679h-172l-1415 -1679h172zM3398 309h-168l123 701h-193l-625 -711l-20 -123h534l-47 -258h158l45 258h170zM2710 309l313 359q33 36 59 69q52 68 76 109h12l-96 -537h-364z
" />
    <glyph glyph-name="questiondown" unicode="&#xbf;" 
d="M635 954h274l49 275h-274zM319 -6q0 102 43.5 170t129.5 127l102 71q110 74 154 123q22 26 33.5 58.5t23.5 89.5l24 131h-170l-20 -100l-14 -58q-13 -35 -60 -65l-59 -43l-90 -64q-118 -77 -189 -170q-92 -120 -92 -287q0 -163 111 -268q115 -112 317 -112q231 0 369 135
q143 143 155 393h-178q-19 -190 -100 -282.5t-238 -92.5q-117 0 -184.5 66.5t-67.5 177.5z" />
    <glyph glyph-name="Agrave" unicode="&#xc0;" 
d="M553 1966l207 -272h166l-97 272h-276zM1145 0l-184 1567h-248l-729 -1567h194l211 467h506l49 -467h201zM809 1397l6 -101q1 -14 4 -44t4 -46l6 -84l52 -501h-422l225 501q19 43 33 80l63 160q9 31 13 35h16z" />
    <glyph glyph-name="Aacute" unicode="&#xc1;" 
d="M934 1694l246 272h-277l-141 -272h172zM1145 0l-184 1567h-248l-729 -1567h194l211 467h506l49 -467h201zM809 1397l6 -101q1 -14 4 -44t4 -46l6 -84l52 -501h-422l225 501q19 43 33 80l63 160q9 31 13 35h16z" />
    <glyph glyph-name="Acircumflex" unicode="&#xc2;" 
d="M772 1966l-246 -272h181l159 135h6l115 -135h170l-151 272h-234zM1145 0l-184 1567h-248l-729 -1567h194l211 467h506l49 -467h201zM809 1397l6 -101q1 -14 4 -44t4 -46l6 -84l52 -501h-422l225 501q19 43 33 80l63 160q9 31 13 35h16z" />
    <glyph glyph-name="Atilde" unicode="&#xc3;" 
d="M487 1694h146q13 116 96 116q9 0 19.5 -2.5t18.5 -5.5t20.5 -10t19 -10.5t21 -13t20.5 -13.5q84 -55 149 -55q112 0 172.5 76t71.5 202h-145q-14 -120 -92 -120q-18 0 -40.5 10t-34.5 17.5t-42 29.5q-82 55 -154 55q-113 0 -175.5 -76t-70.5 -200zM1145 0l-184 1567h-248
l-729 -1567h194l211 467h506l49 -467h201zM809 1397l6 -101q1 -14 4 -44t4 -46l6 -84l52 -501h-422l225 501q19 43 33 80l63 160q9 31 13 35h16z" />
    <glyph glyph-name="Adieresis" unicode="&#xc4;" 
d="M754 1694l47 264h-266l-48 -264h267zM1194 1694l47 264h-264l-47 -264h264zM1145 0l-184 1567h-248l-729 -1567h194l211 467h506l49 -467h201zM809 1397l6 -101q1 -14 4 -44t4 -46l6 -84l52 -501h-422l225 501q19 43 33 80l63 160q9 31 13 35h16z" />
    <glyph glyph-name="Aring" unicode="&#xc5;" 
d="M608 1870q0 -105 67 -171t179 -67q123 0 205 82q80 80 80 197q0 106 -67.5 174.5t-180.5 68.5q-123 0 -203 -83q-80 -80 -80 -201zM735 1884q0 67 41.5 113.5t106.5 46.5q59 0 94 -40.5t35 -102.5q0 -67 -42.5 -112.5t-107.5 -45.5q-59 0 -93 39t-34 102zM1145 0
l-184 1567h-248l-729 -1567h194l211 467h506l49 -467h201zM809 1397l6 -101q1 -14 4 -44t4 -46l6 -84l52 -501h-422l225 501q19 43 33 80l63 160q9 31 13 35h16z" />
    <glyph glyph-name="AE" unicode="&#xc6;" 
d="M639 467l-82 -467h643l29 166h-465l96 545h389l29 161h-389l94 529h455l28 166h-792l-785 -1567h187l231 467h332zM383 621l387 780h35l-139 -780h-283z" />
    <glyph glyph-name="Ccedilla" unicode="&#xc7;" 
d="M557 -436q111 0 175.5 54t64.5 142q0 74 -47.5 115t-139.5 41h-45l33 51h33q241 0 403 162q135 138 174 360h-188q-36 -168 -138 -266t-251 -98q-132 0 -213 90q-88 98 -88 287q0 152 30 319q42 250 144 410q126 203 338 203q151 0 223 -105q54 -88 51 -229h193
q12 231 -111 360q-126 129 -342 129q-174 0 -295 -71q-226 -134 -325 -422q-82 -242 -93 -457q-6 -89 -6 -113q0 -469 365 -546l-123 -193h141q27 27 68 27q65 0 65 -64q0 -76 -82 -76q-30 0 -51 13.5t-22 36.5h-150q-10 -73 47.5 -116.5t161.5 -43.5z" />
    <glyph glyph-name="Egrave" unicode="&#xc8;" 
d="M621 1966l206 -272h166l-96 272h-276zM1069 0l29 166h-760l96 545h643l29 161h-643l94 529h750l28 166h-940l-276 -1567h950z" />
    <glyph glyph-name="Eacute" unicode="&#xc9;" 
d="M958 1694l246 272h-276l-142 -272h172zM1069 0l29 166h-760l96 545h643l29 161h-643l94 529h750l28 166h-940l-276 -1567h950z" />
    <glyph glyph-name="Ecircumflex" unicode="&#xca;" 
d="M815 1966l-246 -272h181l159 135h6l115 -135h170l-151 272h-234zM1069 0l29 166h-760l96 545h643l29 161h-643l94 529h750l28 166h-940l-276 -1567h950z" />
    <glyph glyph-name="Edieresis" unicode="&#xcb;" 
d="M801 1694l47 264h-266l-47 -264h266zM1241 1694l47 264h-264l-47 -264h264zM1069 0l29 166h-760l96 545h643l29 161h-643l94 529h750l28 166h-940l-276 -1567h950z" />
    <glyph glyph-name="Igrave" unicode="&#xcc;" 
d="M563 1966l207 -272h166l-96 272h-277zM1260 1413l26 154h-901l-27 -154h357l-223 -1259h-357l-26 -154h901l26 154h-356l223 1259h357z" />
    <glyph glyph-name="Iacute" unicode="&#xcd;" 
d="M940 1694l246 272h-277l-141 -272h172zM1260 1413l26 154h-901l-27 -154h357l-223 -1259h-357l-26 -154h901l26 154h-356l223 1259h357z" />
    <glyph glyph-name="Icircumflex" unicode="&#xce;" 
d="M778 1966l-246 -272h181l159 135h7l114 -135h170l-151 272h-234zM1260 1413l26 154h-901l-27 -154h357l-223 -1259h-357l-26 -154h901l26 154h-356l223 1259h357z" />
    <glyph glyph-name="Idieresis" unicode="&#xcf;" 
d="M770 1694l47 264h-266l-47 -264h266zM1210 1694l47 264h-264l-47 -264h264zM1260 1413l26 154h-901l-27 -154h357l-223 -1259h-357l-26 -154h901l26 154h-356l223 1259h357z" />
    <glyph glyph-name="Eth" unicode="&#xd0;" 
d="M82 0h401q404 0 613 293q182 255 182 670q0 301 -170 458q-158 146 -424 146h-326l-122 -697h-181l-28 -157h180zM397 713h357l28 157h-356l94 533h152q411 0 411 -430q0 -154 -30 -299q-48 -216 -160 -344q-142 -166 -381 -166h-211z" />
    <glyph glyph-name="Ntilde" unicode="&#xd1;" 
d="M524 1694h146q13 116 96 116q9 0 19.5 -2.5t18.5 -5.5t20.5 -10t19 -10.5t21 -13t20.5 -13.5q84 -55 149 -55q112 0 172.5 76t71.5 202h-145q-14 -120 -93 -120q-6 0 -12 1t-11 2t-11.5 4t-11 4.5t-12 6t-11 6.5t-12 8t-11.5 8t-12 8.5t-12 8.5q-82 55 -154 55
q-113 0 -175.5 -76t-70.5 -200zM227 0l238 1356h12q2 -18 10 -64q11 -73 29 -143l295 -1149h252l276 1567h-172l-237 -1356h-12q0 4 -11 65q-12 76 -30 148l-293 1143h-252l-277 -1567h172z" />
    <glyph glyph-name="Ograve" unicode="&#xd2;" 
d="M565 1966l207 -272h166l-96 272h-277zM113 516q0 -300 141 -434q118 -115 336 -115q260 0 432 211q132 159 203 447q51 207 51 413q0 302 -141 437q-119 114 -336 114q-260 0 -430 -209q-138 -173 -205 -446q-51 -209 -51 -418zM594 127q-141 0 -215 89t-74 286
q0 160 37 350q48 245 147 393q120 185 306 185q141 0 214.5 -89t73.5 -286q0 -165 -36 -348q-47 -241 -146 -394q-124 -186 -307 -186z" />
    <glyph glyph-name="Oacute" unicode="&#xd3;" 
d="M918 1694l245 272h-276l-142 -272h173zM113 516q0 -300 141 -434q118 -115 336 -115q260 0 432 211q132 159 203 447q51 207 51 413q0 302 -141 437q-119 114 -336 114q-260 0 -430 -209q-138 -173 -205 -446q-51 -209 -51 -418zM594 127q-141 0 -215 89t-74 286
q0 160 37 350q48 245 147 393q120 185 306 185q141 0 214.5 -89t73.5 -286q0 -165 -36 -348q-47 -241 -146 -394q-124 -186 -307 -186z" />
    <glyph glyph-name="Ocircumflex" unicode="&#xd4;" 
d="M768 1966l-246 -272h180l160 135h6l115 -135h170l-152 272h-233zM113 516q0 -300 141 -434q118 -115 336 -115q260 0 432 211q132 159 203 447q51 207 51 413q0 302 -141 437q-119 114 -336 114q-260 0 -430 -209q-138 -173 -205 -446q-51 -209 -51 -418zM594 127
q-141 0 -215 89t-74 286q0 160 37 350q48 245 147 393q120 185 306 185q141 0 214.5 -89t73.5 -286q0 -165 -36 -348q-47 -241 -146 -394q-124 -186 -307 -186z" />
    <glyph glyph-name="Otilde" unicode="&#xd5;" 
d="M500 1694h145q13 116 96 116q9 0 19.5 -2.5t18.5 -5.5t20.5 -10t19 -10.5t21 -13t20.5 -13.5q84 -55 150 -55q111 0 171.5 76t71.5 202h-145q-14 -120 -92 -120q-18 0 -40.5 10t-34.5 17.5t-42 29.5q-82 55 -154 55q-112 0 -174.5 -76t-70.5 -200zM113 516
q0 -300 141 -434q118 -115 336 -115q260 0 432 211q132 159 203 447q51 207 51 413q0 302 -141 437q-119 114 -336 114q-260 0 -430 -209q-138 -173 -205 -446q-51 -209 -51 -418zM594 127q-141 0 -215 89t-74 286q0 160 37 350q48 245 147 393q120 185 306 185
q141 0 214.5 -89t73.5 -286q0 -165 -36 -348q-47 -241 -146 -394q-124 -186 -307 -186z" />
    <glyph glyph-name="Odieresis" unicode="&#xd6;" 
d="M756 1694l47 264h-266l-48 -264h267zM1196 1694l47 264h-264l-47 -264h264zM113 516q0 -300 141 -434q118 -115 336 -115q260 0 432 211q132 159 203 447q51 207 51 413q0 302 -141 437q-119 114 -336 114q-260 0 -430 -209q-138 -173 -205 -446q-51 -209 -51 -418z
M594 127q-141 0 -215 89t-74 286q0 160 37 350q48 245 147 393q120 185 306 185q141 0 214.5 -89t73.5 -286q0 -165 -36 -348q-47 -241 -146 -394q-124 -186 -307 -186z" />
    <glyph glyph-name="multiply" unicode="&#xd7;" 
d="M692 600l264 -350l127 108l-274 349l408 344l-103 123l-399 -353l-262 340l-127 -108l268 -336l-397 -338l94 -125z" />
    <glyph glyph-name="Oslash" unicode="&#xd8;" 
d="M1276 1044q0 189 -59 310l213 270h-156l-129 -166q-125 131 -346 131q-260 0 -430 -209q-138 -173 -205 -446q-51 -209 -51 -418q0 -175 55 -301l-209 -266h156l123 155q126 -137 352 -137q261 0 432 209q133 160 203 449q51 209 51 419zM797 1434q165 0 235 -117
l-725 -924q-6 46 -6 103q0 165 39 352q52 249 149 397q124 189 308 189zM592 123q-173 0 -242 127l729 928q8 -44 8 -111q0 -183 -36 -356q-50 -245 -152 -400q-123 -188 -307 -188z" />
    <glyph glyph-name="Ugrave" unicode="&#xd9;" 
d="M578 1966l206 -272h166l-96 272h-276zM328 1567l-181 -1006q-58 -313 80 -461q120 -131 371 -131q246 0 381 121.5t180 376.5l195 1100h-187l-196 -1104q-26 -159 -107 -242q-93 -96 -256 -96q-176 0 -242.5 103t-25.5 331l178 1008h-190z" />
    <glyph glyph-name="Uacute" unicode="&#xda;" 
d="M915 1694l246 272h-276l-142 -272h172zM328 1567l-181 -1006q-58 -313 80 -461q120 -131 371 -131q246 0 381 121.5t180 376.5l195 1100h-187l-196 -1104q-26 -159 -107 -242q-93 -96 -256 -96q-176 0 -242.5 103t-25.5 331l178 1008h-190z" />
    <glyph glyph-name="Ucircumflex" unicode="&#xdb;" 
d="M788 1966l-245 -272h180l160 135h6l115 -135h170l-152 272h-234zM328 1567l-181 -1006q-58 -313 80 -461q120 -131 371 -131q246 0 381 121.5t180 376.5l195 1100h-187l-196 -1104q-26 -159 -107 -242q-93 -96 -256 -96q-176 0 -242.5 103t-25.5 331l178 1008h-190z" />
    <glyph glyph-name="Udieresis" unicode="&#xdc;" 
d="M772 1694l47 264h-266l-47 -264h266zM1212 1694l48 264h-265l-47 -264h264zM328 1567l-181 -1006q-58 -313 80 -461q120 -131 371 -131q246 0 381 121.5t180 376.5l195 1100h-187l-196 -1104q-26 -159 -107 -242q-93 -96 -256 -96q-176 0 -242.5 103t-25.5 331l178 1008
h-190z" />
    <glyph glyph-name="Yacute" unicode="&#xdd;" 
d="M913 1694l246 272h-276l-142 -272h172zM657 0l117 668l641 899h-207l-497 -721h-4l-252 721h-199l330 -905l-117 -662h188z" />
    <glyph glyph-name="Thorn" unicode="&#xde;" 
d="M369 352h333q228 0 367 127q148 135 148 371q0 189 -117 293q-108 96 -295 96h-279l58 328h-191l-276 -1567h190zM498 1081h264q258 0 258 -239q0 -153 -85.5 -242.5t-252.5 -89.5h-285z" />
    <glyph glyph-name="germandbls" unicode="&#xdf;" 
d="M313 0l205 1161q29 155 101 226t192 71q98 0 160.5 -58.5t62.5 -170.5q0 -135 -75.5 -217t-217.5 -82h-49l-28 -156h45q132 0 207 -80.5t75 -212.5q0 -150 -104 -237q-105 -88 -279 -88h-88l-28 -156h104q280 0 434 147q139 133 139 345q0 142 -73.5 232t-192.5 118v10
q137 28 223 123q91 104 91 258q0 174 -106.5 274.5t-291.5 100.5q-181 0 -303 -101q-134 -109 -170 -311l-213 -1196h180z" />
    <glyph glyph-name="agrave" unicode="&#xe0;" 
d="M721 1614h-270l211 -367h157zM844 176v-8q0 -168 186 -168h68l24 150h-51q-79 0 -61 83l80 447q35 192 -60 307q-101 119 -315 119q-189 0 -312 -92q-115 -86 -124 -236h178q10 93 76 140t167 47q264 0 215 -271l-8 -43q-175 0 -241 -6q-76 -7 -189 -24
q-147 -27 -233 -113t-86 -223q0 -146 90 -223.5t246 -77.5q228 0 344 192h6zM887 520l-13 -65q-27 -143 -118 -234q-95 -92 -224 -92q-94 0 -140 40.5t-46 131.5q0 132 143 178q122 41 398 41z" />
    <glyph glyph-name="aacute" unicode="&#xe1;" 
d="M805 1247l307 367h-276l-189 -367h158zM844 176v-8q0 -168 186 -168h68l24 150h-51q-79 0 -61 83l80 447q35 192 -60 307q-101 119 -315 119q-189 0 -312 -92q-115 -86 -124 -236h178q10 93 76 140t167 47q264 0 215 -271l-8 -43q-175 0 -241 -6q-76 -7 -189 -24
q-147 -27 -233 -113t-86 -223q0 -146 90 -223.5t246 -77.5q228 0 344 192h6zM887 520l-13 -65q-27 -143 -118 -234q-95 -92 -224 -92q-94 0 -140 40.5t-46 131.5q0 132 143 178q122 41 398 41z" />
    <glyph glyph-name="acircumflex" unicode="&#xe2;" 
d="M705 1614l-269 -367h166l180 201h2l123 -201h156l-156 367h-202zM844 176v-8q0 -168 186 -168h68l24 150h-51q-79 0 -61 83l80 447q35 192 -60 307q-101 119 -315 119q-189 0 -312 -92q-115 -86 -124 -236h178q10 93 76 140t167 47q264 0 215 -271l-8 -43q-175 0 -241 -6
q-76 -7 -189 -24q-147 -27 -233 -113t-86 -223q0 -146 90 -223.5t246 -77.5q228 0 344 192h6zM887 520l-13 -65q-27 -143 -118 -234q-95 -92 -224 -92q-94 0 -140 40.5t-46 131.5q0 132 143 178q122 41 398 41z" />
    <glyph glyph-name="atilde" unicode="&#xe3;" 
d="M406 1284h147q15 127 90 127q18 0 40.5 -10t35.5 -18.5t43 -30.5q83 -60 158 -60q112 0 172 86q50 71 63 203h-147q-15 -127 -88 -127q-18 0 -40.5 10t-37.5 20t-45 32q-86 59 -156 59q-109 0 -172 -86q-53 -72 -63 -205zM844 176v-8q0 -168 186 -168h68l24 150h-51
q-79 0 -61 83l80 447q35 192 -60 307q-101 119 -315 119q-189 0 -312 -92q-115 -86 -124 -236h178q10 93 76 140t167 47q264 0 215 -271l-8 -43q-175 0 -241 -6q-76 -7 -189 -24q-147 -27 -233 -113t-86 -223q0 -146 90 -223.5t246 -77.5q228 0 344 192h6zM887 520l-13 -65
q-27 -143 -118 -234q-95 -92 -224 -92q-94 0 -140 40.5t-46 131.5q0 132 143 178q122 41 398 41z" />
    <glyph glyph-name="adieresis" unicode="&#xe4;" 
d="M670 1280l47 264h-266l-48 -264h267zM1110 1280l47 264h-264l-47 -264h264zM844 176v-8q0 -168 186 -168h68l24 150h-51q-79 0 -61 83l80 447q35 192 -60 307q-101 119 -315 119q-189 0 -312 -92q-115 -86 -124 -236h178q10 93 76 140t167 47q264 0 215 -271l-8 -43
q-175 0 -241 -6q-76 -7 -189 -24q-147 -27 -233 -113t-86 -223q0 -146 90 -223.5t246 -77.5q228 0 344 192h6zM887 520l-13 -65q-27 -143 -118 -234q-95 -92 -224 -92q-94 0 -140 40.5t-46 131.5q0 132 143 178q122 41 398 41z" />
    <glyph glyph-name="aring" unicode="&#xe5;" 
d="M508 1430q0 -105 67 -171t179 -67q122 0 204 82q80 80 80 196q0 107 -67 175.5t-180 68.5q-122 0 -203 -84q-80 -80 -80 -200zM762 1303q-59 0 -93 39t-34 102q0 67 41 113.5t106 46.5q59 0 94 -41t35 -103q0 -67 -42 -112t-107 -45zM844 176v-8q0 -168 186 -168h68
l24 150h-51q-79 0 -61 83l80 447q35 192 -60 307q-101 119 -315 119q-189 0 -312 -92q-115 -86 -124 -236h178q10 93 76 140t167 47q264 0 215 -271l-8 -43q-175 0 -241 -6q-76 -7 -189 -24q-147 -27 -233 -113t-86 -223q0 -146 90 -223.5t246 -77.5q228 0 344 192h6z
M887 520l-13 -65q-27 -143 -118 -234q-95 -92 -224 -92q-94 0 -140 40.5t-46 131.5q0 132 143 178q122 41 398 41z" />
    <glyph glyph-name="ae" unicode="&#xe6;" 
d="M1202 283h-172q-14 -68 -47 -109q-43 -49 -127 -49q-112 0 -140 92.5t7 284.5h530l27 151q36 192 -31 320q-70 133 -241 133q-100 0 -170 -44t-107 -120h-8q-55 164 -262 164q-151 0 -250 -90q-102 -92 -105 -236h166q7 80 52 131.5t131 51.5q90 0 127 -58t16 -153
l-25 -113q-177 0 -256 -10q-87 -13 -161 -54q-87 -48 -129.5 -120.5t-42.5 -180.5q0 -132 76.5 -213t205.5 -81q216 0 303 202h6q23 -92 82 -143q72 -62 199 -62q134 0 225 76q98 82 121 230zM1106 639h-361q31 169 85 244t149 75q102 0 131.5 -82t-4.5 -237zM303 123
q-67 0 -105 43.5t-38 126.5q0 99 80 162q34 29 104 41q63 8 205 8l-12 -72q-24 -142 -74 -217q-60 -92 -160 -92z" />
    <glyph glyph-name="ccedilla" unicode="&#xe7;" 
d="M551 -436q111 0 175.5 54t64.5 142q0 74 -47.5 115t-139.5 41h-45l37 57h33q205 0 340 115q123 105 145 264h-188q-18 -103 -93.5 -166t-193.5 -63q-138 0 -204 82.5t-66 234.5q0 193 77 336q101 185 299 185q126 0 189 -66q49 -54 49 -141h178q3 161 -98 252
q-111 100 -313 100q-288 0 -439 -217q-131 -188 -131 -461q0 -174 80 -289q81 -117 240 -153l-127 -199h141q27 27 68 27q65 0 65 -64q0 -76 -82 -76q-30 0 -51 13.5t-22 36.5h-150q-10 -73 47.5 -116.5t161.5 -43.5z" />
    <glyph glyph-name="egrave" unicode="&#xe8;" 
d="M748 1614h-271l211 -367h158zM1077 283h-190q-24 -72 -91 -115t-167 -43q-283 0 -283 301v33q0 20 2 30h776l11 46q27 107 16.5 212t-59.5 183q-110 176 -355 176q-285 0 -440 -217q-67 -95 -101 -217.5t-34 -249.5q0 -205 106 -320q119 -129 348 -129q181 0 300 83
t161 227zM967 635h-600q30 145 114 229q96 99 250 99q135 0 198.5 -87.5t37.5 -240.5z" />
    <glyph glyph-name="eacute" unicode="&#xe9;" 
d="M811 1247l307 367h-276l-189 -367h158zM1077 283h-190q-24 -72 -91 -115t-167 -43q-283 0 -283 301v33q0 20 2 30h776l11 46q27 107 16.5 212t-59.5 183q-110 176 -355 176q-285 0 -440 -217q-67 -95 -101 -217.5t-34 -249.5q0 -205 106 -320q119 -129 348 -129
q181 0 300 83t161 227zM967 635h-600q30 145 114 229q96 99 250 99q135 0 198.5 -87.5t37.5 -240.5z" />
    <glyph glyph-name="ecircumflex" unicode="&#xea;" 
d="M715 1614l-269 -367h166l181 201h2l123 -201h155l-155 367h-203zM1077 283h-190q-24 -72 -91 -115t-167 -43q-283 0 -283 301v33q0 20 2 30h776l11 46q27 107 16.5 212t-59.5 183q-110 176 -355 176q-285 0 -440 -217q-67 -95 -101 -217.5t-34 -249.5q0 -205 106 -320
q119 -129 348 -129q181 0 300 83t161 227zM967 635h-600q30 145 114 229q96 99 250 99q135 0 198.5 -87.5t37.5 -240.5z" />
    <glyph glyph-name="edieresis" unicode="&#xeb;" 
d="M674 1280l47 264h-266l-47 -264h266zM1114 1280l47 264h-264l-47 -264h264zM1077 283h-190q-24 -72 -91 -115t-167 -43q-283 0 -283 301v33q0 20 2 30h776l11 46q27 107 16.5 212t-59.5 183q-110 176 -355 176q-285 0 -440 -217q-67 -95 -101 -217.5t-34 -249.5
q0 -205 106 -320q119 -129 348 -129q181 0 300 83t161 227zM967 635h-600q30 145 114 229q96 99 250 99q135 0 198.5 -87.5t37.5 -240.5z" />
    <glyph glyph-name="igrave" unicode="&#xec;" 
d="M754 1614h-271l211 -367h158zM1096 154h-404l164 925h-514l-27 -147h334l-137 -778h-393l-27 -154h977z" />
    <glyph glyph-name="iacute" unicode="&#xed;" 
d="M864 1247l307 367h-276l-188 -367h157zM1096 154h-404l164 925h-514l-27 -147h334l-137 -778h-393l-27 -154h977z" />
    <glyph glyph-name="icircumflex" unicode="&#xee;" 
d="M680 1614l-268 -367h166l180 201h2l123 -201h155l-155 367h-203zM1096 154h-404l164 925h-514l-27 -147h334l-137 -778h-393l-27 -154h977z" />
    <glyph glyph-name="idieresis" unicode="&#xef;" 
d="M659 1280l48 264h-267l-47 -264h266zM1100 1280l47 264h-264l-47 -264h264zM1096 154h-404l164 925h-514l-27 -147h334l-137 -778h-393l-27 -154h977z" />
    <glyph glyph-name="eth" unicode="&#xf0;" 
d="M594 -27q282 0 438 230q137 203 137 532q0 389 -192 635l197 68l-37 102l-240 -82q-97 94 -223 168l-154 -61q132 -89 213 -164l-262 -90l33 -105l315 109q106 -121 154 -303h-8q-52 48 -91 65q-62 27 -157 27q-281 0 -436 -221q-67 -97 -101.5 -223t-34.5 -259
q0 -196 103 -305q117 -123 346 -123zM977 690q0 -204 -74 -364q-101 -211 -301 -211q-266 0 -266 286q0 203 82 363q104 199 301 199q134 0 196 -68t62 -205z" />
    <glyph glyph-name="ntilde" unicode="&#xf1;" 
d="M406 1284h147q15 127 90 127q18 0 40.5 -10t35.5 -18.5t43 -30.5q83 -60 158 -60q112 0 172 86q50 71 63 203h-147q-15 -127 -88 -127q-18 0 -40.5 10t-37.5 20t-45 32q-86 59 -156 59q-109 0 -172 -86q-53 -72 -63 -205zM997 0l119 672q36 209 -40 320.5t-249 111.5
q-139 0 -241 -78q-74 -57 -129 -160h-4l39 213h-175l-190 -1079h186l103 584q27 158 119 264q95 106 223 106q123 0 160.5 -69.5t11.5 -216.5l-119 -668h186z" />
    <glyph glyph-name="ograve" unicode="&#xf2;" 
d="M768 1614h-270l211 -367h157zM598 -27q280 0 432 217q135 196 135 484q0 199 -112 311q-119 119 -342 119q-276 0 -430 -219q-67 -96 -101.5 -222t-34.5 -260q0 -198 113 -311q116 -119 340 -119zM604 117q-138 0 -207 82q-61 70 -61 202q0 206 78 361q100 199 291 199
q136 0 203 -77.5t67 -207.5q0 -202 -80 -361q-100 -198 -291 -198z" />
    <glyph glyph-name="oacute" unicode="&#xf3;" 
d="M817 1247l307 367h-276l-189 -367h158zM598 -27q280 0 432 217q135 196 135 484q0 199 -112 311q-119 119 -342 119q-276 0 -430 -219q-67 -96 -101.5 -222t-34.5 -260q0 -198 113 -311q116 -119 340 -119zM604 117q-138 0 -207 82q-61 70 -61 202q0 206 78 361
q100 199 291 199q136 0 203 -77.5t67 -207.5q0 -202 -80 -361q-100 -198 -291 -198z" />
    <glyph glyph-name="ocircumflex" unicode="&#xf4;" 
d="M717 1614l-268 -367h165l181 201h2l123 -201h155l-155 367h-203zM598 -27q280 0 432 217q135 196 135 484q0 199 -112 311q-119 119 -342 119q-276 0 -430 -219q-67 -96 -101.5 -222t-34.5 -260q0 -198 113 -311q116 -119 340 -119zM604 117q-138 0 -207 82
q-61 70 -61 202q0 206 78 361q100 199 291 199q136 0 203 -77.5t67 -207.5q0 -202 -80 -361q-100 -198 -291 -198z" />
    <glyph glyph-name="otilde" unicode="&#xf5;" 
d="M424 1284h147q15 127 91 127q18 0 40.5 -10t34 -18t43.5 -31q83 -60 158 -60q112 0 172 86q51 73 64 203h-148q-15 -127 -88 -127q-18 0 -40.5 10t-37.5 20t-45 32q-86 59 -156 59q-109 0 -172 -86q-53 -72 -63 -205zM598 -27q280 0 432 217q135 196 135 484
q0 199 -112 311q-119 119 -342 119q-276 0 -430 -219q-67 -96 -101.5 -222t-34.5 -260q0 -198 113 -311q116 -119 340 -119zM604 117q-138 0 -207 82q-61 70 -61 202q0 206 78 361q100 199 291 199q136 0 203 -77.5t67 -207.5q0 -202 -80 -361q-100 -198 -291 -198z" />
    <glyph glyph-name="odieresis" unicode="&#xf6;" 
d="M678 1280l47 264h-266l-47 -264h266zM1118 1280l47 264h-264l-47 -264h264zM598 -27q280 0 432 217q135 196 135 484q0 199 -112 311q-119 119 -342 119q-276 0 -430 -219q-67 -96 -101.5 -222t-34.5 -260q0 -198 113 -311q116 -119 340 -119zM604 117q-138 0 -207 82
q-61 70 -61 202q0 206 78 361q100 199 291 199q136 0 203 -77.5t67 -207.5q0 -202 -80 -361q-100 -198 -291 -198z" />
    <glyph glyph-name="divide" unicode="&#xf7;" 
d="M893 981l53 276h-266l-53 -276h266zM1163 651l33 162h-930l-33 -162h930zM797 483h-267l-53 -276h266z" />
    <glyph glyph-name="oslash" unicode="&#xf8;" 
d="M1165 674q0 148 -67 252l184 200h-162l-102 -112q-120 90 -307 90q-276 0 -430 -219q-67 -96 -101.5 -222t-34.5 -260q0 -157 76 -264l-178 -194h158l102 112q113 -84 295 -84q280 0 432 217q135 196 135 484zM707 963q129 0 198 -72l-555 -610q-16 62 -16 118
q0 206 78 363q100 201 295 201zM602 115q-122 0 -188 63l551 602q12 -46 12 -102q0 -206 -78 -363q-99 -200 -297 -200z" />
    <glyph glyph-name="ugrave" unicode="&#xf9;" 
d="M760 1614h-271l211 -367h158zM315 1079l-120 -688q-36 -210 47 -317q79 -101 250 -101q130 0 231 80q69 55 123 148h8l-37 -201h174l191 1079h-185l-92 -528q-35 -201 -128.5 -313.5t-223.5 -112.5q-121 0 -159 65t-13 209l119 680h-185z" />
    <glyph glyph-name="uacute" unicode="&#xfa;" 
d="M834 1247l307 367h-277l-188 -367h158zM315 1079l-120 -688q-36 -210 47 -317q79 -101 250 -101q130 0 231 80q69 55 123 148h8l-37 -201h174l191 1079h-185l-92 -528q-35 -201 -128.5 -313.5t-223.5 -112.5q-121 0 -159 65t-13 209l119 680h-185z" />
    <glyph glyph-name="ucircumflex" unicode="&#xfb;" 
d="M733 1614l-268 -367h166l180 201h2l123 -201h156l-156 367h-203zM315 1079l-120 -688q-36 -210 47 -317q79 -101 250 -101q130 0 231 80q69 55 123 148h8l-37 -201h174l191 1079h-185l-92 -528q-35 -201 -128.5 -313.5t-223.5 -112.5q-121 0 -159 65t-13 209l119 680
h-185z" />
    <glyph glyph-name="udieresis" unicode="&#xfc;" 
d="M694 1280l47 264h-266l-47 -264h266zM1135 1280l47 264h-264l-48 -264h265zM315 1079l-120 -688q-36 -210 47 -317q79 -101 250 -101q130 0 231 80q69 55 123 148h8l-37 -201h174l191 1079h-185l-92 -528q-35 -201 -128.5 -313.5t-223.5 -112.5q-121 0 -159 65t-13 209
l119 680h-185z" />
    <glyph glyph-name="yacute" unicode="&#xfd;" 
d="M782 1247l308 367h-277l-188 -367h157zM461 0l-64 -100q-51 -82 -105.5 -117t-133.5 -35q-96 0 -197 37l-43 -145q110 -46 225 -46q138 0 234.5 58.5t179.5 200.5l694 1226h-196l-377 -692q-29 -52 -37 -70q-21 -40 -51 -112h-8l-7 53q-4 34 -22 125l-150 696h-184z" />
    <glyph glyph-name="thorn" unicode="&#xfe;" 
d="M219 -385l96 549h7q75 -191 325 -191q126 0 229 57t175 158q68 95 103.5 219t35.5 255q0 203 -102 321.5t-283 118.5q-124 0 -219 -55q-75 -46 -133 -132h-4l120 699h-182l-352 -1999h184zM371 500l20 114q28 146 107 238q96 106 245 106q129 0 192.5 -78t63.5 -214
q0 -201 -81 -359q-99 -192 -287 -192q-165 0 -230 118q-57 100 -30 267z" />
    <glyph glyph-name="ydieresis" unicode="&#xff;" 
d="M664 1282l47 264h-267l-47 -264h267zM1104 1282l47 264h-264l-47 -264h264zM459 0l-64 -100q-51 -82 -105.5 -117t-133.5 -35q-96 0 -197 37l-43 -145q110 -46 225 -46q138 0 234.5 58.5t179.5 200.5l694 1226h-196l-377 -692q-29 -52 -37 -70q-21 -40 -51 -112h-8l-7 53
q-4 34 -22 125l-150 696h-184z" />
    <glyph glyph-name="Amacron" unicode="&#x100;" 
d="M1178 1733l28 170h-651l-29 -170h652zM1145 0l-184 1567h-248l-729 -1567h194l211 467h506l49 -467h201zM809 1397l6 -101q1 -14 4 -44t4 -46l6 -84l52 -501h-422l225 501q19 43 33 80l63 160q9 31 13 35h16z" />
    <glyph glyph-name="amacron" unicode="&#x101;" 
d="M1087 1303l31 170h-651l-31 -170h651zM844 176v-8q0 -168 186 -168h68l24 150h-51q-79 0 -61 83l80 447q35 192 -60 307q-101 119 -315 119q-189 0 -312 -92q-115 -86 -124 -236h178q10 93 76 140t167 47q264 0 215 -271l-8 -43q-175 0 -241 -6q-76 -7 -189 -24
q-147 -27 -233 -113t-86 -223q0 -146 90 -223.5t246 -77.5q228 0 344 192h6zM887 520l-13 -65q-27 -143 -118 -234q-95 -92 -224 -92q-94 0 -140 40.5t-46 131.5q0 132 143 178q122 41 398 41z" />
    <glyph glyph-name="Abreve" unicode="&#x102;" 
d="M731 1987h-153q-12 -141 75 -215q81 -72 217 -72q128 0 218 72t124 215h-157q-47 -138 -189 -138q-57 0 -94 36t-41 102zM1145 0l-184 1567h-248l-729 -1567h194l211 467h506l49 -467h201zM809 1397l6 -101q1 -14 4 -44t4 -46l6 -84l52 -501h-422l225 501q19 43 33 80
l63 160q9 31 13 35h16z" />
    <glyph glyph-name="abreve" unicode="&#x103;" 
d="M651 1589h-149q-32 -161 57 -254q79 -82 225 -82q141 0 232 82q100 87 123 254h-154q-33 -184 -199 -184q-69 0 -108 47.5t-27 136.5zM844 176v-8q0 -168 186 -168h68l24 150h-51q-79 0 -61 83l80 447q35 192 -60 307q-101 119 -315 119q-189 0 -312 -92
q-115 -86 -124 -236h178q10 93 76 140t167 47q264 0 215 -271l-8 -43q-175 0 -241 -6q-76 -7 -189 -24q-147 -27 -233 -113t-86 -223q0 -146 90 -223.5t246 -77.5q228 0 344 192h6zM887 520l-13 -65q-27 -143 -118 -234q-95 -92 -224 -92q-94 0 -140 40.5t-46 131.5
q0 132 143 178q122 41 398 41z" />
    <glyph glyph-name="Aogonek" unicode="&#x104;" 
d="M1077 -385l27 143q-115 0 -115 80q0 49 38.5 84.5t117.5 77.5l-184 1567h-248l-729 -1567h194l211 467h506l49 -467h76q-114 -40 -161.5 -92.5t-47.5 -126.5q0 -166 229 -166h37zM459 621l225 501q19 43 33 80l63 160q9 31 13 35h16l6 -101q1 -14 4 -44t4 -46l6 -84
l52 -501h-422z" />
    <glyph glyph-name="aogonek" unicode="&#x105;" 
d="M1030 -385l27 143q-59 2 -87 19.5t-28 62.5q0 47 32.5 78t123.5 82l24 150h-51q-79 0 -61 83l80 447q35 191 -58 307q-98 119 -315 119q-192 0 -311 -92q-118 -88 -127 -236h178q10 93 76 140t167 47q264 0 215 -271l-8 -43q-175 0 -241 -6q-76 -7 -189 -24
q-147 -27 -233 -113t-86 -223q0 -146 90 -223.5t246 -77.5q228 0 344 192h6v-8q0 -128 112 -160v-6q-91 -30 -141.5 -88t-50.5 -127q0 -172 229 -172h37zM887 520l-13 -65q-27 -143 -118 -234q-95 -92 -224 -92q-94 0 -140 40.5t-46 131.5q0 132 143 178q122 41 398 41z" />
    <glyph glyph-name="Cacute" unicode="&#x106;" 
d="M975 1694l246 272h-277l-141 -272h172zM1116 1100h193q12 231 -111 360q-126 129 -342 129q-174 0 -295 -71q-226 -134 -325 -422q-82 -242 -93 -457q-6 -89 -6 -113q0 -283 137 -426q124 -133 357 -133q241 0 403 162q135 138 174 360h-188q-36 -168 -138 -266t-251 -98
q-132 0 -213 90q-88 98 -88 287q0 152 30 319q42 250 144 410q126 203 338 203q151 0 223 -105q54 -88 51 -229z" />
    <glyph glyph-name="cacute" unicode="&#x107;" 
d="M825 1247l308 367h-277l-188 -367h157zM983 754h178q3 161 -98 252q-111 100 -313 100q-288 0 -439 -217q-131 -188 -131 -461q0 -206 111 -326q116 -129 338 -129q205 0 340 115q123 105 145 264h-188q-18 -103 -93.5 -166t-193.5 -63q-138 0 -204 82.5t-66 234.5
q0 193 77 336q101 185 299 185q126 0 189 -66q49 -54 49 -141z" />
    <glyph glyph-name="Ccircumflex" unicode="&#x108;" 
d="M807 1966l-246 -272h180l160 135h6l115 -135h170l-152 272h-233zM1116 1100h193q12 231 -111 360q-126 129 -342 129q-174 0 -295 -71q-226 -134 -325 -422q-82 -242 -93 -457q-6 -89 -6 -113q0 -283 137 -426q124 -133 357 -133q241 0 403 162q135 138 174 360h-188
q-36 -168 -138 -266t-251 -98q-132 0 -213 90q-88 98 -88 287q0 152 30 319q42 250 144 410q126 203 338 203q151 0 223 -105q54 -88 51 -229z" />
    <glyph glyph-name="ccircumflex" unicode="&#x109;" 
d="M723 1614l-268 -367h166l180 201h2l123 -201h155l-155 367h-203zM983 754h178q3 161 -98 252q-111 100 -313 100q-288 0 -439 -217q-131 -188 -131 -461q0 -206 111 -326q116 -129 338 -129q205 0 340 115q123 105 145 264h-188q-18 -103 -93.5 -166t-193.5 -63
q-138 0 -204 82.5t-66 234.5q0 193 77 336q101 185 299 185q126 0 189 -66q49 -54 49 -141z" />
    <glyph glyph-name="Cdotaccent" unicode="&#x10a;" 
d="M1018 1688l49 274h-274l-50 -274h275zM1116 1100h193q12 231 -111 360q-126 129 -342 129q-174 0 -295 -71q-226 -134 -325 -422q-82 -242 -93 -457q-6 -89 -6 -113q0 -283 137 -426q124 -133 357 -133q241 0 403 162q135 138 174 360h-188q-36 -168 -138 -266t-251 -98
q-132 0 -213 90q-88 98 -88 287q0 152 30 319q42 250 144 410q126 203 338 203q151 0 223 -105q54 -88 51 -229z" />
    <glyph glyph-name="cdotaccent" unicode="&#x10b;" 
d="M905 1282l49 274h-274l-49 -274h274zM983 754h178q3 161 -98 252q-111 100 -313 100q-288 0 -439 -217q-131 -188 -131 -461q0 -206 111 -326q116 -129 338 -129q205 0 340 115q123 105 145 264h-188q-18 -103 -93.5 -166t-193.5 -63q-138 0 -204 82.5t-66 234.5
q0 193 77 336q101 185 299 185q126 0 189 -66q49 -54 49 -141z" />
    <glyph glyph-name="Ccaron" unicode="&#x10c;" 
d="M983 1694l246 272h-180l-160 -135h-6l-115 135h-170l152 -272h233zM1116 1100h193q12 231 -111 360q-126 129 -342 129q-174 0 -295 -71q-226 -134 -325 -422q-82 -242 -93 -457q-6 -89 -6 -113q0 -283 137 -426q124 -133 357 -133q241 0 403 162q135 138 174 360h-188
q-36 -168 -138 -266t-251 -98q-132 0 -213 90q-88 98 -88 287q0 152 30 319q42 250 144 410q126 203 338 203q151 0 223 -105q54 -88 51 -229z" />
    <glyph glyph-name="ccaron" unicode="&#x10d;" 
d="M864 1247l269 367h-166l-181 -201h-2l-122 201h-156l156 -367h202zM983 754h178q3 161 -98 252q-111 100 -313 100q-288 0 -439 -217q-131 -188 -131 -461q0 -206 111 -326q116 -129 338 -129q205 0 340 115q123 105 145 264h-188q-18 -103 -93.5 -166t-193.5 -63
q-138 0 -204 82.5t-66 234.5q0 193 77 336q101 185 299 185q126 0 189 -66q49 -54 49 -141z" />
    <glyph glyph-name="Dcaron" unicode="&#x10e;" 
d="M866 1694l246 272h-180l-160 -135h-6l-115 135h-170l152 -272h233zM57 0h426q404 0 613 293q182 255 182 670q0 301 -170 458q-158 146 -424 146h-350zM496 1403h176q411 0 411 -430q0 -154 -30 -299q-48 -216 -160 -344q-142 -166 -381 -166h-236z" />
    <glyph glyph-name="dcaron" unicode="&#x10f;" 
d="M1022 1614l-121 -692h-4q-32 82 -117 133t-209 51q-253 0 -399 -203q-135 -187 -135 -489q0 -202 102.5 -320.5t290.5 -118.5q119 0 196.5 44.5t137.5 127.5h8l-24 -147h176l284 1614h-186zM1352 1196l233 418h-231l-121 -418h119zM848 582l-21 -115q-27 -151 -106 -238
q-93 -108 -242 -108q-128 0 -190 78.5t-62 210.5q0 231 82 381q95 174 291 174q149 0 217 -119q57 -108 31 -264z" />
    <glyph glyph-name="Dcroat" unicode="&#x110;" 
d="M82 0h401q404 0 613 293q182 255 182 670q0 301 -170 458q-158 146 -424 146h-326l-122 -697h-181l-28 -157h180zM397 713h357l28 157h-356l94 533h152q411 0 411 -430q0 -154 -30 -299q-48 -216 -160 -344q-142 -166 -381 -166h-211z" />
    <glyph glyph-name="dcroat" unicode="&#x111;" 
d="M850 0h176l225 1272h156l23 133h-156l37 209h-187l-37 -209h-344l-22 -133h344l-64 -359h-4q-45 91 -106 134q-85 59 -223 59q-125 0 -226.5 -57t-171.5 -158q-68 -97 -104.5 -221.5t-36.5 -255.5q0 -202 102.5 -320.5t290.5 -118.5q118 0 198.5 44t145.5 128h8zM950 582
l-20 -115q-28 -153 -105 -238q-93 -108 -250 -108q-128 0 -192 79t-64 210q0 209 89 368q105 187 294 187q152 0 220 -119q55 -104 28 -264z" />
    <glyph glyph-name="Emacron" unicode="&#x112;" 
d="M1214 1733l29 170h-651l-29 -170h651zM1069 0l29 166h-760l96 545h643l29 161h-643l94 529h750l28 166h-940l-276 -1567h950z" />
    <glyph glyph-name="emacron" unicode="&#x113;" 
d="M1085 1303l31 170h-651l-31 -170h651zM1077 283h-190q-24 -72 -91 -115t-167 -43q-283 0 -283 301v33q0 20 2 30h776l11 46q27 107 16.5 212t-59.5 183q-110 176 -355 176q-285 0 -440 -217q-67 -95 -101 -217.5t-34 -249.5q0 -205 106 -320q119 -129 348 -129
q181 0 300 83t161 227zM967 635h-600q30 145 114 229q96 99 250 99q135 0 198.5 -87.5t37.5 -240.5z" />
    <glyph glyph-name="Ebreve" unicode="&#x114;" 
d="M748 1987h-154q-11 -140 76 -215q81 -72 217 -72q128 0 218 72t124 215h-158q-47 -138 -188 -138q-57 0 -94 36t-41 102zM1069 0l29 166h-760l96 545h643l29 161h-643l94 529h750l28 166h-940l-276 -1567h950z" />
    <glyph glyph-name="ebreve" unicode="&#x115;" 
d="M655 1589h-149q-32 -161 57 -254q79 -82 225 -82q141 0 232 82q100 87 123 254h-154q-33 -184 -198 -184q-70 0 -109 48t-27 136zM1077 283h-190q-24 -72 -91 -115t-167 -43q-283 0 -283 301v33q0 20 2 30h776l11 46q27 107 16.5 212t-59.5 183q-110 176 -355 176
q-285 0 -440 -217q-67 -95 -101 -217.5t-34 -249.5q0 -205 106 -320q119 -129 348 -129q181 0 300 83t161 227zM967 635h-600q30 145 114 229q96 99 250 99q135 0 198.5 -87.5t37.5 -240.5z" />
    <glyph glyph-name="Edotaccent" unicode="&#x116;" 
d="M1030 1688l49 274h-274l-49 -274h274zM1069 0l29 166h-760l96 545h643l29 161h-643l94 529h750l28 166h-940l-276 -1567h950z" />
    <glyph glyph-name="edotaccent" unicode="&#x117;" 
d="M897 1282l49 274h-274l-49 -274h274zM1077 283h-190q-24 -72 -91 -115t-167 -43q-283 0 -283 301v33q0 20 2 30h776l11 46q27 107 16.5 212t-59.5 183q-110 176 -355 176q-285 0 -440 -217q-67 -95 -101 -217.5t-34 -249.5q0 -205 106 -320q119 -129 348 -129
q181 0 300 83t161 227zM967 635h-600q30 145 114 229q96 99 250 99q135 0 198.5 -87.5t37.5 -240.5z" />
    <glyph glyph-name="Eogonek" unicode="&#x118;" 
d="M922 -385l26 143q-114 0 -114 80q0 49 38.5 84.5t116.5 77.5h80l29 166h-760l96 545h643l29 161h-643l94 529h750l28 166h-940l-276 -1567h712q-92 -43 -134 -95t-42 -124q0 -166 230 -166h37z" />
    <glyph glyph-name="eogonek" unicode="&#x119;" 
d="M717 -162q0 48 42.5 94.5t145.5 116.5q71 48 111 104t61 130h-190q-24 -72 -91 -115t-167 -43q-283 0 -283 301v33q0 20 2 30h776l11 46q27 107 16.5 212t-59.5 183q-110 176 -355 176q-285 0 -440 -217q-67 -95 -101 -217.5t-34 -249.5q0 -205 106 -320
q119 -129 348 -129h31q21 0 31 2v-10q-139 -62 -139 -184q0 -166 229 -166h37l26 143q-114 0 -114 80zM967 635h-600q30 145 114 229q96 99 250 99q133 0 197.5 -85.5t38.5 -242.5z" />
    <glyph glyph-name="Ecaron" unicode="&#x11a;" 
d="M997 1694l246 272h-180l-160 -135h-6l-115 135h-170l152 -272h233zM1069 0l29 166h-760l96 545h643l29 161h-643l94 529h750l28 166h-940l-276 -1567h950z" />
    <glyph glyph-name="ecaron" unicode="&#x11b;" 
d="M856 1247l268 367h-166l-180 -201h-2l-123 201h-155l155 -367h203zM1077 283h-190q-24 -72 -91 -115t-167 -43q-283 0 -283 301v33q0 20 2 30h776l11 46q27 107 16.5 212t-59.5 183q-110 176 -355 176q-285 0 -440 -217q-67 -95 -101 -217.5t-34 -249.5q0 -205 106 -320
q119 -129 348 -129q181 0 300 83t161 227zM967 635h-600q30 145 114 229q96 99 250 99q135 0 198.5 -87.5t37.5 -240.5z" />
    <glyph glyph-name="Gcircumflex" unicode="&#x11c;" horiz-adv-x="1308" 
d="M786 1966l-245 -272h180l160 135h6l114 -135h170l-151 272h-234zM838 1436q141 0 213 -82q58 -72 55 -203h182q9 209 -114 326q-121 112 -336 112q-263 0 -439 -194q-152 -168 -223 -432q-61 -227 -61 -447q0 -286 129 -424q115 -123 338 -123q234 0 368 209h8l-30 -178
h166l139 791h-547l-29 -156h373l-22 -129q-28 -152 -107 -250q-116 -137 -303 -137q-143 0 -217 90t-74 283q0 162 39 352q54 257 154 401q135 191 338 191z" />
    <glyph glyph-name="gcircumflex" unicode="&#x11d;" 
d="M758 1614l-269 -367h166l181 201h2l123 -201h155l-155 367h-203zM504 -408q219 0 360 109q153 118 197 367l178 1011h-176l-31 -170h-6q-34 83 -116.5 138t-204.5 55q-273 0 -426 -215q-138 -197 -138 -479q0 -198 119 -304q105 -96 270 -96q133 0 219.5 51t147.5 148h6
l-20 -119q-36 -196 -127 -278q-82 -74 -238 -74q-123 0 -182 44.5t-64 117.5h-174q-3 -151 117 -230q110 -76 289 -76zM973 598l-21 -109q-25 -145 -121 -235q-105 -98 -241 -98q-141 0 -205 80q-51 64 -51 200q0 78 21 168.5t63 167.5q46 86 119 138.5t170 52.5
q156 0 227 -115q65 -105 39 -250z" />
    <glyph glyph-name="Gbreve" unicode="&#x11e;" horiz-adv-x="1308" 
d="M741 1987h-153q-11 -140 76 -215q81 -72 217 -72q128 0 218 72t124 215h-158q-47 -138 -188 -138q-57 0 -94.5 36t-41.5 102zM838 1436q141 0 213 -82q58 -72 55 -203h182q9 209 -114 326q-121 112 -336 112q-263 0 -439 -194q-152 -168 -223 -432q-61 -227 -61 -447
q0 -286 129 -424q115 -123 338 -123q234 0 368 209h8l-30 -178h166l139 791h-547l-29 -156h373l-22 -129q-28 -152 -107 -250q-116 -137 -303 -137q-143 0 -217 90t-74 283q0 162 39 352q54 257 154 401q135 191 338 191z" />
    <glyph glyph-name="gbreve" unicode="&#x11f;" 
d="M686 1589h-149q-32 -161 57 -254q79 -82 225 -82q141 0 232 82q100 87 123 254h-154q-33 -184 -199 -184q-69 0 -108 47.5t-27 136.5zM504 -408q219 0 360 109q153 118 197 367l178 1011h-176l-31 -170h-6q-34 83 -116.5 138t-204.5 55q-273 0 -426 -215
q-138 -197 -138 -479q0 -198 119 -304q105 -96 270 -96q133 0 219.5 51t147.5 148h6l-20 -119q-36 -196 -127 -278q-82 -74 -238 -74q-123 0 -182 44.5t-64 117.5h-174q-3 -151 117 -230q110 -76 289 -76zM973 598l-21 -109q-25 -145 -121 -235q-105 -98 -241 -98
q-141 0 -205 80q-51 64 -51 200q0 78 21 168.5t63 167.5q46 86 119 138.5t170 52.5q156 0 227 -115q65 -105 39 -250z" />
    <glyph glyph-name="Gdotaccent" unicode="&#x120;" horiz-adv-x="1308" 
d="M999 1688l50 274h-275l-49 -274h274zM838 1436q141 0 213 -82q58 -72 55 -203h182q9 209 -114 326q-121 112 -336 112q-263 0 -439 -194q-152 -168 -223 -432q-61 -227 -61 -447q0 -286 129 -424q115 -123 338 -123q234 0 368 209h8l-30 -178h166l139 791h-547l-29 -156
h373l-22 -129q-28 -152 -107 -250q-116 -137 -303 -137q-143 0 -217 90t-74 283q0 162 39 352q54 257 154 401q135 191 338 191z" />
    <glyph glyph-name="gdotaccent" unicode="&#x121;" 
d="M932 1282l49 274h-274l-50 -274h275zM504 -408q219 0 360 109q153 118 197 367l178 1011h-176l-31 -170h-6q-34 83 -116.5 138t-204.5 55q-273 0 -426 -215q-138 -197 -138 -479q0 -198 119 -304q105 -96 270 -96q133 0 219.5 51t147.5 148h6l-20 -119
q-36 -196 -127 -278q-82 -74 -238 -74q-123 0 -182 44.5t-64 117.5h-174q-3 -151 117 -230q110 -76 289 -76zM973 598l-21 -109q-25 -145 -121 -235q-105 -98 -241 -98q-141 0 -205 80q-51 64 -51 200q0 78 21 168.5t63 167.5q46 86 119 138.5t170 52.5q156 0 227 -115
q65 -105 39 -250z" />
    <glyph glyph-name="Gcommaaccent" unicode="&#x122;" horiz-adv-x="1308" 
d="M838 1436q141 0 213 -82q58 -72 55 -203h182q9 209 -114 326q-121 112 -336 112q-263 0 -439 -194q-152 -168 -223 -432q-61 -227 -61 -447q0 -286 129 -424q115 -123 338 -123q234 0 368 209h8l-30 -178h166l139 791h-547l-29 -156h373l-22 -129q-28 -152 -107 -250
q-116 -137 -303 -137q-143 0 -217 90t-74 283q0 162 39 352q54 257 154 401q135 191 338 191zM461 -414l237 305h-276l-119 -305h158z" />
    <glyph glyph-name="gcommaaccent" unicode="&#x123;" 
d="M883 1585l-256 -338h276l137 338h-157zM504 -408q219 0 360 109q153 118 197 367l178 1011h-176l-31 -170h-6q-34 83 -116.5 138t-204.5 55q-273 0 -426 -215q-138 -197 -138 -479q0 -198 119 -304q105 -96 270 -96q133 0 219.5 51t147.5 148h6l-20 -119
q-36 -196 -127 -278q-82 -74 -238 -74q-123 0 -182 44.5t-64 117.5h-174q-3 -151 117 -230q110 -76 289 -76zM973 598l-21 -109q-25 -145 -121 -235q-105 -98 -241 -98q-141 0 -205 80q-51 64 -51 200q0 78 21 168.5t63 167.5q46 86 119 138.5t170 52.5q156 0 227 -115
q65 -105 39 -250z" />
    <glyph glyph-name="Hcircumflex" unicode="&#x124;" 
d="M776 1966l-246 -272h181l159 135h7l114 -135h170l-151 272h-234zM993 709l-125 -709h191l276 1567h-190l-123 -697h-623l123 697h-190l-277 -1567h191l125 709h622z" />
    <glyph glyph-name="hcircumflex" unicode="&#x125;" 
d="M764 1966l-246 -272h180l160 135h6l115 -135h170l-152 272h-233zM997 0l121 686q34 199 -46 309.5t-243 110.5q-136 0 -239 -78q-79 -60 -115 -145h-6l131 731h-186l-285 -1614h186l103 584q27 158 119 264t221 106q123 0 160.5 -70.5t11.5 -217.5l-117 -666h184z" />
    <glyph glyph-name="Hbar" unicode="&#x126;" 
d="M993 709l-125 -709h191l205 1155h112l27 145h-115l47 267h-190l-47 -267h-623l47 267h-190l-47 -267h-111l-27 -145h113l-205 -1155h191l125 709h622zM451 1155h622l-51 -285h-623z" />
    <glyph glyph-name="hbar" unicode="&#x127;" 
d="M315 0l103 584q27 158 119 264t221 106q123 0 160.5 -70.5t11.5 -217.5l-117 -666h184l121 686q34 199 -46 309.5t-243 110.5q-136 0 -239 -78q-79 -60 -115 -145h-6l70 389h344l24 133h-344l37 209h-186l-37 -209h-156l-24 -133h157l-225 -1272h186z" />
    <glyph glyph-name="Itilde" unicode="&#x128;" 
d="M510 1694h145q13 116 97 116q11 0 22 -2.5t25 -9.5t21 -11t26 -16.5t24 -15.5q84 -55 150 -55q112 0 172.5 76t71.5 202h-146q-14 -120 -92 -120q-18 0 -40.5 10t-34.5 17.5t-42 29.5q-82 55 -153 55q-113 0 -175.5 -76t-70.5 -200zM1260 1413l26 154h-901l-27 -154h357
l-223 -1259h-357l-26 -154h901l26 154h-356l223 1259h357z" />
    <glyph glyph-name="itilde" unicode="&#x129;" 
d="M389 1284h148q15 127 90 127q18 0 40.5 -10t34 -18t43.5 -31q83 -60 158 -60q112 0 172 86q51 73 64 203h-148q-15 -127 -88 -127q-18 0 -40.5 10t-37.5 20t-45 32q-86 59 -155 59q-109 0 -172 -86q-54 -74 -64 -205zM1096 154h-404l164 925h-514l-27 -147h334l-137 -778
h-393l-27 -154h977z" />
    <glyph glyph-name="Imacron" unicode="&#x12a;" 
d="M1190 1733l29 170h-652l-28 -170h651zM1260 1413l26 154h-901l-27 -154h357l-223 -1259h-357l-26 -154h901l26 154h-356l223 1259h357z" />
    <glyph glyph-name="imacron" unicode="&#x12b;" 
d="M1090 1303l30 170h-651l-31 -170h652zM1096 154h-404l164 925h-514l-27 -147h334l-137 -778h-393l-27 -154h977z" />
    <glyph glyph-name="Ibreve" unicode="&#x12c;" 
d="M731 1987h-153q-12 -141 75 -215q81 -72 217 -72q128 0 218 72t124 215h-157q-47 -138 -189 -138q-57 0 -94 36t-41 102zM1260 1413l26 154h-901l-27 -154h357l-223 -1259h-357l-26 -154h901l26 154h-356l223 1259h357z" />
    <glyph glyph-name="ibreve" unicode="&#x12d;" 
d="M623 1589h-150q-32 -161 57 -254q79 -82 226 -82q140 0 231 82q100 87 123 254h-154q-33 -184 -198 -184q-69 0 -108 47.5t-27 136.5zM1096 154h-404l164 925h-514l-27 -147h334l-137 -778h-393l-27 -154h977z" />
    <glyph glyph-name="Iogonek" unicode="&#x12e;" 
d="M854 -385l27 143q-115 0 -115 80q0 49 38.5 84.5t117.5 77.5h88l26 154h-356l223 1259h357l26 154h-901l-27 -154h357l-223 -1259h-357l-26 -154h655q-92 -43 -134 -95t-42 -124q0 -166 229 -166h37z" />
    <glyph glyph-name="iogonek" unicode="&#x12f;" 
d="M915 1282l50 274h-275l-49 -274h274zM895 -385l27 143q-115 0 -115 80q0 49 38.5 84.5t117.5 77.5h106l27 154h-404l164 925h-514l-27 -147h334l-137 -778h-393l-27 -154h713q-92 -43 -134 -95t-42 -124q0 -166 229 -166h37z" />
    <glyph glyph-name="Idotaccent" unicode="&#x130;" 
d="M993 1688l49 274h-274l-49 -274h274zM1260 1413l26 154h-901l-27 -154h357l-223 -1259h-357l-26 -154h901l26 154h-356l223 1259h357z" />
    <glyph glyph-name="dotlessi" unicode="&#x131;" 
d="M1096 154h-404l164 925h-514l-27 -147h334l-137 -778h-393l-27 -154h977z" />
    <glyph glyph-name="IJ" unicode="&#x132;" horiz-adv-x="2621" 
d="M1260 1413l26 154h-901l-27 -154h357l-223 -1259h-357l-26 -154h901l26 154h-356l223 1259h357zM1755 -20q496 0 576 454l200 1133h-723l-28 -162h532l-170 -959q-26 -147 -110 -221.5t-248 -74.5q-162 0 -314 38l-30 -172q160 -36 315 -36z" />
    <glyph glyph-name="ij" unicode="&#x133;" horiz-adv-x="2621" 
d="M915 1282l50 274h-275l-49 -274h274zM2388 1556h-274l-50 -274h275zM1096 154h-404l164 925h-514l-27 -147h334l-137 -778h-393l-27 -154h977zM1657 -408q192 0 292 94t136 294l194 1099h-602l-26 -147h422l-164 -924q-25 -148 -74 -203q-51 -57 -170 -57q-105 0 -203 41
l-43 -149q121 -48 238 -48z" />
    <glyph glyph-name="Jcircumflex" unicode="&#x134;" 
d="M827 1966l-245 -272h180l160 135h6l114 -135h170l-151 272h-234zM444 -20q496 0 576 454l201 1133h-723l-29 -162h532l-170 -959q-26 -147 -110 -221.5t-248 -74.5q-161 0 -313 38l-31 -172q160 -36 315 -36z" />
    <glyph glyph-name="jcircumflex" unicode="&#x135;" 
d="M774 1614l-268 -367h166l180 201h2l123 -201h156l-156 367h-203zM152 -211l-43 -149q121 -48 237 -48q192 0 292 94t136 294l195 1099h-602l-27 -147h422l-164 -924q-25 -148 -74 -203q-51 -57 -170 -57q-104 0 -202 41z" />
    <glyph glyph-name="Kcommaaccent" unicode="&#x136;" 
d="M594 772l369 -772h200l-430 903l653 664h-227l-727 -740l131 740h-188l-277 -1567h189l98 559zM526 -414l238 305h-277l-118 -305h157z" />
    <glyph glyph-name="kcommaaccent" unicode="&#x137;" 
d="M606 516l314 -516h208l-391 627l494 452h-232l-563 -526l187 1061h-177l-284 -1614h176l55 317zM506 -414l237 305h-276l-119 -305h158z" />
    <glyph glyph-name="kgreenlandic" unicode="&#x138;" 
d="M606 516l314 -516h208l-391 627l494 452h-232l-563 -526l92 526h-176l-190 -1079h176l55 317z" />
    <glyph glyph-name="Lacute" unicode="&#x139;" 
d="M643 1694l246 272h-277l-141 -272h172zM1128 0l29 166h-778l248 1401h-191l-276 -1567h968z" />
    <glyph glyph-name="lacute" unicode="&#x13a;" 
d="M965 1694l245 272h-276l-141 -272h172zM1096 154h-402l258 1460h-536l-27 -148h354l-231 -1312h-393l-27 -154h977z" />
    <glyph glyph-name="Lcommaaccent" unicode="&#x13b;" 
d="M1128 0l29 166h-778l248 1401h-191l-276 -1567h968zM571 -414l238 305h-277l-118 -305h157z" />
    <glyph glyph-name="lcommaaccent" unicode="&#x13c;" 
d="M1096 154h-402l258 1460h-536l-27 -148h354l-231 -1312h-393l-27 -154h977zM461 -414l237 305h-276l-119 -305h158z" />
    <glyph glyph-name="Lcaron" unicode="&#x13d;" 
d="M903 1196l234 418h-232l-121 -418h119zM1128 0l29 166h-778l248 1401h-191l-276 -1567h968z" />
    <glyph glyph-name="lcaron" unicode="&#x13e;" 
d="M1096 154h-402l258 1460h-536l-27 -148h354l-231 -1312h-393l-27 -154h977zM1161 1196l234 418h-232l-121 -418h119z" />
    <glyph glyph-name="Ldot" unicode="&#x13f;" 
d="M1128 0l29 166h-778l248 1401h-191l-276 -1567h968zM1174 674l49 274h-275l-49 -274h275z" />
    <glyph glyph-name="ldot" unicode="&#x140;" 
d="M1096 154h-402l258 1460h-536l-27 -148h354l-231 -1312h-393l-27 -154h977zM1411 698l41 228h-227l-39 -228h225z" />
    <glyph glyph-name="Lslash" unicode="&#x141;" 
d="M1167 166h-778l88 498l555 217l29 172l-553 -217l129 731h-191l-143 -811l-168 -66l-31 -172l168 66l-102 -584h969z" />
    <glyph glyph-name="lslash" unicode="&#x142;" 
d="M1098 154h-402l107 608l338 160l30 165l-337 -161l120 688h-536l-27 -148h354l-112 -635l-332 -157l-29 -166l332 158l-90 -512h-393l-27 -154h977z" />
    <glyph glyph-name="Nacute" unicode="&#x143;" 
d="M948 1694l246 272h-276l-142 -272h172zM227 0l238 1356h12q2 -18 10 -64q11 -73 29 -143l295 -1149h252l276 1567h-172l-237 -1356h-12q0 4 -11 65q-12 76 -30 148l-293 1143h-252l-277 -1567h172z" />
    <glyph glyph-name="nacute" unicode="&#x144;" 
d="M827 1247l308 367h-277l-188 -367h157zM997 0l119 672q36 209 -40 320.5t-249 111.5q-139 0 -241 -78q-74 -57 -129 -160h-4l39 213h-175l-190 -1079h186l103 584q27 158 119 264q95 106 223 106q123 0 160.5 -69.5t11.5 -216.5l-119 -668h186z" />
    <glyph glyph-name="Ncommaaccent" unicode="&#x145;" 
d="M227 0l238 1356h12q2 -18 10 -64q11 -73 29 -143l295 -1149h252l276 1567h-172l-237 -1356h-12q0 4 -11 65q-12 76 -30 148l-293 1143h-252l-277 -1567h172zM451 -414l237 305h-276l-119 -305h158z" />
    <glyph glyph-name="ncommaaccent" unicode="&#x146;" 
d="M997 0l119 672q36 209 -40 320.5t-249 111.5q-139 0 -241 -78q-74 -57 -129 -160h-4l39 213h-175l-190 -1079h186l103 584q27 158 119 264q95 106 223 106q123 0 160.5 -69.5t11.5 -216.5l-119 -668h186zM459 -414l237 305h-276l-119 -305h158z" />
    <glyph glyph-name="Ncaron" unicode="&#x147;" 
d="M977 1694l246 272h-181l-159 -135h-6l-115 135h-170l151 -272h234zM227 0l238 1356h12q2 -18 10 -64q11 -73 29 -143l295 -1149h252l276 1567h-172l-237 -1356h-12q0 4 -11 65q-12 76 -30 148l-293 1143h-252l-277 -1567h172z" />
    <glyph glyph-name="ncaron" unicode="&#x148;" 
d="M852 1247l268 367h-166l-180 -201h-2l-123 201h-155l155 -367h203zM997 0l119 672q36 209 -40 320.5t-249 111.5q-139 0 -241 -78q-74 -57 -129 -160h-4l39 213h-175l-190 -1079h186l103 584q27 158 119 264q95 106 223 106q123 0 160.5 -69.5t11.5 -216.5l-119 -668h186
z" />
    <glyph glyph-name="napostrophe" unicode="&#x149;" 
d="M575 1614h-294l-205 -445h162zM997 0l119 672q36 209 -40 320.5t-249 111.5q-139 0 -241 -78q-74 -57 -129 -160h-4l39 213h-175l-190 -1079h186l103 584q27 158 119 264q95 106 223 106q123 0 160.5 -69.5t11.5 -216.5l-119 -668h186z" />
    <glyph glyph-name="Eng" unicode="&#x14a;" 
d="M477 -385h78q235 0 350 90q125 96 164 328l270 1534h-172l-237 -1356h-12q0 4 -11 65q-12 76 -30 148l-293 1143h-252l-277 -1567h172l238 1356h12q2 -18 10 -64q11 -73 29 -143l295 -1149h80q-24 -111 -90 -166q-72 -57 -215 -57h-80z" />
    <glyph glyph-name="eng" unicode="&#x14b;" 
d="M641 -408q281 0 334 277l141 803q36 209 -40 320.5t-249 111.5q-139 0 -241 -78q-74 -57 -129 -160h-4l39 213h-175l-190 -1079h186l103 584q27 158 119 264q95 106 223 106q123 0 160.5 -69.5t11.5 -216.5l-139 -779q-13 -76 -50.5 -107.5t-105.5 -31.5q-50 0 -94 14
l-31 -149q71 -23 131 -23z" />
    <glyph glyph-name="Omacron" unicode="&#x14c;" 
d="M1180 1733l28 170h-651l-29 -170h652zM113 516q0 -300 141 -434q118 -115 336 -115q260 0 432 211q132 159 203 447q51 207 51 413q0 302 -141 437q-119 114 -336 114q-260 0 -430 -209q-138 -173 -205 -446q-51 -209 -51 -418zM594 127q-141 0 -215 89t-74 286
q0 160 37 350q48 245 147 393q120 185 306 185q141 0 214.5 -89t73.5 -286q0 -165 -36 -348q-47 -241 -146 -394q-124 -186 -307 -186z" />
    <glyph glyph-name="omacron" unicode="&#x14d;" 
d="M1102 1303l31 170h-652l-30 -170h651zM598 -27q280 0 432 217q135 196 135 484q0 199 -112 311q-119 119 -342 119q-276 0 -430 -219q-67 -96 -101.5 -222t-34.5 -260q0 -198 113 -311q116 -119 340 -119zM604 117q-138 0 -207 82q-61 70 -61 202q0 206 78 361
q100 199 291 199q136 0 203 -77.5t67 -207.5q0 -202 -80 -361q-100 -198 -291 -198z" />
    <glyph glyph-name="Obreve" unicode="&#x14e;" 
d="M735 1987h-153q-12 -141 75 -215q81 -72 217 -72q128 0 218.5 72t124.5 215h-158q-47 -138 -189 -138q-57 0 -94 36t-41 102zM113 516q0 -300 141 -434q118 -115 336 -115q260 0 432 211q132 159 203 447q51 207 51 413q0 302 -141 437q-119 114 -336 114
q-260 0 -430 -209q-138 -173 -205 -446q-51 -209 -51 -418zM594 127q-141 0 -215 89t-74 286q0 160 37 350q48 245 147 393q120 185 306 185q141 0 214.5 -89t73.5 -286q0 -165 -36 -348q-47 -241 -146 -394q-124 -186 -307 -186z" />
    <glyph glyph-name="obreve" unicode="&#x14f;" 
d="M655 1589h-149q-32 -161 57 -254q79 -82 225 -82q141 0 232 82q100 87 123 254h-154q-33 -184 -198 -184q-70 0 -109 48t-27 136zM598 -27q280 0 432 217q135 196 135 484q0 199 -112 311q-119 119 -342 119q-276 0 -430 -219q-67 -96 -101.5 -222t-34.5 -260
q0 -198 113 -311q116 -119 340 -119zM604 117q-138 0 -207 82q-61 70 -61 202q0 206 78 361q100 199 291 199q136 0 203 -77.5t67 -207.5q0 -202 -80 -361q-100 -198 -291 -198z" />
    <glyph glyph-name="Ohungarumlaut" unicode="&#x150;" 
d="M743 1694l177 272h-232l-104 -272h159zM1073 1694l176 272h-231l-105 -272h160zM113 516q0 -300 141 -434q118 -115 336 -115q260 0 432 211q132 159 203 447q51 207 51 413q0 302 -141 437q-119 114 -336 114q-260 0 -430 -209q-138 -173 -205 -446q-51 -209 -51 -418z
M594 127q-141 0 -215 89t-74 286q0 160 37 350q48 245 147 393q120 185 306 185q141 0 214.5 -89t73.5 -286q0 -165 -36 -348q-47 -241 -146 -394q-124 -186 -307 -186z" />
    <glyph glyph-name="ohungarumlaut" unicode="&#x151;" 
d="M655 1247l260 367h-229l-182 -367h151zM971 1247l260 367h-230l-182 -367h152zM598 -27q280 0 432 217q135 196 135 484q0 199 -112 311q-119 119 -342 119q-276 0 -430 -219q-67 -96 -101.5 -222t-34.5 -260q0 -198 113 -311q116 -119 340 -119zM604 117q-138 0 -207 82
q-61 70 -61 202q0 206 78 361q100 199 291 199q136 0 203 -77.5t67 -207.5q0 -202 -80 -361q-100 -198 -291 -198z" />
    <glyph glyph-name="OE" unicode="&#x152;" 
d="M1229 166h-465l96 545h389l29 161h-389l94 529h455l28 166h-665q-138 0 -236 -39q-193 -75 -309 -260q-101 -161 -145 -359q-40 -178 -43 -295q-2 -35 -2 -71q0 -278 137 -418q122 -125 348 -125h649zM799 1407l-219 -1247q-178 0 -254 98q-66 82 -66 244l4 96
q3 62 19 174q47 269 137 418q132 217 354 217h25z" />
    <glyph glyph-name="oe" unicode="&#x153;" 
d="M1206 283h-172q-13 -67 -47 -109q-43 -49 -121 -49q-117 0 -146 94t7 283h530l27 153q30 200 -31 316q-71 135 -241 135q-101 0 -173.5 -47t-111.5 -125h-6q-56 172 -254 172q-172 0 -287 -174q-80 -122 -125 -357q-30 -145 -30 -288q0 -154 72 -230.5t200 -76.5
q100 0 166.5 46.5t114.5 133.5h12q36 -97 101.5 -140t168.5 -43q134 0 225 76q98 82 121 230zM315 117q-58 0 -85 40t-27 136l4 74q1 22 14 131q27 188 80 307q71 160 174 160q62 0 90.5 -42t28.5 -139l-4 -71q-2 -20 -8 -63.5t-9 -65.5q-31 -189 -84 -308
q-71 -159 -174 -159zM1110 639h-358q31 171 83 245t148 74q105 0 133.5 -82.5t-6.5 -236.5z" />
    <glyph glyph-name="Racute" unicode="&#x154;" 
d="M879 1694l245 272h-276l-141 -272h172zM1128 0l-247 692v6q168 29 272 125q133 123 133 340q0 191 -117.5 297.5t-322.5 106.5h-479l-277 -1567h191l116 664h305l228 -664h198zM528 1411h310q118 0 185 -64.5t67 -185.5q0 -165 -96 -252.5t-265 -87.5h-303z" />
    <glyph glyph-name="racute" unicode="&#x155;" 
d="M907 1247l307 367h-276l-188 -367h157zM969 930q131 0 243 -35l33 166q-97 39 -217 39q-163 0 -279 -70t-206 -233h-4l49 282h-174l-191 -1079h189l75 444q13 91 55 178t105 156q138 152 322 152z" />
    <glyph glyph-name="Rcommaaccent" unicode="&#x156;" 
d="M1128 0l-247 692v6q168 29 272 125q133 123 133 340q0 191 -117.5 297.5t-322.5 106.5h-479l-277 -1567h191l116 664h305l228 -664h198zM528 1411h310q118 0 185 -64.5t67 -185.5q0 -165 -96 -252.5t-265 -87.5h-303zM500 -414l237 305h-276l-119 -305h158z" />
    <glyph glyph-name="rcommaaccent" unicode="&#x157;" 
d="M969 930q131 0 243 -35l33 166q-97 39 -217 39q-163 0 -279 -70t-206 -233h-4l49 282h-174l-191 -1079h189l75 444q13 91 55 178t105 156q138 152 322 152zM197 -414l237 305h-276l-119 -305h158z" />
    <glyph glyph-name="Rcaron" unicode="&#x158;" 
d="M932 1694l246 272h-181l-159 -135h-7l-114 135h-170l151 -272h234zM1128 0l-247 692v6q168 29 272 125q133 123 133 340q0 191 -117.5 297.5t-322.5 106.5h-479l-277 -1567h191l116 664h305l228 -664h198zM528 1411h310q118 0 185 -64.5t67 -185.5q0 -165 -96 -252.5
t-265 -87.5h-303z" />
    <glyph glyph-name="rcaron" unicode="&#x159;" 
d="M954 1247l269 367h-166l-180 -201h-3l-122 201h-156l156 -367h202zM969 930q131 0 243 -35l33 166q-97 39 -217 39q-163 0 -279 -70t-206 -233h-4l49 282h-174l-191 -1079h189l75 444q13 91 55 178t105 156q138 152 322 152z" />
    <glyph glyph-name="Sacute" unicode="&#x15a;" 
d="M868 1694l246 272h-276l-142 -272h172zM244 438l-178 2q-11 -233 139 -358q139 -115 383 -115q261 0 418 129q163 134 163 357q0 157 -75 243t-263 152l-186 67q-112 41 -153 84q-60 63 -60 166q0 128 98 203q86 68 230 68q162 0 241.5 -77.5t77.5 -213.5h181
q9 215 -127 332q-128 110 -367 110q-235 0 -377 -123q-143 -124 -143 -321q0 -160 86 -252q76 -81 229 -137l195 -72q122 -46 172.5 -100.5t50.5 -151.5q0 -152 -119 -233q-109 -74 -256 -74q-363 0 -360 315z" />
    <glyph glyph-name="sacute" unicode="&#x15b;" 
d="M803 1247l307 367h-276l-189 -367h158zM934 778h172q3 163 -115 250q-106 76 -282 76q-196 0 -308 -94q-100 -87 -100 -222q0 -126 76 -196q69 -66 184 -94l146 -39q88 -24 130 -60.5t42 -95.5q0 -95 -72.5 -140.5t-200.5 -45.5q-146 0 -213 57q-57 46 -57 137h-170
q-10 -160 106.5 -249t331.5 -89q226 0 344 105q107 91 107 241q0 122 -70.5 186t-230.5 107l-113 31q-88 25 -126 59t-38 91q0 82 58 126t170 44q107 0 166 -47t63 -138z" />
    <glyph glyph-name="Scircumflex" unicode="&#x15c;" 
d="M721 1966l-246 -272h180l160 135h6l115 -135h170l-152 272h-233zM244 438l-178 2q-11 -233 139 -358q139 -115 383 -115q261 0 418 129q163 134 163 357q0 157 -75 243t-263 152l-186 67q-112 41 -153 84q-60 63 -60 166q0 128 98 203q86 68 230 68q162 0 241.5 -77.5
t77.5 -213.5h181q9 215 -127 332q-128 110 -367 110q-235 0 -377 -123q-143 -124 -143 -321q0 -160 86 -252q76 -81 229 -137l195 -72q122 -46 172.5 -100.5t50.5 -151.5q0 -152 -119 -233q-109 -74 -256 -74q-363 0 -360 315z" />
    <glyph glyph-name="scircumflex" unicode="&#x15d;" 
d="M713 1614l-269 -367h166l181 201h2l122 -201h156l-156 367h-202zM934 778h172q3 163 -115 250q-106 76 -282 76q-196 0 -308 -94q-100 -87 -100 -222q0 -126 76 -196q69 -66 184 -94l146 -39q88 -24 130 -60.5t42 -95.5q0 -95 -72.5 -140.5t-200.5 -45.5q-146 0 -213 57
q-57 46 -57 137h-170q-10 -160 106.5 -249t331.5 -89q226 0 344 105q107 91 107 241q0 122 -70.5 186t-230.5 107l-113 31q-88 25 -126 59t-38 91q0 82 58 126t170 44q107 0 166 -47t63 -138z" />
    <glyph glyph-name="Scedilla" unicode="&#x15e;" 
d="M522 -436q111 0 175.5 54t64.5 142q0 74 -47.5 115t-139.5 41h-45l33 51h25q261 0 418 129q163 134 163 357q0 157 -75 243t-263 152l-186 67q-112 41 -153 84q-60 63 -60 166q0 128 98 203q86 68 230 68q162 0 241.5 -77.5t77.5 -213.5h181q9 215 -127 332
q-128 110 -367 110q-235 0 -377 -123q-143 -124 -143 -321q0 -160 86 -252q76 -81 229 -137l195 -72q122 -46 172.5 -100.5t50.5 -151.5q0 -152 -119 -233q-109 -74 -256 -74q-363 0 -360 315l-178 2q-12 -206 102 -323q108 -114 295 -142l-119 -188h141q27 27 68 27
q65 0 65 -64q0 -76 -81 -76q-30 0 -51.5 13.5t-22.5 36.5h-150q-10 -73 47.5 -116.5t161.5 -43.5z" />
    <glyph glyph-name="scedilla" unicode="&#x15f;" 
d="M530 -436q111 0 175.5 54t64.5 142q0 74 -47 115t-139 41h-45l36 57h29q226 0 344 105q107 91 107 241q0 122 -70.5 186t-230.5 107l-113 31q-88 25 -126 59t-38 91q0 82 58 126t170 44q107 0 166 -47t63 -138h172q3 163 -115 250q-106 76 -282 76q-196 0 -308 -94
q-100 -87 -100 -222q0 -126 76 -196q69 -66 184 -94l146 -39q88 -24 130 -60.5t42 -95.5q0 -95 -72.5 -140.5t-200.5 -45.5q-146 0 -213 57q-57 46 -57 137h-170q-7 -134 74 -219t237 -108l-125 -197h142q27 27 67 27q66 0 66 -64q0 -76 -82 -76q-30 0 -51.5 13.5
t-22.5 36.5h-149q-10 -73 47 -116.5t161 -43.5z" />
    <glyph glyph-name="Scaron" unicode="&#x160;" 
d="M899 1694l246 272h-180l-160 -135h-6l-115 135h-170l152 -272h233zM244 438l-178 2q-11 -233 139 -358q139 -115 383 -115q261 0 418 129q163 134 163 357q0 157 -75 243t-263 152l-186 67q-112 41 -153 84q-60 63 -60 166q0 128 98 203q86 68 230 68q162 0 241.5 -77.5
t77.5 -213.5h181q9 215 -127 332q-128 110 -367 110q-235 0 -377 -123q-143 -124 -143 -321q0 -160 86 -252q76 -81 229 -137l195 -72q122 -46 172.5 -100.5t50.5 -151.5q0 -152 -119 -233q-109 -74 -256 -74q-363 0 -360 315z" />
    <glyph glyph-name="scaron" unicode="&#x161;" 
d="M842 1247l268 367h-166l-180 -201h-2l-123 201h-156l156 -367h203zM934 778h172q3 163 -115 250q-106 76 -282 76q-196 0 -308 -94q-100 -87 -100 -222q0 -126 76 -196q69 -66 184 -94l146 -39q88 -24 130 -60.5t42 -95.5q0 -95 -72.5 -140.5t-200.5 -45.5
q-146 0 -213 57q-57 46 -57 137h-170q-10 -160 106.5 -249t331.5 -89q226 0 344 105q107 91 107 241q0 122 -70.5 186t-230.5 107l-113 31q-88 25 -126 59t-38 91q0 82 58 126t170 44q107 0 166 -47t63 -138z" />
    <glyph glyph-name="Tcaron" unicode="&#x164;" 
d="M967 1694l245 272h-180l-160 -135h-6l-114 135h-170l151 -272h234zM238 1567l-29 -162h502l-248 -1405h190l248 1405h502l29 162h-1194z" />
    <glyph glyph-name="tcaron" unicode="&#x165;" 
d="M1051 1196l233 418h-231l-121 -418h119zM555 926l-98 -564q-35 -205 47 -296t293 -91q103 0 221 41l26 152q-110 -35 -223 -35q-114 0 -155 41q-53 47 -31 180l102 572h443l26 153h-442l59 332h-170l-39 -219q-10 -63 -40 -88t-93 -25h-270l-27 -153h371z" />
    <glyph glyph-name="Tbar" unicode="&#x166;" 
d="M1153 858l27 154h-349l70 393h502l29 162h-1194l-29 -162h502l-70 -393h-348l-27 -154h348l-151 -858h190l152 858h348z" />
    <glyph glyph-name="tbar" unicode="&#x167;" 
d="M1018 16l26 152q-110 -35 -223 -35q-114 0 -155 41q-53 47 -31 180l29 160h444l27 145h-445l47 267h443l26 153h-442l59 332h-170l-39 -219q-10 -63 -40 -88t-93 -25h-270l-27 -153h371l-47 -267h-369l-26 -145h370l-26 -152q-35 -205 47 -296t293 -91q103 0 221 41z" />
    <glyph glyph-name="Utilde" unicode="&#x168;" 
d="M510 1694h145q13 116 97 116q11 0 22 -2.5t25 -9.5t21 -11t26 -16.5t24 -15.5q84 -55 150 -55q112 0 172.5 76t71.5 202h-146q-14 -120 -92 -120q-18 0 -40.5 10t-34.5 17.5t-42 29.5q-82 55 -153 55q-113 0 -175.5 -76t-70.5 -200zM328 1567l-181 -1006
q-58 -313 80 -461q120 -131 371 -131q246 0 381 121.5t180 376.5l195 1100h-187l-196 -1104q-26 -159 -107 -242q-93 -96 -256 -96q-176 0 -242.5 103t-25.5 331l178 1008h-190z" />
    <glyph glyph-name="utilde" unicode="&#x169;" 
d="M438 1284h148q15 127 90 127q18 0 40.5 -10t35.5 -18.5t43 -30.5q83 -60 157 -60q112 0 172 86q51 73 64 203h-148q-15 -127 -88 -127q-18 0 -40.5 10t-37.5 20t-45 32q-86 59 -155 59q-109 0 -172 -86q-54 -74 -64 -205zM315 1079l-120 -688q-36 -210 47 -317
q79 -101 250 -101q130 0 231 80q69 55 123 148h8l-37 -201h174l191 1079h-185l-92 -528q-35 -201 -128.5 -313.5t-223.5 -112.5q-121 0 -159 65t-13 209l119 680h-185z" />
    <glyph glyph-name="Umacron" unicode="&#x16a;" 
d="M1188 1733l29 170h-652l-28 -170h651zM328 1567l-181 -1006q-58 -313 80 -461q120 -131 371 -131q246 0 381 121.5t180 376.5l195 1100h-187l-196 -1104q-26 -159 -107 -242q-93 -96 -256 -96q-176 0 -242.5 103t-25.5 331l178 1008h-190z" />
    <glyph glyph-name="umacron" unicode="&#x16b;" 
d="M1108 1303l31 170h-652l-30 -170h651zM315 1079l-120 -688q-36 -210 47 -317q79 -101 250 -101q130 0 231 80q69 55 123 148h8l-37 -201h174l191 1079h-185l-92 -528q-35 -201 -128.5 -313.5t-223.5 -112.5q-121 0 -159 65t-13 209l119 680h-185z" />
    <glyph glyph-name="Ubreve" unicode="&#x16c;" 
d="M737 1987h-153q-12 -141 75 -215q81 -72 218 -72q128 0 218 72t124 215h-158q-23 -68 -72 -103t-117 -35q-57 0 -94 36t-41 102zM328 1567l-181 -1006q-58 -313 80 -461q120 -131 371 -131q246 0 381 121.5t180 376.5l195 1100h-187l-196 -1104q-26 -159 -107 -242
q-93 -96 -256 -96q-176 0 -242.5 103t-25.5 331l178 1008h-190z" />
    <glyph glyph-name="ubreve" unicode="&#x16d;" 
d="M647 1589h-149q-32 -161 57 -254q79 -82 225 -82q141 0 232 82q100 87 123 254h-154q-33 -184 -199 -184q-69 0 -108 47.5t-27 136.5zM315 1079l-120 -688q-36 -210 47 -317q79 -101 250 -101q130 0 231 80q69 55 123 148h8l-37 -201h174l191 1079h-185l-92 -528
q-35 -201 -128.5 -313.5t-223.5 -112.5q-121 0 -159 65t-13 209l119 680h-185z" />
    <glyph glyph-name="Uring" unicode="&#x16e;" 
d="M606 1849q0 -105 67 -170.5t179 -66.5q123 0 205 82q80 80 80 196q0 107 -67.5 175.5t-180.5 68.5q-122 0 -203 -84q-80 -80 -80 -201zM733 1864q0 67 41.5 113t106.5 46q59 0 94 -40.5t35 -102.5q0 -67 -42.5 -112.5t-107.5 -45.5q-59 0 -93 39.5t-34 102.5zM328 1567
l-181 -1006q-58 -313 80 -461q120 -131 371 -131q246 0 381 121.5t180 376.5l195 1100h-187l-196 -1104q-26 -159 -107 -242q-93 -96 -256 -96q-176 0 -242.5 103t-25.5 331l178 1008h-190z" />
    <glyph glyph-name="uring" unicode="&#x16f;" 
d="M526 1430q0 -105 67 -171t179 -67q123 0 205 82q80 80 80 196q0 107 -67.5 175.5t-180.5 68.5q-122 0 -203 -84q-80 -80 -80 -200zM780 1303q-59 0 -93 39t-34 102q0 67 41.5 113.5t106.5 46.5q59 0 94 -41t35 -103q0 -67 -42.5 -112t-107.5 -45zM315 1079l-120 -688
q-36 -210 47 -317q79 -101 250 -101q130 0 231 80q69 55 123 148h8l-37 -201h174l191 1079h-185l-92 -528q-35 -201 -128.5 -313.5t-223.5 -112.5q-121 0 -159 65t-13 209l119 680h-185z" />
    <glyph glyph-name="Uhungarumlaut" unicode="&#x170;" 
d="M752 1694l176 272h-232l-104 -272h160zM1081 1694l176 272h-231l-104 -272h159zM328 1567l-181 -1006q-58 -313 80 -461q120 -131 371 -131q246 0 381 121.5t180 376.5l195 1100h-187l-196 -1104q-26 -159 -107 -242q-93 -96 -256 -96q-176 0 -242.5 103t-25.5 331
l178 1008h-190z" />
    <glyph glyph-name="uhungarumlaut" unicode="&#x171;" 
d="M678 1247l260 367h-229l-183 -367h152zM993 1247l260 367h-229l-182 -367h151zM315 1079l-120 -688q-36 -210 47 -317q79 -101 250 -101q130 0 231 80q69 55 123 148h8l-37 -201h174l191 1079h-185l-92 -528q-35 -201 -128.5 -313.5t-223.5 -112.5q-121 0 -159 65
t-13 209l119 680h-185z" />
    <glyph glyph-name="Uogonek" unicode="&#x172;" 
d="M588 -162q0 118 149 142q178 29 281 148t141 339l195 1100h-187l-196 -1104q-26 -159 -107 -242q-93 -96 -256 -96q-176 0 -242.5 103t-25.5 331l178 1008h-190l-181 -1006q-54 -294 66 -444q104 -130 326 -146v-6q-129 -53 -129 -184q0 -166 229 -166h37l26 143
q-114 0 -114 80z" />
    <glyph glyph-name="uogonek" unicode="&#x173;" 
d="M924 -385l26 143q-114 0 -114 80q0 49 38.5 84.5t116.5 77.5l191 1079h-185l-92 -528q-35 -201 -128.5 -313.5t-223.5 -112.5q-121 0 -159 65t-13 209l119 680h-185l-120 -688q-36 -210 47 -317q79 -101 250 -101q130 0 231 80q69 55 123 148h8l-37 -201h57
q-114 -49 -165.5 -99t-51.5 -120q0 -166 230 -166h37z" />
    <glyph glyph-name="Wcircumflex" unicode="&#x174;" 
d="M772 1966l-246 -272h181l159 135h6l115 -135h170l-151 272h-234zM354 0l295 766q23 54 53 156l25 75h10q-1 -13 -2 -37t-2 -36q-3 -68 0 -158l33 -766h260l379 1567h-176l-322 -1364h-16q0 55 2 88q0 59 2 96q0 76 -2 117l-25 735h-184l-307 -786q-35 -80 -64 -179
q-3 -11 -11 -34.5t-11 -36.5h-12l161 1364h-174l-174 -1567h262z" />
    <glyph glyph-name="wcircumflex" unicode="&#x175;" 
d="M727 1614l-268 -367h166l180 201h2l123 -201h155l-155 367h-203zM387 0l238 614q26 61 55 164l25 84h12q-1 -14 -2 -42t-2 -42q-4 -103 -2 -164l20 -614h211l383 1079h-168l-242 -721q-4 -10 -16 -55q-16 -60 -16 -61l-9 -39t-8 -33h-12q1 12 2 36t2 36q4 78 4 116
l-20 721h-183l-278 -721q-12 -28 -19 -55q-26 -91 -34 -133h-13l7 70q8 52 8 120l6 719h-164l6 -1079h209z" />
    <glyph glyph-name="Ycircumflex" unicode="&#x176;" 
d="M774 1966l-246 -272h181l159 135h6l115 -135h170l-151 272h-234zM657 0l117 668l641 899h-207l-497 -721h-4l-252 721h-199l330 -905l-117 -662h188z" />
    <glyph glyph-name="ycircumflex" unicode="&#x177;" 
d="M680 1614l-268 -367h166l180 201h2l123 -201h155l-155 367h-203zM459 0l-64 -100q-51 -82 -105.5 -117t-133.5 -35q-96 0 -197 37l-43 -145q110 -46 225 -46q138 0 234.5 58.5t179.5 200.5l694 1226h-196l-377 -692q-29 -52 -37 -70q-21 -40 -51 -112h-8l-7 53
q-4 34 -22 125l-150 696h-184z" />
    <glyph glyph-name="Ydieresis" unicode="&#x178;" 
d="M754 1694l47 264h-266l-48 -264h267zM1194 1694l47 264h-264l-47 -264h264zM657 0l117 668l641 899h-207l-497 -721h-4l-252 721h-199l330 -905l-117 -662h188z" />
    <glyph glyph-name="Zacute" unicode="&#x179;" 
d="M909 1694l246 272h-276l-142 -272h172zM1100 1403l-1041 -1258l-26 -145h1073l29 164h-838l1042 1257l27 146h-1026l-29 -164h789z" />
    <glyph glyph-name="zacute" unicode="&#x17a;" 
d="M799 1247l307 367h-277l-188 -367h158zM934 928l-817 -776l-27 -152h930l27 150h-707l817 772l29 157h-887l-27 -151h662z" />
    <glyph glyph-name="Zdotaccent" unicode="&#x17b;" 
d="M973 1688l49 274h-274l-50 -274h275zM1100 1403l-1041 -1258l-26 -145h1073l29 164h-838l1042 1257l27 146h-1026l-29 -164h789z" />
    <glyph glyph-name="zdotaccent" unicode="&#x17c;" 
d="M872 1282l50 274h-275l-49 -274h274zM934 928l-817 -776l-27 -152h930l27 150h-707l817 772l29 157h-887l-27 -151h662z" />
    <glyph glyph-name="Zcaron" unicode="&#x17d;" 
d="M956 1694l246 272h-180l-160 -135h-6l-115 135h-170l152 -272h233zM1100 1403l-1041 -1258l-26 -145h1073l29 164h-838l1042 1257l27 146h-1026l-29 -164h789z" />
    <glyph glyph-name="zcaron" unicode="&#x17e;" 
d="M842 1247l268 367h-166l-180 -201h-2l-123 201h-156l156 -367h203zM934 928l-817 -776l-27 -152h930l27 150h-707l817 772l29 157h-887l-27 -151h662z" />
    <glyph glyph-name="florin" unicode="&#x192;" 
d="M1219 748l26 153h-457l76 307q38 153 107 209q53 45 151 45q84 0 213 -37l25 148q-122 45 -234 45q-178 0 -274 -74q-111 -85 -166 -307l-82 -336h-436l-25 -153h424l-274 -1133h180l279 1133h467z" />
    <glyph glyph-name="Aringacute" unicode="&#x1fa;" 
d="M1001 2179l246 272h-276l-142 -272h172zM614 1849q0 -105 67 -170.5t179 -66.5q123 0 205 82q80 80 80 196q0 107 -67.5 175.5t-180.5 68.5q-122 0 -203 -84q-80 -80 -80 -201zM741 1864q0 67 41.5 113t106.5 46q59 0 94 -40.5t35 -102.5q0 -67 -42.5 -112.5
t-107.5 -45.5q-59 0 -93 39.5t-34 102.5zM1145 0l-184 1567h-248l-729 -1567h194l211 467h506l49 -467h201zM809 1397l6 -101q1 -14 4 -44t4 -46l6 -84l52 -501h-422l225 501q19 43 33 80l63 160q9 31 13 35h16z" />
    <glyph glyph-name="aringacute" unicode="&#x1fb;" 
d="M922 1755l245 273h-276l-141 -273h172zM522 1409q0 -105 67 -171t179 -67q123 0 205 82q80 80 80 197q0 107 -67.5 175.5t-180.5 68.5q-122 0 -203 -84q-80 -80 -80 -201zM776 1282q-59 0 -93 39t-34 102q0 67 41.5 113.5t106.5 46.5q59 0 94 -40.5t35 -102.5
q0 -67 -42.5 -112.5t-107.5 -45.5zM844 176v-8q0 -168 186 -168h68l24 150h-51q-79 0 -61 83l80 447q35 192 -60 307q-101 119 -315 119q-189 0 -312 -92q-115 -86 -124 -236h178q10 93 76 140t167 47q264 0 215 -271l-8 -43q-175 0 -241 -6q-76 -7 -189 -24
q-147 -27 -233 -113t-86 -223q0 -146 90 -223.5t246 -77.5q228 0 344 192h6zM887 520l-13 -65q-27 -143 -118 -234q-95 -92 -224 -92q-94 0 -140 40.5t-46 131.5q0 132 143 178q122 41 398 41z" />
    <glyph glyph-name="AEacute" unicode="&#x1fc;" 
d="M1128 1694l246 272h-276l-142 -272h172zM639 467l-82 -467h643l29 166h-465l96 545h389l29 161h-389l94 529h455l28 166h-792l-785 -1567h187l231 467h332zM383 621l387 780h35l-139 -780h-283z" />
    <glyph glyph-name="aeacute" unicode="&#x1fd;" 
d="M864 1247l307 367h-276l-188 -367h157zM1202 283h-172q-14 -68 -47 -109q-43 -49 -127 -49q-112 0 -140 92.5t7 284.5h530l27 151q36 192 -31 320q-70 133 -241 133q-100 0 -170 -44t-107 -120h-8q-55 164 -262 164q-151 0 -250 -90q-102 -92 -105 -236h166
q7 80 52 131.5t131 51.5q90 0 127 -58t16 -153l-25 -113q-177 0 -256 -10q-87 -13 -161 -54q-87 -48 -129.5 -120.5t-42.5 -180.5q0 -132 76.5 -213t205.5 -81q216 0 303 202h6q23 -92 82 -143q72 -62 199 -62q134 0 225 76q98 82 121 230zM1106 639h-361q31 169 85 244
t149 75q102 0 131.5 -82t-4.5 -237zM303 123q-67 0 -105 43.5t-38 126.5q0 99 80 162q34 29 104 41q63 8 205 8l-12 -72q-24 -142 -74 -217q-60 -92 -160 -92z" />
    <glyph glyph-name="Oslashacute" unicode="&#x1fe;" 
d="M926 1694l245 272h-276l-141 -272h172zM1276 1044q0 189 -59 310l213 270h-156l-129 -166q-125 131 -346 131q-260 0 -430 -209q-138 -173 -205 -446q-51 -209 -51 -418q0 -175 55 -301l-209 -266h156l123 155q126 -137 352 -137q261 0 432 209q133 160 203 449
q51 209 51 419zM797 1434q165 0 235 -117l-725 -924q-6 46 -6 103q0 165 39 352q52 249 149 397q124 189 308 189zM592 123q-173 0 -242 127l729 928q8 -44 8 -111q0 -183 -36 -356q-50 -245 -152 -400q-123 -188 -307 -188z" />
    <glyph glyph-name="oslashacute" unicode="&#x1ff;" 
d="M817 1247l307 367h-276l-189 -367h158zM1165 674q0 148 -67 252l184 200h-162l-102 -112q-120 90 -307 90q-276 0 -430 -219q-67 -96 -101.5 -222t-34.5 -260q0 -157 76 -264l-178 -194h158l102 112q113 -84 295 -84q280 0 432 217q135 196 135 484zM707 963
q129 0 198 -72l-555 -610q-16 62 -16 118q0 206 78 363q100 201 295 201zM602 115q-122 0 -188 63l551 602q12 -46 12 -102q0 -206 -78 -363q-99 -200 -297 -200z" />
    <glyph glyph-name="Scommaaccent" unicode="&#x218;" 
d="M244 438l-178 2q-11 -233 139 -358q139 -115 383 -115q261 0 418 129q163 134 163 357q0 157 -75 243t-263 152l-186 67q-112 41 -153 84q-60 63 -60 166q0 128 98 203q86 68 230 68q162 0 241.5 -77.5t77.5 -213.5h181q9 215 -127 332q-128 110 -367 110
q-235 0 -377 -123q-143 -124 -143 -321q0 -160 86 -252q76 -81 229 -137l195 -72q122 -46 172.5 -100.5t50.5 -151.5q0 -152 -119 -233q-109 -74 -256 -74q-363 0 -360 315zM485 -414l238 305h-277l-118 -305h157z" />
    <glyph glyph-name="scommaaccent" unicode="&#x219;" 
d="M934 778h172q3 163 -115 250q-106 76 -282 76q-196 0 -308 -94q-100 -87 -100 -222q0 -126 76 -196q69 -66 184 -94l146 -39q88 -24 130 -60.5t42 -95.5q0 -95 -72.5 -140.5t-200.5 -45.5q-146 0 -213 57q-57 46 -57 137h-170q-10 -160 106.5 -249t331.5 -89
q226 0 344 105q107 91 107 241q0 122 -70.5 186t-230.5 107l-113 31q-88 25 -126 59t-38 91q0 82 58 126t170 44q107 0 166 -47t63 -138zM489 -414l238 305h-276l-119 -305h157z" />
    <glyph glyph-name="uni021A" unicode="&#x21a;" 
d="M238 1567l-29 -162h502l-248 -1405h190l248 1405h502l29 162h-1194zM440 -414l238 305h-277l-118 -305h157z" />
    <glyph glyph-name="uni021B" unicode="&#x21b;" 
d="M555 926l-98 -564q-35 -205 47 -296t293 -91q103 0 221 41l26 152q-110 -35 -223 -35q-114 0 -155 41q-53 47 -31 180l102 572h443l26 153h-442l59 332h-170l-39 -219q-10 -63 -40 -88t-93 -25h-270l-27 -153h371zM643 -414l238 305h-277l-119 -305h158z" />
    <glyph glyph-name="dotlessj" unicode="&#x237;" 
d="M152 -211l-43 -149q121 -48 237 -48q192 0 292 94t136 294l195 1099h-602l-27 -147h422l-164 -924q-25 -148 -74 -203q-51 -57 -170 -57q-104 0 -202 41z" />
    <glyph glyph-name="circumflex" unicode="&#x2c6;" 
d="M719 1614l-268 -367h165l181 201h2l123 -201h155l-155 367h-203z" />
    <glyph glyph-name="caron" unicode="&#x2c7;" 
d="M850 1247l268 367h-166l-180 -201h-2l-123 201h-155l155 -367h203z" />
    <glyph glyph-name="breve" unicode="&#x2d8;" 
d="M662 1589h-150q-32 -161 57 -254q79 -82 226 -82q140 0 231 82q100 87 123 254h-154q-33 -184 -198 -184q-69 0 -108 47.5t-27 136.5z" />
    <glyph glyph-name="dotaccent" unicode="&#x2d9;" 
d="M901 1282l49 274h-274l-49 -274h274z" />
    <glyph glyph-name="ring" unicode="&#x2da;" 
d="M539 1430q0 -105 66.5 -171t178.5 -67q123 0 205 82q80 80 80 196q0 107 -67.5 175.5t-180.5 68.5q-122 0 -203 -84q-79 -79 -79 -200zM793 1303q-59 0 -93 39t-34 102q0 67 41 113.5t106 46.5q59 0 94 -41t35 -103q0 -67 -42 -112t-107 -45z" />
    <glyph glyph-name="ogonek" unicode="&#x2db;" 
d="M793 0l-25 51q-165 -56 -237 -116t-72 -154q0 -166 229 -166h37l27 143q-115 0 -115 80q0 49 38.5 84.5t117.5 77.5z" />
    <glyph glyph-name="tilde" unicode="&#x2dc;" 
d="M420 1270h147q15 127 90 127q24 0 49.5 -13.5t60.5 -39.5q6 -5 9 -7q82 -59 158 -59q112 0 172 86q50 71 63 203h-147q-15 -127 -88 -127q-18 0 -40.5 9.5t-38 20t-44.5 31.5q-87 60 -156 60q-109 0 -172 -86q-53 -72 -63 -205z" />
    <glyph glyph-name="hungarumlaut" unicode="&#x2dd;" 
d="M606 1247l260 367h-229l-182 -367h151zM922 1247l260 367h-230l-182 -367h152z" />
    <glyph glyph-name="Wgrave" unicode="&#x1e80;" 
d="M547 1966l207 -272h166l-97 272h-276zM354 0l295 766q23 54 53 156l25 75h10q-1 -13 -2 -37t-2 -36q-3 -68 0 -158l33 -766h260l379 1567h-176l-322 -1364h-16q0 55 2 88q0 59 2 96q0 76 -2 117l-25 735h-184l-307 -786q-35 -80 -64 -179q-3 -11 -11 -34.5t-11 -36.5h-12
l161 1364h-174l-174 -1567h262z" />
    <glyph glyph-name="wgrave" unicode="&#x1e81;" 
d="M745 1614h-270l211 -367h158zM387 0l238 614q26 61 55 164l25 84h12q-1 -14 -2 -42t-2 -42q-4 -103 -2 -164l20 -614h211l383 1079h-168l-242 -721q-4 -10 -16 -55q-16 -60 -16 -61l-9 -39t-8 -33h-12q1 12 2 36t2 36q4 78 4 116l-20 721h-183l-278 -721q-12 -28 -19 -55
q-26 -91 -34 -133h-13l7 70q8 52 8 120l6 719h-164l6 -1079h209z" />
    <glyph glyph-name="Wacute" unicode="&#x1e82;" 
d="M934 1694l246 272h-277l-141 -272h172zM354 0l295 766q23 54 53 156l25 75h10q-1 -13 -2 -37t-2 -36q-3 -68 0 -158l33 -766h260l379 1567h-176l-322 -1364h-16q0 55 2 88q0 59 2 96q0 76 -2 117l-25 735h-184l-307 -786q-35 -80 -64 -179q-3 -11 -11 -34.5t-11 -36.5
h-12l161 1364h-174l-174 -1567h262z" />
    <glyph glyph-name="wacute" unicode="&#x1e83;" 
d="M846 1247l307 367h-276l-189 -367h158zM387 0l238 614q26 61 55 164l25 84h12q-1 -14 -2 -42t-2 -42q-4 -103 -2 -164l20 -614h211l383 1079h-168l-242 -721q-4 -10 -16 -55q-16 -60 -16 -61l-9 -39t-8 -33h-12q1 12 2 36t2 36q4 78 4 116l-20 721h-183l-278 -721
q-12 -28 -19 -55q-26 -91 -34 -133h-13l7 70q8 52 8 120l6 719h-164l6 -1079h209z" />
    <glyph glyph-name="Wdieresis" unicode="&#x1e84;" 
d="M756 1694l47 264h-266l-48 -264h267zM1196 1694l47 264h-264l-47 -264h264zM354 0l295 766q23 54 53 156l25 75h10q-1 -13 -2 -37t-2 -36q-3 -68 0 -158l33 -766h260l379 1567h-176l-322 -1364h-16q0 55 2 88q0 59 2 96q0 76 -2 117l-25 735h-184l-307 -786
q-35 -80 -64 -179q-3 -11 -11 -34.5t-11 -36.5h-12l161 1364h-174l-174 -1567h262z" />
    <glyph glyph-name="wdieresis" unicode="&#x1e85;" 
d="M688 1280l47 264h-266l-47 -264h266zM1128 1280l48 264h-265l-47 -264h264zM387 0l238 614q26 61 55 164l25 84h12q-1 -14 -2 -42t-2 -42q-4 -103 -2 -164l20 -614h211l383 1079h-168l-242 -721q-4 -10 -16 -55q-16 -60 -16 -61l-9 -39t-8 -33h-12q1 12 2 36t2 36
q4 78 4 116l-20 721h-183l-278 -721q-12 -28 -19 -55q-26 -91 -34 -133h-13l7 70q8 52 8 120l6 719h-164l6 -1079h209z" />
    <glyph glyph-name="Ygrave" unicode="&#x1ef2;" 
d="M555 1966l207 -272h166l-97 272h-276zM657 0l117 668l641 899h-207l-497 -721h-4l-252 721h-199l330 -905l-117 -662h188z" />
    <glyph glyph-name="ygrave" unicode="&#x1ef3;" 
d="M711 1614h-271l211 -367h158zM461 0l-64 -100q-51 -82 -105.5 -117t-133.5 -35q-96 0 -197 37l-43 -145q110 -46 225 -46q138 0 234.5 58.5t179.5 200.5l694 1226h-196l-377 -692q-29 -52 -37 -70q-21 -40 -51 -112h-8l-7 53q-4 34 -22 125l-150 696h-184z" />
    <glyph glyph-name="uni2009" unicode="&#x2009;" horiz-adv-x="0" 
 />
    <glyph glyph-name="endash" unicode="&#x2013;" 
d="M1055 594l26 149h-786l-27 -149h787z" />
    <glyph glyph-name="emdash" unicode="&#x2014;" 
d="M1317 594l26 149h-1310l-27 -149h1311z" />
    <glyph glyph-name="quoteleft" unicode="&#x2018;" 
d="M498 1032h295l204 535h-161z" />
    <glyph glyph-name="quoteright" unicode="&#x2019;" 
d="M1038 1567h-295l-204 -535h161z" />
    <glyph glyph-name="quotesinglbase" unicode="&#x201a;" 
d="M846 274h-295l-205 -534h162z" />
    <glyph glyph-name="quotedblleft" unicode="&#x201c;" 
d="M322 1032h294l205 535h-162zM735 1032h295l205 535h-162z" />
    <glyph glyph-name="quotedblright" unicode="&#x201d;" 
d="M842 1567h-295l-205 -535h162zM1255 1567h-294l-205 -535h162z" />
    <glyph glyph-name="quotedblbase" unicode="&#x201e;" 
d="M631 274h-295l-205 -534h162zM1040 274h-295l-204 -534h161z" />
    <glyph glyph-name="dagger" unicode="&#x2020;" 
d="M1198 905l27 156h-406l90 506h-170l-90 -506h-405l-27 -156h406l-189 -1069h170l189 1069h405z" />
    <glyph glyph-name="daggerdbl" unicode="&#x2021;" 
d="M1100 352l28 156h-405l74 418h405l27 155h-406l86 486h-170l-86 -486h-405l-27 -155h406l-74 -418h-406l-28 -156h405l-90 -516h170l90 516h406z" />
    <glyph glyph-name="bullet" unicode="&#x2022;" 
d="M653 385q104 0 172 68q72 69 72 178t-67 177.5t-175 68.5q-100 0 -170 -70q-71 -71 -71 -176q0 -111 67 -178.5t172 -67.5z" />
    <glyph glyph-name="ellipsis" unicode="&#x2026;" 
d="M256 0l49 274h-274l-49 -274h274zM696 0l49 274h-274l-49 -274h274zM1137 0l49 274h-275l-49 -274h275z" />
    <glyph glyph-name="perthousand" unicode="&#x2030;" 
d="M160 1141q0 -106 54.5 -164.5t152.5 -58.5q152 0 229 169q57 131 57 273q0 106 -54.5 164.5t-152.5 58.5q-154 0 -227 -168q-59 -129 -59 -274zM369 1024q-46 0 -64 29t-18 82q0 107 32 204q47 138 125 138q45 0 63.5 -28t18.5 -85q0 -102 -34 -203q-46 -137 -123 -137z
M1098 1061l24 145l-1059 -542l-24 -146zM424 -16q151 0 229 170q58 133 58 272q0 106 -54.5 164.5t-152.5 58.5q-155 0 -228 -168q-59 -129 -59 -274q0 -106 54.5 -164.5t152.5 -58.5zM975 -16q151 0 229 170q58 133 58 272q0 106 -54.5 164.5t-152.5 58.5q-155 0 -228 -168
q-59 -129 -59 -274q0 -106 54.5 -164.5t152.5 -58.5zM426 90q-46 0 -64 29t-18 82q0 105 33 205q46 137 125 137q45 0 63.5 -28t18.5 -85q0 -99 -35 -203q-46 -137 -123 -137zM977 90q-46 0 -64 29t-18 82q0 105 33 205q46 137 125 137q45 0 63.5 -28t18.5 -85
q0 -99 -35 -203q-46 -137 -123 -137z" />
    <glyph glyph-name="minute" unicode="&#x2032;" 
d="M737 958l285 609h-246l-188 -609h149z" />
    <glyph glyph-name="second" unicode="&#x2033;" 
d="M532 958l285 609h-246l-188 -609h149zM901 958l285 609h-246l-188 -609h149z" />
    <glyph glyph-name="guilsinglleft" unicode="&#x2039;" 
d="M780 950l-444 -411l342 -422h223l-321 413l440 420h-240z" />
    <glyph glyph-name="guilsinglright" unicode="&#x203a;" 
d="M524 117l453 422l-338 411h-223l317 -403l-448 -430h239z" />
    <glyph glyph-name="fraction" unicode="&#x2044;" 
d="M68 -82l1415 1679h-172l-1415 -1679h172z" />
    <glyph glyph-name="Euro" unicode="&#x20ac;" 
d="M1194 424h-180q-40 -131 -123 -211q-92 -92 -213 -92q-137 0 -200.5 94t-51.5 299h446l27 145h-457q3 18 9 51.5t8 43.5l18 92h455l24 145h-442q60 204 148 301t235 97q127 0 179 -76.5t38 -231.5h178q27 203 -75 330q-107 129 -304 129q-220 0 -359.5 -134t-225.5 -415
h-172l-25 -145h160q-3 -13 -8.5 -37t-8.5 -37q-11 -56 -18 -113h-158l-26 -145h170q-12 -286 104 -420q107 -127 324 -127q198 0 340 129q128 117 184 328z" />
    <glyph glyph-name="trademark" unicode="&#x2122;" 
d="M633 1466l16 101h-444l-17 -101h164l-100 -567h113l100 567h168zM731 899l92 522h8v-39q0 -42 9 -100l49 -383h96l182 385q17 30 25 55q25 59 33 82h8l-92 -522h114l117 668h-172l-194 -416q-22 -48 -31 -76l-10 -31h-7v31v35q0 27 -2 41l-49 416h-166l-116 -668h106z
" />
    <glyph glyph-name="uni2153" unicode="&#x2153;" horiz-adv-x="3932" 
d="M1051 662h-265l185 958h-135q-19 -98 -80 -150q-59 -47 -166 -47h-92l-23 -116h275l-125 -645h-269l-26 -136h694zM1393 -82l1415 1679h-172l-1415 -1679h172zM2951 406h109q180 0 180 -168q0 -92 -66.5 -151.5t-177.5 -59.5q-213 0 -213 200h-157q-9 -155 90 -241
q99 -90 272 -90q174 0 293 92q119 95 119 248q0 179 -170 229v10q105 22 171 90.5t66 179.5q0 132 -91.5 205.5t-244.5 73.5q-166 0 -276 -92q-107 -93 -119 -238h158q25 201 233 201q81 0 131 -42.5t50 -121.5q0 -88 -62 -139t-168 -51h-100z" />
    <glyph glyph-name="uni2154" unicode="&#x2154;" horiz-adv-x="3932" 
d="M418 1247h153q9 131 78 197q60 57 156 57q86 0 136 -47t50 -127q0 -88 -47.5 -153.5t-155.5 -147.5l-493 -373l-23 -127h781l24 140h-547v6q39 22 56 33l57 36q36 22 68 47l186 142q137 102 197.5 192t60.5 213q0 133 -91.5 215t-248.5 82q-175 0 -283 -102
q-114 -111 -114 -283zM1427 -82l1416 1679h-172l-1416 -1679h172zM2951 406h109q180 0 180 -168q0 -92 -66.5 -151.5t-177.5 -59.5q-213 0 -213 200h-157q-9 -155 90 -241q99 -90 272 -90q174 0 293 92q119 95 119 248q0 179 -170 229v10q105 22 171 90.5t66 179.5
q0 132 -91.5 205.5t-244.5 73.5q-166 0 -276 -92q-107 -93 -119 -238h158q25 201 233 201q81 0 131 -42.5t50 -121.5q0 -88 -62 -139t-168 -51h-100z" />
    <glyph glyph-name="oneeighth" unicode="&#x215b;" horiz-adv-x="3932" 
d="M1051 662h-265l185 958h-135q-19 -98 -80 -150q-59 -47 -166 -47h-92l-23 -116h275l-125 -645h-269l-26 -136h694zM1378 -82l1415 1679h-172l-1415 -1679h172zM3140 1026q-158 0 -269 -90q-112 -91 -112 -231q0 -159 129 -222v-4q-120 -25 -190 -102t-70 -195
q0 -136 96 -212t274 -76t297 92q121 93 121 250q0 83 -44.5 141t-119.5 84v4q98 31 159.5 103.5t61.5 174.5q0 126 -94 207q-92 76 -239 76zM3099 528q-81 0 -130 43t-49 125q0 89 56.5 146t156.5 57q75 0 127 -43t52 -115q0 -97 -57.5 -155t-155.5 -58zM3004 18
q-94 0 -151 43t-57 132q0 100 63 158.5t178 58.5q90 0 148 -41q63 -47 63 -138q0 -95 -64.5 -154t-179.5 -59z" />
    <glyph glyph-name="threeeighths" unicode="&#x215c;" horiz-adv-x="3932" 
d="M637 1014h108q91 0 136 -44t45 -124q0 -92 -66.5 -151.5t-177.5 -59.5q-213 0 -213 201h-158q-9 -156 90 -242q99 -90 273 -90t293 92q118 94 118 248q0 179 -170 229v10q105 22 171.5 91t66.5 180q0 132 -91.5 205t-244.5 73q-166 0 -276 -92q-107 -93 -119 -237h158
q25 200 233 200q81 0 130.5 -42.5t49.5 -121.5q0 -88 -61.5 -139t-167.5 -51h-100zM1378 -82l1415 1679h-172l-1415 -1679h172zM3140 1026q-158 0 -269 -90q-112 -91 -112 -231q0 -159 129 -222v-4q-120 -25 -190 -102t-70 -195q0 -136 96 -212t274 -76t297 92
q121 93 121 250q0 83 -44.5 141t-119.5 84v4q98 31 159.5 103.5t61.5 174.5q0 126 -94 207q-92 76 -239 76zM3099 528q-81 0 -130 43t-49 125q0 89 56.5 146t156.5 57q75 0 127 -43t52 -115q0 -97 -57.5 -155t-155.5 -58zM3004 18q-94 0 -151 43t-57 132q0 100 63 158.5
t178 58.5q90 0 148 -41q63 -47 63 -138q0 -95 -64.5 -154t-179.5 -59z" />
    <glyph glyph-name="fiveeighths" unicode="&#x215d;" horiz-adv-x="3932" 
d="M475 817h-164q-6 -149 88 -231t267 -82q196 0 319 123q117 120 117 301q0 144 -83 231.5t-224 87.5q-130 0 -220 -90h-4l80 313h490l26 148h-628l-146 -596h146q78 94 204 94q92 0 142.5 -54.5t50.5 -148.5q0 -115 -59 -188q-74 -88 -207 -88q-91 0 -143.5 45t-51.5 135z
M1378 -82l1415 1679h-172l-1415 -1679h172zM3140 1026q-158 0 -269 -90q-112 -91 -112 -231q0 -159 129 -222v-4q-120 -25 -190 -102t-70 -195q0 -136 96 -212t274 -76t297 92q121 93 121 250q0 83 -44.5 141t-119.5 84v4q98 31 159.5 103.5t61.5 174.5q0 126 -94 207
q-92 76 -239 76zM3099 528q-81 0 -130 43t-49 125q0 89 56.5 146t156.5 57q75 0 127 -43t52 -115q0 -97 -57.5 -155t-155.5 -58zM3004 18q-94 0 -151 43t-57 132q0 100 63 158.5t178 58.5q90 0 148 -41q63 -47 63 -138q0 -95 -64.5 -154t-179.5 -59z" />
    <glyph glyph-name="seveneighths" unicode="&#x215e;" horiz-adv-x="3932" 
d="M565 526l654 985l22 107h-792l-29 -150h594l-633 -942h184zM1235 -82l1415 1679h-172l-1415 -1679h172zM3119 1026q-157 0 -268 -90q-113 -92 -113 -231q0 -159 129 -222v-4q-120 -25 -190 -102t-70 -195q0 -136 96 -212t275 -76q178 0 297 92q121 93 121 250
q0 83 -44.5 141t-119.5 84v4q98 31 159.5 103.5t61.5 174.5q0 126 -94 207q-92 76 -240 76zM3078 528q-81 0 -129.5 43t-48.5 125q0 89 56.5 146t156.5 57q75 0 126.5 -43t51.5 -115q0 -97 -57.5 -155t-155.5 -58zM2984 18q-94 0 -151.5 43t-57.5 132q0 100 63.5 158.5
t178.5 58.5q89 0 147 -41q64 -48 64 -138q0 -95 -64.5 -154t-179.5 -59z" />
    <glyph glyph-name="minus" unicode="&#x2212;" 
d="M1169 651l33 162h-930l-32 -162h929z" />
    <glyph glyph-name="approxequal" unicode="&#x2248;" 
d="M274 758h150q4 62 31.5 91.5t64.5 29.5q12 0 25.5 -2.5t35 -10t32.5 -12t42.5 -17t40.5 -16.5q146 -59 215 -59q112 0 184 74.5t72 201.5h-149q-4 -63 -30.5 -93t-65.5 -30q-33 0 -172 60q-137 59 -218 59q-111 0 -182 -71q-76 -79 -76 -205zM457 547q12 0 25.5 -2.5
t35 -10t32.5 -12t42.5 -17t40.5 -16.5q146 -59 215 -59q112 0 184 74.5t72 202.5h-150q-4 -63 -30.5 -93t-65.5 -30q-35 0 -172 59t-217 59q-111 0 -182 -71q-76 -79 -76 -205h149q4 62 32 91.5t65 29.5z" />
    <glyph glyph-name="notequal" unicode="&#x2260;" 
d="M1130 469l31 156h-448l145 215h344l31 155h-268l165 246h-161l-166 -246h-500l-31 -155h424l-145 -215h-320l-30 -156h243l-165 -246h161l166 246h524z" />
    <glyph glyph-name="lessequal" unicode="&#x2264;" 
d="M1118 432l-651 352l790 342l31 185l-1028 -455l-24 -119l849 -469zM1065 158h-930l-33 -158h930z" />
    <glyph glyph-name="greaterequal" unicode="&#x2265;" 
d="M322 1133l651 -353l-791 -342l-30 -186l1028 455l24 118l-850 469zM1067 158h-930l-33 -158h930z" />
    <glyph glyph-name="uni24C5" unicode="&#x24c5;" 
d="M170 958l-31 -163q-26 -146 -26 -258q5 -279 132 -423.5t371 -144.5q252 0 406 174q145 164 199 459l30 164q25 128 25 246q0 274 -127.5 424.5t-376.5 150.5q-248 0 -403 -172q-144 -161 -199 -457zM264 780l29 150q47 251 147 383q126 162 338 162q189 0 283 -127
q88 -122 88 -324q0 -101 -25 -244l-26 -149q-47 -255 -148 -385q-128 -164 -340 -164q-189 0 -282 129q-88 119 -88 321q0 116 24 248zM596 668h106q142 0 228 77q90 80 90 224q0 114 -78 182q-68 59 -178 59h-215l-152 -860h144zM672 1096h78q62 0 96.5 -35t34.5 -100
q0 -179 -183 -179h-82z" />
    <glyph glyph-name="uniE401" unicode="&#xe401;" 
d="M575 -33q243 0 408 197q132 157 203 432q53 212 53 434q0 249 -111.5 379.5t-310.5 130.5q-244 0 -409 -197q-133 -159 -201 -430q-55 -212 -55 -436q0 -240 106.5 -375t316.5 -135zM1057 1040l-713 -393q34 289 133 486q128 251 324 251q139 0 205 -106q51 -86 51 -234
v-4zM332 467l712 393q-33 -279 -133 -481q-129 -256 -315 -256q-145 0 -211 106q-53 81 -53 234v4z" />
    <glyph glyph-name="uniF8FF" unicode="&#xf8ff;" 
d="M1327 1024q0 119 -45.5 226t-126.5 188q-81 80 -188 124t-226 44t-225 -44t-186 -124q-81 -81 -126.5 -188t-45.5 -226t45.5 -224.5t126.5 -185.5q80 -81 186 -126.5t225 -45.5t226 45.5t188 126.5q81 80 126.5 185.5t45.5 224.5zM492 1325h-203q67 99 167 163t220 81
q-111 -80 -184 -244zM1196 1325h-205q-65 154 -184 244q117 -13 219.5 -78t169.5 -166zM721 1325h-186q67 157 186 238v-238zM762 1325v238q63 -44 107.5 -99.5t78.5 -138.5h-186zM438 1042h-239q6 136 67 246h213q-38 -116 -41 -246zM721 1042h-242q3 131 43 246h199v-246z
M762 1288h199q40 -112 43 -246h-242v246zM1286 1042h-242q-3 143 -40 246h215q58 -110 67 -246zM479 760h-213q-61 110 -67 246h239q3 -137 41 -246zM721 760h-199q-40 115 -43 246h242v-246zM762 1006h242q-3 -139 -43 -246h-199v246zM1219 760h-215q37 106 40 246h242
q-9 -135 -67 -246zM680 479q-120 13 -221.5 78t-169.5 166h205q59 -144 186 -244zM721 723v-236q-119 83 -184 236h184zM762 723h184q-66 -156 -184 -236v236zM803 479q120 90 186 244h207q-67 -99 -173 -165.5t-220 -78.5z" />
    <glyph glyph-name="f_i" unicode="&#xfb01;" horiz-adv-x="2621" 
d="M1206 926l27 153h-422l33 185q19 105 75.5 152.5t161.5 47.5q110 0 215 -30l25 145q-104 39 -238 39q-171 0 -274 -70q-111 -77 -145 -254l-39 -215h-387l-27 -153h387l-164 -926h187l163 926h422zM2226 1282l49 274h-274l-49 -274h274zM2406 154h-403l164 925h-514
l-27 -147h334l-137 -778h-393l-27 -154h977z" />
    <glyph glyph-name="f_l" unicode="&#xfb02;" horiz-adv-x="2621" 
d="M1206 926l27 153h-422l33 185q19 105 75.5 152.5t161.5 47.5q110 0 215 -30l25 145q-104 39 -238 39q-171 0 -274 -70q-111 -77 -145 -254l-39 -215h-387l-27 -153h387l-164 -926h187l163 926h422zM2406 154h-401l258 1460h-537l-26 -148h354l-231 -1312h-393l-27 -154
h977z" />
    <glyph glyph-name="IJ.alt01" horiz-adv-x="2621" 
d="M2300 1573l-199 -1120q-26 -147 -110 -222t-248 -75q-157 0 -313 39l-31 -172q164 -37 315 -37q496 0 576 454l200 1133h-190zM1260 1413l26 154h-901l-27 -154h357l-223 -1259h-357l-26 -154h901l26 154h-356l223 1259h357z" />
    <glyph glyph-name="J.alt01" 
d="M989 1567l-198 -1121q-26 -147 -110.5 -221.5t-248.5 -74.5q-161 0 -313 38l-31 -172q160 -36 315 -36q496 0 576 454l201 1133h-191z" />
    <glyph glyph-name="Jcircumflex.alt01" 
d="M1014 1966l-246 -272h180l160 135h6l115 -135h170l-152 272h-233zM989 1567l-198 -1121q-26 -147 -110.5 -221.5t-248.5 -74.5q-161 0 -313 38l-31 -172q160 -36 315 -36q496 0 576 454l201 1133h-191z" />
    <glyph glyph-name="Q.old" 
d="M1051 -123l-117 219q126 106 209 287q72 164 104 346q29 167 29 307q0 304 -141 439q-119 114 -336 114q-260 0 -430 -209q-138 -173 -205 -446q-51 -209 -51 -418q0 -301 139 -434q118 -115 334 -115q113 0 207 43l110 -205zM305 502q0 160 37 350q48 245 147 393
q120 185 306 185q141 0 214.5 -89t73.5 -286q0 -188 -45 -398q-64 -280 -184 -411l-106 200l-146 -75l119 -224q-61 -22 -121 -22q-145 0 -220 89.5t-75 287.5z" />
    <glyph glyph-name="i.loclTRK" 
d="M915 1282l50 274h-275l-49 -274h274zM1096 154h-404l164 925h-514l-27 -147h334l-137 -778h-393l-27 -154h977z" />
    <glyph glyph-name="f.alt01" 
d="M1206 926l27 153h-422l37 211q17 95 65 135.5t129 40.5q73 0 142 -14l24 150q-75 16 -155 16q-149 0 -250 -76q-109 -82 -135 -237l-41 -226h-389l-27 -153h389l-164 -926h185l163 926h422z" />
    <glyph glyph-name="ij.alt01" horiz-adv-x="2621" 
d="M915 1282l50 274h-275l-49 -274h274zM2415 1556h-275l-47 -274h274zM1096 154h-404l164 925h-514l-27 -147h334l-137 -778h-393l-27 -154h977zM1698 -410q152 0 256 80q120 89 155 283l199 1126h-604l-27 -151h422l-170 -971q-22 -119 -86 -170q-53 -43 -135 -43
q-58 0 -117 12l-26 -151q77 -15 133 -15z" />
    <glyph glyph-name="j.alt01" 
d="M1104 1556h-275l-47 -274h275zM387 -410q152 0 256 80q121 90 156 283l198 1126h-604l-26 -151h421l-170 -971q-22 -119 -86 -170q-53 -43 -135 -43q-57 0 -116 12l-27 -151q77 -15 133 -15z" />
    <glyph glyph-name="dotlessj.alt01" 
d="M281 -244l-27 -151q77 -15 133 -15q152 0 256 80q121 90 156 283l198 1126h-604l-26 -151h421l-170 -971q-22 -119 -86 -170q-53 -43 -135 -43q-57 0 -116 12z" />
    <glyph glyph-name="jcircumflex.alt01" 
d="M805 1614l-268 -367h165l181 201h2l123 -201h155l-155 367h-203zM281 -244l-27 -151q77 -15 133 -15q152 0 256 80q121 90 156 283l198 1126h-604l-26 -151h421l-170 -971q-22 -119 -86 -170q-53 -43 -135 -43q-57 0 -116 12z" />
    <glyph glyph-name="t.alt01" 
d="M745 -20q70 0 140 20l26 145q-53 -12 -108 -12q-90 0 -131 41q-53 49 -33 156l104 596h443l26 153h-442l59 332h-170l-38 -219q-11 -63 -40.5 -88t-95.5 -25h-268l-27 -153h371l-100 -576q-32 -170 53 -276q76 -94 231 -94z" />
    <glyph glyph-name="tbar.alt01" 
d="M885 0l26 145q-53 -12 -108 -12q-90 0 -131 41q-53 49 -33 156l33 182h438l27 147h-441l47 267h443l26 153h-442l59 332h-170l-38 -219q-11 -63 -40.5 -88t-95.5 -25h-268l-27 -153h371l-47 -267h-373l-26 -147h374l-28 -162q-32 -170 53 -276q76 -94 231 -94
q70 0 140 20z" />
    <glyph glyph-name="tcaron.alt01" 
d="M1057 1196l233 418h-231l-121 -418h119zM745 -20q70 0 140 20l26 145q-53 -12 -108 -12q-90 0 -131 41q-53 49 -33 156l104 596h443l26 153h-442l59 332h-170l-38 -219q-11 -63 -40.5 -88t-95.5 -25h-268l-27 -153h371l-100 -576q-32 -170 53 -276q76 -94 231 -94z" />
    <glyph glyph-name="uni021B.alt01" 
d="M745 -20q70 0 140 20l26 145q-53 -12 -108 -12q-90 0 -131 41q-53 49 -33 156l104 596h443l26 153h-442l59 332h-170l-38 -219q-11 -63 -40.5 -88t-95.5 -25h-268l-27 -153h371l-100 -576q-32 -170 53 -276q76 -94 231 -94zM561 -414l238 305h-277l-119 -305h158z" />
    <glyph glyph-name="y.alt01" 
d="M459 0l-66 -106q-52 -86 -88 -113q-41 -33 -121 -33q-52 0 -108 12l-37 -147q67 -19 139 -19q135 0 215 56q76 53 139 170l717 1259h-196l-377 -692q-29 -52 -37 -70q-21 -40 -51 -112h-8l-7 53q-4 34 -22 125l-150 696h-184z" />
    <glyph glyph-name="yacute.alt01" 
d="M780 1247l307 367h-276l-188 -367h157zM459 0l-66 -106q-52 -86 -88 -113q-41 -33 -121 -33q-52 0 -108 12l-37 -147q67 -19 139 -19q135 0 215 56q76 53 139 170l717 1259h-196l-377 -692q-29 -52 -37 -70q-21 -40 -51 -112h-8l-7 53q-4 34 -22 125l-150 696h-184z" />
    <glyph glyph-name="ycircumflex.alt01" 
d="M680 1614l-268 -367h166l180 201h2l123 -201h155l-155 367h-203zM459 0l-66 -106q-52 -86 -88 -113q-41 -33 -121 -33q-52 0 -108 12l-37 -147q67 -19 139 -19q135 0 215 56q76 53 139 170l717 1259h-196l-377 -692q-29 -52 -37 -70q-21 -40 -51 -112h-8l-7 53
q-4 34 -22 125l-150 696h-184z" />
    <glyph glyph-name="ydieresis.alt01" 
d="M664 1282l47 264h-267l-47 -264h267zM1104 1282l47 264h-264l-47 -264h264zM459 0l-66 -106q-52 -86 -88 -113q-41 -33 -121 -33q-52 0 -108 12l-37 -147q67 -19 139 -19q135 0 215 56q76 53 139 170l717 1259h-196l-377 -692q-29 -52 -37 -70q-21 -40 -51 -112h-8l-7 53
q-4 34 -22 125l-150 696h-184z" />
    <glyph glyph-name="ygrave.alt01" 
d="M698 1614h-270l211 -367h158zM459 0l-66 -106q-52 -86 -88 -113q-41 -33 -121 -33q-52 0 -108 12l-37 -147q67 -19 139 -19q135 0 215 56q76 53 139 170l717 1259h-196l-377 -692q-29 -52 -37 -70q-21 -40 -51 -112h-8l-7 53q-4 34 -22 125l-150 696h-184z" />
    <glyph glyph-name="f_i.alt01" horiz-adv-x="2621" 
d="M1206 926l27 153h-422l37 211q17 95 65 135.5t129 40.5q73 0 142 -14l24 150q-75 16 -155 16q-149 0 -250 -76q-109 -82 -135 -237l-41 -226h-389l-27 -153h389l-164 -926h185l163 926h422zM2226 1282l49 274h-274l-49 -274h274zM2406 154h-403l164 925h-514l-27 -147
h334l-137 -778h-393l-27 -154h977z" />
    <glyph glyph-name="f_l.alt01" horiz-adv-x="2621" 
d="M1206 926l27 153h-422l37 211q17 95 65 135.5t129 40.5q73 0 142 -14l24 150q-75 16 -155 16q-149 0 -250 -76q-109 -82 -135 -237l-41 -226h-389l-27 -153h389l-164 -926h185l163 926h422zM2406 154h-401l258 1460h-537l-26 -148h354l-231 -1312h-393l-27 -154h977z" />
    <glyph glyph-name="zero.den" 
d="M567 -106q184 0 312 141q99 113 151 307q39 147 39 297q0 192 -93.5 288.5t-254.5 96.5q-185 0 -309 -141q-100 -110 -154 -305q-41 -147 -41 -299q0 -187 89 -286t261 -99zM573 27q-102 0 -147 75q-37 62 -37 162q0 113 31 256q35 160 102 256q77 115 191 115
q97 0 147 -74q37 -55 37 -162q0 -118 -29 -254q-32 -151 -102 -258q-79 -116 -193 -116z" />
    <glyph glyph-name="one.den" 
d="M948 53h-264l184 959h-135q-19 -98 -80 -150q-59 -47 -166 -47h-92l-22 -117h274l-125 -645h-268l-27 -135h695z" />
    <glyph glyph-name="two.den" 
d="M315 639h154q9 131 78 197q60 57 155 57q86 0 136.5 -47t50.5 -127q0 -88 -47.5 -153.5t-155.5 -147.5l-493 -373l-23 -127h780l25 139h-547v6q33 18 55 33l58 37q31 19 67 47l187 142q137 102 197.5 192t60.5 213q0 133 -91.5 215t-248.5 82q-175 0 -283 -102
q-115 -112 -115 -283z" />
    <glyph glyph-name="three.den" 
d="M535 406h108q180 0 180 -168q0 -92 -66 -151.5t-177 -59.5q-213 0 -213 200h-158q-9 -155 90 -241q99 -90 272 -90q174 0 293 92q119 95 119 248q0 179 -170 229v10q105 22 171.5 90.5t66.5 179.5q0 132 -91.5 205.5t-244.5 73.5q-167 0 -277 -92q-107 -93 -119 -238h158
q25 201 234 201q81 0 130.5 -42.5t49.5 -121.5q0 -88 -61.5 -139t-167.5 -51h-101z" />
    <glyph glyph-name="four.den" 
d="M1063 309h-168l123 701h-193l-624 -711l-21 -123h535l-47 -258h157l45 258h170zM375 309l313 359q40 44 60 69q48 63 75 109h13l-97 -537h-364z" />
    <glyph glyph-name="five.den" 
d="M373 209h-164q-6 -149 88 -231t266 -82q198 0 320 122q116 119 116 301q0 144 -83 232t-224 88q-129 0 -219 -90h-4l80 313h489l27 148h-629l-145 -596h145q78 94 205 94q92 0 142.5 -54.5t50.5 -148.5q0 -113 -60 -188q-74 -88 -207 -88q-90 0 -142.5 45t-51.5 135z" />
    <glyph glyph-name="six.den" 
d="M915 735h160q0 122 -84 203q-89 86 -241 86q-196 0 -328 -145q-105 -115 -156 -312q-41 -157 -41 -288q0 -171 88 -275q90 -110 275 -110q180 0 299 122q117 117 117 293q0 142 -84.5 227t-229.5 85q-90 0 -161 -36.5t-113 -101.5h-10q49 203 132 306.5t210 103.5
q75 0 120.5 -42.5t46.5 -115.5zM393 231q0 117 69 189t179 72q95 0 147 -52t52 -149q0 -106 -64 -182q-71 -84 -186 -84q-95 0 -146 56t-51 150z" />
    <glyph glyph-name="seven.den" 
d="M463 -82l653 985l23 107h-793l-29 -150h594l-632 -942h184z" />
    <glyph glyph-name="eight.den" 
d="M723 1026q-157 0 -268 -90q-113 -92 -113 -231q0 -159 129 -222v-4q-120 -25 -190 -102t-70 -195q0 -136 96 -212t275 -76q178 0 297 92q120 92 120 250q0 84 -44 141.5t-119 83.5v4q98 31 159.5 103.5t61.5 174.5q0 126 -94 207q-92 76 -240 76zM682 528
q-81 0 -129.5 43t-48.5 125q0 89 56.5 146t156.5 57q75 0 126.5 -43t51.5 -115q0 -97 -57.5 -155t-155.5 -58zM588 18q-94 0 -151.5 43t-57.5 132q0 100 63.5 158.5t178.5 58.5q89 0 147 -41q63 -47 63 -138q0 -95 -64 -154t-179 -59z" />
    <glyph glyph-name="nine.den" 
d="M528 -106q189 0 314 135q101 109 157 301q41 149 41 313q0 165 -84 268q-92 113 -270 113q-179 0 -291 -115q-110 -116 -110 -280q0 -142 86.5 -228t226.5 -86q174 0 266 136h6q-77 -426 -338 -426q-82 0 -127.5 40.5t-50.5 108.5h-151q5 -130 91.5 -205t233.5 -75z
M881 694q0 -105 -62 -176q-71 -78 -188 -78q-91 0 -140 53t-49 142q0 108 60 180q66 80 180 80q91 0 145 -55t54 -146z" />
    <glyph glyph-name="zero.num" 
d="M670 502q183 0 311 141q101 114 152 307q38 143 38 297q0 192 -93.5 288.5t-254.5 96.5q-185 0 -309 -141q-100 -110 -154 -305q-41 -147 -41 -299q0 -187 89.5 -286t261.5 -99zM676 635q-102 0 -148 76q-36 60 -36 161q0 118 30 256q34 158 103 256q77 115 190 115
q98 0 148 -74q36 -53 36 -161q0 -122 -28 -254q-32 -149 -103 -258q-80 -117 -192 -117z" />
    <glyph glyph-name="one.num" 
d="M1051 662h-265l185 958h-135q-19 -98 -80 -150q-59 -47 -166 -47h-92l-23 -116h275l-125 -645h-269l-26 -136h694z" />
    <glyph glyph-name="two.num" 
d="M418 1247h153q9 131 78 197q60 57 156 57q86 0 136 -47t50 -127q0 -88 -47.5 -153.5t-155.5 -147.5l-493 -373l-23 -127h781l24 140h-547v6q39 22 56 33l57 36q36 22 68 47l186 142q137 102 197.5 192t60.5 213q0 133 -91.5 215t-248.5 82q-175 0 -283 -102
q-114 -111 -114 -283z" />
    <glyph glyph-name="three.num" 
d="M637 1014h108q91 0 136 -44t45 -124q0 -92 -66.5 -151.5t-177.5 -59.5q-213 0 -213 201h-158q-9 -156 90 -242q99 -90 273 -90t293 92q118 94 118 248q0 179 -170 229v10q105 22 171.5 91t66.5 180q0 132 -91.5 205t-244.5 73q-166 0 -276 -92q-107 -93 -119 -237h158
q25 200 233 200q81 0 130.5 -42.5t49.5 -121.5q0 -88 -61.5 -139t-167.5 -51h-100z" />
    <glyph glyph-name="four.num" 
d="M1165 918h-168l123 700h-192l-625 -711l-20 -123h534l-47 -258h158l45 258h170zM477 918l314 358q28 31 59 70q55 71 76 108h12l-96 -536h-365z" />
    <glyph glyph-name="five.num" 
d="M475 817h-164q-6 -149 88 -231t267 -82q196 0 319 123q117 120 117 301q0 144 -83 231.5t-224 87.5q-130 0 -220 -90h-4l80 313h490l26 148h-628l-146 -596h146q78 94 204 94q92 0 142.5 -54.5t50.5 -148.5q0 -115 -59 -188q-74 -88 -207 -88q-91 0 -143.5 45t-51.5 135z
" />
    <glyph glyph-name="six.num" 
d="M1018 1343h160q0 122 -84 203q-89 86 -242 86q-196 0 -328 -145q-104 -114 -155 -311q-41 -157 -41 -289q0 -171 88 -275q90 -110 274 -110q179 0 299 123q117 117 117 293q0 142 -84 226.5t-229 84.5q-91 0 -162 -36.5t-113 -100.5h-10q49 203 131.5 306t210.5 103
q75 0 121 -42.5t47 -115.5zM496 840q0 117 68.5 188.5t178.5 71.5q95 0 147 -52t52 -149q0 -107 -63 -182q-71 -84 -187 -84q-95 0 -145.5 56t-50.5 151z" />
    <glyph glyph-name="seven.num" 
d="M565 526l654 985l22 107h-792l-29 -150h594l-633 -942h184z" />
    <glyph glyph-name="eight.num" 
d="M825 1634q-157 0 -268 -90q-113 -92 -113 -231q0 -158 129 -221v-5q-121 -25 -190.5 -101.5t-69.5 -194.5q0 -136 96.5 -212.5t274.5 -76.5t297 92q121 93 121 250q0 83 -44.5 141t-119.5 84v4q98 31 159.5 104t61.5 175q0 126 -94 207q-90 75 -240 75zM784 1137
q-81 0 -129.5 43t-48.5 125q0 89 56.5 145.5t156.5 56.5q75 0 126.5 -42.5t51.5 -114.5q0 -97 -57.5 -155t-155.5 -58zM690 627q-94 0 -151.5 42.5t-57.5 131.5q0 100 63.5 158.5t178.5 58.5q89 0 147 -41q64 -48 64 -137q0 -95 -64.5 -154t-179.5 -59z" />
    <glyph glyph-name="nine.num" 
d="M631 502q188 0 313 135q102 110 158 301q41 149 41 313q0 166 -84 269q-91 112 -271 112q-179 0 -290 -114q-111 -117 -111 -281q0 -142 86.5 -227.5t226.5 -85.5q176 0 267 135h6q-77 -426 -338 -426q-82 0 -127.5 40.5t-50.5 108.5h-152q5 -129 92 -204.5t234 -75.5z
M983 1303q0 -107 -61 -177q-70 -77 -189 -77q-91 0 -139.5 52.5t-48.5 141.5q0 109 59 180q66 80 180 80q91 0 145 -54.5t54 -145.5z" />
    <glyph glyph-name="zero.sub" 
d="M559 -188q183 0 311 141q101 114 152 307q39 147 39 297q0 192 -93.5 288.5t-254.5 96.5q-186 0 -310 -141q-98 -108 -153 -305q-41 -147 -41 -299q0 -187 89 -286t261 -99zM565 -55q-102 0 -147 75q-37 62 -37 162q0 113 31 256q35 160 102 256q77 115 191 115
q97 0 147 -74q37 -55 37 -162q0 -118 -29 -254q-32 -151 -102 -258q-79 -116 -193 -116z" />
    <glyph glyph-name="one.sub" 
d="M940 -29h-264l184 959h-135q-19 -98 -80 -150q-59 -47 -166 -47h-92l-22 -117h274l-125 -645h-268l-27 -135h694z" />
    <glyph glyph-name="two.sub" 
d="M307 557h154q9 131 78 197q60 57 155 57q86 0 136.5 -47t50.5 -127q0 -88 -47.5 -153.5t-155.5 -147.5l-494 -373l-22 -127h780l25 139h-547v7q42 23 55 32l57 37q36 22 68 47l186 142q137 102 197.5 192t60.5 213q0 133 -91 215t-248 82q-175 0 -283 -102
q-115 -112 -115 -283z" />
    <glyph glyph-name="three.sub" 
d="M526 324h109q180 0 180 -168q0 -92 -66.5 -151.5t-177.5 -59.5q-213 0 -213 200h-157q-9 -155 90 -241q99 -90 272 -90q174 0 293 92q119 95 119 248q0 179 -170 229v10q105 22 171 91t66 180q0 132 -91 205t-244 73q-167 0 -277 -92q-107 -93 -119 -238h158
q25 201 233 201q81 0 131 -42.5t50 -121.5q0 -88 -62 -139t-168 -51h-100z" />
    <glyph glyph-name="four.sub" 
d="M1055 227h-168l123 701h-193l-624 -711l-21 -123h535l-48 -258h158l45 258h170zM367 227l313 359q33 36 59 69q52 68 76 109h12l-96 -537h-364z" />
    <glyph glyph-name="five.sub" 
d="M365 127h-164q-6 -149 88 -231t266 -82q196 0 319 123q117 120 117 301q0 144 -83 231.5t-224 87.5q-129 0 -219 -90h-4l80 313h489l27 148h-629l-145 -596h145q78 94 205 94q92 0 142 -54.5t50 -148.5q0 -115 -59 -188q-74 -88 -207 -88q-90 0 -142.5 45t-51.5 135z" />
    <glyph glyph-name="six.sub" 
d="M907 653h160q0 122 -84 203q-89 86 -242 86q-195 0 -327 -145q-105 -115 -156 -312q-41 -157 -41 -288q0 -171 88 -275q90 -110 275 -110q180 0 299 122q116 116 116 293q0 142 -84 227t-229 85q-90 0 -161 -36.5t-113 -101.5h-11q49 203 132 306.5t210 103.5
q75 0 121 -42.5t47 -115.5zM385 150q0 117 68.5 188.5t179.5 71.5q95 0 146.5 -52t51.5 -149q0 -107 -63 -182q-71 -84 -186 -84q-95 0 -146 56t-51 151z" />
    <glyph glyph-name="seven.sub" 
d="M455 -164l653 985l22 107h-792l-29 -150h594l-633 -942h185z" />
    <glyph glyph-name="eight.sub" 
d="M715 944q-158 0 -269 -90q-112 -91 -112 -231q0 -159 129 -222v-4q-120 -25 -190 -102t-70 -195q0 -136 96 -212t274 -76t297 92q121 93 121 250q0 83 -44.5 141t-119.5 84v4q98 31 160 104t62 175q0 124 -95 206q-92 76 -239 76zM674 446q-81 0 -129.5 43t-48.5 125
q0 89 56.5 146t156.5 57q75 0 126.5 -43t51.5 -115q0 -97 -57.5 -155t-155.5 -58zM580 -63q-94 0 -151.5 42.5t-57.5 131.5q0 100 63 158.5t178 58.5q90 0 148 -41q63 -47 63 -137q0 -95 -64 -154t-179 -59z" />
    <glyph glyph-name="nine.sub" 
d="M520 -188q189 0 314 135q101 109 157 301q41 149 41 313q0 165 -84 268q-92 113 -270 113q-179 0 -291 -115q-111 -117 -111 -280q0 -142 87 -228t227 -86q174 0 266 136h6q-77 -426 -338 -426q-82 0 -127.5 40.5t-50.5 108.5h-151q5 -130 91.5 -205t233.5 -75zM872 612
q0 -106 -61 -176q-71 -78 -188 -78q-91 0 -140 53t-49 142q0 108 60 180q66 80 180 80q90 0 144 -55t54 -146z" />
    <glyph glyph-name="zero.sup" 
d="M690 655q183 0 311 142q101 114 152 307q39 147 39 297q0 192 -93.5 288.5t-254.5 96.5q-185 0 -309 -141q-99 -110 -154 -306q-41 -147 -41 -299q0 -187 89 -286t261 -99zM696 788q-101 0 -147 76q-37 62 -37 162q0 113 31 256q35 160 102 256q77 115 191 115
q97 0 147 -74q37 -55 37 -162q0 -118 -29 -254q-32 -151 -102 -258q-80 -117 -193 -117z" />
    <glyph glyph-name="one.sup" 
d="M1071 815h-264l184 959h-135q-19 -98 -80 -150q-59 -47 -166 -47h-92l-22 -117h274l-125 -645h-268l-27 -135h694z" />
    <glyph glyph-name="two.sup" 
d="M449 1401h153q8 130 78 196q61 58 156 58q86 0 136 -47t50 -127q0 -88 -47.5 -153.5t-155.5 -147.5l-493 -373l-23 -127h780l25 139h-547v6q33 18 55 33l58 37q31 19 67 47l187 141q137 101 197.5 192t60.5 214q0 133 -91.5 215t-248.5 82q-174 0 -283 -103
q-114 -111 -114 -282z" />
    <glyph glyph-name="three.sup" 
d="M657 1167h109q180 0 180 -168q0 -92 -66.5 -151.5t-177.5 -59.5q-213 0 -213 201h-157q-9 -155 90 -241q101 -91 272 -91q173 0 293 93q119 95 119 247q0 180 -170 230v10q105 22 171.5 90.5t66.5 179.5q0 132 -91.5 205.5t-244.5 73.5q-167 0 -277 -92
q-107 -93 -119 -238h158q25 201 234 201q81 0 130.5 -42.5t49.5 -121.5q0 -88 -62 -139t-168 -51h-100z" />
    <glyph glyph-name="four.sup" 
d="M1186 1071h-168l123 701h-193l-624 -711l-21 -123h535l-47 -258h157l45 258h170zM498 1071l313 359q33 36 59 69q52 68 76 109h12l-96 -537h-364z" />
    <glyph glyph-name="five.sup" 
d="M496 971h-164q-6 -149 88 -231.5t266 -82.5q197 0 320 123q116 119 116 301q0 144 -83 232t-224 88q-129 0 -219 -90h-4l80 313h489l27 148h-629l-145 -596h145q78 94 205 94q92 0 142 -54.5t50 -148.5q0 -115 -59 -188q-74 -88 -207 -88q-90 0 -142.5 45t-51.5 135z" />
    <glyph glyph-name="six.sup" 
d="M1038 1497h160q0 122 -84 203q-89 86 -242 86q-195 0 -327 -146q-105 -116 -156 -311q-41 -157 -41 -289q0 -170 88 -274q90 -111 275 -111q179 0 299 123q116 116 116 293q0 142 -84 226.5t-229 84.5q-90 0 -161 -36.5t-113 -100.5h-11q49 203 132 306.5t210 103.5
q75 0 121 -42.5t47 -115.5zM516 993q0 117 68.5 188.5t179.5 71.5q95 0 147 -51.5t52 -148.5q0 -107 -64 -183q-71 -84 -186 -84q-95 0 -146 56t-51 151z" />
    <glyph glyph-name="seven.sup" 
d="M586 680l653 985l23 107h-793l-29 -150h594l-633 -942h185z" />
    <glyph glyph-name="eight.sup" 
d="M846 1788q-157 0 -268 -90q-113 -92 -113 -232q0 -158 129 -221v-4q-120 -25 -190 -102t-70 -195q0 -136 96.5 -212.5t274.5 -76.5q176 0 296 93q121 93 121 249q0 83 -44.5 141.5t-119.5 84.5v4q98 31 160 103.5t62 174.5q0 125 -95 207q-92 76 -239 76zM805 1290
q-81 0 -129.5 43t-48.5 125q0 89 56.5 146t156.5 57q75 0 126.5 -43t51.5 -115q0 -97 -57.5 -155t-155.5 -58zM711 780q-94 0 -151.5 42.5t-57.5 131.5q0 100 63 158.5t178 58.5q90 0 148 -41q63 -47 63 -137q0 -95 -64 -154t-179 -59z" />
    <glyph glyph-name="nine.sup" 
d="M651 655q188 0 314 136q101 109 157 301q41 149 41 313q0 165 -84 268q-92 113 -270 113q-179 0 -291 -115q-110 -116 -110 -280q0 -142 86.5 -228t226.5 -86q175 0 266 135h6q-77 -426 -338 -426q-82 0 -127.5 41t-50.5 109h-151q5 -130 91.5 -205.5t233.5 -75.5z
M1004 1456q0 -105 -62 -176q-71 -78 -188 -78q-91 0 -140 53t-49 142q0 108 60 180q66 80 180 80q91 0 145 -55t54 -146z" />
    <glyph glyph-name="backslash.uc" 
d="M1053 -164l-598 1880h-156l600 -1880h154z" />
    <glyph glyph-name="exclamdown.uc" 
d="M627 1292h274l49 275h-274zM653 1081l-227 -1128h205l172 1128h-150z" />
    <glyph glyph-name="questiondown.uc" 
d="M651 1292h275l49 275h-275zM336 332q0 102 43 170t129 127l102 71q110 74 154 123q22 26 33.5 58.5t23.5 89.5l25 131h-170l-21 -101l-14 -57q-13 -35 -59 -65l-60 -43l-90 -64q-116 -75 -188 -170q-92 -120 -92 -287q0 -164 110 -268q116 -113 318 -113q229 0 368 136
q144 144 156 393h-178q-19 -190 -100 -282.5t-238 -92.5q-117 0 -184.5 66.5t-67.5 177.5z" />
    <glyph glyph-name="slash.uc" 
d="M162 -164l1255 1880h-178l-1255 -1880h178z" />
    <glyph glyph-name="braceleft.uc" 
d="M262 694h103q86 0 115 -35t12 -120l-60 -330q-40 -220 60 -305q101 -85 378 -70l27 133q-197 -9 -260 37q-60 44 -39 172l66 348q18 105 -2 162q-29 73 -127 84l2 8q113 14 161 70q36 45 58 176l53 332q13 80 34 126t60 70q76 46 283 25l24 133q-278 29 -399 -37
q-139 -75 -178 -323l-53 -336q-14 -86 -54.5 -121t-132.5 -35h-102z" />
    <glyph glyph-name="braceright.uc" 
d="M1057 848h-103q-85 0 -114.5 35t-12.5 121l60 329q41 224 -58 307q-101 85 -380 70l-27 -133q197 9 260 -37q33 -25 41.5 -68.5t-2.5 -105.5l-66 -348q-18 -104 4 -160q27 -75 125 -86l-2 -8q-114 -14 -159 -70q-38 -44 -60 -176l-53 -332q-13 -79 -34 -124.5t-60 -67.5
q-40 -22 -110.5 -27.5t-172.5 0.5l-24 -133q126 -10 230.5 -2t168.5 41q137 70 176 309l55 346q14 87 53.5 121.5t133.5 34.5h102z" />
    <glyph glyph-name="bracketleft.uc" 
d="M897 -174l25 143h-396l283 1594h395l25 143h-570l-331 -1880h569z" />
    <glyph glyph-name="bracketright.uc" 
d="M422 1706l-25 -143h396l-283 -1594h-395l-25 -143h569l332 1880h-569z" />
    <glyph glyph-name="parenleft.uc" 
d="M702 -174h166q-138 204 -196 381q-60 183 -60 387q0 379 183 672q142 227 422 440h-191q-286 -193 -434 -463q-162 -295 -162 -647q0 -223 86 -444q72 -188 186 -326z" />
    <glyph glyph-name="parenright.uc" 
d="M598 1706h-166q141 -209 197 -373q59 -177 59 -395q0 -381 -180 -670q-139 -226 -424 -442h190q291 197 437 463q159 290 159 647q0 222 -86 446q-73 187 -186 324z" />
    <glyph glyph-name="emdash.uc" 
d="M1331 686l27 150h-1311l-27 -150h1311z" />
    <glyph glyph-name="endash.uc" 
d="M1071 686l27 150h-787l-26 -150h786z" />
    <glyph glyph-name="hyphen.uc" 
d="M958 666l35 188h-571l-31 -188h567z" />
    <glyph glyph-name="guillemotleft.uc" 
d="M227 670l174 -430h185l-162 413l321 420h-194zM657 670l174 -430h187l-162 413l322 420h-197z" />
    <glyph glyph-name="guillemotright.uc" 
d="M684 643l-195 430h-186l182 -414l-301 -419h197zM1114 643l-194 430h-185l183 -414l-302 -419h195z" />
    <glyph glyph-name="guilsinglleft.uc" 
d="M797 1073l-445 -411l342 -422h224l-322 413l440 420h-239z" />
    <glyph glyph-name="guilsinglright.uc" 
d="M541 238l452 421l-338 412h-223l318 -403l-449 -430h240z" />
    <glyph glyph-name="space_uni0326" 
d="M475 -414l238 305h-277l-119 -305h158z" />
    <glyph glyph-name="minus.den" 
d="M989 377l25 135h-715l-25 -135h715z" />
    <glyph glyph-name="plus.den" 
d="M997 379l25 131h-293l49 283h-141l-49 -283h-291l-25 -131h291l-49 -285h141l50 285h292z" />
    <glyph glyph-name="minus.num" 
d="M1092 985l24 135h-715l-24 -135h715z" />
    <glyph glyph-name="plus.num" 
d="M1100 987l24 131h-293l50 283h-142l-49 -283h-291l-24 -131h291l-50 -285h142l49 285h293z" />
    <glyph glyph-name="minus.sub" 
d="M981 295l25 135h-715l-25 -135h715z" />
    <glyph glyph-name="plus.sub" 
d="M989 297l25 131h-293l49 283h-141l-49 -283h-291l-25 -131h291l-49 -285h141l49 285h293z" />
    <glyph glyph-name="minus.sup" 
d="M1112 1139l25 135h-715l-25 -135h715z" />
    <glyph glyph-name="plus.sup" 
d="M1120 1141l25 131h-293l49 282h-141l-49 -282h-291l-25 -131h291l-49 -285h141l49 285h293z" />
    <glyph glyph-name="dagger.alt01" 
d="M1071 1141l23 135h-273l51 291h-145l-51 -291h-275l-22 -135h272l-102 -588h145l103 588h274z" />
    <glyph glyph-name="daggerdbl.alt01" 
d="M1032 803l23 135h-273l43 244h273l24 135h-272l43 250h-145l-43 -250h-275l-24 -135h274l-43 -244h-275l-22 -135h272l-43 -250h146l43 250h274z" />
    <glyph glyph-name="bar.uc" 
d="M618 -164l332 1880h-153l-332 -1880h153z" />
    <glyph glyph-name="at.uc" 
d="M692 -33q140 0 240 33l22 123q-138 -29 -223 -29q-514 0 -418 619l21 131q48 303 127 442q116 201 346 201q196 0 276 -123q74 -113 45 -320h-6q-71 146 -243 146q-208 0 -304 -182q-69 -133 -69 -349q0 -138 74 -212t206 -74q159 0 250 133h6l-20 -111h137l111 629
q49 270 -76 430t-383 160q-307 0 -459 -234q-111 -168 -162 -497l-24 -156q-57 -364 88 -565q141 -195 438 -195zM823 496q-149 0 -149 184q0 126 35 225q58 166 196 166q96 0 146.5 -70.5t27.5 -185.5l-12 -78q-17 -111 -82.5 -176t-161.5 -65z" />
    <glyph glyph-name="caron.alt" 
d="M735 1196l234 418h-232l-121 -418h119z" />
    <glyph glyph-name="acute.uc" 
d="M836 1694l245 272h-276l-141 -272h172z" />
    <glyph glyph-name="breve.uc" 
d="M705 1987h-154q-11 -140 76 -215q81 -72 217 -72q128 0 218 72t124 215h-158q-46 -138 -188 -138q-57 0 -94 36t-41 102z" />
    <glyph glyph-name="caron.uc" 
d="M930 1694l246 272h-181l-159 -135h-7l-114 135h-170l151 -272h234z" />
    <glyph glyph-name="circumflex.uc" 
d="M791 1966l-246 -272h180l160 135h6l115 -135h170l-152 272h-233z" />
    <glyph glyph-name="dieresis.uc" 
d="M748 1694l47 264h-267l-47 -264h267zM1188 1694l47 264h-264l-47 -264h264z" />
    <glyph glyph-name="dotaccent.uc" 
d="M975 1688l49 274h-274l-50 -274h275z" />
    <glyph glyph-name="grave.uc" 
d="M629 1966l207 -272h165l-96 272h-276z" />
    <glyph glyph-name="hungarumlaut.uc" 
d="M688 1694l176 272h-231l-105 -272h160zM1018 1694l176 272h-231l-105 -272h160z" />
    <glyph glyph-name="macron.uc" 
d="M1167 1733l29 170h-651l-29 -170h651z" />
    <glyph glyph-name="ring.uc" 
d="M594 1870q0 -105 67 -171t179 -67q122 0 204 82q80 80 80 197q0 107 -67 175t-180 68q-123 0 -203 -83q-80 -80 -80 -201zM721 1884q0 67 41 113.5t106 46.5q59 0 94 -40.5t35 -102.5q0 -67 -42 -112.5t-107 -45.5q-59 0 -93 39t-34 102z" />
    <glyph glyph-name="tilde.uc" 
d="M485 1694h146q13 116 96 116q9 0 19.5 -2.5t18.5 -5.5t20.5 -10t19 -10.5t21 -13t20.5 -13.5q84 -55 149 -55q112 0 172.5 76t71.5 202h-145q-14 -120 -93 -120q-6 0 -12 1t-11 2t-11.5 4t-11 4.5t-12 6t-11 6.5t-12 8t-11.5 8t-12 8.5t-12 8.5q-82 55 -154 55
q-113 0 -175.5 -76t-70.5 -200z" />
    <glyph glyph-name="uni0326.alt" horiz-adv-x="0" 
d="M850 1585l-256 -338h276l138 338h-158z" />
    <glyph glyph-name="DC1" horiz-adv-x="1024" 
 />
    <glyph glyph-name="DC2" horiz-adv-x="1024" 
 />
    <glyph glyph-name="DC3" horiz-adv-x="1024" 
 />
    <glyph glyph-name="DC4" horiz-adv-x="1024" 
 />
    <glyph glyph-name="DLE" horiz-adv-x="1024" 
 />
    <glyph glyph-name="HT" horiz-adv-x="1024" 
 />
    <glyph glyph-name="LF" horiz-adv-x="1024" 
 />
    <glyph glyph-name="RS" horiz-adv-x="1024" 
 />
    <glyph glyph-name="US" horiz-adv-x="1024" 
 />
  </font>
</defs>
</svg>
