<?xml version="1.0" standalone="no"?>
<!DOCTYPE svg PUBLIC "-//W3C//DTD SVG 1.1//EN" "http://www.w3.org/Graphics/SVG/1.1/DTD/svg11.dtd" >
<svg xmlns="http://www.w3.org/2000/svg" xmlns:xlink="http://www.w3.org/1999/xlink" version="1.1">
<metadata>
Created by FontForge 20170731 at Sat Jan  1 04:00:55 2022
 By Aleksey,,,
(C)2012 Kai Bernau and Susana Carvalho with Christian Schwartz under exclusive license to Schwartzco Inc./Commercial Type. All rights reserved.
</metadata>
<defs>
<font id="AtlasTypewriterWeb-Regular" horiz-adv-x="1310" >
  <font-face 
    font-family="Atlas Typewriter Web"
    font-weight="400"
    font-stretch="normal"
    units-per-em="2048"
    panose-1="0 0 5 0 0 0 0 0 0 0"
    ascent="1663"
    descent="-385"
    x-height="1079"
    cap-height="1567"
    bbox="-14 -449 3504 2445"
    underline-thickness="102"
    underline-position="-255"
    unicode-range="U+000D-FB02"
  />
<missing-glyph horiz-adv-x="1024" 
 />
    <glyph glyph-name=".notdef" horiz-adv-x="1024" 
 />
    <glyph glyph-name=".null" horiz-adv-x="0" 
 />
    <glyph glyph-name="nonmarkingreturn" horiz-adv-x="682" 
 />
    <glyph glyph-name="NULL" horiz-adv-x="0" 
 />
    <glyph glyph-name="NULL" horiz-adv-x="0" 
 />
    <glyph glyph-name="CR" unicode="&#xd;" horiz-adv-x="1024" 
 />
    <glyph glyph-name="space" unicode=" " 
 />
    <glyph glyph-name="exclam" unicode="!" 
d="M729 485l29 1129h-205l27 -1129h149zM793 274h-275v-274h275v274z" />
    <glyph glyph-name="quotedbl" unicode="&#x22;" 
d="M504 1012l67 555h-282l67 -555h148zM913 1012l68 555h-283l68 -555h147z" />
    <glyph glyph-name="numbersign" unicode="#" 
d="M745 610l-59 -407h150l59 407h248v146h-228l46 307h243v145h-221l51 357h-149l-51 -357h-275l51 357h-149l-51 -357h-244v-145h221l-45 -307h-238v-146h218l-60 -407h150l59 407h274zM492 756l45 307h274l-45 -307h-274z" />
    <glyph glyph-name="dollar" unicode="$" 
d="M723 -238v224q224 17 339.5 132t115.5 310q0 342 -398 412l-57 10v534q120 -20 182 -98q55 -72 68 -180h178q-11 183 -120.5 295t-307.5 129v166h-135v-166q-182 -15 -299 -129q-115 -112 -115 -271q0 -183 94.5 -285t284.5 -138l35 -7v-557q-134 14 -207 101
q-62 73 -78 190h-180q30 -209 143 -320t322 -128v-224h135zM588 874l-13 3q-110 19 -165.5 79.5t-55.5 173.5q0 102 58 169.5t176 84.5v-510zM723 676l22 -4q250 -45 250 -260q0 -235 -260 -269h-12v533z" />
    <glyph glyph-name="percent" unicode="%" 
d="M289 0l899 1585h-158l-899 -1585h158zM63 1231q0 -171 84.5 -261.5t219.5 -90.5q128 0 215 90q88 91 88 262q0 170 -88 264q-86 86 -215 86q-130 0 -213 -86q-91 -94 -91 -264zM367 1454q149 0 149 -223q0 -110 -38.5 -167.5t-110.5 -57.5q-150 3 -150 225q0 226 150 223
zM950 -14q131 0 215 90q88 91 88 262q0 170 -88 264q-83 86 -215 86q-130 0 -213 -86q-90 -97 -90 -264q0 -171 88 -262q84 -90 215 -90zM948 113q-147 0 -147 225q0 223 147 223q73 0 112.5 -56t39.5 -167q0 -109 -39.5 -167t-112.5 -58z" />
    <glyph glyph-name="ampersand" unicode="&#x26;" 
d="M1257 0v160q-79 0 -114 16q-45 19 -99 84q65 124 93 264q20 101 32 258h-153q-29 -256 -74 -387l-12 17l-297 415q164 112 237 207q86 113 86 244q0 152 -96 242q-109 94 -270 94q-164 0 -266 -94q-103 -95 -103 -254q0 -107 42 -196.5t134 -217.5q-174 -118 -233 -205
q-78 -113 -78 -256q0 -187 123 -301q129 -123 356 -123q228 0 373 148q58 -64 107 -89.5t120 -25.5h92zM395 1276q0 83 53 138.5t144 55.5q86 0 137 -51t51 -141q0 -112 -57 -184q-42 -55 -174 -154q-13 19 -34.5 49.5t-29.5 42.5q-38 58 -49 78q-41 74 -41 166zM483 733
l332 -459q9 -12 19 -22q9 -18 14 -23q-100 -114 -279 -114q-128 0 -209 75q-86 80 -86 220q0 97 39 163q43 73 158 152z" />
    <glyph glyph-name="quotesingle" unicode="'" 
d="M756 1012l67 555h-282l67 -555h148z" />
    <glyph glyph-name="parenleft" unicode="(" 
d="M823 -266h191q-181 181 -285 397q-125 260 -125 543q0 284 123 536q103 216 287 404h-191q-189 -186 -288 -397q-113 -242 -113 -543q0 -304 115 -543q98 -212 286 -397z" />
    <glyph glyph-name="parenright" unicode=")" 
d="M487 1614h-190q179 -179 285 -397q125 -260 125 -543q0 -282 -121 -537q-98 -202 -289 -403h190q191 188 289 397q113 242 113 543q0 300 -113 545q-101 210 -289 395z" />
    <glyph glyph-name="asterisk" unicode="*" 
d="M881 563l166 119l-283 326v6l410 108l-70 197l-383 -186l-6 2l43 432h-207l43 -432l-6 -2l-385 186l-68 -197l410 -108v-6l-283 -326l166 -119l225 367h4z" />
    <glyph glyph-name="plus" unicode="+" 
d="M1126 653v158h-389v391h-166v-391h-387v-158h387v-393h166v393h389z" />
    <glyph glyph-name="comma" unicode="," 
d="M848 274h-295l-111 -534h162z" />
    <glyph glyph-name="hyphen" unicode="-" 
d="M936 573v189h-561v-189h561z" />
    <glyph glyph-name="period" unicode="." 
d="M793 0v274h-275v-274h275z" />
    <glyph glyph-name="slash" unicode="/" 
d="M250 -266l930 1880h-170l-930 -1880h170z" />
    <glyph glyph-name="zero" unicode="0" 
d="M137 754q0 -785 516 -785q521 0 521 785q0 396 -134.5 590t-386.5 194q-251 0 -383.5 -193.5t-132.5 -590.5zM653 123q-319 0 -319 627q0 632 319 632q324 0 324 -632q0 -309 -83.5 -468t-240.5 -159z" />
    <glyph glyph-name="one" unicode="1" 
d="M1153 154h-379v1370h-153q0 -70 -15.5 -115.5t-48.5 -81.5q-65 -65 -203 -65h-137v-144h373v-964h-373v-154h936v154z" />
    <glyph glyph-name="two" unicode="2" 
d="M193 1012h178q-4 180 77.5 277t235.5 97q123 0 201 -75q78 -78 78 -195q0 -120 -68 -229q-48 -77 -203 -232l-520 -512v-143h997v164h-751v4q8 6 35 33q68 63 133 125l235 225q189 183 258 305q70 129 70 270q0 78 -29 153t-84 132q-126 129 -354 129q-224 0 -360 -145
q-138 -148 -129 -383z" />
    <glyph glyph-name="three" unicode="3" 
d="M541 690h131q151 0 230 -72t79 -202q0 -134 -92 -213q-89 -80 -223 -80q-143 0 -233 76.5t-107 226.5h-176q10 -201 129 -320q130 -137 370 -137q239 0 381 129q135 123 135 305q0 163 -90 263q-83 89 -217 118v4q270 102 270 359q0 176 -122 283q-126 110 -340 110
q-233 0 -369 -139q-120 -123 -123 -318h178q4 151 86.5 226t227.5 75q124 0 201 -71t77 -191q0 -124 -70.5 -197t-201.5 -73h-131v-162z" />
    <glyph glyph-name="four" unicode="4" 
d="M1188 528h-199v990h-233l-643 -1002v-143h700v-373h176v373h199v155zM295 526l422 650q46 73 67 116q10 18 21 43h8v-809h-518z" />
    <glyph glyph-name="five" unicode="5" 
d="M324 401h-179q17 -187 127 -297q132 -135 373 -135t383 142q141 141 141 378q0 252 -147 392q-130 118 -334 118q-194 0 -303 -125h-4l25 482h669v162h-831l-45 -809h166q89 137 288 137q145 0 234 -92q94 -101 94 -269q0 -177 -102 -276q-91 -88 -234 -88
q-282 -3 -321 280z" />
    <glyph glyph-name="six" unicode="6" 
d="M961 1190h186q-27 164 -141.5 257t-305.5 93q-286 0 -424.5 -216.5t-138.5 -651.5q0 -394 162 -566q129 -137 369 -137q230 0 372 148q136 142 136 372q0 237 -146 369q-122 111 -313 111q-129 0 -230 -54t-155 -151h-6q3 304 84 459q90 168 282 168q218 0 269 -201z
M670 125q-135 0 -219 84q-101 94 -101 264q0 169 90 256q85 82 230 82q134 0 221 -84q92 -92 92 -254q0 -173 -98 -264q-87 -84 -215 -84z" />
    <glyph glyph-name="seven" unicode="7" 
d="M508 0l659 1397v121h-1022v-164h809l-641 -1354h195z" />
    <glyph glyph-name="eight" unicode="8" 
d="M176 1133q0 -133 76 -232q77 -100 172 -127v-4q-115 -29 -193 -113q-98 -105 -98 -262q0 -194 133 -309q141 -122 389 -119q247 3 392 125q133 112 133 303q0 158 -97 262q-80 85 -194 113v4q97 28 172 125q76 99 76 234q0 173 -127 288q-132 119 -355 119
q-222 0 -354 -119q-125 -113 -125 -288zM655 1393q126 0 203 -68q86 -76 86 -209q0 -129 -88 -207q-78 -69 -201 -69q-122 0 -200 69q-88 78 -88 207q0 131 88 209q77 68 200 68zM655 115q-143 0 -229 69q-102 79 -102 219t102 222q90 69 229 69q146 0 236 -69
q100 -80 100 -222q0 -143 -98 -219q-86 -69 -238 -69z" />
    <glyph glyph-name="nine" unicode="9" 
d="M344 342h-176q33 -193 164 -287q120 -86 289 -86q271 0 401 197q141 218 141 684q0 347 -141 524q-135 166 -383 166q-217 0 -358 -141q-67 -67 -103.5 -158.5t-36.5 -196.5q0 -234 154 -364q129 -109 311 -109q127 0 220 47.5t143 135.5h8q0 -333 -82.5 -484
t-255.5 -151q-237 0 -295 223zM635 1384q131 0 221 -84q100 -97 100 -251q0 -155 -90 -242q-87 -84 -227 -84q-133 0 -217 84q-92 89 -92 242q0 163 96 256q82 79 209 79z" />
    <glyph glyph-name="colon" unicode=":" 
d="M793 1079h-275v-274h275v274zM793 274h-275v-274h275v274z" />
    <glyph glyph-name="semicolon" unicode=";" 
d="M827 1079h-274v-274h274v274zM829 274h-294l-111 -534h162z" />
    <glyph glyph-name="less" unicode="&#x3c;" 
d="M1118 326l-735 356l735 356v179l-958 -472v-127l958 -471v179z" />
    <glyph glyph-name="equal" unicode="=" 
d="M1126 840v155h-942v-155h942zM1126 625h-942v-156h942v156z" />
    <glyph glyph-name="greater" unicode="&#x3e;" 
d="M190 1038l736 -356l-736 -356v-179l959 471v127l-959 472v-179z" />
    <glyph glyph-name="question" unicode="?" 
d="M932 1208q0 -83 -34 -145.5t-105 -120.5l-86 -76q-5 -5 -19.5 -17.5t-19 -16.5t-16 -14t-15.5 -14t-12.5 -12t-12.5 -13t-9.5 -11.5t-9.5 -12.5t-7 -12q-27 -50 -27 -147v-131h168v100q0 72 14 101q2 5 5 9.5t5.5 8t7.5 9t8 9t10 10.5l10.5 10.5t13 12t14.5 13.5l76 65
q107 91 153 162q70 108 70 250q0 168 -110 278q-129 129 -353 129q-222 0 -358 -145q-138 -148 -129 -383h174q-4 179 79 274t238 95q126 0 201.5 -73.5t75.5 -191.5zM780 274h-274v-274h274v274z" />
    <glyph glyph-name="at" unicode="@" 
d="M713 -254q137 0 248 43l6 127q-78 -20 -109 -25q-46 -10 -135 -10q-269 0 -369 185q-44 82 -61 200t-17 285v78v35.5v37v34t0.5 36t1.5 33t2 35.5t2.5 32t3.5 34t5 31t6 32q28 139 113 215q94 84 266 84q196 0 287 -125q75 -106 75 -301h-12q-74 133 -240 133
q-152 0 -238.5 -107t-86.5 -305q0 -211 92 -313q81 -94 217 -94q196 0 260 155h4v-133h152v668q0 248 -123 391q-137 160 -387 160q-220 0 -350 -105q-115 -90 -166 -266q-22 -79 -28.5 -167.5t-6.5 -219.5v-135q0 -400 129 -572q137 -186 459 -186zM817 285q-98 0 -141 82
q-37 70 -37 202q0 279 192 279q80 0 135.5 -69t55.5 -181v-78q0 -101 -57.5 -168t-147.5 -67z" />
    <glyph glyph-name="A" unicode="A" 
d="M1239 0l-461 1567h-250l-456 -1567h192l129 467h510l131 -467h205zM641 1384h16q18 -69 43 -180q1 -6 21 -82l139 -501h-424l139 501q13 57 41 162q7 33 19 68q6 27 6 32z" />
    <glyph glyph-name="B" unicode="B" 
d="M184 0h467q262 0 400 94q161 109 161 359q0 148 -86.5 252.5t-236.5 130.5v4q274 65 274 346q0 187 -127 287q-122 94 -338 94h-514v-1567zM375 1415h313q134 0 206.5 -62t72.5 -188q0 -143 -88 -209q-79 -57 -215 -57h-289v516zM375 750h262q191 0 285 -67t94 -218
q0 -170 -91 -241.5t-272 -71.5h-278v598z" />
    <glyph glyph-name="C" unicode="C" 
d="M1014 1098h192q-23 245 -172 375q-133 116 -338 116q-279 0 -430 -204.5t-151 -606.5q0 -426 149 -622q141 -189 426 -189q222 0 365 150q131 137 147 370h-186q-14 -152 -80 -247q-85 -117 -244 -117q-200 0 -289.5 155.5t-89.5 499.5q0 341 90 499.5t291 158.5
q146 0 234 -109q69 -93 86 -229z" />
    <glyph glyph-name="D" unicode="D" 
d="M154 0h360q335 0 512 188q193 202 193 615q0 411 -203 598q-180 166 -524 166h-338v-1567zM344 1405h178q245 0 367 -139q131 -153 131 -469q0 -341 -129 -488q-123 -143 -381 -143h-166v1239z" />
    <glyph glyph-name="E" unicode="E" 
d="M1165 0v166h-759v545h643v161h-643v529h749v166h-940v-1567h950z" />
    <glyph glyph-name="F" unicode="F" 
d="M1128 668v161h-682v572h766v166h-956v-1567h190v668h682z" />
    <glyph glyph-name="G" unicode="G" 
d="M686 1436q136 0 219 -86q75 -81 88 -199h193q-12 188 -148 311q-140 127 -350 127q-280 0 -429.5 -203.5t-149.5 -609.5q0 -421 143 -622q129 -185 395 -185q143 0 244 68q85 57 131 151h8v-188h166v791h-547v-156h373v-129q0 -144 -72 -250q-93 -137 -274 -137
q-194 0 -281.5 161t-87.5 498q0 322 84 486q87 172 295 172z" />
    <glyph glyph-name="H" unicode="H" 
d="M967 709v-709h190v1567h-190v-697h-623v697h-190v-1567h190v709h623z" />
    <glyph glyph-name="I" unicode="I" 
d="M1106 1413v154h-901v-154h356v-1259h-356v-154h901v154h-356v1259h356z" />
    <glyph glyph-name="J" unicode="J" 
d="M541 -20q224 0 358 116q137 118 137 338v1133h-723v-162h533v-959q0 -141 -75 -218.5t-232 -77.5q-164 0 -320 38v-172q164 -36 322 -36z" />
    <glyph glyph-name="K" unicode="K" 
d="M539 756l475 -756h225l-569 905l536 662h-213l-610 -756v756h-188v-1567h188v565z" />
    <glyph glyph-name="L" unicode="L" 
d="M1225 0v166h-779v1401h-190v-1567h969z" />
    <glyph glyph-name="M" unicode="M" 
d="M328 0v1339h16q3 -39 12 -86q19 -131 41 -209l160 -669h186l162 672q15 61 27 114q20 98 29 178h16v-1339l180 -2v1569l-266 2l-180 -752q-12 -46 -23 -104q-20 -108 -22 -164h-17q-1 15 -10 78q-18 108 -37 194l-180 746h-268v-1567h174z" />
    <glyph glyph-name="N" unicode="N" 
d="M322 0v1341h10q4 -18 39 -116q14 -39 30 -76l506 -1149h252v1567h-170v-1342h-12l-19 62q-6 17 -49 129l-506 1151h-251v-1567h170z" />
    <glyph glyph-name="O" unicode="O" 
d="M100 778q0 -432 148 -631q134 -180 405 -180q269 0 406 180q151 203 151 631q0 436 -149 633q-135 178 -404 178q-264 0 -401 -178q-156 -202 -156 -633zM655 121q-181 0 -264 155q-88 158 -88 502q0 348 88 506q83 152 264 152q183 0 267 -148q86 -157 86 -510
q0 -351 -84 -504q-82 -153 -269 -153z" />
    <glyph glyph-name="P" unicode="P" 
d="M389 598h256q252 0 397 121q158 129 158 366q0 242 -156 369q-139 113 -382 113h-463v-1567h190v598zM389 1413h262q172 0 262.5 -78.5t90.5 -249.5q0 -165 -92.5 -249t-266.5 -84h-256v661z" />
    <glyph glyph-name="Q" unicode="Q" 
d="M999 92v10q98 78 152 228q59 165 59 448q0 436 -149 633q-135 178 -404 178q-264 0 -401 -178q-156 -202 -156 -633q0 -428 150 -626q137 -181 407 -181q61 0 111 9q41 8 82 8q168 0 262 -242l168 82q-45 112 -111.5 175t-169.5 89zM655 1438q187 0 269 -150
q84 -153 84 -512q0 -393 -105 -543q-80 -112 -248 -112q-186 0 -268 153q-84 156 -84 502q0 352 84 508q83 154 268 154z" />
    <glyph glyph-name="R" unicode="R" 
d="M1204 0l-346 690v4q130 32 219 127q111 123 111 307q0 139 -51 228q-54 97 -167 154t-282 57h-502v-1567h191v664h289l323 -664h215zM377 1411h305q141 0 224 -72t83 -213q0 -155 -88 -233q-84 -72 -227 -72h-297v590z" />
    <glyph glyph-name="S" unicode="S" 
d="M989 1147h193q-15 199 -142 317q-134 125 -381 125q-226 0 -368 -123q-139 -117 -139 -309q0 -187 92 -283q89 -96 295 -143l219 -47q256 -55 256 -276q0 -131 -76 -201q-93 -86 -270 -86q-171 0 -269 98q-83 80 -100 221h-193q12 -211 156 -340q149 -133 402 -133
q265 0 404.5 123t139.5 338q0 179 -92 281t-301 149l-240 53q-122 26 -178.5 83.5t-56.5 174.5q0 112 78 187q85 78 239 78q153 0 242 -86q77 -74 90 -201z" />
    <glyph glyph-name="T" unicode="T" 
d="M57 1567v-162h502v-1405h191v1405h501v162h-1194z" />
    <glyph glyph-name="U" unicode="U" 
d="M141 1567v-1045q0 -285 142 -424q129 -129 372 -129q242 0 371 129q141 141 141 424v1045h-186v-1043q0 -185 -72 -288q-81 -111 -252 -111q-170 0 -251 111q-74 102 -74 288v1043h-191z" />
    <glyph glyph-name="V" unicode="V" 
d="M1040 1567l-307 -1137q-19 -72 -20 -78q-24 -102 -43 -176h-17q-3 16 -10 45t-10 45q-2 11 -10 39t-11 45t-10.5 45t-9.5 35l-309 1137h-203l446 -1567h262l443 1567h-191z" />
    <glyph glyph-name="W" unicode="W" 
d="M440 0l154 707q2 9 9.5 44.5t10.5 55.5q18 104 29 192h14q5 -42 15 -98q12 -86 35 -194l153 -707h264l101 1567h-172l-78 -1368h-19q-3 41 -12 90q-9 59 -39 215l-160 735h-176l-159 -735q-12 -53 -23 -119q-27 -164 -29 -186h-16l-78 1368h-178l100 -1567h254z" />
    <glyph glyph-name="X" unicode="X" 
d="M260 0l383 662h6l377 -662h221l-491 821l448 746h-196l-351 -598h-8l-334 598h-217l447 -756l-482 -811h197z" />
    <glyph glyph-name="Y" unicode="Y" 
d="M750 0v674l485 893h-193l-376 -723h-4l-375 723h-211l485 -899v-668h189z" />
    <glyph glyph-name="Z" unicode="Z" 
d="M961 1403l-832 -1258v-145h1073v164h-846l830 1257v146h-1026v-164h801z" />
    <glyph glyph-name="bracketleft" unicode="[" 
d="M985 -266v143h-395v1593h395v144h-569v-1880h569z" />
    <glyph glyph-name="backslash" unicode="\" 
d="M1231 -266l-930 1880h-170l930 -1880h170z" />
    <glyph glyph-name="bracketright" unicode="]" 
d="M326 1614v-144h395v-1593h-395v-143h569v1880h-569z" />
    <glyph glyph-name="asciicircum" unicode="^" 
d="M584 1567l-385 -695h176l272 494h15l258 -492h192l-377 693h-151z" />
    <glyph glyph-name="underscore" unicode="_" 
d="M1106 -385v152h-901v-152h901z" />
    <glyph glyph-name="grave" unicode="`" 
d="M700 1614h-276l242 -367h157z" />
    <glyph glyph-name="a" unicode="a" 
d="M874 195h13q6 -105 56 -150t169 -45h57v150h-36q-50 0 -67 16t-17 65v480q0 199 -113 303q-105 92 -299 92q-190 0 -301 -96q-101 -88 -111 -232h178q4 73 54 123q62 62 180 62q119 0 177 -61t58 -195v-56q-381 -12 -532 -90q-162 -79 -162 -266q0 -146 93 -229.5
t257 -83.5q122 0 210 55t136 158zM362 305q0 81 60 129q52 37 157.5 54.5t292.5 25.5v-25q0 -181 -104 -278q-83 -80 -207 -80q-94 0 -146.5 44.5t-52.5 129.5z" />
    <glyph glyph-name="b" unicode="b" 
d="M367 0v172h4q53 -87 133 -137q99 -62 223 -62q96 0 181 36.5t147 107.5q137 157 137 438q0 288 -135 430q-115 121 -316 121q-124 0 -218 -56.5t-144 -148.5h-2v713h-184v-1614h174zM700 119q-156 0 -245 110q-84 100 -84 271v114q0 140 88 242q89 102 239 102
q168 0 242 -114q66 -104 66 -289q0 -436 -306 -436z" />
    <glyph glyph-name="c" unicode="c" 
d="M950 754h191q-25 177 -156 270q-118 82 -295 82q-238 0 -373 -154q-133 -155 -133 -415q2 -272 127.5 -418t368.5 -146q188 0 313 101q131 106 154 278h-186q-15 -87 -74 -149q-79 -82 -207 -82q-163 0 -236 115q-67 101 -67 309q0 196 75 306t228 110q116 0 192 -66
q65 -59 78 -141z" />
    <glyph glyph-name="d" unicode="d" 
d="M932 1614v-678h-4q-46 73 -130 121.5t-198 48.5q-213 0 -346 -148q-137 -156 -137 -426q0 -286 141 -434q117 -125 320 -125q123 0 217.5 56.5t138.5 142.5h8v-172h176v1614h-186zM938 582v-115q0 -151 -88 -248q-90 -100 -240 -100q-162 0 -237 121q-68 103 -68 301
q0 197 81 307t243 110q140 0 224.5 -102t84.5 -274z" />
    <glyph glyph-name="e" unicode="e" 
d="M1122 283h-176q-21 -70 -65 -107q-73 -59 -197 -59q-158 0 -240 102q-79 98 -88 270h785v95q0 223 -109 364q-125 158 -360 158q-239 0 -373 -166q-129 -160 -129 -405q0 -253 125 -402q134 -160 383 -160q178 0 295.5 83.5t148.5 226.5zM952 637h-592q18 153 96.5 240.5
t213.5 87.5q143 0 215 -91q64 -81 67 -225v-12z" />
    <glyph glyph-name="f" unicode="f" 
d="M1143 926v153h-422v203q0 97 49.5 140.5t149.5 43.5q112 0 223 -34v155q-116 33 -230 33q-163 0 -266 -74q-108 -81 -108 -248v-219h-392v-153h392v-926h182v926h422z" />
    <glyph glyph-name="g" unicode="g" 
d="M616 -408q234 0 369 105q143 111 143 330v1052h-176v-170h-6q-46 90 -117 138q-91 59 -223 59q-213 0 -342 -141q-133 -146 -133 -410q0 -280 139 -422q119 -125 312 -125q114 0 223 64q89 52 139 141h2v-160q0 -173 -78.5 -243t-246.5 -70q-134 0 -200.5 38.5
t-84.5 112.5h-178q19 -154 161 -233q118 -66 297 -66zM950 598v-109q0 -137 -88 -235q-93 -100 -229 -100q-173 0 -248 112q-66 94 -66 289q0 190 76.5 298t229.5 108q146 0 237 -101q88 -97 88 -262z" />
    <glyph glyph-name="h" unicode="h" 
d="M1096 0v752q0 182 -95 274q-86 80 -249 80q-123 0 -217 -64q-78 -53 -121 -141h-2v713h-187v-1614h187v647q0 139 71 219q73 86 219 86q116 0 170 -71q18 -24 26.5 -64.5t9.5 -65t1 -83.5v-668h187z" />
    <glyph glyph-name="i" unicode="i" 
d="M797 1282v274h-275v-274h275zM1165 154h-403v925h-514v-147h338v-778h-398v-154h977v154z" />
    <glyph glyph-name="j" unicode="j" 
d="M920 1556h-275v-274h275v274zM512 -408q163 0 268 91q105 94 105 262v1134h-602v-151h426v-963q0 -102 -53.5 -158.5t-161.5 -56.5q-23 0 -46 1.5t-37.5 3t-37 6l-30 6t-32 7.5t-28.5 7v-160q131 -29 229 -29z" />
    <glyph glyph-name="k" unicode="k" 
d="M623 530l354 -530h219l-448 659l391 420h-217l-488 -538v1073h-176v-1614h176v328z" />
    <glyph glyph-name="l" unicode="l" 
d="M1165 154h-401v1460h-537v-148h355v-1312h-394v-154h977v154z" />
    <glyph glyph-name="m" unicode="m" 
d="M299 0v657q0 152 37.5 225.5t122.5 73.5q73 0 96 -55q16 -38 16 -123v-778h179v657q0 299 161 299q74 0 97 -55q14 -33 14 -123v-778h178v817q0 150 -53.5 219.5t-173.5 69.5q-178 0 -234 -178h-6q-39 178 -217 178q-175 0 -229 -182h-8v155h-158v-1079h178z" />
    <glyph glyph-name="n" unicode="n" 
d="M1096 0v752q0 182 -95 274q-86 80 -249 80q-123 0 -220 -64q-90 -60 -129 -145h-4v182h-174v-1079h187v647q0 139 71 219q73 86 219 86q116 0 170 -71q18 -24 26.5 -65t9.5 -66t1 -84v-666h187z" />
    <glyph glyph-name="o" unicode="o" 
d="M655 -27q243 0 373.5 148.5t130.5 419.5t-129 418t-375 147q-243 0 -373 -147.5t-130 -417.5q0 -271 129 -419.5t374 -148.5zM655 963q158 0 236 -109.5t78 -312.5q0 -424 -314 -424q-313 0 -313 424q0 203 77.5 312.5t235.5 109.5z" />
    <glyph glyph-name="p" unicode="p" 
d="M377 -385v543h4q36 -76 127 -127q94 -58 217 -58q201 0 330 144q137 153 137 438q0 290 -137 430q-118 121 -318 121q-122 0 -214.5 -57t-147.5 -150h-4v180h-178v-1464h184zM371 500v114q0 140 88 242q92 102 239 102q168 0 242 -114q66 -104 66 -289q0 -436 -306 -436
q-156 0 -245 110q-84 100 -84 271z" />
    <glyph glyph-name="q" unicode="q" 
d="M936 1079v-164h-4q-35 81 -120.5 136t-207.5 55q-217 0 -350 -148q-137 -156 -137 -426q0 -288 141 -436q117 -123 320 -123q120 0 221 60q83 51 127 131h6v-549h186v1464h-182zM610 119q-162 0 -237 121q-68 103 -68 301q0 197 81 307t239 110q140 0 225 -102
q88 -106 88 -274v-115q0 -151 -88 -248q-90 -100 -240 -100z" />
    <glyph glyph-name="r" unicode="r" 
d="M905 928q53 0 103 -7.5t76.5 -14.5t76.5 -23v174q-38 19 -98.5 31t-116.5 12q-168 0 -277 -67t-167 -222h-4v268h-174v-1079h184v463q0 220 101.5 342.5t295.5 122.5z" />
    <glyph glyph-name="s" unicode="s" 
d="M901 809h178q-13 143 -112 215q-113 82 -310 82q-193 0 -303 -92q-102 -86 -102 -226q0 -139 73.5 -210t209.5 -93l178 -30q119 -20 164 -54.5t45 -107.5q0 -89 -66.5 -132.5t-206.5 -43.5q-123 0 -188 51.5t-76 136.5h-178q20 -172 143 -256q112 -76 299 -76
q228 0 340.5 89t112.5 249q0 129 -77.5 201t-254.5 102l-158 27q-96 18 -140 54t-44 106q0 76 59 119t168 43t171 -36t75 -118z" />
    <glyph glyph-name="t" unicode="t" 
d="M508 926v-625q0 -159 85.5 -242.5t276.5 -83.5q119 0 242 48v153q-50 -18 -104 -31q-52 -12 -125 -12q-92 0 -142.5 41t-50.5 141v611h422v153h-422v332h-170v-219q0 -63 -24.5 -88t-87.5 -25h-291v-153h391z" />
    <glyph glyph-name="u" unicode="u" 
d="M221 1079v-751q0 -183 91.5 -269t254.5 -86q121 0 215 64q84 58 125 147h4v-184h176v1079h-184v-583q0 -371 -295 -371q-112 0 -166 72q-18 24 -27 64.5t-10.5 70.5t-1.5 84v663h-182z" />
    <glyph glyph-name="v" unicode="v" 
d="M754 0l411 1079h-174l-266 -714q-3 -8 -8 -21.5t-8.5 -24.5t-6.5 -20q-22 -65 -34 -104h-13q-12 39 -34 104q-3 9 -6.5 20t-8.5 24.5t-8 21.5l-266 714h-187l412 -1079h197z" />
    <glyph glyph-name="w" unicode="w" 
d="M485 0l127 604q3 15 9 44.5t8 39.5q9 67 20 164h13q2 -25 10 -84q15 -119 26 -164l127 -604h209l199 1079h-170l-113 -721l-6 -55q-3 -32 -6 -61l-6 -72h-12q-1 13 -4.5 37t-4.5 35q-1 6 -4 27t-4 34q-1 10 -2.5 20.5t-3 20.5t-2.5 14l-147 721h-179l-151 -721
q-1 -4 -2.5 -14t-3 -20.5t-2.5 -20.5q-1 -13 -4.5 -33.5t-4.5 -27.5q-1 -11 -4 -35t-4 -37h-12q-1 12 -2 35.5t-2 34.5q-4 71 -12 120l-117 719h-170l198 -1079h209z" />
    <glyph glyph-name="x" unicode="x" 
d="M334 0l305 428h6l307 -428h213l-413 565l376 514h-192l-274 -385h-9l-272 385h-211l379 -522l-410 -557h195z" />
    <glyph glyph-name="y" unicode="y" 
d="M582 0l-23 -57q-45 -117 -90 -156q-47 -39 -137 -39q-70 0 -160 21v-154q80 -23 170 -23q151 0 238 76q88 76 159 264l445 1147h-187l-254 -692q-23 -63 -26 -72q-25 -75 -33 -100h-8q-9 32 -14 45q-10 24 -19 53q-4 13 -25 70l-270 696h-196z" />
    <glyph glyph-name="z" unicode="z" 
d="M887 930l-701 -768v-162h930v152h-723l707 768v159h-881v-149h668z" />
    <glyph glyph-name="braceleft" unicode="{" 
d="M250 592h102q91 0 123.5 -34.5t32.5 -121.5v-344q0 -203 106 -282q102 -76 357 -76h45v143q-198 0 -262 39q-72 44 -72 166v340q0 104 -29 156q-43 77 -147 90v8q103 13 147 92q29 52 29 154v340q0 121 72 168q66 40 262 40v144h-45q-253 0 -357 -80q-106 -82 -106 -285
v-338q0 -87 -32 -121t-124 -34h-102v-164z" />
    <glyph glyph-name="bar" unicode="|" 
d="M731 -266v1880h-153v-1880h153z" />
    <glyph glyph-name="braceright" unicode="}" 
d="M1061 756h-103q-92 0 -124 35q-31 31 -31 120v344q0 201 -107 283q-102 76 -356 76h-45v-144q199 0 262 -38q72 -44 72 -166v-340q0 -104 28 -154q44 -79 148 -92v-8q-105 -13 -148 -90q-28 -50 -28 -156v-340q0 -122 -72 -166q-66 -43 -262 -43v-143h45q252 0 356 80
q107 82 107 284v338q0 90 31 121q32 35 124 35h103v164z" />
    <glyph glyph-name="asciitilde" unicode="~" 
d="M211 598h145q4 63 32.5 94t64.5 31q38 0 156 -51l6 -3t5.5 -2.5t6.5 -2.5q135 -62 217 -62q111 0 181.5 74.5t70.5 202.5h-146q-4 -64 -31 -95.5t-65 -31.5q-28 0 -72 20l-98 41q-146 61 -219 61q-112 0 -183 -74t-71 -202z" />
    <glyph glyph-name="DEL" horiz-adv-x="1024" 
 />
    <glyph glyph-name="uni00A0" unicode="&#xa0;" 
 />
    <glyph glyph-name="exclamdown" unicode="&#xa1;" 
d="M539 954h274v275h-274v-275zM602 743l-29 -1128h205l-26 1128h-150z" />
    <glyph glyph-name="cent" unicode="&#xa2;" 
d="M1120 352h-172q-4 -73 -45 -133q-60 -82 -160 -100v846q86 -16 134.5 -74.5t56.5 -136.5h180q-11 163 -119 256q-97 81 -252 94v196h-127v-198q-188 -23 -305 -182q-108 -150 -108 -385q0 -242 106 -387t307 -168v-218h127v218q159 18 259 111.5t118 260.5zM616 961v-840
q-229 48 -229 422q0 168 59 278.5t170 139.5z" />
    <glyph glyph-name="sterling" unicode="&#xa3;" 
d="M406 164v4l30 29q96 92 119 198q20 101 -16 252h415v146h-454l-25 90q-72 266 12 395q68 108 236 108q140 0 209 -96q55 -76 55 -207h189q0 219 -123.5 338t-337.5 119q-108 0 -207 -41.5t-164 -122.5q-47 -57 -71 -130.5t-22.5 -172t34.5 -209.5l22 -71h-164v-146h207
q48 -169 25 -262q-11 -47 -43.5 -89t-93.5 -95l-72 -60v-141h1008v164h-768z" />
    <glyph glyph-name="currency" unicode="&#xa4;" 
d="M1130 348l-165 164q32 47 45 117h221v164h-221q-12 61 -45 116l172 170l-113 113l-168 -172q-57 37 -121 51v219h-164v-219q-57 -11 -118 -47l-160 162l-117 -117l162 -162q-32 -55 -43 -114h-217v-164h217q10 -58 47 -121l-168 -166l113 -113l166 168q49 -32 118 -45
v-223h164v223q59 12 115 45l164 -166zM426 711q0 105 63 175t162 70q103 0 166 -69q62 -72 62 -176q0 -106 -63 -175t-165 -69q-99 0 -162 69.5t-63 174.5z" />
    <glyph glyph-name="yen" unicode="&#xa5;" 
d="M741 0v328h392v141h-392v190h387v142h-364l430 717h-190l-347 -594h-4l-329 594h-209l426 -717h-369v-142h397v-190h-393v-141h393v-328h172z" />
    <glyph glyph-name="brokenbar" unicode="&#xa6;" 
d="M578 1614v-821h153v821h-153zM731 631h-153v-897h153v897z" />
    <glyph glyph-name="section" unicode="&#xa7;" 
d="M156 721q0 -133 73 -215q62 -72 213 -137l258 -109q88 -37 123 -74.5t35 -107.5q0 -166 -225 -166q-119 0 -177.5 55.5t-72.5 165.5h-178q8 -171 114.5 -268.5t307.5 -97.5q204 0 308.5 85.5t104.5 241.5q0 62 -17 107.5t-60 91.5v6q213 78 213 293q0 110 -54 182
q-62 84 -223 152l-281 118q-73 29 -108 69t-35 116q0 73 53.5 121.5t157.5 48.5q105 0 164 -56q44 -47 55 -137h176q-11 156 -110 245t-281 89q-173 0 -284 -90q-109 -89 -109 -231q0 -135 74 -209v-4q-101 -41 -150 -95q-65 -68 -65 -190zM336 748q0 64 42.5 109.5
t113.5 55.5q7 -4 47 -24q23 -16 49 -25l256 -106q84 -34 118.5 -80.5t34.5 -114.5q0 -76 -36.5 -117.5t-116.5 -60.5q-47 28 -92 47l-279 119q-77 35 -107 79.5t-30 117.5z" />
    <glyph glyph-name="dieresis" unicode="&#xa8;" 
d="M565 1282v264h-266v-264h266zM1006 1546h-265v-264h265v264z" />
    <glyph glyph-name="copyright" unicode="&#xa9;" 
d="M102 864v-168q0 -344 127 -526q138 -203 426 -203q287 0 428 205q125 183 125 524v168q0 334 -125 520q-141 207 -428 207t-428 -207q-125 -183 -125 -520zM236 705v151q0 271 77 424q100 199 342 199q240 0 344 -199q76 -146 76 -424v-151q0 -288 -76 -431
q-101 -194 -344 -194q-244 0 -342 194q-77 150 -77 431zM913 637h-145q0 -64 -18 -109q-24 -61 -82 -61q-79 0 -103 76q-26 71 -26 239q0 166 30 240q27 74 95 74q62 0 83 -37.5t23 -114.5h141q-3 145 -73 215q-63 60 -168 60q-143 0 -209 -99q-68 -101 -68 -344
q0 -240 66 -340q62 -94 207 -94q227 0 247 295z" />
    <glyph glyph-name="ordfeminine" unicode="&#xaa;" 
d="M834 768h12q11 -82 53.5 -108.5t134.5 -26.5h60v137h-37q-36 0 -51 15.5t-15 58.5v356q0 176 -87 257t-261 81q-158 0 -252.5 -74t-105.5 -198h159q18 143 193 143q194 0 194 -211v-31q-129 -5 -191.5 -9t-136 -17t-118.5 -35q-139 -68 -139 -227q0 -125 74.5 -194
t218.5 -69q199 0 295 152zM569 750q-151 0 -151 139q0 73 49 108q42 28 131 37q88 9 233 15v-19q0 -143 -88 -217q-75 -63 -174 -63z" />
    <glyph glyph-name="guillemotleft" unicode="&#xab;" 
d="M223 535l234 -418h188l-223 411l213 422h-180zM637 535l233 -418h187l-221 411l213 422h-181z" />
    <glyph glyph-name="logicalnot" unicode="&#xac;" 
d="M1126 813h-942v-162h777v-391h165v553z" />
    <glyph glyph-name="registered" unicode="&#xae;" 
d="M152 1079q0 -105 37.5 -197.5t105.5 -160.5q145 -148 358 -148q218 0 363 148q68 68 105.5 160.5t37.5 197.5t-37.5 199t-105.5 164q-144 147 -363 147q-214 0 -358 -147q-68 -70 -105.5 -164t-37.5 -199zM653 664q-169 0 -284 118q-113 116 -113 297q0 182 113 301
t284 119q175 0 291 -119q115 -121 115 -301q0 -179 -115 -297q-118 -118 -291 -118zM641 1047l107 -209h120l-116 225q45 11 73 41q37 37 37 104q0 75 -55 117q-46 35 -123 35h-215v-522h106v209h66zM575 1280h89q42 0 65 -18.5t23 -53.5q0 -78 -90 -78h-87v150z" />
    <glyph glyph-name="macron" unicode="&#xaf;" 
d="M979 1303v170h-651v-170h651z" />
    <glyph glyph-name="degree" unicode="&#xb0;" 
d="M231 1128q0 -182 121 -303q117 -120 301 -120q185 0 305 120q119 122 119 303q0 182 -119 304q-123 120 -305 120q-181 0 -301 -120q-121 -121 -121 -304zM653 846q-115 0 -188 80q-74 81 -74 202q0 119 74 203q72 82 188 82q115 0 191 -82q71 -77 71 -203
q0 -124 -72 -203t-190 -79z" />
    <glyph glyph-name="plusminus" unicode="&#xb1;" 
d="M1126 715v157h-389v392h-166v-392h-387v-157h387v-393h166v393h389zM1126 0v158h-942v-158h942z" />
    <glyph glyph-name="twosuperior" unicode="&#xb2;" 
d="M272 1389h156q8 249 219 249q88 0 142.5 -50t54.5 -132q0 -89 -47 -156q-44 -65 -150 -157l-389 -350v-113h768v143h-539v6q27 19 43 33q5 4 48 37q35 27 57 47l135 121q122 106 184 199q54 82 54 194q0 143 -101 228q-98 79 -260 79q-170 0 -272 -100t-103 -278z" />
    <glyph glyph-name="threesuperior" unicode="&#xb3;" 
d="M561 1157h98q104 0 161 -47t57 -133q0 -84 -62 -135t-156 -51q-96 0 -157.5 48.5t-73.5 145.5h-164q9 -138 98 -227q101 -101 287 -101q179 0 289 95q100 86 100 219q0 116 -63 182q-56 56 -156 80v4q95 34 144 93.5t49 154.5q0 126 -92 203q-98 79 -263 79
q-179 0 -282 -100q-92 -89 -92 -225h163q6 190 207 190q87 0 140 -44.5t53 -121.5q0 -78 -52.5 -127t-138.5 -49h-94v-133z" />
    <glyph glyph-name="acute" unicode="&#xb4;" 
d="M659 1247l242 367h-276l-123 -367h157z" />
    <glyph glyph-name="paragraph" unicode="&#xb6;" 
d="M741 0v1567h-151q-185 0 -295 -88q-121 -94 -121 -283q0 -181 115 -276q113 -96 291 -99v-821h161zM907 0h162v1567h-162v-1567z" />
    <glyph glyph-name="periodcentered" unicode="&#xb7;" 
d="M793 506v274h-275v-274h275z" />
    <glyph glyph-name="cedilla" unicode="&#xb8;" 
d="M666 -444q107 0 167 53t60 135q0 85 -49.5 128.5t-141.5 43.5h-65l82 178h-107l-143 -315h145q27 31 64 31q35 0 53.5 -19.5t18.5 -52.5q0 -72 -74 -72q-49 0 -64 35h-157q13 -72 68 -108.5t143 -36.5z" />
    <glyph glyph-name="onesuperior" unicode="&#xb9;" 
d="M1022 811h-256v944h-137q0 -57 -12.5 -90.5t-41.5 -58.5q-46 -43 -159 -43h-70v-125h262v-627h-268v-131h682v131z" />
    <glyph glyph-name="ordmasculine" unicode="&#xba;" 
d="M653 614q190 0 305 127q111 126 111 336q0 214 -104 336q-109 125 -310 125q-189 0 -303 -127q-110 -125 -110 -334q0 -212 106 -336q108 -127 305 -127zM657 748q-125 0 -182 84t-57 245q0 157 59.5 243.5t175.5 86.5q240 0 240 -330q0 -329 -236 -329z" />
    <glyph glyph-name="guillemotright" unicode="&#xbb;" 
d="M674 535l-232 415h-186l221 -411l-215 -422h182zM1087 535l-233 415h-184l219 -411l-213 -422h180z" />
    <glyph glyph-name="onequarter" unicode="&#xbc;" horiz-adv-x="3932" 
d="M1022 657h-256v945h-137q0 -57 -12.5 -91t-41.5 -59q-46 -43 -159 -43h-70v-125h262v-627h-268v-131h682v131zM1530 -82l1163 1679h-168l-1163 -1679h168zM3504 305h-172v684h-194l-486 -696v-121h526v-254h154v254h172v133zM2814 303l293 416q32 46 49 80l16 32l13 -2
v-526h-371z" />
    <glyph glyph-name="onehalf" unicode="&#xbd;" horiz-adv-x="3932" 
d="M1022 657h-256v945h-137q0 -57 -12.5 -91t-41.5 -59q-46 -43 -159 -43h-70v-125h262v-627h-268v-131h682v131zM1468 -82l1164 1679h-168l-1164 -1679h168zM2689 627h156q8 250 219 250q88 0 142 -50.5t54 -132.5q0 -88 -47 -155q-47 -69 -149 -158l-389 -350v-113h768
v143h-539v7q34 24 43 32q8 6 24.5 19.5t22.5 17.5q43 33 58 47l135 121q122 106 184 199q53 80 53 194q0 144 -100 228q-100 80 -260 80q-170 0 -272 -100.5t-103 -278.5z" />
    <glyph glyph-name="threequarters" unicode="&#xbe;" horiz-adv-x="3932" 
d="M561 1004h98q104 0 161 -47.5t57 -133.5q0 -84 -62 -135t-156 -51q-96 0 -157.5 48.5t-73.5 145.5h-164q9 -138 98 -227q100 -100 287 -100q180 0 289 94q100 86 100 219q0 116 -63 182q-56 56 -156 80v4q95 34 144 93.5t49 154.5q0 126 -92 203q-100 80 -263 80
q-178 0 -282 -101q-92 -89 -92 -225h163q6 191 207 191q87 0 140 -44.5t53 -121.5q0 -78 -52.5 -127t-138.5 -49h-94v-133zM1509 -82l1164 1679h-168l-1164 -1679h168zM3504 305h-172v684h-194l-486 -696v-121h526v-254h154v254h172v133zM2814 303l293 416q32 46 49 80
l16 32l13 -2v-526h-371z" />
    <glyph glyph-name="questiondown" unicode="&#xbf;" 
d="M518 954h275v275h-275v-275zM367 20q0 83 34.5 146t104.5 121l86 75q5 4 18 15.5t17.5 15.5t15 13.5t14.5 13t12.5 11.5t12 12t9.5 11t9.5 11.5t7.5 10.5t7 11q24 44 24 146v131h-168v-100q0 -76 -12 -101q-3 -7 -8 -13.5t-13 -15t-13.5 -14.5t-19.5 -18.5t-22 -20.5
l-75 -65q-108 -92 -152 -160q-72 -111 -72 -252q0 -77 28 -150t83 -128q129 -129 352 -129q110 0 203 38t158 107q136 146 127 383h-174q4 -178 -79.5 -273.5t-238.5 -95.5q-126 0 -201 73t-75 191z" />
    <glyph glyph-name="Agrave" unicode="&#xc0;" 
d="M356 1966l215 -272h166l-104 272h-277zM1239 0l-461 1567h-250l-456 -1567h192l129 467h510l131 -467h205zM641 1384h16q18 -69 43 -180q1 -6 21 -82l139 -501h-424l139 501q13 57 41 162q7 33 19 68q6 27 6 32z" />
    <glyph glyph-name="Aacute" unicode="&#xc1;" 
d="M748 1694l215 272h-277l-104 -272h166zM1239 0l-461 1567h-250l-456 -1567h192l129 467h510l131 -467h205zM641 1384h16q18 -69 43 -180q1 -6 21 -82l139 -501h-424l139 501q13 57 41 162q7 33 19 68q6 27 6 32z" />
    <glyph glyph-name="Acircumflex" unicode="&#xc2;" 
d="M539 1966l-199 -272h172l137 135h6l138 -135h178l-199 272h-233zM1239 0l-461 1567h-250l-456 -1567h192l129 467h510l131 -467h205zM641 1384h16q18 -69 43 -180q1 -6 21 -82l139 -501h-424l139 501q13 57 41 162q7 33 19 68q6 27 6 32z" />
    <glyph glyph-name="Atilde" unicode="&#xc3;" 
d="M283 1694h151q11 116 86 116q26 0 58 -16q29 -19 63 -37q96 -55 164 -55q104 0 164 76t65 200h-149q-6 -62 -25 -89t-59 -27q-32 0 -62 18q-24 12 -65 37q-33 18 -50.5 26t-50 17.5t-63.5 9.5q-103 0 -162.5 -75t-64.5 -201zM1239 0l-461 1567h-250l-456 -1567h192
l129 467h510l131 -467h205zM641 1384h16q18 -69 43 -180q1 -6 21 -82l139 -501h-424l139 501q13 57 41 162q7 33 19 68q6 27 6 32z" />
    <glyph glyph-name="Adieresis" unicode="&#xc4;" 
d="M565 1694v264h-266v-264h266zM1006 1694v264h-265v-264h265zM1239 0l-461 1567h-250l-456 -1567h192l129 467h510l131 -467h205zM641 1384h16q18 -69 43 -180q1 -6 21 -82l139 -501h-424l139 501q13 57 41 162q7 33 19 68q6 27 6 32z" />
    <glyph glyph-name="Aring" unicode="&#xc5;" 
d="M647 1632q118 0 192 73.5t74 186.5q0 114 -73 187q-75 75 -193 75q-115 0 -190 -75q-74 -74 -74 -187q0 -112 74 -186t190 -74zM647 2044q62 0 100.5 -44t38.5 -108q0 -66 -38 -107.5t-101 -41.5q-61 0 -99 41.5t-38 107.5q0 64 38.5 108t98.5 44zM1239 0l-461 1567h-250
l-456 -1567h192l129 467h510l131 -467h205zM641 1384h16q18 -69 43 -180q1 -6 21 -82l139 -501h-424l139 501q13 57 41 162q7 33 19 68q6 27 6 32z" />
    <glyph glyph-name="AE" unicode="&#xc6;" 
d="M653 467v-467h643v166h-465v545h390v161h-390v529h455v166h-792l-508 -1567h180l149 467h338zM365 621l247 780h41v-780h-288z" />
    <glyph glyph-name="Ccedilla" unicode="&#xc7;" 
d="M670 -449q107 0 167 53t60 136q0 85 -49 128.5t-141 43.5h-66l25 55h24q222 0 365 150q131 137 147 370h-186q-14 -152 -80 -247q-85 -117 -244 -117q-200 0 -289.5 155.5t-89.5 499.5q0 341 90 499.5t291 158.5q146 0 234 -109q69 -93 86 -229h192q-23 245 -172 375
q-133 116 -338 116q-279 0 -430 -204.5t-151 -606.5q0 -376 116 -573q110 -189 334 -228l-92 -202h145q26 30 64 30q35 0 53.5 -19t18.5 -52q0 -72 -74 -72q-49 0 -64 35h-157q13 -72 68 -109t143 -37z" />
    <glyph glyph-name="Egrave" unicode="&#xc8;" 
d="M418 1966l215 -272h166l-105 272h-276zM1165 0v166h-759v545h643v161h-643v529h749v166h-940v-1567h950z" />
    <glyph glyph-name="Eacute" unicode="&#xc9;" 
d="M770 1694l215 272h-276l-105 -272h166zM1165 0v166h-759v545h643v161h-643v529h749v166h-940v-1567h950z" />
    <glyph glyph-name="Ecircumflex" unicode="&#xca;" 
d="M582 1966l-199 -272h172l137 135h6l138 -135h178l-199 272h-233zM1165 0v166h-759v545h643v161h-643v529h749v166h-940v-1567h950z" />
    <glyph glyph-name="Edieresis" unicode="&#xcb;" 
d="M612 1694v264h-266v-264h266zM1053 1694v264h-265v-264h265zM1165 0v166h-759v545h643v161h-643v529h749v166h-940v-1567h950z" />
    <glyph glyph-name="Igrave" unicode="&#xcc;" 
d="M356 1966l215 -272h166l-104 272h-277zM1106 1413v154h-901v-154h356v-1259h-356v-154h901v154h-356v1259h356z" />
    <glyph glyph-name="Iacute" unicode="&#xcd;" 
d="M748 1694l215 272h-277l-104 -272h166zM1106 1413v154h-901v-154h356v-1259h-356v-154h901v154h-356v1259h356z" />
    <glyph glyph-name="Icircumflex" unicode="&#xce;" 
d="M539 1966l-199 -272h172l137 135h6l138 -135h178l-199 272h-233zM1106 1413v154h-901v-154h356v-1259h-356v-154h901v154h-356v1259h356z" />
    <glyph glyph-name="Idieresis" unicode="&#xcf;" 
d="M569 1694v264h-266v-264h266zM1010 1694v264h-265v-264h265zM1106 1413v154h-901v-154h356v-1259h-356v-154h901v154h-356v1259h356z" />
    <glyph glyph-name="Eth" unicode="&#xd0;" 
d="M158 0h336q335 0 512 188q192 201 192 615q0 411 -203 598q-180 166 -524 166h-313v-697h-150v-157h150v-713zM348 713h377v157h-377v535h154q244 0 366 -139q131 -153 131 -469q0 -341 -129 -488q-123 -143 -381 -143h-141v547z" />
    <glyph glyph-name="Ntilde" unicode="&#xd1;" 
d="M322 1694h151q11 116 86 116q25 0 57 -16q25 -17 64 -37q96 -55 164 -55q104 0 164 76t65 200h-149q-6 -62 -25 -89t-59 -27q-32 0 -62 18q-24 12 -65 37q-33 18 -50.5 26t-50 17.5t-63.5 9.5q-103 0 -162.5 -75t-64.5 -201zM322 0v1341h10q4 -18 39 -116q14 -39 30 -76
l506 -1149h252v1567h-170v-1342h-12l-19 62q-6 17 -49 129l-506 1151h-251v-1567h170z" />
    <glyph glyph-name="Ograve" unicode="&#xd2;" 
d="M356 1966l215 -272h166l-104 272h-277zM100 778q0 -432 148 -631q134 -180 405 -180q269 0 406 180q151 203 151 631q0 436 -149 633q-135 178 -404 178q-264 0 -401 -178q-156 -202 -156 -633zM655 121q-181 0 -264 155q-88 158 -88 502q0 348 88 506q83 152 264 152
q183 0 267 -148q86 -157 86 -510q0 -351 -84 -504q-82 -153 -269 -153z" />
    <glyph glyph-name="Oacute" unicode="&#xd3;" 
d="M748 1694l215 272h-277l-104 -272h166zM100 778q0 -432 148 -631q134 -180 405 -180q269 0 406 180q151 203 151 631q0 436 -149 633q-135 178 -404 178q-264 0 -401 -178q-156 -202 -156 -633zM655 121q-181 0 -264 155q-88 158 -88 502q0 348 88 506q83 152 264 152
q183 0 267 -148q86 -157 86 -510q0 -351 -84 -504q-82 -153 -269 -153z" />
    <glyph glyph-name="Ocircumflex" unicode="&#xd4;" 
d="M539 1966l-199 -272h172l137 135h6l138 -135h178l-199 272h-233zM100 778q0 -432 148 -631q134 -180 405 -180q269 0 406 180q151 203 151 631q0 436 -149 633q-135 178 -404 178q-264 0 -401 -178q-156 -202 -156 -633zM655 121q-181 0 -264 155q-88 158 -88 502
q0 348 88 506q83 152 264 152q183 0 267 -148q86 -157 86 -510q0 -351 -84 -504q-82 -153 -269 -153z" />
    <glyph glyph-name="Otilde" unicode="&#xd5;" 
d="M299 1694h152q11 116 86 116q25 0 57 -16q28 -19 63 -37q96 -55 164 -55q104 0 164.5 76t65.5 200h-150q-6 -62 -25 -89t-59 -27q-31 0 -61 18q-29 15 -66 37q-33 18 -50.5 26t-50 17.5t-63.5 9.5q-103 0 -162.5 -75t-64.5 -201zM100 778q0 -432 148 -631
q134 -180 405 -180q269 0 406 180q151 203 151 631q0 436 -149 633q-135 178 -404 178q-264 0 -401 -178q-156 -202 -156 -633zM655 121q-181 0 -264 155q-88 158 -88 502q0 348 88 506q83 152 264 152q183 0 267 -148q86 -157 86 -510q0 -351 -84 -504q-82 -153 -269 -153z
" />
    <glyph glyph-name="Odieresis" unicode="&#xd6;" 
d="M569 1694v264h-266v-264h266zM1010 1694v264h-265v-264h265zM100 778q0 -432 148 -631q134 -180 405 -180q269 0 406 180q151 203 151 631q0 436 -149 633q-135 178 -404 178q-264 0 -401 -178q-156 -202 -156 -633zM655 121q-181 0 -264 155q-88 158 -88 502
q0 348 88 506q83 152 264 152q183 0 267 -148q86 -157 86 -510q0 -351 -84 -504q-82 -153 -269 -153z" />
    <glyph glyph-name="multiply" unicode="&#xd7;" 
d="M651 600l346 -350l115 115l-348 348l350 344l-113 112l-344 -348l-346 348l-114 -114l346 -346l-350 -344l112 -113z" />
    <glyph glyph-name="Oslash" unicode="&#xd8;" 
d="M1210 778q0 364 -112 565l184 281h-149l-115 -172q-137 137 -361 137q-264 0 -401 -178q-156 -202 -156 -633q0 -356 105 -555l-180 -274h149l109 164q135 -146 370 -146q269 0 406 180q151 203 151 631zM655 1436q186 0 265 -133l-588 -887q-33 132 -33 362
q0 348 88 506q86 152 268 152zM655 121q-186 0 -268 149l588 891q37 -142 37 -383q0 -347 -86 -504q-82 -153 -271 -153z" />
    <glyph glyph-name="Ugrave" unicode="&#xd9;" 
d="M373 1966l215 -272h166l-105 272h-276zM141 1567v-1045q0 -285 142 -424q129 -129 372 -129q242 0 371 129q141 141 141 424v1045h-186v-1043q0 -185 -72 -288q-81 -111 -252 -111q-170 0 -251 111q-74 102 -74 288v1043h-191z" />
    <glyph glyph-name="Uacute" unicode="&#xda;" 
d="M754 1694l215 272h-277l-104 -272h166zM141 1567v-1045q0 -285 142 -424q129 -129 372 -129q242 0 371 129q141 141 141 424v1045h-186v-1043q0 -185 -72 -288q-81 -111 -252 -111q-170 0 -251 111q-74 102 -74 288v1043h-191z" />
    <glyph glyph-name="Ucircumflex" unicode="&#xdb;" 
d="M545 1966l-199 -272h172l137 135h7l137 -135h178l-199 272h-233zM141 1567v-1045q0 -285 142 -424q129 -129 372 -129q242 0 371 129q141 141 141 424v1045h-186v-1043q0 -185 -72 -288q-81 -111 -252 -111q-170 0 -251 111q-74 102 -74 288v1043h-191z" />
    <glyph glyph-name="Udieresis" unicode="&#xdc;" 
d="M575 1694v264h-266v-264h266zM1016 1694v264h-264v-264h264zM141 1567v-1045q0 -285 142 -424q129 -129 372 -129q242 0 371 129q141 141 141 424v1045h-186v-1043q0 -185 -72 -288q-81 -111 -252 -111q-170 0 -251 111q-74 102 -74 288v1043h-191z" />
    <glyph glyph-name="Yacute" unicode="&#xdd;" 
d="M756 1694l215 272h-277l-104 -272h166zM750 0v674l485 893h-193l-376 -723h-4l-375 723h-211l485 -899v-668h189z" />
    <glyph glyph-name="Thorn" unicode="&#xde;" 
d="M403 352h259q237 0 368 112t131 335q0 219 -133 336q-121 104 -350 104h-275v328h-190v-1567h190v352zM403 510v571h261q162 0 232.5 -63t70.5 -219q0 -148 -69 -216.5t-226 -72.5h-269z" />
    <glyph glyph-name="germandbls" unicode="&#xdf;" 
d="M410 0v1147q0 160 75 242q62 67 174 67q114 0 183 -65.5t69 -190.5q0 -129 -64.5 -199.5t-180.5 -70.5h-41v-158h45q153 0 237 -84t84 -227q0 -155 -90 -232q-83 -71 -231 -71h-80v-158h76q238 0 375 120.5t137 340.5q0 174 -88 280q-83 96 -222 121v4q110 38 170 128.5
t60 219.5q0 188 -121 293q-119 101 -318 101q-191 0 -307 -107q-127 -117 -127 -344v-1157h185z" />
    <glyph glyph-name="agrave" unicode="&#xe0;" 
d="M621 1614h-277l242 -367h157zM874 195h13q6 -105 56 -150t169 -45h57v150h-36q-50 0 -67 16t-17 65v480q0 199 -113 303q-105 92 -299 92q-190 0 -301 -96q-101 -88 -111 -232h178q4 73 54 123q62 62 180 62q119 0 177 -61t58 -195v-56q-381 -12 -532 -90
q-162 -79 -162 -266q0 -146 93 -229.5t257 -83.5q122 0 210 55t136 158zM362 305q0 81 60 129q52 37 157.5 54.5t292.5 25.5v-25q0 -181 -104 -278q-83 -80 -207 -80q-94 0 -146.5 44.5t-52.5 129.5z" />
    <glyph glyph-name="aacute" unicode="&#xe1;" 
d="M713 1247l241 367h-276l-123 -367h158zM874 195h13q6 -105 56 -150t169 -45h57v150h-36q-50 0 -67 16t-17 65v480q0 199 -113 303q-105 92 -299 92q-190 0 -301 -96q-101 -88 -111 -232h178q4 73 54 123q62 62 180 62q119 0 177 -61t58 -195v-56q-381 -12 -532 -90
q-162 -79 -162 -266q0 -146 93 -229.5t257 -83.5q122 0 210 55t136 158zM362 305q0 81 60 129q52 37 157.5 54.5t292.5 25.5v-25q0 -181 -104 -278q-83 -80 -207 -80q-94 0 -146.5 44.5t-52.5 129.5z" />
    <glyph glyph-name="acircumflex" unicode="&#xe2;" 
d="M567 1614l-209 -367h154l152 213h2l151 -213h172l-209 367h-213zM874 195h13q6 -105 56 -150t169 -45h57v150h-36q-50 0 -67 16t-17 65v480q0 199 -113 303q-105 92 -299 92q-190 0 -301 -96q-101 -88 -111 -232h178q4 73 54 123q62 62 180 62q119 0 177 -61t58 -195v-56
q-381 -12 -532 -90q-162 -79 -162 -266q0 -146 93 -229.5t257 -83.5q122 0 210 55t136 158zM362 305q0 81 60 129q52 37 157.5 54.5t292.5 25.5v-25q0 -181 -104 -278q-83 -80 -207 -80q-94 0 -146.5 44.5t-52.5 129.5z" />
    <glyph glyph-name="atilde" unicode="&#xe3;" 
d="M283 1268h151q11 125 88 125q6 0 12 -1t12.5 -3t12 -4t13.5 -6.5t13 -7t14.5 -8.5t14 -9l15 -10t14.5 -9q88 -57 156 -57q103 0 162.5 79t64.5 210h-149q-6 -65 -26 -95t-60 -30q-9 0 -17 1.5t-17.5 5t-16.5 6.5t-18 9.5t-16.5 10t-19 12.5t-18.5 12q-88 57 -160 57
q-103 0 -161.5 -77.5t-63.5 -210.5zM874 195h13q6 -105 56 -150t169 -45h57v150h-36q-50 0 -67 16t-17 65v480q0 199 -113 303q-105 92 -299 92q-190 0 -301 -96q-101 -88 -111 -232h178q4 73 54 123q62 62 180 62q119 0 177 -61t58 -195v-56q-381 -12 -532 -90
q-162 -79 -162 -266q0 -146 93 -229.5t257 -83.5q122 0 210 55t136 158zM362 305q0 81 60 129q52 37 157.5 54.5t292.5 25.5v-25q0 -181 -104 -278q-83 -80 -207 -80q-94 0 -146.5 44.5t-52.5 129.5z" />
    <glyph glyph-name="adieresis" unicode="&#xe4;" 
d="M565 1280v264h-266v-264h266zM1006 1544h-265v-264h265v264zM874 195h13q6 -105 56 -150t169 -45h57v150h-36q-50 0 -67 16t-17 65v480q0 199 -113 303q-105 92 -299 92q-190 0 -301 -96q-101 -88 -111 -232h178q4 73 54 123q62 62 180 62q119 0 177 -61t58 -195v-56
q-381 -12 -532 -90q-162 -79 -162 -266q0 -146 93 -229.5t257 -83.5q122 0 210 55t136 158zM362 305q0 81 60 129q52 37 157.5 54.5t292.5 25.5v-25q0 -181 -104 -278q-83 -80 -207 -80q-94 0 -146.5 44.5t-52.5 129.5z" />
    <glyph glyph-name="aring" unicode="&#xe5;" 
d="M391 1452q0 -112 74 -186t190 -74q118 0 192.5 73.5t74.5 186.5q0 112 -74 186q-76 76 -193 76q-114 0 -190 -76q-74 -74 -74 -186zM655 1303q-61 0 -99 41.5t-38 107.5q0 64 38.5 108t98.5 44q62 0 101 -44t39 -108q0 -66 -38.5 -107.5t-101.5 -41.5zM874 195h13
q6 -105 56 -150t169 -45h57v150h-36q-50 0 -67 16t-17 65v480q0 199 -113 303q-105 92 -299 92q-190 0 -301 -96q-101 -88 -111 -232h178q4 73 54 123q62 62 180 62q119 0 177 -61t58 -195v-56q-381 -12 -532 -90q-162 -79 -162 -266q0 -146 93 -229.5t257 -83.5
q122 0 210 55t136 158zM362 305q0 81 60 129q52 37 157.5 54.5t292.5 25.5v-25q0 -181 -104 -278q-83 -80 -207 -80q-94 0 -146.5 44.5t-52.5 129.5z" />
    <glyph glyph-name="ae" unicode="&#xe6;" 
d="M1235 283h-166q-13 -70 -37 -105q-42 -55 -123 -55q-114 0 -155 100q-37 90 -37 279h530v170q0 194 -71 307q-83 127 -252 127q-97 0 -167.5 -44.5t-103.5 -119.5h-8q-70 164 -260 164q-158 0 -244 -96q-79 -88 -82 -226h160q3 76 39 123q41 54 125 54q87 0 123.5 -54.5
t36.5 -154.5v-113q-153 0 -236 -12q-77 -13 -135 -49q-65 -39 -104 -110t-39 -167q0 -152 78.5 -236.5t211.5 -84.5q116 0 193 61q59 46 102 141h7q28 -89 96 -145q73 -60 194 -60q140 0 223.5 79.5t100.5 226.5zM1071 637h-356q2 159 42.5 240t139.5 81q103 0 143 -84
q31 -66 31 -223v-14zM356 123q-145 0 -145 188q0 96 53 146q29 29 82 39q56 11 197 8v-72q0 -150 -47 -229.5t-140 -79.5z" />
    <glyph glyph-name="ccedilla" unicode="&#xe7;" 
d="M676 -444q107 0 167 53t60 135q0 85 -49 128.5t-141 43.5h-66l27 57h6q188 0 313 101q131 106 154 278h-186q-15 -87 -74 -149q-79 -82 -207 -82q-163 0 -236 115q-67 101 -67 309q0 196 75 306t228 110q116 0 192 -66q65 -59 78 -141h191q-25 177 -156 270
q-118 82 -295 82q-238 0 -373 -154q-133 -155 -133 -415q2 -240 99 -381.5t288 -173.5l-92 -203h146q27 31 63 31q35 0 53.5 -19.5t18.5 -52.5q0 -72 -74 -72q-48 0 -63 35h-158q13 -72 68 -108.5t143 -36.5z" />
    <glyph glyph-name="egrave" unicode="&#xe8;" 
d="M637 1614h-277l242 -367h158zM1122 283h-176q-21 -70 -65 -107q-73 -59 -197 -59q-158 0 -240 102q-79 98 -88 270h785v95q0 223 -109 364q-125 158 -360 158q-239 0 -373 -166q-129 -160 -129 -405q0 -253 125 -402q134 -160 383 -160q178 0 295.5 83.5t148.5 226.5z
M952 637h-592q18 153 96.5 240.5t213.5 87.5q143 0 215 -91q64 -81 67 -225v-12z" />
    <glyph glyph-name="eacute" unicode="&#xe9;" 
d="M737 1247l242 367h-277l-122 -367h157zM1122 283h-176q-21 -70 -65 -107q-73 -59 -197 -59q-158 0 -240 102q-79 98 -88 270h785v95q0 223 -109 364q-125 158 -360 158q-239 0 -373 -166q-129 -160 -129 -405q0 -253 125 -402q134 -160 383 -160q178 0 295.5 83.5
t148.5 226.5zM952 637h-592q18 153 96.5 240.5t213.5 87.5q143 0 215 -91q64 -81 67 -225v-12z" />
    <glyph glyph-name="ecircumflex" unicode="&#xea;" 
d="M580 1614l-209 -367h153l152 213h2l151 -213h172l-208 367h-213zM1122 283h-176q-21 -70 -65 -107q-73 -59 -197 -59q-158 0 -240 102q-79 98 -88 270h785v95q0 223 -109 364q-125 158 -360 158q-239 0 -373 -166q-129 -160 -129 -405q0 -253 125 -402q134 -160 383 -160
q178 0 295.5 83.5t148.5 226.5zM952 637h-592q18 153 96.5 240.5t213.5 87.5q143 0 215 -91q64 -81 67 -225v-12z" />
    <glyph glyph-name="edieresis" unicode="&#xeb;" 
d="M592 1280v264h-266v-264h266zM1032 1544h-264v-264h264v264zM1122 283h-176q-21 -70 -65 -107q-73 -59 -197 -59q-158 0 -240 102q-79 98 -88 270h785v95q0 223 -109 364q-125 158 -360 158q-239 0 -373 -166q-129 -160 -129 -405q0 -253 125 -402q134 -160 383 -160
q178 0 295.5 83.5t148.5 226.5zM952 637h-592q18 153 96.5 240.5t213.5 87.5q143 0 215 -91q64 -81 67 -225v-12z" />
    <glyph glyph-name="igrave" unicode="&#xec;" 
d="M616 1614h-276l242 -367h157zM1165 154h-403v925h-514v-147h338v-778h-398v-154h977v154z" />
    <glyph glyph-name="iacute" unicode="&#xed;" 
d="M745 1247l242 367h-276l-123 -367h157zM1165 154h-403v925h-514v-147h338v-778h-398v-154h977v154z" />
    <glyph glyph-name="icircumflex" unicode="&#xee;" 
d="M543 1614l-209 -367h153l152 213h2l152 -213h172l-209 367h-213zM1165 154h-403v925h-514v-147h338v-778h-398v-154h977v154z" />
    <glyph glyph-name="idieresis" unicode="&#xef;" 
d="M557 1280v264h-266v-264h266zM997 1544h-264v-264h264v264zM1165 154h-403v925h-514v-147h338v-778h-398v-154h977v154z" />
    <glyph glyph-name="eth" unicode="&#xf0;" 
d="M653 -27q245 0 375.5 153t130.5 445q0 219 -85.5 421.5t-250.5 373.5l201 74l-45 121l-260 -97q-99 86 -225 158l-158 -59q57 -38 217 -160l-250 -92l43 -123l316 117q156 -150 227 -297h-10q-96 96 -250 96q-103 0 -191.5 -41t-150.5 -115q-135 -161 -135 -407
q0 -259 129 -410q130 -158 372 -158zM662 965q164 0 235.5 -102t71.5 -322q0 -203 -77 -313.5t-233 -110.5q-315 0 -315 424q0 202 80 313t238 111z" />
    <glyph glyph-name="ntilde" unicode="&#xf1;" 
d="M299 1268h152q11 125 88 125q7 0 14.5 -1.5t17 -5.5t15.5 -6.5t18 -10t17 -10.5t19.5 -12t18.5 -12q88 -57 156 -57q103 0 162.5 79t64.5 210h-149q-6 -65 -26 -95t-60 -30q-9 0 -17 1.5t-17.5 5t-16.5 6.5t-18 9.5t-16.5 10t-19 12.5t-18.5 12q-88 57 -160 57
q-103 0 -161.5 -77.5t-63.5 -210.5zM1096 0v752q0 182 -95 274q-86 80 -249 80q-123 0 -220 -64q-90 -60 -129 -145h-4v182h-174v-1079h187v647q0 139 71 219q73 86 219 86q116 0 170 -71q18 -24 26.5 -65t9.5 -66t1 -84v-666h187z" />
    <glyph glyph-name="ograve" unicode="&#xf2;" 
d="M610 1614h-276l241 -367h158zM655 -27q243 0 373.5 148.5t130.5 419.5t-129 418t-375 147q-243 0 -373 -147.5t-130 -417.5q0 -271 129 -419.5t374 -148.5zM655 963q158 0 236 -109.5t78 -312.5q0 -424 -314 -424q-313 0 -313 424q0 203 77.5 312.5t235.5 109.5z" />
    <glyph glyph-name="oacute" unicode="&#xf3;" 
d="M717 1247l241 367h-276l-123 -367h158zM655 -27q243 0 373.5 148.5t130.5 419.5t-129 418t-375 147q-243 0 -373 -147.5t-130 -417.5q0 -271 129 -419.5t374 -148.5zM655 963q158 0 236 -109.5t78 -312.5q0 -424 -314 -424q-313 0 -313 424q0 203 77.5 312.5t235.5 109.5
z" />
    <glyph glyph-name="ocircumflex" unicode="&#xf4;" 
d="M557 1614l-209 -367h154l151 213h2l152 -213h172l-209 367h-213zM655 -27q243 0 373.5 148.5t130.5 419.5t-129 418t-375 147q-243 0 -373 -147.5t-130 -417.5q0 -271 129 -419.5t374 -148.5zM655 963q158 0 236 -109.5t78 -312.5q0 -424 -314 -424q-313 0 -313 424
q0 203 77.5 312.5t235.5 109.5z" />
    <glyph glyph-name="otilde" unicode="&#xf5;" 
d="M301 1268h152q11 125 88 125q6 0 12 -1t12.5 -3t12 -4t13.5 -6.5t13 -7t14.5 -8.5t14 -9l15 -10t14.5 -9q88 -57 155 -57q103 0 162.5 79t64.5 210h-149q-6 -65 -26 -95t-60 -30q-9 0 -17 1.5t-17.5 5t-16.5 6.5t-18 9.5t-16.5 10t-19 12.5t-18.5 12q-88 57 -160 57
q-103 0 -161.5 -77.5t-63.5 -210.5zM655 -27q243 0 373.5 148.5t130.5 419.5t-129 418t-375 147q-243 0 -373 -147.5t-130 -417.5q0 -271 129 -419.5t374 -148.5zM655 963q158 0 236 -109.5t78 -312.5q0 -424 -314 -424q-313 0 -313 424q0 203 77.5 312.5t235.5 109.5z" />
    <glyph glyph-name="odieresis" unicode="&#xf6;" 
d="M569 1280v264h-266v-264h266zM1010 1544h-265v-264h265v264zM655 -27q243 0 373.5 148.5t130.5 419.5t-129 418t-375 147q-243 0 -373 -147.5t-130 -417.5q0 -271 129 -419.5t374 -148.5zM655 963q158 0 236 -109.5t78 -312.5q0 -424 -314 -424q-313 0 -313 424
q0 203 77.5 312.5t235.5 109.5z" />
    <glyph glyph-name="divide" unicode="&#xf7;" 
d="M793 979v274h-275v-274h275zM1126 653v158h-942v-158h942zM793 481h-275v-274h275v274z" />
    <glyph glyph-name="oslash" unicode="&#xf8;" 
d="M1157 541q0 237 -108 387l161 198h-161l-88 -110q-126 90 -306 90q-230 0 -370 -156q-135 -153 -135 -409q0 -245 110 -391l-166 -205h158l96 118q126 -90 303 -90q232 0 371 158q135 150 135 410zM653 965q139 0 211 -66l-489 -608q-33 87 -33 250q0 202 78 313t233 111
zM657 117q-142 0 -213 65l490 604q31 -89 31 -245q0 -204 -76 -314t-232 -110z" />
    <glyph glyph-name="ugrave" unicode="&#xf9;" 
d="M621 1614h-277l242 -367h157zM221 1079v-751q0 -183 91.5 -269t254.5 -86q121 0 215 64q84 58 125 147h4v-184h176v1079h-184v-583q0 -371 -295 -371q-112 0 -166 72q-18 24 -27 64.5t-10.5 70.5t-1.5 84v663h-182z" />
    <glyph glyph-name="uacute" unicode="&#xfa;" 
d="M731 1247l242 367h-277l-123 -367h158zM221 1079v-751q0 -183 91.5 -269t254.5 -86q121 0 215 64q84 58 125 147h4v-184h176v1079h-184v-583q0 -371 -295 -371q-112 0 -166 72q-18 24 -27 64.5t-10.5 70.5t-1.5 84v663h-182z" />
    <glyph glyph-name="ucircumflex" unicode="&#xfb;" 
d="M561 1614l-209 -367h154l151 213h2l152 -213h172l-209 367h-213zM221 1079v-751q0 -183 91.5 -269t254.5 -86q121 0 215 64q84 58 125 147h4v-184h176v1079h-184v-583q0 -371 -295 -371q-112 0 -166 72q-18 24 -27 64.5t-10.5 70.5t-1.5 84v663h-182z" />
    <glyph glyph-name="udieresis" unicode="&#xfc;" 
d="M573 1280v264h-266v-264h266zM1014 1544h-264v-264h264v264zM221 1079v-751q0 -183 91.5 -269t254.5 -86q121 0 215 64q84 58 125 147h4v-184h176v1079h-184v-583q0 -371 -295 -371q-112 0 -166 72q-18 24 -27 64.5t-10.5 70.5t-1.5 84v663h-182z" />
    <glyph glyph-name="yacute" unicode="&#xfd;" 
d="M752 1247l241 367h-276l-123 -367h158zM582 0l-23 -57q-45 -117 -90 -156q-47 -39 -137 -39q-70 0 -160 21v-154q80 -23 170 -23q151 0 238 76q88 76 159 264l445 1147h-187l-254 -692q-23 -63 -26 -72q-25 -75 -33 -100h-8q-9 32 -14 45q-10 24 -19 53q-4 13 -25 70
l-270 696h-196z" />
    <glyph glyph-name="thorn" unicode="&#xfe;" 
d="M377 -385v543h6q26 -72 125 -127q98 -58 215 -58q203 0 332 144q137 153 137 438q0 286 -137 430q-118 121 -320 121q-119 0 -213.5 -57t-140.5 -148h-4v713h-182v-1999h182zM371 500v114q0 140 88 242q89 102 237 102q170 0 244 -114q66 -104 66 -289q0 -436 -308 -436
q-154 0 -243 110q-84 100 -84 271z" />
    <glyph glyph-name="ydieresis" unicode="&#xff;" 
d="M596 1280v264h-266v-264h266zM1036 1544h-264v-264h264v264zM582 0l-23 -57q-45 -117 -90 -156q-47 -39 -137 -39q-70 0 -160 21v-154q80 -23 170 -23q151 0 238 76q88 76 159 264l445 1147h-187l-254 -692q-23 -63 -26 -72q-25 -75 -33 -100h-8q-9 32 -14 45
q-10 24 -19 53q-4 13 -25 70l-270 696h-196z" />
    <glyph glyph-name="Amacron" unicode="&#x100;" 
d="M981 1733v170h-651v-170h651zM1239 0l-461 1567h-250l-456 -1567h192l129 467h510l131 -467h205zM641 1384h16q18 -69 43 -180q1 -6 21 -82l139 -501h-424l139 501q13 57 41 162q7 33 19 68q6 27 6 32z" />
    <glyph glyph-name="amacron" unicode="&#x101;" 
d="M971 1303v170h-652v-170h652zM874 195h13q6 -105 56 -150t169 -45h57v150h-36q-50 0 -67 16t-17 65v480q0 199 -113 303q-105 92 -299 92q-190 0 -301 -96q-101 -88 -111 -232h178q4 73 54 123q62 62 180 62q119 0 177 -61t58 -195v-56q-381 -12 -532 -90
q-162 -79 -162 -266q0 -146 93 -229.5t257 -83.5q122 0 210 55t136 158zM362 305q0 81 60 129q52 37 157.5 54.5t292.5 25.5v-25q0 -181 -104 -278q-83 -80 -207 -80q-94 0 -146.5 44.5t-52.5 129.5z" />
    <glyph glyph-name="Abreve" unicode="&#x102;" 
d="M500 1987h-162q13 -147 96 -217t219 -70q137 0 221 70t97 217h-152q-12 -67 -54.5 -102.5t-105.5 -35.5t-105 35t-54 103zM1239 0l-461 1567h-250l-456 -1567h192l129 467h510l131 -467h205zM641 1384h16q18 -69 43 -180q1 -6 21 -82l139 -501h-424l139 501q13 57 41 162
q7 33 19 68q6 27 6 32z" />
    <glyph glyph-name="abreve" unicode="&#x103;" 
d="M508 1614h-160q0 -167 92 -256q83 -80 226 -80q144 0 227 80q92 89 92 256h-149q0 -91 -44.5 -139t-119.5 -48t-119.5 48t-44.5 139zM874 195h13q6 -105 56 -150t169 -45h57v150h-36q-50 0 -67 16t-17 65v480q0 199 -113 303q-105 92 -299 92q-190 0 -301 -96
q-101 -88 -111 -232h178q4 73 54 123q62 62 180 62q119 0 177 -61t58 -195v-56q-381 -12 -532 -90q-162 -79 -162 -266q0 -146 93 -229.5t257 -83.5q122 0 210 55t136 158zM362 305q0 81 60 129q52 37 157.5 54.5t292.5 25.5v-25q0 -181 -104 -278q-83 -80 -207 -80
q-94 0 -146.5 44.5t-52.5 129.5z" />
    <glyph glyph-name="Aogonek" unicode="&#x104;" 
d="M1239 -383v143q-71 0 -101 22.5t-30 70.5q0 71 131 147l-461 1567h-250l-456 -1567h192l129 467h510l131 -467h51q-75 -41 -108 -86.5t-33 -106.5q0 -91 67.5 -140.5t190.5 -49.5h37zM641 1384h16q18 -69 43 -180q1 -6 21 -82l139 -501h-424l139 501q13 57 41 162
q7 33 19 68q6 27 6 32z" />
    <glyph glyph-name="aogonek" unicode="&#x105;" 
d="M1171 -385v143q-69 1 -99 21t-30 63q0 44 32.5 82t94.5 76v150h-36q-50 0 -67 16t-17 65v480q0 199 -113 303q-105 92 -299 92q-190 0 -301 -96q-101 -88 -111 -232h178q4 73 54 123q62 62 180 62q119 0 177 -61t58 -195v-56q-381 -12 -532 -90q-162 -79 -162 -266
q0 -147 93.5 -230t258.5 -83q246 0 344 213h13q5 -84 36.5 -128t106.5 -57v-10q-153 -64 -153 -195q0 -92 67 -141t191 -49h36zM362 305q0 81 60 129q52 37 157.5 54.5t292.5 25.5v-25q0 -181 -104 -278q-83 -80 -207 -80q-94 0 -146.5 44.5t-52.5 129.5z" />
    <glyph glyph-name="Cacute" unicode="&#x106;" 
d="M780 1694l215 272h-276l-105 -272h166zM1014 1098h192q-23 245 -172 375q-133 116 -338 116q-279 0 -430 -204.5t-151 -606.5q0 -426 149 -622q141 -189 426 -189q222 0 365 150q131 137 147 370h-186q-14 -152 -80 -247q-85 -117 -244 -117q-200 0 -289.5 155.5
t-89.5 499.5q0 341 90 499.5t291 158.5q146 0 234 -109q69 -93 86 -229z" />
    <glyph glyph-name="cacute" unicode="&#x107;" 
d="M756 1247l241 367h-276l-123 -367h158zM950 754h191q-25 177 -156 270q-118 82 -295 82q-238 0 -373 -154q-133 -155 -133 -415q2 -272 127.5 -418t368.5 -146q188 0 313 101q131 106 154 278h-186q-15 -87 -74 -149q-79 -82 -207 -82q-163 0 -236 115q-67 101 -67 309
q0 196 75 306t228 110q116 0 192 -66q65 -59 78 -141z" />
    <glyph glyph-name="Ccircumflex" unicode="&#x108;" 
d="M573 1966l-198 -272h172l137 135h6l137 -135h179l-199 272h-234zM1014 1098h192q-23 245 -172 375q-133 116 -338 116q-279 0 -430 -204.5t-151 -606.5q0 -426 149 -622q141 -189 426 -189q222 0 365 150q131 137 147 370h-186q-14 -152 -80 -247q-85 -117 -244 -117
q-200 0 -289.5 155.5t-89.5 499.5q0 341 90 499.5t291 158.5q146 0 234 -109q69 -93 86 -229z" />
    <glyph glyph-name="ccircumflex" unicode="&#x109;" 
d="M582 1614l-209 -367h153l152 213h2l151 -213h173l-209 367h-213zM950 754h191q-25 177 -156 270q-118 82 -295 82q-238 0 -373 -154q-133 -155 -133 -415q2 -272 127.5 -418t368.5 -146q188 0 313 101q131 106 154 278h-186q-15 -87 -74 -149q-79 -82 -207 -82
q-163 0 -236 115q-67 101 -67 309q0 196 75 306t228 110q116 0 192 -66q65 -59 78 -141z" />
    <glyph glyph-name="Cdotaccent" unicode="&#x10a;" 
d="M823 1694v264h-266v-264h266zM1014 1098h192q-23 245 -172 375q-133 116 -338 116q-279 0 -430 -204.5t-151 -606.5q0 -426 149 -622q141 -189 426 -189q222 0 365 150q131 137 147 370h-186q-14 -152 -80 -247q-85 -117 -244 -117q-200 0 -289.5 155.5t-89.5 499.5
q0 341 90 499.5t291 158.5q146 0 234 -109q69 -93 86 -229z" />
    <glyph glyph-name="cdotaccent" unicode="&#x10b;" 
d="M817 1282v274h-274v-274h274zM950 754h191q-25 177 -156 270q-118 82 -295 82q-238 0 -373 -154q-133 -155 -133 -415q2 -272 127.5 -418t368.5 -146q188 0 313 101q131 106 154 278h-186q-15 -87 -74 -149q-79 -82 -207 -82q-163 0 -236 115q-67 101 -67 309
q0 196 75 306t228 110q116 0 192 -66q65 -59 78 -141z" />
    <glyph glyph-name="Ccaron" unicode="&#x10c;" 
d="M809 1694l199 272h-172l-138 -135h-6l-137 135h-178l198 -272h234zM1014 1098h192q-23 245 -172 375q-133 116 -338 116q-279 0 -430 -204.5t-151 -606.5q0 -426 149 -622q141 -189 426 -189q222 0 365 150q131 137 147 370h-186q-14 -152 -80 -247q-85 -117 -244 -117
q-200 0 -289.5 155.5t-89.5 499.5q0 341 90 499.5t291 158.5q146 0 234 -109q69 -93 86 -229z" />
    <glyph glyph-name="ccaron" unicode="&#x10d;" 
d="M791 1247l208 367h-157l-152 -213h-2l-151 213h-168l209 -367h213zM950 754h191q-25 177 -156 270q-118 82 -295 82q-238 0 -373 -154q-133 -155 -133 -415q2 -272 127.5 -418t368.5 -146q188 0 313 101q131 106 154 278h-186q-15 -87 -74 -149q-79 -82 -207 -82
q-163 0 -236 115q-67 101 -67 309q0 196 75 306t228 110q116 0 192 -66q65 -59 78 -141z" />
    <glyph glyph-name="Dcaron" unicode="&#x10e;" 
d="M733 1694l199 272h-172l-137 -135h-7l-137 135h-178l199 -272h233zM154 0h360q335 0 512 188q193 202 193 615q0 411 -203 598q-180 166 -524 166h-338v-1567zM344 1405h178q245 0 367 -139q131 -153 131 -469q0 -341 -129 -488q-123 -143 -381 -143h-166v1239z" />
    <glyph glyph-name="dcaron" unicode="&#x10f;" 
d="M866 1614v-678h-4q-95 170 -307 170q-100 0 -186.5 -38t-147.5 -110q-135 -158 -135 -426q0 -288 139 -434q114 -125 307 -125q236 0 336 199h9v-172h176v1614h-187zM1278 1196l158 418h-224l-49 -418h115zM872 582v-115q0 -152 -81 -248q-84 -100 -232 -100
q-142 0 -217 121q-68 107 -68 301q0 195 78.5 306t225.5 111q134 0 214 -101.5t80 -274.5z" />
    <glyph glyph-name="Dcroat" unicode="&#x110;" 
d="M158 0h336q335 0 512 188q192 201 192 615q0 411 -203 598q-180 166 -524 166h-313v-697h-150v-157h150v-713zM348 713h377v157h-377v535h154q244 0 366 -139q131 -153 131 -469q0 -341 -129 -488q-123 -143 -381 -143h-141v547z" />
    <glyph glyph-name="dcroat" unicode="&#x111;" 
d="M942 0h176v1272h156v133h-156v209h-186v-209h-344v-133h344v-336h-4q-46 73 -130 121.5t-198 48.5q-213 0 -346 -148q-137 -156 -137 -426q0 -286 141 -434q117 -125 320 -125q123 0 217.5 56.5t138.5 142.5h8v-172zM938 582v-115q0 -151 -88 -248q-90 -100 -240 -100
q-162 0 -237 121q-68 103 -68 301q0 197 81 307t243 110q140 0 224.5 -102t84.5 -274z" />
    <glyph glyph-name="Emacron" unicode="&#x112;" 
d="M1024 1733v170h-651v-170h651zM1165 0v166h-759v545h643v161h-643v529h749v166h-940v-1567h950z" />
    <glyph glyph-name="emacron" unicode="&#x113;" 
d="M1004 1303v170h-652v-170h652zM1122 283h-176q-21 -70 -65 -107q-73 -59 -197 -59q-158 0 -240 102q-79 98 -88 270h785v95q0 223 -109 364q-125 158 -360 158q-239 0 -373 -166q-129 -160 -129 -405q0 -253 125 -402q134 -160 383 -160q178 0 295.5 83.5t148.5 226.5z
M952 637h-592q18 153 96.5 240.5t213.5 87.5q143 0 215 -91q64 -81 67 -225v-12z" />
    <glyph glyph-name="Ebreve" unicode="&#x114;" 
d="M543 1987h-162q13 -147 96 -217t219 -70q137 0 221 70t97 217h-152q-12 -67 -54.5 -102.5t-105.5 -35.5t-105 35t-54 103zM1165 0v166h-759v545h643v161h-643v529h749v166h-940v-1567h950z" />
    <glyph glyph-name="ebreve" unicode="&#x115;" 
d="M520 1614h-160q0 -166 93 -256q83 -80 225 -80q144 0 227 80q92 89 92 256h-149q0 -91 -44.5 -139t-119.5 -48t-119.5 48t-44.5 139zM1122 283h-176q-21 -70 -65 -107q-73 -59 -197 -59q-158 0 -240 102q-79 98 -88 270h785v95q0 223 -109 364q-125 158 -360 158
q-239 0 -373 -166q-129 -160 -129 -405q0 -253 125 -402q134 -160 383 -160q178 0 295.5 83.5t148.5 226.5zM952 637h-592q18 153 96.5 240.5t213.5 87.5q143 0 215 -91q64 -81 67 -225v-12z" />
    <glyph glyph-name="Edotaccent" unicode="&#x116;" 
d="M831 1694v264h-266v-264h266zM1165 0v166h-759v545h643v161h-643v529h749v166h-940v-1567h950z" />
    <glyph glyph-name="edotaccent" unicode="&#x117;" 
d="M815 1282v274h-274v-274h274zM1122 283h-176q-21 -70 -65 -107q-73 -59 -197 -59q-158 0 -240 102q-79 98 -88 270h785v95q0 223 -109 364q-125 158 -360 158q-239 0 -373 -166q-129 -160 -129 -405q0 -253 125 -402q134 -160 383 -160q178 0 295.5 83.5t148.5 226.5z
M952 637h-592q18 153 96.5 240.5t213.5 87.5q143 0 215 -91q64 -81 67 -225v-12z" />
    <glyph glyph-name="Eogonek" unicode="&#x118;" 
d="M1108 -385v143q-71 0 -101 22t-30 70q0 76 131 150h57v166h-759v545h643v161h-643v529h749v166h-940v-1567h743q-78 -41 -111.5 -86.5t-33.5 -108.5q0 -91 67.5 -140.5t190.5 -49.5h37z" />
    <glyph glyph-name="eogonek" unicode="&#x119;" 
d="M958 -385v143q-68 0 -96 22t-28 70q0 50 33.5 98.5t109.5 110.5q63 54 95.5 104.5t49.5 119.5h-176q-21 -70 -65 -107q-73 -59 -197 -59q-158 0 -240 102q-79 98 -88 270h785v95q0 223 -109 364q-125 158 -360 158q-239 0 -373 -166q-129 -160 -129 -405q0 -253 125 -402
q134 -160 383 -160q41 0 117 13v-9q-70 -39 -100.5 -79.5t-30.5 -96.5q0 -82 69 -134t189 -52h36zM952 637h-592q18 153 96.5 240.5t213.5 87.5q143 0 215 -91q64 -81 67 -225v-12z" />
    <glyph glyph-name="Ecaron" unicode="&#x11a;" 
d="M817 1694l199 272h-172l-137 -135h-7l-137 135h-178l199 -272h233zM1165 0v166h-759v545h643v161h-643v529h749v166h-940v-1567h950z" />
    <glyph glyph-name="ecaron" unicode="&#x11b;" 
d="M788 1247l209 367h-157l-152 -213h-2l-151 213h-168l208 -367h213zM1122 283h-176q-21 -70 -65 -107q-73 -59 -197 -59q-158 0 -240 102q-79 98 -88 270h785v95q0 223 -109 364q-125 158 -360 158q-239 0 -373 -166q-129 -160 -129 -405q0 -253 125 -402
q134 -160 383 -160q178 0 295.5 83.5t148.5 226.5zM952 637h-592q18 153 96.5 240.5t213.5 87.5q143 0 215 -91q64 -81 67 -225v-12z" />
    <glyph glyph-name="Gcircumflex" unicode="&#x11c;" 
d="M563 1966l-198 -272h172l137 135h6l137 -135h178l-198 272h-234zM686 1436q136 0 219 -86q75 -81 88 -199h193q-12 188 -148 311q-140 127 -350 127q-280 0 -429.5 -203.5t-149.5 -609.5q0 -421 143 -622q129 -185 395 -185q143 0 244 68q85 57 131 151h8v-188h166v791
h-547v-156h373v-129q0 -144 -72 -250q-93 -137 -274 -137q-194 0 -281.5 161t-87.5 498q0 322 84 486q87 172 295 172z" />
    <glyph glyph-name="gcircumflex" unicode="&#x11d;" 
d="M559 1614l-209 -367h154l151 213h2l152 -213h172l-209 367h-213zM616 -408q234 0 369 105q143 111 143 330v1052h-176v-170h-6q-46 90 -117 138q-91 59 -223 59q-213 0 -342 -141q-133 -146 -133 -410q0 -280 139 -422q119 -125 312 -125q114 0 223 64q89 52 139 141h2
v-160q0 -173 -78.5 -243t-246.5 -70q-134 0 -200.5 38.5t-84.5 112.5h-178q19 -154 161 -233q118 -66 297 -66zM950 598v-109q0 -137 -88 -235q-93 -100 -229 -100q-173 0 -248 112q-66 94 -66 289q0 190 76.5 298t229.5 108q146 0 237 -101q88 -97 88 -262z" />
    <glyph glyph-name="Gbreve" unicode="&#x11e;" 
d="M524 1987h-162q13 -147 96 -217t220 -70t220.5 70t96.5 217h-151q-12 -67 -54.5 -102.5t-105.5 -35.5t-105.5 35.5t-54.5 102.5zM686 1436q136 0 219 -86q75 -81 88 -199h193q-12 188 -148 311q-140 127 -350 127q-280 0 -429.5 -203.5t-149.5 -609.5q0 -421 143 -622
q129 -185 395 -185q143 0 244 68q85 57 131 151h8v-188h166v791h-547v-156h373v-129q0 -144 -72 -250q-93 -137 -274 -137q-194 0 -281.5 161t-87.5 498q0 322 84 486q87 172 295 172z" />
    <glyph glyph-name="gbreve" unicode="&#x11f;" 
d="M502 1614h-160q0 -167 92 -256q83 -80 225 -80q145 0 228 80q92 89 92 256h-150q0 -91 -44.5 -139t-118.5 -48q-75 0 -119.5 48t-44.5 139zM616 -408q234 0 369 105q143 111 143 330v1052h-176v-170h-6q-46 90 -117 138q-91 59 -223 59q-213 0 -342 -141
q-133 -146 -133 -410q0 -280 139 -422q119 -125 312 -125q114 0 223 64q89 52 139 141h2v-160q0 -173 -78.5 -243t-246.5 -70q-134 0 -200.5 38.5t-84.5 112.5h-178q19 -154 161 -233q118 -66 297 -66zM950 598v-109q0 -137 -88 -235q-93 -100 -229 -100q-173 0 -248 112
q-66 94 -66 289q0 190 76.5 298t229.5 108q146 0 237 -101q88 -97 88 -262z" />
    <glyph glyph-name="Gdotaccent" unicode="&#x120;" 
d="M813 1694v264h-266v-264h266zM686 1436q136 0 219 -86q75 -81 88 -199h193q-12 188 -148 311q-140 127 -350 127q-280 0 -429.5 -203.5t-149.5 -609.5q0 -421 143 -622q129 -185 395 -185q143 0 244 68q85 57 131 151h8v-188h166v791h-547v-156h373v-129q0 -144 -72 -250
q-93 -137 -274 -137q-194 0 -281.5 161t-87.5 498q0 322 84 486q87 172 295 172z" />
    <glyph glyph-name="gdotaccent" unicode="&#x121;" 
d="M799 1282v274h-275v-274h275zM616 -408q234 0 369 105q143 111 143 330v1052h-176v-170h-6q-46 90 -117 138q-91 59 -223 59q-213 0 -342 -141q-133 -146 -133 -410q0 -280 139 -422q119 -125 312 -125q114 0 223 64q89 52 139 141h2v-160q0 -173 -78.5 -243t-246.5 -70
q-134 0 -200.5 38.5t-84.5 112.5h-178q19 -154 161 -233q118 -66 297 -66zM950 598v-109q0 -137 -88 -235q-93 -100 -229 -100q-173 0 -248 112q-66 94 -66 289q0 190 76.5 298t229.5 108q146 0 237 -101q88 -97 88 -262z" />
    <glyph glyph-name="Gcommaaccent" unicode="&#x122;" 
d="M686 1436q136 0 219 -86q75 -81 88 -199h193q-12 188 -148 311q-140 127 -350 127q-280 0 -429.5 -203.5t-149.5 -609.5q0 -421 143 -622q129 -185 395 -185q143 0 244 68q85 57 131 151h8v-188h166v791h-547v-156h373v-129q0 -144 -72 -250q-93 -137 -274 -137
q-194 0 -281.5 161t-87.5 498q0 322 84 486q87 172 295 172zM623 -414l184 305h-277l-65 -305h158z" />
    <glyph glyph-name="gcommaaccent" unicode="&#x123;" 
d="M715 1585l-197 -338h277l77 338h-157zM616 -408q234 0 369 105q143 111 143 330v1052h-176v-170h-6q-46 90 -117 138q-91 59 -223 59q-213 0 -342 -141q-133 -146 -133 -410q0 -280 139 -422q119 -125 312 -125q114 0 223 64q89 52 139 141h2v-160q0 -173 -78.5 -243
t-246.5 -70q-134 0 -200.5 38.5t-84.5 112.5h-178q19 -154 161 -233q118 -66 297 -66zM950 598v-109q0 -137 -88 -235q-93 -100 -229 -100q-173 0 -248 112q-66 94 -66 289q0 190 76.5 298t229.5 108q146 0 237 -101q88 -97 88 -262z" />
    <glyph glyph-name="Hcircumflex" unicode="&#x124;" 
d="M539 1966l-199 -272h172l137 135h6l138 -135h178l-199 272h-233zM967 709v-709h190v1567h-190v-697h-623v697h-190v-1567h190v709h623z" />
    <glyph glyph-name="hcircumflex" unicode="&#x125;" 
d="M563 1966l-198 -272h172l137 135h6l137 -135h178l-198 272h-234zM1096 0v752q0 182 -95 274q-86 80 -249 80q-123 0 -217 -64q-78 -53 -121 -141h-2v713h-187v-1614h187v647q0 139 71 219q73 86 219 86q116 0 170 -71q18 -24 26.5 -64.5t9.5 -65t1 -83.5v-668h187z" />
    <glyph glyph-name="Hbar" unicode="&#x126;" 
d="M967 709v-709h190v1155h113v145h-113v267h-190v-267h-623v267h-190v-267h-113v-145h113v-1155h190v709h623zM344 1155h623v-285h-623v285z" />
    <glyph glyph-name="hbar" unicode="&#x127;" 
d="M412 0v647q0 139 71 219q73 86 219 86q116 0 170 -71q18 -24 26.5 -64.5t9.5 -65t1 -83.5v-668h187v752q0 182 -95 274q-86 80 -249 80q-123 0 -217 -64q-78 -53 -121 -141h-2v371h344v133h-344v209h-187v-209h-155v-133h155v-1272h187z" />
    <glyph glyph-name="Itilde" unicode="&#x128;" 
d="M299 1694h152q11 116 86 116q25 0 57 -16q28 -19 63 -37q96 -55 164 -55q104 0 164.5 76t65.5 200h-150q-6 -62 -25 -89t-59 -27q-31 0 -61 18q-29 15 -66 37q-33 18 -50.5 26t-50 17.5t-63.5 9.5q-103 0 -162.5 -75t-64.5 -201zM1106 1413v154h-901v-154h356v-1259h-356
v-154h901v154h-356v1259h356z" />
    <glyph glyph-name="itilde" unicode="&#x129;" 
d="M268 1268h152q11 125 88 125q6 0 12 -1t12.5 -3t12 -4t13.5 -6.5t13 -7t14.5 -8.5t14 -9l15 -10t14.5 -9q88 -57 155 -57q103 0 163 79t65 210h-150q-6 -65 -26 -95t-60 -30q-9 0 -17 1.5t-17.5 5t-16.5 6.5t-18 9.5t-16.5 10t-19 12.5t-18.5 12q-88 57 -159 57
q-103 0 -162 -77.5t-64 -210.5zM1165 154h-403v925h-514v-147h338v-778h-398v-154h977v154z" />
    <glyph glyph-name="Imacron" unicode="&#x12a;" 
d="M981 1733v170h-651v-170h651zM1106 1413v154h-901v-154h356v-1259h-356v-154h901v154h-356v1259h356z" />
    <glyph glyph-name="imacron" unicode="&#x12b;" 
d="M963 1303v170h-652v-170h652zM1165 154h-403v925h-514v-147h338v-778h-398v-154h977v154z" />
    <glyph glyph-name="Ibreve" unicode="&#x12c;" 
d="M500 1987h-162q13 -147 96 -217t219 -70q137 0 221 70t97 217h-152q-12 -67 -54.5 -102.5t-105.5 -35.5t-105 35t-54 103zM1106 1413v154h-901v-154h356v-1259h-356v-154h901v154h-356v1259h356z" />
    <glyph glyph-name="ibreve" unicode="&#x12d;" 
d="M477 1614h-160q0 -166 93 -256q83 -80 225 -80q144 0 227 80q92 89 92 256h-149q0 -91 -44.5 -139t-119.5 -48t-119.5 48t-44.5 139zM1165 154h-403v925h-514v-147h338v-778h-398v-154h977v154z" />
    <glyph glyph-name="Iogonek" unicode="&#x12e;" 
d="M1030 -385v143q-71 0 -101 22t-30 70q0 76 131 150h76v154h-356v1259h356v154h-901v-154h356v-1259h-356v-154h676q-78 -41 -112 -86.5t-34 -108.5q0 -91 67.5 -140.5t190.5 -49.5h37z" />
    <glyph glyph-name="iogonek" unicode="&#x12f;" 
d="M797 1282v274h-275v-274h275zM1087 -385v143q-71 0 -101 22t-30 70q0 76 131 150h78v154h-403v925h-514v-147h338v-778h-398v-154h750q-78 -41 -111.5 -86.5t-33.5 -108.5q0 -91 67.5 -140.5t190.5 -49.5h36z" />
    <glyph glyph-name="Idotaccent" unicode="&#x130;" 
d="M788 1694v264h-266v-264h266zM1106 1413v154h-901v-154h356v-1259h-356v-154h901v154h-356v1259h356z" />
    <glyph glyph-name="dotlessi" unicode="&#x131;" 
d="M1165 154h-403v925h-514v-147h338v-778h-398v-154h977v154z" />
    <glyph glyph-name="IJ" unicode="&#x132;" horiz-adv-x="2621" 
d="M1106 1413v154h-901v-154h356v-1259h-356v-154h901v154h-356v1259h356zM1851 -23q224 0 359 117q137 118 137 338v1133h-723v-162h533v-959q0 -141 -75.5 -219t-232.5 -78q-159 0 -319 39v-172q169 -37 321 -37z" />
    <glyph glyph-name="ij" unicode="&#x133;" horiz-adv-x="2621" 
d="M797 1282v274h-275v-274h275zM2230 1556h-274v-274h274v274zM1165 154h-403v925h-514v-147h338v-778h-398v-154h977v154zM1823 -408q163 0 268 91q104 93 104 262v1134h-602v-151h426v-963q0 -102 -53.5 -158.5t-161.5 -56.5q-23 0 -46 1.5t-37.5 3t-37 6l-30 6t-32 7.5
t-28.5 7v-160q131 -29 230 -29z" />
    <glyph glyph-name="Jcircumflex" unicode="&#x134;" 
d="M580 1966l-199 -272h172l137 135h6l138 -135h178l-199 272h-233zM541 -25q223 0 358 117q137 118 137 338v1133h-723v-162h533v-959q0 -142 -75.5 -219.5t-231.5 -77.5q-160 0 -320 39v-172q169 -37 322 -37z" />
    <glyph glyph-name="jcircumflex" unicode="&#x135;" 
d="M666 1614l-209 -367h153l152 213h2l151 -213h172l-208 367h-213zM512 -408q163 0 268 91q105 94 105 262v1134h-602v-151h424v-963q0 -103 -53 -159t-160 -56q-23 0 -46 1.5t-37.5 3t-37 6l-30 6t-32 7.5t-28.5 7v-160q131 -29 229 -29z" />
    <glyph glyph-name="Kcommaaccent" unicode="&#x136;" 
d="M539 756l475 -756h225l-569 905l536 662h-213l-610 -756v756h-188v-1567h188v565zM629 -414l184 305h-276l-66 -305h158z" />
    <glyph glyph-name="kcommaaccent" unicode="&#x137;" 
d="M623 530l354 -530h219l-448 659l391 420h-217l-488 -538v1073h-176v-1614h176v328zM651 -414l185 305h-277l-65 -305h157z" />
    <glyph glyph-name="kgreenlandic" unicode="&#x138;" 
d="M627 524l350 -524h219l-448 659l391 420h-217l-480 -530v530h-184v-1079h184v330z" />
    <glyph glyph-name="Lacute" unicode="&#x139;" 
d="M438 1694l215 272h-276l-105 -272h166zM1225 0v166h-779v1401h-190v-1567h969z" />
    <glyph glyph-name="lacute" unicode="&#x13a;" 
d="M768 1694l215 272h-276l-105 -272h166zM1165 154h-401v1460h-537v-148h355v-1312h-394v-154h977v154z" />
    <glyph glyph-name="Lcommaaccent" unicode="&#x13b;" 
d="M1225 0v166h-779v1401h-190v-1567h969zM690 -414l184 305h-276l-66 -305h158z" />
    <glyph glyph-name="lcommaaccent" unicode="&#x13c;" 
d="M1165 154h-401v1460h-537v-148h355v-1312h-394v-154h977v154zM629 -414l184 305h-276l-66 -305h158z" />
    <glyph glyph-name="Lcaron" unicode="&#x13d;" 
d="M768 1196l158 418h-224l-49 -418h115zM1225 0v166h-779v1401h-190v-1567h969z" />
    <glyph glyph-name="lcaron" unicode="&#x13e;" 
d="M1165 154h-401v1460h-537v-148h355v-1312h-394v-154h977v154zM1051 1196l157 418h-223l-49 -418h115z" />
    <glyph glyph-name="Ldot" unicode="&#x13f;" 
d="M1225 0v166h-779v1401h-190v-1567h969zM1143 674v274h-275v-274h275z" />
    <glyph glyph-name="ldot" unicode="&#x140;" 
d="M1165 154h-401v1460h-537v-148h355v-1312h-394v-154h977v154zM1440 698v228h-228v-228h228z" />
    <glyph glyph-name="Lslash" unicode="&#x141;" 
d="M1235 166h-778v500l516 202v170l-516 -202v731h-191v-807l-155 -62v-170l155 62v-590h969v166z" />
    <glyph glyph-name="lslash" unicode="&#x142;" 
d="M1167 154h-401v608l309 160v165l-309 -159v686h-537v-148h355v-635l-305 -157v-166l305 158v-512h-394v-154h977v154z" />
    <glyph glyph-name="Nacute" unicode="&#x143;" 
d="M760 1694l215 272h-277l-104 -272h166zM322 0v1341h10q4 -18 39 -116q14 -39 30 -76l506 -1149h252v1567h-170v-1342h-12l-19 62q-6 17 -49 129l-506 1151h-251v-1567h170z" />
    <glyph glyph-name="nacute" unicode="&#x144;" 
d="M756 1247l241 367h-276l-123 -367h158zM1096 0v752q0 182 -95 274q-86 80 -249 80q-123 0 -220 -64q-90 -60 -129 -145h-4v182h-174v-1079h187v647q0 139 71 219q73 86 219 86q116 0 170 -71q18 -24 26.5 -65t9.5 -66t1 -84v-666h187z" />
    <glyph glyph-name="Ncommaaccent" unicode="&#x145;" 
d="M322 0v1341h10q4 -18 39 -116q14 -39 30 -76l506 -1149h252v1567h-170v-1342h-12l-19 62q-6 17 -49 129l-506 1151h-251v-1567h170zM618 -414l185 305h-277l-65 -305h157z" />
    <glyph glyph-name="ncommaaccent" unicode="&#x146;" 
d="M1096 0v752q0 182 -95 274q-86 80 -249 80q-123 0 -220 -64q-90 -60 -129 -145h-4v182h-174v-1079h187v647q0 139 71 219q73 86 219 86q116 0 170 -71q18 -24 26.5 -65t9.5 -66t1 -84v-666h187zM633 -414l184 305h-276l-66 -305h158z" />
    <glyph glyph-name="Ncaron" unicode="&#x147;" 
d="M786 1694l199 272h-172l-137 -135h-6l-138 135h-178l199 -272h233zM322 0v1341h10q4 -18 39 -116q14 -39 30 -76l506 -1149h252v1567h-170v-1342h-12l-19 62q-6 17 -49 129l-506 1151h-251v-1567h170z" />
    <glyph glyph-name="ncaron" unicode="&#x148;" 
d="M793 1247l208 367h-157l-152 -213h-2l-151 213h-168l209 -367h213zM1096 0v752q0 182 -95 274q-86 80 -249 80q-123 0 -220 -64q-90 -60 -129 -145h-4v182h-174v-1079h187v647q0 139 71 219q73 86 219 86q116 0 170 -71q18 -24 26.5 -65t9.5 -66t1 -84v-666h187z" />
    <glyph glyph-name="napostrophe" unicode="&#x149;" 
d="M152 1567l-105 -412h152l225 412h-272zM1096 0v752q0 182 -95 274q-86 80 -249 80q-123 0 -220 -64q-90 -60 -129 -145h-4v182h-174v-1079h187v647q0 139 71 219q73 86 219 86q116 0 170 -71q18 -24 26.5 -65t9.5 -66t1 -84v-666h187z" />
    <glyph glyph-name="Eng" unicode="&#x14a;" 
d="M621 -385h65q238 0 355.5 99.5t117.5 318.5v1534h-170v-1342h-12l-19 60q0 1 -8 23t-12 36q-10 29 -27 68l-508 1155h-251v-1567h170v1341h10q4 -18 39 -116q14 -39 30 -76l506 -1149h80q-9 -123 -78 -170q-77 -53 -266 -53h-22v-162z" />
    <glyph glyph-name="eng" unicode="&#x14b;" 
d="M784 -408q140 0 222 68q90 77 90 229v863q0 182 -95 274q-86 80 -249 80q-123 0 -220 -64q-90 -60 -129 -145h-4v182h-174v-1079h187v647q0 139 71 219q73 86 219 86q116 0 170 -71q18 -24 26.5 -65t9.5 -66t1 -84v-762q0 -84 -34.5 -119t-106.5 -35q-40 0 -82 10v-155
q44 -13 98 -13z" />
    <glyph glyph-name="Omacron" unicode="&#x14c;" 
d="M981 1733v170h-651v-170h651zM100 778q0 -432 148 -631q134 -180 405 -180q269 0 406 180q151 203 151 631q0 436 -149 633q-135 178 -404 178q-264 0 -401 -178q-156 -202 -156 -633zM655 121q-181 0 -264 155q-88 158 -88 502q0 348 88 506q83 152 264 152
q183 0 267 -148q86 -157 86 -510q0 -351 -84 -504q-82 -153 -269 -153z" />
    <glyph glyph-name="omacron" unicode="&#x14d;" 
d="M981 1303v170h-651v-170h651zM655 -27q243 0 373.5 148.5t130.5 419.5t-129 418t-375 147q-243 0 -373 -147.5t-130 -417.5q0 -271 129 -419.5t374 -148.5zM655 963q158 0 236 -109.5t78 -312.5q0 -424 -314 -424q-313 0 -313 424q0 203 77.5 312.5t235.5 109.5z" />
    <glyph glyph-name="Obreve" unicode="&#x14e;" 
d="M500 1987h-162q13 -147 96 -217t219 -70q137 0 221 70t97 217h-152q-12 -67 -54.5 -102.5t-105.5 -35.5t-105 35t-54 103zM100 778q0 -432 148 -631q134 -180 405 -180q269 0 406 180q151 203 151 631q0 436 -149 633q-135 178 -404 178q-264 0 -401 -178
q-156 -202 -156 -633zM655 121q-181 0 -264 155q-88 158 -88 502q0 348 88 506q83 152 264 152q183 0 267 -148q86 -157 86 -510q0 -351 -84 -504q-82 -153 -269 -153z" />
    <glyph glyph-name="obreve" unicode="&#x14f;" 
d="M498 1614h-160q0 -167 92 -256q83 -80 225 -80q145 0 228 80q92 89 92 256h-150q0 -91 -44.5 -139t-118.5 -48q-75 0 -119.5 48t-44.5 139zM655 -27q243 0 373.5 148.5t130.5 419.5t-129 418t-375 147q-243 0 -373 -147.5t-130 -417.5q0 -271 129 -419.5t374 -148.5z
M655 963q158 0 236 -109.5t78 -312.5q0 -424 -314 -424q-313 0 -313 424q0 203 77.5 312.5t235.5 109.5z" />
    <glyph glyph-name="Ohungarumlaut" unicode="&#x150;" 
d="M561 1694l148 293h-240l-63 -293h155zM891 1694l147 293h-239l-64 -293h156zM100 778q0 -432 148 -631q134 -180 405 -180q269 0 406 180q151 203 151 631q0 436 -149 633q-135 178 -404 178q-264 0 -401 -178q-156 -202 -156 -633zM655 121q-181 0 -264 155
q-88 158 -88 502q0 348 88 506q83 152 264 152q183 0 267 -148q86 -157 86 -510q0 -351 -84 -504q-82 -153 -269 -153z" />
    <glyph glyph-name="ohungarumlaut" unicode="&#x151;" 
d="M575 1247l195 367h-229l-117 -367h151zM903 1247l195 367h-230l-116 -367h151zM655 -27q243 0 373.5 148.5t130.5 419.5t-129 418t-375 147q-243 0 -373 -147.5t-130 -417.5q0 -271 129 -419.5t374 -148.5zM655 963q158 0 236 -109.5t78 -312.5q0 -424 -314 -424
q-313 0 -313 424q0 203 77.5 312.5t235.5 109.5z" />
    <glyph glyph-name="OE" unicode="&#x152;" 
d="M1296 166h-465v545h390v161h-390v529h455v166h-639q-281 0 -432 -168q-176 -199 -176 -619q0 -419 176 -614q150 -166 432 -166h649v166zM647 1407v-1247q-211 0 -309 141q-102 147 -102 477q0 328 102 478.5t309 150.5z" />
    <glyph glyph-name="oe" unicode="&#x153;" 
d="M629 160h12q43 -97 113.5 -140t173.5 -43q139 0 221.5 79t99.5 227h-166q-13 -72 -36 -105q-42 -55 -125 -55q-58 0 -93.5 25t-58.5 77q-39 89 -39 275l531 2v151q0 206 -72 326q-81 127 -252 127q-97 0 -166.5 -45t-105.5 -125h-7q-67 170 -266 170q-175 0 -263.5 -137
t-88.5 -428q0 -295 84 -431.5t254 -136.5q98 0 161.5 52t88.5 135zM401 117q-99 0 -139 98q-41 96 -41 326q0 227 43 325q44 99 137 99q97 0 131 -105q31 -112 31 -319q0 -211 -31 -320q-34 -104 -131 -104zM1085 637h-356q5 164 44 242.5t138 78.5q104 0 144 -84
q30 -64 30 -223v-14z" />
    <glyph glyph-name="Racute" unicode="&#x154;" 
d="M733 1694l215 272h-276l-105 -272h166zM1204 0l-346 690v4q130 32 219 127q111 123 111 307q0 139 -51 228q-54 97 -167 154t-282 57h-502v-1567h191v664h289l323 -664h215zM377 1411h305q141 0 224 -72t83 -213q0 -155 -88 -233q-84 -72 -227 -72h-297v590z" />
    <glyph glyph-name="racute" unicode="&#x155;" 
d="M795 1247l241 367h-276l-123 -367h158zM905 928q53 0 103 -7.5t76.5 -14.5t76.5 -23v174q-38 19 -98.5 31t-116.5 12q-168 0 -277 -67t-167 -222h-4v268h-174v-1079h184v463q0 220 101.5 342.5t295.5 122.5z" />
    <glyph glyph-name="Rcommaaccent" unicode="&#x156;" 
d="M1204 0l-346 690v4q130 32 219 127q111 123 111 307q0 139 -51 228q-54 97 -167 154t-282 57h-502v-1567h191v664h289l323 -664h215zM377 1411h305q141 0 224 -72t83 -213q0 -155 -88 -233q-84 -72 -227 -72h-297v590zM608 -414l185 305h-277l-65 -305h157z" />
    <glyph glyph-name="rcommaaccent" unicode="&#x157;" 
d="M905 928q53 0 103 -7.5t76.5 -14.5t76.5 -23v174q-38 19 -98.5 31t-116.5 12q-168 0 -277 -67t-167 -222h-4v268h-174v-1079h184v463q0 220 101.5 342.5t295.5 122.5zM367 -414l184 305h-277l-65 -305h158z" />
    <glyph glyph-name="Rcaron" unicode="&#x158;" 
d="M760 1694l198 272h-172l-137 -135h-6l-137 135h-178l198 -272h234zM1204 0l-346 690v4q130 32 219 127q111 123 111 307q0 139 -51 228q-54 97 -167 154t-282 57h-502v-1567h191v664h289l323 -664h215zM377 1411h305q141 0 224 -72t83 -213q0 -155 -88 -233
q-84 -72 -227 -72h-297v590z" />
    <glyph glyph-name="rcaron" unicode="&#x159;" 
d="M821 1247l209 367h-158l-151 -213h-2l-152 213h-168l209 -367h213zM905 928q53 0 103 -7.5t76.5 -14.5t76.5 -23v174q-38 19 -98.5 31t-116.5 12q-168 0 -277 -67t-167 -222h-4v268h-174v-1079h184v463q0 220 101.5 342.5t295.5 122.5z" />
    <glyph glyph-name="Sacute" unicode="&#x15a;" 
d="M745 1694l216 272h-277l-104 -272h165zM989 1147h193q-15 199 -142 317q-134 125 -381 125q-226 0 -368 -123q-139 -117 -139 -309q0 -187 92 -283q89 -96 295 -143l219 -47q256 -55 256 -276q0 -131 -76 -201q-93 -86 -270 -86q-171 0 -269 98q-83 80 -100 221h-193
q12 -211 156 -340q149 -133 402 -133q265 0 404.5 123t139.5 338q0 179 -92 281t-301 149l-240 53q-122 26 -178.5 83.5t-56.5 174.5q0 112 78 187q85 78 239 78q153 0 242 -86q77 -74 90 -201z" />
    <glyph glyph-name="sacute" unicode="&#x15b;" 
d="M750 1247l241 367h-276l-123 -367h158zM901 809h178q-13 143 -112 215q-113 82 -310 82q-193 0 -303 -92q-102 -86 -102 -226q0 -139 73.5 -210t209.5 -93l178 -30q119 -20 164 -54.5t45 -107.5q0 -89 -66.5 -132.5t-206.5 -43.5q-123 0 -188 51.5t-76 136.5h-178
q20 -172 143 -256q112 -76 299 -76q228 0 340.5 89t112.5 249q0 129 -77.5 201t-254.5 102l-158 27q-96 18 -140 54t-44 106q0 76 59 119t168 43t171 -36t75 -118z" />
    <glyph glyph-name="Scircumflex" unicode="&#x15c;" 
d="M551 1966l-199 -272h172l138 135h6l137 -135h178l-199 272h-233zM989 1147h193q-15 199 -142 317q-134 125 -381 125q-226 0 -368 -123q-139 -117 -139 -309q0 -187 92 -283q89 -96 295 -143l219 -47q256 -55 256 -276q0 -131 -76 -201q-93 -86 -270 -86q-171 0 -269 98
q-83 80 -100 221h-193q12 -211 156 -340q149 -133 402 -133q265 0 404.5 123t139.5 338q0 179 -92 281t-301 149l-240 53q-122 26 -178.5 83.5t-56.5 174.5q0 112 78 187q85 78 239 78q153 0 242 -86q77 -74 90 -201z" />
    <glyph glyph-name="scircumflex" unicode="&#x15d;" 
d="M567 1614l-209 -367h154l152 213h2l151 -213h172l-209 367h-213zM901 809h178q-13 143 -112 215q-113 82 -310 82q-193 0 -303 -92q-102 -86 -102 -226q0 -139 73.5 -210t209.5 -93l178 -30q119 -20 164 -54.5t45 -107.5q0 -89 -66.5 -132.5t-206.5 -43.5
q-123 0 -188 51.5t-76 136.5h-178q20 -172 143 -256q112 -76 299 -76q228 0 340.5 89t112.5 249q0 129 -77.5 201t-254.5 102l-158 27q-96 18 -140 54t-44 106q0 76 59 119t168 43t171 -36t75 -118z" />
    <glyph glyph-name="Scedilla" unicode="&#x15e;" 
d="M672 -444q107 0 167 53t60 135q0 85 -49 128.5t-141 43.5h-66l23 51q264 0 403 123t139 338q0 179 -92 281t-301 149l-240 53q-122 26 -178.5 83.5t-56.5 174.5q0 112 78 187q85 78 239 78q153 0 242 -86q77 -74 90 -201h193q-15 199 -142 317q-134 125 -381 125
q-226 0 -368 -123q-139 -117 -139 -309q0 -187 92 -283q89 -96 295 -143l219 -47q256 -55 256 -276q0 -131 -76 -201q-93 -86 -270 -86q-171 0 -269 98q-83 80 -100 221h-193q11 -190 129.5 -315.5t327.5 -151.5l-88 -194h146q27 31 63 31q35 0 53.5 -19.5t18.5 -52.5
q0 -72 -74 -72q-49 0 -64 35h-157q13 -72 68 -108.5t143 -36.5z" />
    <glyph glyph-name="scedilla" unicode="&#x15f;" 
d="M657 -444q107 0 167.5 53t60.5 135q0 85 -49.5 128.5t-141.5 43.5h-65l26 57q225 0 336 89t111 249q0 129 -77.5 201t-254.5 102l-158 27q-96 18 -140 54t-44 106q0 76 59 119t168 43t171 -36t75 -118h178q-13 143 -112 215q-113 82 -310 82q-193 0 -303 -92
q-102 -86 -102 -226q0 -139 73.5 -210t209.5 -93l178 -30q119 -20 164 -54.5t45 -107.5q0 -89 -66.5 -132.5t-206.5 -43.5q-123 0 -188 51.5t-76 136.5h-178q35 -287 344 -325l-90 -201h145q27 31 64 31q34 0 52.5 -19.5t18.5 -52.5q0 -72 -73 -72q-49 0 -64 35h-158
q13 -72 68 -108.5t143 -36.5z" />
    <glyph glyph-name="Scaron" unicode="&#x160;" 
d="M786 1694l199 272h-172l-137 -135h-6l-138 135h-178l199 -272h233zM989 1147h193q-15 199 -142 317q-134 125 -381 125q-226 0 -368 -123q-139 -117 -139 -309q0 -187 92 -283q89 -96 295 -143l219 -47q256 -55 256 -276q0 -131 -76 -201q-93 -86 -270 -86
q-171 0 -269 98q-83 80 -100 221h-193q12 -211 156 -340q149 -133 402 -133q265 0 404.5 123t139.5 338q0 179 -92 281t-301 149l-240 53q-122 26 -178.5 83.5t-56.5 174.5q0 112 78 187q85 78 239 78q153 0 242 -86q77 -74 90 -201z" />
    <glyph glyph-name="scaron" unicode="&#x161;" 
d="M776 1247l209 367h-158l-151 -213h-2l-152 213h-168l209 -367h213zM901 809h178q-13 143 -112 215q-113 82 -310 82q-193 0 -303 -92q-102 -86 -102 -226q0 -139 73.5 -210t209.5 -93l178 -30q119 -20 164 -54.5t45 -107.5q0 -89 -66.5 -132.5t-206.5 -43.5
q-123 0 -188 51.5t-76 136.5h-178q20 -172 143 -256q112 -76 299 -76q228 0 340.5 89t112.5 249q0 129 -77.5 201t-254.5 102l-158 27q-96 18 -140 54t-44 106q0 76 59 119t168 43t171 -36t75 -118z" />
    <glyph glyph-name="Tcaron" unicode="&#x164;" 
d="M772 1694l199 272h-172l-137 -135h-7l-137 135h-178l199 -272h233zM57 1567v-162h502v-1405h191v1405h501v162h-1194z" />
    <glyph glyph-name="tcaron" unicode="&#x165;" 
d="M961 1196l157 418h-223l-49 -418h115zM508 926v-625q0 -159 85.5 -242.5t276.5 -83.5q119 0 242 48v153q-50 -18 -104 -31q-52 -12 -125 -12q-92 0 -142.5 41t-50.5 141v611h422v153h-422v332h-170v-219q0 -63 -24.5 -88t-87.5 -25h-291v-153h391z" />
    <glyph glyph-name="Tbar" unicode="&#x166;" 
d="M1098 858v154h-348v393h501v162h-1194v-162h502v-393h-348v-154h348v-858h191v858h348z" />
    <glyph glyph-name="tbar" unicode="&#x167;" 
d="M1112 23v153q-50 -18 -104 -31q-52 -12 -125 -12q-92 0 -142.5 41t-50.5 141v199h422v145h-422v267h422v153h-422v332h-170v-219q0 -63 -24.5 -88t-87.5 -25h-291v-153h391v-267h-391v-145h391v-213q0 -159 85.5 -242.5t276.5 -83.5q119 0 242 48z" />
    <glyph glyph-name="Utilde" unicode="&#x168;" 
d="M305 1694h152q11 116 86 116q25 0 57 -16q25 -17 64 -37q96 -55 163 -55q104 0 164.5 76t65.5 200h-150q-6 -62 -25 -89t-59 -27q-31 0 -61 18q-29 15 -66 37q-33 18 -50.5 26t-50 17.5t-63.5 9.5q-103 0 -162.5 -75t-64.5 -201zM141 1567v-1045q0 -285 142 -424
q129 -129 372 -129q242 0 371 129q141 141 141 424v1045h-186v-1043q0 -185 -72 -288q-81 -111 -252 -111q-170 0 -251 111q-74 102 -74 288v1043h-191z" />
    <glyph glyph-name="utilde" unicode="&#x169;" 
d="M289 1268h151q11 125 88 125q6 0 12 -1t12.5 -3t12 -4t13.5 -6.5t13 -7t14.5 -8.5t14 -9l15 -10t14.5 -9q88 -57 156 -57q103 0 162.5 79t64.5 210h-149q-6 -65 -26 -95t-60 -30q-9 0 -17 1.5t-17.5 5t-16.5 6.5t-18 9.5t-16.5 10t-19 12.5t-18.5 12q-88 57 -160 57
q-103 0 -161.5 -77.5t-63.5 -210.5zM221 1079v-751q0 -183 91.5 -269t254.5 -86q121 0 215 64q84 58 125 147h4v-184h176v1079h-184v-583q0 -371 -295 -371q-112 0 -166 72q-18 24 -27 64.5t-10.5 70.5t-1.5 84v663h-182z" />
    <glyph glyph-name="Umacron" unicode="&#x16a;" 
d="M987 1733v170h-651v-170h651zM141 1567v-1045q0 -285 142 -424q129 -129 372 -129q242 0 371 129q141 141 141 424v1045h-186v-1043q0 -185 -72 -288q-81 -111 -252 -111q-170 0 -251 111q-74 102 -74 288v1043h-191z" />
    <glyph glyph-name="umacron" unicode="&#x16b;" 
d="M985 1303v170h-651v-170h651zM221 1079v-751q0 -183 91.5 -269t254.5 -86q121 0 215 64q84 58 125 147h4v-184h176v1079h-184v-583q0 -371 -295 -371q-112 0 -166 72q-18 24 -27 64.5t-10.5 70.5t-1.5 84v663h-182z" />
    <glyph glyph-name="Ubreve" unicode="&#x16c;" 
d="M506 1987h-162q13 -147 96 -217t219 -70q137 0 221 70t97 217h-152q-12 -68 -54 -103t-105 -35t-105.5 35.5t-54.5 102.5zM141 1567v-1045q0 -285 142 -424q129 -129 372 -129q242 0 371 129q141 141 141 424v1045h-186v-1043q0 -185 -72 -288q-81 -111 -252 -111
q-170 0 -251 111q-74 102 -74 288v1043h-191z" />
    <glyph glyph-name="ubreve" unicode="&#x16d;" 
d="M502 1614h-160q0 -167 92 -256q83 -80 225 -80q145 0 228 80q92 89 92 256h-150q0 -91 -44.5 -139t-118.5 -48q-75 0 -119.5 48t-44.5 139zM221 1079v-751q0 -183 91.5 -269t254.5 -86q121 0 215 64q84 58 125 147h4v-184h176v1079h-184v-583q0 -371 -295 -371
q-112 0 -166 72q-18 24 -27 64.5t-10.5 70.5t-1.5 84v663h-182z" />
    <glyph glyph-name="Uring" unicode="&#x16e;" 
d="M653 1612q118 0 192.5 73.5t74.5 186.5q0 112 -74 186q-76 76 -193 76q-114 0 -190 -76q-74 -74 -74 -186t74 -186t190 -74zM653 2023q62 0 101 -43.5t39 -107.5q0 -66 -38.5 -108t-101.5 -42q-61 0 -99 42t-38 108q0 64 38.5 107.5t98.5 43.5zM141 1567v-1045
q0 -285 142 -424q129 -129 372 -129q242 0 371 129q141 141 141 424v1045h-186v-1043q0 -185 -72 -288q-81 -111 -252 -111q-170 0 -251 111q-74 102 -74 288v1043h-191z" />
    <glyph glyph-name="uring" unicode="&#x16f;" 
d="M395 1442q0 -113 74 -187q73 -73 190 -73q118 0 192.5 73.5t74.5 186.5q0 112 -74 186q-76 76 -193 76q-114 0 -190 -76q-74 -74 -74 -186zM659 1292q-61 0 -99 42t-38 108q0 64 38.5 107.5t98.5 43.5q62 0 101 -43.5t39 -107.5q0 -66 -38.5 -108t-101.5 -42zM221 1079
v-751q0 -183 91.5 -269t254.5 -86q121 0 215 64q84 58 125 147h4v-184h176v1079h-184v-583q0 -371 -295 -371q-112 0 -166 72q-18 24 -27 64.5t-10.5 70.5t-1.5 84v663h-182z" />
    <glyph glyph-name="Uhungarumlaut" unicode="&#x170;" 
d="M588 1694l147 293h-239l-64 -293h156zM918 1694l147 293h-240l-63 -293h156zM141 1567v-1045q0 -285 142 -424q129 -129 372 -129q242 0 371 129q141 141 141 424v1045h-186v-1043q0 -185 -72 -288q-81 -111 -252 -111q-170 0 -251 111q-74 102 -74 288v1043h-191z" />
    <glyph glyph-name="uhungarumlaut" unicode="&#x171;" 
d="M580 1247l194 367h-229l-117 -367h152zM907 1247l195 367h-230l-116 -367h151zM221 1079v-751q0 -183 91.5 -269t254.5 -86q121 0 215 64q84 58 125 147h4v-184h176v1079h-184v-583q0 -371 -295 -371q-112 0 -166 72q-18 24 -27 64.5t-10.5 70.5t-1.5 84v663h-182z" />
    <glyph glyph-name="Uogonek" unicode="&#x172;" 
d="M825 -385v143q-70 0 -101.5 21t-31.5 71q0 95 164 148q140 42 223 164q88 134 88 360v1045h-186v-1043q0 -185 -72 -288q-81 -111 -252 -111q-170 0 -251 111q-74 102 -74 288v1043h-191v-1045q0 -277 127.5 -412t370.5 -135v-6q-111 -66 -111 -164q0 -92 68 -141
t192 -49h37z" />
    <glyph glyph-name="uogonek" unicode="&#x173;" 
d="M1087 -385v143q-71 0 -101 22t-30 70q0 76 131 150v1079h-184v-583q0 -371 -295 -371q-112 0 -166 72q-18 24 -27 64.5t-10.5 70.5t-1.5 84v663h-182v-751q0 -183 91.5 -269t254.5 -86q121 0 215 64q84 58 125 147h4v-184h47q-89 -34 -127 -81.5t-38 -113.5
q0 -91 67.5 -140.5t190.5 -49.5h36z" />
    <glyph glyph-name="Wcircumflex" unicode="&#x174;" 
d="M541 1966l-199 -272h172l137 135h6l138 -135h178l-199 272h-233zM440 0l154 707q2 9 9.5 44.5t10.5 55.5q18 104 29 192h14q5 -42 15 -98q12 -86 35 -194l153 -707h264l101 1567h-172l-78 -1368h-19q-3 41 -12 90q-9 59 -39 215l-160 735h-176l-159 -735
q-12 -53 -23 -119q-27 -164 -29 -186h-16l-78 1368h-178l100 -1567h254z" />
    <glyph glyph-name="wcircumflex" unicode="&#x175;" 
d="M559 1614l-209 -367h154l151 213h2l152 -213h172l-209 367h-213zM485 0l127 604q3 15 9 44.5t8 39.5q9 67 20 164h13q2 -25 10 -84q15 -119 26 -164l127 -604h209l199 1079h-170l-113 -721l-6 -55q-3 -32 -6 -61l-6 -72h-12q-1 13 -4.5 37t-4.5 35q-1 6 -4 27t-4 34
q-1 10 -2.5 20.5t-3 20.5t-2.5 14l-147 721h-179l-151 -721q-1 -4 -2.5 -14t-3 -20.5t-2.5 -20.5q-1 -13 -4.5 -33.5t-4.5 -27.5q-1 -11 -4 -35t-4 -37h-12q-1 12 -2 35.5t-2 34.5q-4 71 -12 120l-117 719h-170l198 -1079h209z" />
    <glyph glyph-name="Ycircumflex" unicode="&#x176;" 
d="M547 1966l-199 -272h172l137 135h7l137 -135h178l-199 272h-233zM750 0v674l485 893h-193l-376 -723h-4l-375 723h-211l485 -899v-668h189z" />
    <glyph glyph-name="ycircumflex" unicode="&#x177;" 
d="M584 1614l-209 -367h153l152 213h2l152 -213h172l-209 367h-213zM582 0l-23 -57q-45 -117 -90 -156q-47 -39 -137 -39q-70 0 -160 21v-154q80 -23 170 -23q151 0 238 76q88 76 159 264l445 1147h-187l-254 -692q-23 -63 -26 -72q-25 -75 -33 -100h-8q-9 32 -14 45
q-10 24 -19 53q-4 13 -25 70l-270 696h-196z" />
    <glyph glyph-name="Ydieresis" unicode="&#x178;" 
d="M578 1694v264h-267v-264h267zM1018 1694v264h-264v-264h264zM750 0v674l485 893h-193l-376 -723h-4l-375 723h-211l485 -899v-668h189z" />
    <glyph glyph-name="Zacute" unicode="&#x179;" 
d="M741 1694l215 272h-276l-105 -272h166zM961 1403l-832 -1258v-145h1073v164h-846l830 1257v146h-1026v-164h801z" />
    <glyph glyph-name="zacute" unicode="&#x17a;" 
d="M737 1247l242 367h-277l-122 -367h157zM887 930l-701 -768v-162h930v152h-723l707 768v159h-881v-149h668z" />
    <glyph glyph-name="Zdotaccent" unicode="&#x17b;" 
d="M799 1694v264h-267v-264h267zM961 1403l-832 -1258v-145h1073v164h-846l830 1257v146h-1026v-164h801z" />
    <glyph glyph-name="zdotaccent" unicode="&#x17c;" 
d="M791 1282v274h-275v-274h275zM887 930l-701 -768v-162h930v152h-723l707 768v159h-881v-149h668z" />
    <glyph glyph-name="Zcaron" unicode="&#x17d;" 
d="M784 1694l199 272h-172l-137 -135h-6l-138 135h-178l199 -272h233zM961 1403l-832 -1258v-145h1073v164h-846l830 1257v146h-1026v-164h801z" />
    <glyph glyph-name="zcaron" unicode="&#x17e;" 
d="M770 1247l209 367h-158l-151 -213h-2l-152 213h-168l209 -367h213zM887 930l-701 -768v-162h930v152h-723l707 768v159h-881v-149h668z" />
    <glyph glyph-name="florin" unicode="&#x192;" 
d="M1178 748v153h-451l49 361q13 118 80 168q45 36 139 36q89 0 183 -20v151q-103 25 -195 25q-166 0 -262 -78q-108 -91 -131 -278l-49 -365h-418v-153h397l-151 -1133h184l154 1133h471z" />
    <glyph glyph-name="Aringacute" unicode="&#x1fa;" 
d="M743 2173l215 272h-276l-104 -272h165zM655 1612q118 0 192.5 73.5t74.5 186.5q0 112 -74 186q-76 76 -193 76q-114 0 -190 -76q-74 -74 -74 -186t74 -186t190 -74zM655 2023q62 0 101 -43.5t39 -107.5q0 -66 -38.5 -108t-101.5 -42q-61 0 -99 42t-38 108
q0 64 38.5 107.5t98.5 43.5zM1239 0l-461 1567h-250l-456 -1567h192l129 467h510l131 -467h205zM641 1384h16q18 -69 43 -180q1 -6 21 -82l139 -501h-424l139 501q13 57 41 162q7 33 19 68q6 27 6 32z" />
    <glyph glyph-name="aringacute" unicode="&#x1fb;" 
d="M758 1755l215 273h-277l-104 -273h166zM401 1432q0 -113 74 -187t191 -74q118 0 192 74t74 187q0 112 -74 186q-76 76 -192 76q-115 0 -191 -76q-74 -74 -74 -186zM666 1282q-61 0 -99.5 42t-38.5 108q0 64 38.5 107.5t99.5 43.5q62 0 100.5 -43.5t38.5 -107.5
q0 -66 -38 -108t-101 -42zM874 195h13q6 -105 56 -150t169 -45h57v150h-36q-50 0 -67 16t-17 65v480q0 199 -113 303q-105 92 -299 92q-190 0 -301 -96q-101 -88 -111 -232h178q4 73 54 123q62 62 180 62q119 0 177 -61t58 -195v-56q-381 -12 -532 -90q-162 -79 -162 -266
q0 -146 93 -229.5t257 -83.5q122 0 210 55t136 158zM362 305q0 81 60 129q52 37 157.5 54.5t292.5 25.5v-25q0 -181 -104 -278q-83 -80 -207 -80q-94 0 -146.5 44.5t-52.5 129.5z" />
    <glyph glyph-name="AEacute" unicode="&#x1fc;" 
d="M924 1694l215 272h-277l-104 -272h166zM653 467v-467h643v166h-465v545h390v161h-390v529h455v166h-792l-508 -1567h180l149 467h338zM365 621l247 780h41v-780h-288z" />
    <glyph glyph-name="aeacute" unicode="&#x1fd;" 
d="M748 1247l241 367h-276l-123 -367h158zM1235 283h-166q-13 -70 -37 -105q-42 -55 -123 -55q-114 0 -155 100q-37 90 -37 279h530v170q0 194 -71 307q-83 127 -252 127q-97 0 -167.5 -44.5t-103.5 -119.5h-8q-70 164 -260 164q-158 0 -244 -96q-79 -88 -82 -226h160
q3 76 39 123q41 54 125 54q87 0 123.5 -54.5t36.5 -154.5v-113q-153 0 -236 -12q-77 -13 -135 -49q-65 -39 -104 -110t-39 -167q0 -152 78.5 -236.5t211.5 -84.5q116 0 193 61q59 46 102 141h7q28 -89 96 -145q73 -60 194 -60q140 0 223.5 79.5t100.5 226.5zM1071 637h-356
q2 159 42.5 240t139.5 81q103 0 143 -84q31 -66 31 -223v-14zM356 123q-145 0 -145 188q0 96 53 146q29 29 82 39q56 11 197 8v-72q0 -150 -47 -229.5t-140 -79.5z" />
    <glyph glyph-name="Oslashacute" unicode="&#x1fe;" 
d="M745 1694l216 272h-277l-104 -272h165zM1210 778q0 364 -112 565l184 281h-149l-115 -172q-137 137 -361 137q-264 0 -401 -178q-156 -202 -156 -633q0 -356 105 -555l-180 -274h149l109 164q135 -146 370 -146q269 0 406 180q151 203 151 631zM655 1436q186 0 265 -133
l-588 -887q-33 132 -33 362q0 348 88 506q86 152 268 152zM655 121q-186 0 -268 149l588 891q37 -142 37 -383q0 -347 -86 -504q-82 -153 -271 -153z" />
    <glyph glyph-name="oslashacute" unicode="&#x1ff;" 
d="M735 1247l242 367h-277l-122 -367h157zM1157 541q0 237 -108 387l161 198h-161l-88 -110q-126 90 -306 90q-230 0 -370 -156q-135 -153 -135 -409q0 -245 110 -391l-166 -205h158l96 118q126 -90 303 -90q232 0 371 158q135 150 135 410zM653 965q139 0 211 -66
l-489 -608q-33 87 -33 250q0 202 78 313t233 111zM657 117q-142 0 -213 65l490 604q31 -89 31 -245q0 -204 -76 -314t-232 -110z" />
    <glyph glyph-name="Scommaaccent" unicode="&#x218;" 
d="M989 1147h193q-15 199 -142 317q-134 125 -381 125q-226 0 -368 -123q-139 -117 -139 -309q0 -187 92 -283q89 -96 295 -143l219 -47q256 -55 256 -276q0 -131 -76 -201q-93 -86 -270 -86q-171 0 -269 98q-83 80 -100 221h-193q12 -211 156 -340q149 -133 402 -133
q265 0 404.5 123t139.5 338q0 179 -92 281t-301 149l-240 53q-122 26 -178.5 83.5t-56.5 174.5q0 112 78 187q85 78 239 78q153 0 242 -86q77 -74 90 -201zM627 -416l184 305h-276l-66 -305h158z" />
    <glyph glyph-name="scommaaccent" unicode="&#x219;" 
d="M901 809h178q-13 143 -112 215q-113 82 -310 82q-193 0 -303 -92q-102 -86 -102 -226q0 -139 73.5 -210t209.5 -93l178 -30q119 -20 164 -54.5t45 -107.5q0 -89 -66.5 -132.5t-206.5 -43.5q-123 0 -188 51.5t-76 136.5h-178q20 -172 143 -256q112 -76 299 -76
q228 0 340.5 89t112.5 249q0 129 -77.5 201t-254.5 102l-158 27q-96 18 -140 54t-44 106q0 76 59 119t168 43t171 -36t75 -118zM616 -414l185 305h-277l-65 -305h157z" />
    <glyph glyph-name="uni021A" unicode="&#x21a;" 
d="M57 1567v-162h502v-1405h191v1405h501v162h-1194zM604 -414l184 305h-276l-66 -305h158z" />
    <glyph glyph-name="uni021B" unicode="&#x21b;" 
d="M508 926v-625q0 -159 85.5 -242.5t276.5 -83.5q119 0 242 48v153q-50 -18 -104 -31q-52 -12 -125 -12q-92 0 -142.5 41t-50.5 141v611h422v153h-422v332h-170v-219q0 -63 -24.5 -88t-87.5 -25h-291v-153h391zM766 -414l184 305h-276l-66 -305h158z" />
    <glyph glyph-name="dotlessj" unicode="&#x237;" 
d="M512 -408q163 0 268 91q105 94 105 262v1134h-602v-151h424v-963q0 -103 -53 -159t-160 -56q-23 0 -46 1.5t-37.5 3t-37 6l-30 6t-32 7.5t-28.5 7v-160q131 -29 229 -29z" />
    <glyph glyph-name="circumflex" unicode="&#x2c6;" 
d="M549 1614l-209 -367h154l151 213h2l152 -213h172l-209 367h-213z" />
    <glyph glyph-name="caron" unicode="&#x2c7;" 
d="M762 1247l209 367h-158l-151 -213h-3l-151 213h-168l209 -367h213z" />
    <glyph glyph-name="breve" unicode="&#x2d8;" 
d="M496 1614h-160q0 -167 92 -256q83 -80 225 -80q145 0 228 80q92 89 92 256h-150q0 -91 -44.5 -139t-119.5 -48q-74 0 -118.5 48t-44.5 139z" />
    <glyph glyph-name="dotaccent" unicode="&#x2d9;" 
d="M795 1282v274h-275v-274h275z" />
    <glyph glyph-name="ring" unicode="&#x2da;" 
d="M383 1452q0 -112 74 -186t190 -74q118 0 192 73.5t74 186.5t-73 186q-76 76 -193 76q-114 0 -190 -76q-74 -74 -74 -186zM647 1303q-61 0 -99 41.5t-38 107.5q0 64 38.5 108t98.5 44q62 0 100.5 -44t38.5 -108q0 -66 -38 -107.5t-101 -41.5z" />
    <glyph glyph-name="ogonek" unicode="&#x2db;" 
d="M821 0l-35 51q-144 -55 -202 -109t-58 -137q0 -91 67.5 -140.5t190.5 -49.5h37v143q-71 0 -101 22t-30 70q0 76 131 150z" />
    <glyph glyph-name="tilde" unicode="&#x2dc;" 
d="M287 1268h151q11 125 88 125q6 0 12 -1t12.5 -3t12 -4t13.5 -6.5t13 -7t14.5 -8.5t14 -9l15 -10t14.5 -9q88 -57 156 -57q103 0 162.5 79t64.5 210h-149q-6 -65 -26 -95t-60 -30q-9 0 -17 1.5t-17.5 5t-16.5 6.5t-18 9.5t-16.5 10t-19 12.5t-18.5 12q-88 57 -160 57
q-103 0 -161.5 -77.5t-63.5 -210.5z" />
    <glyph glyph-name="hungarumlaut" unicode="&#x2dd;" 
d="M479 1247l195 367h-230l-116 -367h151zM807 1247l194 367h-229l-117 -367h152z" />
    <glyph glyph-name="Wgrave" unicode="&#x1e80;" 
d="M346 1966l215 -272h166l-104 272h-277zM440 0l154 707q2 9 9.5 44.5t10.5 55.5q18 104 29 192h14q5 -42 15 -98q12 -86 35 -194l153 -707h264l101 1567h-172l-78 -1368h-19q-3 41 -12 90q-9 59 -39 215l-160 735h-176l-159 -735q-12 -53 -23 -119q-27 -164 -29 -186h-16
l-78 1368h-178l100 -1567h254z" />
    <glyph glyph-name="wgrave" unicode="&#x1e81;" 
d="M612 1614h-276l242 -367h157zM485 0l127 604q3 15 9 44.5t8 39.5q9 67 20 164h13q2 -25 10 -84q15 -119 26 -164l127 -604h209l199 1079h-170l-113 -721l-6 -55q-3 -32 -6 -61l-6 -72h-12q-1 13 -4.5 37t-4.5 35q-1 6 -4 27t-4 34q-1 10 -2.5 20.5t-3 20.5t-2.5 14
l-147 721h-179l-151 -721q-1 -4 -2.5 -14t-3 -20.5t-2.5 -20.5q-1 -13 -4.5 -33.5t-4.5 -27.5q-1 -11 -4 -35t-4 -37h-12q-1 12 -2 35.5t-2 34.5q-4 71 -12 120l-117 719h-170l198 -1079h209z" />
    <glyph glyph-name="Wacute" unicode="&#x1e82;" 
d="M758 1694l215 272h-277l-104 -272h166zM440 0l154 707q2 9 9.5 44.5t10.5 55.5q18 104 29 192h14q5 -42 15 -98q12 -86 35 -194l153 -707h264l101 1567h-172l-78 -1368h-19q-3 41 -12 90q-9 59 -39 215l-160 735h-176l-159 -735q-12 -53 -23 -119q-27 -164 -29 -186h-16
l-78 1368h-178l100 -1567h254z" />
    <glyph glyph-name="wacute" unicode="&#x1e83;" 
d="M741 1247l242 367h-276l-123 -367h157zM485 0l127 604q3 15 9 44.5t8 39.5q9 67 20 164h13q2 -25 10 -84q15 -119 26 -164l127 -604h209l199 1079h-170l-113 -721l-6 -55q-3 -32 -6 -61l-6 -72h-12q-1 13 -4.5 37t-4.5 35q-1 6 -4 27t-4 34q-1 10 -2.5 20.5t-3 20.5
t-2.5 14l-147 721h-179l-151 -721q-1 -4 -2.5 -14t-3 -20.5t-2.5 -20.5q-1 -13 -4.5 -33.5t-4.5 -27.5q-1 -11 -4 -35t-4 -37h-12q-1 12 -2 35.5t-2 34.5q-4 71 -12 120l-117 719h-170l198 -1079h209z" />
    <glyph glyph-name="Wdieresis" unicode="&#x1e84;" 
d="M571 1694v264h-266v-264h266zM1012 1694v264h-264v-264h264zM440 0l154 707q2 9 9.5 44.5t10.5 55.5q18 104 29 192h14q5 -42 15 -98q12 -86 35 -194l153 -707h264l101 1567h-172l-78 -1368h-19q-3 41 -12 90q-9 59 -39 215l-160 735h-176l-159 -735q-12 -53 -23 -119
q-27 -164 -29 -186h-16l-78 1368h-178l100 -1567h254z" />
    <glyph glyph-name="wdieresis" unicode="&#x1e85;" 
d="M571 1280v264h-266v-264h266zM1012 1544h-264v-264h264v264zM485 0l127 604q3 15 9 44.5t8 39.5q9 67 20 164h13q2 -25 10 -84q15 -119 26 -164l127 -604h209l199 1079h-170l-113 -721l-6 -55q-3 -32 -6 -61l-6 -72h-12q-1 13 -4.5 37t-4.5 35q-1 6 -4 27t-4 34
q-1 10 -2.5 20.5t-3 20.5t-2.5 14l-147 721h-179l-151 -721q-1 -4 -2.5 -14t-3 -20.5t-2.5 -20.5q-1 -13 -4.5 -33.5t-4.5 -27.5q-1 -11 -4 -35t-4 -37h-12q-1 12 -2 35.5t-2 34.5q-4 71 -12 120l-117 719h-170l198 -1079h209z" />
    <glyph glyph-name="Ygrave" unicode="&#x1ef2;" 
d="M375 1966l215 -272h166l-105 272h-276zM750 0v674l485 893h-193l-376 -723h-4l-375 723h-211l485 -899v-668h189z" />
    <glyph glyph-name="ygrave" unicode="&#x1ef3;" 
d="M655 1614h-276l242 -367h157zM582 0l-23 -57q-45 -117 -90 -156q-47 -39 -137 -39q-70 0 -160 21v-154q80 -23 170 -23q151 0 238 76q88 76 159 264l445 1147h-187l-254 -692q-23 -63 -26 -72q-25 -75 -33 -100h-8q-9 32 -14 45q-10 24 -19 53q-4 13 -25 70l-270 696
h-196z" />
    <glyph glyph-name="uni2009" unicode="&#x2009;" horiz-adv-x="0" 
 />
    <glyph glyph-name="endash" unicode="&#x2013;" 
d="M1049 594v149h-787v-149h787z" />
    <glyph glyph-name="emdash" unicode="&#x2014;" 
d="M1311 594v149h-1311v-149h1311z" />
    <glyph glyph-name="quoteleft" unicode="&#x2018;" 
d="M737 1032l111 535h-162l-244 -535h295z" />
    <glyph glyph-name="quoteright" unicode="&#x2019;" 
d="M573 1567l-110 -535h162l243 535h-295z" />
    <glyph glyph-name="quotesinglbase" unicode="&#x201a;" 
d="M868 274h-295l-110 -534h162z" />
    <glyph glyph-name="quotedblleft" unicode="&#x201c;" 
d="M522 1032l111 535h-162l-244 -535h295zM932 1032l110 535h-161l-244 -535h295z" />
    <glyph glyph-name="quotedblright" unicode="&#x201d;" 
d="M338 1567l-111 -535h162l244 535h-295zM748 1567l-111 -535h162l243 535h-294z" />
    <glyph glyph-name="quotedblbase" unicode="&#x201e;" 
d="M643 274h-295l-110 -534h161zM1053 274h-295l-111 -534h162z" />
    <glyph glyph-name="dagger" unicode="&#x2020;" 
d="M1147 905v156h-406v506h-170v-506h-405v-156h405v-1069h170v1069h406z" />
    <glyph glyph-name="daggerdbl" unicode="&#x2021;" 
d="M1147 352v156h-406v418h406v155h-406v486h-170v-486h-405v-155h405v-418h-405v-156h405v-516h170v516h406z" />
    <glyph glyph-name="bullet" unicode="&#x2022;" 
d="M653 385q104 0 172 68q72 69 72 178t-67 177.5t-175 68.5q-100 0 -170 -70q-71 -71 -71 -176q0 -111 67 -178.5t172 -67.5z" />
    <glyph glyph-name="ellipsis" unicode="&#x2026;" 
d="M352 0v274h-274v-274h274zM793 0v274h-275v-274h275zM1233 0v274h-275v-274h275z" />
    <glyph glyph-name="perthousand" unicode="&#x2030;" 
d="M43 1251q0 -162 61.5 -246.5t169.5 -84.5q113 0 177.5 84t64.5 247t-62.5 246.5t-174.5 83.5q-108 0 -172 -84.5t-64 -245.5zM276 1036q-104 0 -104 215q0 213 104 213q109 0 109 -213q0 -215 -109 -215zM1004 1065v141l-963 -542v-142zM496 -14q114 0 177.5 82.5
t63.5 248.5q0 163 -62.5 246.5t-174.5 83.5q-108 0 -172 -84.5t-64 -245.5q0 -162 62 -246.5t170 -84.5zM1049 -14q113 0 176 84t63 247t-62.5 246.5t-174.5 83.5q-108 0 -172 -84.5t-64 -245.5q0 -165 62.5 -248t171.5 -83zM498 102q-105 0 -105 215q0 213 105 213
q108 0 108 -213q0 -215 -108 -215zM1049 102q-105 0 -105 215q0 213 105 213q108 0 108 -213q0 -212 -108 -215z" />
    <glyph glyph-name="minute" unicode="&#x2032;" 
d="M645 958l156 609h-244l-59 -609h147z" />
    <glyph glyph-name="second" unicode="&#x2033;" 
d="M461 958l155 609h-243l-60 -609h148zM829 958l156 609h-244l-59 -609h147z" />
    <glyph glyph-name="guilsinglleft" unicode="&#x2039;" 
d="M725 950l-397 -418l397 -415h223l-381 420l381 413h-223z" />
    <glyph glyph-name="guilsinglright" unicode="&#x203a;" 
d="M586 117l397 418l-397 415h-224l381 -420l-381 -413h224z" />
    <glyph glyph-name="fraction" unicode="&#x2044;" 
d="M158 -82l1163 1679h-168l-1163 -1679h168z" />
    <glyph glyph-name="Euro" unicode="&#x20ac;" 
d="M1219 424h-177q-15 -134 -86 -217q-73 -86 -204 -86q-268 0 -326 393h455v145h-467q-2 14 -2 48v47v47q0 31 2 45h463v145h-451q54 398 324 398q121 0 198 -97q62 -79 76 -211h180q-20 221 -153 344q-127 115 -301 115q-435 0 -510 -549h-205v-145h192q-2 -14 -2 -45v-47
v-47q0 -34 2 -48h-188v-145h201q72 -547 510 -547q198 0 323 125q122 122 146 332z" />
    <glyph glyph-name="trademark" unicode="&#x2122;" 
d="M47 1567v-101h164v-567h115v567h163v101h-442zM688 899v522h8l6 -39q1 -6 5 -21.5t6 -23.5q2 -19 14 -55l117 -383h96l115 385q3 9 8 27.5t8 27.5q19 76 19 82h8v-522h114v668h-168l-122 -416q-10 -35 -11 -41q-1 -8 -4 -20t-4 -15q-4 -20 -4 -31h-6q-1 5 -2 15.5
t-2 15.5l-6 35q-1 6 -11 41l-120 416h-170v-668h106z" />
    <glyph glyph-name="uni2153" unicode="&#x2153;" horiz-adv-x="3932" 
d="M1022 657h-256v945h-137q0 -57 -12.5 -91t-41.5 -59q-46 -43 -159 -43h-70v-125h262v-627h-268v-131h682v131zM1468 -82l1164 1679h-168l-1164 -1679h168zM2978 395h98q104 0 160.5 -47t56.5 -133q0 -85 -61.5 -135.5t-155.5 -50.5q-96 0 -157.5 48.5t-73.5 145.5h-164
q9 -138 98 -227q100 -100 287 -100q180 0 289 94q100 86 100 219q0 115 -64 182q-57 57 -155 80v4q192 68 192 248q0 126 -92 203q-100 80 -262 80q-179 0 -283 -101q-92 -89 -92 -225h164q6 190 207 190q87 0 139.5 -44t52.5 -121q0 -79 -52 -128t-138 -49h-94v-133z" />
    <glyph glyph-name="uni2154" unicode="&#x2154;" horiz-adv-x="3932" 
d="M272 1235h156q8 250 219 250q88 0 142.5 -50t54.5 -132q0 -89 -47 -156q-45 -67 -150 -158l-389 -350v-113h768v144h-539v6q27 19 43 33q21 15 48 36t57 48l135 120q122 106 184 199q54 82 54 195q0 142 -101 227q-100 80 -260 80q-170 0 -272 -100.5t-103 -278.5z
M1468 -82l1164 1679h-168l-1164 -1679h168zM2978 395h98q104 0 160.5 -47t56.5 -133q0 -85 -61.5 -135.5t-155.5 -50.5q-96 0 -157.5 48.5t-73.5 145.5h-164q9 -138 98 -227q100 -100 287 -100q180 0 289 94q100 86 100 219q0 115 -64 182q-57 57 -155 80v4q192 68 192 248
q0 126 -92 203q-100 80 -262 80q-179 0 -283 -101q-92 -89 -92 -225h164q6 190 207 190q87 0 139.5 -44t52.5 -121q0 -79 -52 -128t-138 -49h-94v-133z" />
    <glyph glyph-name="oneeighth" unicode="&#x215b;" horiz-adv-x="3932" 
d="M1022 657h-256v945h-137q0 -57 -12.5 -91t-41.5 -59q-46 -43 -159 -43h-70v-125h262v-627h-268v-131h682v131zM1468 -82l1164 1679h-168l-1164 -1679h168zM2707 713q0 -93 50 -156t127 -88v-4q-90 -26 -142 -80q-67 -70 -67 -180q0 -139 102 -221q106 -88 295 -88
q191 0 295 90q98 82 98 219q0 113 -63 182q-51 54 -140 78v4q76 25 123 87.5t47 156.5q0 128 -90 209q-94 84 -270 84q-173 0 -270 -84q-95 -83 -95 -209zM3072 881q89 0 144 -46t55 -135q0 -88 -56 -133t-143 -45q-90 0 -145.5 45t-55.5 133q0 89 55.5 135t145.5 46z
M3072 18q-102 0 -162 48q-69 50 -69 145q0 94 64 140t167 46q105 0 169 -46t64 -140q0 -96 -64 -144.5t-169 -48.5z" />
    <glyph glyph-name="threeeighths" unicode="&#x215c;" horiz-adv-x="3932" 
d="M561 1004h98q104 0 161 -47.5t57 -133.5q0 -84 -62 -135t-156 -51q-96 0 -157.5 48.5t-73.5 145.5h-164q9 -138 98 -227q100 -100 287 -100q180 0 289 94q100 86 100 219q0 116 -63 182q-56 56 -156 80v4q95 34 144 93.5t49 154.5q0 126 -92 203q-100 80 -263 80
q-178 0 -282 -101q-92 -89 -92 -225h163q6 191 207 191q87 0 140 -44.5t53 -121.5q0 -78 -52.5 -127t-138.5 -49h-94v-133zM1468 -82l1164 1679h-168l-1164 -1679h168zM2707 713q0 -93 50 -156t127 -88v-4q-90 -26 -142 -80q-67 -70 -67 -180q0 -139 102 -221
q106 -88 295 -88q191 0 295 90q98 82 98 219q0 113 -63 182q-51 54 -140 78v4q76 25 123 87.5t47 156.5q0 128 -90 209q-94 84 -270 84q-173 0 -270 -84q-95 -83 -95 -209zM3072 881q89 0 144 -46t55 -135q0 -88 -56 -133t-143 -45q-90 0 -145.5 45t-55.5 133q0 89 55.5 135
t145.5 46zM3072 18q-102 0 -162 48q-69 50 -69 145q0 94 64 140t167 46q105 0 169 -46t64 -140q0 -96 -64 -144.5t-169 -48.5z" />
    <glyph glyph-name="fiveeighths" unicode="&#x215d;" horiz-adv-x="3932" 
d="M883 870q0 -116 -63.5 -174.5t-166.5 -58.5q-207 0 -227 178h-160q10 -132 94 -213q95 -98 285 -98q185 0 293 102q106 100 106 268q0 180 -104 277q-100 86 -250 86q-74 0 -133.5 -26.5t-91.5 -65.5h-10l14 307h518v145h-653l-29 -583h141q63 90 211 90q104 0 165 -61.5
t61 -172.5zM1468 -82l1164 1679h-168l-1164 -1679h168zM2707 713q0 -93 50 -156t127 -88v-4q-90 -26 -142 -80q-67 -70 -67 -180q0 -139 102 -221q106 -88 295 -88q191 0 295 90q98 82 98 219q0 113 -63 182q-51 54 -140 78v4q76 25 123 87.5t47 156.5q0 128 -90 209
q-94 84 -270 84q-173 0 -270 -84q-95 -83 -95 -209zM3072 881q89 0 144 -46t55 -135q0 -88 -56 -133t-143 -45q-90 0 -145.5 45t-55.5 133q0 89 55.5 135t145.5 46zM3072 18q-102 0 -162 48q-69 50 -69 145q0 94 64 140t167 46q105 0 169 -46t64 -140q0 -96 -64 -144.5
t-169 -48.5z" />
    <glyph glyph-name="seveneighths" unicode="&#x215e;" horiz-adv-x="3932" 
d="M545 526l499 971v100h-782v-151h590l-475 -920h168zM1427 -82l1164 1679h-168l-1163 -1679h167zM2707 713q0 -93 50 -156t127 -88v-4q-90 -26 -142 -80q-67 -70 -67 -180q0 -139 102 -221q106 -88 295 -88q191 0 295 90q98 82 98 219q0 113 -63 182q-51 54 -140 78v4
q76 25 123 87.5t47 156.5q0 128 -90 209q-94 84 -270 84q-173 0 -270 -84q-95 -83 -95 -209zM3072 881q89 0 144 -46t55 -135q0 -88 -56 -133t-143 -45q-90 0 -145.5 45t-55.5 133q0 89 55.5 135t145.5 46zM3072 18q-102 0 -162 48q-69 50 -69 145q0 94 64 140t167 46
q105 0 169 -46t64 -140q0 -96 -64 -144.5t-169 -48.5z" />
    <glyph glyph-name="minus" unicode="&#x2212;" 
d="M1126 651v162h-942v-162h942z" />
    <glyph glyph-name="approxequal" unicode="&#x2248;" 
d="M184 799h150q4 63 31.5 94t66.5 31q40 0 203 -60q160 -59 244 -59q112 0 179.5 73.5t67.5 202.5h-149q-4 -64 -32 -95.5t-66 -31.5q-35 0 -197 62q-164 59 -248 59q-112 0 -181 -74t-69 -202zM432 555q43 0 203 -59q163 -60 246 -60q112 0 178.5 74t66.5 203h-149
q-4 -64 -32 -95.5t-66 -31.5t-197 61q-166 60 -248 60q-112 0 -181 -74t-69 -203h150q4 63 31.5 94t66.5 31z" />
    <glyph glyph-name="notequal" unicode="&#x2260;" 
d="M1126 469v156h-442l109 215h333v155h-256l123 246h-166l-122 -246h-521v-155h443l-109 -215h-334v-156h256l-123 -246h166l123 246h520z" />
    <glyph glyph-name="lessequal" unicode="&#x2264;" 
d="M1128 449l-722 294l722 295v179l-958 -402v-143l958 -402v179zM1128 158h-958v-158h958v158z" />
    <glyph glyph-name="greaterequal" unicode="&#x2265;" 
d="M180 1038l723 -295l-723 -294v-179l959 402v143l-959 402v-179zM1139 158h-959v-158h959v158z" />
    <glyph glyph-name="uni24C5" unicode="&#x24c5;" 
d="M102 864v-168q0 -340 127 -522q139 -207 426 -207q284 0 428 209q125 183 125 520v168q0 330 -125 516q-142 211 -428 211t-428 -211q-125 -186 -125 -516zM655 80q-244 0 -342 194q-77 150 -77 431v151q0 271 77 424q100 199 342 199q240 0 344 -199q76 -146 76 -424
v-151q0 -288 -76 -431q-101 -194 -344 -194zM582 668h80q134 0 206 61q84 71 84 213q0 141 -80 211q-68 57 -198 57h-236v-860h144v318zM582 1098h92q135 0 135 -158q0 -160 -137 -160h-90v318z" />
    <glyph glyph-name="uniE401" unicode="&#xe401;" 
d="M137 754q0 -395 135 -591t381 -196t379 193q142 204 142 594q0 389 -142 596q-133 190 -379 190q-241 0 -374 -190q-142 -207 -142 -596zM653 1384q246 0 310 -358l-635 -383q-2 16 -2 51v56q0 634 327 634zM653 121q-243 0 -307 352l635 385q2 -18 2 -53v-55
q0 -310 -84.5 -469.5t-245.5 -159.5z" />
    <glyph glyph-name="uniF8FF" unicode="&#xf8ff;" 
d="M1241 1024q0 119 -45.5 226t-126.5 188q-81 80 -188 124t-226 44t-225 -44t-186 -124q-81 -81 -126.5 -188t-45.5 -226t45.5 -224.5t126.5 -185.5q80 -81 186 -126.5t225 -45.5t226 45.5t188 126.5q81 80 126.5 185.5t45.5 224.5zM406 1325h-203q67 99 167 163t220 81
q-111 -80 -184 -244zM1110 1325h-205q-65 154 -184 244q117 -13 219.5 -78t169.5 -166zM635 1325h-186q67 157 186 238v-238zM676 1325v238q63 -44 107.5 -99.5t78.5 -138.5h-186zM352 1042h-239q6 136 67 246h213q-38 -116 -41 -246zM635 1042h-242q3 131 43 246h199v-246z
M676 1288h198q41 -115 44 -246h-242v246zM1200 1042h-242q-3 143 -40 246h215q58 -110 67 -246zM393 760h-213q-61 110 -67 246h239q3 -137 41 -246zM635 760h-199q-40 115 -43 246h242v-246zM676 1006h242q-3 -136 -44 -246h-198v246zM1133 760h-215q37 106 40 246h242
q-9 -135 -67 -246zM594 479q-120 13 -221.5 78t-169.5 166h205q59 -144 186 -244zM635 723v-236q-119 83 -184 236h184zM676 723h184q-66 -156 -184 -236v236zM717 479q120 90 186 244h207q-67 -99 -173 -165.5t-220 -78.5z" />
    <glyph glyph-name="f_i" unicode="&#xfb01;" horiz-adv-x="2621" 
d="M1143 926v153h-422v203q0 97 49.5 140.5t149.5 43.5q112 0 223 -34v155q-116 33 -230 33q-163 0 -266 -74q-108 -81 -108 -248v-219h-392v-153h392v-926h182v926h422zM2109 1282v274h-274v-274h274zM2478 154h-403v925h-514v-147h337v-778h-397v-154h977v154z" />
    <glyph glyph-name="f_l" unicode="&#xfb02;" horiz-adv-x="2621" 
d="M1143 926v153h-422v203q0 97 49.5 140.5t149.5 43.5q112 0 223 -34v155q-116 33 -230 33q-163 0 -266 -74q-108 -81 -108 -248v-219h-392v-153h392v-926h182v926h422zM2476 154h-401v1460h-537v-148h354v-1312h-393v-154h977v154z" />
    <glyph glyph-name="IJ.alt01" horiz-adv-x="2621" 
d="M1106 1413v154h-901v-154h356v-1259h-356v-154h901v154h-356v1259h356zM2126 1565v-1121q0 -142 -75.5 -219.5t-231.5 -77.5q-160 0 -320 39v-172q4 -1 27 -5.5t30.5 -6t29.5 -5.5t33.5 -5.5t33 -4.5t38.5 -4t39 -3t44.5 -2.5t46.5 -0.5q223 0 358 117q137 118 137 338
v1133h-190z" />
    <glyph glyph-name="J.alt01" 
d="M815 1567v-1121q0 -141 -75 -218.5t-232 -77.5q-164 0 -320 38v-172q184 -36 322 -36q224 0 358 116q138 119 138 338v1133h-191z" />
    <glyph glyph-name="Jcircumflex.alt01" 
d="M791 1966l-199 -272h172l137 135h6l137 -135h179l-199 272h-233zM815 1567v-1121q0 -141 -75 -218.5t-232 -77.5q-164 0 -320 38v-172q184 -36 322 -36q224 0 358 116q138 119 138 338v1133h-191z" />
    <glyph glyph-name="Q.old" 
d="M1155 -109l-143 218q198 195 198 669q0 436 -149 633q-135 178 -404 178q-264 0 -401 -178q-156 -202 -156 -633q0 -432 148 -631q134 -180 405 -180q129 0 234 51l141 -213zM303 776q0 352 84 508q83 154 268 154q187 0 269 -150q84 -153 84 -512q0 -377 -88 -524
l-138 209l-129 -88l150 -228q-49 -24 -148 -24q-186 0 -268 153q-84 156 -84 502z" />
    <glyph glyph-name="i.loclTRK" 
d="M797 1282v274h-275v-274h275zM1165 154h-403v925h-514v-147h338v-778h-398v-154h977v154z" />
    <glyph glyph-name="f.alt01" 
d="M1163 926v153h-422v211q0 95 41 135.5t123 40.5q60 0 142 -16v152q-85 18 -158 18q-152 0 -241 -79.5t-89 -235.5v-226h-391v-153h391v-926h182v926h422z" />
    <glyph glyph-name="ij.alt01" horiz-adv-x="2621" 
d="M797 1282v274h-275v-274h275zM2232 1556h-274v-274h274v274zM1165 154h-403v925h-514v-147h338v-778h-398v-154h977v154zM1870 -410q147 0 233 74q95 85 95 244v1171h-605v-151h422v-1006q0 -178 -162 -178q-65 0 -143 16v-151q69 -19 160 -19z" />
    <glyph glyph-name="j.alt01" 
d="M922 1556h-275v-274h275v274zM559 -410q148 0 234 74q94 84 94 244v1171h-604v-151h422v-1006q0 -178 -162 -178q-66 0 -144 16v-151q69 -19 160 -19z" />
    <glyph glyph-name="dotlessj.alt01" 
d="M399 -240v-151q69 -19 160 -19q148 0 234 74q94 84 94 244v1171h-604v-151h422v-1006q0 -178 -162 -178q-66 0 -144 16z" />
    <glyph glyph-name="jcircumflex.alt01" 
d="M692 1614l-209 -367h154l151 213h3l151 -213h172l-209 367h-213zM399 -240v-151q69 -19 160 -19q148 0 234 74q94 84 94 244v1171h-604v-151h422v-1006q0 -178 -162 -178q-66 0 -144 16z" />
    <glyph glyph-name="t.alt01" 
d="M807 -25q109 0 188 29v143q-69 -16 -137 -16q-92 0 -130 35.5t-38 126.5v633h422v153h-422v332h-170v-217q0 -66 -25.5 -90.5t-91.5 -24.5h-286v-153h391v-645q0 -306 299 -306z" />
    <glyph glyph-name="tbar.alt01" 
d="M995 4v143q-69 -16 -137 -16q-92 0 -130 35.5t-38 126.5v219h422v147h-422v267h422v153h-422v332h-170v-217q0 -66 -25.5 -90.5t-91.5 -24.5h-286v-153h391v-267h-391v-147h391v-231q0 -306 299 -306q109 0 188 29z" />
    <glyph glyph-name="tcaron.alt01" 
d="M961 1196l157 418h-223l-49 -418h115zM807 -25q109 0 188 29v143q-69 -16 -137 -16q-92 0 -130 35.5t-38 126.5v633h422v153h-422v332h-170v-217q0 -66 -25.5 -90.5t-91.5 -24.5h-286v-153h391v-645q0 -306 299 -306z" />
    <glyph glyph-name="uni021B.alt01" 
d="M807 -25q109 0 188 29v143q-69 -16 -137 -16q-92 0 -130 35.5t-38 126.5v633h422v153h-422v332h-170v-217q0 -66 -25.5 -90.5t-91.5 -24.5h-286v-153h391v-645q0 -306 299 -306zM709 -414l184 305h-277l-65 -305h158z" />
    <glyph glyph-name="y.alt01" 
d="M582 0l-23 -57q-45 -117 -90 -156q-47 -39 -137 -39q-81 0 -119 10v-153q72 -13 129 -13q151 0 238 76q88 76 159 264l445 1147h-187l-254 -692q-23 -63 -26 -72q-25 -75 -33 -100h-8q-9 32 -14 45q-10 24 -19 53q-4 13 -25 70l-270 696h-196z" />
    <glyph glyph-name="yacute.alt01" 
d="M762 1247l242 367h-277l-123 -367h158zM582 0l-23 -57q-45 -117 -90 -156q-47 -39 -137 -39q-81 0 -119 10v-153q72 -13 129 -13q151 0 238 76q88 76 159 264l445 1147h-187l-254 -692q-23 -63 -26 -72q-25 -75 -33 -100h-8q-9 32 -14 45q-10 24 -19 53q-4 13 -25 70
l-270 696h-196z" />
    <glyph glyph-name="ycircumflex.alt01" 
d="M580 1614l-209 -367h153l152 213h2l151 -213h172l-208 367h-213zM582 0l-23 -57q-45 -117 -90 -156q-47 -39 -137 -39q-81 0 -119 10v-153q72 -13 129 -13q151 0 238 76q88 76 159 264l445 1147h-187l-254 -692q-23 -63 -26 -72q-25 -75 -33 -100h-8q-9 32 -14 45
q-10 24 -19 53q-4 13 -25 70l-270 696h-196z" />
    <glyph glyph-name="ydieresis.alt01" 
d="M592 1280v264h-266v-264h266zM1032 1544h-264v-264h264v264zM582 0l-23 -57q-45 -117 -90 -156q-47 -39 -137 -39q-81 0 -119 10v-153q72 -13 129 -13q151 0 238 76q88 76 159 264l445 1147h-187l-254 -692q-23 -63 -26 -72q-25 -75 -33 -100h-8q-9 32 -14 45
q-10 24 -19 53q-4 13 -25 70l-270 696h-196z" />
    <glyph glyph-name="ygrave.alt01" 
d="M623 1614h-277l242 -367h157zM582 0l-23 -57q-45 -117 -90 -156q-47 -39 -137 -39q-81 0 -119 10v-153q72 -13 129 -13q151 0 238 76q88 76 159 264l445 1147h-187l-254 -692q-23 -63 -26 -72q-25 -75 -33 -100h-8q-9 32 -14 45q-10 24 -19 53q-4 13 -25 70l-270 696
h-196z" />
    <glyph glyph-name="f_i.alt01" horiz-adv-x="2621" 
d="M1163 926v153h-422v211q0 95 41 135.5t123 40.5q60 0 142 -16v152q-85 18 -158 18q-152 0 -241 -79.5t-89 -235.5v-226h-391v-153h391v-926h182v926h422zM2109 1282v274h-274v-274h274zM2478 154h-403v925h-514v-147h337v-778h-397v-154h977v154z" />
    <glyph glyph-name="f_l.alt01" horiz-adv-x="2621" 
d="M1163 926v153h-422v211q0 95 41 135.5t123 40.5q60 0 142 -16v152q-85 18 -158 18q-152 0 -241 -79.5t-89 -235.5v-226h-391v-153h391v-926h182v926h422zM2476 154h-401v1460h-537v-148h354v-1312h-393v-154h977v154z" />
    <glyph glyph-name="zero.den" 
d="M242 451q0 -279 106 -417t305 -138q197 0 306.5 139.5t109.5 415.5t-110 415.5t-306 139.5q-192 0 -301.5 -140.5t-109.5 -414.5zM653 25q-235 0 -235 424q0 215 61.5 320t173.5 105q114 0 177 -105.5t63 -319.5q0 -210 -64 -317t-176 -107z" />
    <glyph glyph-name="one.den" 
d="M1022 49h-256v944h-137q0 -57 -12.5 -90.5t-41.5 -58.5q-46 -43 -159 -43h-70v-125h262v-627h-268v-131h682v131z" />
    <glyph glyph-name="two.den" 
d="M272 627h156q8 250 219 250q88 0 142.5 -50.5t54.5 -132.5q0 -88 -47 -155q-45 -67 -150 -158l-389 -350v-113h768v143h-539v7q34 24 43 32q5 4 48 37q35 27 57 47l135 121q122 106 184 199q54 82 54 194q0 143 -101 228q-100 80 -260 80q-170 0 -272 -100.5t-103 -278.5
z" />
    <glyph glyph-name="three.den" 
d="M561 395h98q104 0 161 -47t57 -133q0 -84 -62 -135t-156 -51q-96 0 -157.5 48.5t-73.5 145.5h-164q9 -138 98 -227q100 -100 287 -100q180 0 289 94q100 86 100 219q0 116 -63 182q-56 56 -156 80v4q95 34 144 93.5t49 154.5q0 126 -92 203q-100 80 -263 80
q-178 0 -282 -101q-92 -89 -92 -225h163q6 190 207 190q87 0 140 -44t53 -121q0 -78 -52.5 -127.5t-138.5 -49.5h-94v-133z" />
    <glyph glyph-name="four.den" 
d="M1087 305h-172v684h-194l-485 -696v-121h526v-254h153v254h172v133zM397 303l293 416q32 46 49 80l17 32l12 -2v-526h-371z" />
    <glyph glyph-name="five.den" 
d="M883 262q0 -116 -63.5 -174.5t-166.5 -58.5q-207 0 -227 178h-160q10 -132 94 -213q95 -98 285 -98q185 0 293 102q106 100 106 268q0 180 -104 277q-100 86 -250 86q-74 0 -133.5 -26.5t-91.5 -65.5h-10l14 307h518v145h-653l-29 -583h141q63 90 211 90q104 0 165 -61.5
t61 -172.5z" />
    <glyph glyph-name="six.den" 
d="M874 743h160q-16 112 -100 187q-92 76 -236 76q-428 0 -428 -607q0 -275 117 -399q99 -104 279 -104q176 0 286 110q103 106 103 266q0 170 -99 263q-89 83 -235 83q-96 0 -170.5 -41.5t-112.5 -109.5h-6q0 187 64 297q67 113 198 113q75 0 121 -37t59 -97zM668 27
q-92 0 -152 57q-67 64 -67 176t58.5 169.5t160.5 57.5q99 0 160 -59.5t61 -167.5q0 -111 -68 -176q-60 -57 -153 -57z" />
    <glyph glyph-name="seven.den" 
d="M545 -82l499 971v100h-782v-151h590l-475 -920h168z" />
    <glyph glyph-name="eight.den" 
d="M291 713q0 -93 49.5 -156t126.5 -88v-4q-89 -25 -141 -80q-68 -71 -68 -180q0 -139 102 -221q106 -88 295 -88q191 0 295 90q99 83 99 219q0 111 -64 182q-51 54 -139 78v4q76 25 123 87.5t47 156.5q0 128 -90 209q-94 84 -271 84q-173 0 -270 -84q-94 -82 -94 -209z
M655 881q89 0 144 -46t55 -135q0 -88 -56 -133t-143 -45q-90 0 -145 45t-55 133q0 89 55 135t145 46zM655 18q-101 0 -161 48q-70 50 -70 145q0 94 64 140t167 46q105 0 169.5 -46t64.5 -140q0 -96 -64.5 -144.5t-169.5 -48.5z" />
    <glyph glyph-name="nine.den" 
d="M434 170h-158q23 -134 115 -204t230 -70q205 0 311 141q110 147 110 467q0 251 -104 376.5t-295 125.5q-168 0 -276 -103q-105 -105 -105 -260q0 -168 111 -260q95 -82 233 -82q91 0 161 38.5t107 100.5h5q0 -213 -63.5 -313t-188.5 -100q-74 0 -125 37.5t-68 105.5z
M643 872q92 0 156 -55q69 -62 69 -168q0 -102 -62.5 -160.5t-162.5 -58.5q-96 0 -156.5 57t-60.5 162q0 111 68 172q57 51 149 51z" />
    <glyph glyph-name="zero.num" 
d="M242 1059q0 -279 106 -417t305 -138q197 0 306.5 139.5t109.5 415.5t-110 415.5t-306 139.5q-192 0 -301.5 -140.5t-109.5 -414.5zM653 633q-235 0 -235 424q0 215 61.5 320.5t173.5 105.5q114 0 177 -106t63 -320q0 -210 -64 -317t-176 -107z" />
    <glyph glyph-name="one.num" 
d="M1022 657h-256v945h-137q0 -57 -12.5 -91t-41.5 -59q-46 -43 -159 -43h-70v-125h262v-627h-268v-131h682v131z" />
    <glyph glyph-name="two.num" 
d="M272 1235h156q8 250 219 250q88 0 142.5 -50t54.5 -132q0 -89 -47 -156q-45 -67 -150 -158l-389 -350v-113h768v144h-539v6q27 19 43 33q21 15 48 36t57 48l135 120q122 106 184 199q54 82 54 195q0 142 -101 227q-100 80 -260 80q-170 0 -272 -100.5t-103 -278.5z" />
    <glyph glyph-name="three.num" 
d="M561 1004h98q104 0 161 -47.5t57 -133.5q0 -84 -62 -135t-156 -51q-96 0 -157.5 48.5t-73.5 145.5h-164q9 -138 98 -227q100 -100 287 -100q180 0 289 94q100 86 100 219q0 116 -63 182q-56 56 -156 80v4q95 34 144 93.5t49 154.5q0 126 -92 203q-100 80 -263 80
q-178 0 -282 -101q-92 -89 -92 -225h163q6 191 207 191q87 0 140 -44.5t53 -121.5q0 -78 -52.5 -127t-138.5 -49h-94v-133z" />
    <glyph glyph-name="four.num" 
d="M1087 913h-172v684h-194l-485 -696v-121h526v-254h153v254h172v133zM397 911l293 416q32 46 49 80l17 33l12 -2v-527h-371z" />
    <glyph glyph-name="five.num" 
d="M883 870q0 -116 -63.5 -174.5t-166.5 -58.5q-207 0 -227 178h-160q10 -132 94 -213q95 -98 285 -98q185 0 293 102q106 100 106 268q0 180 -104 277q-100 86 -250 86q-74 0 -133.5 -26.5t-91.5 -65.5h-10l14 307h518v145h-653l-29 -583h141q63 90 211 90q104 0 165 -61.5
t61 -172.5z" />
    <glyph glyph-name="six.num" 
d="M874 1352h160q-15 111 -100 186q-92 76 -236 76q-428 0 -428 -606q0 -276 117 -400q99 -104 279 -104q176 0 286 110q103 106 103 267q0 169 -99 262q-90 84 -235 84q-95 0 -170 -42t-113 -110h-6q0 187 64 297q67 113 198 113q75 0 121 -36.5t59 -96.5zM668 635
q-92 0 -152 57q-67 64 -67 176t59 170t160 58q99 0 160 -60t61 -168q0 -111 -68 -176q-60 -57 -153 -57z" />
    <glyph glyph-name="seven.num" 
d="M545 526l499 971v100h-782v-151h590l-475 -920h168z" />
    <glyph glyph-name="eight.num" 
d="M291 1321q0 -93 49.5 -156t126.5 -88v-4q-89 -25 -141 -80q-68 -71 -68 -180q0 -139 102 -221q106 -88 295 -88q191 0 295 90q99 82 99 219q0 111 -64 182q-51 54 -139 78v4q76 25 123 87.5t47 156.5q0 128 -90 209q-94 84 -271 84q-173 0 -270 -84q-94 -82 -94 -209z
M655 1489q89 0 144 -45.5t55 -134.5q0 -88 -56 -133.5t-143 -45.5q-89 0 -144.5 45.5t-55.5 133.5q0 89 55 134.5t145 45.5zM655 627q-103 0 -161 47q-70 50 -70 145q0 94 64 140.5t167 46.5q105 0 169.5 -46.5t64.5 -140.5q0 -96 -64.5 -144t-169.5 -48z" />
    <glyph glyph-name="nine.num" 
d="M434 778h-158q23 -134 115 -204t230 -70q205 0 311 141q110 147 110 467q0 251 -104 376.5t-295 125.5q-168 0 -276 -103q-105 -105 -105 -260q0 -167 111 -260q95 -82 233 -82q90 0 160.5 38.5t107.5 101.5h5q0 -213 -63.5 -313.5t-188.5 -100.5q-74 0 -125 37.5
t-68 105.5zM643 1481q91 0 156 -56q69 -62 69 -168q0 -102 -62.5 -160.5t-162.5 -58.5q-96 0 -156.5 57t-60.5 162q0 112 68 173q57 51 149 51z" />
    <glyph glyph-name="zero.sub" 
d="M242 369q0 -279 106 -417t305 -138q197 0 306.5 139.5t109.5 415.5t-110 415.5t-306 139.5q-192 0 -301.5 -140.5t-109.5 -414.5zM653 -57q-235 0 -235 424q0 215 61.5 320.5t173.5 105.5q114 0 177 -106t63 -320q0 -210 -64 -317t-176 -107z" />
    <glyph glyph-name="one.sub" 
d="M1022 -33h-256v944h-137q0 -57 -12.5 -90.5t-41.5 -58.5q-46 -43 -159 -43h-70v-125h262v-627h-268v-131h682v131z" />
    <glyph glyph-name="two.sub" 
d="M272 545h156q8 250 219 250q88 0 142.5 -50.5t54.5 -132.5q0 -88 -47 -155q-45 -67 -150 -158l-389 -350v-113h768v144h-539v6q34 24 43 32q5 4 48 37q35 27 57 47l135 121q122 106 184 199q54 82 54 194q0 143 -101 228q-100 80 -260 80q-170 0 -272 -100.5t-103 -278.5
z" />
    <glyph glyph-name="three.sub" 
d="M561 313h98q104 0 161 -47t57 -133q0 -84 -62 -135t-156 -51q-96 0 -157.5 48.5t-73.5 145.5h-164q9 -138 98 -227q100 -100 287 -100q180 0 289 94q100 86 100 219q0 116 -63 182q-56 56 -156 80v4q95 34 144 93.5t49 154.5q0 126 -92 203q-100 80 -263 80
q-178 0 -282 -101q-92 -89 -92 -225h163q6 190 207 190q87 0 140 -44t53 -121q0 -78 -52.5 -127.5t-138.5 -49.5h-94v-133z" />
    <glyph glyph-name="four.sub" 
d="M1087 223h-172v684h-194l-485 -696v-121h526v-254h153v254h172v133zM397 221l293 416q32 46 49 80l17 33l12 -2v-527h-371z" />
    <glyph glyph-name="five.sub" 
d="M883 180q0 -116 -63.5 -174.5t-166.5 -58.5q-207 0 -227 178h-160q10 -132 94 -213q95 -98 285 -98q185 0 293 102q106 100 106 268q0 180 -104 277q-100 86 -250 86q-74 0 -133.5 -26.5t-91.5 -65.5h-10l14 307h518v145h-653l-29 -583h141q63 90 211 90q104 0 165 -61.5
t61 -172.5z" />
    <glyph glyph-name="six.sub" 
d="M874 662h160q-15 111 -100 186q-92 76 -236 76q-428 0 -428 -607q0 -275 117 -399q99 -104 279 -104q176 0 286 110q103 106 103 266q0 170 -99 263q-90 84 -235 84q-95 0 -170 -42t-113 -110h-6q0 187 64 297q67 113 198 113q75 0 121 -36.5t59 -96.5zM668 -55
q-92 0 -152 57q-67 64 -67 176t59 170t160 58q99 0 160 -60t61 -168q0 -111 -68 -176q-60 -57 -153 -57z" />
    <glyph glyph-name="seven.sub" 
d="M545 -164l499 971v100h-782v-151h590l-475 -920h168z" />
    <glyph glyph-name="eight.sub" 
d="M291 631q0 -93 49.5 -156t126.5 -88v-4q-89 -25 -141 -80q-68 -71 -68 -180q0 -138 102 -221q106 -88 295 -88q191 0 295 90q99 82 99 219q0 111 -64 182q-51 54 -139 78v4q76 25 123 87.5t47 156.5q0 128 -90 209q-94 84 -271 84q-173 0 -270 -84q-94 -82 -94 -209z
M655 799q89 0 144 -46t55 -135q0 -88 -56 -133t-143 -45q-90 0 -145 45t-55 133q0 89 55 135t145 46zM655 -63q-103 0 -161 47q-70 50 -70 145q0 94 64 140t167 46q105 0 169.5 -46t64.5 -140q0 -96 -64.5 -144t-169.5 -48z" />
    <glyph glyph-name="nine.sub" 
d="M434 88h-158q23 -134 115 -204t230 -70q205 0 311 141q110 147 110 467q0 251 -104 376.5t-295 125.5q-168 0 -276 -103q-105 -105 -105 -260q0 -167 111 -260q95 -82 233 -82q91 0 161 38.5t107 100.5h5q0 -213 -63.5 -313t-188.5 -100q-74 0 -125 37.5t-68 105.5z
M643 791q91 0 156 -56q69 -62 69 -168q0 -102 -62.5 -160.5t-162.5 -58.5q-96 0 -156.5 57t-60.5 162q0 111 68 172q58 52 149 52z" />
    <glyph glyph-name="zero.sup" 
d="M242 1212q0 -279 106 -417t305 -138q197 0 306.5 139.5t109.5 415.5t-110 415.5t-306 139.5q-192 0 -301.5 -140.5t-109.5 -414.5zM653 786q-235 0 -235 424q0 215 61.5 320.5t173.5 105.5q114 0 177 -106t63 -320q0 -210 -64 -317t-176 -107z" />
    <glyph glyph-name="one.sup" 
d="M1022 811h-256v944h-137q0 -57 -12.5 -90.5t-41.5 -58.5q-46 -43 -159 -43h-70v-125h262v-627h-268v-131h682v131z" />
    <glyph glyph-name="two.sup" 
d="M272 1389h156q8 249 219 249q88 0 142.5 -50t54.5 -132q0 -89 -47 -156q-44 -65 -150 -157l-389 -350v-113h768v143h-539v6q27 19 43 33q5 4 48 37q35 27 57 47l135 121q122 106 184 199q54 82 54 194q0 143 -101 228q-98 79 -260 79q-170 0 -272 -100t-103 -278z" />
    <glyph glyph-name="three.sup" 
d="M561 1157h98q104 0 161 -47t57 -133q0 -84 -62 -135t-156 -51q-96 0 -157.5 48.5t-73.5 145.5h-164q9 -138 98 -227q101 -101 287 -101q179 0 289 95q100 86 100 219q0 116 -63 182q-56 56 -156 80v4q95 34 144 93.5t49 154.5q0 126 -92 203q-98 79 -263 79
q-179 0 -282 -100q-92 -89 -92 -225h163q6 190 207 190q87 0 140 -44.5t53 -121.5q0 -78 -52.5 -127t-138.5 -49h-94v-133z" />
    <glyph glyph-name="four.sup" 
d="M1087 1067h-172v684h-194l-485 -696v-121h526v-254h153v254h172v133zM397 1065l293 416q32 46 49 80l17 32l12 -2v-526h-371z" />
    <glyph glyph-name="five.sup" 
d="M883 1024q0 -116 -63.5 -174.5t-166.5 -58.5q-207 0 -227 178h-160q10 -132 94 -213q96 -99 285 -99q184 0 293 103q106 100 106 268q0 180 -104 277q-100 86 -250 86q-74 0 -133.5 -27t-91.5 -66h-10l14 308h518v145h-653l-29 -584h141q63 90 211 90q104 0 165 -61
t61 -172z" />
    <glyph glyph-name="six.sup" 
d="M874 1505h160q-16 112 -100 187q-91 75 -236 75q-428 0 -428 -606q0 -275 117 -399q99 -105 279 -105q175 0 286 111q103 106 103 266q0 169 -99 262q-90 84 -235 84q-96 0 -170.5 -41.5t-112.5 -109.5h-6q0 187 64 297q67 112 198 112q75 0 121 -36.5t59 -96.5zM668 788
q-91 0 -152 58q-67 64 -67 176t58.5 169.5t160.5 57.5q99 0 160 -59.5t61 -167.5q0 -111 -68 -176q-61 -58 -153 -58z" />
    <glyph glyph-name="seven.sup" 
d="M545 680l499 971v100h-782v-152h590l-475 -919h168z" />
    <glyph glyph-name="eight.sup" 
d="M291 1475q0 -93 49.5 -156t126.5 -88v-4q-89 -25 -141 -80q-68 -71 -68 -180q0 -139 102 -222q106 -88 295 -88q190 0 295 91q99 82 99 219q0 111 -64 182q-51 54 -139 78v4q76 25 123 87.5t47 156.5q0 127 -90 208q-94 84 -271 84q-173 0 -270 -84q-94 -82 -94 -208z
M655 1642q89 0 144 -45.5t55 -134.5q0 -88 -56 -133t-143 -45q-90 0 -145 45t-55 133q0 89 55 134.5t145 45.5zM655 780q-103 0 -161 47q-70 50 -70 146q0 94 64 140t167 46q105 0 169.5 -46t64.5 -140q0 -96 -64.5 -144.5t-169.5 -48.5z" />
    <glyph glyph-name="nine.sup" 
d="M434 932h-158q23 -134 115 -204.5t230 -70.5q204 0 311 142q110 147 110 467q0 251 -104 376t-295 125q-169 0 -276 -102q-105 -105 -105 -260q0 -167 111 -260q95 -82 233 -82q91 0 161 38.5t107 100.5h5q0 -213 -63.5 -313.5t-188.5 -100.5q-74 0 -125 37.5t-68 106.5z
M643 1634q92 0 156 -55q69 -62 69 -168q0 -102 -62.5 -160.5t-162.5 -58.5q-96 0 -156.5 57t-60.5 162q0 111 68 172q57 51 149 51z" />
    <glyph glyph-name="backslash.uc" 
d="M1198 -164l-930 1880h-170l930 -1880h170z" />
    <glyph glyph-name="exclamdown.uc" 
d="M539 1292h274v275h-274v-275zM602 1081l-29 -1128h205l-26 1128h-150z" />
    <glyph glyph-name="questiondown.uc" 
d="M518 1292h275v275h-275v-275zM367 358q0 83 34.5 146t104.5 121l86 75q5 4 18 15.5t17.5 15.5t15 13.5t14.5 13t12.5 11.5t12 12t9.5 11t9.5 11.5t7.5 10.5t7 11q24 44 24 146v131h-168v-101q0 -75 -12 -100q-3 -7 -8 -13.5t-13 -15t-13.5 -14.5t-19.5 -18.5t-22 -20.5
l-75 -65q-108 -92 -152 -160q-72 -111 -72 -252q0 -77 28 -150.5t83 -128.5q129 -129 352 -129q109 0 202.5 38t158.5 108q136 146 127 383h-174q4 -178 -79.5 -273.5t-238.5 -95.5q-126 0 -201 73t-75 191z" />
    <glyph glyph-name="slash.uc" 
d="M276 -164l930 1880h-170l-930 -1880h170z" />
    <glyph glyph-name="braceleft.uc" 
d="M250 684h102q91 0 123.5 -34.5t32.5 -121.5v-344q0 -203 106 -282q102 -76 357 -76h45v143q-198 0 -262 39q-72 44 -72 166v340q0 104 -29 156q-43 77 -147 90v8q103 13 147 92q29 52 29 154v340q0 121 72 168q67 41 262 41v143h-45q-253 0 -357 -80q-106 -82 -106 -285
v-337q0 -87 -32.5 -121.5t-123.5 -34.5h-102v-164z" />
    <glyph glyph-name="braceright.uc" 
d="M1061 848h-103q-92 0 -124 35q-31 31 -31 121v344q0 200 -107 282q-102 76 -356 76h-45v-143q198 0 262 -39q72 -44 72 -166v-340q0 -104 28 -154q44 -79 148 -92v-8q-105 -13 -148 -90q-28 -50 -28 -156v-340q0 -122 -72 -166q-66 -43 -262 -43v-143h45q252 0 356 80
q107 82 107 284v338q0 90 31 121q32 35 124 35h103v164z" />
    <glyph glyph-name="bracketleft.uc" 
d="M985 -174v143h-395v1594h395v143h-569v-1880h569z" />
    <glyph glyph-name="bracketright.uc" 
d="M326 1706v-143h395v-1594h-395v-143h569v1880h-569z" />
    <glyph glyph-name="parenleft.uc" 
d="M823 -174h191q-181 181 -285 397q-125 260 -125 543q0 285 123 537q102 214 287 403h-191q-189 -186 -288 -397q-113 -242 -113 -543q0 -304 115 -543q98 -212 286 -397z" />
    <glyph glyph-name="parenright.uc" 
d="M487 1706h-190q179 -179 285 -397q125 -260 125 -543q0 -282 -121 -537q-98 -202 -289 -403h190q191 188 289 397q113 242 113 543q0 300 -113 545q-101 210 -289 395z" />
    <glyph glyph-name="emdash.uc" 
d="M1311 686v150h-1311v-150h1311z" />
    <glyph glyph-name="endash.uc" 
d="M1049 686v150h-787v-150h787z" />
    <glyph glyph-name="hyphen.uc" 
d="M936 666v188h-561v-188h561z" />
    <glyph glyph-name="guillemotleft.uc" 
d="M223 657l234 -417h188l-223 411l213 422h-180zM637 657l233 -417h187l-221 411l213 422h-181z" />
    <glyph glyph-name="guillemotright.uc" 
d="M674 657l-232 416h-186l221 -411l-215 -422h182zM1087 657l-233 416h-184l219 -411l-213 -422h180z" />
    <glyph glyph-name="guilsinglleft.uc" 
d="M725 1073l-397 -418l397 -415h223l-381 419l381 414h-223z" />
    <glyph glyph-name="guilsinglright.uc" 
d="M586 238l397 417l-397 416h-224l381 -420l-381 -413h224z" />
    <glyph glyph-name="space_uni0326" 
d="M633 -414l184 305h-276l-66 -305h158z" />
    <glyph glyph-name="minus.den" 
d="M1010 369v133h-705v-133h705z" />
    <glyph glyph-name="plus.den" 
d="M1012 371v129h-287v278h-141v-278h-287v-129h287v-281h141v281h287z" />
    <glyph glyph-name="minus.num" 
d="M1010 977v133h-705v-133h705z" />
    <glyph glyph-name="plus.num" 
d="M1012 979v129h-287v278h-141v-278h-287v-129h287v-281h141v281h287z" />
    <glyph glyph-name="minus.sub" 
d="M1010 287v133h-705v-133h705z" />
    <glyph glyph-name="plus.sub" 
d="M1012 289v129h-287v278h-141v-278h-287v-129h287v-281h141v281h287z" />
    <glyph glyph-name="minus.sup" 
d="M1010 1130v134h-705v-134h705z" />
    <glyph glyph-name="plus.sup" 
d="M1012 1133v129h-287v278h-141v-278h-287v-129h287v-281h141v281h287z" />
    <glyph glyph-name="dagger.alt01" 
d="M1001 1141v135h-272v291h-145v-291h-275v-135h275v-588h145v588h272z" />
    <glyph glyph-name="daggerdbl.alt01" 
d="M1001 803v135h-272v244h272v135h-272v250h-145v-250h-275v-135h275v-244h-275v-135h275v-250h145v250h272z" />
    <glyph glyph-name="bar.uc" 
d="M731 -164v1880h-153v-1880h153z" />
    <glyph glyph-name="at.uc" 
d="M713 -37q137 0 248 43l6 127q-67 -17 -109 -24q-51 -11 -135 -11q-269 0 -369 185q-44 82 -61 200t-17 285v78v35.5v37v34t0.5 36t1.5 33t2 35.5t2.5 32t3.5 34t5 31t6 32q28 139 113 215q94 84 266 84q196 0 287 -125q75 -106 75 -301h-12q-74 133 -240 133
q-152 0 -238.5 -107t-86.5 -305q0 -211 92 -313q81 -94 217 -94q196 0 260 155h4v-133h152v668q0 247 -123 391q-137 160 -387 160q-220 0 -350 -105q-115 -90 -166 -266q-22 -79 -28.5 -167.5t-6.5 -219.5v-135q0 -399 129 -571q138 -187 459 -187zM817 502q-98 0 -141 82
q-37 70 -37 202q0 279 192 279q80 0 135.5 -69t55.5 -181v-78q0 -101 -57.5 -168t-147.5 -67z" />
    <glyph glyph-name="caron.alt" 
d="M643 1196l158 418h-223l-50 -418h115z" />
    <glyph glyph-name="acute.uc" 
d="M625 1694l215 272h-277l-104 -272h166z" />
    <glyph glyph-name="breve.uc" 
d="M500 1987h-162q13 -147 96 -217t219 -70q137 0 221 70t97 217h-152q-12 -67 -54.5 -102.5t-105.5 -35.5t-105 35t-54 103z" />
    <glyph glyph-name="caron.uc" 
d="M772 1694l199 272h-172l-137 -135h-7l-137 135h-178l199 -272h233z" />
    <glyph glyph-name="circumflex.uc" 
d="M539 1966l-199 -272h172l137 135h6l138 -135h178l-199 272h-233z" />
    <glyph glyph-name="dieresis.uc" 
d="M565 1694v264h-266v-264h266zM1006 1694v264h-265v-264h265z" />
    <glyph glyph-name="dotaccent.uc" 
d="M788 1694v264h-266v-264h266z" />
    <glyph glyph-name="grave.uc" 
d="M416 1966l215 -272h166l-105 272h-276z" />
    <glyph glyph-name="hungarumlaut.uc" 
d="M479 1694l148 293h-240l-63 -293h155zM809 1694l147 293h-239l-64 -293h156z" />
    <glyph glyph-name="macron.uc" 
d="M979 1733v170h-651v-170h651z" />
    <glyph glyph-name="ring.uc" 
d="M647 1632q118 0 192 73.5t74 186.5q0 114 -73 187q-75 75 -193 75q-115 0 -190 -75q-74 -74 -74 -187q0 -112 74 -186t190 -74zM647 2044q62 0 100.5 -44t38.5 -108q0 -66 -38 -107.5t-101 -41.5q-61 0 -99 41.5t-38 107.5q0 64 38.5 108t98.5 44z" />
    <glyph glyph-name="tilde.uc" 
d="M283 1694h151q11 116 86 116q26 0 58 -16q29 -19 63 -37q96 -55 164 -55q104 0 164 76t65 200h-149q-6 -62 -25 -89t-59 -27q-32 0 -62 18q-24 12 -65 37q-33 18 -50.5 26t-50 17.5t-63.5 9.5q-103 0 -162.5 -75t-64.5 -201z" />
    <glyph glyph-name="uni0326.alt" horiz-adv-x="0" 
d="M674 1585l-197 -338h277l77 338h-157z" />
    <glyph glyph-name="DC1" horiz-adv-x="1024" 
 />
    <glyph glyph-name="DC2" horiz-adv-x="1024" 
 />
    <glyph glyph-name="DC3" horiz-adv-x="1024" 
 />
    <glyph glyph-name="DC4" horiz-adv-x="1024" 
 />
    <glyph glyph-name="DLE" horiz-adv-x="1024" 
 />
    <glyph glyph-name="HT" horiz-adv-x="1024" 
 />
    <glyph glyph-name="LF" horiz-adv-x="1024" 
 />
    <glyph glyph-name="RS" horiz-adv-x="1024" 
 />
    <glyph glyph-name="US" horiz-adv-x="1024" 
 />
  </font>
</defs>
</svg>
